<svg width="16" height="16" viewBox="0 0 16 16" fill="none" xmlns="http://www.w3.org/2000/svg">
<path fill-rule="evenodd" clip-rule="evenodd" d="M6 9.5V11.971L10.276 8.472C10.3459 8.41479 10.4022 8.34276 10.4409 8.26114C10.4795 8.17951 10.4996 8.09032 10.4996 8C10.4996 7.90968 10.4795 7.82049 10.4409 7.73886C10.4022 7.65724 10.3459 7.58521 10.276 7.528L6 4.029V6.5H2.75C2.6837 6.5 2.62011 6.52634 2.57322 6.57322C2.52634 6.62011 2.5 6.6837 2.5 6.75V9.25C2.5 9.388 2.612 9.5 2.75 9.5H6ZM13.5 8.002V14.25C13.5 14.4489 13.579 14.6397 13.7197 14.7803C13.8603 14.921 14.0511 15 14.25 15C14.4489 15 14.6397 14.921 14.7803 14.7803C14.921 14.6397 15 14.4489 15 14.25V1.75C15 1.55109 14.921 1.36032 14.7803 1.21967C14.6397 1.07902 14.4489 1 14.25 1C14.0511 1 13.8603 1.07902 13.7197 1.21967C13.579 1.36032 13.5 1.55109 13.5 1.75V8.002ZM12 8.002C11.9997 8.31419 11.9301 8.62242 11.7962 8.90446C11.6624 9.1865 11.4676 9.43533 11.226 9.633L6.907 13.167C6.69109 13.3435 6.42953 13.4552 6.1527 13.489C5.87587 13.5228 5.59512 13.4774 5.34307 13.358C5.09102 13.2386 4.87801 13.0502 4.72878 12.8146C4.57954 12.579 4.50021 12.3059 4.5 12.027V11H2.75C2.28587 11 1.84075 10.8156 1.51256 10.4874C1.18437 10.1592 1 9.71413 1 9.25V6.75C1 5.784 1.784 5 2.75 5H4.5V3.974C4.50021 3.69511 4.57954 3.422 4.72878 3.1864C4.87801 2.9508 5.09102 2.76237 5.34307 2.64299C5.59512 2.52362 5.87587 2.4782 6.1527 2.51201C6.42953 2.54582 6.69109 2.65747 6.907 2.834L11.226 6.367C11.716 6.767 12 7.367 12 7.999" fill="#1E1E1E"/>
</svg>
