<svg width="14" height="14" viewBox="0 0 14 14" fill="none" xmlns="http://www.w3.org/2000/svg">
<path fill-rule="evenodd" clip-rule="evenodd" d="M4.87999 3.667H2.13999V2.37C2.1396 2.00665 2.28355 1.65803 2.5402 1.40082C2.79684 1.14362 3.14515 0.998898 3.50849 0.9985C3.87184 0.998102 4.22046 1.14206 4.47767 1.3987C4.73488 1.65535 4.8796 2.00365 4.87999 2.367V3.667ZM8.36399 4.838C8.20623 4.48864 7.95093 4.19229 7.62877 3.98455C7.30662 3.77682 6.93132 3.66655 6.54799 3.667H5.87999V1.37C5.87999 1.00665 6.02433 0.658189 6.28126 0.401264C6.53818 0.144339 6.88665 0 7.24999 0C7.61334 0 7.96181 0.144339 8.21873 0.401264C8.47566 0.658189 8.61999 1.00665 8.61999 1.37V4.041C8.61999 4.339 8.52499 4.614 8.36399 4.838ZM6.61299 4.92C6.78503 4.93533 6.94636 5.01004 7.06934 5.13131C7.19232 5.25258 7.26927 5.41286 7.28701 5.58466C7.30474 5.75646 7.26215 5.92908 7.16654 6.07292C7.07094 6.21675 6.92826 6.32284 6.76299 6.373L4.65599 7.013C4.51346 7.05715 4.39143 7.15084 4.31195 7.27713C4.23248 7.40342 4.20081 7.55398 4.22268 7.70159C4.24454 7.84919 4.31849 7.98411 4.43116 8.08194C4.54383 8.17977 4.68778 8.23406 4.83699 8.235C5.19399 8.235 5.64899 8.413 6.01699 8.749C6.37899 9.079 6.59399 9.503 6.58499 9.944C6.58322 10.0261 6.59763 10.1077 6.6274 10.1842C6.65717 10.2607 6.70172 10.3306 6.75851 10.3899C6.81529 10.4492 6.88319 10.4967 6.95834 10.5298C7.03349 10.5628 7.11442 10.5807 7.19649 10.5825C7.27857 10.5843 7.36019 10.5699 7.4367 10.5401C7.51321 10.5103 7.5831 10.4658 7.64239 10.409C7.70168 10.3522 7.74921 10.2843 7.78225 10.2091C7.8153 10.134 7.83322 10.0531 7.83499 9.971C7.85299 9.088 7.42199 8.338 6.85999 7.825C6.81111 7.78001 6.76075 7.73665 6.70899 7.695L7.12599 7.569C7.47072 7.46396 7.78065 7.26773 8.02304 7.00105C8.26542 6.73437 8.43125 6.40716 8.50299 6.054C8.73941 5.90593 8.9482 5.71778 9.11999 5.498C9.35102 5.79567 9.64975 6.03391 9.99136 6.19292C10.333 6.35193 10.7076 6.42713 11.0841 6.41227C11.4606 6.3974 11.8281 6.2929 12.1561 6.10745C12.4841 5.922 12.7632 5.66095 12.97 5.346C13.0167 5.57667 13.04 5.81133 13.04 6.05V7.084C13.04 9.89 10.701 10.826 10.701 10.826V13.5C10.701 13.6326 10.6483 13.7598 10.5545 13.8536C10.4608 13.9473 10.3336 14 10.201 14H3.79499C3.66239 14 3.53521 13.9473 3.44144 13.8536C3.34767 13.7598 3.29499 13.6326 3.29499 13.5V11.07C1.89499 10.584 0.954994 8.648 0.955994 7.328C0.955994 6.187 1.21299 4.995 2.47899 4.995L6.61299 4.92ZM10.99 1.066C10.6266 1.066 10.2782 1.21034 10.0213 1.46726C9.76433 1.72419 9.61999 2.07265 9.61999 2.436V4.041C9.61999 4.40435 9.76433 4.75281 10.0213 5.00974C10.2782 5.26666 10.6266 5.411 10.99 5.411C11.3533 5.411 11.7018 5.26666 11.9587 5.00974C12.2157 4.75281 12.36 4.40435 12.36 4.041V2.436C12.36 2.07265 12.2157 1.72419 11.9587 1.46726C11.7018 1.21034 11.3533 1.066 10.99 1.066Z" fill="#230B41"/>
</svg>
