<svg width="14" height="14" viewBox="0 0 14 14" fill="none" xmlns="http://www.w3.org/2000/svg">
<path d="M11.6608 2.32816C10.7549 1.44091 9.51358 1.40649 8.88125 2.02599L6.72291 4.14057C6.63969 4.21986 6.5286 4.26322 6.41367 4.26126C6.29874 4.2593 6.18919 4.21219 6.10872 4.1301C6.02824 4.04802 5.98331 3.93756 5.98363 3.82262C5.98394 3.70767 6.02949 3.59746 6.11041 3.51582L8.26875 1.40124C9.33975 0.351822 11.1352 0.588656 12.2733 1.70341C13.4126 2.81932 13.6605 4.59382 12.5813 5.65141L10.8856 7.31274C10.8445 7.35296 10.7959 7.38469 10.7426 7.40613C10.6893 7.42758 10.6323 7.43831 10.5748 7.43771C10.5173 7.43712 10.4605 7.42521 10.4077 7.40266C10.3548 7.38012 10.3069 7.34738 10.2667 7.30632C10.2264 7.26526 10.1947 7.21668 10.1733 7.16336C10.1518 7.11003 10.1411 7.05301 10.1417 6.99553C10.1423 6.93806 10.1542 6.88127 10.1767 6.8284C10.1993 6.77553 10.232 6.72762 10.2731 6.68741L11.9688 5.02607C12.593 4.41474 12.565 3.21424 11.6608 2.32816ZM3.864 2.09074C3.83243 2.04225 3.79157 2.0005 3.74376 1.96791C3.69595 1.93532 3.64216 1.91254 3.58549 1.90088C3.52881 1.88922 3.47039 1.88892 3.4136 1.89999C3.35682 1.91106 3.30279 1.93329 3.25465 1.96538C3.20651 1.99748 3.16521 2.0388 3.13315 2.08696C3.10108 2.13512 3.07889 2.18917 3.06786 2.24596C3.05682 2.30276 3.05716 2.36118 3.06886 2.41784C3.08056 2.47451 3.10337 2.52829 3.136 2.57607L4.30266 4.32607C4.36761 4.42122 4.46747 4.4869 4.58055 4.50887C4.69364 4.53084 4.81082 4.50733 4.90668 4.44343C5.00253 4.37952 5.06931 4.2804 5.09252 4.16756C5.11573 4.05472 5.09351 3.93729 5.03066 3.84074L3.864 2.09074ZM1.30491 4.25199C1.25019 4.23295 1.19223 4.22497 1.1344 4.22852C1.07656 4.23206 1.02001 4.24706 0.968021 4.27264C0.916032 4.29822 0.869642 4.33387 0.831543 4.37752C0.793444 4.42118 0.764396 4.47196 0.746085 4.52694C0.727774 4.58191 0.720565 4.63997 0.724876 4.69775C0.729187 4.75553 0.744932 4.81188 0.771198 4.86353C0.797464 4.91517 0.833727 4.96108 0.877881 4.9986C0.922036 5.03612 0.973204 5.06449 1.02841 5.08207L4.52841 6.24874C4.63802 6.28364 4.75696 6.27397 4.85949 6.22183C4.96202 6.16969 5.03989 6.07926 5.07624 5.97013C5.11259 5.86099 5.1045 5.74194 5.05372 5.63872C5.00294 5.53551 4.91355 5.45645 4.80491 5.41866L1.30491 4.25199ZM3.92466 7.29524C4.00112 7.20932 4.04066 7.09674 4.03474 6.98188C4.02881 6.86702 3.9779 6.75911 3.89301 6.68151C3.80812 6.60391 3.69609 6.56285 3.58116 6.56723C3.46623 6.57161 3.35765 6.62107 3.27891 6.70491L2.54333 7.50991C1.53591 8.61182 1.75583 10.4575 2.83733 11.6405C3.92525 12.8305 5.67816 13.1017 6.71941 11.9625L9.07316 9.38766C9.14962 9.30173 9.18916 9.18916 9.18324 9.0743C9.17731 8.95944 9.1264 8.85153 9.04151 8.77393C8.95662 8.69632 8.84459 8.65527 8.72966 8.65965C8.61473 8.66403 8.50615 8.71349 8.42741 8.79732L6.07366 11.3722C5.48975 12.0109 4.34525 11.9934 3.48366 11.0502C2.6145 10.1005 2.57133 8.77516 3.18908 8.09966L3.92466 7.29524Z" fill="#230B41"/>
</svg>
