<svg width="24" height="22" viewBox="0 0 24 22" fill="none" xmlns="http://www.w3.org/2000/svg">
<g clip-path="url(#clip0_113_69)">
<path d="M12 1.22217C9.89032 1.22217 7.82803 1.79562 6.0739 2.87002C4.31978 3.94442 2.9526 5.4715 2.14527 7.25815C1.33793 9.04481 1.1267 11.0108 1.53827 12.9075C1.94985 14.8042 2.96575 16.5464 4.45751 17.9139C5.94927 19.2813 7.84989 20.2126 9.91902 20.5898C11.9882 20.9671 14.1329 20.7735 16.0819 20.0334C18.031 19.2934 19.6969 18.0401 20.869 16.4322C22.0411 14.8242 22.6667 12.9338 22.6667 10.9999C22.6667 8.40672 21.5428 5.9197 19.5425 4.08601C17.5421 2.25232 14.829 1.22217 12 1.22217ZM12 19.5555C10.154 19.5555 8.34952 19.0537 6.81466 18.1136C5.2798 17.1735 4.08353 15.8373 3.37711 14.274C2.67069 12.7107 2.48586 10.9905 2.84599 9.33084C3.20612 7.67123 4.09503 6.14677 5.40032 4.95025C6.70561 3.75374 8.36865 2.9389 10.1791 2.60878C11.9896 2.27866 13.8663 2.44809 15.5717 3.09564C17.2771 3.74319 18.7348 4.83978 19.7604 6.24673C20.7859 7.65369 21.3333 9.30782 21.3333 10.9999C21.3333 13.269 20.35 15.4452 18.5996 17.0496C16.8493 18.6541 14.4753 19.5555 12 19.5555Z" fill="black"/>
<path d="M18.6666 7.3945C18.5417 7.28068 18.3728 7.2168 18.1966 7.2168C18.0205 7.2168 17.8516 7.28068 17.7266 7.3945L10.3266 14.1473L6.32664 10.4806C6.20464 10.3599 6.03531 10.2885 5.8559 10.2822C5.6765 10.2759 5.5017 10.3352 5.36998 10.447C5.23825 10.5588 5.16039 10.7141 5.15351 10.8785C5.14664 11.043 5.21131 11.2032 5.33331 11.3239L10.3266 15.8889L18.6666 8.26228C18.7291 8.20547 18.7787 8.13788 18.8126 8.06341C18.8464 7.98894 18.8638 7.90907 18.8638 7.82839C18.8638 7.74772 18.8464 7.66784 18.8126 7.59337C18.7787 7.5189 18.7291 7.45131 18.6666 7.3945Z" fill="black"/>
</g>
<defs>
<clipPath id="clip0_113_69">
<rect width="24" height="22" fill="white"/>
</clipPath>
</defs>
</svg>
