<svg width="134" height="63" viewBox="0 0 134 63" fill="none" xmlns="http://www.w3.org/2000/svg">
<path d="M96.1769 24.2606C95.7999 23.4445 95.2834 22.6977 94.5822 22.0721C92.7713 20.4555 89.7252 19.3782 87.2192 18.786C83.341 17.8697 79.2273 17.455 75.2063 17.3453C70.1962 17.2089 65.1592 17.4802 60.2196 18.1997C55.3022 18.9161 50.0955 20.0031 46.3289 22.9198C41.5446 26.624 41.7714 32.6934 43.8022 37.5363C45.016 40.4298 47.1006 42.9798 50.1845 44.6833C51.6364 45.4851 53.2437 46.0389 54.9144 46.426C55.8384 48.2392 56.0012 50.1648 53.7977 51.1823C53.0529 51.5262 53.3546 52.6124 54.2441 52.5586C58.649 52.2955 62.4512 50.1754 65.1032 47.2825C65.2806 47.0893 67.3533 47.1755 67.7142 47.1494C68.6724 47.0801 69.6281 46.989 70.5808 46.882C74.6156 46.4269 78.6356 46.182 82.6297 45.4602C86.6427 44.7337 90.9305 43.6831 93.3521 40.6902C95.4819 38.0564 96.7109 34.6746 96.9868 31.534C97.1812 29.3103 97.219 26.5204 96.1769 24.2606Z" fill="white"/>
<mask id="mask0_136_43" style="mask-type:luminance" maskUnits="userSpaceOnUse" x="41" y="16" width="57" height="37">
<path d="M41.875 16.9253H97.6153V52.9668H41.875V16.9253Z" fill="white"/>
</mask>
<g mask="url(#mask0_136_43)">
<path d="M96.1769 24.2607L96.6131 24.1201C96.2202 23.267 95.6739 22.4743 94.9236 21.8047C93.9636 20.9488 92.7055 20.2555 91.3715 19.6953C90.0367 19.1356 88.6231 18.7115 87.3468 18.4098C83.4203 17.4822 79.2706 17.0648 75.2216 16.9542C74.3856 16.9314 73.5481 16.9202 72.7106 16.9202C68.5013 16.9202 64.2869 17.21 60.1393 17.8146C57.669 18.1743 55.1114 18.6288 52.6825 19.3671C50.2547 20.1057 47.952 21.1296 46.0102 22.6332C44.5467 23.7655 43.5318 25.1157 42.8874 26.5737C42.2432 28.0318 41.967 29.5976 41.967 31.1775C41.967 33.3914 42.5082 35.6342 43.3606 37.6659C43.9804 39.1449 44.8252 40.54 45.9138 41.7866C47.0025 43.0334 48.3355 44.1305 49.9261 45.0095C51.4285 45.8392 53.0828 46.4074 54.7894 46.8032L54.9144 46.4262L54.484 46.5796C54.8574 47.3097 55.09 48.0474 55.0889 48.6973C55.0882 49.1463 54.9817 49.5498 54.7469 49.9043C54.5102 50.2589 54.1442 50.5746 53.5709 50.8401C53.3456 50.9434 53.1725 51.0989 53.0646 51.2706C52.9563 51.4423 52.9086 51.6288 52.9086 51.8102C52.909 52.0836 53.0133 52.3531 53.2267 52.5731C53.3336 52.6821 53.4706 52.7785 53.6331 52.8462C53.7959 52.9146 53.985 52.9522 54.1812 52.9516C54.2129 52.9516 54.2434 52.9513 54.2721 52.9498L54.2768 52.9492C56.56 52.8128 58.6843 52.1948 60.5726 51.242C62.4614 50.289 64.1164 49.002 65.4748 47.5206L65.1909 47.3386L65.3897 47.5883C65.409 47.5765 65.4395 47.5582 65.4748 47.5206L65.1909 47.3386L65.3897 47.5883L65.2658 47.4328L65.3548 47.6041C65.3592 47.6026 65.3701 47.5983 65.3897 47.5883L65.2658 47.4328L65.3548 47.6041L65.3323 47.5607L65.3519 47.605L65.3548 47.6041L65.3323 47.5607L65.3519 47.605C65.3548 47.6035 65.417 47.5898 65.5013 47.581C65.6293 47.5664 65.8121 47.5561 66.0131 47.5506C66.2141 47.5449 66.4355 47.543 66.65 47.543C66.9364 47.543 67.2108 47.5461 67.4209 47.5461C67.4889 47.5461 67.5504 47.5455 67.6045 47.5449C67.6594 47.544 67.7059 47.5424 67.7521 47.5394H67.7546C68.7212 47.4695 69.6841 47.3778 70.6437 47.2699C74.6597 46.8166 78.6923 46.572 82.7286 45.8423C84.7471 45.4768 86.855 45.0277 88.7845 44.28C89.7496 43.906 90.6699 43.4567 91.5093 42.9034C92.3486 42.3502 93.1054 41.6936 93.74 40.9094C95.9258 38.2036 97.1704 34.7671 97.4532 31.5627C97.5161 30.8454 97.563 30.0673 97.563 29.264C97.5615 27.5538 97.3539 25.7285 96.6139 24.1201L95.7396 24.4014C96.4176 25.8676 96.628 27.6079 96.6266 29.264C96.6266 30.0418 96.5815 30.8017 96.5193 31.5056C96.2511 34.5827 95.0388 37.9092 92.964 40.4707C92.3882 41.1835 91.7012 41.7805 90.9295 42.2891C89.7732 43.0511 88.4239 43.6147 86.9866 44.0534C85.5501 44.493 84.0263 44.8071 82.5305 45.0778C78.5796 45.793 74.5724 46.0379 70.5187 46.4946C69.5721 46.6009 68.6238 46.6911 67.6739 46.7598L67.6765 46.7595C67.6649 46.7604 67.6307 46.7613 67.5863 46.7625C67.5416 46.7628 67.4853 46.7634 67.4209 46.7634C67.221 46.7634 66.944 46.7604 66.65 46.7604C66.3039 46.7604 65.9364 46.7647 65.6242 46.7844C65.4675 46.7944 65.3257 46.8078 65.1934 46.8318C65.1262 46.844 65.0618 46.8588 64.9891 46.8838C64.9532 46.8968 64.9143 46.9126 64.871 46.9363C64.8281 46.9606 64.7794 46.9928 64.7314 47.0442C63.4381 48.4563 61.8652 49.6759 60.0892 50.5715C58.312 51.4681 56.3328 52.042 54.2103 52.1687L54.2441 52.5588L54.2154 52.1687C54.2012 52.1693 54.1896 52.1696 54.1812 52.1696C54.1238 52.1693 54.0856 52.1602 54.05 52.1459C53.9984 52.1243 53.9482 52.0845 53.9083 52.0241C53.8686 51.9639 53.8443 51.8849 53.8443 51.8102C53.8443 51.744 53.8625 51.6826 53.8923 51.6364C53.9228 51.5896 53.9599 51.5553 54.0239 51.5249C54.728 51.2007 55.2412 50.7745 55.5655 50.2838C55.8908 49.7937 56.0256 49.2496 56.0249 48.6973C56.0238 47.8946 55.7494 47.0676 55.3455 46.2728C55.2892 46.164 55.1765 46.0808 55.0402 46.0492C53.4048 45.6703 51.8443 45.1313 50.4423 44.3569C48.9505 43.5326 47.6983 42.503 46.6703 41.3257C45.6419 40.1484 44.8375 38.8216 44.2436 37.407C43.4221 35.4477 42.9026 33.2842 42.9026 31.1775C42.9026 29.6736 43.1665 28.1998 43.7659 26.8447C44.3657 25.4891 45.2977 24.2522 46.6463 23.2071C48.4718 21.7934 50.6564 20.8163 53.0024 20.1027C55.3484 19.389 57.8537 18.9418 60.3 18.5854C64.3919 17.989 68.5529 17.7028 72.7106 17.7028C73.5375 17.7028 74.3649 17.7137 75.1911 17.7362C79.1841 17.8453 83.2618 18.2576 87.092 19.1627C88.3206 19.4531 89.6841 19.8633 90.9513 20.3949C92.2192 20.926 93.39 21.5789 94.2402 22.3397C94.8931 22.9218 95.3809 23.6224 95.7396 24.4014L96.1769 24.2607Z" fill="#230B41"/>
</g>
<path d="M83.2647 19.9233C83.9037 19.8826 84.4435 19.9646 85.0324 20.2104Z" fill="white"/>
<path d="M83.3014 20.3133C83.3941 20.3072 83.4832 20.3041 83.5682 20.3041C84.0132 20.3057 84.3828 20.378 84.8234 20.5603C85.0542 20.6572 85.3352 20.5788 85.4512 20.3856C85.5671 20.1926 85.4737 19.9578 85.2422 19.8609C84.6955 19.6303 84.1469 19.52 83.5682 19.5215C83.4563 19.5215 83.3436 19.5258 83.2287 19.5327C82.971 19.5498 82.7784 19.7375 82.7987 19.9535C82.818 20.1686 83.0437 20.3303 83.3014 20.3133Z" fill="#230B41"/>
<path d="M85.8179 20.6211C89.55 21.1546 92.7902 23.5757 93.969 26.572Z" fill="white"/>
<path d="M85.7394 21.0066C87.5108 21.2594 89.1785 21.9639 90.542 22.9665C91.9058 23.9691 92.9636 25.267 93.5241 26.6935C93.6052 26.8989 93.8698 27.011 94.1155 26.9432C94.3609 26.8761 94.4946 26.6549 94.4139 26.4495C93.796 24.88 92.6441 23.47 91.1606 22.3792C89.6765 21.2888 87.8575 20.5156 85.8972 20.2355C85.6424 20.1987 85.4006 20.3418 85.3567 20.5548C85.3134 20.7678 85.4846 20.9701 85.7394 21.0066Z" fill="#230B41"/>
<path d="M93.9429 27.5153C93.9429 27.68 93.9429 27.8028 93.9429 27.9261C93.9429 28.1421 94.1526 28.3171 94.4111 28.3171C94.6695 28.3171 94.8792 28.1421 94.8792 27.9261C94.8792 27.8028 94.8792 27.68 94.8792 27.5153C94.8792 27.2993 94.6695 27.124 94.4111 27.124C94.1526 27.124 93.9429 27.2993 93.9429 27.5153Z" fill="#230B41"/>
<path d="M70.2042 45.2449C70.744 45.2449 71.2355 45.1628 71.7756 45.1218Z" fill="white"/>
<path d="M70.2042 45.6359C70.5026 45.6359 70.78 45.6137 71.0453 45.587C71.3103 45.5605 71.5633 45.5305 71.8174 45.5116C72.0755 45.4919 72.2649 45.3017 72.2416 45.0863C72.218 44.8712 71.9904 44.7129 71.7334 44.7323C71.4474 44.7542 71.1849 44.7852 70.9345 44.8101C70.6837 44.835 70.4459 44.8536 70.2042 44.8536C69.9458 44.8536 69.736 45.0289 69.736 45.2449C69.736 45.4609 69.9458 45.6359 70.2042 45.6359Z" fill="#230B41"/>
<path d="M73.8374 44.9575C74.9181 44.7527 76.0471 44.7934 77.1278 44.67C79.239 44.506 81.3502 44.1368 83.3629 43.48" fill="white"/>
<path d="M73.941 45.339C74.4404 45.2442 74.9682 45.2038 75.5135 45.1734C76.0591 45.1428 76.6221 45.1224 77.191 45.0577L77.1278 44.67L77.171 45.0598C79.3175 44.8927 81.4723 44.5166 83.5337 43.8448C83.7743 43.7658 83.8932 43.5392 83.7994 43.3378C83.7056 43.1366 83.4337 43.0373 83.1927 43.1157C81.2277 43.7567 79.1597 44.1195 77.0845 44.2808L77.0642 44.2823C76.5527 44.341 76.0111 44.3619 75.4513 44.3929C74.8926 44.4239 74.3154 44.4658 73.7338 44.5758C73.4823 44.6238 73.3238 44.8335 73.3808 45.044C73.4383 45.2549 73.6894 45.3867 73.9417 45.339" fill="#230B41"/>
<path d="M50.7783 26.2292V28.0461H50.2491V26.2292H50.7783Z" fill="#230B41"/>
<path d="M51.7134 27.3241C51.7134 27.1743 51.7498 27.0433 51.8225 26.9315C51.8959 26.8191 51.9984 26.7328 52.1293 26.6727C52.2601 26.6119 52.4103 26.5815 52.58 26.5815C52.7959 26.5815 52.977 26.6289 53.1224 26.7237C53.2678 26.8185 53.363 26.9522 53.4088 27.1248H52.8461C52.7985 27.0148 52.7065 26.9595 52.5698 26.9595C52.4728 26.9595 52.3954 26.9911 52.3372 27.0543C52.2798 27.1169 52.2514 27.2068 52.2514 27.3241C52.2514 27.4417 52.2798 27.5319 52.3372 27.5951C52.3954 27.6577 52.4728 27.6887 52.5698 27.6887C52.7065 27.6887 52.7985 27.6337 52.8461 27.5234H53.4088C53.363 27.6929 53.267 27.8257 53.1209 27.922C52.9744 28.0186 52.7941 28.0666 52.58 28.0666C52.4103 28.0666 52.2601 28.0368 52.1293 27.9767C51.9984 27.9159 51.8959 27.8296 51.8225 27.7178C51.7498 27.6054 51.7134 27.4742 51.7134 27.3241Z" fill="#230B41"/>
<path d="M53.5858 27.3216C53.5858 27.1734 53.6192 27.0433 53.6861 26.9315C53.753 26.8191 53.8438 26.7328 53.9594 26.6727C54.0747 26.6119 54.2037 26.5815 54.3462 26.5815C54.4683 26.5815 54.5748 26.6022 54.6661 26.6435C54.758 26.6848 54.8293 26.7392 54.8798 26.8064V26.6022H55.4091V28.046H54.8798V27.8418C54.8275 27.9092 54.7551 27.9633 54.6632 28.0046C54.5719 28.046 54.4654 28.0666 54.3433 28.0666C54.2026 28.0666 54.0747 28.0362 53.9594 27.9755C53.8438 27.9141 53.753 27.8269 53.6861 27.7142C53.6192 27.6009 53.5858 27.4699 53.5858 27.3216ZM54.8798 27.3241C54.8798 27.2141 54.8427 27.1269 54.7693 27.0628C54.6955 26.999 54.6065 26.9668 54.5018 26.9668C54.396 26.9668 54.3062 26.9984 54.2328 27.0616C54.1601 27.1248 54.1237 27.2117 54.1237 27.3216C54.1237 27.4319 54.1601 27.5194 54.2328 27.5841C54.3062 27.6492 54.396 27.6814 54.5018 27.6814C54.6065 27.6814 54.6955 27.6495 54.7693 27.5854C54.8427 27.5216 54.8798 27.4344 54.8798 27.3241Z" fill="#230B41"/>
<path d="M56.8444 26.5864C57.0458 26.5864 57.2072 26.6417 57.3286 26.7517C57.4497 26.8611 57.5104 27.0115 57.5104 27.2026V28.046H56.984V27.2621C56.984 27.1658 56.9539 27.0908 56.8939 27.0373C56.8335 26.9838 56.7532 26.9571 56.6525 26.9571C56.5515 26.9571 56.4711 26.9838 56.4111 27.0373C56.3508 27.0908 56.321 27.1658 56.321 27.2621V28.046H55.7917V26.6022H56.321V26.7942C56.3741 26.7304 56.4464 26.6797 56.5376 26.6423C56.6285 26.6053 56.731 26.5864 56.8444 26.5864Z" fill="#230B41"/>
<path d="M58.2455 25.9763L58.2062 26.5475H57.85L57.8093 25.9763H58.2455Z" fill="#230B41"/>
<path d="M59.5241 27.6704V28.0459H59.2551C59.0632 28.0459 58.9134 28.0067 58.8058 27.9281C58.6982 27.8497 58.6444 27.7215 58.6444 27.544V26.9692H58.4351V26.6022H58.6444V26.2498H59.1751V26.6022H59.5212V26.9692H59.1751V27.5489C59.1751 27.592 59.1871 27.623 59.2115 27.6425C59.2366 27.6613 59.2776 27.6704 59.3351 27.6704H59.5241Z" fill="#230B41"/>
<path d="M61.0033 26.8063C61.0527 26.7392 61.124 26.6848 61.2171 26.6435C61.3101 26.6021 61.4162 26.5815 61.5355 26.5815C61.678 26.5815 61.8066 26.6119 61.9222 26.6726C62.0386 26.7328 62.1302 26.8191 62.197 26.9315C62.2639 27.0433 62.2974 27.1733 62.2974 27.3216C62.2974 27.4699 62.2639 27.6008 62.197 27.7141C62.1302 27.8268 62.0386 27.914 61.9222 27.9754C61.8066 28.0362 61.678 28.0666 61.5355 28.0666C61.4141 28.0666 61.3079 28.0462 61.2171 28.0058C61.1258 27.9654 61.0546 27.9116 61.0033 27.8442V28.0459H60.4741V26.1318H61.0033V26.8063ZM61.7594 27.3216C61.7594 27.2116 61.7223 27.1247 61.6489 27.0615C61.5751 26.9983 61.4849 26.9667 61.3784 26.9667C61.2727 26.9667 61.1829 26.9989 61.1095 27.0627C61.0368 27.1268 61.0004 27.214 61.0004 27.324C61.0004 27.4343 61.0368 27.5215 61.1095 27.5853C61.1829 27.6494 61.2727 27.6813 61.3784 27.6813C61.4831 27.6813 61.5726 27.6491 61.6474 27.5841C61.7219 27.5194 61.7594 27.4319 61.7594 27.3216Z" fill="#230B41"/>
<path d="M64.2039 27.301C64.2039 27.3423 64.2003 27.3854 64.1937 27.4298H62.9971C63.0047 27.5197 63.0393 27.5887 63.1003 27.6364C63.1614 27.6835 63.2359 27.7069 63.3243 27.7069C63.4558 27.7069 63.5482 27.6604 63.6005 27.5671H64.1632C64.1341 27.6619 64.0818 27.7476 64.0062 27.8236C63.9313 27.8998 63.8375 27.9594 63.7241 28.0022C63.6107 28.0453 63.4835 28.0666 63.3432 28.0666C63.1734 28.0666 63.0226 28.0368 62.891 27.9767C62.759 27.9159 62.6558 27.8296 62.5813 27.7178C62.5075 27.6054 62.4708 27.4742 62.4708 27.3241C62.4708 27.1743 62.5071 27.0433 62.5798 26.9315C62.6532 26.8191 62.7561 26.7328 62.8881 26.6727C63.0196 26.6119 63.1716 26.5815 63.3432 26.5815C63.5096 26.5815 63.6579 26.6113 63.7881 26.6703C63.9189 26.7286 64.0207 26.8121 64.0934 26.9206C64.1668 27.0294 64.2039 27.1561 64.2039 27.301ZM63.6616 27.1843C63.6616 27.1084 63.6303 27.0479 63.5685 27.0032C63.5075 26.9589 63.4304 26.9364 63.3373 26.9364C63.2479 26.9364 63.173 26.958 63.112 27.0008C63.0516 27.044 63.0146 27.105 63 27.1843H63.6616Z" fill="#230B41"/>
<path d="M65.0111 26.1318V28.0459H64.4818V26.1318H65.0111Z" fill="#230B41"/>
<path d="M65.6608 26.4527C65.5677 26.4527 65.4914 26.4302 65.4325 26.3846C65.3744 26.3385 65.3453 26.2819 65.3453 26.2145C65.3453 26.1458 65.3744 26.0887 65.4325 26.0431C65.4914 25.997 65.5677 25.9739 65.6608 25.9739C65.7517 25.9739 65.8265 25.997 65.8847 26.0431C65.9436 26.0887 65.9734 26.1458 65.9734 26.2145C65.9734 26.2819 65.9436 26.3385 65.8847 26.3846C65.8265 26.4302 65.7517 26.4527 65.6608 26.4527ZM65.924 26.6022V28.0459H65.3947V26.6022H65.924Z" fill="#230B41"/>
<path d="M67.9362 27.301C67.9362 27.3423 67.9325 27.3854 67.926 27.4298H66.7293C66.737 27.5197 66.7715 27.5887 66.8326 27.6364C66.8936 27.6835 66.9682 27.7069 67.0565 27.7069C67.1881 27.7069 67.2804 27.6604 67.3328 27.5671H67.8955C67.8664 27.6619 67.814 27.7476 67.7384 27.8236C67.6635 27.8998 67.5698 27.9594 67.4563 28.0022C67.3429 28.0453 67.2157 28.0666 67.0754 28.0666C66.9056 28.0666 66.7548 28.0368 66.6232 27.9767C66.4913 27.9159 66.388 27.8296 66.3135 27.7178C66.2397 27.6054 66.203 27.4742 66.203 27.3241C66.203 27.1743 66.2394 27.0433 66.3121 26.9315C66.3855 26.8191 66.4883 26.7328 66.6203 26.6727C66.7519 26.6119 66.9038 26.5815 67.0754 26.5815C67.2419 26.5815 67.3902 26.6113 67.5203 26.6703C67.6512 26.7286 67.753 26.8121 67.8257 26.9206C67.8991 27.0294 67.9362 27.1561 67.9362 27.301ZM67.3938 27.1843C67.3938 27.1084 67.3626 27.0479 67.3008 27.0032C67.2397 26.9589 67.1626 26.9364 67.0696 26.9364C66.9802 26.9364 66.9053 26.958 66.8442 27.0008C66.7839 27.044 66.7468 27.105 66.7323 27.1843H67.3938Z" fill="#230B41"/>
<path d="M68.9905 27.6316L69.3656 26.6023H69.9283L69.3162 28.046H68.6633L68.0497 26.6023H68.6168L68.9905 27.6316Z" fill="#230B41"/>
<path d="M71.7798 27.301C71.7798 27.3423 71.7762 27.3854 71.7696 27.4298H70.573C70.5806 27.5197 70.6151 27.5887 70.6762 27.6364C70.7373 27.6835 70.8118 27.7069 70.9001 27.7069C71.0317 27.7069 71.124 27.6604 71.1764 27.5671H71.7391C71.71 27.6619 71.6577 27.7476 71.582 27.8236C71.5072 27.8998 71.4134 27.9594 71.3 28.0022C71.1866 28.0453 71.0593 28.0666 70.919 28.0666C70.7493 28.0666 70.5984 28.0368 70.4668 27.9767C70.3349 27.9159 70.2317 27.8296 70.1571 27.7178C70.0833 27.6054 70.0466 27.4742 70.0466 27.3241C70.0466 27.1743 70.083 27.0433 70.1557 26.9315C70.2291 26.8191 70.332 26.7328 70.4639 26.6727C70.5955 26.6119 70.7475 26.5815 70.919 26.5815C71.0855 26.5815 71.2338 26.6113 71.3639 26.6703C71.4948 26.7286 71.5966 26.8121 71.6693 26.9206C71.7427 27.0294 71.7798 27.1561 71.7798 27.301ZM71.2375 27.1843C71.2375 27.1084 71.2062 27.0479 71.1444 27.0032C71.0833 26.9589 71.0063 26.9364 70.9132 26.9364C70.8238 26.9364 70.7489 26.958 70.6878 27.0008C70.6275 27.044 70.5904 27.105 70.5759 27.1843H71.2375Z" fill="#230B41"/>
<path d="M73.243 26.2292V28.0461H72.7137V26.2292H73.243Z" fill="#230B41"/>
<path d="M75.9113 27.301C75.9113 27.3423 75.9076 27.3854 75.9011 27.4298H74.7044C74.7121 27.5197 74.7466 27.5887 74.8077 27.6364C74.8687 27.6835 74.9433 27.7069 75.0316 27.7069C75.1632 27.7069 75.2555 27.6604 75.3079 27.5671H75.8705C75.8415 27.6619 75.7891 27.7476 75.7135 27.8236C75.6386 27.8998 75.5449 27.9594 75.4314 28.0022C75.318 28.0453 75.1908 28.0666 75.0505 28.0666C74.8807 28.0666 74.7299 28.0368 74.5983 27.9767C74.4664 27.9159 74.3631 27.8296 74.2886 27.7178C74.2148 27.6054 74.1781 27.4742 74.1781 27.3241C74.1781 27.1743 74.2145 27.0433 74.2872 26.9315C74.3606 26.8191 74.4634 26.7328 74.5954 26.6727C74.727 26.6119 74.8789 26.5815 75.0505 26.5815C75.217 26.5815 75.3653 26.6113 75.4954 26.6703C75.6263 26.7286 75.7281 26.8121 75.8008 26.9206C75.8742 27.0294 75.9113 27.1561 75.9113 27.301ZM75.3689 27.1843C75.3689 27.1084 75.3377 27.0479 75.2759 27.0032C75.2148 26.9589 75.1377 26.9364 75.0447 26.9364C74.9553 26.9364 74.8804 26.958 74.8193 27.0008C74.759 27.044 74.7219 27.105 74.7074 27.1843H75.3689Z" fill="#230B41"/>
<path d="M77.2418 26.5864C77.4432 26.5864 77.6046 26.6417 77.726 26.7517C77.8471 26.8611 77.9078 27.0115 77.9078 27.2026V28.046H77.3814V27.2621C77.3814 27.1658 77.3513 27.0908 77.2913 27.0373C77.2309 26.9838 77.1506 26.9571 77.0499 26.9571C76.9489 26.9571 76.8685 26.9838 76.8085 27.0373C76.7482 27.0908 76.7184 27.1658 76.7184 27.2621V28.046H76.1891V26.6022H76.7184V26.7942C76.7715 26.7304 76.8438 26.6797 76.935 26.6423C77.0259 26.6053 77.1284 26.5864 77.2418 26.5864Z" fill="#230B41"/>
<path d="M78.1703 27.3216C78.1703 27.1733 78.2037 27.0433 78.2706 26.9315C78.3375 26.8191 78.4284 26.7328 78.544 26.6726C78.6592 26.6119 78.7882 26.5815 78.9307 26.5815C79.0441 26.5815 79.1477 26.6015 79.2419 26.641C79.3357 26.6808 79.4098 26.7343 79.4643 26.8015V26.1318H79.9936V28.0459H79.4643V27.8393C79.4138 27.9083 79.3426 27.9633 79.2506 28.0046C79.1594 28.0459 79.0529 28.0666 78.9307 28.0666C78.7882 28.0666 78.6592 28.0362 78.544 27.9754C78.4284 27.914 78.3375 27.8268 78.2706 27.7141C78.2037 27.6008 78.1703 27.4699 78.1703 27.3216ZM79.4643 27.324C79.4643 27.214 79.4273 27.1268 79.3538 27.0627C79.28 26.9989 79.191 26.9667 79.0863 26.9667C78.9805 26.9667 78.8907 26.9983 78.8173 27.0615C78.7446 27.1247 78.7083 27.2116 78.7083 27.3216C78.7083 27.4319 78.7446 27.5194 78.8173 27.5841C78.8907 27.6491 78.9805 27.6813 79.0863 27.6813C79.191 27.6813 79.28 27.6494 79.3538 27.5853C79.4273 27.5215 79.4643 27.4343 79.4643 27.324Z" fill="#230B41"/>
<path d="M82.0048 27.301C82.0048 27.3423 82.0012 27.3854 81.9946 27.4298H80.798C80.8056 27.5197 80.8402 27.5887 80.9012 27.6364C80.9623 27.6835 81.0368 27.7069 81.1252 27.7069C81.2567 27.7069 81.3491 27.6604 81.4014 27.5671H81.9641C81.935 27.6619 81.8827 27.7476 81.8071 27.8236C81.7322 27.8998 81.6384 27.9594 81.525 28.0022C81.4116 28.0453 81.2844 28.0666 81.1441 28.0666C80.9743 28.0666 80.8235 28.0368 80.6919 27.9767C80.5599 27.9159 80.4567 27.8296 80.3822 27.7178C80.3084 27.6054 80.2717 27.4742 80.2717 27.3241C80.2717 27.1743 80.308 27.0433 80.3807 26.9315C80.4541 26.8191 80.557 26.7328 80.689 26.6727C80.8205 26.6119 80.9725 26.5815 81.1441 26.5815C81.3105 26.5815 81.4589 26.6113 81.589 26.6703C81.7198 26.7286 81.8216 26.8121 81.8943 26.9206C81.9678 27.0294 82.0048 27.1561 82.0048 27.301ZM81.4625 27.1843C81.4625 27.1084 81.4312 27.0479 81.3694 27.0032C81.3084 26.9589 81.2313 26.9364 81.1382 26.9364C81.0488 26.9364 80.9739 26.958 80.9129 27.0008C80.8525 27.044 80.8155 27.105 80.8009 27.1843H81.4625Z" fill="#230B41"/>
<path d="M82.178 27.3216C82.178 27.1733 82.2114 27.0433 82.2783 26.9315C82.3452 26.8191 82.4361 26.7328 82.5517 26.6726C82.6669 26.6119 82.7959 26.5815 82.9384 26.5815C83.0518 26.5815 83.1554 26.6015 83.2496 26.641C83.3434 26.6808 83.4175 26.7343 83.472 26.8015V26.1318H84.0013V28.0459H83.472V27.8393C83.4215 27.9083 83.3503 27.9633 83.2583 28.0046C83.1671 28.0459 83.0606 28.0666 82.9384 28.0666C82.7959 28.0666 82.6669 28.0362 82.5517 27.9754C82.4361 27.914 82.3452 27.8268 82.2783 27.7141C82.2114 27.6008 82.178 27.4699 82.178 27.3216ZM83.472 27.324C83.472 27.214 83.435 27.1268 83.3615 27.0627C83.2877 26.9989 83.1987 26.9667 83.094 26.9667C82.9882 26.9667 82.8984 26.9983 82.825 27.0615C82.7523 27.1247 82.716 27.2116 82.716 27.3216C82.716 27.4319 82.7523 27.5194 82.825 27.5841C82.8984 27.6491 82.9882 27.6813 83.094 27.6813C83.1987 27.6813 83.2877 27.6494 83.3615 27.5853C83.435 27.5215 83.472 27.4343 83.472 27.324Z" fill="#230B41"/>
<path d="M86.7456 26.6023V28.046H86.2164V27.8492C86.1629 27.9133 86.0902 27.9646 85.9983 28.0035C85.906 28.0424 85.8042 28.0618 85.6929 28.0618C85.561 28.0618 85.4443 28.0372 85.3425 27.9877C85.2415 27.9385 85.163 27.8671 85.107 27.7738C85.0517 27.6809 85.0241 27.5715 85.0241 27.4457V26.6023H85.5505V27.3861C85.5505 27.4828 85.5803 27.5575 85.6406 27.611C85.7006 27.6644 85.7809 27.6912 85.882 27.6912C85.9856 27.6912 86.067 27.6644 86.1262 27.611C86.1862 27.5575 86.2164 27.4828 86.2164 27.3861V26.6023H86.7456Z" fill="#230B41"/>
<path d="M87.6552 26.8064C87.7065 26.7392 87.7777 26.6848 87.869 26.6435C87.9598 26.6022 88.066 26.5815 88.1874 26.5815C88.3299 26.5815 88.4586 26.6119 88.5742 26.6727C88.6905 26.7328 88.7821 26.8191 88.849 26.9315C88.9158 27.0433 88.9493 27.1734 88.9493 27.3216C88.9493 27.4699 88.9158 27.6009 88.849 27.7142C88.7821 27.8269 88.6905 27.9141 88.5742 27.9755C88.4586 28.0362 88.3299 28.0666 88.1874 28.0666C88.0682 28.0666 87.9624 28.046 87.8704 28.0046C87.7781 27.9633 87.7065 27.9098 87.6552 27.8442V28.7338H87.126V26.6022H87.6552V26.8064ZM88.4113 27.3216C88.4113 27.2117 88.3742 27.1248 88.3008 27.0616C88.227 26.9984 88.1369 26.9668 88.0304 26.9668C87.9246 26.9668 87.8348 26.999 87.7614 27.0628C87.6887 27.1269 87.6523 27.2141 87.6523 27.3241C87.6523 27.4344 87.6887 27.5216 87.7614 27.5854C87.8348 27.6495 87.9246 27.6814 88.0304 27.6814C88.135 27.6814 88.2245 27.6492 88.2993 27.5841C88.3739 27.5194 88.4113 27.4319 88.4113 27.3216Z" fill="#230B41"/>
<path d="M54.3107 30.1899C54.5092 30.1899 54.6684 30.2452 54.7876 30.3551C54.9075 30.4645 54.9679 30.6149 54.9679 30.806V31.6494H54.4415V30.8656C54.4415 30.7692 54.4114 30.6942 54.3514 30.6407C54.2911 30.5873 54.2107 30.5605 54.11 30.5605C54.009 30.5605 53.9286 30.5873 53.8687 30.6407C53.8083 30.6942 53.7785 30.7692 53.7785 30.8656V31.6494H53.2493V29.7354H53.7785V30.4001C53.8316 30.3363 53.905 30.2853 53.9981 30.247C54.0911 30.209 54.1951 30.1899 54.3107 30.1899Z" fill="#230B41"/>
<path d="M56.9636 30.9043C56.9636 30.9456 56.9599 30.9887 56.9534 31.0331H55.7568C55.7644 31.123 55.7989 31.192 55.86 31.2397C55.9211 31.2868 55.9956 31.3102 56.0839 31.3102C56.2155 31.3102 56.3078 31.2637 56.3602 31.1704H56.9229C56.8938 31.2652 56.8414 31.3509 56.7658 31.4268C56.6909 31.5031 56.5972 31.5626 56.4837 31.6055C56.3703 31.6486 56.2431 31.6699 56.1028 31.6699C55.933 31.6699 55.7822 31.6401 55.6506 31.58C55.5187 31.5192 55.4154 31.4329 55.3409 31.3211C55.2671 31.2087 55.2304 31.0774 55.2304 30.9273C55.2304 30.7776 55.2668 30.6466 55.3395 30.5348C55.4129 30.4224 55.5158 30.3361 55.6477 30.276C55.7793 30.2152 55.9312 30.1848 56.1028 30.1848C56.2693 30.1848 56.4176 30.2146 56.5477 30.2735C56.6786 30.3319 56.7804 30.4154 56.8531 30.5239C56.9265 30.6326 56.9636 30.7593 56.9636 30.9043ZM56.4212 30.7876C56.4212 30.7116 56.39 30.6512 56.3282 30.6065C56.2671 30.5622 56.19 30.5397 56.097 30.5397C56.0076 30.5397 55.9327 30.5612 55.8716 30.6041C55.8113 30.6472 55.7742 30.7083 55.7597 30.7876H56.4212Z" fill="#230B41"/>
<path d="M57.7707 30.4461C57.8325 30.3668 57.9103 30.3045 58.0033 30.259C58.0964 30.2128 58.1996 30.1897 58.313 30.1897V30.6588H58.1676C58.0346 30.6588 57.9354 30.6828 57.8696 30.7305C57.8034 30.7776 57.7707 30.8605 57.7707 30.9796V31.6492H57.2415V30.2055H57.7707V30.4461Z" fill="#230B41"/>
<path d="M60.1945 30.9043C60.1945 30.9456 60.1908 30.9887 60.1843 31.0331H58.9876C58.9953 31.123 59.0298 31.192 59.0909 31.2397C59.152 31.2868 59.2265 31.3102 59.3148 31.3102C59.4464 31.3102 59.5387 31.2637 59.5911 31.1704H60.1538C60.1247 31.2652 60.0723 31.3509 59.9967 31.4268C59.9218 31.5031 59.8281 31.5626 59.7146 31.6055C59.6012 31.6486 59.474 31.6699 59.3337 31.6699C59.1639 31.6699 59.0131 31.6401 58.8815 31.58C58.7496 31.5192 58.6463 31.4329 58.5718 31.3211C58.498 31.2087 58.4613 31.0774 58.4613 30.9273C58.4613 30.7776 58.4977 30.6466 58.5704 30.5348C58.6438 30.4224 58.7466 30.3361 58.8786 30.276C59.0102 30.2152 59.1621 30.1848 59.3337 30.1848C59.5002 30.1848 59.6485 30.2146 59.7786 30.2735C59.9095 30.3319 60.0113 30.4154 60.084 30.5239C60.1574 30.6326 60.1945 30.7593 60.1945 30.9043ZM59.6521 30.7876C59.6521 30.7116 59.6209 30.6512 59.5591 30.6065C59.498 30.5622 59.4209 30.5397 59.3279 30.5397C59.2385 30.5397 59.1636 30.5612 59.1025 30.6041C59.0422 30.6472 59.0051 30.7083 58.9906 30.7876H59.6521Z" fill="#230B41"/>
<path d="M60.7196 31.67C60.6272 31.67 60.5516 31.6475 60.4927 31.6019C60.4335 31.5557 60.4041 31.4992 60.4041 31.4318C60.4041 31.3631 60.4335 31.3054 60.4927 31.2592C60.5516 31.2124 60.6272 31.1887 60.7196 31.1887C60.8104 31.1887 60.8853 31.2124 60.9435 31.2592C61.0024 31.3054 61.0322 31.3631 61.0322 31.4318C61.0322 31.4992 61.0024 31.5557 60.9435 31.6019C60.8853 31.6475 60.8104 31.67 60.7196 31.67Z" fill="#230B41"/>
<path d="M63.5642 29.8325V30.1874H62.9884V31.6494H62.4591V30.1874H61.8834V29.8325H63.5642Z" fill="#230B41"/>
<path d="M64.8916 30.1899C65.09 30.1899 65.2492 30.2452 65.3685 30.3551C65.4884 30.4645 65.5488 30.6149 65.5488 30.806V31.6494H65.0224V30.8656C65.0224 30.7692 64.9922 30.6942 64.9323 30.6407C64.8719 30.5873 64.7916 30.5605 64.6909 30.5605C64.5899 30.5605 64.5095 30.5873 64.4495 30.6407C64.3892 30.6942 64.3594 30.7692 64.3594 30.8656V31.6494H63.8301V29.7354H64.3594V30.4001C64.4125 30.3363 64.4859 30.2853 64.5789 30.247C64.672 30.209 64.776 30.1899 64.8916 30.1899Z" fill="#230B41"/>
<path d="M66.1821 30.056C66.089 30.056 66.0127 30.0335 65.9538 29.9879C65.8957 29.9417 65.8666 29.8852 65.8666 29.8178C65.8666 29.7491 65.8957 29.692 65.9538 29.6464C66.0127 29.6002 66.089 29.5771 66.1821 29.5771C66.273 29.5771 66.3478 29.6002 66.406 29.6464C66.4649 29.692 66.4947 29.7491 66.4947 29.8178C66.4947 29.8852 66.4649 29.9417 66.406 29.9879C66.3478 30.0335 66.273 30.056 66.1821 30.056ZM66.4453 30.2054V31.6492H65.916V30.2054H66.4453Z" fill="#230B41"/>
<path d="M67.5312 31.6699C67.3807 31.6699 67.2466 31.6486 67.1285 31.6055C67.0111 31.5626 66.9184 31.5034 66.8508 31.428C66.7828 31.3527 66.7446 31.2685 66.7359 31.1753H67.2593C67.2652 31.2257 67.2928 31.2664 67.3422 31.298C67.3924 31.329 67.4534 31.3442 67.5254 31.3442C67.5912 31.3442 67.6421 31.3339 67.6781 31.3126C67.7148 31.2907 67.7333 31.2625 67.7333 31.2275C67.7333 31.1862 67.7072 31.1558 67.6548 31.1364C67.6032 31.1163 67.52 31.0938 67.4047 31.0695C67.2804 31.0452 67.1772 31.0197 67.095 30.993C67.0125 30.9662 66.9413 30.9243 66.8813 30.8666C66.821 30.8092 66.7912 30.7311 66.7912 30.632C66.7912 30.5494 66.8181 30.4741 66.8726 30.406C66.9278 30.3379 67.0085 30.2842 67.1154 30.2444C67.2219 30.2049 67.3484 30.1848 67.4949 30.1848C67.7108 30.1848 67.8816 30.2298 68.0067 30.3197C68.1317 30.409 68.2033 30.5275 68.2219 30.6758H67.7333C67.7246 30.6266 67.6977 30.5871 67.6534 30.5579C67.6098 30.5281 67.5516 30.5129 67.4789 30.5129C67.4167 30.5129 67.3691 30.5233 67.3364 30.5433C67.3033 30.5628 67.287 30.5901 67.287 30.6247C67.287 30.6661 67.3131 30.6974 67.3655 30.7183C67.4186 30.7387 67.5011 30.7593 67.6127 30.7803C67.7406 30.8079 67.8446 30.835 67.9253 30.8617C68.0056 30.8885 68.0758 30.9319 68.1361 30.9918C68.1972 31.051 68.2284 31.1303 68.2306 31.23C68.2306 31.3144 68.2019 31.3898 68.1448 31.456C68.0885 31.5225 68.0071 31.5748 67.9005 31.6128C67.7948 31.6507 67.6715 31.6699 67.5312 31.6699Z" fill="#230B41"/>
<path d="M69.478 30.056C69.3849 30.056 69.3086 30.0335 69.2497 29.9879C69.1916 29.9417 69.1625 29.8852 69.1625 29.8178C69.1625 29.7491 69.1916 29.692 69.2497 29.6464C69.3086 29.6002 69.3849 29.5771 69.478 29.5771C69.5689 29.5771 69.6437 29.6002 69.7019 29.6464C69.7608 29.692 69.7906 29.7491 69.7906 29.8178C69.7906 29.8852 69.7608 29.9417 69.7019 29.9879C69.6437 30.0335 69.5689 30.056 69.478 30.056ZM69.7412 30.2054V31.6492H69.2119V30.2054H69.7412Z" fill="#230B41"/>
<path d="M70.8271 31.6699C70.6766 31.6699 70.5425 31.6486 70.4244 31.6055C70.307 31.5626 70.2143 31.5034 70.1467 31.428C70.0787 31.3527 70.0405 31.2685 70.0318 31.1753H70.5552C70.5611 31.2257 70.5887 31.2664 70.6381 31.298C70.6883 31.329 70.7493 31.3442 70.8213 31.3442C70.8871 31.3442 70.938 31.3339 70.974 31.3126C71.0107 31.2907 71.0292 31.2625 71.0292 31.2275C71.0292 31.1862 71.0031 31.1558 70.9507 31.1364C70.8991 31.1163 70.8159 31.0938 70.7006 31.0695C70.5763 31.0452 70.4731 31.0197 70.3909 30.993C70.3084 30.9662 70.2372 30.9243 70.1772 30.8666C70.1169 30.8092 70.0871 30.7311 70.0871 30.632C70.0871 30.5494 70.1139 30.4741 70.1685 30.406C70.2237 30.3379 70.3044 30.2842 70.4113 30.2444C70.5178 30.2049 70.6443 30.1848 70.7908 30.1848C71.0067 30.1848 71.1775 30.2298 71.3026 30.3197C71.4276 30.409 71.4992 30.5275 71.5178 30.6758H71.0292C71.0205 30.6266 70.9936 30.5871 70.9493 30.5579C70.9056 30.5281 70.8475 30.5129 70.7748 30.5129C70.7126 30.5129 70.665 30.5233 70.6323 30.5433C70.5992 30.5628 70.5829 30.5901 70.5829 30.6247C70.5829 30.6661 70.609 30.6974 70.6614 30.7183C70.7144 30.7387 70.797 30.7593 70.9086 30.7803C71.0365 30.8079 71.1405 30.835 71.2212 30.8617C71.3015 30.8885 71.3717 30.9319 71.432 30.9918C71.4931 31.051 71.5243 31.1303 71.5265 31.23C71.5265 31.3144 71.4978 31.3898 71.4407 31.456C71.3844 31.5225 71.303 31.5748 71.1964 31.6128C71.0907 31.6507 70.9674 31.6699 70.8271 31.6699Z" fill="#230B41"/>
<path d="M72.9044 30.1897C73.1058 30.1897 73.2671 30.245 73.3886 30.355C73.5096 30.4644 73.5703 30.6147 73.5703 30.8058V31.6492H73.044V30.8654C73.044 30.7691 73.0138 30.694 72.9538 30.6406C72.8935 30.5871 72.8131 30.5604 72.7124 30.5604C72.6114 30.5604 72.5311 30.5871 72.4711 30.6406C72.4107 30.694 72.3809 30.7691 72.3809 30.8654V31.6492H71.8517V30.2055H72.3809V30.3975C72.434 30.3337 72.5063 30.283 72.5976 30.2456C72.6885 30.2085 72.791 30.1897 72.9044 30.1897Z" fill="#230B41"/>
<path d="M74.3055 29.5796L74.2662 30.1508H73.91L73.8693 29.5796H74.3055Z" fill="#230B41"/>
<path d="M75.584 31.2737V31.6492H75.315C75.1231 31.6492 74.9734 31.61 74.8658 31.5313C74.7582 31.4529 74.7044 31.3247 74.7044 31.1473V30.5725H74.495V30.2055H74.7044V29.853H75.2351V30.2055H75.5811V30.5725H75.2351V31.1522C75.2351 31.1953 75.2471 31.2263 75.2714 31.2457C75.2965 31.2646 75.3376 31.2737 75.395 31.2737H75.584Z" fill="#230B41"/>
<path d="M79.0131 30.2056L78.5464 31.6493H77.9604L77.6885 30.7123L77.4065 31.6493H76.8249L76.3552 30.2056H76.8845L77.1287 31.2373L77.4195 30.2056H77.9793L78.273 31.2325L78.5159 30.2056H79.0131Z" fill="#230B41"/>
<path d="M80.2755 30.1899C80.474 30.1899 80.6332 30.2452 80.7524 30.3551C80.8724 30.4645 80.9327 30.6149 80.9327 30.806V31.6494H80.4064V30.8656C80.4064 30.7692 80.3762 30.6942 80.3162 30.6407C80.2559 30.5873 80.1756 30.5605 80.0749 30.5605C79.9738 30.5605 79.8935 30.5873 79.8335 30.6407C79.7732 30.6942 79.7434 30.7692 79.7434 30.8656V31.6494H79.2141V29.7354H79.7434V30.4001C79.7964 30.3363 79.8699 30.2853 79.9629 30.247C80.056 30.209 80.1599 30.1899 80.2755 30.1899Z" fill="#230B41"/>
<path d="M81.1953 30.9249C81.1953 30.7767 81.2287 30.6466 81.2956 30.5348C81.3625 30.4224 81.4533 30.3361 81.5689 30.276C81.6842 30.2152 81.8132 30.1848 81.9557 30.1848C82.0778 30.1848 82.1843 30.2055 82.2756 30.2468C82.3675 30.2881 82.4388 30.3425 82.4893 30.4096V30.2055H83.0186V31.6492H82.4893V31.4451C82.437 31.5125 82.3646 31.5666 82.2727 31.6079C82.1814 31.6492 82.0749 31.6699 81.9528 31.6699C81.8121 31.6699 81.6842 31.6395 81.5689 31.5787C81.4533 31.5174 81.3625 31.4302 81.2956 31.3175C81.2287 31.2041 81.1953 31.0732 81.1953 30.9249ZM82.4893 30.9273C82.4893 30.8174 82.4522 30.7302 82.3788 30.6661C82.305 30.6023 82.216 30.5701 82.1113 30.5701C82.0055 30.5701 81.9157 30.6017 81.8423 30.6648C81.7696 30.728 81.7332 30.8149 81.7332 30.9249C81.7332 31.0352 81.7696 31.1227 81.8423 31.1874C81.9157 31.2524 82.0055 31.2846 82.1113 31.2846C82.216 31.2846 82.305 31.2527 82.3788 31.1886C82.4522 31.1248 82.4893 31.0376 82.4893 30.9273Z" fill="#230B41"/>
<path d="M84.3638 31.2737V31.6492H84.0948C83.9029 31.6492 83.7531 31.61 83.6455 31.5313C83.538 31.4529 83.4842 31.3247 83.4842 31.1473V30.5725H83.2748V30.2055H83.4842V29.853H84.0149V30.2055H84.3609V30.5725H84.0149V31.1522C84.0149 31.1953 84.0269 31.2263 84.0512 31.2457C84.0763 31.2646 84.1174 31.2737 84.1748 31.2737H84.3638Z" fill="#230B41"/>
<path d="M85.8431 29.8325V31.6494H85.3138V29.8325H85.8431Z" fill="#230B41"/>
<path d="M48.6459 33.6595C48.5528 33.6595 48.4765 33.637 48.4176 33.5914C48.3595 33.5452 48.3304 33.4887 48.3304 33.4213C48.3304 33.3526 48.3595 33.2955 48.4176 33.2499C48.4765 33.2038 48.5528 33.1807 48.6459 33.1807C48.7368 33.1807 48.8117 33.2038 48.8698 33.2499C48.9287 33.2955 48.9585 33.3526 48.9585 33.4213C48.9585 33.4887 48.9287 33.5452 48.8698 33.5914C48.8117 33.637 48.7368 33.6595 48.6459 33.6595ZM48.9091 33.809V35.2527H48.3798V33.809H48.9091Z" fill="#230B41"/>
<path d="M51.497 33.793C51.7111 33.793 51.8816 33.8474 52.0088 33.9558C52.1356 34.0646 52.1993 34.2156 52.1993 34.4091V35.2525H51.6729V34.4687C51.6729 34.3757 51.6431 34.3034 51.5842 34.2523C51.5261 34.2013 51.445 34.1758 51.3414 34.1758C51.2385 34.1758 51.1575 34.2013 51.0986 34.2523C51.0404 34.3034 51.0113 34.3757 51.0113 34.4687V35.2525H50.485V34.4687C50.485 34.3757 50.4552 34.3034 50.3963 34.2523C50.3371 34.2013 50.256 34.1758 50.1535 34.1758C50.0495 34.1758 49.9681 34.2013 49.9092 34.2523C49.8511 34.3034 49.822 34.3757 49.822 34.4687V35.2525H49.2927V33.8088H49.822V33.9898C49.875 33.93 49.9448 33.8823 50.0314 33.8464C50.1186 33.8109 50.2167 33.793 50.3265 33.793C50.4563 33.793 50.5722 33.8167 50.674 33.8635C50.7765 33.9096 50.8572 33.9762 50.9154 34.0628C50.9743 33.9835 51.0553 33.9187 51.1582 33.8683C51.2618 33.8182 51.3748 33.793 51.497 33.793Z" fill="#230B41"/>
<path d="M52.4654 34.5284C52.4654 34.3802 52.4988 34.2501 52.5657 34.1383C52.6326 34.0259 52.7235 33.9396 52.8391 33.8795C52.9543 33.8187 53.0833 33.7883 53.2258 33.7883C53.348 33.7883 53.4545 33.809 53.5457 33.8503C53.6377 33.8916 53.7089 33.946 53.7594 34.0132V33.809H54.2887V35.2527H53.7594V35.0486C53.7071 35.116 53.6348 35.1701 53.5428 35.2114C53.4516 35.2527 53.3451 35.2734 53.2229 35.2734C53.0822 35.2734 52.9543 35.243 52.8391 35.1823C52.7235 35.1209 52.6326 35.0337 52.5657 34.921C52.4988 34.8076 52.4654 34.6767 52.4654 34.5284ZM53.7594 34.5309C53.7594 34.4209 53.7224 34.3337 53.6489 34.2696C53.5752 34.2058 53.4861 34.1736 53.3814 34.1736C53.2756 34.1736 53.1858 34.2052 53.1124 34.2684C53.0397 34.3316 53.0034 34.4185 53.0034 34.5284C53.0034 34.6387 53.0397 34.7262 53.1124 34.7909C53.1858 34.856 53.2756 34.8882 53.3814 34.8882C53.4861 34.8882 53.5752 34.8563 53.6489 34.7921C53.7224 34.7283 53.7594 34.6412 53.7594 34.5309Z" fill="#230B41"/>
<path d="M55.3271 33.7883C55.4493 33.7883 55.5558 33.809 55.647 33.8503C55.739 33.8916 55.8102 33.946 55.8608 34.0132V33.809H56.39V35.2503C56.39 35.3831 56.3584 35.5034 56.2955 35.6112C56.2323 35.7188 56.1363 35.8045 56.0076 35.8677C55.8786 35.9315 55.7183 35.9637 55.5263 35.9637C55.2704 35.9637 55.0629 35.9129 54.904 35.8118C54.7448 35.7112 54.654 35.5748 54.6307 35.4022H55.1541C55.1705 35.4581 55.2097 35.5019 55.2719 35.5335C55.3337 35.5651 55.4104 35.5809 55.5016 35.5809C55.61 35.5809 55.6968 35.5544 55.7619 35.5019C55.8277 35.4499 55.8608 35.3661 55.8608 35.2503V35.0461C55.8084 35.1136 55.7364 35.1683 55.6456 35.2102C55.5554 35.2524 55.4493 35.2734 55.3271 35.2734C55.1847 35.2734 55.0556 35.243 54.9404 35.1823C54.8248 35.1209 54.7339 35.0337 54.667 34.921C54.6002 34.8076 54.5667 34.6767 54.5667 34.5284C54.5667 34.3802 54.6002 34.2501 54.667 34.1383C54.7339 34.0259 54.8248 33.9396 54.9404 33.8795C55.0556 33.8187 55.1847 33.7883 55.3271 33.7883ZM55.8608 34.5309C55.8608 34.4209 55.8237 34.3337 55.7503 34.2696C55.6765 34.2058 55.5874 34.1736 55.4827 34.1736C55.3769 34.1736 55.2872 34.2052 55.2137 34.2684C55.141 34.3316 55.1047 34.4185 55.1047 34.5284C55.1047 34.6387 55.141 34.7262 55.2137 34.7909C55.2872 34.856 55.3769 34.8882 55.4827 34.8882C55.5874 34.8882 55.6765 34.8563 55.7503 34.7921C55.8237 34.7283 55.8608 34.6412 55.8608 34.5309Z" fill="#230B41"/>
<path d="M57.0388 33.6595C56.9457 33.6595 56.8694 33.637 56.8105 33.5914C56.7523 33.5452 56.7233 33.4887 56.7233 33.4213C56.7233 33.3526 56.7523 33.2955 56.8105 33.2499C56.8694 33.2038 56.9457 33.1807 57.0388 33.1807C57.1297 33.1807 57.2045 33.2038 57.2627 33.2499C57.3216 33.2955 57.3514 33.3526 57.3514 33.4213C57.3514 33.4887 57.3216 33.5452 57.2627 33.5914C57.2045 33.637 57.1297 33.6595 57.0388 33.6595ZM57.302 33.809V35.2527H56.7727V33.809H57.302Z" fill="#230B41"/>
<path d="M58.7384 33.793C58.9397 33.793 59.1011 33.8483 59.2225 33.9582C59.3436 34.0676 59.4043 34.218 59.4043 34.4091V35.2525H58.8779V34.4687C58.8779 34.3724 58.8478 34.2973 58.7878 34.2438C58.7275 34.1904 58.6471 34.1636 58.5464 34.1636C58.4454 34.1636 58.365 34.1904 58.3051 34.2438C58.2447 34.2973 58.2149 34.3724 58.2149 34.4687V35.2525H57.6857V33.8088H58.2149V34.0008C58.268 33.937 58.3403 33.8862 58.4316 33.8489C58.5224 33.8118 58.6249 33.793 58.7384 33.793Z" fill="#230B41"/>
<path d="M61.4 34.5078C61.4 34.5491 61.3964 34.5922 61.3899 34.6366H60.1932C60.2008 34.7265 60.2354 34.7955 60.2964 34.8432C60.3575 34.8903 60.432 34.9137 60.5204 34.9137C60.652 34.9137 60.7443 34.8672 60.7966 34.7739H61.3593C61.3302 34.8687 61.2779 34.9544 61.2023 35.0303C61.1274 35.1066 61.0336 35.1662 60.9202 35.209C60.8068 35.2521 60.6796 35.2734 60.5393 35.2734C60.3695 35.2734 60.2187 35.2436 60.0871 35.1835C59.9551 35.1227 59.8519 35.0364 59.7774 34.9246C59.7036 34.8122 59.6669 34.681 59.6669 34.5309C59.6669 34.3811 59.7032 34.2501 59.7759 34.1383C59.8493 34.0259 59.9522 33.9396 60.0842 33.8795C60.2158 33.8187 60.3677 33.7883 60.5393 33.7883C60.7057 33.7883 60.8541 33.8181 60.9842 33.877C61.115 33.9354 61.2168 34.0189 61.2895 34.1274C61.363 34.2362 61.4 34.3629 61.4 34.5078ZM60.8577 34.3911C60.8577 34.3152 60.8264 34.2547 60.7646 34.21C60.7036 34.1657 60.6265 34.1432 60.5335 34.1432C60.444 34.1432 60.3691 34.1648 60.3081 34.2076C60.2477 34.2507 60.2107 34.3118 60.1961 34.3911H60.8577Z" fill="#230B41"/>
<path d="M61.5732 34.5284C61.5732 34.3801 61.6066 34.2501 61.6735 34.1383C61.7404 34.0259 61.8313 33.9396 61.9469 33.8794C62.0621 33.8187 62.1911 33.7883 62.3336 33.7883C62.447 33.7883 62.5506 33.8083 62.6448 33.8478C62.7386 33.8876 62.8127 33.9411 62.8672 34.0082V33.3386H63.3965V35.2527H62.8672V35.0461C62.8167 35.1151 62.7455 35.17 62.6535 35.2114C62.5623 35.2527 62.4558 35.2733 62.3336 35.2733C62.1911 35.2733 62.0621 35.243 61.9469 35.1822C61.8313 35.1208 61.7404 35.0336 61.6735 34.9209C61.6066 34.8076 61.5732 34.6766 61.5732 34.5284ZM62.8672 34.5308C62.8672 34.4208 62.8302 34.3336 62.7567 34.2695C62.6829 34.2057 62.5939 34.1735 62.4892 34.1735C62.3834 34.1735 62.2936 34.2051 62.2202 34.2683C62.1475 34.3315 62.1112 34.4184 62.1112 34.5284C62.1112 34.6387 62.1475 34.7262 62.2202 34.7909C62.2936 34.8559 62.3834 34.8881 62.4892 34.8881C62.5939 34.8881 62.6829 34.8562 62.7567 34.7921C62.8302 34.7283 62.8672 34.6411 62.8672 34.5308Z" fill="#230B41"/>
<path d="M66.9144 33.8088L66.4476 35.2526H65.8617L65.5898 34.3156L65.3077 35.2526H64.7261L64.2565 33.8088H64.7857L65.03 34.8406L65.3208 33.8088H65.8806L66.1743 34.8357L66.4171 33.8088H66.9144Z" fill="#230B41"/>
<path d="M68.1768 33.7931C68.3752 33.7931 68.5345 33.8484 68.6537 33.9584C68.7736 34.0678 68.834 34.2182 68.834 34.4093V35.2527H68.3076V34.4688C68.3076 34.3725 68.2775 34.2975 68.2175 34.244C68.1571 34.1905 68.0768 34.1638 67.9761 34.1638C67.8751 34.1638 67.7947 34.1905 67.7348 34.244C67.6744 34.2975 67.6446 34.3725 67.6446 34.4688V35.2527H67.1154V33.3386H67.6446V34.0034C67.6977 33.9396 67.7711 33.8885 67.8642 33.8503C67.9572 33.8123 68.0612 33.7931 68.1768 33.7931Z" fill="#230B41"/>
<path d="M70.8297 34.5078C70.8297 34.5491 70.826 34.5922 70.8195 34.6366H69.6228C69.6305 34.7265 69.665 34.7955 69.7261 34.8432C69.7871 34.8903 69.8617 34.9137 69.95 34.9137C70.0816 34.9137 70.1739 34.8672 70.2262 34.7739H70.7889C70.7599 34.8687 70.7075 34.9544 70.6319 35.0303C70.557 35.1066 70.4633 35.1662 70.3498 35.209C70.2364 35.2521 70.1092 35.2734 69.9689 35.2734C69.7991 35.2734 69.6483 35.2436 69.5167 35.1835C69.3848 35.1227 69.2815 35.0364 69.207 34.9246C69.1332 34.8122 69.0965 34.681 69.0965 34.5309C69.0965 34.3811 69.1328 34.2501 69.2055 34.1383C69.279 34.0259 69.3818 33.9396 69.5138 33.8795C69.6454 33.8187 69.7973 33.7883 69.9689 33.7883C70.1354 33.7883 70.2837 33.8181 70.4138 33.877C70.5447 33.9354 70.6465 34.0189 70.7192 34.1274C70.7926 34.2362 70.8297 34.3629 70.8297 34.5078ZM70.2873 34.3911C70.2873 34.3152 70.2561 34.2547 70.1943 34.21C70.1332 34.1657 70.0561 34.1432 69.9631 34.1432C69.8737 34.1432 69.7988 34.1648 69.7377 34.2076C69.6774 34.2507 69.6403 34.3118 69.6258 34.3911H70.2873Z" fill="#230B41"/>
<path d="M72.1602 33.793C72.3616 33.793 72.523 33.8483 72.6444 33.9582C72.7655 34.0676 72.8262 34.218 72.8262 34.4091V35.2525H72.2998V34.4687C72.2998 34.3724 72.2696 34.2973 72.2097 34.2438C72.1493 34.1904 72.069 34.1636 71.9683 34.1636C71.8673 34.1636 71.7869 34.1904 71.7269 34.2438C71.6666 34.2973 71.6368 34.3724 71.6368 34.4687V35.2525H71.1075V33.8088H71.6368V34.0008C71.6899 33.937 71.7622 33.8862 71.8534 33.8489C71.9443 33.8118 72.0468 33.793 72.1602 33.793Z" fill="#230B41"/>
<path d="M74.3787 33.4358V35.2526H73.8495V33.4358H74.3787Z" fill="#230B41"/>
<path d="M76.1208 35.2734C75.9703 35.2734 75.8362 35.2521 75.718 35.209C75.6006 35.1662 75.5079 35.1069 75.4403 35.0316C75.3723 34.9562 75.3342 34.8721 75.3254 34.7788H75.8489C75.8547 34.8292 75.8823 34.8699 75.9318 34.9015C75.9819 34.9325 76.043 34.9477 76.115 34.9477C76.1808 34.9477 76.2316 34.9374 76.2676 34.9161C76.3043 34.8942 76.3229 34.866 76.3229 34.831C76.3229 34.7897 76.2967 34.7593 76.2444 34.7399C76.1927 34.7198 76.1095 34.6974 75.9943 34.6731C75.87 34.6487 75.7667 34.6232 75.6846 34.5965C75.6021 34.5698 75.5308 34.5278 75.4708 34.4701C75.4105 34.4127 75.3807 34.3346 75.3807 34.2356C75.3807 34.1529 75.4076 34.0776 75.4621 34.0095C75.5174 33.9415 75.5981 33.8877 75.7049 33.8479C75.8114 33.8084 75.9379 33.7883 76.0844 33.7883C76.3003 33.7883 76.4712 33.8333 76.5962 33.9232C76.7213 34.0125 76.7929 34.131 76.8114 34.2793H76.3229C76.3142 34.2301 76.2873 34.1906 76.2429 34.1614C76.1993 34.1316 76.1411 34.1165 76.0684 34.1165C76.0063 34.1165 75.9587 34.1268 75.9259 34.1468C75.8929 34.1663 75.8765 34.1936 75.8765 34.2283C75.8765 34.2696 75.9027 34.3009 75.955 34.3218C76.0081 34.3422 76.0906 34.3629 76.2022 34.3838C76.3301 34.4115 76.4341 34.4385 76.5148 34.4652C76.5951 34.492 76.6653 34.5354 76.7256 34.5953C76.7867 34.6545 76.818 34.7338 76.8201 34.8335C76.8201 34.9179 76.7914 34.9933 76.7344 35.0595C76.678 35.126 76.5966 35.1783 76.4901 35.2163C76.3843 35.2543 76.2611 35.2734 76.1208 35.2734Z" fill="#230B41"/>
<path d="M77.4115 33.6595C77.3184 33.6595 77.2421 33.637 77.1832 33.5914C77.125 33.5452 77.0959 33.4887 77.0959 33.4213C77.0959 33.3526 77.125 33.2955 77.1832 33.2499C77.2421 33.2038 77.3184 33.1807 77.4115 33.1807C77.5023 33.1807 77.5772 33.2038 77.6354 33.2499C77.6943 33.2955 77.7241 33.3526 77.7241 33.4213C77.7241 33.4887 77.6943 33.5452 77.6354 33.5914C77.5772 33.637 77.5023 33.6595 77.4115 33.6595ZM77.6746 33.809V35.2527H77.1454V33.809H77.6746Z" fill="#230B41"/>
<path d="M78.7141 33.7883C78.8362 33.7883 78.9427 33.809 79.0339 33.8503C79.1259 33.8916 79.1971 33.946 79.2477 34.0132V33.809H79.7769V35.2503C79.7769 35.3831 79.7453 35.5034 79.6824 35.6112C79.6192 35.7188 79.5232 35.8045 79.3945 35.8677C79.2655 35.9315 79.1052 35.9637 78.9132 35.9637C78.6573 35.9637 78.4498 35.9129 78.2909 35.8118C78.1317 35.7112 78.0409 35.5748 78.0176 35.4022H78.541C78.5574 35.4581 78.5966 35.5019 78.6588 35.5335C78.7206 35.5651 78.7973 35.5809 78.8885 35.5809C78.9969 35.5809 79.0837 35.5544 79.1488 35.5019C79.2146 35.4499 79.2477 35.3661 79.2477 35.2503V35.0461C79.1953 35.1136 79.1234 35.1683 79.0325 35.2102C78.9423 35.2524 78.8362 35.2734 78.7141 35.2734C78.5716 35.2734 78.4425 35.243 78.3273 35.1823C78.2117 35.1209 78.1208 35.0337 78.0539 34.921C77.9871 34.8076 77.9536 34.6767 77.9536 34.5284C77.9536 34.3802 77.9871 34.2501 78.0539 34.1383C78.1208 34.0259 78.2117 33.9396 78.3273 33.8795C78.4425 33.8187 78.5716 33.7883 78.7141 33.7883ZM79.2477 34.5309C79.2477 34.4209 79.2106 34.3337 79.1372 34.2696C79.0634 34.2058 78.9743 34.1736 78.8696 34.1736C78.7639 34.1736 78.6741 34.2052 78.6006 34.2684C78.5279 34.3316 78.4916 34.4185 78.4916 34.5284C78.4916 34.6387 78.5279 34.7262 78.6006 34.7909C78.6741 34.856 78.7639 34.8882 78.8696 34.8882C78.9743 34.8882 79.0634 34.8563 79.1372 34.7921C79.2106 34.7283 79.2477 34.6412 79.2477 34.5309Z" fill="#230B41"/>
<path d="M81.2124 33.793C81.4137 33.793 81.5751 33.8483 81.6965 33.9582C81.8176 34.0676 81.8783 34.218 81.8783 34.4091V35.2525H81.3519V34.4687C81.3519 34.3724 81.3218 34.2973 81.2618 34.2438C81.2015 34.1904 81.1211 34.1636 81.0204 34.1636C80.9194 34.1636 80.839 34.1904 80.7791 34.2438C80.7187 34.2973 80.6889 34.3724 80.6889 34.4687V35.2525H80.1597V33.8088H80.6889V34.0008C80.742 33.937 80.8143 33.8862 80.9056 33.8489C80.9964 33.8118 81.0989 33.793 81.2124 33.793Z" fill="#230B41"/>
<path d="M83.874 34.5078C83.874 34.5491 83.8703 34.5922 83.8638 34.6366H82.6672C82.6748 34.7265 82.7093 34.7955 82.7704 34.8432C82.8315 34.8903 82.906 34.9137 82.9943 34.9137C83.1259 34.9137 83.2182 34.8672 83.2706 34.7739H83.8333C83.8042 34.8687 83.7518 34.9544 83.6762 35.0303C83.6013 35.1066 83.5076 35.1662 83.3942 35.209C83.2807 35.2521 83.1535 35.2734 83.0132 35.2734C82.8435 35.2734 82.6926 35.2436 82.561 35.1835C82.4291 35.1227 82.3258 35.0364 82.2513 34.9246C82.1775 34.8122 82.1408 34.681 82.1408 34.5309C82.1408 34.3811 82.1772 34.2501 82.2499 34.1383C82.3233 34.0259 82.4262 33.9396 82.5581 33.8795C82.6897 33.8187 82.8416 33.7883 83.0132 33.7883C83.1797 33.7883 83.328 33.8181 83.4581 33.877C83.589 33.9354 83.6908 34.0189 83.7635 34.1274C83.8369 34.2362 83.874 34.3629 83.874 34.5078ZM83.3316 34.3911C83.3316 34.3152 83.3004 34.2547 83.2386 34.21C83.1775 34.1657 83.1004 34.1432 83.0074 34.1432C82.918 34.1432 82.8431 34.1648 82.782 34.2076C82.7217 34.2507 82.6846 34.3118 82.6701 34.3911H83.3316Z" fill="#230B41"/>
<path d="M84.0472 34.5284C84.0472 34.3801 84.0806 34.2501 84.1475 34.1383C84.2144 34.0259 84.3053 33.9396 84.4209 33.8794C84.5361 33.8187 84.6651 33.7883 84.8076 33.7883C84.921 33.7883 85.0246 33.8083 85.1188 33.8478C85.2126 33.8876 85.2867 33.9411 85.3412 34.0082V33.3386H85.8705V35.2527H85.3412V35.0461C85.2907 35.1151 85.2195 35.17 85.1275 35.2114C85.0363 35.2527 84.9298 35.2733 84.8076 35.2733C84.6651 35.2733 84.5361 35.243 84.4209 35.1822C84.3053 35.1208 84.2144 35.0336 84.1475 34.9209C84.0806 34.8076 84.0472 34.6766 84.0472 34.5284ZM85.3412 34.5308C85.3412 34.4208 85.3042 34.3336 85.2307 34.2695C85.1569 34.2057 85.0679 34.1735 84.9632 34.1735C84.8574 34.1735 84.7676 34.2051 84.6942 34.2683C84.6215 34.3315 84.5852 34.4184 84.5852 34.5284C84.5852 34.6387 84.6215 34.7262 84.6942 34.7909C84.7676 34.8559 84.8574 34.8881 84.9632 34.8881C85.0679 34.8881 85.1569 34.8562 85.2307 34.7921C85.3042 34.7283 85.3412 34.6411 85.3412 34.5308Z" fill="#230B41"/>
<path d="M88.6148 33.8088V35.2526H88.0855V35.0557C88.0321 35.1198 87.9594 35.1712 87.8674 35.2101C87.7751 35.2489 87.6733 35.2684 87.5621 35.2684C87.4301 35.2684 87.3135 35.2438 87.2117 35.1943C87.1106 35.145 87.0321 35.0736 86.9761 34.9804C86.9209 34.8874 86.8932 34.778 86.8932 34.6522V33.8088H87.4196V34.5927C87.4196 34.6893 87.4494 34.764 87.5097 34.8175C87.5697 34.871 87.6501 34.8977 87.7511 34.8977C87.8547 34.8977 87.9361 34.871 87.9954 34.8175C88.0554 34.764 88.0855 34.6893 88.0855 34.5927V33.8088H88.6148Z" fill="#230B41"/>
<path d="M89.5244 34.0132C89.5756 33.946 89.6469 33.8916 89.7381 33.8503C89.829 33.809 89.9351 33.7883 90.0565 33.7883C90.199 33.7883 90.3277 33.8187 90.4433 33.8795C90.5596 33.9396 90.6512 34.0259 90.7181 34.1383C90.785 34.2501 90.8184 34.3802 90.8184 34.5284C90.8184 34.6767 90.785 34.8076 90.7181 34.921C90.6512 35.0337 90.5596 35.1209 90.4433 35.1823C90.3277 35.243 90.199 35.2734 90.0565 35.2734C89.9373 35.2734 89.8315 35.2527 89.7396 35.2114C89.6472 35.1701 89.5756 35.1166 89.5244 35.051V35.9406H88.9951V33.809H89.5244V34.0132ZM90.2804 34.5284C90.2804 34.4185 90.2434 34.3316 90.1699 34.2684C90.0962 34.2052 90.006 34.1736 89.8995 34.1736C89.7937 34.1736 89.7039 34.2058 89.6305 34.2696C89.5578 34.3337 89.5215 34.4209 89.5215 34.5309C89.5215 34.6412 89.5578 34.7283 89.6305 34.7921C89.7039 34.8563 89.7937 34.8882 89.8995 34.8882C90.0042 34.8882 90.0936 34.856 90.1685 34.7909C90.243 34.7262 90.2804 34.6387 90.2804 34.5284Z" fill="#230B41"/>
<path d="M56.8556 37.7792H56.5706V38.8559H56.0414V37.7792H55.8494V37.4122H56.0414V37.3709C56.0414 37.1934 56.1017 37.0585 56.2231 36.9662C56.3452 36.8738 56.5241 36.8276 56.7596 36.8276C56.7992 36.8276 56.8283 36.8285 56.8469 36.8301V37.2056C56.7451 37.2001 56.6731 37.2123 56.6317 37.242C56.591 37.2712 56.5706 37.3235 56.5706 37.3988V37.4122H56.8556V37.7792Z" fill="#230B41"/>
<path d="M57.8897 38.8767C57.72 38.8767 57.5673 38.8469 57.4317 38.7867C57.2968 38.726 57.1907 38.6397 57.1133 38.5279C57.0366 38.4155 56.9984 38.2842 56.9984 38.1341C56.9984 37.9859 57.0369 37.8555 57.1147 37.7428C57.1932 37.6295 57.3001 37.5429 57.4361 37.4827C57.5727 37.422 57.7258 37.3916 57.8955 37.3916C58.0649 37.3916 58.2176 37.422 58.3535 37.4827C58.4902 37.5429 58.5971 37.6295 58.6749 37.7428C58.7534 37.8555 58.7926 37.9859 58.7926 38.1341C58.7926 38.2824 58.7527 38.4133 58.6734 38.5267C58.5938 38.6394 58.4851 38.726 58.3477 38.7867C58.211 38.8469 58.0584 38.8767 57.8897 38.8767ZM57.8897 38.4939C57.9904 38.4939 58.0762 38.4632 58.1471 38.4015C58.2187 38.3392 58.2547 38.2502 58.2547 38.1341C58.2547 38.0184 58.2198 37.9297 58.15 37.868C58.0809 37.8057 57.9962 37.7744 57.8955 37.7744C57.7927 37.7744 57.7069 37.8054 57.6382 37.8668C57.5702 37.9275 57.5364 38.0169 57.5364 38.1341C57.5364 38.2502 57.5698 38.3392 57.6367 38.4015C57.7036 38.4632 57.7879 38.4939 57.8897 38.4939Z" fill="#230B41"/>
<path d="M59.6037 37.6529C59.6655 37.5736 59.7433 37.5113 59.8364 37.4658C59.9294 37.4196 60.0326 37.3965 60.1461 37.3965V37.8656H60.0007C59.8676 37.8656 59.7684 37.8896 59.7026 37.9373C59.6364 37.9844 59.6037 38.0673 59.6037 38.1864V38.856H59.0745V37.4123H59.6037V37.6529Z" fill="#230B41"/>
<path d="M62.0176 38.4805V38.856H61.7486C61.5567 38.856 61.407 38.8168 61.2994 38.7381C61.1918 38.6597 61.138 38.5315 61.138 38.3541V37.7793H60.9286V37.4122H61.138V37.0598H61.6687V37.4122H62.0147V37.7793H61.6687V38.3589C61.6687 38.4021 61.6807 38.4331 61.705 38.4525C61.7301 38.4714 61.7712 38.4805 61.8286 38.4805H62.0176Z" fill="#230B41"/>
<path d="M63.373 37.3964C63.5715 37.3964 63.7307 37.4517 63.8499 37.5617C63.9699 37.6711 64.0302 37.8215 64.0302 38.0126V38.856H63.5039V38.0721C63.5039 37.9758 63.4737 37.9007 63.4137 37.8473C63.3534 37.7938 63.273 37.7671 63.1723 37.7671C63.0713 37.7671 62.991 37.7938 62.931 37.8473C62.8706 37.9007 62.8408 37.9758 62.8408 38.0721V38.856H62.3116V36.9419H62.8408V37.6067C62.8939 37.5428 62.9673 37.4918 63.0604 37.4535C63.1534 37.4155 63.2574 37.3964 63.373 37.3964Z" fill="#230B41"/>
<path d="M64.2927 38.1317C64.2927 37.9834 64.3262 37.8534 64.3931 37.7416C64.4599 37.6292 64.5508 37.5429 64.6664 37.4827C64.7816 37.422 64.9107 37.3916 65.0532 37.3916C65.1753 37.3916 65.2818 37.4123 65.373 37.4536C65.465 37.4949 65.5363 37.5493 65.5868 37.6164V37.4123H66.116V38.856H65.5868V38.6518C65.5344 38.7193 65.4621 38.7734 65.3701 38.8147C65.2789 38.856 65.1724 38.8767 65.0503 38.8767C64.9096 38.8767 64.7816 38.8463 64.6664 38.7855C64.5508 38.7242 64.4599 38.637 64.3931 38.5242C64.3262 38.4109 64.2927 38.28 64.2927 38.1317ZM65.5868 38.1341C65.5868 38.0242 65.5497 37.937 65.4763 37.8729C65.4025 37.809 65.3134 37.7768 65.2087 37.7768C65.103 37.7768 65.0132 37.8084 64.9398 37.8716C64.8671 37.9348 64.8307 38.0217 64.8307 38.1317C64.8307 38.242 64.8671 38.3295 64.9398 38.3942C65.0132 38.4592 65.103 38.4914 65.2087 38.4914C65.3134 38.4914 65.4025 38.4595 65.4763 38.3954C65.5497 38.3316 65.5868 38.2444 65.5868 38.1341Z" fill="#230B41"/>
<path d="M67.4613 38.4805V38.856H67.1923C67.0004 38.856 66.8506 38.8168 66.743 38.7381C66.6354 38.6597 66.5816 38.5315 66.5816 38.3541V37.7793H66.3723V37.4122H66.5816V37.0598H67.1123V37.4122H67.4584V37.7793H67.1123V38.3589C67.1123 38.4021 67.1243 38.4331 67.1487 38.4525C67.1738 38.4714 67.2148 38.4805 67.2723 38.4805H67.4613Z" fill="#230B41"/>
<path d="M68.9406 37.6164C68.9918 37.5493 69.0631 37.4949 69.1543 37.4536C69.2452 37.4123 69.3513 37.3916 69.4727 37.3916C69.6152 37.3916 69.7439 37.422 69.8595 37.4827C69.9758 37.5429 70.0674 37.6292 70.1343 37.7416C70.2012 37.8534 70.2346 37.9834 70.2346 38.1317C70.2346 38.28 70.2012 38.4109 70.1343 38.5242C70.0674 38.637 69.9758 38.7242 69.8595 38.7855C69.7439 38.8463 69.6152 38.8767 69.4727 38.8767C69.3535 38.8767 69.2477 38.856 69.1558 38.8147C69.0634 38.7734 68.9918 38.7199 68.9406 38.6543V39.5439H68.4113V37.4123H68.9406V37.6164ZM69.6966 38.1317C69.6966 38.0217 69.6596 37.9348 69.5861 37.8716C69.5124 37.8084 69.4222 37.7768 69.3157 37.7768C69.2099 37.7768 69.1201 37.809 69.0467 37.8729C68.974 37.937 68.9377 38.0242 68.9377 38.1341C68.9377 38.2444 68.974 38.3316 69.0467 38.3954C69.1201 38.4595 69.2099 38.4914 69.3157 38.4914C69.4204 38.4914 69.5098 38.4592 69.5847 38.3942C69.6592 38.3295 69.6966 38.242 69.6966 38.1317Z" fill="#230B41"/>
<path d="M71.0419 37.6529C71.1037 37.5736 71.1815 37.5113 71.2745 37.4658C71.3676 37.4196 71.4708 37.3965 71.5842 37.3965V37.8656H71.4388C71.3058 37.8656 71.2066 37.8896 71.1408 37.9373C71.0746 37.9844 71.0419 38.0673 71.0419 38.1864V38.856H70.5126V37.4123H71.0419V37.6529Z" fill="#230B41"/>
<path d="M72.6238 38.8767C72.454 38.8767 72.3014 38.8469 72.1658 38.7867C72.0309 38.726 71.9248 38.6397 71.8473 38.5279C71.7707 38.4155 71.7325 38.2842 71.7325 38.1341C71.7325 37.9859 71.771 37.8555 71.8488 37.7428C71.9273 37.6295 72.0342 37.5429 72.1701 37.4827C72.3068 37.422 72.4598 37.3916 72.6296 37.3916C72.799 37.3916 72.9517 37.422 73.0876 37.4827C73.2243 37.5429 73.3311 37.6295 73.4089 37.7428C73.4875 37.8555 73.5267 37.9859 73.5267 38.1341C73.5267 38.2824 73.4867 38.4133 73.4075 38.5267C73.3279 38.6394 73.2192 38.726 73.0818 38.7867C72.9451 38.8469 72.7924 38.8767 72.6238 38.8767ZM72.6238 38.4939C72.7245 38.4939 72.8103 38.4632 72.8811 38.4015C72.9527 38.3392 72.9887 38.2502 72.9887 38.1341C72.9887 38.0184 72.9538 37.9297 72.884 37.868C72.815 37.8057 72.7303 37.7744 72.6296 37.7744C72.5267 37.7744 72.4409 37.8054 72.3722 37.8668C72.3043 37.9275 72.2705 38.0169 72.2705 38.1341C72.2705 38.2502 72.3039 38.3392 72.3708 38.4015C72.4377 38.4632 72.522 38.4939 72.6238 38.4939Z" fill="#230B41"/>
<path d="M74.4643 37.3916C74.5864 37.3916 74.6929 37.4123 74.7842 37.4536C74.8761 37.4949 74.9474 37.5493 74.9979 37.6164V37.4123H75.5272V38.8536C75.5272 38.9863 75.4955 39.1067 75.4327 39.2145C75.3694 39.3221 75.2734 39.4077 75.1448 39.4709C75.0157 39.5347 74.8554 39.5669 74.6635 39.5669C74.4076 39.5669 74.2 39.5162 74.0412 39.415C73.882 39.3145 73.7911 39.1781 73.7678 39.0055H74.2913C74.3076 39.0614 74.3469 39.1051 74.409 39.1367C74.4708 39.1683 74.5475 39.1841 74.6388 39.1841C74.7471 39.1841 74.834 39.1577 74.899 39.1051C74.9648 39.0532 74.9979 38.9693 74.9979 38.8536V38.6494C74.9456 38.7169 74.8736 38.7715 74.7827 38.8135C74.6926 38.8557 74.5864 38.8767 74.4643 38.8767C74.3218 38.8767 74.1928 38.8463 74.0775 38.7855C73.9619 38.7242 73.8711 38.637 73.8042 38.5242C73.7373 38.4109 73.7039 38.28 73.7039 38.1317C73.7039 37.9834 73.7373 37.8534 73.8042 37.7416C73.8711 37.6292 73.9619 37.5429 74.0775 37.4827C74.1928 37.422 74.3218 37.3916 74.4643 37.3916ZM74.9979 38.1341C74.9979 38.0242 74.9608 37.937 74.8874 37.8729C74.8136 37.809 74.7246 37.7768 74.6199 37.7768C74.5141 37.7768 74.4243 37.8084 74.3509 37.8716C74.2782 37.9348 74.2418 38.0217 74.2418 38.1317C74.2418 38.242 74.2782 38.3295 74.3509 38.3942C74.4243 38.4592 74.5141 38.4914 74.6199 38.4914C74.7246 38.4914 74.8136 38.4595 74.8874 38.3954C74.9608 38.3316 74.9979 38.2444 74.9979 38.1341Z" fill="#230B41"/>
<path d="M76.4391 37.6529C76.5009 37.5736 76.5787 37.5113 76.6717 37.4658C76.7648 37.4196 76.868 37.3965 76.9814 37.3965V37.8656H76.836C76.703 37.8656 76.6038 37.8896 76.538 37.9373C76.4718 37.9844 76.4391 38.0673 76.4391 38.1864V38.856H75.9099V37.4123H76.4391V37.6529Z" fill="#230B41"/>
<path d="M77.1297 38.1317C77.1297 37.9834 77.1631 37.8534 77.23 37.7416C77.2969 37.6292 77.3878 37.5429 77.5034 37.4827C77.6186 37.422 77.7476 37.3916 77.8901 37.3916C78.0123 37.3916 78.1188 37.4123 78.21 37.4536C78.302 37.4949 78.3732 37.5493 78.4238 37.6164V37.4123H78.953V38.856H78.4238V38.6518C78.3714 38.7193 78.2991 38.7734 78.2071 38.8147C78.1159 38.856 78.0094 38.8767 77.8872 38.8767C77.7466 38.8767 77.6186 38.8463 77.5034 38.7855C77.3878 38.7242 77.2969 38.637 77.23 38.5242C77.1631 38.4109 77.1297 38.28 77.1297 38.1317ZM78.4238 38.1341C78.4238 38.0242 78.3867 37.937 78.3133 37.8729C78.2395 37.809 78.1504 37.7768 78.0457 37.7768C77.9399 37.7768 77.8502 37.8084 77.7767 37.8716C77.704 37.9348 77.6677 38.0217 77.6677 38.1317C77.6677 38.242 77.704 38.3295 77.7767 38.3942C77.8502 38.4592 77.9399 38.4914 78.0457 38.4914C78.1504 38.4914 78.2395 38.4595 78.3133 38.3954C78.3867 38.3316 78.4238 38.2444 78.4238 38.1341Z" fill="#230B41"/>
<path d="M81.5399 37.3965C81.754 37.3965 81.9245 37.4509 82.0518 37.5593C82.1786 37.6681 82.2422 37.8191 82.2422 38.0126V38.856H81.7159V38.0722C81.7159 37.9792 81.6861 37.9069 81.6272 37.8559C81.569 37.8048 81.488 37.7793 81.3844 37.7793C81.2815 37.7793 81.2004 37.8048 81.1416 37.8559C81.0834 37.9069 81.0543 37.9792 81.0543 38.0722V38.856H80.528V38.0722C80.528 37.9792 80.4982 37.9069 80.4393 37.8559C80.38 37.8048 80.299 37.7793 80.1965 37.7793C80.0925 37.7793 80.0111 37.8048 79.9522 37.8559C79.894 37.9069 79.8649 37.9792 79.8649 38.0722V38.856H79.3357V37.4123H79.8649V37.5934C79.918 37.5335 79.9878 37.4858 80.0743 37.45C80.1616 37.4144 80.2597 37.3965 80.3695 37.3965C80.4993 37.3965 80.6152 37.4202 80.717 37.467C80.8195 37.5132 80.9002 37.5797 80.9583 37.6663C81.0172 37.587 81.0983 37.5223 81.2012 37.4718C81.3048 37.4217 81.4178 37.3965 81.5399 37.3965Z" fill="#230B41"/>
<path d="M82.8602 38.8765C82.7679 38.8765 82.6923 38.854 82.6334 38.8085C82.5741 38.7623 82.5447 38.7058 82.5447 38.6383C82.5447 38.5697 82.5741 38.5119 82.6334 38.4657C82.6923 38.419 82.7679 38.3953 82.8602 38.3953C82.9511 38.3953 83.0259 38.419 83.0841 38.4657C83.143 38.5119 83.1728 38.5697 83.1728 38.6383C83.1728 38.7058 83.143 38.7623 83.0841 38.8085C83.0259 38.854 82.9511 38.8765 82.8602 38.8765Z" fill="#230B41"/>
</svg>
