<svg width="107" height="56" viewBox="0 0 107 56" fill="none" xmlns="http://www.w3.org/2000/svg">
<path d="M76.798 21.5651C76.497 20.8397 76.0845 20.1759 75.5246 19.6198C74.0786 18.1828 71.6462 17.2252 69.6452 16.6988C66.5484 15.8843 63.2636 15.5157 60.0528 15.4182C56.0522 15.2969 52.0301 15.5381 48.0858 16.1776C44.1592 16.8144 40.0016 17.7807 36.994 20.3733C33.1736 23.6659 33.3547 29.0609 34.9764 33.3657C35.9456 35.9378 37.6102 38.2044 40.0727 39.7186C41.232 40.4313 42.5155 40.9236 43.8495 41.2677C44.5874 42.8794 44.7174 44.5911 42.9579 45.4955C42.3631 45.8012 42.6041 46.7667 43.3143 46.7189C46.8316 46.485 49.8677 44.6005 51.9854 42.029C52.1271 41.8572 53.7821 41.9339 54.0703 41.9107C54.8354 41.8491 55.5985 41.7681 56.3593 41.6731C59.5811 41.2685 62.7911 41.0508 65.9804 40.4092C69.1848 39.7635 72.6087 38.8296 74.5424 36.1692C76.243 33.828 77.2244 30.822 77.4447 28.0304C77.5999 26.0538 77.6301 23.5738 76.798 21.5651Z" fill="white"/>
<mask id="mask0_136_412" style="mask-type:luminance" maskUnits="userSpaceOnUse" x="33" y="15" width="45" height="33">
<path d="M33.4375 15.0447H77.9465V47.0816H33.4375V15.0447Z" fill="white"/>
</mask>
<g mask="url(#mask0_136_412)">
<path d="M76.798 21.565L77.1463 21.44C76.8325 20.6816 76.3963 19.977 75.7972 19.3818C75.0306 18.6211 74.026 18.0048 72.9608 17.5068C71.895 17.0093 70.7662 16.6323 69.7471 16.3642C66.6117 15.5397 63.2982 15.1686 60.065 15.0703C59.3974 15.05 58.7287 15.04 58.0599 15.04C54.6987 15.04 51.3335 15.2977 48.0217 15.8351C46.0491 16.1549 44.0069 16.5589 42.0674 17.2151C40.1288 17.8716 38.29 18.7817 36.7394 20.1183C35.5709 21.1248 34.7605 22.325 34.2459 23.621C33.7315 24.917 33.5109 26.3089 33.5109 27.7132C33.5109 29.6812 33.9431 31.6748 34.6238 33.4807C35.1187 34.7953 35.7932 36.0354 36.6625 37.1435C37.5318 38.2518 38.5962 39.227 39.8664 40.0083C41.066 40.7459 42.387 41.2509 43.7497 41.6028L43.8496 41.2676L43.5059 41.404C43.804 42.053 43.9898 42.7087 43.9889 43.2863C43.9883 43.6855 43.9033 44.0441 43.7157 44.3593C43.5268 44.6745 43.2345 44.955 42.7768 45.1911C42.5968 45.2829 42.4586 45.4212 42.3724 45.5738C42.2859 45.7263 42.2479 45.8922 42.2479 46.0534C42.2482 46.2964 42.3315 46.536 42.5019 46.7315C42.5872 46.8285 42.6967 46.9141 42.8264 46.9743C42.9564 47.0351 43.1074 47.0686 43.2641 47.068C43.2894 47.068 43.3137 47.0677 43.3367 47.0664L43.3404 47.0659C45.1635 46.9446 46.8598 46.3953 48.3677 45.5484C49.8759 44.7012 51.1974 43.5572 52.2821 42.2404L52.0554 42.0786L52.2142 42.3006C52.2295 42.2901 52.2539 42.2739 52.2821 42.2404L52.0554 42.0786L52.2142 42.3006L52.1152 42.1623L52.1863 42.3147C52.1898 42.3133 52.1985 42.3095 52.2142 42.3006L52.1152 42.1623L52.1863 42.3147L52.1683 42.276L52.184 42.3155L52.1863 42.3147L52.1683 42.276L52.184 42.3155C52.1863 42.3141 52.2359 42.302 52.3033 42.2941C52.4054 42.2812 52.5514 42.272 52.7119 42.2671C52.8725 42.262 53.0492 42.2604 53.2205 42.2604C53.4492 42.2604 53.6683 42.2631 53.8361 42.2631C53.8904 42.2631 53.9394 42.2625 53.9827 42.262C54.0265 42.2612 54.0637 42.2598 54.1005 42.2571H54.1026C54.8744 42.195 55.6432 42.1135 56.4095 42.0176C59.6163 41.6147 62.8364 41.3973 66.0594 40.7486C67.6712 40.4237 69.3544 40.0245 70.895 39.3599C71.6657 39.0275 72.4006 38.628 73.0708 38.1363C73.741 37.6445 74.3453 37.0609 74.8521 36.3638C76.5974 33.9587 77.5912 30.904 77.8171 28.0557C77.8673 27.418 77.9047 26.7264 77.9047 26.0124C77.9036 24.4922 77.7378 22.8697 77.1469 21.44L76.4488 21.69C76.9901 22.9934 77.1582 24.5403 77.157 26.0124C77.157 26.7037 77.121 27.3792 77.0714 28.0049C76.8572 30.7401 75.8892 33.697 74.2324 35.9739C73.7726 36.6074 73.2241 37.1381 72.6078 37.5902C71.6845 38.2675 70.6071 38.7685 69.4594 39.1584C68.3123 39.5492 67.0956 39.8285 65.9012 40.0691C62.7464 40.7048 59.5466 40.9225 56.3097 41.3284C55.5538 41.4229 54.7966 41.5031 54.0381 41.5642L54.0402 41.5639C54.0309 41.5647 54.0036 41.5655 53.9682 41.5666C53.9325 41.5669 53.8875 41.5674 53.8361 41.5674C53.6765 41.5674 53.4553 41.5647 53.2205 41.5647C52.9442 41.5647 52.6507 41.5685 52.4014 41.586C52.2763 41.5949 52.1631 41.6068 52.0574 41.6282C52.0037 41.639 51.9523 41.6522 51.8943 41.6743C51.8656 41.686 51.8345 41.7 51.8 41.7211C51.7657 41.7427 51.7268 41.7713 51.6885 41.8169C50.6558 43.0722 49.3998 44.1562 47.9816 44.9523C46.5626 45.7493 44.9821 46.2594 43.2873 46.3721L43.3143 46.7188L43.2914 46.3721C43.2801 46.3726 43.2708 46.3729 43.2641 46.3729C43.2182 46.3726 43.1878 46.3645 43.1593 46.3518C43.1181 46.3326 43.0781 46.2973 43.0461 46.2435C43.0145 46.19 42.995 46.1198 42.995 46.0534C42.995 45.9945 43.0096 45.94 43.0334 45.8989C43.0577 45.8573 43.0873 45.8268 43.1384 45.7998C43.7007 45.5116 44.1105 45.1327 44.3694 44.6966C44.6292 44.261 44.7369 43.7773 44.7363 43.2863C44.7354 42.5728 44.5163 41.8377 44.1938 41.1312C44.1488 41.0346 44.0588 40.9606 43.95 40.9325C42.6441 40.5957 41.3981 40.1166 40.2785 39.4282C39.0873 38.6956 38.0874 37.7803 37.2665 36.7338C36.4454 35.6873 35.8031 34.508 35.3288 33.2506C34.6728 31.5089 34.258 29.5858 34.258 27.7132C34.258 26.3764 34.4688 25.0664 34.9474 23.8619C35.4263 22.6569 36.1705 21.5574 37.2474 20.6284C38.7051 19.3718 40.4495 18.5033 42.3228 17.8689C44.1961 17.2346 46.1966 16.837 48.15 16.5202C51.4174 15.9901 54.74 15.7357 58.0599 15.7357C58.7202 15.7357 59.3809 15.7454 60.0406 15.7654C63.2291 15.8624 66.4852 16.2289 69.5436 17.0334C70.5247 17.2915 71.6134 17.6561 72.6253 18.1287C73.6377 18.6008 74.5726 19.1812 75.2515 19.8574C75.7728 20.3748 76.1623 20.9976 76.4488 21.69L76.798 21.565Z" fill="#230B41"/>
</g>
<path d="M66.4875 17.7095C66.9978 17.6733 67.4288 17.7463 67.8991 17.9647Z" fill="white"/>
<path d="M66.5168 18.0563C66.5908 18.0509 66.6619 18.0482 66.7298 18.0482C67.0851 18.0496 67.3803 18.1139 67.7321 18.2759C67.9164 18.362 68.1408 18.2924 68.2334 18.1206C68.326 17.9491 68.2514 17.7404 68.0665 17.6542C67.6299 17.4492 67.1919 17.3512 66.7298 17.3526C66.6404 17.3526 66.5505 17.3563 66.4587 17.3625C66.253 17.3777 66.0991 17.5446 66.1154 17.7366C66.1308 17.9278 66.311 18.0715 66.5168 18.0563Z" fill="#230B41"/>
<path d="M68.5262 18.3298C71.5063 18.8041 74.0936 20.9562 75.0349 23.6195Z" fill="white"/>
<path d="M68.4636 18.6727C69.878 18.8974 71.2097 19.5237 72.2984 20.4149C73.3875 21.3061 74.2321 22.4598 74.6797 23.7277C74.7444 23.9103 74.9557 24.0099 75.1519 23.9497C75.3479 23.89 75.4547 23.6934 75.3902 23.5109C74.8968 22.1157 73.977 20.8624 72.7924 19.8929C71.6073 18.9236 70.1549 18.2363 68.5895 17.9873C68.3861 17.9546 68.193 18.0818 68.1579 18.2711C68.1234 18.4604 68.2601 18.6403 68.4636 18.6727Z" fill="#230B41"/>
<path d="M75.014 24.4582C75.014 24.6046 75.014 24.7137 75.014 24.8233C75.014 25.0153 75.1815 25.1709 75.3879 25.1709C75.5943 25.1709 75.7617 25.0153 75.7617 24.8233C75.7617 24.7137 75.7617 24.6046 75.7617 24.4582C75.7617 24.2662 75.5943 24.1104 75.3879 24.1104C75.1815 24.1104 75.014 24.2662 75.014 24.4582Z" fill="#230B41"/>
<path d="M56.0586 40.2175C56.4896 40.2175 56.8821 40.1446 57.3134 40.1082Z" fill="white"/>
<path d="M56.0586 40.5651C56.2969 40.5651 56.5184 40.5454 56.7303 40.5216C56.9419 40.4981 57.1439 40.4714 57.3468 40.4546C57.5528 40.4371 57.7041 40.268 57.6855 40.0766C57.6666 39.8854 57.4849 39.7447 57.2797 39.7619C57.0513 39.7814 56.8417 39.8089 56.6417 39.8311C56.4415 39.8532 56.2516 39.8697 56.0586 39.8697C55.8522 39.8697 55.6848 40.0255 55.6848 40.2175C55.6848 40.4095 55.8522 40.5651 56.0586 40.5651Z" fill="#230B41"/>
<path d="M58.9597 39.9622C59.8226 39.7802 60.7242 39.8164 61.5871 39.7068C63.2729 39.5609 64.9587 39.2328 66.5659 38.6489" fill="white"/>
<path d="M59.0425 40.3014C59.4413 40.2171 59.8627 40.1812 60.2981 40.1542C60.7338 40.1269 61.1834 40.1089 61.6376 40.0513L61.5871 39.7067L61.6217 40.0532C63.3356 39.9047 65.0563 39.5704 66.7023 38.9732C66.8945 38.903 66.9894 38.7016 66.9145 38.5225C66.8396 38.3437 66.6225 38.2554 66.43 38.3251C64.8609 38.8949 63.2097 39.2174 61.5526 39.3608L61.5363 39.3621C61.1279 39.4143 60.6955 39.4329 60.2485 39.4604C59.8023 39.488 59.3414 39.5253 58.877 39.623C58.6761 39.6657 58.5496 39.852 58.5952 40.0392C58.641 40.2266 58.8416 40.3438 59.043 40.3014" fill="#230B41"/>
<path d="M38.325 26.3547V27.9697H37.9024V26.3547H38.325Z" fill="#230B41"/>
<path d="M41.1348 26.6865L40.7621 27.9699H40.2942L40.0771 27.137L39.8519 27.9699H39.3875L39.0125 26.6865H39.4351L39.6301 27.6037L39.8623 26.6865H40.3093L40.5438 27.5993L40.7377 26.6865H41.1348Z" fill="#230B41"/>
<path d="M41.5078 26.5535C41.4335 26.5535 41.3725 26.5336 41.3255 26.4931C41.2791 26.452 41.2559 26.4018 41.2559 26.3418C41.2559 26.2808 41.2791 26.23 41.3255 26.1895C41.3725 26.1485 41.4335 26.1279 41.5078 26.1279C41.5804 26.1279 41.6402 26.1485 41.6866 26.1895C41.7336 26.23 41.7574 26.2808 41.7574 26.3418C41.7574 26.4018 41.7336 26.452 41.6866 26.4931C41.6402 26.5336 41.5804 26.5535 41.5078 26.5535ZM41.7179 26.6864V27.9698H41.2953V26.6864H41.7179Z" fill="#230B41"/>
<path d="M42.5851 27.9883C42.4649 27.9883 42.3578 27.9694 42.2635 27.931C42.1697 27.8929 42.0957 27.8403 42.0417 27.7733C41.9875 27.7063 41.957 27.6315 41.95 27.5486H42.368C42.3726 27.5934 42.3947 27.6296 42.4342 27.6577C42.4742 27.6853 42.523 27.6988 42.5804 27.6988C42.633 27.6988 42.6736 27.6896 42.7024 27.6707C42.7317 27.6512 42.7465 27.6261 42.7465 27.5951C42.7465 27.5583 42.7256 27.5313 42.6838 27.514C42.6426 27.4962 42.5761 27.4762 42.4841 27.4546C42.3848 27.433 42.3024 27.4103 42.2368 27.3866C42.1709 27.3628 42.114 27.3255 42.0661 27.2742C42.0179 27.2232 41.9941 27.1538 41.9941 27.0657C41.9941 26.9923 42.0156 26.9253 42.0591 26.8648C42.1033 26.8043 42.1677 26.7565 42.253 26.7211C42.3381 26.686 42.4391 26.6682 42.5561 26.6682C42.7285 26.6682 42.8649 26.7082 42.9647 26.7881C43.0646 26.8675 43.1218 26.9728 43.1366 27.1046H42.7465C42.7395 27.0609 42.718 27.0258 42.6826 26.9998C42.6478 26.9734 42.6013 26.9599 42.5433 26.9599C42.4937 26.9599 42.4556 26.9691 42.4295 26.9869C42.4031 27.0042 42.39 27.0285 42.39 27.0593C42.39 27.096 42.4109 27.1238 42.4527 27.1424C42.4951 27.1605 42.561 27.1789 42.6501 27.1975C42.7523 27.2221 42.8353 27.2461 42.8997 27.2699C42.9639 27.2937 43.0199 27.3323 43.0681 27.3855C43.1168 27.4382 43.1418 27.5086 43.1435 27.5972C43.1435 27.6723 43.1206 27.7393 43.075 27.7982C43.0301 27.8573 42.965 27.9037 42.88 27.9375C42.7955 27.9713 42.6971 27.9883 42.5851 27.9883Z" fill="#230B41"/>
<path d="M44.2507 26.6726C44.4092 26.6726 44.5364 26.7217 44.6316 26.8195C44.7273 26.9167 44.7755 27.0504 44.7755 27.2203V27.9699H44.3552V27.2732C44.3552 27.1876 44.3311 27.1209 44.2833 27.0733C44.2351 27.0258 44.1709 27.002 44.0905 27.002C44.0098 27.002 43.9457 27.0258 43.8978 27.0733C43.8496 27.1209 43.8258 27.1876 43.8258 27.2732V27.9699H43.4032V26.2686H43.8258V26.8594C43.8682 26.8027 43.9268 26.7574 44.0011 26.7233C44.0754 26.6896 44.1584 26.6726 44.2507 26.6726Z" fill="#230B41"/>
<path d="M46.0153 26.3547V27.9697H45.5927V26.3547H46.0153Z" fill="#230B41"/>
<path d="M47.6931 26.6726C47.8516 26.6726 47.9787 26.7217 48.0739 26.8195C48.1697 26.9167 48.2179 27.0504 48.2179 27.2203V27.9699H47.7976V27.2732C47.7976 27.1876 47.7735 27.1209 47.7256 27.0733C47.6775 27.0258 47.6133 27.002 47.5329 27.002C47.4522 27.002 47.3881 27.0258 47.3402 27.0733C47.292 27.1209 47.2682 27.1876 47.2682 27.2732V27.9699H46.8456V26.2686H47.2682V26.8594C47.3106 26.8027 47.3692 26.7574 47.4435 26.7233C47.5178 26.6896 47.6008 26.6726 47.6931 26.6726Z" fill="#230B41"/>
<path d="M48.4276 27.3261C48.4276 27.1943 48.4543 27.0787 48.5077 26.9793C48.5611 26.8794 48.6336 26.8027 48.7259 26.7492C48.8179 26.6952 48.921 26.6682 49.0348 26.6682C49.1323 26.6682 49.2173 26.6866 49.2902 26.7233C49.3636 26.76 49.4205 26.8084 49.4609 26.8681V26.6866H49.8835V27.9699H49.4609V27.7884C49.4191 27.8484 49.3613 27.8965 49.2879 27.9332C49.215 27.9699 49.13 27.9883 49.0324 27.9883C48.9201 27.9883 48.8179 27.9613 48.7259 27.9073C48.6336 27.8527 48.5611 27.7752 48.5077 27.675C48.4543 27.5743 48.4276 27.4579 48.4276 27.3261ZM49.4609 27.3282C49.4609 27.2305 49.4313 27.153 49.3726 27.096C49.3137 27.0393 49.2426 27.0107 49.159 27.0107C49.0745 27.0107 49.0028 27.0387 48.9442 27.0949C48.8862 27.1511 48.8571 27.2283 48.8571 27.3261C48.8571 27.4241 48.8862 27.5019 48.9442 27.5594C49.0028 27.6172 49.0745 27.6458 49.159 27.6458C49.2426 27.6458 49.3137 27.6175 49.3726 27.5605C49.4313 27.5038 49.4609 27.4263 49.4609 27.3282Z" fill="#230B41"/>
<path d="M50.1055 27.3261C50.1055 27.1943 50.1322 27.0787 50.1856 26.9794C50.239 26.8794 50.3116 26.8027 50.4039 26.7493C50.4959 26.6953 50.5989 26.6682 50.7127 26.6682C50.8032 26.6682 50.886 26.6861 50.9611 26.7212C51.036 26.7566 51.0952 26.8041 51.1388 26.8638V26.2686H51.5614V27.9699H51.1388V27.7863C51.0984 27.8476 51.0415 27.8965 50.9681 27.9332C50.8953 27.9699 50.8102 27.9883 50.7127 27.9883C50.5989 27.9883 50.4959 27.9613 50.4039 27.9073C50.3116 27.8527 50.239 27.7752 50.1856 27.675C50.1322 27.5743 50.1055 27.4579 50.1055 27.3261ZM51.1388 27.3283C51.1388 27.2305 51.1092 27.153 51.0505 27.096C50.9916 27.0393 50.9205 27.0107 50.8369 27.0107C50.7524 27.0107 50.6808 27.0388 50.6221 27.0949C50.5641 27.1511 50.535 27.2284 50.535 27.3261C50.535 27.4241 50.5641 27.5019 50.6221 27.5594C50.6808 27.6172 50.7524 27.6459 50.8369 27.6459C50.9205 27.6459 50.9916 27.6175 51.0505 27.5605C51.1092 27.5038 51.1388 27.4263 51.1388 27.3283Z" fill="#230B41"/>
<path d="M53.1595 27.6361V27.9699H52.9447C52.7914 27.9699 52.6718 27.9351 52.5859 27.8651C52.5 27.7954 52.457 27.6815 52.457 27.5238V27.0128H52.2899V26.6866H52.457V26.3733H52.8808V26.6866H53.1571V27.0128H52.8808V27.5281C52.8808 27.5664 52.8904 27.594 52.9098 27.6113C52.9299 27.628 52.9627 27.6361 53.0085 27.6361H53.1595Z" fill="#230B41"/>
<path d="M53.3105 27.3261C53.3105 27.1943 53.3373 27.0787 53.3907 26.9793C53.4441 26.8794 53.5166 26.8027 53.6089 26.7492C53.7009 26.6952 53.804 26.6682 53.9178 26.6682C54.0153 26.6682 54.1003 26.6866 54.1732 26.7233C54.2466 26.76 54.3035 26.8084 54.3439 26.8681V26.6866H54.7665V27.9699H54.3439V27.7884C54.3021 27.8484 54.2443 27.8965 54.1709 27.9332C54.098 27.9699 54.013 27.9883 53.9154 27.9883C53.8031 27.9883 53.7009 27.9613 53.6089 27.9073C53.5166 27.8527 53.4441 27.7752 53.3907 27.675C53.3373 27.5743 53.3105 27.4579 53.3105 27.3261ZM54.3439 27.3282C54.3439 27.2305 54.3143 27.153 54.2556 27.096C54.1967 27.0393 54.1256 27.0107 54.042 27.0107C53.9575 27.0107 53.8858 27.0387 53.8272 27.0949C53.7692 27.1511 53.7401 27.2283 53.7401 27.3261C53.7401 27.4241 53.7692 27.5019 53.8272 27.5594C53.8858 27.6172 53.9575 27.6458 54.042 27.6458C54.1256 27.6458 54.1967 27.6175 54.2556 27.5605C54.3143 27.5038 54.3439 27.4263 54.3439 27.3282Z" fill="#230B41"/>
<path d="M55.915 27.9699L55.4947 27.432V27.9699H55.0721V26.2686H55.4947V27.2084L55.9127 26.6866H56.434L55.8604 27.3304L56.4386 27.9699H55.915Z" fill="#230B41"/>
<path d="M57.8996 27.3077C57.8996 27.3444 57.8967 27.3828 57.8915 27.4222H56.936C56.9421 27.5022 56.9696 27.5635 57.0184 27.6059C57.0672 27.6477 57.1267 27.6685 57.1972 27.6685C57.3023 27.6685 57.376 27.6272 57.4178 27.5443H57.8671C57.8439 27.6286 57.8021 27.7047 57.7417 27.7722C57.6819 27.84 57.607 27.8929 57.5165 27.931C57.4259 27.9694 57.3243 27.9883 57.2123 27.9883C57.0768 27.9883 56.9563 27.9618 56.8512 27.9083C56.7459 27.8543 56.6634 27.7776 56.6039 27.6782C56.545 27.5783 56.5157 27.4617 56.5157 27.3282C56.5157 27.1951 56.5447 27.0787 56.6028 26.9793C56.6614 26.8794 56.7435 26.8027 56.8489 26.7492C56.954 26.6952 57.0753 26.6682 57.2123 26.6682C57.3452 26.6682 57.4637 26.6947 57.5676 26.7471C57.6721 26.7989 57.7533 26.8732 57.8114 26.9696C57.87 27.0663 57.8996 27.1789 57.8996 27.3077ZM57.4666 27.204C57.4666 27.1365 57.4416 27.0828 57.3923 27.0431C57.3435 27.0036 57.282 26.9836 57.2077 26.9836C57.1363 26.9836 57.0765 27.0028 57.0277 27.0409C56.9795 27.0792 56.9499 27.1335 56.9383 27.204H57.4666Z" fill="#230B41"/>
<path d="M58.9621 26.6724C59.1229 26.6724 59.2518 26.7215 59.3487 26.8193C59.4454 26.9165 59.4939 27.0502 59.4939 27.22V27.9697H59.0736V27.273C59.0736 27.1874 59.0495 27.1207 59.0016 27.0731C58.9534 27.0256 58.8892 27.0018 58.8088 27.0018C58.7282 27.0018 58.664 27.0256 58.6161 27.0731C58.5679 27.1207 58.5441 27.1874 58.5441 27.273V27.9697H58.1215V26.6864H58.5441V26.8571C58.5865 26.8004 58.6443 26.7553 58.7171 26.7221C58.7897 26.6891 58.8715 26.6724 58.9621 26.6724Z" fill="#230B41"/>
<path d="M60.2274 27.3261C60.2274 27.1943 60.2541 27.0787 60.3075 26.9793C60.3609 26.8794 60.4334 26.8027 60.5257 26.7492C60.6178 26.6952 60.7208 26.6682 60.8346 26.6682C60.9321 26.6682 61.0171 26.6866 61.09 26.7233C61.1634 26.76 61.2203 26.8084 61.2607 26.8681V26.6866H61.6833V27.9699H61.2607V27.7884C61.2189 27.8484 61.1611 27.8965 61.0877 27.9332C61.0148 27.9699 60.9298 27.9883 60.8322 27.9883C60.7199 27.9883 60.6178 27.9613 60.5257 27.9073C60.4334 27.8527 60.3609 27.7752 60.3075 27.675C60.2541 27.5743 60.2274 27.4579 60.2274 27.3261ZM61.2607 27.3282C61.2607 27.2305 61.2311 27.153 61.1724 27.096C61.1135 27.0393 61.0424 27.0107 60.9588 27.0107C60.8743 27.0107 60.8026 27.0387 60.744 27.0949C60.686 27.1511 60.6569 27.2283 60.6569 27.3261C60.6569 27.4241 60.686 27.5019 60.744 27.5594C60.8026 27.6172 60.8743 27.6458 60.9588 27.6458C61.0424 27.6458 61.1135 27.6175 61.1724 27.5605C61.2311 27.5038 61.2607 27.4263 61.2607 27.3282Z" fill="#230B41"/>
<path d="M62.4292 27.3261C62.4292 27.1943 62.4559 27.0787 62.5093 26.9794C62.5627 26.8794 62.6353 26.8027 62.7276 26.7493C62.8196 26.6953 62.9226 26.6682 63.0364 26.6682C63.127 26.6682 63.2097 26.6861 63.2849 26.7212C63.3598 26.7566 63.419 26.8041 63.4625 26.8638V26.2686H63.8851V27.9699H63.4625V27.7863C63.4222 27.8476 63.3653 27.8965 63.2918 27.9332C63.219 27.9699 63.1339 27.9883 63.0364 27.9883C62.9226 27.9883 62.8196 27.9613 62.7276 27.9073C62.6353 27.8527 62.5627 27.7752 62.5093 27.675C62.4559 27.5743 62.4292 27.4579 62.4292 27.3261ZM63.4625 27.3283C63.4625 27.2305 63.4329 27.153 63.3743 27.096C63.3154 27.0393 63.2442 27.0107 63.1606 27.0107C63.0762 27.0107 63.0045 27.0388 62.9459 27.0949C62.8878 27.1511 62.8588 27.2284 62.8588 27.3261C62.8588 27.4241 62.8878 27.5019 62.9459 27.5594C63.0045 27.6172 63.0762 27.6459 63.1606 27.6459C63.2442 27.6459 63.3154 27.6175 63.3743 27.5605C63.4329 27.5038 63.4625 27.4263 63.4625 27.3283Z" fill="#230B41"/>
<path d="M64.4032 26.5535C64.3289 26.5535 64.2679 26.5336 64.2209 26.4931C64.1745 26.452 64.1512 26.4018 64.1512 26.3418C64.1512 26.2808 64.1745 26.23 64.2209 26.1895C64.2679 26.1485 64.3289 26.1279 64.4032 26.1279C64.4758 26.1279 64.5355 26.1485 64.582 26.1895C64.629 26.23 64.6528 26.2808 64.6528 26.3418C64.6528 26.4018 64.629 26.452 64.582 26.4931C64.5355 26.5336 64.4758 26.5535 64.4032 26.5535ZM64.6133 26.6864V27.9698H64.1907V26.6864H64.6133Z" fill="#230B41"/>
<path d="M65.6117 27.0128H65.3841V27.9699H64.9615V27.0128H64.8082V26.6866H64.9615V26.6499C64.9615 26.4921 65.0097 26.3722 65.1066 26.2901C65.2041 26.208 65.3469 26.167 65.535 26.167C65.5667 26.167 65.5899 26.1678 65.6047 26.1692V26.5029C65.5234 26.4981 65.4659 26.5089 65.4329 26.5354C65.4004 26.5613 65.3841 26.6077 65.3841 26.6747V26.6866H65.6117V27.0128Z" fill="#230B41"/>
<path d="M66.5013 27.0128H66.2737V27.9699H65.8511V27.0128H65.6979V26.6866H65.8511V26.6499C65.8511 26.4921 65.8993 26.3722 65.9963 26.2901C66.0938 26.208 66.2366 26.167 66.4247 26.167C66.4563 26.167 66.4795 26.1678 66.4943 26.1692V26.5029C66.4131 26.4981 66.3556 26.5089 66.3225 26.5354C66.29 26.5613 66.2737 26.6077 66.2737 26.6747V26.6866H66.5013V27.0128Z" fill="#230B41"/>
<path d="M67.9993 27.3077C67.9993 27.3444 67.9964 27.3828 67.9912 27.4222H67.0356C67.0417 27.5022 67.0693 27.5635 67.1181 27.6059C67.1668 27.6477 67.2263 27.6685 67.2969 27.6685C67.402 27.6685 67.4757 27.6272 67.5175 27.5443H67.9668C67.9436 27.6286 67.9018 27.7047 67.8414 27.7722C67.7816 27.84 67.7067 27.8929 67.6162 27.931C67.5256 27.9694 67.424 27.9883 67.312 27.9883C67.1764 27.9883 67.056 27.9618 66.9509 27.9083C66.8455 27.8543 66.7631 27.7776 66.7036 27.6782C66.6447 27.5783 66.6154 27.4617 66.6154 27.3282C66.6154 27.1951 66.6444 27.0787 66.7024 26.9793C66.7611 26.8794 66.8432 26.8027 66.9486 26.7492C67.0536 26.6952 67.175 26.6682 67.312 26.6682C67.4449 26.6682 67.5633 26.6947 67.6672 26.7471C67.7717 26.7989 67.853 26.8732 67.9111 26.9696C67.9697 27.0663 67.9993 27.1789 67.9993 27.3077ZM67.5662 27.204C67.5662 27.1365 67.5413 27.0828 67.4919 27.0431C67.4432 27.0036 67.3816 26.9836 67.3073 26.9836C67.2359 26.9836 67.1761 27.0028 67.1274 27.0409C67.0792 27.0792 67.0496 27.1335 67.038 27.204H67.5662Z" fill="#230B41"/>
<path d="M68.6438 26.9003C68.6931 26.8298 68.7553 26.7744 68.8296 26.7339C68.9039 26.6929 68.9863 26.6724 69.0769 26.6724V27.0893H68.9608C68.8545 27.0893 68.7753 27.1107 68.7228 27.1531C68.6699 27.1949 68.6438 27.2687 68.6438 27.3745V27.9697H68.2212V26.6864H68.6438V26.9003Z" fill="#230B41"/>
<path d="M70.5792 27.3077C70.5792 27.3444 70.5763 27.3828 70.5711 27.4222H69.6155C69.6216 27.5022 69.6492 27.5635 69.698 27.6059C69.7467 27.6477 69.8062 27.6685 69.8768 27.6685C69.9818 27.6685 70.0556 27.6272 70.0974 27.5443H70.5467C70.5235 27.6286 70.4817 27.7047 70.4213 27.7722C70.3615 27.84 70.2866 27.8929 70.1961 27.931C70.1055 27.9694 70.0039 27.9883 69.8919 27.9883C69.7563 27.9883 69.6359 27.9618 69.5308 27.9083C69.4254 27.8543 69.343 27.7776 69.2835 27.6782C69.2246 27.5783 69.1953 27.4617 69.1953 27.3282C69.1953 27.1951 69.2243 27.0787 69.2823 26.9793C69.341 26.8794 69.4231 26.8027 69.5285 26.7492C69.6335 26.6952 69.7549 26.6682 69.8919 26.6682C70.0248 26.6682 70.1432 26.6947 70.2471 26.7471C70.3516 26.7989 70.4329 26.8732 70.491 26.9696C70.5496 27.0663 70.5792 27.1789 70.5792 27.3077ZM70.1461 27.204C70.1461 27.1365 70.1212 27.0828 70.0718 27.0431C70.0231 27.0036 69.9615 26.9836 69.8872 26.9836C69.8158 26.9836 69.756 27.0028 69.7073 27.0409C69.6591 27.0792 69.6295 27.1335 69.6179 27.204H70.1461Z" fill="#230B41"/>
<path d="M71.6417 26.6724C71.8025 26.6724 71.9313 26.7215 72.0283 26.8193C72.1249 26.9165 72.1734 27.0502 72.1734 27.22V27.9697H71.7531V27.273C71.7531 27.1874 71.729 27.1207 71.6811 27.0731C71.633 27.0256 71.5688 27.0018 71.4884 27.0018C71.4077 27.0018 71.3436 27.0256 71.2957 27.0731C71.2475 27.1207 71.2237 27.1874 71.2237 27.273V27.9697H70.8011V26.6864H71.2237V26.8571C71.2661 26.8004 71.3238 26.7553 71.3967 26.7221C71.4693 26.6891 71.5511 26.6724 71.6417 26.6724Z" fill="#230B41"/>
<path d="M73.2353 27.6361V27.9699H73.0205C72.8672 27.9699 72.7476 27.9351 72.6617 27.8651C72.5758 27.7954 72.5328 27.6815 72.5328 27.5238V27.0128H72.3657V26.6866H72.5328V26.3733H72.9566V26.6866H73.2329V27.0128H72.9566V27.5281C72.9566 27.5664 72.9662 27.594 72.9856 27.6113C73.0057 27.628 73.0385 27.6361 73.0843 27.6361H73.2353Z" fill="#230B41"/>
<path d="M40.25 30.0709C40.2909 30.0113 40.3478 29.9629 40.4207 29.9262C40.4932 29.8895 40.578 29.8711 40.6749 29.8711C40.7887 29.8711 40.8915 29.8981 40.9838 29.9521C41.0767 30.0056 41.1498 30.0823 41.2032 30.1822C41.2566 30.2816 41.2833 30.3972 41.2833 30.529C41.2833 30.6608 41.2566 30.7772 41.2032 30.8779C41.1498 30.9781 41.0767 31.0556 40.9838 31.1101C40.8915 31.1641 40.7887 31.1912 40.6749 31.1912C40.5797 31.1912 40.4953 31.1728 40.4218 31.1361C40.3481 31.0993 40.2909 31.0518 40.25 30.9935V31.7842H39.8274V29.8895H40.25V30.0709ZM40.8537 30.529C40.8537 30.4312 40.8241 30.354 40.7655 30.2978C40.7066 30.2416 40.6346 30.2135 40.5495 30.2135C40.4651 30.2135 40.3934 30.2422 40.3348 30.2989C40.2767 30.3559 40.2477 30.4334 40.2477 30.5311C40.2477 30.6292 40.2767 30.7067 40.3348 30.7634C40.3934 30.8204 40.4651 30.8487 40.5495 30.8487C40.6331 30.8487 40.7045 30.8201 40.7643 30.7623C40.8238 30.7048 40.8537 30.627 40.8537 30.529Z" fill="#230B41"/>
<path d="M41.4218 30.529C41.4218 30.3972 41.4485 30.2816 41.5019 30.1822C41.5553 30.0823 41.6278 30.0056 41.7201 29.9521C41.8121 29.8981 41.9152 29.8711 42.029 29.8711C42.1265 29.8711 42.2115 29.8895 42.2844 29.9262C42.3578 29.9629 42.4147 30.0113 42.4551 30.0709V29.8895H42.8777V31.1728H42.4551V30.9913C42.4133 31.0513 42.3555 31.0993 42.2821 31.1361C42.2092 31.1728 42.1242 31.1912 42.0266 31.1912C41.9143 31.1912 41.8121 31.1641 41.7201 31.1101C41.6278 31.0556 41.5553 30.9781 41.5019 30.8779C41.4485 30.7772 41.4218 30.6608 41.4218 30.529ZM42.4551 30.5311C42.4551 30.4334 42.4255 30.3559 42.3668 30.2989C42.3079 30.2422 42.2368 30.2135 42.1532 30.2135C42.0687 30.2135 41.997 30.2416 41.9384 30.2978C41.8804 30.354 41.8513 30.4312 41.8513 30.529C41.8513 30.627 41.8804 30.7048 41.9384 30.7623C41.997 30.8201 42.0687 30.8487 42.1532 30.8487C42.2368 30.8487 42.3079 30.8204 42.3668 30.7634C42.4255 30.7067 42.4551 30.6292 42.4551 30.5311Z" fill="#230B41"/>
<path d="M43.9518 30.839V31.1728H43.737C43.5838 31.1728 43.4642 31.1379 43.3783 31.068C43.2924 30.9983 43.2494 30.8844 43.2494 30.7266V30.2157H43.0822V29.8894H43.2494V29.5762H43.6732V29.8894H43.9495V30.2157H43.6732V30.731C43.6732 30.7693 43.6828 30.7969 43.7022 30.8141C43.7222 30.8309 43.755 30.839 43.8009 30.839H43.9518Z" fill="#230B41"/>
<path d="M45.0341 29.8754C45.1926 29.8754 45.3197 29.9246 45.4149 30.0224C45.5107 30.1196 45.5589 30.2533 45.5589 30.4231V31.1728H45.1386V30.4761C45.1386 30.3905 45.1145 30.3238 45.0666 30.2762C45.0184 30.2287 44.9543 30.2049 44.8738 30.2049C44.7932 30.2049 44.729 30.2287 44.6811 30.2762C44.6329 30.3238 44.6091 30.3905 44.6091 30.4761V31.1728H44.1865V29.4714H44.6091V30.0623C44.6515 30.0056 44.7101 29.9602 44.7845 29.9262C44.8588 29.8925 44.9418 29.8754 45.0341 29.8754Z" fill="#230B41"/>
<path d="M46.0495 31.1912C45.9758 31.1912 45.9154 31.1712 45.8684 31.1307C45.8211 31.0897 45.7975 31.0394 45.7975 30.9795C45.7975 30.9184 45.8211 30.8671 45.8684 30.8261C45.9154 30.7845 45.9758 30.7634 46.0495 30.7634C46.1221 30.7634 46.1818 30.7845 46.2283 30.8261C46.2753 30.8671 46.2991 30.9184 46.2991 30.9795C46.2991 31.0394 46.2753 31.0897 46.2283 31.1307C46.1818 31.1712 46.1221 31.1912 46.0495 31.1912Z" fill="#230B41"/>
<path d="M48.2026 29.5579V29.8733H47.4955V30.2136H48.0249V30.5193H47.4955V31.1728H47.0729V29.5579H48.2026Z" fill="#230B41"/>
<path d="M49.7249 30.5106C49.7249 30.5473 49.722 30.5857 49.7168 30.6251H48.7613C48.7674 30.705 48.795 30.7663 48.8437 30.8087C48.8925 30.8506 48.952 30.8714 49.0225 30.8714C49.1276 30.8714 49.2013 30.8301 49.2431 30.7472H49.6924C49.6692 30.8314 49.6274 30.9076 49.567 30.9751C49.5073 31.0429 49.4324 31.0958 49.3418 31.1339C49.2512 31.1723 49.1497 31.1912 49.0376 31.1912C48.9021 31.1912 48.7816 31.1647 48.6765 31.1112C48.5712 31.0572 48.4887 30.9805 48.4292 30.8811C48.3703 30.7812 48.341 30.6645 48.341 30.5311C48.341 30.398 48.37 30.2816 48.4281 30.1822C48.4867 30.0823 48.5689 30.0056 48.6742 29.9521C48.7793 29.8981 48.9006 29.8711 49.0376 29.8711C49.1706 29.8711 49.289 29.8976 49.3929 29.95C49.4974 30.0018 49.5787 30.0761 49.6367 30.1725C49.6953 30.2692 49.7249 30.3818 49.7249 30.5106ZM49.2919 30.4069C49.2919 30.3394 49.2669 30.2856 49.2176 30.2459C49.1688 30.2065 49.1073 30.1865 49.033 30.1865C48.9616 30.1865 48.9018 30.2057 48.853 30.2438C48.8048 30.2821 48.7752 30.3364 48.7636 30.4069H49.2919Z" fill="#230B41"/>
<path d="M51.2472 30.5106C51.2472 30.5473 51.2443 30.5857 51.2391 30.6251H50.2836C50.2897 30.705 50.3172 30.7663 50.366 30.8087C50.4148 30.8506 50.4743 30.8714 50.5448 30.8714C50.6499 30.8714 50.7236 30.8301 50.7654 30.7472H51.2147C51.1915 30.8314 51.1497 30.9076 51.0893 30.9751C51.0295 31.0429 50.9546 31.0958 50.8641 31.1339C50.7735 31.1723 50.6719 31.1912 50.5599 31.1912C50.4243 31.1912 50.3039 31.1647 50.1988 31.1112C50.0935 31.0572 50.011 30.9805 49.9515 30.8811C49.8926 30.7812 49.8633 30.6645 49.8633 30.5311C49.8633 30.398 49.8923 30.2816 49.9504 30.1822C50.009 30.0823 50.0911 30.0056 50.1965 29.9521C50.3016 29.8981 50.4229 29.8711 50.5599 29.8711C50.6928 29.8711 50.8113 29.8976 50.9152 29.95C51.0197 30.0018 51.1009 30.0761 51.159 30.1725C51.2176 30.2692 51.2472 30.3818 51.2472 30.5106ZM50.8142 30.4069C50.8142 30.3394 50.7892 30.2856 50.7399 30.2459C50.6911 30.2065 50.6296 30.1865 50.5553 30.1865C50.4838 30.1865 50.4241 30.2057 50.3753 30.2438C50.3271 30.2821 50.2975 30.3364 50.2859 30.4069H50.8142Z" fill="#230B41"/>
<path d="M51.8917 29.4714V31.1728H51.4691V29.4714H51.8917Z" fill="#230B41"/>
<path d="M52.7589 31.1912C52.6387 31.1912 52.5316 31.1723 52.4373 31.1339C52.3435 31.0958 52.2695 31.0432 52.2155 30.9762C52.1612 30.9092 52.1307 30.8344 52.1238 30.7515H52.5417C52.5464 30.7963 52.5685 30.8325 52.6079 30.8606C52.648 30.8881 52.6967 30.9016 52.7542 30.9016C52.8068 30.9016 52.8474 30.8925 52.8761 30.8736C52.9054 30.8541 52.9202 30.829 52.9202 30.7979C52.9202 30.7612 52.8993 30.7342 52.8575 30.7169C52.8163 30.6991 52.7499 30.6791 52.6579 30.6575C52.5586 30.6359 52.4762 30.6132 52.4106 30.5895C52.3447 30.5657 52.2878 30.5284 52.2399 30.4771C52.1917 30.4261 52.1679 30.3567 52.1679 30.2686C52.1679 30.1952 52.1894 30.1282 52.2329 30.0677C52.277 30.0072 52.3415 29.9594 52.4268 29.924C52.5119 29.8889 52.6129 29.8711 52.7298 29.8711C52.9022 29.8711 53.0387 29.9111 53.1385 29.991C53.2384 30.0704 53.2955 30.1757 53.3103 30.3075H52.9202C52.9133 30.2638 52.8918 30.2287 52.8564 30.2027C52.8216 30.1763 52.7751 30.1628 52.7171 30.1628C52.6674 30.1628 52.6294 30.1719 52.6033 30.1898C52.5769 30.2071 52.5638 30.2314 52.5638 30.2621C52.5638 30.2989 52.5847 30.3267 52.6265 30.3453C52.6689 30.3634 52.7348 30.3818 52.8239 30.4004C52.926 30.425 53.0091 30.449 53.0735 30.4728C53.1376 30.4966 53.1937 30.5352 53.2418 30.5884C53.2906 30.641 53.3156 30.7115 53.3173 30.8001C53.3173 30.8752 53.2944 30.9422 53.2488 31.001C53.2038 31.0602 53.1388 31.1066 53.0538 31.1404C52.9693 31.1741 52.8709 31.1912 52.7589 31.1912Z" fill="#230B41"/>
<path d="M54.5235 29.4714V31.1728H54.1009V29.4714H54.5235Z" fill="#230B41"/>
<path d="M55.0423 29.7567C54.968 29.7567 54.9071 29.7367 54.8601 29.6962C54.8136 29.6551 54.7904 29.6049 54.7904 29.5449C54.7904 29.4839 54.8136 29.4331 54.8601 29.3926C54.9071 29.3516 54.968 29.3311 55.0423 29.3311C55.1149 29.3311 55.1747 29.3516 55.2211 29.3926C55.2682 29.4331 55.292 29.4839 55.292 29.5449C55.292 29.6049 55.2682 29.6551 55.2211 29.6962C55.1747 29.7367 55.1149 29.7567 55.0423 29.7567ZM55.2525 29.8895V31.1729H54.8299V29.8895H55.2525Z" fill="#230B41"/>
<path d="M56.4017 31.1728L55.9815 30.6349V31.1728H55.5588V29.4714H55.9815V30.4113L56.3994 29.8895H56.9207L56.3472 30.5333L56.9254 31.1728H56.4017Z" fill="#230B41"/>
<path d="M58.3864 30.5106C58.3864 30.5473 58.3835 30.5857 58.3783 30.6251H57.4227C57.4288 30.705 57.4564 30.7663 57.5052 30.8087C57.5539 30.8506 57.6134 30.8714 57.684 30.8714C57.789 30.8714 57.8628 30.8301 57.9046 30.7472H58.3539C58.3307 30.8314 58.2889 30.9076 58.2285 30.9751C58.1687 31.0429 58.0938 31.0958 58.0032 31.1339C57.9127 31.1723 57.8111 31.1912 57.6991 31.1912C57.5635 31.1912 57.4431 31.1647 57.338 31.1112C57.2326 31.0572 57.1502 30.9805 57.0907 30.8811C57.0318 30.7812 57.0024 30.6645 57.0024 30.5311C57.0024 30.398 57.0315 30.2816 57.0895 30.1822C57.1481 30.0823 57.2303 30.0056 57.3357 29.9521C57.4407 29.8981 57.5621 29.8711 57.6991 29.8711C57.832 29.8711 57.9504 29.8976 58.0543 29.95C58.1588 30.0018 58.2401 30.0761 58.2981 30.1725C58.3568 30.2692 58.3864 30.3818 58.3864 30.5106ZM57.9533 30.4069C57.9533 30.3394 57.9284 30.2856 57.879 30.2459C57.8303 30.2065 57.7687 30.1865 57.6944 30.1865C57.623 30.1865 57.5632 30.2057 57.5145 30.2438C57.4663 30.2821 57.4367 30.3364 57.4251 30.4069H57.9533Z" fill="#230B41"/>
<path d="M59.5548 29.5579V31.1728H59.1322V29.5579H59.5548Z" fill="#230B41"/>
<path d="M59.9575 29.5579H60.3906L60.1131 30.1747H59.8287L59.9575 29.5579Z" fill="#230B41"/>
<path d="M62.3973 29.8755C62.5682 29.8755 62.7043 29.9238 62.8059 30.0202C62.9072 30.1169 62.958 30.2511 62.958 30.4232V31.1729H62.5377V30.4761C62.5377 30.3935 62.5139 30.3292 62.4669 30.2838C62.4205 30.2385 62.3558 30.2158 62.273 30.2158C62.1909 30.2158 62.1262 30.2385 62.0791 30.2838C62.0327 30.3292 62.0095 30.3935 62.0095 30.4761V31.1729H61.5892V30.4761C61.5892 30.3935 61.5654 30.3292 61.5184 30.2838C61.4711 30.2385 61.4063 30.2158 61.3245 30.2158C61.2415 30.2158 61.1764 30.2385 61.1294 30.2838C61.083 30.3292 61.0598 30.3935 61.0598 30.4761V31.1729H60.6371V29.8895H61.0598V30.0505C61.1021 29.9973 61.1579 29.9549 61.2269 29.923C61.2966 29.8914 61.375 29.8755 61.4626 29.8755C61.5663 29.8755 61.6588 29.8966 61.7401 29.9381C61.822 29.9792 61.8864 30.0383 61.9328 30.1153C61.9799 30.0448 62.0446 29.9873 62.1267 29.9425C62.2095 29.8979 62.2997 29.8755 62.3973 29.8755Z" fill="#230B41"/>
<path d="M64.3388 31.1912C64.2186 31.1912 64.1115 31.1723 64.0172 31.1339C63.9234 31.0958 63.8494 31.0432 63.7954 30.9762C63.7411 30.9092 63.7106 30.8344 63.7037 30.7515H64.1216C64.1263 30.7963 64.1483 30.8325 64.1878 30.8606C64.2279 30.8881 64.2766 30.9016 64.3341 30.9016C64.3866 30.9016 64.4273 30.8925 64.456 30.8736C64.4853 30.8541 64.5001 30.829 64.5001 30.7979C64.5001 30.7612 64.4792 30.7342 64.4374 30.7169C64.3962 30.6991 64.3298 30.6791 64.2377 30.6575C64.1385 30.6359 64.056 30.6132 63.9904 30.5895C63.9246 30.5657 63.8677 30.5284 63.8198 30.4771C63.7716 30.4261 63.7478 30.3567 63.7478 30.2686C63.7478 30.1952 63.7693 30.1282 63.8128 30.0677C63.8569 30.0072 63.9214 29.9594 64.0067 29.924C64.0917 29.8889 64.1928 29.8711 64.3097 29.8711C64.4821 29.8711 64.6186 29.9111 64.7184 29.991C64.8183 30.0704 64.8754 30.1757 64.8902 30.3075H64.5001C64.4932 30.2638 64.4717 30.2287 64.4363 30.2027C64.4014 30.1763 64.355 30.1628 64.297 30.1628C64.2473 30.1628 64.2093 30.1719 64.1832 30.1898C64.1568 30.2071 64.1437 30.2314 64.1437 30.2621C64.1437 30.2989 64.1646 30.3267 64.2064 30.3453C64.2488 30.3634 64.3147 30.3818 64.4038 30.4004C64.5059 30.425 64.589 30.449 64.6534 30.4728C64.7175 30.4966 64.7736 30.5352 64.8217 30.5884C64.8705 30.641 64.8955 30.7115 64.8972 30.8001C64.8972 30.8752 64.8743 30.9422 64.8287 31.001C64.7837 31.0602 64.7187 31.1066 64.6337 31.1404C64.5492 31.1741 64.4508 31.1912 64.3388 31.1912Z" fill="#230B41"/>
<path d="M65.9255 30.839V31.1728H65.7107C65.5575 31.1728 65.4379 31.1379 65.352 31.068C65.2661 30.9983 65.2231 30.8844 65.2231 30.7266V30.2157H65.0559V29.8894H65.2231V29.5762H65.6469V29.8894H65.9232V30.2157H65.6469V30.731C65.6469 30.7693 65.6564 30.7969 65.6759 30.8141C65.6959 30.8309 65.7287 30.839 65.7746 30.839H65.9255Z" fill="#230B41"/>
<path d="M67.5221 29.8894V31.1727H67.0994V30.9977C67.0568 31.0547 66.9987 31.1004 66.9253 31.1349C66.8516 31.1695 66.7703 31.1868 66.6815 31.1868C66.5761 31.1868 66.4829 31.1649 66.4017 31.1209C66.321 31.0771 66.2583 31.0137 66.2136 30.9308C66.1695 30.8481 66.1474 30.7509 66.1474 30.6391V29.8894H66.5677V30.5862C66.5677 30.672 66.5915 30.7385 66.6397 30.786C66.6876 30.8335 66.7517 30.8573 66.8324 30.8573C66.9151 30.8573 66.9801 30.8335 67.0275 30.786C67.0753 30.7385 67.0994 30.672 67.0994 30.5862V29.8894H67.5221Z" fill="#230B41"/>
<path d="M67.7422 30.5311C67.7422 30.398 67.7712 30.2816 67.8293 30.1822C67.8879 30.0823 67.9697 30.0056 68.0742 29.9521C68.1787 29.8981 68.2986 29.8711 68.4342 29.8711C68.6066 29.8711 68.7511 29.9132 68.8672 29.9975C68.9833 30.0817 69.0594 30.2006 69.0959 30.354H68.6466C68.6086 30.2562 68.5352 30.2071 68.426 30.2071C68.3485 30.2071 68.2867 30.2351 68.2403 30.2913C68.1944 30.3469 68.1718 30.4269 68.1718 30.5311C68.1718 30.6356 68.1944 30.7158 68.2403 30.772C68.2867 30.8277 68.3485 30.8552 68.426 30.8552C68.5352 30.8552 68.6086 30.8063 68.6466 30.7083H69.0959C69.0594 30.859 68.9827 30.977 68.8661 31.0626C68.7491 31.1485 68.6051 31.1912 68.4342 31.1912C68.2986 31.1912 68.1787 31.1647 68.0742 31.1112C67.9697 31.0572 67.8879 30.9805 67.8293 30.8811C67.7712 30.7812 67.7422 30.6645 67.7422 30.5311Z" fill="#230B41"/>
<path d="M70.1637 31.1728L69.7434 30.6349V31.1728H69.3208V29.4714H69.7434V30.4113L70.1614 29.8895H70.6827L70.1091 30.5333L70.6873 31.1728H70.1637Z" fill="#230B41"/>
<path d="M71.0454 31.1912C70.9717 31.1912 70.9113 31.1712 70.8643 31.1307C70.817 31.0897 70.7935 31.0394 70.7935 30.9795C70.7935 30.9184 70.817 30.8671 70.8643 30.8261C70.9113 30.7845 70.9717 30.7634 71.0454 30.7634C71.118 30.7634 71.1778 30.7845 71.2242 30.8261C71.2712 30.8671 71.295 30.9184 71.295 30.9795C71.295 31.0394 71.2712 31.0897 71.2242 31.1307C71.1778 31.1712 71.118 31.1912 71.0454 31.1912Z" fill="#230B41"/>
</svg>
