<svg width="123" height="55" viewBox="0 0 123 55" fill="none" xmlns="http://www.w3.org/2000/svg">
<path d="M39.3935 21.1799C39.7391 20.4674 40.2136 19.8155 40.8569 19.2693C42.5192 17.858 45.3156 16.9175 47.6155 16.4005C51.1756 15.6006 54.9513 15.2385 58.6422 15.1428C63.2414 15.0237 67.8649 15.2605 72.399 15.8886C76.9127 16.514 81.6917 17.4631 85.1494 20.0094C89.5407 23.2432 89.3325 28.5418 87.4684 32.7698C86.3546 35.2959 84.4411 37.5221 81.61 39.0092C80.2773 39.7092 78.8022 40.1927 77.2684 40.5307C76.4202 42.1136 76.2711 43.7947 78.2934 44.683C78.9771 44.9832 78.7001 45.9315 77.884 45.8845C73.8407 45.6548 70.3507 43.804 67.9163 41.2784C67.7535 41.1097 65.8506 41.185 65.5196 41.1622C64.6401 41.1017 63.7626 41.0221 62.8884 40.9288C59.1844 40.5315 55.4948 40.3177 51.8286 39.6875C48.1447 39.0533 44.2088 38.1361 41.986 35.5232C40.0311 33.2239 38.9033 30.2715 38.6497 27.5297C38.4716 25.5884 38.4369 23.1527 39.3935 21.1799Z" fill="white"/>
<mask id="mask0_136_653" style="mask-type:luminance" maskUnits="userSpaceOnUse" x="38" y="14" width="52" height="33">
<path d="M38.0985 14.7759H89.175V46.2407H38.0985V14.7759Z" fill="white"/>
</mask>
<g mask="url(#mask0_136_653)">
<path d="M39.3935 21.1797L38.9927 21.0569C39.3538 20.3121 39.8549 19.6201 40.5436 19.0355C41.4248 18.2883 42.5796 17.683 43.8044 17.1939C45.0296 16.7054 46.3272 16.3351 47.4987 16.0717C51.1029 15.2619 54.9116 14.8975 58.6282 14.8009C59.396 14.7811 60.1647 14.7712 60.9335 14.7712C64.7972 14.7712 68.6653 15.0243 72.4727 15.5521C74.7403 15.8661 77.0879 16.2629 79.3174 16.9075C81.5459 17.5523 83.6596 18.4461 85.442 19.7588C86.7854 20.7473 87.7169 21.9261 88.3082 23.199C88.8998 24.4718 89.153 25.8389 89.153 27.2181C89.153 29.1509 88.6562 31.1089 87.8741 32.8826C87.3052 34.1738 86.5298 35.3917 85.5305 36.48C84.5312 37.5686 83.3076 38.5263 81.8472 39.2937C80.4682 40.018 78.9497 40.514 77.3832 40.8596L77.2684 40.5305L77.6635 40.6644C77.3211 41.3018 77.1076 41.9458 77.1086 42.5131C77.1092 42.9052 77.207 43.2574 77.4226 43.5669C77.6394 43.8765 77.9758 44.1521 78.5016 44.3839C78.7088 44.4741 78.8676 44.6099 78.9667 44.7597C79.0662 44.9096 79.1099 45.0724 79.1099 45.2308C79.1092 45.4695 79.0134 45.7048 78.8179 45.8968C78.7198 45.992 78.594 46.0761 78.4446 46.1352C78.2951 46.1949 78.1219 46.2278 77.9417 46.2273C77.9124 46.2273 77.8847 46.227 77.8583 46.2257L77.8536 46.2252C75.7579 46.1061 73.808 45.5666 72.075 44.7348C70.341 43.9027 68.8222 42.7792 67.5749 41.4859L67.8359 41.327L67.6534 41.545C67.6353 41.5347 67.6073 41.5188 67.5749 41.4859L67.8359 41.327L67.6534 41.545L67.7668 41.4092L67.6851 41.5588C67.6814 41.5575 67.6714 41.5538 67.6534 41.545L67.7668 41.4092L67.6851 41.5588L67.7061 41.5209L67.6881 41.5596L67.6851 41.5588L67.7061 41.5209L67.6881 41.5596C67.6851 41.5583 67.628 41.5463 67.5509 41.5387C67.4335 41.5259 67.2656 41.5169 67.0811 41.5121C66.8963 41.5071 66.6931 41.5055 66.4962 41.5055C66.2333 41.5055 65.9817 41.5081 65.7885 41.5081C65.7265 41.5081 65.6701 41.5076 65.62 41.5071C65.5697 41.5063 65.5273 41.505 65.4849 41.5023H65.4826C64.595 41.4413 63.7112 41.3612 62.8307 41.267C59.1441 40.8713 55.4428 40.6578 51.7378 40.0207C49.8847 39.7016 47.9501 39.3096 46.1787 38.6568C45.2932 38.3303 44.4484 37.938 43.678 37.455C42.9076 36.972 42.2125 36.3988 41.6303 35.7143C39.624 33.352 38.4816 30.3519 38.222 27.5544C38.1643 26.9282 38.1212 26.2489 38.1212 25.5476C38.1222 24.0546 38.3131 22.4611 38.9924 21.0569L39.7945 21.3025C39.1726 22.5825 38.9794 24.1018 38.9804 25.5476C38.9804 26.2267 39.0218 26.89 39.0792 27.5046C39.3251 30.1909 40.4378 33.095 42.3423 35.3313C42.8712 35.9535 43.5018 36.4747 44.2098 36.9187C45.2712 37.5839 46.5101 38.076 47.8294 38.459C49.148 38.8428 50.5467 39.117 51.9197 39.3533C55.5462 39.9777 59.2241 40.1915 62.9454 40.5902C63.8143 40.683 64.6848 40.7618 65.5563 40.8217L65.5543 40.8214C65.5647 40.8222 65.596 40.823 65.6371 40.8241C65.6778 40.8244 65.7298 40.8249 65.7885 40.8249C65.9721 40.8249 66.2266 40.8222 66.4962 40.8222C66.8142 40.8222 67.1515 40.826 67.4378 40.8432C67.5816 40.8519 67.7121 40.8636 67.8335 40.8846C67.8949 40.8952 67.9543 40.9082 68.0211 40.9299C68.0537 40.9413 68.0898 40.9551 68.1295 40.9758C68.1685 40.997 68.2132 41.0251 68.2576 41.07C69.4448 42.3028 70.8882 43.3675 72.5184 44.1494C74.15 44.9321 75.9668 45.4332 77.9147 45.5438L77.884 45.8843L77.9104 45.5438C77.923 45.5443 77.9337 45.5446 77.9417 45.5446C77.9941 45.5443 78.0295 45.5363 78.0618 45.5239C78.1096 45.505 78.1553 45.4703 78.1923 45.4175C78.2287 45.365 78.251 45.296 78.251 45.2308C78.251 45.173 78.2343 45.1194 78.2067 45.0791C78.179 45.0382 78.1446 45.0082 78.0859 44.9817C77.4399 44.6987 76.9688 44.3266 76.6712 43.8982C76.3722 43.4704 76.2487 42.9953 76.2491 42.5131C76.2504 41.8124 76.502 41.0904 76.873 40.3965C76.9244 40.3016 77.0278 40.2289 77.1533 40.2013C78.6544 39.8706 80.0865 39.4 81.3734 38.7239C82.7431 38.0043 83.8922 37.1054 84.8361 36.0776C85.78 35.0498 86.5184 33.8915 87.0633 32.6566C87.8177 30.9461 88.2942 29.0573 88.2942 27.2181C88.2942 25.9052 88.0519 24.6185 87.5021 23.4355C86.9515 22.252 86.096 21.1723 84.8578 20.2598C83.1822 19.0257 81.1772 18.1727 79.0238 17.5496C76.8704 16.9266 74.5708 16.5361 72.3249 16.225C68.5693 15.7044 64.7495 15.4545 60.9335 15.4545C60.1741 15.4545 59.415 15.464 58.6562 15.4837C54.991 15.5789 51.2484 15.9388 47.7326 16.729C46.6045 16.9825 45.3529 17.3406 44.1898 17.8048C43.026 18.2684 41.9513 18.8384 41.1709 19.5026C40.5716 20.0108 40.1242 20.6224 39.7945 21.3025L39.3935 21.1797Z" fill="#FFD4E1"/>
</g>
<path d="M51.2453 17.3932C50.6591 17.3577 50.1632 17.4293 49.623 17.6439Z" fill="white"/>
<path d="M51.212 17.734C51.1269 17.7286 51.0451 17.726 50.9667 17.726C50.5583 17.7273 50.2193 17.7904 49.8149 17.9496C49.6027 18.0342 49.3448 17.9658 49.2387 17.7971C49.1323 17.6287 49.218 17.4236 49.4306 17.339C49.9324 17.1377 50.4359 17.0414 50.9667 17.0427C51.0698 17.0427 51.1733 17.0465 51.2784 17.0526C51.5149 17.0674 51.6918 17.2313 51.6734 17.4199C51.6554 17.6077 51.4485 17.7488 51.212 17.734Z" fill="#FFD4E1"/>
<path d="M48.9018 18.0027C45.4761 18.4684 42.5019 20.5821 41.4198 23.1979Z" fill="white"/>
<path d="M48.9738 18.3391C47.3482 18.5598 45.8173 19.1749 44.5658 20.0502C43.3136 20.9254 42.3429 22.0585 41.8281 23.3038C41.7537 23.4831 41.5111 23.581 41.2856 23.5219C41.06 23.4632 40.9376 23.2702 41.0113 23.0909C41.5785 21.7206 42.6362 20.4897 43.9979 19.5374C45.3602 18.5855 47.0299 17.9105 48.8289 17.6659C49.0628 17.6338 49.2851 17.7587 49.3251 17.9447C49.3651 18.1306 49.2076 18.3073 48.9738 18.3391Z" fill="#FFD4E1"/>
<path d="M41.4438 24.0213C41.4438 24.1651 41.4438 24.2722 41.4438 24.3799C41.4438 24.5685 41.2516 24.7213 41.0143 24.7213C40.7771 24.7213 40.5846 24.5685 40.5846 24.3799C40.5846 24.2722 40.5846 24.1651 40.5846 24.0213C40.5846 23.8327 40.7771 23.6797 41.0143 23.6797C41.2516 23.6797 41.4438 23.8327 41.4438 24.0213Z" fill="#FFD4E1"/>
<path d="M63.234 39.4995C62.7382 39.4995 62.2874 39.4279 61.7916 39.3921Z" fill="white"/>
<path d="M63.234 39.8408C62.9598 39.8408 62.7052 39.8214 62.4619 39.7981C62.2184 39.775 61.9865 39.7487 61.7529 39.7323C61.5164 39.715 61.3425 39.549 61.3635 39.361C61.3856 39.1732 61.5941 39.035 61.8303 39.0519C62.0926 39.071 62.3338 39.0981 62.5637 39.1198C62.7936 39.1416 63.0118 39.1578 63.234 39.1578C63.4713 39.1578 63.6638 39.3108 63.6638 39.4994C63.6638 39.688 63.4713 39.8408 63.234 39.8408Z" fill="#FFD4E1"/>
<path d="M59.8988 39.2486C58.9068 39.0698 57.8708 39.1054 56.8789 38.9977C54.941 38.8545 53.0027 38.5322 51.1553 37.9587" fill="white"/>
<path d="M59.8037 39.5816C59.3456 39.4989 58.8611 39.4636 58.3603 39.4371C57.8594 39.4103 57.3426 39.3925 56.8208 39.336L56.8788 38.9976L56.8391 39.3379C54.8685 39.192 52.8909 38.8636 50.9987 38.2772C50.7775 38.2082 50.6684 38.0103 50.7548 37.8345C50.8409 37.6589 51.0905 37.5722 51.3114 37.6406C53.1151 38.2002 55.0137 38.5169 56.9185 38.6578L56.9369 38.6591C57.4063 38.7103 57.9038 38.7286 58.4173 38.7557C58.9305 38.7827 59.4603 38.8193 59.9939 38.9153C60.2251 38.9572 60.3706 39.1403 60.3178 39.3241C60.2654 39.5081 60.0349 39.6233 59.8033 39.5816" fill="#FFD4E1"/>
<path d="M46.7095 23.2877C46.5633 23.2877 46.4325 23.2691 46.3171 23.2314C46.2013 23.1932 46.1089 23.1375 46.0395 23.0638C45.9708 22.9903 45.9344 22.9015 45.9301 22.7975H46.4479C46.4549 22.8564 46.4803 22.9012 46.524 22.9322C46.5673 22.9627 46.6244 22.9779 46.6948 22.9779C46.7669 22.9779 46.8236 22.9649 46.8656 22.9386C46.9073 22.9126 46.9284 22.876 46.9284 22.8293C46.9284 22.7898 46.9113 22.7572 46.8776 22.7317C46.8446 22.7063 46.8042 22.6856 46.7562 22.6691C46.7081 22.6521 46.6394 22.633 46.5507 22.6118C46.4215 22.5808 46.3161 22.5492 46.2344 22.5174C46.1533 22.4856 46.0835 22.4389 46.0248 22.3774C45.9661 22.3158 45.9367 22.2352 45.9367 22.1355C45.9367 21.9877 46.0038 21.8721 46.1383 21.7885C46.2724 21.7052 46.4479 21.6633 46.6641 21.6633C46.8837 21.6633 47.0608 21.7052 47.1953 21.7885C47.3294 21.8721 47.4015 21.9885 47.4115 22.1376H46.8857C46.882 22.0867 46.8583 22.0469 46.8149 22.0177C46.7712 21.988 46.7152 21.9731 46.6468 21.9731C46.588 21.9731 46.5403 21.9856 46.5039 22.0103C46.4682 22.0352 46.4506 22.0707 46.4506 22.1174C46.4506 22.1683 46.4806 22.2084 46.5413 22.2373C46.6017 22.2657 46.6965 22.2965 46.8256 22.3296C46.9544 22.3644 47.0592 22.3975 47.1392 22.4293C47.22 22.4612 47.29 22.5073 47.3488 22.5673C47.4075 22.6275 47.4369 22.7049 47.4369 22.7996C47.4369 22.8903 47.4078 22.9723 47.3501 23.0458C47.292 23.1195 47.208 23.1781 47.0979 23.2219C46.9884 23.2659 46.859 23.2877 46.7095 23.2877Z" fill="#FFD4E1"/>
<path d="M47.6383 22.6393C47.6383 22.5099 47.669 22.3963 47.7304 22.2987C47.7918 22.2006 47.8752 22.1253 47.9813 22.0727C48.0871 22.0197 48.2055 21.9932 48.3363 21.9932C48.4484 21.9932 48.5462 22.0112 48.6299 22.0473C48.7144 22.0833 48.7798 22.1308 48.8261 22.1894V22.0112H49.3119V23.2716H48.8261V23.0934C48.7781 23.1523 48.7117 23.1995 48.6273 23.2355C48.5435 23.2716 48.4458 23.2897 48.3337 23.2897C48.2045 23.2897 48.0871 23.2631 47.9813 23.2101C47.8752 23.1565 47.7918 23.0804 47.7304 22.982C47.669 22.883 47.6383 22.7687 47.6383 22.6393ZM48.8261 22.6414C48.8261 22.5454 48.7921 22.4693 48.7247 22.4133C48.657 22.3576 48.5752 22.3295 48.4791 22.3295C48.382 22.3295 48.2996 22.3571 48.2322 22.4122C48.1655 22.4674 48.1321 22.5433 48.1321 22.6393C48.1321 22.7356 48.1655 22.812 48.2322 22.8685C48.2996 22.9252 48.382 22.9533 48.4791 22.9533C48.5752 22.9533 48.657 22.9255 48.7247 22.8695C48.7921 22.8138 48.8261 22.7377 48.8261 22.6414Z" fill="#FFD4E1"/>
<path d="M51.6866 21.9973C51.8832 21.9973 52.0396 22.0448 52.1564 22.1395C52.2729 22.2344 52.3313 22.3663 52.3313 22.5352V23.2715H51.8481V22.5872C51.8481 22.506 51.8208 22.4429 51.7667 22.3984C51.7133 22.3538 51.6389 22.3315 51.5438 22.3315C51.4494 22.3315 51.375 22.3538 51.3209 22.3984C51.2676 22.4429 51.2409 22.506 51.2409 22.5872V23.2715H50.7577V22.5872C50.7577 22.506 50.7304 22.4429 50.6763 22.3984C50.6219 22.3538 50.5475 22.3315 50.4534 22.3315C50.358 22.3315 50.2833 22.3538 50.2292 22.3984C50.1758 22.4429 50.1491 22.506 50.1491 22.5872V23.2715H49.6633V22.0111H50.1491V22.1692C50.1979 22.1169 50.2619 22.0753 50.3413 22.044C50.4214 22.013 50.5115 21.9973 50.6123 21.9973C50.7314 21.9973 50.8378 22.018 50.9312 22.0588C51.0253 22.0992 51.0994 22.1573 51.1528 22.2328C51.2068 22.1636 51.2812 22.1071 51.3757 22.0631C51.4708 22.0193 51.5745 21.9973 51.6866 21.9973Z" fill="#FFD4E1"/>
<path d="M54.1663 22.6213C54.1663 22.6573 54.163 22.695 54.157 22.7337H53.0586C53.0656 22.8122 53.0973 22.8724 53.1533 22.9141C53.2094 22.9552 53.2778 22.9756 53.3589 22.9756C53.4797 22.9756 53.5644 22.935 53.6125 22.8536H54.129C54.1023 22.9364 54.0542 23.0112 53.9848 23.0775C53.9161 23.144 53.83 23.196 53.7259 23.2334C53.6218 23.2711 53.505 23.2897 53.3762 23.2897C53.2204 23.2897 53.0819 23.2637 52.9611 23.2111C52.84 23.1581 52.7453 23.0828 52.6769 22.9852C52.6091 22.887 52.5754 22.7724 52.5754 22.6414C52.5754 22.5106 52.6088 22.3963 52.6755 22.2987C52.7429 22.2006 52.8374 22.1253 52.9585 22.0727C53.0793 22.0197 53.2187 21.9932 53.3762 21.9932C53.529 21.9932 53.6652 22.0192 53.7846 22.0706C53.9047 22.1215 53.9982 22.1945 54.0649 22.2892C54.1323 22.3841 54.1663 22.4947 54.1663 22.6213ZM53.6685 22.5194C53.6685 22.4531 53.6398 22.4003 53.5831 22.3613C53.527 22.3226 53.4563 22.303 53.3709 22.303C53.2888 22.303 53.2201 22.3218 53.164 22.3592C53.1086 22.3969 53.0746 22.4502 53.0612 22.5194H53.6685Z" fill="#FFD4E1"/>
<path d="M54.6483 23.2898C54.5635 23.2898 54.4941 23.2701 54.4401 23.2304C54.3857 23.19 54.3586 23.1407 54.3586 23.0818C54.3586 23.0219 54.3857 22.9715 54.4401 22.9312C54.4941 22.8903 54.5635 22.8696 54.6483 22.8696C54.7317 22.8696 54.8004 22.8903 54.8538 22.9312C54.9078 22.9715 54.9352 23.0219 54.9352 23.0818C54.9352 23.1407 54.9078 23.19 54.8538 23.2304C54.8004 23.2701 54.7317 23.2898 54.6483 23.2898Z" fill="#FFD4E1"/>
<path d="M56.3105 21.6855V23.2717H55.8247V21.6855H56.3105Z" fill="#FFD4E1"/>
<path d="M57.5463 22.9439V23.2717H57.2994C57.1232 23.2717 56.9857 23.2375 56.887 23.1688C56.7882 23.1004 56.7388 22.9884 56.7388 22.8335V22.3317H56.5466V22.0113H56.7388V21.7036H57.226V22.0113H57.5436V22.3317H57.226V22.8378C57.226 22.8754 57.237 22.9025 57.2593 22.9195C57.2823 22.9359 57.3201 22.9439 57.3728 22.9439H57.5463Z" fill="#FFD4E1"/>
<path d="M59.2137 22.3317H58.9521V23.2717H58.4663V22.3317H58.2902V22.0113H58.4663V21.9752C58.4663 21.8203 58.5217 21.7026 58.6332 21.6219C58.7453 21.5413 58.9094 21.501 59.1256 21.501C59.162 21.501 59.1887 21.5018 59.2057 21.5031V21.8309C59.1123 21.8262 59.0462 21.8368 59.0082 21.8628C58.9708 21.8882 58.9521 21.9338 58.9521 21.9996V22.0113H59.2137V22.3317Z" fill="#FFD4E1"/>
<path d="M60.9357 22.6213C60.9357 22.6573 60.9324 22.695 60.9264 22.7337H59.828C59.835 22.8122 59.8667 22.8724 59.9227 22.9141C59.9788 22.9552 60.0472 22.9756 60.1283 22.9756C60.2491 22.9756 60.3338 22.935 60.3819 22.8536H60.8984C60.8717 22.9364 60.8236 23.0112 60.7542 23.0775C60.6855 23.144 60.5994 23.196 60.4953 23.2334C60.3912 23.2711 60.2744 23.2897 60.1456 23.2897C59.9898 23.2897 59.8513 23.2637 59.7306 23.2111C59.6094 23.1581 59.5147 23.0828 59.4463 22.9852C59.3785 22.887 59.3448 22.7724 59.3448 22.6414C59.3448 22.5106 59.3782 22.3963 59.4449 22.2987C59.5123 22.2006 59.6068 22.1253 59.7279 22.0727C59.8487 22.0197 59.9881 21.9932 60.1456 21.9932C60.2984 21.9932 60.4346 22.0192 60.554 22.0706C60.6741 22.1215 60.7676 22.1945 60.8343 22.2892C60.9017 22.3841 60.9357 22.4947 60.9357 22.6213ZM60.4379 22.5194C60.4379 22.4531 60.4092 22.4003 60.3525 22.3613C60.2964 22.3226 60.2257 22.303 60.1403 22.303C60.0582 22.303 59.9895 22.3218 59.9334 22.3592C59.878 22.3969 59.844 22.4502 59.8307 22.5194H60.4379Z" fill="#FFD4E1"/>
<path d="M61.6766 21.6006V23.2716H61.1908V21.6006H61.6766Z" fill="#FFD4E1"/>
<path d="M62.9124 22.9439V23.2717H62.6655C62.4893 23.2717 62.3518 23.2375 62.2531 23.1688C62.1543 23.1004 62.1049 22.9884 62.1049 22.8335V22.3317H61.9127V22.0113H62.1049V21.7036H62.592V22.0113H62.9097V22.3317H62.592V22.8378C62.592 22.8754 62.6031 22.9025 62.6254 22.9195C62.6484 22.9359 62.6861 22.9439 62.7389 22.9439H62.9124Z" fill="#FFD4E1"/>
<path d="M64.2701 21.6006V23.2716H63.7843V21.6006H64.2701Z" fill="#FFD4E1"/>
<path d="M64.8666 21.8807C64.7812 21.8807 64.7112 21.861 64.6571 21.8212C64.6037 21.7809 64.577 21.7316 64.577 21.6727C64.577 21.6128 64.6037 21.5629 64.6571 21.5231C64.7112 21.4828 64.7812 21.4626 64.8666 21.4626C64.9501 21.4626 65.0188 21.4828 65.0722 21.5231C65.1262 21.5629 65.1536 21.6128 65.1536 21.6727C65.1536 21.7316 65.1262 21.7809 65.0722 21.8212C65.0188 21.861 64.9501 21.8807 64.8666 21.8807ZM65.1082 22.0112V23.2716H64.6224V22.0112H65.1082Z" fill="#FFD4E1"/>
<path d="M66.4293 23.2716L65.9461 22.7432V23.2716H65.4603V21.6006H65.9461V22.5236L66.4266 22.0112H67.0259L66.3665 22.6435L67.0312 23.2716H66.4293Z" fill="#FFD4E1"/>
<path d="M68.7106 22.6213C68.7106 22.6573 68.7073 22.695 68.7013 22.7337H67.6029C67.6099 22.8122 67.6416 22.8724 67.6976 22.9141C67.7537 22.9552 67.8221 22.9756 67.9032 22.9756C68.024 22.9756 68.1087 22.935 68.1568 22.8536H68.6733C68.6466 22.9364 68.5985 23.0112 68.5291 23.0775C68.4604 23.144 68.3743 23.196 68.2702 23.2334C68.1661 23.2711 68.0493 23.2897 67.9205 23.2897C67.7647 23.2897 67.6262 23.2637 67.5055 23.2111C67.3843 23.1581 67.2896 23.0828 67.2212 22.9852C67.1535 22.887 67.1198 22.7724 67.1198 22.6414C67.1198 22.5106 67.1531 22.3963 67.2198 22.2987C67.2872 22.2006 67.3817 22.1253 67.5028 22.0727C67.6236 22.0197 67.763 21.9932 67.9205 21.9932C68.0733 21.9932 68.2095 22.0192 68.3289 22.0706C68.449 22.1215 68.5425 22.1945 68.6092 22.2892C68.6766 22.3841 68.7106 22.4947 68.7106 22.6213ZM68.2128 22.5194C68.2128 22.4531 68.1841 22.4003 68.1274 22.3613C68.0713 22.3226 68.0006 22.303 67.9152 22.303C67.8331 22.303 67.7644 22.3218 67.7083 22.3592C67.6529 22.3969 67.6189 22.4502 67.6056 22.5194H68.2128Z" fill="#FFD4E1"/>
<path d="M70.4515 22.9439V23.2717H70.2046C70.0285 23.2717 69.891 23.2375 69.7922 23.1688C69.6935 23.1004 69.6441 22.9884 69.6441 22.8335V22.3317H69.4519V22.0113H69.6441V21.7036H70.1312V22.0113H70.4489V22.3317H70.1312V22.8378C70.1312 22.8754 70.1422 22.9025 70.1646 22.9195C70.1876 22.9359 70.2253 22.9439 70.278 22.9439H70.4515Z" fill="#FFD4E1"/>
<path d="M71.6956 21.9974C71.8778 21.9974 72.0239 22.0457 72.1334 22.1417C72.2435 22.2372 72.2989 22.3685 72.2989 22.5353V23.2716H71.8157V22.5873C71.8157 22.5032 71.788 22.4377 71.733 22.391C71.6776 22.3443 71.6038 22.321 71.5114 22.321C71.4187 22.321 71.3449 22.3443 71.2899 22.391C71.2345 22.4377 71.2071 22.5032 71.2071 22.5873V23.2716H70.7213V21.6006H71.2071V22.1809C71.2558 22.1252 71.3232 22.0807 71.4087 22.0472C71.4941 22.0141 71.5895 21.9974 71.6956 21.9974Z" fill="#FFD4E1"/>
<path d="M74.1307 22.6213C74.1307 22.6573 74.1273 22.695 74.1213 22.7337H73.0229C73.0299 22.8122 73.0616 22.8724 73.1177 22.9141C73.1737 22.9552 73.2421 22.9756 73.3232 22.9756C73.444 22.9756 73.5288 22.935 73.5768 22.8536H74.0933C74.0666 22.9364 74.0186 23.0112 73.9492 23.0775C73.8804 23.144 73.7944 23.196 73.6903 23.2334C73.5861 23.2711 73.4694 23.2897 73.3406 23.2897C73.1848 23.2897 73.0463 23.2637 72.9255 23.2111C72.8044 23.1581 72.7096 23.0828 72.6412 22.9852C72.5735 22.887 72.5398 22.7724 72.5398 22.6414C72.5398 22.5106 72.5732 22.3963 72.6399 22.2987C72.7073 22.2006 72.8017 22.1253 72.9228 22.0727C73.0436 22.0197 73.1831 21.9932 73.3406 21.9932C73.4934 21.9932 73.6295 22.0192 73.749 22.0706C73.8691 22.1215 73.9625 22.1945 74.0292 22.2892C74.0966 22.3841 74.1307 22.4947 74.1307 22.6213ZM73.6329 22.5194C73.6329 22.4531 73.6042 22.4003 73.5474 22.3613C73.4914 22.3226 73.4207 22.303 73.3352 22.303C73.2532 22.303 73.1844 22.3218 73.1284 22.3592C73.073 22.3969 73.0389 22.4502 73.0256 22.5194H73.6329Z" fill="#FFD4E1"/>
<path d="M75.4738 22.2212C75.5306 22.1519 75.602 22.0976 75.6874 22.0578C75.7728 22.0175 75.8676 21.9973 75.9717 21.9973V22.4068H75.8382C75.7161 22.4068 75.625 22.4278 75.5646 22.4694C75.5039 22.5106 75.4738 22.583 75.4738 22.6869V23.2715H74.988V22.0111H75.4738V22.2212Z" fill="#FFD4E1"/>
<path d="M76.4481 21.8807C76.3626 21.8807 76.2926 21.861 76.2385 21.8212C76.1851 21.7809 76.1584 21.7316 76.1584 21.6727C76.1584 21.6128 76.1851 21.5629 76.2385 21.5231C76.2926 21.4828 76.3626 21.4626 76.4481 21.4626C76.5315 21.4626 76.6002 21.4828 76.6536 21.5231C76.7076 21.5629 76.735 21.6128 76.735 21.6727C76.735 21.7316 76.7076 21.7809 76.6536 21.8212C76.6002 21.861 76.5315 21.8807 76.4481 21.8807ZM76.6896 22.0112V23.2716H76.2038V22.0112H76.6896Z" fill="#FFD4E1"/>
<path d="M77.6438 21.9932C77.7559 21.9932 77.8537 22.0112 77.9374 22.0473C78.0219 22.0833 78.0872 22.1308 78.1336 22.1894V22.0112H78.6194V23.2695C78.6194 23.3854 78.5904 23.4904 78.5327 23.5846C78.4746 23.6785 78.3865 23.7533 78.2684 23.8085C78.15 23.8642 78.0028 23.8923 77.8267 23.8923C77.5918 23.8923 77.4012 23.848 77.2554 23.7597C77.1093 23.6719 77.0259 23.5528 77.0045 23.4021H77.485C77.5 23.4509 77.536 23.4891 77.5931 23.5167C77.6498 23.5443 77.7202 23.5581 77.804 23.5581C77.9034 23.5581 77.9831 23.535 78.0429 23.4891C78.1033 23.4438 78.1336 23.3706 78.1336 23.2695V23.0913C78.0856 23.1501 78.0195 23.1979 77.9361 23.2345C77.8534 23.2714 77.7559 23.2897 77.6438 23.2897C77.513 23.2897 77.3946 23.2631 77.2888 23.2101C77.1827 23.1565 77.0993 23.0804 77.0379 22.982C76.9765 22.883 76.9458 22.7687 76.9458 22.6393C76.9458 22.5099 76.9765 22.3963 77.0379 22.2987C77.0993 22.2006 77.1827 22.1253 77.2888 22.0727C77.3946 22.0197 77.513 21.9932 77.6438 21.9932ZM78.1336 22.6414C78.1336 22.5454 78.0996 22.4693 78.0322 22.4133C77.9645 22.3576 77.8827 22.3295 77.7866 22.3295C77.6895 22.3295 77.6071 22.3571 77.5397 22.4122C77.473 22.4674 77.4396 22.5433 77.4396 22.6393C77.4396 22.7356 77.473 22.812 77.5397 22.8685C77.6071 22.9252 77.6895 22.9533 77.7866 22.9533C77.8827 22.9533 77.9645 22.9255 78.0322 22.8695C78.0996 22.8138 78.1336 22.7377 78.1336 22.6414Z" fill="#FFD4E1"/>
<path d="M79.945 21.9974C80.1272 21.9974 80.2733 22.0457 80.3827 22.1417C80.4929 22.2372 80.5482 22.3685 80.5482 22.5353V23.2716H80.0651V22.5873C80.0651 22.5032 80.0374 22.4377 79.9824 22.391C79.927 22.3443 79.8532 22.321 79.7608 22.321C79.6681 22.321 79.5943 22.3443 79.5393 22.391C79.4839 22.4377 79.4565 22.5032 79.4565 22.5873V23.2716H78.9707V21.6006H79.4565V22.1809C79.5052 22.1252 79.5726 22.0807 79.658 22.0472C79.7435 22.0141 79.8389 21.9974 79.945 21.9974Z" fill="#FFD4E1"/>
<path d="M81.7688 22.9439V23.2717H81.5219C81.3457 23.2717 81.2083 23.2375 81.1095 23.1688C81.0107 23.1004 80.9614 22.9884 80.9614 22.8335V22.3317H80.7692V22.0113H80.9614V21.7036H81.4485V22.0113H81.7661V22.3317H81.4485V22.8378C81.4485 22.8754 81.4595 22.9025 81.4819 22.9195C81.5049 22.9359 81.5426 22.9439 81.5953 22.9439H81.7688Z" fill="#FFD4E1"/>
<path d="M43.5109 25.7872C43.5109 25.6564 43.5442 25.5421 43.611 25.4445C43.6784 25.3463 43.7725 25.271 43.8926 25.2185C44.0127 25.1654 44.1505 25.1389 44.3063 25.1389C44.5045 25.1389 44.6707 25.1803 44.8041 25.263C44.9376 25.3458 45.025 25.4625 45.067 25.6132H44.5505C44.5068 25.5171 44.4224 25.4689 44.297 25.4689C44.2079 25.4689 44.1368 25.4965 44.0834 25.5516C44.0307 25.6063 44.0047 25.6848 44.0047 25.7872C44.0047 25.8898 44.0307 25.9686 44.0834 26.0238C44.1368 26.0784 44.2079 26.1054 44.297 26.1054C44.4224 26.1054 44.5068 26.0574 44.5505 25.9612H45.067C45.025 26.1092 44.9369 26.2251 44.8028 26.3092C44.6683 26.3935 44.5028 26.4354 44.3063 26.4354C44.1505 26.4354 44.0127 26.4094 43.8926 26.3569C43.7725 26.3038 43.6784 26.2285 43.611 26.1309C43.5442 26.0328 43.5109 25.9182 43.5109 25.7872Z" fill="#FFD4E1"/>
<path d="M46.2998 25.1431C46.482 25.1431 46.6282 25.1914 46.7376 25.2874C46.8477 25.3829 46.9031 25.5142 46.9031 25.681V26.4173H46.42V25.733C46.42 25.6489 46.3923 25.5834 46.3372 25.5368C46.2818 25.4901 46.2081 25.4667 46.1157 25.4667C46.0229 25.4667 45.9492 25.4901 45.8941 25.5368C45.8387 25.5834 45.8114 25.6489 45.8114 25.733V26.4173H45.3256V24.7463H45.8114V25.3267C45.8601 25.271 45.9275 25.2264 46.0129 25.193C46.0983 25.1598 46.1937 25.1431 46.2998 25.1431Z" fill="#FFD4E1"/>
<path d="M47.9622 26.4354C47.8064 26.4354 47.6662 26.4094 47.5418 26.3569C47.418 26.3038 47.3205 26.2285 47.2495 26.1309C47.1791 26.0328 47.144 25.9182 47.144 25.7872C47.144 25.6577 47.1794 25.5439 47.2508 25.4455C47.3229 25.3466 47.421 25.271 47.5458 25.2185C47.6712 25.1654 47.8117 25.1389 47.9675 25.1389C48.123 25.1389 48.2631 25.1654 48.3879 25.2185C48.5134 25.271 48.6115 25.3466 48.6829 25.4455C48.7549 25.5439 48.791 25.6577 48.791 25.7872C48.791 25.9166 48.7543 26.0309 48.6815 26.1298C48.6085 26.2283 48.5087 26.3038 48.3826 26.3569C48.2571 26.4094 48.117 26.4354 47.9622 26.4354ZM47.9622 26.1012C48.0546 26.1012 48.1333 26.0744 48.1984 26.0206C48.2641 25.9662 48.2972 25.8885 48.2972 25.7872C48.2972 25.6861 48.2651 25.6087 48.2011 25.5548C48.1377 25.5004 48.0599 25.4731 47.9675 25.4731C47.8731 25.4731 47.7943 25.5002 47.7313 25.5538C47.6689 25.6068 47.6379 25.6848 47.6379 25.7872C47.6379 25.8885 47.6686 25.9662 47.7299 26.0206C47.7913 26.0744 47.8688 26.1012 47.9622 26.1012Z" fill="#FFD4E1"/>
<path d="M49.2939 25.0264C49.2085 25.0264 49.1384 25.0068 49.0844 24.967C49.031 24.9267 49.0043 24.8774 49.0043 24.8185C49.0043 24.7585 49.031 24.7087 49.0844 24.6689C49.1384 24.6286 49.2085 24.6084 49.2939 24.6084C49.3773 24.6084 49.446 24.6286 49.4994 24.6689C49.5535 24.7087 49.5808 24.7585 49.5808 24.8185C49.5808 24.8774 49.5535 24.9267 49.4994 24.967C49.446 25.0068 49.3773 25.0264 49.2939 25.0264ZM49.5355 25.1569V26.4173H49.0497V25.1569H49.5355Z" fill="#FFD4E1"/>
<path d="M49.7916 25.7872C49.7916 25.6564 49.825 25.5421 49.8917 25.4445C49.9591 25.3463 50.0532 25.271 50.1733 25.2185C50.2934 25.1654 50.4313 25.1389 50.5871 25.1389C50.7853 25.1389 50.9514 25.1803 51.0849 25.263C51.2184 25.3458 51.3058 25.4625 51.3478 25.6132H50.8313C50.7876 25.5171 50.7032 25.4689 50.5777 25.4689C50.4886 25.4689 50.4176 25.4965 50.3642 25.5516C50.3115 25.6063 50.2854 25.6848 50.2854 25.7872C50.2854 25.8898 50.3115 25.9686 50.3642 26.0238C50.4176 26.0784 50.4886 26.1054 50.5777 26.1054C50.7032 26.1054 50.7876 26.0574 50.8313 25.9612H51.3478C51.3058 26.1092 51.2177 26.2251 51.0836 26.3092C50.9491 26.3935 50.7836 26.4354 50.5871 26.4354C50.4313 26.4354 50.2934 26.4094 50.1733 26.3569C50.0532 26.3038 49.9591 26.2285 49.8917 26.1309C49.825 26.0328 49.7916 25.9182 49.7916 25.7872Z" fill="#FFD4E1"/>
<path d="M53.1011 25.767C53.1011 25.8031 53.0978 25.8407 53.0918 25.8795H51.9934C52.0004 25.958 52.0321 26.0182 52.0882 26.0598C52.1442 26.1009 52.2126 26.1214 52.2937 26.1214C52.4145 26.1214 52.4992 26.0808 52.5473 25.9994H53.0638C53.0371 26.0821 52.989 26.1569 52.9196 26.2232C52.8509 26.2898 52.7648 26.3418 52.6607 26.3792C52.5566 26.4168 52.4398 26.4354 52.311 26.4354C52.1552 26.4354 52.0167 26.4094 51.896 26.3569C51.7748 26.3038 51.6801 26.2285 51.6117 26.1309C51.544 26.0328 51.5103 25.9182 51.5103 25.7872C51.5103 25.6564 51.5436 25.5421 51.6104 25.4445C51.6778 25.3463 51.7722 25.271 51.8933 25.2185C52.0141 25.1654 52.1535 25.1389 52.311 25.1389C52.4639 25.1389 52.6 25.1649 52.7194 25.2164C52.8396 25.2673 52.933 25.3402 52.9997 25.4349C53.0671 25.5299 53.1011 25.6405 53.1011 25.767ZM52.6033 25.6652C52.6033 25.5988 52.5746 25.5461 52.5179 25.5071C52.4618 25.4683 52.3911 25.4487 52.3057 25.4487C52.2236 25.4487 52.1549 25.4675 52.0988 25.5049C52.0434 25.5426 52.0094 25.5959 51.9961 25.6652H52.6033Z" fill="#FFD4E1"/>
<path d="M54.4442 25.3352C54.4896 25.2766 54.555 25.2291 54.6404 25.193C54.7258 25.1569 54.8232 25.1389 54.9327 25.1389C55.0635 25.1389 55.1816 25.1654 55.2877 25.2185C55.3944 25.271 55.4785 25.3463 55.5399 25.4444C55.6013 25.5421 55.632 25.6556 55.632 25.785C55.632 25.9145 55.6013 26.0288 55.5399 26.1277C55.4785 26.2261 55.3944 26.3022 55.2877 26.3558C55.1816 26.4089 55.0635 26.4354 54.9327 26.4354C54.8212 26.4354 54.7238 26.4176 54.6404 26.3823C54.5566 26.3471 54.4912 26.3001 54.4442 26.2412V26.4173H53.9584V24.7463H54.4442V25.3352ZM55.1382 25.785C55.1382 25.689 55.1042 25.6131 55.0368 25.558C54.969 25.5028 54.8863 25.4752 54.7885 25.4752C54.6914 25.4752 54.609 25.5033 54.5416 25.559C54.4749 25.615 54.4415 25.6911 54.4415 25.7871C54.4415 25.8834 54.4749 25.9595 54.5416 26.0152C54.609 26.0712 54.6914 26.0991 54.7885 26.0991C54.8846 26.0991 54.9667 26.0709 55.0354 26.0142C55.1038 25.9577 55.1382 25.8813 55.1382 25.785Z" fill="#FFD4E1"/>
<path d="M55.7911 25.785C55.7911 25.6556 55.8218 25.5421 55.8832 25.4445C55.9446 25.3463 56.028 25.271 56.1341 25.2185C56.2399 25.1654 56.3584 25.1389 56.4892 25.1389C56.6013 25.1389 56.699 25.157 56.7828 25.193C56.8672 25.2291 56.9326 25.2766 56.979 25.3352V25.157H57.4648V26.4174H56.979V26.2391C56.9309 26.298 56.8645 26.3452 56.7801 26.3813C56.6964 26.4174 56.5986 26.4354 56.4865 26.4354C56.3574 26.4354 56.2399 26.4089 56.1341 26.3558C56.028 26.3023 55.9446 26.2261 55.8832 26.1277C55.8218 26.0288 55.7911 25.9145 55.7911 25.785ZM56.979 25.7872C56.979 25.6911 56.9449 25.615 56.8775 25.5591C56.8098 25.5034 56.7281 25.4752 56.632 25.4752C56.5349 25.4752 56.4524 25.5028 56.3851 25.558C56.3183 25.6132 56.285 25.689 56.285 25.785C56.285 25.8813 56.3183 25.9577 56.3851 26.0142C56.4524 26.071 56.5349 26.0991 56.632 26.0991C56.7281 26.0991 56.8098 26.0712 56.8775 26.0153C56.9449 25.9596 56.979 25.8834 56.979 25.7872Z" fill="#FFD4E1"/>
<path d="M57.72 25.7872C57.72 25.6564 57.7533 25.5421 57.8201 25.4445C57.8875 25.3463 57.9816 25.271 58.1017 25.2185C58.2218 25.1654 58.3596 25.1389 58.5154 25.1389C58.7136 25.1389 58.8798 25.1803 59.0132 25.263C59.1467 25.3458 59.2341 25.4625 59.2762 25.6132H58.7597C58.7159 25.5171 58.6315 25.4689 58.5061 25.4689C58.417 25.4689 58.3459 25.4965 58.2925 25.5516C58.2398 25.6063 58.2138 25.6848 58.2138 25.7872C58.2138 25.8898 58.2398 25.9686 58.2925 26.0238C58.3459 26.0784 58.417 26.1054 58.5061 26.1054C58.6315 26.1054 58.7159 26.0574 58.7597 25.9612H59.2762C59.2341 26.1092 59.146 26.2251 59.0119 26.3092C58.8774 26.3935 58.7119 26.4354 58.5154 26.4354C58.3596 26.4354 58.2218 26.4094 58.1017 26.3569C57.9816 26.3038 57.8875 26.2285 57.8201 26.1309C57.7533 26.0328 57.72 25.9182 57.72 25.7872Z" fill="#FFD4E1"/>
<path d="M60.5036 26.4173L60.0205 25.889V26.4173H59.5347V24.7463H60.0205V25.6694L60.5009 25.1569H61.1002L60.4409 25.7893L61.1055 26.4173H60.5036Z" fill="#FFD4E1"/>
<path d="M62.776 26.0896V26.4175H62.5291C62.3529 26.4175 62.2155 26.3832 62.1167 26.3145C62.0179 26.2461 61.9686 26.1342 61.9686 25.9793V25.4775H61.7764V25.157H61.9686V24.8494H62.4557V25.157H62.7733V25.4775H62.4557V25.9835C62.4557 26.0212 62.4667 26.0482 62.4891 26.0652C62.5121 26.0817 62.5498 26.0896 62.6025 26.0896H62.776Z" fill="#FFD4E1"/>
<path d="M64.0201 25.1431C64.2022 25.1431 64.3484 25.1914 64.4578 25.2874C64.5679 25.3829 64.6233 25.5142 64.6233 25.681V26.4173H64.1402V25.733C64.1402 25.6489 64.1125 25.5834 64.0574 25.5368C64.002 25.4901 63.9283 25.4667 63.8359 25.4667C63.7431 25.4667 63.6694 25.4901 63.6143 25.5368C63.5589 25.5834 63.5316 25.6489 63.5316 25.733V26.4173H63.0458V24.7463H63.5316V25.3267C63.5803 25.271 63.6477 25.2264 63.7331 25.193C63.8185 25.1598 63.914 25.1431 64.0201 25.1431Z" fill="#FFD4E1"/>
<path d="M66.4551 25.767C66.4551 25.8031 66.4518 25.8407 66.4458 25.8795H65.3474C65.3544 25.958 65.3861 26.0182 65.4422 26.0598C65.4982 26.1009 65.5666 26.1214 65.6477 26.1214C65.7685 26.1214 65.8532 26.0808 65.9013 25.9994H66.4178C66.3911 26.0821 66.343 26.1569 66.2736 26.2232C66.2049 26.2898 66.1188 26.3418 66.0147 26.3792C65.9106 26.4168 65.7938 26.4354 65.665 26.4354C65.5092 26.4354 65.3708 26.4094 65.25 26.3569C65.1288 26.3038 65.0341 26.2285 64.9657 26.1309C64.898 26.0328 64.8643 25.9182 64.8643 25.7872C64.8643 25.6564 64.8976 25.5421 64.9644 25.4445C65.0318 25.3463 65.1262 25.271 65.2473 25.2185C65.3681 25.1654 65.5076 25.1389 65.665 25.1389C65.8179 25.1389 65.954 25.1649 66.0734 25.2164C66.1936 25.2673 66.287 25.3402 66.3537 25.4349C66.4211 25.5299 66.4551 25.6405 66.4551 25.767ZM65.9573 25.6652C65.9573 25.5988 65.9286 25.5461 65.8719 25.5071C65.8159 25.4683 65.7451 25.4487 65.6597 25.4487C65.5776 25.4487 65.5089 25.4675 65.4528 25.5049C65.3974 25.5426 65.3634 25.5959 65.3501 25.6652H65.9573Z" fill="#FFD4E1"/>
<path d="M67.6765 25.1431C67.8613 25.1431 68.0095 25.1913 68.1209 25.2874C68.232 25.3828 68.2877 25.5141 68.2877 25.681V26.4173H67.8046V25.733C67.8046 25.6489 67.7769 25.5834 67.7219 25.5367C67.6665 25.49 67.5927 25.4667 67.5003 25.4667C67.4076 25.4667 67.3338 25.49 67.2788 25.5367C67.2234 25.5834 67.196 25.6489 67.196 25.733V26.4173H66.7102V25.1569H67.196V25.3245C67.2447 25.2688 67.3111 25.2245 67.3949 25.1919C67.4783 25.1595 67.5724 25.1431 67.6765 25.1431Z" fill="#FFD4E1"/>
<path d="M69.148 26.0608L68.8317 26.709H68.5221L68.6876 26.0608H69.148Z" fill="#FFD4E1"/>
<path d="M70.5282 25.3352C70.5735 25.2766 70.6389 25.2291 70.7244 25.193C70.8098 25.1569 70.9072 25.1389 71.0166 25.1389C71.1474 25.1389 71.2656 25.1654 71.3717 25.2185C71.4784 25.271 71.5625 25.3463 71.6239 25.4444C71.6853 25.5421 71.716 25.6556 71.716 25.785C71.716 25.9145 71.6853 26.0288 71.6239 26.1277C71.5625 26.2261 71.4784 26.3022 71.3717 26.3558C71.2656 26.4089 71.1474 26.4354 71.0166 26.4354C70.9052 26.4354 70.8078 26.4176 70.7244 26.3823C70.6406 26.3471 70.5752 26.3001 70.5282 26.2412V26.4173H70.0424V24.7463H70.5282V25.3352ZM71.2222 25.785C71.2222 25.689 71.1881 25.6131 71.1207 25.558C71.053 25.5028 70.9703 25.4752 70.8725 25.4752C70.7754 25.4752 70.693 25.5033 70.6256 25.559C70.5589 25.615 70.5255 25.6911 70.5255 25.7871C70.5255 25.8834 70.5589 25.9595 70.6256 26.0152C70.693 26.0712 70.7754 26.0991 70.8725 26.0991C70.9686 26.0991 71.0507 26.0709 71.1194 26.0142C71.1878 25.9577 71.2222 25.8813 71.2222 25.785Z" fill="#FFD4E1"/>
<path d="M73.5368 25.157V26.4174H73.0509V26.2455C73.0019 26.3015 72.9352 26.3463 72.8507 26.3803C72.766 26.4142 72.6726 26.4312 72.5705 26.4312C72.4494 26.4312 72.3423 26.4097 72.2488 26.3665C72.1561 26.3235 72.084 26.2612 72.0326 26.1797C71.9819 26.0986 71.9565 26.0031 71.9565 25.8933V25.157H72.4397V25.8413C72.4397 25.9256 72.467 25.9909 72.5224 26.0376C72.5775 26.0843 72.6512 26.1076 72.744 26.1076C72.8391 26.1076 72.9138 26.0843 72.9682 26.0376C73.0233 25.9909 73.0509 25.9256 73.0509 25.8413V25.157H73.5368Z" fill="#FFD4E1"/>
<path d="M74.7694 26.0896V26.4175H74.5225C74.3463 26.4175 74.2089 26.3832 74.1101 26.3145C74.0113 26.2461 73.962 26.1342 73.962 25.9793V25.4775H73.7698V25.157H73.962V24.8494H74.4491V25.157H74.7667V25.4775H74.4491V25.9835C74.4491 26.0212 74.4601 26.0482 74.4825 26.0652C74.5055 26.0817 74.5432 26.0896 74.5959 26.0896H74.7694Z" fill="#FFD4E1"/>
<path d="M76.6076 25.1431C76.7925 25.1431 76.9406 25.1913 77.0521 25.2874C77.1632 25.3828 77.2189 25.5141 77.2189 25.681V26.4173H76.7358V25.733C76.7358 25.6489 76.7081 25.5834 76.653 25.5367C76.5976 25.49 76.5239 25.4667 76.4315 25.4667C76.3387 25.4667 76.265 25.49 76.2099 25.5367C76.1545 25.5834 76.1272 25.6489 76.1272 25.733V26.4173H75.6414V25.1569H76.1272V25.3245C76.1759 25.2688 76.2423 25.2245 76.326 25.1919C76.4094 25.1595 76.5035 25.1431 76.6076 25.1431Z" fill="#FFD4E1"/>
<path d="M78.2781 26.4354C78.1223 26.4354 77.9821 26.4094 77.8577 26.3569C77.7339 26.3038 77.6365 26.2285 77.5654 26.1309C77.495 26.0328 77.46 25.9182 77.46 25.7872C77.46 25.6577 77.4953 25.5439 77.5667 25.4455C77.6388 25.3466 77.7369 25.271 77.8617 25.2185C77.9871 25.1654 78.1276 25.1389 78.2834 25.1389C78.4389 25.1389 78.5791 25.1654 78.7038 25.2185C78.8293 25.271 78.9274 25.3466 78.9988 25.4455C79.0709 25.5439 79.1069 25.6577 79.1069 25.7872C79.1069 25.9166 79.0702 26.0309 78.9975 26.1298C78.9244 26.2283 78.8246 26.3038 78.6985 26.3569C78.573 26.4094 78.4329 26.4354 78.2781 26.4354ZM78.2781 26.1012C78.3705 26.1012 78.4493 26.0744 78.5143 26.0206C78.5801 25.9662 78.6131 25.8885 78.6131 25.7872C78.6131 25.6861 78.5811 25.6087 78.517 25.5548C78.4536 25.5004 78.3759 25.4731 78.2834 25.4731C78.189 25.4731 78.1103 25.5002 78.0472 25.5538C77.9848 25.6068 77.9538 25.6848 77.9538 25.7872C77.9538 25.8885 77.9845 25.9662 78.0459 26.0206C78.1073 26.0744 78.1847 26.1012 78.2781 26.1012Z" fill="#FFD4E1"/>
<path d="M81.6411 25.157L81.2127 26.4174H80.6749L80.4253 25.5994L80.1664 26.4174H79.6325L79.2014 25.157H79.6872L79.9114 26.0577L80.1784 25.157H80.6922L80.9618 26.0535L81.1847 25.157H81.6411Z" fill="#FFD4E1"/>
<path d="M82.6721 25.0264C82.5866 25.0264 82.5166 25.0068 82.4625 24.967C82.4091 24.9267 82.3824 24.8774 82.3824 24.8185C82.3824 24.7585 82.4091 24.7087 82.4625 24.6689C82.5166 24.6286 82.5866 24.6084 82.6721 24.6084C82.7555 24.6084 82.8242 24.6286 82.8776 24.6689C82.9316 24.7087 82.959 24.7585 82.959 24.8185C82.959 24.8774 82.9316 24.9267 82.8776 24.967C82.8242 25.0068 82.7555 25.0264 82.6721 25.0264ZM82.9136 25.1569V26.4173H82.4278V25.1569H82.9136Z" fill="#FFD4E1"/>
<path d="M84.1493 26.0896V26.4175H83.9024C83.7262 26.4175 83.5888 26.3832 83.49 26.3145C83.3912 26.2461 83.3418 26.1342 83.3418 25.9793V25.4775H83.1497V25.157H83.3418V24.8494H83.829V25.157H84.1466V25.4775H83.829V25.9835C83.829 26.0212 83.84 26.0482 83.8624 26.0652C83.8854 26.0817 83.9231 26.0896 83.9758 26.0896H84.1493Z" fill="#FFD4E1"/>
<path d="M44.6343 28.6232H44.3727V29.5632H43.8869V28.6232H43.7107V28.3028H43.8869V28.2667C43.8869 28.1118 43.9423 27.9941 44.0537 27.9134C44.1658 27.8328 44.33 27.7925 44.5462 27.7925C44.5825 27.7925 44.6092 27.7933 44.6263 27.7946V28.1224C44.5328 28.1177 44.4668 28.1283 44.4287 28.1543C44.3914 28.1797 44.3727 28.2254 44.3727 28.2911V28.3028H44.6343V28.6232Z" fill="#FFD4E1"/>
<path d="M46.3563 28.9128C46.3563 28.9488 46.3529 28.9865 46.3469 29.0252H45.2485C45.2555 29.1037 45.2872 29.1639 45.3433 29.2056C45.3993 29.2467 45.4677 29.2671 45.5488 29.2671C45.6696 29.2671 45.7543 29.2265 45.8024 29.1451H46.3189C46.2922 29.2279 46.2442 29.3027 46.1748 29.369C46.106 29.4355 46.0199 29.4875 45.9158 29.5249C45.8117 29.5626 45.695 29.5812 45.5662 29.5812C45.4103 29.5812 45.2719 29.5552 45.1511 29.5026C45.03 29.4496 44.9352 29.3743 44.8668 29.2767C44.7991 29.1785 44.7654 29.0639 44.7654 28.9329C44.7654 28.8021 44.7987 28.6878 44.8655 28.5902C44.9329 28.4921 45.0273 28.4168 45.1484 28.3642C45.2692 28.3112 45.4087 28.2847 45.5662 28.2847C45.719 28.2847 45.8551 28.3107 45.9746 28.3621C46.0947 28.413 46.1881 28.486 46.2548 28.5807C46.3222 28.6756 46.3563 28.7862 46.3563 28.9128ZM45.8584 28.8109C45.8584 28.7446 45.8298 28.6918 45.773 28.6528C45.717 28.6141 45.6462 28.5945 45.5608 28.5945C45.4787 28.5945 45.41 28.6133 45.354 28.6507C45.2986 28.6884 45.2645 28.7417 45.2512 28.8109H45.8584Z" fill="#FFD4E1"/>
<path d="M48.106 28.9128C48.106 28.9488 48.1027 28.9865 48.0967 29.0252H46.9983C47.0053 29.1037 47.037 29.1639 47.093 29.2056C47.1491 29.2467 47.2175 29.2671 47.2986 29.2671C47.4194 29.2671 47.5041 29.2265 47.5521 29.1451H48.0687C48.042 29.2279 47.9939 29.3027 47.9245 29.369C47.8558 29.4355 47.7697 29.4875 47.6656 29.5249C47.5615 29.5626 47.4447 29.5812 47.3159 29.5812C47.1601 29.5812 47.0216 29.5552 46.9008 29.5026C46.7797 29.4496 46.685 29.3743 46.6166 29.2767C46.5488 29.1785 46.5151 29.0639 46.5151 28.9329C46.5151 28.8021 46.5485 28.6878 46.6152 28.5902C46.6826 28.4921 46.7771 28.4168 46.8982 28.3642C47.019 28.3112 47.1584 28.2847 47.3159 28.2847C47.4687 28.2847 47.6049 28.3107 47.7243 28.3621C47.8444 28.413 47.9379 28.486 48.0046 28.5807C48.072 28.6756 48.106 28.7862 48.106 28.9128ZM47.6082 28.8109C47.6082 28.7446 47.5795 28.6918 47.5228 28.6528C47.4667 28.6141 47.396 28.5945 47.3106 28.5945C47.2285 28.5945 47.1598 28.6133 47.1037 28.6507C47.0483 28.6884 47.0143 28.7417 47.0009 28.8109H47.6082Z" fill="#FFD4E1"/>
<path d="M48.847 27.8921V29.5631H48.3612V27.8921H48.847Z" fill="#FFD4E1"/>
<path d="M49.8438 29.5812C49.7057 29.5812 49.5826 29.5626 49.4741 29.5249C49.3663 29.4875 49.2813 29.4358 49.2192 29.37C49.1568 29.3042 49.1218 29.2308 49.1138 29.1493H49.5942C49.5996 29.1934 49.6249 29.2289 49.6703 29.2565C49.7164 29.2836 49.7724 29.2968 49.8385 29.2968C49.8989 29.2968 49.9456 29.2878 49.9786 29.2692C50.0123 29.2501 50.0293 29.2255 50.0293 29.195C50.0293 29.1589 50.0053 29.1324 49.9573 29.1154C49.9099 29.0979 49.8335 29.0783 49.7277 29.057C49.6136 29.0358 49.5188 29.0135 49.4434 28.9902C49.3677 28.9669 49.3023 28.9303 49.2472 28.8799C49.1918 28.8297 49.1645 28.7616 49.1645 28.6751C49.1645 28.603 49.1892 28.5372 49.2392 28.4778C49.2899 28.4183 49.364 28.3714 49.4621 28.3367C49.5599 28.3022 49.676 28.2847 49.8104 28.2847C50.0086 28.2847 50.1655 28.3239 50.2802 28.4024C50.395 28.4804 50.4608 28.5839 50.4778 28.7133H50.0293C50.0213 28.6703 49.9966 28.6358 49.9559 28.6104C49.9159 28.5844 49.8625 28.5711 49.7958 28.5711C49.7387 28.5711 49.695 28.5801 49.665 28.5977C49.6346 28.6146 49.6196 28.6385 49.6196 28.6687C49.6196 28.7048 49.6436 28.7321 49.6917 28.7504C49.7404 28.7682 49.8161 28.7862 49.9186 28.8045C50.036 28.8287 50.1314 28.8523 50.2055 28.8756C50.2792 28.899 50.3436 28.9369 50.399 28.9891C50.4551 29.0409 50.4838 29.1101 50.4858 29.1971C50.4858 29.2708 50.4594 29.3366 50.407 29.3944C50.3553 29.4525 50.2806 29.4981 50.1828 29.5313C50.0857 29.5644 49.9726 29.5812 49.8438 29.5812Z" fill="#FFD4E1"/>
<path d="M51.8723 27.8921V29.5631H51.3865V27.8921H51.8723Z" fill="#FFD4E1"/>
<path d="M52.4687 28.1722C52.3833 28.1722 52.3132 28.1525 52.2592 28.1128C52.2058 28.0724 52.1791 28.0231 52.1791 27.9642C52.1791 27.9043 52.2058 27.8544 52.2592 27.8146C52.3132 27.7743 52.3833 27.7542 52.4687 27.7542C52.5521 27.7542 52.6208 27.7743 52.6742 27.8146C52.7283 27.8544 52.7556 27.9043 52.7556 27.9642C52.7556 28.0231 52.7283 28.0724 52.6742 28.1128C52.6208 28.1525 52.5521 28.1722 52.4687 28.1722ZM52.7103 28.3027V29.5631H52.2245V28.3027H52.7103Z" fill="#FFD4E1"/>
<path d="M54.0314 29.5631L53.5483 29.0347V29.5631H53.0625V27.8921H53.5483V28.8151L54.0288 28.3027H54.628L53.9687 28.935L54.6334 29.5631H54.0314Z" fill="#FFD4E1"/>
<path d="M56.3128 28.9128C56.3128 28.9488 56.3095 28.9865 56.3035 29.0252H55.2051C55.2121 29.1037 55.2438 29.1639 55.2998 29.2056C55.3559 29.2467 55.4243 29.2671 55.5054 29.2671C55.6261 29.2671 55.7109 29.2265 55.7589 29.1451H56.2754C56.2487 29.2279 56.2007 29.3027 56.1313 29.369C56.0626 29.4355 55.9765 29.4875 55.8724 29.5249C55.7683 29.5626 55.6515 29.5812 55.5227 29.5812C55.3669 29.5812 55.2284 29.5552 55.1076 29.5026C54.9865 29.4496 54.8918 29.3743 54.8234 29.2767C54.7556 29.1785 54.7219 29.0639 54.7219 28.9329C54.7219 28.8021 54.7553 28.6878 54.822 28.5902C54.8894 28.4921 54.9838 28.4168 55.105 28.3642C55.2257 28.3112 55.3652 28.2847 55.5227 28.2847C55.6755 28.2847 55.8117 28.3107 55.9311 28.3621C56.0512 28.413 56.1446 28.486 56.2114 28.5807C56.2788 28.6756 56.3128 28.7862 56.3128 28.9128ZM55.815 28.8109C55.815 28.7446 55.7863 28.6918 55.7296 28.6528C55.6735 28.6141 55.6028 28.5945 55.5174 28.5945C55.4353 28.5945 55.3666 28.6133 55.3105 28.6507C55.2551 28.6884 55.2211 28.7417 55.2077 28.8109H55.815Z" fill="#FFD4E1"/>
<path d="M57.656 27.9771V29.5632H57.1702V27.9771H57.656Z" fill="#FFD4E1"/>
<path d="M60.8859 28.3027L60.4575 29.5632H59.9196L59.67 28.7452L59.4111 29.5632H58.8773L58.4462 28.3027H58.932L59.1562 29.2035L59.4231 28.3027H59.937L60.2066 29.1992L60.4294 28.3027H60.8859Z" fill="#FFD4E1"/>
<path d="M60.9742 28.9308C60.9742 28.8014 61.0049 28.6878 61.0663 28.5902C61.1277 28.4921 61.2111 28.4168 61.3172 28.3642C61.423 28.3112 61.5415 28.2847 61.6723 28.2847C61.7844 28.2847 61.8821 28.3027 61.9659 28.3388C62.0503 28.3748 62.1157 28.4223 62.1621 28.4809V28.3027H62.6479V29.5631H62.1621V29.3849C62.114 29.4438 62.0476 29.491 61.9632 29.527C61.8795 29.5631 61.7817 29.5812 61.6696 29.5812C61.5405 29.5812 61.423 29.5546 61.3172 29.5016C61.2111 29.448 61.1277 29.3719 61.0663 29.2735C61.0049 29.1745 60.9742 29.0602 60.9742 28.9308ZM62.1621 28.9329C62.1621 28.8369 62.128 28.7608 62.0606 28.7048C61.9929 28.6491 61.9112 28.621 61.8151 28.621C61.718 28.621 61.6356 28.6486 61.5682 28.7037C61.5014 28.7589 61.4681 28.8348 61.4681 28.9308C61.4681 29.0271 61.5014 29.1035 61.5682 29.16C61.6356 29.2167 61.718 29.2448 61.8151 29.2448C61.9112 29.2448 61.9929 29.217 62.0606 29.161C62.128 29.1053 62.1621 29.0292 62.1621 28.9329Z" fill="#FFD4E1"/>
<path d="M63.6439 29.5812C63.5057 29.5812 63.3826 29.5626 63.2742 29.5249C63.1664 29.4875 63.0813 29.4358 63.0193 29.37C62.9569 29.3042 62.9218 29.2308 62.9138 29.1493H63.3943C63.3996 29.1934 63.425 29.2289 63.4704 29.2565C63.5164 29.2836 63.5725 29.2968 63.6385 29.2968C63.6989 29.2968 63.7456 29.2878 63.7787 29.2692C63.8124 29.2501 63.8294 29.2255 63.8294 29.195C63.8294 29.1589 63.8054 29.1324 63.7573 29.1154C63.7099 29.0979 63.6335 29.0783 63.5278 29.057C63.4136 29.0358 63.3189 29.0135 63.2435 28.9902C63.1677 28.9669 63.1023 28.9303 63.0473 28.8799C62.9919 28.8297 62.9645 28.7616 62.9645 28.6751C62.9645 28.603 62.9892 28.5372 63.0393 28.4778C63.09 28.4183 63.1641 28.3714 63.2622 28.3367C63.3599 28.3022 63.476 28.2847 63.6105 28.2847C63.8087 28.2847 63.9655 28.3239 64.0803 28.4024C64.1951 28.4804 64.2608 28.5839 64.2778 28.7133H63.8294C63.8214 28.6703 63.7967 28.6358 63.756 28.6104C63.7159 28.5844 63.6625 28.5711 63.5958 28.5711C63.5388 28.5711 63.4951 28.5801 63.465 28.5977C63.4347 28.6146 63.4196 28.6385 63.4196 28.6687C63.4196 28.7048 63.4437 28.7321 63.4917 28.7504C63.5404 28.7682 63.6162 28.7862 63.7186 28.8045C63.8361 28.8287 63.9315 28.8523 64.0056 28.8756C64.0793 28.899 64.1437 28.9369 64.1991 28.9891C64.2551 29.0409 64.2838 29.1101 64.2858 29.1971C64.2858 29.2708 64.2595 29.3366 64.2071 29.3944C64.1554 29.4525 64.0806 29.4981 63.9829 29.5313C63.8858 29.5644 63.7727 29.5812 63.6439 29.5812Z" fill="#FFD4E1"/>
<path d="M65.4679 29.2354V29.5632H65.221C65.0448 29.5632 64.9074 29.529 64.8086 29.4603C64.7098 29.3919 64.6604 29.2799 64.6604 29.125V28.6232H64.4683V28.3028H64.6604V27.9951H65.1476V28.3028H65.4652V28.6232H65.1476V29.1293C65.1476 29.1669 65.1586 29.194 65.181 29.211C65.204 29.2274 65.2417 29.2354 65.2944 29.2354H65.4679Z" fill="#FFD4E1"/>
<path d="M67.2325 28.9128C67.2325 28.9488 67.2292 28.9865 67.2231 29.0252H66.1247C66.1317 29.1037 66.1634 29.1639 66.2195 29.2056C66.2756 29.2467 66.344 29.2671 66.425 29.2671C66.5458 29.2671 66.6306 29.2265 66.6786 29.1451H67.1951C67.1684 29.2279 67.1204 29.3027 67.051 29.369C66.9822 29.4355 66.8962 29.4875 66.7921 29.5249C66.688 29.5626 66.5712 29.5812 66.4424 29.5812C66.2866 29.5812 66.1481 29.5552 66.0273 29.5026C65.9062 29.4496 65.8114 29.3743 65.743 29.2767C65.6753 29.1785 65.6416 29.0639 65.6416 28.9329C65.6416 28.8021 65.675 28.6878 65.7417 28.5902C65.8091 28.4921 65.9035 28.4168 66.0246 28.3642C66.1454 28.3112 66.2849 28.2847 66.4424 28.2847C66.5952 28.2847 66.7313 28.3107 66.8508 28.3621C66.9709 28.413 67.0643 28.486 67.1311 28.5807C67.1985 28.6756 67.2325 28.7862 67.2325 28.9128ZM66.7347 28.8109C66.7347 28.7446 66.706 28.6918 66.6493 28.6528C66.5932 28.6141 66.5225 28.5945 66.437 28.5945C66.355 28.5945 66.2862 28.6133 66.2302 28.6507C66.1748 28.6884 66.1408 28.7417 66.1274 28.8109H66.7347Z" fill="#FFD4E1"/>
<path d="M67.3915 28.9308C67.3915 28.8013 67.4222 28.6878 67.4836 28.5902C67.545 28.4921 67.6284 28.4167 67.7345 28.3642C67.8403 28.3112 67.9587 28.2846 68.0895 28.2846C68.1936 28.2846 68.2887 28.3021 68.3751 28.3366C68.4612 28.3714 68.5293 28.4181 68.5793 28.4767V27.8921H69.0651V29.5631H68.5793V29.3827C68.5329 29.4429 68.4675 29.491 68.3831 29.527C68.2994 29.5631 68.2016 29.5811 68.0895 29.5811C67.9587 29.5811 67.8403 29.5546 67.7345 29.5016C67.6284 29.448 67.545 29.3719 67.4836 29.2735C67.4222 29.1745 67.3915 29.0602 67.3915 28.9308ZM68.5793 28.9329C68.5793 28.8369 68.5453 28.7607 68.4779 28.7048C68.4101 28.6491 68.3284 28.621 68.2323 28.621C68.1352 28.621 68.0528 28.6486 67.9854 28.7037C67.9187 28.7589 67.8853 28.8348 67.8853 28.9308C67.8853 29.027 67.9187 29.1034 67.9854 29.1599C68.0528 29.2167 68.1352 29.2448 68.2323 29.2448C68.3284 29.2448 68.4101 29.217 68.4779 29.161C68.5453 29.1053 68.5793 29.0292 68.5793 28.9329Z" fill="#FFD4E1"/>
<path d="M70.9021 29.2354V29.5632H70.6552C70.479 29.5632 70.3416 29.529 70.2428 29.4603C70.144 29.3919 70.0947 29.2799 70.0947 29.125V28.6232H69.9025V28.3028H70.0947V27.9951H70.5818V28.3028H70.8994V28.6232H70.5818V29.1293C70.5818 29.1669 70.5928 29.194 70.6152 29.211C70.6382 29.2274 70.6759 29.2354 70.7286 29.2354H70.9021Z" fill="#FFD4E1"/>
<path d="M71.4161 28.1722C71.3307 28.1722 71.2606 28.1525 71.2065 28.1128C71.1532 28.0724 71.1265 28.0231 71.1265 27.9642C71.1265 27.9043 71.1532 27.8544 71.2065 27.8146C71.2606 27.7743 71.3307 27.7542 71.4161 27.7542C71.4995 27.7542 71.5682 27.7743 71.6216 27.8146C71.6757 27.8544 71.703 27.9043 71.703 27.9642C71.703 28.0231 71.6757 28.0724 71.6216 28.1128C71.5682 28.1525 71.4995 28.1722 71.4161 28.1722ZM71.6576 28.3027V29.5631H71.1718V28.3027H71.6576Z" fill="#FFD4E1"/>
<path d="M74.0332 28.2888C74.2297 28.2888 74.3862 28.3363 74.503 28.431C74.6194 28.5259 74.6778 28.6578 74.6778 28.8267V29.563H74.1947V28.8787C74.1947 28.7975 74.1673 28.7344 74.1133 28.6899C74.0599 28.6453 73.9855 28.623 73.8904 28.623C73.796 28.623 73.7216 28.6453 73.6675 28.6899C73.6141 28.7344 73.5874 28.7975 73.5874 28.8787V29.563H73.1043V28.8787C73.1043 28.7975 73.0769 28.7344 73.0229 28.6899C72.9685 28.6453 72.8941 28.623 72.8 28.623C72.7046 28.623 72.6298 28.6453 72.5758 28.6899C72.5224 28.7344 72.4957 28.7975 72.4957 28.8787V29.563H72.0099V28.3026H72.4957V28.4607C72.5444 28.4084 72.6085 28.3668 72.6879 28.3355C72.768 28.3045 72.858 28.2888 72.9588 28.2888C73.0779 28.2888 73.1844 28.3095 73.2778 28.3504C73.3719 28.3907 73.446 28.4488 73.4993 28.5244C73.5534 28.4551 73.6278 28.3986 73.7222 28.3546C73.8173 28.3108 73.9211 28.2888 74.0332 28.2888Z" fill="#FFD4E1"/>
<path d="M76.513 28.9128C76.513 28.9488 76.5097 28.9865 76.5037 29.0252H75.4053C75.4123 29.1037 75.444 29.1639 75.5 29.2056C75.5561 29.2467 75.6245 29.2671 75.7056 29.2671C75.8263 29.2671 75.9111 29.2265 75.9591 29.1451H76.4756C76.4489 29.2279 76.4009 29.3027 76.3315 29.369C76.2628 29.4355 76.1767 29.4875 76.0726 29.5249C75.9685 29.5626 75.8517 29.5812 75.7229 29.5812C75.5671 29.5812 75.4286 29.5552 75.3078 29.5026C75.1867 29.4496 75.092 29.3743 75.0236 29.2767C74.9558 29.1785 74.9221 29.0639 74.9221 28.9329C74.9221 28.8021 74.9555 28.6878 75.0222 28.5902C75.0896 28.4921 75.184 28.4168 75.3052 28.3642C75.4259 28.3112 75.5654 28.2847 75.7229 28.2847C75.8757 28.2847 76.0118 28.3107 76.1313 28.3621C76.2514 28.413 76.3448 28.486 76.4116 28.5807C76.479 28.6756 76.513 28.7862 76.513 28.9128ZM76.0152 28.8109C76.0152 28.7446 75.9865 28.6918 75.9298 28.6528C75.8737 28.6141 75.803 28.5945 75.7176 28.5945C75.6355 28.5945 75.5667 28.6133 75.5107 28.6507C75.4553 28.6884 75.4213 28.7417 75.4079 28.8109H76.0152Z" fill="#FFD4E1"/>
<path d="M76.9949 29.5813C76.9102 29.5813 76.8408 29.5616 76.7867 29.5219C76.7323 29.4815 76.7053 29.4322 76.7053 29.3733C76.7053 29.3134 76.7323 29.263 76.7867 29.2227C76.8408 29.1818 76.9102 29.1611 76.9949 29.1611C77.0784 29.1611 77.1471 29.1818 77.2005 29.2227C77.2545 29.263 77.2819 29.3134 77.2819 29.3733C77.2819 29.4322 77.2545 29.4815 77.2005 29.5219C77.1471 29.5616 77.0784 29.5813 76.9949 29.5813Z" fill="#FFD4E1"/>
<path d="M79.6061 27.9771V28.2869H79.0776V29.5632H78.5917V28.2869H78.0632V27.9771H79.6061Z" fill="#FFD4E1"/>
<path d="M80.8245 28.2889C81.0067 28.2889 81.1528 28.3372 81.2623 28.4332C81.3724 28.5287 81.4278 28.66 81.4278 28.8268V29.5631H80.9446V28.8788C80.9446 28.7947 80.9169 28.7292 80.8619 28.6825C80.8065 28.6358 80.7327 28.6125 80.6403 28.6125C80.5476 28.6125 80.4738 28.6358 80.4188 28.6825C80.3634 28.7292 80.336 28.7947 80.336 28.8788V29.5631H79.8502V27.8921H80.336V28.4724C80.3847 28.4167 80.4521 28.3722 80.5376 28.3388C80.623 28.3056 80.7184 28.2889 80.8245 28.2889Z" fill="#FFD4E1"/>
<path d="M82.0091 28.1722C81.9237 28.1722 81.8536 28.1525 81.7996 28.1128C81.7462 28.0724 81.7195 28.0231 81.7195 27.9642C81.7195 27.9043 81.7462 27.8544 81.7996 27.8146C81.8536 27.7743 81.9237 27.7542 82.0091 27.7542C82.0925 27.7542 82.1612 27.7743 82.2146 27.8146C82.2687 27.8544 82.296 27.9043 82.296 27.9642C82.296 28.0231 82.2687 28.0724 82.2146 28.1128C82.1612 28.1525 82.0925 28.1722 82.0091 28.1722ZM82.2507 28.3027V29.5631H81.7649V28.3027H82.2507Z" fill="#FFD4E1"/>
<path d="M83.2475 29.5812C83.1094 29.5812 82.9862 29.5626 82.8778 29.5249C82.77 29.4875 82.685 29.4358 82.6229 29.37C82.5605 29.3042 82.5255 29.2308 82.5175 29.1493H82.9979C83.0033 29.1934 83.0286 29.2289 83.074 29.2565C83.12 29.2836 83.1761 29.2968 83.2422 29.2968C83.3026 29.2968 83.3493 29.2878 83.3823 29.2692C83.416 29.2501 83.433 29.2255 83.433 29.195C83.433 29.1589 83.409 29.1324 83.3609 29.1154C83.3136 29.0979 83.2372 29.0783 83.1314 29.057C83.0173 29.0358 82.9225 29.0135 82.8471 28.9902C82.7714 28.9669 82.706 28.9303 82.6509 28.8799C82.5955 28.8297 82.5682 28.7616 82.5682 28.6751C82.5682 28.603 82.5929 28.5372 82.6429 28.4778C82.6936 28.4183 82.7677 28.3714 82.8658 28.3367C82.9636 28.3022 83.0797 28.2847 83.2141 28.2847C83.4123 28.2847 83.5691 28.3239 83.6839 28.4024C83.7987 28.4804 83.8644 28.5839 83.8815 28.7133H83.433C83.425 28.6703 83.4003 28.6358 83.3596 28.6104C83.3196 28.5844 83.2662 28.5711 83.1995 28.5711C83.1424 28.5711 83.0987 28.5801 83.0687 28.5977C83.0383 28.6146 83.0233 28.6385 83.0233 28.6687C83.0233 28.7048 83.0473 28.7321 83.0954 28.7504C83.1441 28.7682 83.2198 28.7862 83.3222 28.8045C83.4397 28.8287 83.5351 28.8523 83.6092 28.8756C83.6829 28.899 83.7473 28.9369 83.8027 28.9891C83.8588 29.0409 83.8875 29.1101 83.8895 29.1971C83.8895 29.2708 83.8631 29.3366 83.8107 29.3944C83.759 29.4525 83.6843 29.4981 83.5865 29.5313C83.4894 29.5644 83.3763 29.5812 83.2475 29.5812Z" fill="#FFD4E1"/>
<path d="M46.3694 31.3179C46.2839 31.3179 46.2139 31.2983 46.1598 31.2585C46.1064 31.2182 46.0797 31.1689 46.0797 31.11C46.0797 31.05 46.1064 31.0002 46.1598 30.9604C46.2139 30.9201 46.2839 30.8999 46.3694 30.8999C46.4528 30.8999 46.5215 30.9201 46.5749 30.9604C46.6289 31.0002 46.6563 31.05 46.6563 31.11C46.6563 31.1689 46.6289 31.2182 46.5749 31.2585C46.5215 31.2983 46.4528 31.3179 46.3694 31.3179ZM46.6136 32.8712C46.6136 33.0266 46.5642 33.1385 46.4654 33.2064C46.3674 33.2749 46.2306 33.3093 46.0544 33.3093H45.8635V32.9826H45.9796C46.033 32.9826 46.0707 32.9741 46.0931 32.9571C46.1161 32.9407 46.1278 32.9139 46.1278 32.8765V31.4484H46.6136V32.8712Z" fill="#FFD4E1"/>
<path d="M47.685 32.7269C47.5291 32.7269 47.389 32.7009 47.2645 32.6484C47.1408 32.5954 47.0433 32.52 46.9723 32.4224C46.9019 32.3243 46.8668 32.2097 46.8668 32.0787C46.8668 31.9492 46.9022 31.8354 46.9736 31.737C47.0457 31.6381 47.1438 31.5625 47.2685 31.51C47.394 31.4569 47.5345 31.4304 47.6903 31.4304C47.8458 31.4304 47.9859 31.4569 48.1107 31.51C48.2362 31.5625 48.3343 31.6381 48.4057 31.737C48.4777 31.8354 48.5138 31.9492 48.5138 32.0787C48.5138 32.2081 48.4771 32.3224 48.4043 32.4214C48.3313 32.5198 48.2315 32.5954 48.1054 32.6484C47.9799 32.7009 47.8398 32.7269 47.685 32.7269ZM47.685 32.3927C47.7774 32.3927 47.8561 32.3659 47.9212 32.3121C47.9869 32.2577 48.0199 32.18 48.0199 32.0787C48.0199 31.9776 47.9879 31.9002 47.9239 31.8463C47.8605 31.7919 47.7827 31.7646 47.6903 31.7646C47.5959 31.7646 47.5171 31.7917 47.4541 31.8453C47.3917 31.8983 47.3606 31.9763 47.3606 32.0787C47.3606 32.18 47.3913 32.2577 47.4527 32.3121C47.5141 32.3659 47.5915 32.3927 47.685 32.3927Z" fill="#FFD4E1"/>
<path d="M49.2583 31.6267C49.3036 31.5681 49.369 31.5206 49.4545 31.4845C49.5399 31.4484 49.6373 31.4304 49.7467 31.4304C49.8775 31.4304 49.9957 31.4569 50.1018 31.51C50.2085 31.5625 50.2926 31.6378 50.354 31.736C50.4154 31.8336 50.4461 31.9471 50.4461 32.0765C50.4461 32.206 50.4154 32.3203 50.354 32.4192C50.2926 32.5176 50.2085 32.5937 50.1018 32.6473C49.9957 32.7004 49.8775 32.7269 49.7467 32.7269C49.6353 32.7269 49.5379 32.7091 49.4545 32.6738C49.3707 32.6386 49.3053 32.5916 49.2583 32.5327V32.7088H48.7725V31.0378H49.2583V31.6267ZM49.9523 32.0765C49.9523 31.9805 49.9182 31.9046 49.8508 31.8495C49.7831 31.7943 49.7004 31.7667 49.6026 31.7667C49.5055 31.7667 49.4231 31.7948 49.3557 31.8505C49.289 31.9065 49.2556 31.9826 49.2556 32.0786C49.2556 32.1749 49.289 32.251 49.3557 32.3067C49.4231 32.3627 49.5055 32.3906 49.6026 32.3906C49.6987 32.3906 49.7808 32.3624 49.8495 32.3057C49.9179 32.2492 49.9523 32.1728 49.9523 32.0765Z" fill="#FFD4E1"/>
<path d="M51.2074 32.0765C51.2074 31.9471 51.2381 31.8336 51.2995 31.736C51.3609 31.6378 51.4443 31.5625 51.5504 31.51C51.6562 31.4569 51.7746 31.4304 51.9054 31.4304C52.0095 31.4304 52.1046 31.4479 52.191 31.4824C52.2771 31.5171 52.3452 31.5638 52.3952 31.6224V31.0378H52.881V32.7088H52.3952V32.5285C52.3488 32.5887 52.2834 32.6367 52.199 32.6728C52.1153 32.7088 52.0175 32.7269 51.9054 32.7269C51.7746 32.7269 51.6562 32.7004 51.5504 32.6473C51.4443 32.5937 51.3609 32.5176 51.2995 32.4192C51.2381 32.3203 51.2074 32.206 51.2074 32.0765ZM52.3952 32.0786C52.3952 31.9826 52.3612 31.9065 52.2938 31.8505C52.2261 31.7948 52.1443 31.7667 52.0482 31.7667C51.9511 31.7667 51.8687 31.7943 51.8013 31.8495C51.7346 31.9046 51.7012 31.9805 51.7012 32.0765C51.7012 32.1728 51.7346 32.2492 51.8013 32.3057C51.8687 32.3624 51.9511 32.3906 52.0482 32.3906C52.1443 32.3906 52.2261 32.3627 52.2938 32.3067C52.3612 32.251 52.3952 32.1749 52.3952 32.0786Z" fill="#FFD4E1"/>
<path d="M53.9544 32.7269C53.7985 32.7269 53.6584 32.7009 53.534 32.6484C53.4102 32.5954 53.3127 32.52 53.2417 32.4224C53.1713 32.3243 53.1362 32.2097 53.1362 32.0787C53.1362 31.9492 53.1716 31.8354 53.243 31.737C53.3151 31.6381 53.4132 31.5625 53.538 31.51C53.6634 31.4569 53.8039 31.4304 53.9597 31.4304C54.1152 31.4304 54.2553 31.4569 54.3801 31.51C54.5056 31.5625 54.6037 31.6381 54.6751 31.737C54.7471 31.8354 54.7832 31.9492 54.7832 32.0787C54.7832 32.2081 54.7465 32.3224 54.6737 32.4214C54.6007 32.5198 54.5009 32.5954 54.3748 32.6484C54.2493 32.7009 54.1092 32.7269 53.9544 32.7269ZM53.9544 32.3927C54.0468 32.3927 54.1255 32.3659 54.1906 32.3121C54.2563 32.2577 54.2894 32.18 54.2894 32.0787C54.2894 31.9776 54.2573 31.9002 54.1933 31.8463C54.1299 31.7919 54.0521 31.7646 53.9597 31.7646C53.8653 31.7646 53.7865 31.7917 53.7235 31.8453C53.6611 31.8983 53.63 31.9763 53.63 32.0787C53.63 32.18 53.6607 32.2577 53.7221 32.3121C53.7835 32.3659 53.8609 32.3927 53.9544 32.3927Z" fill="#FFD4E1"/>
<path d="M56.5366 32.0585C56.5366 32.0946 56.5332 32.1322 56.5272 32.171H55.4288C55.4358 32.2495 55.4675 32.3097 55.5236 32.3513C55.5796 32.3924 55.648 32.4129 55.7291 32.4129C55.8499 32.4129 55.9346 32.3723 55.9827 32.2909H56.4992C56.4725 32.3736 56.4245 32.4484 56.3551 32.5147C56.2863 32.5813 56.2002 32.6333 56.0961 32.6707C55.992 32.7083 55.8753 32.7269 55.7465 32.7269C55.5906 32.7269 55.4522 32.7009 55.3314 32.6484C55.2103 32.5954 55.1155 32.52 55.0471 32.4224C54.9794 32.3243 54.9457 32.2097 54.9457 32.0787C54.9457 31.9479 54.979 31.8336 55.0458 31.736C55.1132 31.6378 55.2076 31.5625 55.3287 31.51C55.4495 31.4569 55.589 31.4304 55.7465 31.4304C55.8993 31.4304 56.0354 31.4564 56.1549 31.5079C56.275 31.5588 56.3684 31.6317 56.4351 31.7264C56.5025 31.8214 56.5366 31.932 56.5366 32.0585ZM56.0387 31.9567C56.0387 31.8903 56.0101 31.8376 55.9533 31.7986C55.8973 31.7598 55.8265 31.7402 55.7411 31.7402C55.659 31.7402 55.5903 31.7591 55.5343 31.7965C55.4789 31.8341 55.4448 31.8874 55.4315 31.9567H56.0387Z" fill="#FFD4E1"/>
<path d="M57.4363 32.7269C57.2982 32.7269 57.1751 32.7083 57.0667 32.6707C56.9589 32.6333 56.8738 32.5816 56.8117 32.5158C56.7493 32.45 56.7143 32.3765 56.7063 32.2951H57.1868C57.1921 32.3391 57.2175 32.3747 57.2628 32.4023C57.3089 32.4293 57.3649 32.4426 57.431 32.4426C57.4914 32.4426 57.5381 32.4336 57.5711 32.415C57.6048 32.3959 57.6219 32.3712 57.6219 32.3407C57.6219 32.3046 57.5978 32.2781 57.5498 32.2611C57.5024 32.2436 57.426 32.224 57.3202 32.2028C57.2061 32.1816 57.1114 32.1593 57.036 32.136C56.9602 32.1126 56.8948 32.076 56.8398 32.0256C56.7844 31.9755 56.757 31.9073 56.757 31.8209C56.757 31.7487 56.7817 31.6829 56.8318 31.6235C56.8825 31.5641 56.9565 31.5172 57.0546 31.4824C57.1524 31.4479 57.2685 31.4304 57.403 31.4304C57.6012 31.4304 57.758 31.4697 57.8728 31.5482C57.9875 31.6262 58.0533 31.7296 58.0703 31.859H57.6219C57.6139 31.8161 57.5892 31.7816 57.5485 31.7561C57.5084 31.7301 57.455 31.7169 57.3883 31.7169C57.3312 31.7169 57.2875 31.7259 57.2575 31.7434C57.2271 31.7604 57.2121 31.7842 57.2121 31.8145C57.2121 31.8506 57.2361 31.8779 57.2842 31.8962C57.3329 31.914 57.4087 31.932 57.5111 31.9503C57.6285 31.9744 57.724 31.998 57.798 32.0214C57.8718 32.0447 57.9362 32.0826 57.9916 32.1349C58.0476 32.1866 58.0763 32.2558 58.0783 32.3428C58.0783 32.4166 58.0519 32.4824 57.9996 32.5402C57.9478 32.5983 57.8731 32.6439 57.7753 32.677C57.6782 32.7102 57.5651 32.7269 57.4363 32.7269Z" fill="#FFD4E1"/>
<path d="M59.3431 31.4346C59.528 31.4346 59.6761 31.4828 59.7875 31.5789C59.8986 31.6743 59.9544 31.8056 59.9544 31.9725V32.7088H59.4712V32.0245C59.4712 31.9404 59.4435 31.8749 59.3885 31.8282C59.3331 31.7815 59.2594 31.7582 59.1669 31.7582C59.0742 31.7582 59.0004 31.7815 58.9454 31.8282C58.89 31.8749 58.8626 31.9404 58.8626 32.0245V32.7088H58.3768V31.4484H58.8626V31.616C58.9114 31.5603 58.9778 31.516 59.0615 31.4834C59.1449 31.451 59.239 31.4346 59.3431 31.4346Z" fill="#FFD4E1"/>
<path d="M60.629 30.9021L60.593 31.4007H60.266L60.2286 30.9021H60.629Z" fill="#FFD4E1"/>
<path d="M61.8027 32.3811V32.709H61.5558C61.3797 32.709 61.2422 32.6747 61.1434 32.6061C61.0447 32.5376 60.9953 32.4257 60.9953 32.2708V31.769H60.8031V31.4485H60.9953V31.1409H61.4824V31.4485H61.8001V31.769H61.4824V32.275C61.4824 32.3127 61.4934 32.3398 61.5158 32.3567C61.5388 32.3732 61.5765 32.3811 61.6292 32.3811H61.8027Z" fill="#FFD4E1"/>
<path d="M64.6981 31.4346C64.8946 31.4346 65.0511 31.482 65.1679 31.5767C65.2844 31.6717 65.3427 31.8035 65.3427 31.9725V32.7088H64.8596V32.0245C64.8596 31.9433 64.8322 31.8802 64.7782 31.8356C64.7248 31.7911 64.6504 31.7688 64.5553 31.7688C64.4609 31.7688 64.3865 31.7911 64.3324 31.8356C64.279 31.8802 64.2523 31.9433 64.2523 32.0245V32.7088H63.7692V32.0245C63.7692 31.9433 63.7418 31.8802 63.6878 31.8356C63.6334 31.7911 63.559 31.7688 63.4649 31.7688C63.3695 31.7688 63.2947 31.7911 63.2407 31.8356C63.1873 31.8802 63.1606 31.9433 63.1606 32.0245V32.7088H62.6748V31.4484H63.1606V31.6064C63.2093 31.5542 63.2734 31.5126 63.3528 31.4813C63.4329 31.4502 63.523 31.4346 63.6237 31.4346C63.7428 31.4346 63.8493 31.4553 63.9427 31.4961C64.0368 31.5364 64.1109 31.5945 64.1643 31.6701C64.2183 31.6009 64.2927 31.5444 64.3871 31.5003C64.4822 31.4566 64.586 31.4346 64.6981 31.4346Z" fill="#FFD4E1"/>
<path d="M65.5869 32.0765C65.5869 31.9471 65.6176 31.8336 65.679 31.736C65.7404 31.6378 65.8238 31.5625 65.9299 31.51C66.0357 31.4569 66.1541 31.4304 66.2849 31.4304C66.397 31.4304 66.4948 31.4485 66.5785 31.4845C66.663 31.5206 66.7284 31.5681 66.7747 31.6267V31.4485H67.2605V32.7089H66.7747V32.5306C66.7267 32.5895 66.6603 32.6367 66.5759 32.6728C66.4921 32.7089 66.3944 32.7269 66.2823 32.7269C66.1531 32.7269 66.0357 32.7004 65.9299 32.6473C65.8238 32.5938 65.7404 32.5176 65.679 32.4192C65.6176 32.3203 65.5869 32.206 65.5869 32.0765ZM66.7747 32.0787C66.7747 31.9826 66.7407 31.9065 66.6733 31.8506C66.6056 31.7949 66.5238 31.7667 66.4277 31.7667C66.3306 31.7667 66.2482 31.7943 66.1808 31.8495C66.1141 31.9047 66.0807 31.9805 66.0807 32.0765C66.0807 32.1728 66.1141 32.2492 66.1808 32.3057C66.2482 32.3625 66.3306 32.3906 66.4277 32.3906C66.5238 32.3906 66.6056 32.3627 66.6733 32.3068C66.7407 32.2511 66.7747 32.1749 66.7747 32.0787Z" fill="#FFD4E1"/>
<path d="M68.4954 32.3811V32.709H68.2485C68.0723 32.709 67.9348 32.6747 67.8361 32.6061C67.7373 32.5376 67.6879 32.4257 67.6879 32.2708V31.769H67.4957V31.4485H67.6879V31.1409H68.1751V31.4485H68.4927V31.769H68.1751V32.275C68.1751 32.3127 68.1861 32.3398 68.2084 32.3567C68.2314 32.3732 68.2691 32.3811 68.3219 32.3811H68.4954Z" fill="#FFD4E1"/>
<path d="M68.6691 32.0787C68.6691 31.9479 68.7024 31.8336 68.7692 31.736C68.8366 31.6378 68.9307 31.5625 69.0508 31.51C69.1709 31.4569 69.3087 31.4304 69.4645 31.4304C69.6627 31.4304 69.8289 31.4718 69.9623 31.5546C70.0958 31.6373 70.1832 31.754 70.2253 31.9047H69.7087C69.665 31.8087 69.5806 31.7604 69.4552 31.7604C69.3661 31.7604 69.295 31.788 69.2416 31.8431C69.1889 31.8978 69.1629 31.9763 69.1629 32.0787C69.1629 32.1813 69.1889 32.2601 69.2416 32.3153C69.295 32.3699 69.3661 32.397 69.4552 32.397C69.5806 32.397 69.665 32.3489 69.7087 32.2527H70.2253C70.1832 32.4007 70.0951 32.5166 69.961 32.6007C69.8265 32.685 69.661 32.7269 69.4645 32.7269C69.3087 32.7269 69.1709 32.7009 69.0508 32.6484C68.9307 32.5954 68.8366 32.52 68.7692 32.4224C68.7024 32.3243 68.6691 32.2097 68.6691 32.0787Z" fill="#FFD4E1"/>
<path d="M71.458 31.4346C71.6402 31.4346 71.7864 31.4829 71.8958 31.5789C72.0059 31.6744 72.0613 31.8057 72.0613 31.9725V32.7088H71.5782V32.0245C71.5782 31.9405 71.5505 31.8749 71.4954 31.8283C71.44 31.7816 71.3663 31.7582 71.2739 31.7582C71.1811 31.7582 71.1074 31.7816 71.0523 31.8283C70.9969 31.8749 70.9696 31.9405 70.9696 32.0245V32.7088H70.4838V31.0378H70.9696V31.6182C71.0183 31.5625 71.0857 31.5179 71.1711 31.4845C71.2565 31.4513 71.3519 31.4346 71.458 31.4346Z" fill="#FFD4E1"/>
<path d="M75.2763 31.4485L74.8478 32.7089H74.31L74.0604 31.8909L73.8015 32.7089H73.2676L72.8365 31.4485H73.3224L73.5466 32.3492L73.8135 31.4485H74.3273L74.5969 32.345L74.8198 31.4485H75.2763Z" fill="#FFD4E1"/>
<path d="M76.435 31.4346C76.6172 31.4346 76.7633 31.4829 76.8727 31.5789C76.9828 31.6744 77.0382 31.8057 77.0382 31.9725V32.7088H76.5551V32.0245C76.5551 31.9405 76.5274 31.8749 76.4723 31.8283C76.417 31.7816 76.3432 31.7582 76.2508 31.7582C76.158 31.7582 76.0843 31.7816 76.0292 31.8283C75.9739 31.8749 75.9465 31.9405 75.9465 32.0245V32.7088H75.4607V31.0378H75.9465V31.6182C75.9952 31.5625 76.0626 31.5179 76.148 31.4845C76.2334 31.4513 76.3289 31.4346 76.435 31.4346Z" fill="#FFD4E1"/>
<path d="M77.2793 32.0765C77.2793 31.9471 77.31 31.8336 77.3714 31.736C77.4328 31.6378 77.5162 31.5625 77.6223 31.51C77.7281 31.4569 77.8465 31.4304 77.9773 31.4304C78.0894 31.4304 78.1872 31.4485 78.2709 31.4845C78.3553 31.5206 78.4207 31.5681 78.4671 31.6267V31.4485H78.9529V32.7089H78.4671V32.5306C78.4191 32.5895 78.3527 32.6367 78.2683 32.6728C78.1845 32.7089 78.0868 32.7269 77.9746 32.7269C77.8455 32.7269 77.7281 32.7004 77.6223 32.6473C77.5162 32.5938 77.4328 32.5176 77.3714 32.4192C77.31 32.3203 77.2793 32.206 77.2793 32.0765ZM78.4671 32.0787C78.4671 31.9826 78.4331 31.9065 78.3657 31.8506C78.298 31.7949 78.2162 31.7667 78.1201 31.7667C78.023 31.7667 77.9406 31.7943 77.8732 31.8495C77.8065 31.9047 77.7731 31.9805 77.7731 32.0765C77.7731 32.1728 77.8065 32.2492 77.8732 32.3057C77.9406 32.3625 78.023 32.3906 78.1201 32.3906C78.2162 32.3906 78.298 32.3627 78.3657 32.3068C78.4331 32.2511 78.4671 32.1749 78.4671 32.0787Z" fill="#FFD4E1"/>
<path d="M80.1876 32.3811V32.709H79.9407C79.7646 32.709 79.6271 32.6747 79.5283 32.6061C79.4296 32.5376 79.3802 32.4257 79.3802 32.2708V31.769H79.188V31.4485H79.3802V31.1409H79.8673V31.4485H80.185V31.769H79.8673V32.275C79.8673 32.3127 79.8783 32.3398 79.9007 32.3567C79.9237 32.3732 79.9614 32.3811 80.0141 32.3811H80.1876Z" fill="#FFD4E1"/>
<path d="M81.5455 31.1228V32.7089H81.0597V31.1228H81.5455Z" fill="#FFD4E1"/>
<path d="M56.3748 34.5942L55.9464 35.8547H55.4085L55.1589 35.0367L54.9 35.8547H54.3661L53.9351 34.5942H54.4209L54.6451 35.495L54.912 34.5942H55.4258L55.6954 35.4907L55.9183 34.5942H56.3748Z" fill="#FFD4E1"/>
<path d="M56.4631 35.2223C56.4631 35.0929 56.4938 34.9793 56.5552 34.8817C56.6166 34.7836 56.7 34.7083 56.8061 34.6557C56.9119 34.6027 57.0304 34.5762 57.1611 34.5762C57.2733 34.5762 57.371 34.5942 57.4548 34.6303C57.5392 34.6664 57.6046 34.7138 57.651 34.7724V34.5942H58.1368V35.8546H57.651V35.6764C57.6029 35.7353 57.5365 35.7825 57.4521 35.8186C57.3684 35.8546 57.2706 35.8727 57.1585 35.8727C57.0294 35.8727 56.9119 35.8461 56.8061 35.7931C56.7 35.7395 56.6166 35.6634 56.5552 35.565C56.4938 35.466 56.4631 35.3517 56.4631 35.2223ZM57.651 35.2244C57.651 35.1284 57.6169 35.0523 57.5495 34.9963C57.4818 34.9406 57.4 34.9125 57.304 34.9125C57.2069 34.9125 57.1244 34.9401 57.057 34.9952C56.9903 35.0504 56.9569 35.1263 56.9569 35.2223C56.9569 35.3186 56.9903 35.395 57.057 35.4515C57.1244 35.5082 57.2069 35.5363 57.304 35.5363C57.4 35.5363 57.4818 35.5085 57.5495 35.4525C57.6169 35.3968 57.651 35.3207 57.651 35.2244Z" fill="#FFD4E1"/>
<path d="M59.4543 34.5806C59.6392 34.5806 59.7873 34.6288 59.8987 34.7249C60.0099 34.8203 60.0656 34.9516 60.0656 35.1185V35.8548H59.5824V35.1705C59.5824 35.0864 59.5547 35.0209 59.4997 34.9742C59.4443 34.9275 59.3706 34.9042 59.2781 34.9042C59.1854 34.9042 59.1116 34.9275 59.0566 34.9742C59.0012 35.0209 58.9738 35.0864 58.9738 35.1705V35.8548H58.488V34.5944H58.9738V34.762C59.0226 34.7063 59.089 34.662 59.1727 34.6294C59.2561 34.597 59.3502 34.5806 59.4543 34.5806Z" fill="#FFD4E1"/>
<path d="M61.2863 35.5269V35.8547H61.0394C60.8632 35.8547 60.7257 35.8205 60.627 35.7518C60.5282 35.6834 60.4788 35.5714 60.4788 35.4165V34.9147H60.2866V34.5943H60.4788V34.2866H60.966V34.5943H61.2836V34.9147H60.966V35.4208C60.966 35.4584 60.977 35.4855 60.9993 35.5025C61.0223 35.5189 61.06 35.5269 61.1128 35.5269H61.2863Z" fill="#FFD4E1"/>
<path d="M63.0508 35.2043C63.0508 35.2403 63.0475 35.278 63.0415 35.3167H61.9431C61.9501 35.3952 61.9818 35.4554 62.0379 35.4971C62.0939 35.5382 62.1623 35.5586 62.2434 35.5586C62.3642 35.5586 62.4489 35.518 62.497 35.4366H63.0135C62.9868 35.5194 62.9387 35.5942 62.8693 35.6605C62.8006 35.727 62.7145 35.779 62.6104 35.8164C62.5063 35.8541 62.3895 35.8727 62.2607 35.8727C62.1049 35.8727 61.9665 35.8467 61.8457 35.7942C61.7246 35.7411 61.6298 35.6658 61.5614 35.5682C61.4937 35.47 61.46 35.3554 61.46 35.2244C61.46 35.0937 61.4933 34.9793 61.5601 34.8817C61.6275 34.7836 61.7219 34.7083 61.843 34.6557C61.9638 34.6027 62.1033 34.5762 62.2607 34.5762C62.4136 34.5762 62.5497 34.6022 62.6691 34.6536C62.7893 34.7045 62.8827 34.7775 62.9494 34.8722C63.0168 34.9671 63.0508 35.0777 63.0508 35.2043ZM62.553 35.1024C62.553 35.0361 62.5243 34.9833 62.4676 34.9443C62.4116 34.9056 62.3408 34.886 62.2554 34.886C62.1733 34.886 62.1046 34.9048 62.0485 34.9422C61.9931 34.9799 61.9591 35.0332 61.9458 35.1024H62.553Z" fill="#FFD4E1"/>
<path d="M63.2098 35.2223C63.2098 35.0928 63.2405 34.9793 63.3019 34.8817C63.3633 34.7836 63.4467 34.7082 63.5528 34.6557C63.6586 34.6027 63.7771 34.5761 63.9079 34.5761C64.012 34.5761 64.107 34.5937 64.1935 34.6281C64.2795 34.6629 64.3476 34.7096 64.3977 34.7682V34.1836H64.8835V35.8546H64.3977V35.6742C64.3513 35.7344 64.2859 35.7825 64.2015 35.8185C64.1177 35.8546 64.02 35.8726 63.9079 35.8726C63.7771 35.8726 63.6586 35.8461 63.5528 35.7931C63.4467 35.7395 63.3633 35.6634 63.3019 35.565C63.2405 35.466 63.2098 35.3517 63.2098 35.2223ZM64.3977 35.2244C64.3977 35.1284 64.3636 35.0523 64.2962 34.9963C64.2285 34.9406 64.1468 34.9125 64.0507 34.9125C63.9536 34.9125 63.8712 34.9401 63.8038 34.9952C63.737 35.0504 63.7037 35.1263 63.7037 35.2223C63.7037 35.3186 63.737 35.3949 63.8038 35.4514C63.8712 35.5082 63.9536 35.5363 64.0507 35.5363C64.1468 35.5363 64.2285 35.5085 64.2962 35.4525C64.3636 35.3968 64.3977 35.3207 64.3977 35.2244Z" fill="#FFD4E1"/>
<path d="M65.7408 35.2223C65.7408 35.0929 65.7715 34.9793 65.8329 34.8817C65.8943 34.7836 65.9777 34.7083 66.0838 34.6557C66.1896 34.6027 66.3081 34.5762 66.4389 34.5762C66.551 34.5762 66.6487 34.5942 66.7325 34.6303C66.8169 34.6664 66.8823 34.7138 66.9287 34.7724V34.5942H67.4145V35.8546H66.9287V35.6764C66.8806 35.7353 66.8142 35.7825 66.7298 35.8186C66.6461 35.8546 66.5483 35.8727 66.4362 35.8727C66.3071 35.8727 66.1896 35.8461 66.0838 35.7931C65.9777 35.7395 65.8943 35.6634 65.8329 35.565C65.7715 35.466 65.7408 35.3517 65.7408 35.2223ZM66.9287 35.2244C66.9287 35.1284 66.8946 35.0523 66.8272 34.9963C66.7595 34.9406 66.6778 34.9125 66.5817 34.9125C66.4846 34.9125 66.4022 34.9401 66.3348 34.9952C66.268 35.0504 66.2347 35.1263 66.2347 35.2223C66.2347 35.3186 66.268 35.395 66.3348 35.4515C66.4022 35.5082 66.4846 35.5363 66.5817 35.5363C66.6778 35.5363 66.7595 35.5085 66.8272 35.4525C66.8946 35.3968 66.9287 35.3207 66.9287 35.2244Z" fill="#FFD4E1"/>
<path d="M68.6493 35.5269V35.8547H68.4024C68.2262 35.8547 68.0888 35.8205 67.99 35.7518C67.8912 35.6834 67.8418 35.5714 67.8418 35.4165V34.9147H67.6497V34.5943H67.8418V34.2866H68.329V34.5943H68.6466V34.9147H68.329V35.4208C68.329 35.4584 68.34 35.4855 68.3624 35.5025C68.3854 35.5189 68.4231 35.5269 68.4758 35.5269H68.6493Z" fill="#FFD4E1"/>
<path d="M69.4253 35.2223C69.4253 35.0929 69.456 34.9793 69.5174 34.8817C69.5788 34.7836 69.6622 34.7083 69.7683 34.6557C69.8741 34.6027 69.9925 34.5762 70.1233 34.5762C70.2354 34.5762 70.3332 34.5942 70.4169 34.6303C70.5013 34.6664 70.5667 34.7138 70.6131 34.7724V34.5942H71.0989V35.8546H70.6131V35.6764C70.5651 35.7353 70.4987 35.7825 70.4143 35.8186C70.3305 35.8546 70.2327 35.8727 70.1206 35.8727C69.9915 35.8727 69.8741 35.8461 69.7683 35.7931C69.6622 35.7395 69.5788 35.6634 69.5174 35.565C69.456 35.466 69.4253 35.3517 69.4253 35.2223ZM70.6131 35.2244C70.6131 35.1284 70.5791 35.0523 70.5117 34.9963C70.444 34.9406 70.3622 34.9125 70.2661 34.9125C70.169 34.9125 70.0866 34.9401 70.0192 34.9952C69.9525 35.0504 69.9191 35.1263 69.9191 35.2223C69.9191 35.3186 69.9525 35.395 70.0192 35.4515C70.0866 35.5082 70.169 35.5363 70.2661 35.5363C70.3622 35.5363 70.444 35.5085 70.5117 35.4525C70.5791 35.3968 70.6131 35.3207 70.6131 35.2244Z" fill="#FFD4E1"/>
<path d="M71.936 34.1836V35.8546H71.4502V34.1836H71.936Z" fill="#FFD4E1"/>
<path d="M72.774 34.1836V35.8546H72.2882V34.1836H72.774Z" fill="#FFD4E1"/>
<path d="M73.3531 35.8728C73.2683 35.8728 73.1989 35.8531 73.1449 35.8134C73.0905 35.773 73.0635 35.7237 73.0635 35.6648C73.0635 35.6049 73.0905 35.5545 73.1449 35.5142C73.1989 35.4733 73.2683 35.4526 73.3531 35.4526C73.4365 35.4526 73.5052 35.4733 73.5586 35.5142C73.6127 35.5545 73.64 35.6049 73.64 35.6648C73.64 35.7237 73.6127 35.773 73.5586 35.8134C73.5052 35.8531 73.4365 35.8728 73.3531 35.8728Z" fill="#FFD4E1"/>
</svg>
