<svg width="129" height="60" viewBox="0 0 129 60" fill="none" xmlns="http://www.w3.org/2000/svg">
<path d="M41.3151 23.1054C41.6776 22.3282 42.1752 21.617 42.8499 21.0212C44.5933 19.4816 47.5261 18.4555 49.9382 17.8916C53.672 17.0189 57.6318 16.6239 61.5028 16.5195C66.3263 16.3896 71.1754 16.648 75.9306 17.3331C80.6645 18.0154 85.6767 19.0507 89.303 21.8285C93.9085 25.3563 93.6902 31.1367 91.7351 35.7489C90.567 38.5047 88.5601 40.9333 85.5909 42.5557C84.1933 43.3193 82.6462 43.8467 81.0376 44.2154C80.148 45.9422 79.9916 47.7761 82.1126 48.7452C82.8296 49.0727 82.5391 50.1072 81.6832 50.0559C77.4427 49.8054 73.7824 47.7863 71.2292 45.0311C71.0585 44.847 69.0628 44.9292 68.7157 44.9043C67.7932 44.8384 66.8729 44.7515 65.9561 44.6497C62.0715 44.2162 58.2019 43.983 54.3568 43.2955C50.4932 42.6037 46.3653 41.6031 44.0341 38.7527C41.9838 36.2443 40.801 33.0235 40.5351 30.0325C40.3482 27.9147 40.3118 25.2576 41.3151 23.1054Z" fill="white"/>
<mask id="mask0_136_1151" style="mask-type:luminance" maskUnits="userSpaceOnUse" x="39" y="16" width="55" height="35">
<path d="M39.9569 16.1191H93.5249V50.4444H39.9569V16.1191Z" fill="white"/>
</mask>
<g mask="url(#mask0_136_1151)">
<path d="M41.3151 23.1053L40.8949 22.9713C41.2735 22.1588 41.7991 21.4039 42.5214 20.7662C43.4455 19.9511 44.6567 19.2908 45.9413 18.7572C47.2262 18.2242 48.5871 17.8203 49.8158 17.5329C53.5958 16.6496 57.5903 16.252 61.4882 16.1467C62.2934 16.125 63.0996 16.1143 63.9059 16.1143C67.9581 16.1143 72.0149 16.3903 76.008 16.9661C78.3862 17.3087 80.8483 17.7416 83.1866 18.4447C85.5238 19.1481 87.7407 20.1232 89.61 21.5552C91.0188 22.6336 91.9959 23.9195 92.6159 25.3081C93.2364 26.6967 93.502 28.188 93.502 29.6927C93.502 31.8012 92.9809 33.9372 92.1607 35.8721C91.564 37.2806 90.7508 38.6093 89.7027 39.7965C88.6547 40.984 87.3715 42.0289 85.8398 42.866C84.3935 43.6562 82.801 44.1973 81.158 44.5743L81.0376 44.2152L81.452 44.3614C81.0929 45.0567 80.869 45.7592 80.87 46.3781C80.8707 46.8058 80.9733 47.1901 81.1993 47.5277C81.4268 47.8654 81.7795 48.1661 82.331 48.4189C82.5483 48.5173 82.7149 48.6655 82.8188 48.829C82.9231 48.9924 82.9689 49.1701 82.9689 49.3428C82.9682 49.6033 82.8678 49.8599 82.6627 50.0694C82.5599 50.1733 82.4279 50.265 82.2712 50.3295C82.1144 50.3946 81.9328 50.4305 81.7438 50.4299C81.713 50.4299 81.684 50.4297 81.6563 50.4282L81.6514 50.4276C79.4535 50.2977 77.4085 49.7092 75.5909 48.8018C73.7723 47.8941 72.1794 46.6684 70.8713 45.2575L71.145 45.0842L70.9536 45.322C70.9347 45.3107 70.9053 45.2934 70.8713 45.2575L71.145 45.0842L70.9536 45.322L71.0726 45.1739L70.9868 45.3371C70.983 45.3356 70.9725 45.3316 70.9536 45.322L71.0726 45.1739L70.9868 45.3371L71.0089 45.2957L70.99 45.3379L70.9868 45.3371L71.0089 45.2957L70.99 45.3379C70.9868 45.3365 70.927 45.3235 70.8461 45.3151C70.723 45.3012 70.5469 45.2913 70.3534 45.2861C70.1596 45.2806 69.9465 45.2789 69.74 45.2789C69.4643 45.2789 69.2004 45.2818 68.9978 45.2818C68.9327 45.2818 68.8736 45.2812 68.8211 45.2806C68.7682 45.2798 68.7238 45.2783 68.6793 45.2754H68.6769C67.7461 45.2089 66.8191 45.1215 65.8956 45.0188C62.0292 44.5871 58.1474 44.3541 54.2617 43.6591C52.3181 43.311 50.2892 42.8834 48.4314 42.1713C47.5027 41.8151 46.6167 41.3871 45.8087 40.8602C45.0007 40.3333 44.2717 39.708 43.6611 38.9612C41.5569 36.3842 40.3588 33.1114 40.0865 30.0596C40.026 29.3764 39.9808 28.6354 39.9808 27.8703C39.9819 26.2416 40.182 24.5031 40.8945 22.9713L41.7358 23.2393C41.0835 24.6357 40.8809 26.2931 40.8819 27.8703C40.8819 28.6111 40.9253 29.3347 40.9855 30.0052C41.2434 32.9357 42.4104 36.1038 44.4079 38.5434C44.9625 39.2222 45.6239 39.7908 46.3664 40.2751C47.4796 41.0008 48.7789 41.5376 50.1625 41.9554C51.5455 42.3741 53.0124 42.6733 54.4524 42.9311C58.2558 43.6122 62.1132 43.8455 66.016 44.2803C66.9272 44.3816 67.8402 44.4676 68.7542 44.533L68.7521 44.5327C68.763 44.5335 68.7959 44.5344 68.8389 44.5356C68.8816 44.5358 68.9362 44.5364 68.9978 44.5364C69.1903 44.5364 69.4573 44.5335 69.74 44.5335C70.0735 44.5335 70.4273 44.5376 70.7275 44.5564C70.8783 44.5659 71.0152 44.5787 71.1425 44.6015C71.2069 44.6131 71.2692 44.6273 71.3392 44.651C71.3735 44.6634 71.4113 44.6785 71.4529 44.7011C71.4939 44.7242 71.5408 44.7549 71.5873 44.8038C72.8324 46.1487 74.3462 47.3101 76.056 48.1632C77.7672 49.017 79.6726 49.5636 81.7155 49.6843L81.6833 50.0558L81.7109 49.6843C81.7242 49.6849 81.7354 49.6851 81.7438 49.6851C81.7988 49.6849 81.8358 49.6762 81.8698 49.6626C81.9198 49.642 81.9678 49.6041 82.0066 49.5465C82.0448 49.4893 82.0682 49.414 82.0682 49.3428C82.0682 49.2798 82.0507 49.2213 82.0217 49.1773C81.9926 49.1328 81.9566 49.1001 81.895 49.0711C81.2175 48.7624 80.7234 48.3564 80.4113 47.8891C80.0977 47.4224 79.9682 46.9042 79.9686 46.3781C79.97 45.6137 80.2338 44.8261 80.623 44.0691C80.6769 43.9655 80.7853 43.8862 80.9169 43.8562C82.4913 43.4953 83.9932 42.982 85.3429 42.2445C86.7794 41.4595 87.9846 40.4788 88.9745 39.3576C89.9645 38.2364 90.7389 36.9728 91.3103 35.6255C92.1015 33.7595 92.6012 31.699 92.6012 29.6927C92.6012 28.2604 92.3472 26.8567 91.7705 25.5662C91.1931 24.2751 90.2959 23.0972 88.9973 22.1018C87.2399 20.7555 85.1371 19.8249 82.8787 19.1452C80.6202 18.4655 78.2084 18.0396 75.853 17.7002C71.9141 17.1322 67.9081 16.8596 63.9059 16.8596C63.1094 16.8596 62.3133 16.87 61.5176 16.8915C57.6735 16.9953 53.7483 17.388 50.0611 18.25C48.8779 18.5266 47.5653 18.9172 46.3455 19.4236C45.1249 19.9294 43.9977 20.5512 43.1792 21.2757C42.5508 21.8301 42.0815 22.4974 41.7358 23.2393L41.3151 23.1053Z" fill="#FFD4E1"/>
</g>
<path d="M53.7451 18.9746C53.1302 18.9358 52.6102 19.0139 52.0437 19.248Z" fill="white"/>
<path d="M53.7101 19.3461C53.6209 19.3403 53.5351 19.3374 53.4529 19.3374C53.0246 19.3389 52.669 19.4077 52.2449 19.5813C52.0224 19.6737 51.7519 19.599 51.6406 19.415C51.529 19.2312 51.6189 19.0076 51.8418 18.9153C52.3681 18.6956 52.8962 18.5906 53.4529 18.5921C53.561 18.5921 53.6695 18.5961 53.7797 18.6028C54.0278 18.619 54.2133 18.7978 54.1941 19.0035C54.1752 19.2084 53.9582 19.3623 53.7101 19.3461Z" fill="#FFD4E1"/>
<path d="M51.2871 19.6392C47.6943 20.1473 44.575 22.4531 43.4402 25.3067Z" fill="white"/>
<path d="M51.3627 20.0065C49.6578 20.2472 48.0523 20.9182 46.7397 21.8731C45.4264 22.8279 44.4085 24.064 43.8685 25.4225C43.7905 25.6182 43.5361 25.7249 43.2995 25.6604C43.063 25.5964 42.9345 25.3858 43.0119 25.1902C43.6068 23.6954 44.7161 22.3525 46.1441 21.3138C47.5729 20.2753 49.324 19.5389 51.2108 19.2721C51.4562 19.2371 51.6892 19.3734 51.7312 19.5762C51.7732 19.779 51.608 19.9717 51.3627 20.0065Z" fill="#FFD4E1"/>
<path d="M43.4654 26.2052C43.4654 26.362 43.4654 26.4789 43.4654 26.5964C43.4654 26.8021 43.2639 26.9688 43.015 26.9688C42.7662 26.9688 42.5643 26.8021 42.5643 26.5964C42.5643 26.4789 42.5643 26.362 42.5643 26.2052C42.5643 25.9995 42.7662 25.8325 43.015 25.8325C43.2639 25.8325 43.4654 25.9995 43.4654 26.2052Z" fill="#FFD4E1"/>
<path d="M66.3186 43.0903C65.7986 43.0903 65.3258 43.0122 64.8058 42.9731Z" fill="white"/>
<path d="M66.3186 43.4627C66.031 43.4627 65.764 43.4415 65.5089 43.4161C65.2534 43.3909 65.0102 43.3623 64.7653 43.3443C64.5172 43.3255 64.3349 43.1444 64.3569 42.9392C64.38 42.7344 64.5987 42.5836 64.8465 42.6021C65.1215 42.623 65.3745 42.6525 65.6156 42.6762C65.8567 42.6999 66.0856 42.7176 66.3186 42.7176C66.5674 42.7176 66.7694 42.8845 66.7694 43.0903C66.7694 43.296 66.5674 43.4627 66.3186 43.4627Z" fill="#FFD4E1"/>
<path d="M62.8207 42.8165C61.7803 42.6215 60.6938 42.6603 59.6534 42.5428C57.621 42.3866 55.5882 42.035 53.6506 41.4094" fill="white"/>
<path d="M62.7209 43.1799C62.2404 43.0896 61.7323 43.0511 61.2071 43.0222C60.6818 42.9929 60.1398 42.9736 59.5925 42.9119L59.6534 42.5427L59.6117 42.914C57.545 42.7548 55.4709 42.3966 53.4864 41.7568C53.2544 41.6816 53.14 41.4658 53.2306 41.2739C53.3209 41.0824 53.5827 40.9877 53.8143 41.0624C55.7061 41.6729 57.6972 42.0184 59.695 42.1721L59.7142 42.1735C60.2066 42.2294 60.7284 42.2493 61.2669 42.2788C61.8051 42.3083 62.3608 42.3483 62.9203 42.453C63.1628 42.4987 63.3154 42.6984 63.2601 42.8989C63.2052 43.0997 62.9634 43.2253 62.7205 43.1799" fill="#FFD4E1"/>
<path d="M48.2843 28.4409L47.5592 29.5995V30.1712H47.0497V29.5995L46.326 28.4409H46.9041L47.3087 29.1655L47.7118 28.4409H48.2843Z" fill="#FFD4E1"/>
<path d="M50.0566 29.4618C50.0566 29.5011 50.0531 29.5422 50.0468 29.5845H48.8948C48.9021 29.6701 48.9354 29.7358 48.9941 29.7812C49.0529 29.8261 49.1247 29.8484 49.2097 29.8484C49.3364 29.8484 49.4253 29.8041 49.4757 29.7153H50.0174C49.9894 29.8055 49.939 29.8871 49.8662 29.9595C49.7941 30.0321 49.7038 30.0888 49.5946 30.1296C49.4855 30.1707 49.363 30.191 49.2279 30.191C49.0645 30.191 48.9193 30.1626 48.7926 30.1053C48.6656 30.0474 48.5662 29.9653 48.4944 29.8588C48.4234 29.7517 48.3881 29.6267 48.3881 29.4838C48.3881 29.3411 48.4231 29.2164 48.493 29.1099C48.5637 29.0029 48.6628 28.9207 48.7898 28.8634C48.9165 28.8055 49.0627 28.7766 49.2279 28.7766C49.3882 28.7766 49.5309 28.805 49.6562 28.8611C49.7822 28.9167 49.8802 28.9962 49.9502 29.0995C50.0209 29.2031 50.0566 29.3238 50.0566 29.4618ZM49.5344 29.3507C49.5344 29.2783 49.5044 29.2208 49.4449 29.1782C49.3861 29.136 49.3119 29.1146 49.2223 29.1146C49.1362 29.1146 49.0641 29.1351 49.0053 29.1759C48.9473 29.217 48.9116 29.2752 48.8976 29.3507H49.5344Z" fill="#FFD4E1"/>
<path d="M50.2233 29.4815C50.2233 29.3403 50.2555 29.2164 50.3198 29.1099C50.3842 29.0029 50.4717 28.9207 50.583 28.8634C50.6939 28.8055 50.8182 28.7766 50.9553 28.7766C51.0729 28.7766 51.1754 28.7963 51.2633 28.8356C51.3518 28.875 51.4204 28.9268 51.469 28.9907V28.7963H51.9785V30.1713H51.469V29.9768C51.4186 30.0411 51.349 30.0926 51.2605 30.1319C51.1726 30.1713 51.0701 30.191 50.9525 30.191C50.8171 30.191 50.6939 30.162 50.583 30.1042C50.4717 30.0457 50.3842 29.9627 50.3198 29.8553C50.2555 29.7474 50.2233 29.6227 50.2233 29.4815ZM51.469 29.4838C51.469 29.379 51.4333 29.296 51.3627 29.2349C51.2916 29.1742 51.2059 29.1435 51.1051 29.1435C51.0033 29.1435 50.9168 29.1736 50.8462 29.2338C50.7762 29.294 50.7412 29.3767 50.7412 29.4815C50.7412 29.5865 50.7762 29.6698 50.8462 29.7315C50.9168 29.7934 51.0033 29.8241 51.1051 29.8241C51.2059 29.8241 51.2916 29.7937 51.3627 29.7326C51.4333 29.6719 51.469 29.5888 51.469 29.4838Z" fill="#FFD4E1"/>
<path d="M53.3689 28.7813C53.5599 28.7813 53.7132 28.8339 53.828 28.9387C53.9434 29.0428 54.0015 29.1861 54.0015 29.3681V30.1713H53.4948V29.4248C53.4948 29.3331 53.4658 29.2616 53.408 29.2107C53.35 29.1597 53.2726 29.1343 53.1757 29.1343C53.0784 29.1343 53.0011 29.1597 52.9433 29.2107C52.8852 29.2616 52.8566 29.3331 52.8566 29.4248V30.1713H52.347V28.3484H52.8566V28.9815C52.9076 28.9207 52.9783 28.8721 53.0679 28.8357C53.1575 28.7995 53.2576 28.7813 53.3689 28.7813Z" fill="#FFD4E1"/>
<path d="M54.9038 29.7825L54.5721 30.4896H54.2473L54.4209 29.7825H54.9038Z" fill="#FFD4E1"/>
<path d="M56.0978 28.6538C56.0082 28.6538 55.9347 28.6324 55.8781 28.589C55.8221 28.545 55.7941 28.4912 55.7941 28.4269C55.7941 28.3615 55.8221 28.3071 55.8781 28.2637C55.9347 28.2197 56.0082 28.1978 56.0978 28.1978C56.1853 28.1978 56.2574 28.2197 56.3134 28.2637C56.3701 28.3071 56.3988 28.3615 56.3988 28.4269C56.3988 28.4912 56.3701 28.545 56.3134 28.589C56.2574 28.6324 56.1853 28.6538 56.0978 28.6538ZM56.3512 28.7961V30.1711H55.8417V28.7961H56.3512Z" fill="#FFD4E1"/>
<path d="M57.6472 29.8137V30.1713H57.3882C57.2034 30.1713 57.0593 30.134 56.9557 30.0591C56.8521 29.9844 56.8003 29.8623 56.8003 29.6933V29.1459H56.5988V28.7963H56.8003V28.4607H57.3112V28.7963H57.6444V29.1459H57.3112V29.698C57.3112 29.739 57.3228 29.7686 57.3462 29.7871C57.3704 29.805 57.4099 29.8137 57.4652 29.8137H57.6472Z" fill="#FFD4E1"/>
<path d="M58.2843 28.2002L58.2465 28.7442H57.9036L57.8644 28.2002H58.2843Z" fill="#FFD4E1"/>
<path d="M59.2647 30.191C59.1198 30.191 58.9907 30.1707 58.877 30.1296C58.7639 30.0888 58.6747 30.0324 58.6096 29.9606C58.5442 29.8889 58.5074 29.8087 58.499 29.7199H59.0029C59.0085 29.7679 59.0351 29.8067 59.0827 29.8368C59.131 29.8663 59.1898 29.8808 59.2591 29.8808C59.3224 29.8808 59.3714 29.8709 59.4061 29.8507C59.4414 29.8299 59.4592 29.8029 59.4592 29.7697C59.4592 29.7303 59.434 29.7014 59.3837 29.6829C59.334 29.6638 59.2538 29.6424 59.1429 29.6192C59.0232 29.5961 58.9238 29.5718 58.8448 29.5463C58.7653 29.5208 58.6967 29.4809 58.639 29.4259C58.5809 29.3712 58.5522 29.2969 58.5522 29.2025C58.5522 29.1238 58.5781 29.0521 58.6306 28.9873C58.6838 28.9224 58.7615 28.8712 58.8644 28.8333C58.9669 28.7957 59.0887 28.7766 59.2297 28.7766C59.4375 28.7766 59.602 28.8194 59.7224 28.9051C59.8428 28.9902 59.9117 29.103 59.9296 29.2442H59.4592C59.4508 29.1973 59.425 29.1597 59.3823 29.1319C59.3403 29.1036 59.2843 29.0891 59.2143 29.0891C59.1545 29.0891 59.1086 29.0989 59.0771 29.118C59.0453 29.1366 59.0295 29.1626 59.0295 29.1956C59.0295 29.2349 59.0547 29.2647 59.1051 29.2847C59.1562 29.3041 59.2356 29.3238 59.3431 29.3437C59.4662 29.3701 59.5663 29.3958 59.644 29.4213C59.7213 29.4468 59.7889 29.4881 59.847 29.5451C59.9058 29.6016 59.9359 29.6771 59.938 29.772C59.938 29.8524 59.9103 29.9242 59.8554 29.9873C59.8011 30.0506 59.7227 30.1004 59.6202 30.1366C59.5184 30.1727 59.3998 30.191 59.2647 30.191Z" fill="#FFD4E1"/>
<path d="M61.9044 28.7813C62.0954 28.7813 62.2487 28.8339 62.3635 28.9387C62.479 29.0428 62.5371 29.1861 62.5371 29.3681V30.1713H62.0304V29.4248C62.0304 29.3331 62.0013 29.2616 61.9436 29.2107C61.8855 29.1597 61.8081 29.1343 61.7112 29.1343C61.6139 29.1343 61.5366 29.1597 61.4789 29.2107C61.4208 29.2616 61.3921 29.3331 61.3921 29.4248V30.1713H60.8826V28.3484H61.3921V28.9815C61.4432 28.9207 61.5139 28.8721 61.6034 28.8357C61.693 28.7995 61.7931 28.7813 61.9044 28.7813Z" fill="#FFD4E1"/>
<path d="M62.7898 29.4815C62.7898 29.3403 62.822 29.2164 62.8864 29.1099C62.9508 29.0029 63.0382 28.9207 63.1495 28.8634C63.2605 28.8055 63.3847 28.7766 63.5219 28.7766C63.6394 28.7766 63.742 28.7963 63.8298 28.8356C63.9183 28.875 63.9869 28.9268 64.0356 28.9907V28.7963H64.5451V30.1713H64.0356V29.9768C63.9852 30.0411 63.9155 30.0926 63.827 30.1319C63.7392 30.1713 63.6366 30.191 63.5191 30.191C63.3836 30.191 63.2605 30.162 63.1495 30.1042C63.0382 30.0457 62.9508 29.9627 62.8864 29.8553C62.822 29.7474 62.7898 29.6227 62.7898 29.4815ZM64.0356 29.4838C64.0356 29.379 63.9999 29.296 63.9292 29.2349C63.8581 29.1742 63.7724 29.1435 63.6716 29.1435C63.5698 29.1435 63.4834 29.1736 63.4127 29.2338C63.3427 29.294 63.3077 29.3767 63.3077 29.4815C63.3077 29.5865 63.3427 29.6698 63.4127 29.7315C63.4834 29.7934 63.5698 29.8241 63.6716 29.8241C63.7724 29.8241 63.8581 29.7937 63.9292 29.7326C63.9999 29.6719 64.0356 29.5888 64.0356 29.4838Z" fill="#FFD4E1"/>
<path d="M65.4231 29.0255C65.4826 28.9499 65.5575 28.8906 65.647 28.8472C65.7366 28.8032 65.836 28.7812 65.9452 28.7812V29.228H65.8052C65.6771 29.228 65.5816 29.2509 65.5183 29.2963C65.4546 29.3411 65.4231 29.4201 65.4231 29.5336V30.1713H64.9136V28.7963H65.4231V29.0255Z" fill="#FFD4E1"/>
<path d="M66.0879 29.4815C66.0879 29.3403 66.1201 29.2164 66.1845 29.11C66.2489 29.0029 66.3363 28.9207 66.4476 28.8634C66.5586 28.8056 66.6828 28.7766 66.82 28.7766C66.9291 28.7766 67.0289 28.7957 67.1195 28.8333C67.2098 28.8712 67.2812 28.9222 67.3337 28.9861V28.3484H67.8432V30.1713H67.3337V29.9745C67.285 30.0402 67.2164 30.0926 67.1279 30.132C67.0401 30.1713 66.9375 30.191 66.82 30.191C66.6828 30.191 66.5586 30.162 66.4476 30.1042C66.3363 30.0457 66.2489 29.9627 66.1845 29.8553C66.1201 29.7474 66.0879 29.6227 66.0879 29.4815ZM67.3337 29.4838C67.3337 29.3791 67.298 29.296 67.2273 29.235C67.1562 29.1742 67.0705 29.1435 66.9697 29.1435C66.8679 29.1435 66.7815 29.1736 66.7108 29.2338C66.6408 29.294 66.6058 29.3767 66.6058 29.4815C66.6058 29.5865 66.6408 29.6699 66.7108 29.7315C66.7815 29.7934 66.8679 29.8241 66.9697 29.8241C67.0705 29.8241 67.1562 29.7937 67.2273 29.7326C67.298 29.6719 67.3337 29.5888 67.3337 29.4838Z" fill="#FFD4E1"/>
<path d="M69.8566 28.7812C70.0504 28.7812 70.2058 28.8339 70.3227 28.9387C70.4392 29.0428 70.4976 29.1861 70.4976 29.3681V30.1713H69.9909V29.4248C69.9909 29.333 69.9619 29.2616 69.9041 29.2106C69.8461 29.1597 69.7687 29.1343 69.6718 29.1343C69.5745 29.1343 69.4972 29.1597 69.4394 29.2106C69.3813 29.2616 69.3526 29.333 69.3526 29.4248V30.1713H68.8431V28.7963H69.3526V28.9792C69.4037 28.9184 69.4734 28.8701 69.5612 28.8345C69.6487 28.7992 69.7474 28.7812 69.8566 28.7812Z" fill="#FFD4E1"/>
<path d="M71.6085 30.191C71.4451 30.191 71.2981 30.1626 71.1676 30.1053C71.0378 30.0474 70.9356 29.9653 70.8611 29.8588C70.7872 29.7517 70.7505 29.6267 70.7505 29.4838C70.7505 29.3426 70.7876 29.2185 70.8625 29.1111C70.9381 29.0032 71.0409 28.9207 71.1718 28.8634C71.3034 28.8055 71.4507 28.7766 71.6141 28.7766C71.7772 28.7766 71.9242 28.8055 72.055 28.8634C72.1866 28.9207 72.2895 29.0032 72.3644 29.1111C72.44 29.2185 72.4778 29.3426 72.4778 29.4838C72.4778 29.625 72.4393 29.7497 72.363 29.8576C72.2864 29.965 72.1817 30.0474 72.0494 30.1053C71.9179 30.1626 71.7709 30.191 71.6085 30.191ZM71.6085 29.8264C71.7055 29.8264 71.788 29.7972 71.8563 29.7384C71.9252 29.6791 71.9599 29.5943 71.9599 29.4838C71.9599 29.3735 71.9263 29.2891 71.8591 29.2303C71.7926 29.171 71.7111 29.1412 71.6141 29.1412C71.5151 29.1412 71.4325 29.1707 71.3664 29.2292C71.3009 29.287 71.2684 29.3721 71.2684 29.4838C71.2684 29.5943 71.3006 29.6791 71.365 29.7384C71.4294 29.7972 71.5105 29.8264 71.6085 29.8264Z" fill="#FFD4E1"/>
<path d="M73.6756 29.8137V30.1713H73.4167C73.2319 30.1713 73.0877 30.134 72.9841 30.0591C72.8806 29.9844 72.8288 29.8623 72.8288 29.6933V29.1459H72.6272V28.7963H72.8288V28.4607H73.3397V28.7963H73.6728V29.1459H73.3397V29.698C73.3397 29.739 73.3512 29.7686 73.3747 29.7871C73.3988 29.805 73.4383 29.8137 73.4936 29.8137H73.6756Z" fill="#FFD4E1"/>
<path d="M75.5168 29.8137V30.1713H75.2578C75.0731 30.1713 74.9289 30.134 74.8253 30.0591C74.7217 29.9844 74.6699 29.8623 74.6699 29.6933V29.1459H74.4684V28.7963H74.6699V28.4607H75.1809V28.7963H75.514V29.1459H75.1809V29.698C75.1809 29.739 75.1924 29.7686 75.2158 29.7871C75.24 29.805 75.2795 29.8137 75.3348 29.8137H75.5168Z" fill="#FFD4E1"/>
<path d="M76.557 30.191C76.3936 30.191 76.2466 30.1626 76.1161 30.1053C75.9863 30.0474 75.8841 29.9653 75.8096 29.8588C75.7357 29.7517 75.699 29.6267 75.699 29.4838C75.699 29.3426 75.7361 29.2185 75.811 29.1111C75.8865 29.0032 75.9894 28.9207 76.1203 28.8634C76.2519 28.8055 76.3992 28.7766 76.5626 28.7766C76.7257 28.7766 76.8727 28.8055 77.0035 28.8634C77.1351 28.9207 77.238 29.0032 77.3129 29.1111C77.3885 29.2185 77.4263 29.3426 77.4263 29.4838C77.4263 29.625 77.3878 29.7497 77.3115 29.8576C77.2348 29.965 77.1302 30.0474 76.9979 30.1053C76.8664 30.1626 76.7194 30.191 76.557 30.191ZM76.557 29.8264C76.6539 29.8264 76.7365 29.7972 76.8048 29.7384C76.8737 29.6791 76.9083 29.5943 76.9083 29.4838C76.9083 29.3735 76.8748 29.2891 76.8076 29.2303C76.7411 29.171 76.6595 29.1412 76.5626 29.1412C76.4636 29.1412 76.381 29.1707 76.3149 29.2292C76.2494 29.287 76.2169 29.3721 76.2169 29.4838C76.2169 29.5943 76.2491 29.6791 76.3135 29.7384C76.3778 29.7972 76.459 29.8264 76.557 29.8264Z" fill="#FFD4E1"/>
<path d="M78.8386 29.0255C78.8981 28.9499 78.973 28.8906 79.0626 28.8472C79.1521 28.8032 79.2515 28.7812 79.3607 28.7812V29.228H79.2207C79.0927 29.228 78.9971 29.2509 78.9338 29.2963C78.8701 29.3411 78.8386 29.4201 78.8386 29.5336V30.1713H78.3291V28.7963H78.8386V29.0255Z" fill="#FFD4E1"/>
<path d="M81.172 29.4618C81.172 29.5011 81.1685 29.5422 81.1622 29.5845H80.0102C80.0176 29.6701 80.0508 29.7358 80.1096 29.7812C80.1684 29.8261 80.2402 29.8484 80.3252 29.8484C80.4519 29.8484 80.5407 29.8041 80.5911 29.7153H81.1328C81.1048 29.8055 81.0545 29.8871 80.9817 29.9595C80.9096 30.0321 80.8193 30.0888 80.7101 30.1296C80.6009 30.1707 80.4785 30.191 80.3434 30.191C80.18 30.191 80.0347 30.1626 79.9081 30.1053C79.781 30.0474 79.6817 29.9653 79.6099 29.8588C79.5389 29.7517 79.5035 29.6267 79.5035 29.4838C79.5035 29.3411 79.5385 29.2164 79.6085 29.1099C79.6792 29.0029 79.7782 28.9207 79.9053 28.8634C80.0319 28.8055 80.1782 28.7766 80.3434 28.7766C80.5037 28.7766 80.6464 28.805 80.7717 28.8611C80.8977 28.9167 80.9957 28.9962 81.0656 29.0995C81.1363 29.2031 81.172 29.3238 81.172 29.4618ZM80.6499 29.3507C80.6499 29.2783 80.6198 29.2208 80.5603 29.1782C80.5016 29.136 80.4274 29.1146 80.3378 29.1146C80.2517 29.1146 80.1796 29.1351 80.1208 29.1759C80.0627 29.217 80.027 29.2752 80.013 29.3507H80.6499Z" fill="#FFD4E1"/>
<path d="M82.0708 28.7766C82.1884 28.7766 82.2909 28.7963 82.3788 28.8356C82.4673 28.875 82.5359 28.9268 82.5845 28.9907V28.7963H83.094V30.169C83.094 30.2954 83.0636 30.41 83.003 30.5127C82.9421 30.6152 82.8498 30.6968 82.7259 30.7569C82.6017 30.8177 82.4473 30.8484 82.2626 30.8484C82.0162 30.8484 81.8164 30.8 81.6635 30.7037C81.5102 30.6079 81.4227 30.478 81.4003 30.3136H81.9042C81.92 30.3669 81.9578 30.4086 82.0176 30.4386C82.0771 30.4687 82.1509 30.4838 82.2388 30.4838C82.3431 30.4838 82.4267 30.4586 82.4893 30.4086C82.5527 30.3591 82.5845 30.2792 82.5845 30.169V29.9745C82.5341 30.0388 82.4648 30.0908 82.3774 30.1308C82.2906 30.171 82.1884 30.191 82.0708 30.191C81.9336 30.191 81.8094 30.162 81.6985 30.1042C81.5872 30.0457 81.4997 29.9627 81.4353 29.8553C81.3709 29.7474 81.3387 29.6227 81.3387 29.4815C81.3387 29.3403 81.3709 29.2164 81.4353 29.1099C81.4997 29.0029 81.5872 28.9207 81.6985 28.8634C81.8094 28.8055 81.9336 28.7766 82.0708 28.7766ZM82.5845 29.4838C82.5845 29.379 82.5488 29.296 82.4781 29.2349C82.4071 29.1742 82.3214 29.1435 82.2206 29.1435C82.1187 29.1435 82.0323 29.1736 81.9616 29.2338C81.8916 29.294 81.8566 29.3767 81.8566 29.4815C81.8566 29.5865 81.8916 29.6698 81.9616 29.7315C82.0323 29.7934 82.1187 29.8241 82.2206 29.8241C82.3214 29.8241 82.4071 29.7937 82.4781 29.7326C82.5488 29.6719 82.5845 29.5888 82.5845 29.4838Z" fill="#FFD4E1"/>
<path d="M83.9719 29.0255C84.0314 28.9499 84.1063 28.8906 84.1959 28.8472C84.2854 28.8032 84.3848 28.7812 84.494 28.7812V29.228H84.354C84.226 29.228 84.1304 29.2509 84.0671 29.2963C84.0034 29.3411 83.9719 29.4201 83.9719 29.5336V30.1713H83.4624V28.7963H83.9719V29.0255Z" fill="#FFD4E1"/>
<path d="M86.3052 29.4618C86.3052 29.5011 86.3017 29.5422 86.2954 29.5845H85.1434C85.1508 29.6701 85.184 29.7358 85.2428 29.7812C85.3016 29.8261 85.3733 29.8484 85.4584 29.8484C85.585 29.8484 85.6739 29.8041 85.7243 29.7153H86.266C86.238 29.8055 86.1876 29.8871 86.1148 29.9595C86.0428 30.0321 85.9525 30.0888 85.8433 30.1296C85.7341 30.1707 85.6116 30.191 85.4766 30.191C85.3131 30.191 85.1679 30.1626 85.0412 30.1053C84.9142 30.0474 84.8148 29.9653 84.7431 29.8588C84.6721 29.7517 84.6367 29.6267 84.6367 29.4838C84.6367 29.3411 84.6717 29.2164 84.7417 29.1099C84.8124 29.0029 84.9114 28.9207 85.0384 28.8634C85.1651 28.8055 85.3114 28.7766 85.4766 28.7766C85.6368 28.7766 85.7796 28.805 85.9049 28.8611C86.0309 28.9167 86.1288 28.9962 86.1988 29.0995C86.2695 29.2031 86.3052 29.3238 86.3052 29.4618ZM85.7831 29.3507C85.7831 29.2783 85.753 29.2208 85.6935 29.1782C85.6347 29.136 85.5605 29.1146 85.471 29.1146C85.3849 29.1146 85.3128 29.1351 85.254 29.1759C85.1959 29.217 85.1602 29.2752 85.1462 29.3507H85.7831Z" fill="#FFD4E1"/>
<path d="M87.4995 29.8137V30.1713H87.2405C87.0557 30.1713 86.9116 30.134 86.808 30.0591C86.7044 29.9844 86.6526 29.8623 86.6526 29.6933V29.1459H86.451V28.7963H86.6526V28.4607H87.1635V28.7963H87.4967V29.1459H87.1635V29.698C87.1635 29.739 87.1751 29.7686 87.1985 29.7871C87.2227 29.805 87.2622 29.8137 87.3175 29.8137H87.4995Z" fill="#FFD4E1"/>
<path d="M56.9657 32.0857C56.8761 32.0857 56.8027 32.0642 56.746 32.0208C56.69 31.9769 56.662 31.923 56.662 31.8588C56.662 31.7934 56.69 31.739 56.746 31.6956C56.8027 31.6516 56.8761 31.6296 56.9657 31.6296C57.0532 31.6296 57.1253 31.6516 57.1813 31.6956C57.238 31.739 57.2667 31.7934 57.2667 31.8588C57.2667 31.923 57.238 31.9769 57.1813 32.0208C57.1253 32.0642 57.0532 32.0857 56.9657 32.0857ZM57.2191 32.228V33.603H56.7096V32.228H57.2191Z" fill="#FFD4E1"/>
<path d="M58.5151 33.2453V33.603H58.2561C58.0714 33.603 57.9272 33.5657 57.8236 33.4907C57.72 33.4161 57.6682 33.294 57.6682 33.125V32.5775H57.4667V32.228H57.6682V31.8923H58.1791V32.228H58.5123V32.5775H58.1791V33.1296C58.1791 33.1707 58.1907 33.2002 58.2141 33.2187C58.2383 33.2367 58.2778 33.2453 58.3331 33.2453H58.5151Z" fill="#FFD4E1"/>
<path d="M60.1056 33.6226C59.9608 33.6226 59.8316 33.6023 59.7179 33.5613C59.6049 33.5205 59.5156 33.464 59.4505 33.3923C59.3851 33.3205 59.3484 33.2404 59.34 33.1515H59.8439C59.8495 33.1996 59.8761 33.2383 59.9237 33.2684C59.9719 33.298 60.0307 33.3124 60.1 33.3124C60.1634 33.3124 60.2124 33.3026 60.247 33.2823C60.2823 33.2615 60.3002 33.2346 60.3002 33.2013C60.3002 33.162 60.275 33.133 60.2246 33.1145C60.1749 33.0954 60.0948 33.074 59.9838 33.0508C59.8642 33.0277 59.7648 33.0034 59.6857 32.9779C59.6063 32.9525 59.5377 32.9125 59.4799 32.8576C59.4219 32.8029 59.3932 32.7285 59.3932 32.6342C59.3932 32.5555 59.4191 32.4837 59.4715 32.4189C59.5247 32.3541 59.6024 32.3029 59.7053 32.265C59.8078 32.2273 59.9296 32.2083 60.0706 32.2083C60.2785 32.2083 60.443 32.2511 60.5633 32.3367C60.6837 32.4218 60.7527 32.5346 60.7705 32.6758H60.3002C60.2918 32.629 60.2659 32.5914 60.2232 32.5636C60.1812 32.5352 60.1252 32.5208 60.0552 32.5208C59.9954 32.5208 59.9496 32.5306 59.9181 32.5497C59.8862 32.5682 59.8705 32.5942 59.8705 32.6272C59.8705 32.6666 59.8957 32.6964 59.9461 32.7164C59.9971 32.7357 60.0766 32.7554 60.184 32.7754C60.3072 32.8017 60.4073 32.8275 60.485 32.8529C60.5623 32.8784 60.6298 32.9198 60.6879 32.9768C60.7467 33.0332 60.7768 33.1087 60.7789 33.2036C60.7789 33.2841 60.7513 33.3558 60.6963 33.4189C60.6421 33.4823 60.5637 33.532 60.4612 33.5682C60.3593 33.6044 60.2407 33.6226 60.1056 33.6226Z" fill="#FFD4E1"/>
<path d="M61.8493 33.6226C61.6858 33.6226 61.5389 33.5942 61.4083 33.537C61.2785 33.4791 61.1763 33.3969 61.1018 33.2904C61.028 33.1834 60.9912 33.0584 60.9912 32.9154C60.9912 32.7742 61.0283 32.6501 61.1032 32.5427C61.1788 32.4348 61.2817 32.3523 61.4125 32.2951C61.5441 32.2372 61.6914 32.2083 61.8549 32.2083C62.0179 32.2083 62.1649 32.2372 62.2958 32.2951C62.4273 32.3523 62.5302 32.4348 62.6051 32.5427C62.6807 32.6501 62.7185 32.7742 62.7185 32.9154C62.7185 33.0566 62.68 33.1813 62.6037 33.2893C62.5271 33.3966 62.4224 33.4791 62.2902 33.537C62.1586 33.5942 62.0116 33.6226 61.8493 33.6226ZM61.8493 33.258C61.9462 33.258 62.0288 33.2288 62.097 33.1701C62.1659 33.1107 62.2006 33.026 62.2006 32.9154C62.2006 32.8052 62.167 32.7207 62.0998 32.662C62.0333 32.6026 61.9518 32.5728 61.8549 32.5728C61.7558 32.5728 61.6732 32.6023 61.6071 32.6608C61.5417 32.7187 61.5091 32.8037 61.5091 32.9154C61.5091 33.026 61.5413 33.1107 61.6057 33.1701C61.6701 33.2288 61.7513 33.258 61.8493 33.258Z" fill="#FFD4E1"/>
<path d="M65.1119 32.2129C65.318 32.2129 65.4821 32.2647 65.6046 32.368C65.7267 32.4716 65.7879 32.6154 65.7879 32.7997V33.6029H65.2812V32.8564C65.2812 32.7679 65.2525 32.699 65.1959 32.6504C65.1399 32.6018 65.0618 32.5775 64.9621 32.5775C64.8631 32.5775 64.785 32.6018 64.7283 32.6504C64.6724 32.699 64.6444 32.7679 64.6444 32.8564V33.6029H64.1377V32.8564C64.1377 32.7679 64.109 32.699 64.0523 32.6504C63.9952 32.6018 63.9172 32.5775 63.8185 32.5775C63.7184 32.5775 63.64 32.6018 63.5834 32.6504C63.5274 32.699 63.4994 32.7679 63.4994 32.8564V33.6029H62.9899V32.2279H63.4994V32.4004C63.5505 32.3434 63.6177 32.298 63.7009 32.2638C63.7849 32.23 63.8794 32.2129 63.9851 32.2129C64.11 32.2129 64.2216 32.2355 64.3196 32.28C64.4183 32.324 64.496 32.3874 64.552 32.4698C64.6087 32.3943 64.6867 32.3327 64.7857 32.2846C64.8855 32.2369 64.9943 32.2129 65.1119 32.2129Z" fill="#FFD4E1"/>
<path d="M67.7126 32.8934C67.7126 32.9328 67.7091 32.9739 67.7028 33.0161H66.5508C66.5581 33.1018 66.5914 33.1675 66.6502 33.2129C66.7089 33.2577 66.7807 33.28 66.8657 33.28C66.9924 33.28 67.0813 33.2357 67.1317 33.1469H67.6734C67.6454 33.2372 67.595 33.3188 67.5222 33.3911C67.4501 33.4637 67.3598 33.5205 67.2506 33.5613C67.1415 33.6023 67.019 33.6226 66.8839 33.6226C66.7205 33.6226 66.5753 33.5942 66.4486 33.537C66.3216 33.4791 66.2222 33.3969 66.1504 33.2904C66.0794 33.1834 66.0441 33.0584 66.0441 32.9154C66.0441 32.7728 66.0791 32.6481 66.149 32.5416C66.2197 32.4345 66.3188 32.3523 66.4458 32.2951C66.5725 32.2372 66.7187 32.2083 66.8839 32.2083C67.0442 32.2083 67.187 32.2366 67.3122 32.2927C67.4382 32.3483 67.5362 32.4279 67.6062 32.5312C67.6769 32.6348 67.7126 32.7554 67.7126 32.8934ZM67.1905 32.7823C67.1905 32.71 67.1604 32.6524 67.1009 32.6099C67.0421 32.5676 66.9679 32.5462 66.8783 32.5462C66.7922 32.5462 66.7201 32.5668 66.6614 32.6076C66.6033 32.6486 66.5676 32.7068 66.5536 32.7823H67.1905Z" fill="#FFD4E1"/>
<path d="M68.9067 33.2453V33.603H68.6477C68.463 33.603 68.3188 33.5657 68.2152 33.4907C68.1116 33.4161 68.0598 33.294 68.0598 33.125V32.5775H67.8583V32.228H68.0598V31.8923H68.5707V32.228H68.9039V32.5775H68.5707V33.1296C68.5707 33.1707 68.5823 33.2002 68.6057 33.2187C68.6299 33.2367 68.6694 33.2453 68.7247 33.2453H68.9067Z" fill="#FFD4E1"/>
<path d="M69.4458 32.0857C69.3563 32.0857 69.2828 32.0642 69.2261 32.0208C69.1701 31.9769 69.1421 31.923 69.1421 31.8588C69.1421 31.7934 69.1701 31.739 69.2261 31.6956C69.2828 31.6516 69.3563 31.6296 69.4458 31.6296C69.5333 31.6296 69.6054 31.6516 69.6614 31.6956C69.7181 31.739 69.7468 31.7934 69.7468 31.8588C69.7468 31.923 69.7181 31.9769 69.6614 32.0208C69.6054 32.0642 69.5333 32.0857 69.4458 32.0857ZM69.6992 32.228V33.603H69.1897V32.228H69.6992Z" fill="#FFD4E1"/>
<path d="M72.1906 32.2129C72.3967 32.2129 72.5608 32.2647 72.6833 32.368C72.8054 32.4716 72.8667 32.6154 72.8667 32.7997V33.6029H72.36V32.8564C72.36 32.7679 72.3313 32.699 72.2746 32.6504C72.2186 32.6018 72.1406 32.5775 72.0408 32.5775C71.9418 32.5775 71.8638 32.6018 71.8071 32.6504C71.7511 32.699 71.7231 32.7679 71.7231 32.8564V33.6029H71.2164V32.8564C71.2164 32.7679 71.1877 32.699 71.131 32.6504C71.074 32.6018 70.9959 32.5775 70.8972 32.5775C70.7972 32.5775 70.7188 32.6018 70.6621 32.6504C70.6061 32.699 70.5781 32.7679 70.5781 32.8564V33.6029H70.0686V32.2279H70.5781V32.4004C70.6292 32.3434 70.6964 32.298 70.7797 32.2638C70.8637 32.23 70.9581 32.2129 71.0638 32.2129C71.1887 32.2129 71.3004 32.2355 71.3984 32.28C71.497 32.324 71.5747 32.3874 71.6307 32.4698C71.6874 32.3943 71.7654 32.3327 71.8645 32.2846C71.9642 32.2369 72.073 32.2129 72.1906 32.2129Z" fill="#FFD4E1"/>
<path d="M74.7913 32.8934C74.7913 32.9328 74.7878 32.9739 74.7815 33.0161H73.6295C73.6369 33.1018 73.6701 33.1675 73.7289 33.2129C73.7877 33.2577 73.8594 33.28 73.9444 33.28C74.0711 33.28 74.16 33.2357 74.2104 33.1469H74.7521C74.7241 33.2372 74.6737 33.3188 74.6009 33.3911C74.5288 33.4637 74.4386 33.5205 74.3294 33.5613C74.2202 33.6023 74.0977 33.6226 73.9626 33.6226C73.7992 33.6226 73.654 33.5942 73.5273 33.537C73.4003 33.4791 73.3009 33.3969 73.2292 33.2904C73.1581 33.1834 73.1228 33.0584 73.1228 32.9154C73.1228 32.7728 73.1578 32.6481 73.2278 32.5416C73.2985 32.4345 73.3975 32.3523 73.5245 32.2951C73.6512 32.2372 73.7975 32.2083 73.9626 32.2083C74.1229 32.2083 74.2657 32.2366 74.391 32.2927C74.5169 32.3483 74.6149 32.4279 74.6849 32.5312C74.7556 32.6348 74.7913 32.7554 74.7913 32.8934ZM74.2692 32.7823C74.2692 32.71 74.2391 32.6524 74.1796 32.6099C74.1208 32.5676 74.0466 32.5462 73.957 32.5462C73.871 32.5462 73.7989 32.5668 73.7401 32.6076C73.682 32.6486 73.6463 32.7068 73.6323 32.7823H74.2692Z" fill="#FFD4E1"/>
<path d="M75.7349 33.6226C75.59 33.6226 75.4609 33.6023 75.3472 33.5613C75.2341 33.5205 75.1449 33.464 75.0798 33.3923C75.0144 33.3205 74.9776 33.2404 74.9692 33.1515H75.4731C75.4787 33.1996 75.5053 33.2383 75.5529 33.2684C75.6012 33.298 75.66 33.3124 75.7293 33.3124C75.7926 33.3124 75.8416 33.3026 75.8763 33.2823C75.9116 33.2615 75.9295 33.2346 75.9295 33.2013C75.9295 33.162 75.9043 33.133 75.8539 33.1145C75.8042 33.0954 75.724 33.074 75.6131 33.0508C75.4934 33.0277 75.3941 33.0034 75.315 32.9779C75.2355 32.9525 75.167 32.9125 75.1092 32.8576C75.0511 32.8029 75.0224 32.7285 75.0224 32.6342C75.0224 32.5555 75.0483 32.4837 75.1008 32.4189C75.154 32.3541 75.2317 32.3029 75.3346 32.265C75.4371 32.2273 75.5589 32.2083 75.6999 32.2083C75.9078 32.2083 76.0722 32.2511 76.1926 32.3367C76.313 32.4218 76.3819 32.5346 76.3998 32.6758H75.9295C75.9211 32.629 75.8952 32.5914 75.8525 32.5636C75.8105 32.5352 75.7545 32.5208 75.6845 32.5208C75.6247 32.5208 75.5788 32.5306 75.5473 32.5497C75.5155 32.5682 75.4997 32.5942 75.4997 32.6272C75.4997 32.6666 75.5249 32.6964 75.5753 32.7164C75.6264 32.7357 75.7059 32.7554 75.8133 32.7754C75.9365 32.8017 76.0365 32.8275 76.1142 32.8529C76.1916 32.8784 76.2591 32.9198 76.3172 32.9768C76.376 33.0332 76.4061 33.1087 76.4082 33.2036C76.4082 33.2841 76.3805 33.3558 76.3256 33.4189C76.2713 33.4823 76.193 33.532 76.0904 33.5682C75.9886 33.6044 75.87 33.6226 75.7349 33.6226Z" fill="#FFD4E1"/>
<path d="M76.9591 33.6226C76.8703 33.6226 76.7975 33.6012 76.7408 33.5578C76.6837 33.5138 76.6554 33.46 76.6554 33.3958C76.6554 33.3304 76.6837 33.2754 76.7408 33.2314C76.7975 33.1869 76.8703 33.1643 76.9591 33.1643C77.0466 33.1643 77.1187 33.1869 77.1747 33.2314C77.2314 33.2754 77.2601 33.3304 77.2601 33.3958C77.2601 33.46 77.2314 33.5138 77.1747 33.5578C77.1187 33.6012 77.0466 33.6226 76.9591 33.6226Z" fill="#FFD4E1"/>
</svg>
