<svg width="10" height="10" viewBox="0 0 10 10" fill="none" xmlns="http://www.w3.org/2000/svg">
<path d="M3.33334 6.66675V4.58341M5.00001 6.66675V3.33341M6.66667 6.66675V5.83341M7.5 1.66675H2.50001C2.27899 1.66675 2.06703 1.75455 1.91075 1.91083C1.75447 2.06711 1.66667 2.27907 1.66667 2.50008V7.50008C1.66667 7.72109 1.75447 7.93306 1.91075 8.08934C2.06703 8.24562 2.27899 8.33341 2.50001 8.33341H7.5C7.72102 8.33341 7.93298 8.24562 8.08926 8.08934C8.24554 7.93306 8.33334 7.72109 8.33334 7.50008V2.50008C8.33334 2.27907 8.24554 2.06711 8.08926 1.91083C7.93298 1.75455 7.72102 1.66675 7.5 1.66675Z" stroke="black" stroke-width="0.833333" stroke-linecap="round" stroke-linejoin="round"/>
</svg>
