<svg width="16" height="16" viewBox="0 0 16 16" fill="none" xmlns="http://www.w3.org/2000/svg">
<path d="M14 13.3334C14 13.5103 13.9298 13.6798 13.8047 13.8049C13.6797 13.9299 13.5101 14.0001 13.3333 14.0001H2.66667C2.48986 14.0001 2.32029 13.9299 2.19526 13.8049C2.07024 13.6798 2 13.5103 2 13.3334V6.32678C1.99993 6.22519 2.02308 6.12493 2.06768 6.03365C2.11228 5.94237 2.17715 5.86249 2.25733 5.80012L7.59067 1.65145C7.7077 1.56041 7.85173 1.51099 8 1.51099C8.14827 1.51099 8.29231 1.56041 8.40933 1.65145L13.7427 5.80012C13.8229 5.86249 13.8877 5.94237 13.9323 6.03365C13.9769 6.12493 14.0001 6.22519 14 6.32678V13.3334Z" fill="black"/>
</svg>
