<svg width="6" height="5" viewBox="0 0 6 5" fill="none" xmlns="http://www.w3.org/2000/svg">
<path d="M2.86364 3.63636C3.20455 3.63636 3.49436 3.53697 3.73309 3.33818C3.97182 3.13939 4.09109 2.89788 4.09091 2.61364V1.59091H2.86364C2.52273 1.59091 2.233 1.69038 1.99445 1.88932C1.75591 2.08826 1.63655 2.3297 1.63636 2.61364C1.63636 2.71212 1.65227 2.80682 1.68409 2.89773C1.71591 2.98864 1.76364 3.07576 1.82727 3.15909L1.71818 3.25C1.66818 3.29167 1.64318 3.3447 1.64318 3.40909C1.64318 3.47348 1.66818 3.52652 1.71818 3.56818C1.76818 3.60985 1.83182 3.63068 1.90909 3.63068C1.98636 3.63068 2.05 3.60985 2.1 3.56818L2.20909 3.47727C2.30909 3.5303 2.41364 3.57008 2.52273 3.59659C2.63182 3.62311 2.74545 3.63636 2.86364 3.63636ZM2.86364 3.18182C2.82273 3.18182 2.78182 3.17803 2.74091 3.17045C2.7 3.16288 2.65909 3.15341 2.61818 3.14205L3.19091 2.65909C3.24091 2.61742 3.26591 2.56439 3.26591 2.5C3.26591 2.43561 3.24091 2.38258 3.19091 2.34091C3.14091 2.29924 3.07727 2.27841 3 2.27841C2.92273 2.27841 2.85909 2.29924 2.80909 2.34091L2.22955 2.81818C2.21591 2.78409 2.20455 2.75 2.19545 2.71591C2.18636 2.68182 2.18182 2.64773 2.18182 2.61364C2.18182 2.45455 2.24773 2.32008 2.37955 2.21023C2.51136 2.10038 2.67273 2.04545 2.86364 2.04545H3.54545V2.61364C3.54545 2.77273 3.47955 2.9072 3.34773 3.01705C3.21591 3.12689 3.05455 3.18182 2.86364 3.18182ZM3 5L2.05909 4.38636L0.879545 4.26705L0.736364 3.28409L0 2.5L0.736364 1.71591L0.879545 0.732955L2.05909 0.613636L3 0L3.94091 0.613636L5.12045 0.732955L5.26364 1.71591L6 2.5L5.26364 3.28409L5.12045 4.26705L3.94091 4.38636L3 5ZM3 4.42045L3.72273 3.95455L4.63636 3.85795L4.74545 3.10227L5.30455 2.5L4.74545 1.89773L4.62955 1.14205L3.72273 1.04545L3 0.579545L2.27727 1.04545L1.36364 1.14205L1.25455 1.89773L0.695455 2.5L1.25455 3.10227L1.37045 3.86364L2.27727 3.95455L3 4.42045Z" fill="black"/>
</svg>
