<svg width="16" height="16" viewBox="0 0 16 16" fill="none" xmlns="http://www.w3.org/2000/svg">
<path fill-rule="evenodd" clip-rule="evenodd" d="M3.3333 7.33333C3.3333 6.80805 3.43677 6.2879 3.63778 5.8026C3.8388 5.3173 4.13344 4.87634 4.50488 4.50491C4.87631 4.13347 5.31727 3.83883 5.80257 3.63782C6.28787 3.4368 6.80802 3.33333 7.3333 3.33333C7.85859 3.33333 8.37873 3.4368 8.86404 3.63782C9.34934 3.83883 9.7903 4.13347 10.1617 4.50491C10.5332 4.87634 10.8278 5.3173 11.0288 5.8026C11.2298 6.2879 11.3333 6.80805 11.3333 7.33333C11.3333 8.3942 10.9119 9.41161 10.1617 10.1618C9.41158 10.9119 8.39417 11.3333 7.3333 11.3333C6.27244 11.3333 5.25502 10.9119 4.50488 10.1618C3.75473 9.41161 3.3333 8.3942 3.3333 7.33333ZM7.3333 2C6.48454 2.00012 5.64807 2.20281 4.8934 2.59123C4.13873 2.97964 3.48765 3.54256 2.99429 4.2332C2.50093 4.92385 2.17953 5.72226 2.05679 6.5621C1.93405 7.40194 2.01353 8.25895 2.28862 9.06189C2.56371 9.86484 3.02646 10.5905 3.63841 11.1787C4.25037 11.7668 4.99386 12.2004 5.80709 12.4434C6.62032 12.6864 7.4798 12.7318 8.31411 12.5758C9.14841 12.4199 9.93345 12.067 10.604 11.5467L12.862 13.8047C12.9877 13.9261 13.1561 13.9933 13.3309 13.9918C13.5057 13.9903 13.6729 13.9202 13.7965 13.7965C13.9201 13.6729 13.9902 13.5057 13.9918 13.3309C13.9933 13.1561 13.9261 12.9877 13.8046 12.862L11.5466 10.604C12.1587 9.81564 12.5373 8.87135 12.6393 7.87851C12.7413 6.88567 12.5627 5.88413 12.1238 4.98776C11.6848 4.0914 11.0032 3.33619 10.1563 2.80802C9.30944 2.27984 8.33137 1.99989 7.3333 2ZM7.3333 10C8.04055 10 8.71882 9.71905 9.21892 9.21895C9.71902 8.71885 9.99997 8.04058 9.99997 7.33333C9.99997 6.62609 9.71902 5.94781 9.21892 5.44772C8.71882 4.94762 8.04055 4.66667 7.3333 4.66667C6.62606 4.66667 5.94778 4.94762 5.44769 5.44772C4.94759 5.94781 4.66664 6.62609 4.66664 7.33333C4.66664 8.04058 4.94759 8.71885 5.44769 9.21895C5.94778 9.71905 6.62606 10 7.3333 10Z" fill="black"/>
</svg>
