<svg xmlns="http://www.w3.org/2000/svg" xmlns:xlink="http://www.w3.org/1999/xlink" width="500" zoomAndPan="magnify" viewBox="0 0 375 374.999991" height="500" preserveAspectRatio="xMidYMid meet" version="1.0"><defs><clipPath id="94f09d1ee2"><path d="M 11.71875 88 L 26 88 L 26 277 L 11.71875 277 Z M 11.71875 88 " clip-rule="nonzero"/></clipPath></defs><path fill="#ae9fcf" d="M 210.464844 14.550781 C 131.753906 0.00390625 77.574219 29.027344 57.949219 48.042969 C 24.34375 80.597656 13.78125 113.679688 13.78125 223.476562 C 13.78125 289.910156 54.324219 314.53125 113.132812 338.148438 C 204.871094 374.988281 330.179688 314.878906 347.984375 208.0625 C 363.296875 116.203125 295.085938 30.1875 210.464844 14.550781 " fill-opacity="1" fill-rule="nonzero"/><path fill="#523762" d="M 163.960938 121.015625 L 17.605469 121.015625 L 17.605469 111.507812 L 163.960938 111.507812 L 163.960938 121.015625 " fill-opacity="1" fill-rule="nonzero"/><path fill="#523762" d="M 164.269531 151.621094 L 17.914062 151.621094 L 17.914062 146.242188 L 164.269531 146.242188 L 164.269531 151.621094 " fill-opacity="1" fill-rule="nonzero"/><path fill="#523762" d="M 163.648438 184.699219 L 17.296875 184.699219 L 17.296875 179.324219 L 163.648438 179.324219 L 163.648438 184.699219 " fill-opacity="1" fill-rule="nonzero"/><path fill="#523762" d="M 162.101562 222.742188 L 15.75 222.742188 L 15.75 217.367188 L 162.101562 217.367188 L 162.101562 222.742188 " fill-opacity="1" fill-rule="nonzero"/><path fill="#523762" d="M 158.390625 276.074219 L 12.035156 276.074219 L 12.035156 265.324219 L 158.390625 265.324219 L 158.390625 276.074219 " fill-opacity="1" fill-rule="nonzero"/><g clip-path="url(#94f09d1ee2)"><path fill="#523762" d="M 25.03125 276.074219 L 12.933594 276.074219 C 12.265625 276.074219 11.726562 275.535156 11.726562 274.867188 L 11.726562 88.351562 L 25.03125 88.351562 L 25.03125 276.074219 " fill-opacity="1" fill-rule="nonzero"/></g><path fill="#523762" d="M 62.777344 276.074219 L 55.355469 276.074219 L 55.355469 88.351562 L 62.777344 88.351562 L 62.777344 276.074219 " fill-opacity="1" fill-rule="nonzero"/><path fill="#523762" d="M 106.101562 275.660156 L 99.601562 275.660156 L 99.601562 87.9375 L 106.101562 87.9375 L 106.101562 275.660156 " fill-opacity="1" fill-rule="nonzero"/><path fill="#523762" d="M 146.011719 274.832031 L 139.515625 274.832031 L 139.515625 87.113281 L 146.011719 87.113281 L 146.011719 274.832031 " fill-opacity="1" fill-rule="nonzero"/><path fill="#523762" d="M 43.289062 183.867188 L 38.648438 183.867188 L 38.648438 149.546875 L 43.289062 149.546875 L 43.289062 183.867188 " fill-opacity="1" fill-rule="nonzero"/><path fill="#ae9fcf" d="M 185.519531 26.410156 L 185.519531 26 L 97.1875 26 L 97.1875 186.308594 L 185.519531 186.308594 L 185.519531 186.71875 L 273.855469 186.71875 L 273.855469 26.410156 L 185.519531 26.410156 " fill-opacity="1" fill-rule="nonzero"/><path fill="#230b41" d="M 186.097656 186.105469 L 273.242188 186.105469 L 273.242188 27.019531 L 185.519531 27.019531 C 185.253906 27.019531 185.027344 26.851562 184.941406 26.613281 L 97.800781 26.613281 L 97.800781 185.695312 L 185.519531 185.695312 C 185.789062 185.695312 186.015625 185.867188 186.097656 186.105469 Z M 273.855469 187.332031 L 185.519531 187.332031 C 185.253906 187.332031 185.027344 187.160156 184.941406 186.921875 L 97.1875 186.921875 C 96.847656 186.921875 96.574219 186.648438 96.574219 186.308594 L 96.574219 26 C 96.574219 25.660156 96.847656 25.386719 97.1875 25.386719 L 185.519531 25.386719 C 185.789062 25.386719 186.015625 25.554688 186.097656 25.796875 L 273.855469 25.796875 C 274.195312 25.796875 274.46875 26.070312 274.46875 26.410156 L 274.46875 186.71875 C 274.46875 187.054688 274.195312 187.332031 273.855469 187.332031 " fill-opacity="1" fill-rule="nonzero"/><path fill="#ae9fcf" d="M 273.851562 278.382812 L 100.027344 278.382812 L 97.628906 186.613281 L 273.851562 186.613281 L 273.851562 278.382812 " fill-opacity="1" fill-rule="nonzero"/><path fill="#230b41" d="M 100.625 277.769531 L 273.242188 277.769531 L 273.242188 187.230469 L 98.257812 187.230469 Z M 274.464844 278.996094 L 99.433594 278.996094 L 97 186 L 274.464844 186 L 274.464844 278.996094 " fill-opacity="1" fill-rule="nonzero"/><path fill="#ae9fcf" d="M 208.820312 25.785156 L 196.53125 25.785156 C 196.195312 25.785156 195.917969 25.511719 195.917969 25.171875 C 195.917969 24.832031 196.195312 24.558594 196.53125 24.558594 L 208.820312 24.558594 C 209.160156 24.558594 209.433594 24.832031 209.433594 25.171875 C 209.433594 25.511719 209.160156 25.785156 208.820312 25.785156 " fill-opacity="1" fill-rule="nonzero"/><path fill="#ae9fcf" d="M 227.773438 17.839844 L 215.488281 17.839844 C 215.148438 17.839844 214.875 17.566406 214.875 17.226562 C 214.875 16.886719 215.148438 16.613281 215.488281 16.613281 L 227.773438 16.613281 C 228.113281 16.613281 228.386719 16.886719 228.386719 17.226562 C 228.386719 17.566406 228.113281 17.839844 227.773438 17.839844 " fill-opacity="1" fill-rule="nonzero"/><path fill="#ae9fcf" d="M 250.371094 23.714844 L 238.082031 23.714844 C 237.746094 23.714844 237.46875 23.441406 237.46875 23.101562 C 237.46875 22.761719 237.746094 22.488281 238.082031 22.488281 L 250.371094 22.488281 C 250.710938 22.488281 250.984375 22.761719 250.984375 23.101562 C 250.984375 23.441406 250.710938 23.714844 250.371094 23.714844 " fill-opacity="1" fill-rule="nonzero"/><path fill="#523762" d="M 193.984375 277.5625 L 156.515625 277.5625 L 156.515625 203.957031 L 193.984375 203.957031 L 193.984375 277.5625 " fill-opacity="1" fill-rule="nonzero"/><path fill="#230b41" d="M 157.128906 276.953125 L 193.371094 276.953125 L 193.371094 204.570312 L 157.128906 204.570312 Z M 194.597656 278.175781 L 155.902344 278.175781 L 155.902344 203.34375 L 194.597656 203.34375 L 194.597656 278.175781 " fill-opacity="1" fill-rule="nonzero"/><path fill="#ae9fcf" d="M 190.210938 271.019531 L 159.789062 271.019531 L 159.789062 207.984375 L 190.210938 207.984375 L 190.210938 271.019531 " fill-opacity="1" fill-rule="nonzero"/><path fill="#523762" d="M 207.910156 115.554688 C 214.238281 115.554688 219.363281 120.851562 219.363281 127.390625 L 219.363281 164.308594 L 196.457031 164.308594 L 196.457031 127.390625 C 196.457031 120.851562 201.585938 115.554688 207.910156 115.554688 " fill-opacity="1" fill-rule="nonzero"/><path fill="#230b41" d="M 197.070312 163.699219 L 218.75 163.699219 L 218.75 127.390625 C 218.75 121.203125 213.890625 116.167969 207.910156 116.167969 C 201.933594 116.167969 197.070312 121.203125 197.070312 127.390625 Z M 219.976562 164.921875 L 195.84375 164.921875 L 195.84375 127.390625 C 195.84375 120.523438 201.257812 114.941406 207.910156 114.941406 C 214.5625 114.941406 219.976562 120.523438 219.976562 127.390625 L 219.976562 164.921875 " fill-opacity="1" fill-rule="nonzero"/><path fill="#ae9fcf" d="M 218.058594 127.320312 L 197.761719 153.089844 L 197.761719 160.898438 L 218.058594 136.695312 L 218.058594 127.320312 " fill-opacity="1" fill-rule="nonzero"/><path fill="#ffffff" d="M 207.910156 161.878906 C 207.570312 161.878906 207.296875 161.601562 207.296875 161.261719 L 207.296875 120.667969 C 207.296875 120.332031 207.570312 120.054688 207.910156 120.054688 C 208.25 120.054688 208.523438 120.332031 208.523438 120.667969 L 208.523438 161.261719 C 208.523438 161.601562 208.25 161.878906 207.910156 161.878906 " fill-opacity="1" fill-rule="nonzero"/><path fill="#523762" d="M 246.171875 115.550781 C 252.496094 115.550781 257.625 120.851562 257.625 127.390625 L 257.625 164.308594 L 234.71875 164.308594 L 234.71875 127.390625 C 234.71875 120.851562 239.847656 115.550781 246.171875 115.550781 " fill-opacity="1" fill-rule="nonzero"/><path fill="#230b41" d="M 235.332031 163.695312 L 257.007812 163.695312 L 257.007812 127.390625 C 257.007812 121.203125 252.148438 116.164062 246.171875 116.164062 C 240.195312 116.164062 235.332031 121.203125 235.332031 127.390625 Z M 258.238281 164.921875 L 234.105469 164.921875 L 234.105469 127.390625 C 234.105469 120.523438 239.519531 114.9375 246.171875 114.9375 C 252.824219 114.9375 258.238281 120.523438 258.238281 127.390625 L 258.238281 164.921875 " fill-opacity="1" fill-rule="nonzero"/><path fill="#ae9fcf" d="M 251.257812 124.707031 L 241.085938 138.535156 L 241.085938 142.898438 L 251.257812 130 L 251.257812 124.707031 " fill-opacity="1" fill-rule="nonzero"/><path fill="#ffffff" d="M 246.171875 161.878906 C 245.832031 161.878906 245.558594 161.601562 245.558594 161.261719 L 245.558594 120.667969 C 245.558594 120.332031 245.832031 120.054688 246.171875 120.054688 C 246.507812 120.054688 246.785156 120.332031 246.785156 120.667969 L 246.785156 161.261719 C 246.785156 161.601562 246.507812 161.878906 246.171875 161.878906 " fill-opacity="1" fill-rule="nonzero"/><path fill="#523762" d="M 207.910156 49.777344 C 214.238281 49.777344 219.367188 55.078125 219.367188 61.613281 L 219.367188 98.535156 L 196.460938 98.535156 L 196.460938 61.613281 C 196.460938 55.078125 201.585938 49.777344 207.910156 49.777344 " fill-opacity="1" fill-rule="nonzero"/><path fill="#230b41" d="M 197.074219 97.921875 L 218.75 97.921875 L 218.75 61.613281 C 218.75 55.425781 213.890625 50.390625 207.914062 50.390625 C 201.933594 50.390625 197.074219 55.425781 197.074219 61.613281 Z M 219.980469 99.148438 L 195.847656 99.148438 L 195.847656 61.613281 C 195.847656 54.75 201.257812 49.164062 207.914062 49.164062 C 214.5625 49.164062 219.980469 54.75 219.980469 61.613281 L 219.980469 99.148438 " fill-opacity="1" fill-rule="nonzero"/><path fill="#ae9fcf" d="M 218.0625 62.59375 L 197.761719 88.363281 L 197.761719 96.175781 L 218.0625 71.96875 L 218.0625 62.59375 " fill-opacity="1" fill-rule="nonzero"/><path fill="#ae9fcf" d="M 211.238281 58.910156 L 197.761719 75.703125 L 197.761719 80.296875 L 211.238281 64.183594 L 211.238281 58.910156 " fill-opacity="1" fill-rule="nonzero"/><path fill="#ffffff" d="M 207.910156 96.101562 C 207.574219 96.101562 207.296875 95.828125 207.296875 95.488281 L 207.296875 54.894531 C 207.296875 54.554688 207.574219 54.28125 207.910156 54.28125 C 208.25 54.28125 208.523438 54.554688 208.523438 54.894531 L 208.523438 95.488281 C 208.523438 95.828125 208.25 96.101562 207.910156 96.101562 " fill-opacity="1" fill-rule="nonzero"/><path fill="#523762" d="M 246.171875 49.777344 C 252.496094 49.777344 257.625 55.078125 257.625 61.613281 L 257.625 98.535156 L 234.71875 98.535156 L 234.71875 61.613281 C 234.71875 55.078125 239.847656 49.777344 246.171875 49.777344 " fill-opacity="1" fill-rule="nonzero"/><path fill="#230b41" d="M 235.332031 97.921875 L 257.007812 97.921875 L 257.007812 61.613281 C 257.007812 55.425781 252.148438 50.390625 246.171875 50.390625 C 240.195312 50.390625 235.332031 55.425781 235.332031 61.613281 Z M 258.238281 99.148438 L 234.105469 99.148438 L 234.105469 61.613281 C 234.105469 54.75 239.515625 49.164062 246.171875 49.164062 C 252.824219 49.164062 258.238281 54.75 258.238281 61.613281 L 258.238281 99.148438 " fill-opacity="1" fill-rule="nonzero"/><path fill="#ae9fcf" d="M 256.320312 62.59375 L 236.019531 88.363281 L 236.019531 96.175781 L 256.320312 71.96875 L 256.320312 62.59375 " fill-opacity="1" fill-rule="nonzero"/><path fill="#ae9fcf" d="M 251.253906 58.910156 L 241.085938 72.738281 L 241.085938 77.101562 L 251.253906 64.199219 L 251.253906 58.910156 " fill-opacity="1" fill-rule="nonzero"/><path fill="#ffffff" d="M 246.171875 96.101562 C 245.832031 96.101562 245.558594 95.828125 245.558594 95.488281 L 245.558594 54.894531 C 245.558594 54.554688 245.832031 54.28125 246.171875 54.28125 C 246.507812 54.28125 246.785156 54.554688 246.785156 54.894531 L 246.785156 95.488281 C 246.785156 95.828125 246.507812 96.101562 246.171875 96.101562 " fill-opacity="1" fill-rule="nonzero"/><path fill="#230b41" d="M 279.304688 32.214844 L 265.515625 10.53125 L 105.945312 10.179688 L 92.15625 31.867188 L 279.304688 32.214844 " fill-opacity="1" fill-rule="nonzero"/><path fill="#000000" d="M 93.269531 31.253906 L 278.1875 31.601562 L 265.179688 11.144531 L 106.28125 10.792969 Z M 279.304688 32.828125 L 92.15625 32.480469 C 91.929688 32.480469 91.726562 32.355469 91.617188 32.160156 C 91.511719 31.964844 91.519531 31.722656 91.636719 31.535156 L 105.429688 9.847656 C 105.542969 9.671875 105.738281 9.566406 105.945312 9.566406 C 105.945312 9.566406 105.945312 9.566406 105.949219 9.566406 L 265.515625 9.917969 C 265.722656 9.917969 265.917969 10.023438 266.03125 10.203125 L 279.824219 31.886719 C 279.941406 32.078125 279.949219 32.316406 279.84375 32.511719 C 279.734375 32.707031 279.53125 32.828125 279.304688 32.828125 " fill-opacity="1" fill-rule="nonzero"/><path fill="#ae9fcf" d="M 174.929688 25.433594 L 162.640625 25.433594 C 162.304688 25.433594 162.027344 25.160156 162.027344 24.820312 C 162.027344 24.484375 162.304688 24.207031 162.640625 24.207031 L 174.929688 24.207031 C 175.265625 24.207031 175.542969 24.484375 175.542969 24.820312 C 175.542969 25.160156 175.265625 25.433594 174.929688 25.433594 " fill-opacity="1" fill-rule="nonzero"/><path fill="#ae9fcf" d="M 155.976562 17.484375 L 143.6875 17.484375 C 143.347656 17.484375 143.074219 17.210938 143.074219 16.871094 C 143.074219 16.53125 143.347656 16.257812 143.6875 16.257812 L 155.976562 16.257812 C 156.3125 16.257812 156.589844 16.53125 156.589844 16.871094 C 156.589844 17.210938 156.3125 17.484375 155.976562 17.484375 " fill-opacity="1" fill-rule="nonzero"/><path fill="#ae9fcf" d="M 133.378906 23.363281 L 121.09375 23.363281 C 120.753906 23.363281 120.480469 23.089844 120.480469 22.75 C 120.480469 22.410156 120.753906 22.136719 121.09375 22.136719 L 133.378906 22.136719 C 133.71875 22.136719 133.992188 22.410156 133.992188 22.75 C 133.992188 23.089844 133.71875 23.363281 133.378906 23.363281 " fill-opacity="1" fill-rule="nonzero"/><path fill="#523762" d="M 125.292969 115.203125 C 131.617188 115.203125 136.746094 120.5 136.746094 127.039062 L 136.746094 163.960938 L 113.839844 163.960938 L 113.839844 127.039062 C 113.839844 120.5 118.964844 115.203125 125.292969 115.203125 " fill-opacity="1" fill-rule="nonzero"/><path fill="#230b41" d="M 114.453125 163.34375 L 136.128906 163.34375 L 136.128906 127.039062 C 136.128906 120.847656 131.269531 115.816406 125.292969 115.816406 C 119.3125 115.816406 114.453125 120.847656 114.453125 127.039062 Z M 137.359375 164.570312 L 113.226562 164.570312 L 113.226562 127.039062 C 113.226562 120.175781 118.636719 114.585938 125.292969 114.585938 C 131.945312 114.585938 137.359375 120.175781 137.359375 127.039062 L 137.359375 164.570312 " fill-opacity="1" fill-rule="nonzero"/><path fill="#ae9fcf" d="M 135.441406 126.96875 L 115.140625 152.738281 L 115.140625 160.550781 L 135.441406 136.34375 L 135.441406 126.96875 " fill-opacity="1" fill-rule="nonzero"/><path fill="#ffffff" d="M 125.292969 161.527344 C 124.953125 161.527344 124.675781 161.25 124.675781 160.914062 L 124.675781 120.316406 C 124.675781 119.976562 124.953125 119.703125 125.292969 119.703125 C 125.628906 119.703125 125.90625 119.976562 125.90625 120.316406 L 125.90625 160.914062 C 125.90625 161.25 125.628906 161.527344 125.292969 161.527344 " fill-opacity="1" fill-rule="nonzero"/><path fill="#523762" d="M 163.550781 115.203125 C 169.875 115.203125 175.003906 120.5 175.003906 127.039062 L 175.003906 163.960938 L 152.097656 163.960938 L 152.097656 127.039062 C 152.097656 120.5 157.226562 115.203125 163.550781 115.203125 " fill-opacity="1" fill-rule="nonzero"/><path fill="#230b41" d="M 152.710938 163.34375 L 174.390625 163.34375 L 174.390625 127.039062 C 174.390625 120.847656 169.527344 115.816406 163.550781 115.816406 C 157.574219 115.816406 152.710938 120.847656 152.710938 127.039062 Z M 175.617188 164.570312 L 151.484375 164.570312 L 151.484375 127.039062 C 151.484375 120.175781 156.898438 114.585938 163.550781 114.585938 C 170.203125 114.585938 175.617188 120.175781 175.617188 127.039062 L 175.617188 164.570312 " fill-opacity="1" fill-rule="nonzero"/><path fill="#ae9fcf" d="M 168.636719 124.355469 L 158.464844 138.183594 L 158.464844 142.546875 L 168.636719 129.648438 L 168.636719 124.355469 " fill-opacity="1" fill-rule="nonzero"/><path fill="#ffffff" d="M 163.550781 161.527344 C 163.210938 161.527344 162.9375 161.25 162.9375 160.914062 L 162.9375 120.316406 C 162.9375 119.976562 163.210938 119.703125 163.550781 119.703125 C 163.890625 119.703125 164.164062 119.976562 164.164062 120.316406 L 164.164062 160.914062 C 164.164062 161.25 163.890625 161.527344 163.550781 161.527344 " fill-opacity="1" fill-rule="nonzero"/><path fill="#523762" d="M 125.292969 49.425781 C 131.617188 49.425781 136.742188 54.726562 136.742188 61.265625 L 136.742188 98.183594 L 113.839844 98.183594 L 113.839844 61.265625 C 113.839844 54.726562 118.964844 49.425781 125.292969 49.425781 " fill-opacity="1" fill-rule="nonzero"/><path fill="#230b41" d="M 114.453125 97.570312 L 136.128906 97.570312 L 136.128906 61.265625 C 136.128906 55.074219 131.269531 50.039062 125.292969 50.039062 C 119.3125 50.039062 114.453125 55.074219 114.453125 61.265625 Z M 137.359375 98.796875 L 113.226562 98.796875 L 113.226562 61.265625 C 113.226562 54.398438 118.636719 48.8125 125.292969 48.8125 C 131.945312 48.8125 137.359375 54.398438 137.359375 61.265625 L 137.359375 98.796875 " fill-opacity="1" fill-rule="nonzero"/><path fill="#ae9fcf" d="M 135.441406 62.242188 L 115.140625 88.015625 L 115.140625 95.824219 L 135.441406 71.617188 L 135.441406 62.242188 " fill-opacity="1" fill-rule="nonzero"/><path fill="#ae9fcf" d="M 128.617188 58.558594 L 115.140625 75.355469 L 115.140625 79.945312 L 128.617188 63.835938 L 128.617188 58.558594 " fill-opacity="1" fill-rule="nonzero"/><path fill="#ffffff" d="M 125.289062 95.75 C 124.953125 95.75 124.675781 95.476562 124.675781 95.140625 L 124.675781 54.542969 C 124.675781 54.203125 124.953125 53.929688 125.289062 53.929688 C 125.628906 53.929688 125.902344 54.203125 125.902344 54.542969 L 125.902344 95.140625 C 125.902344 95.476562 125.628906 95.75 125.289062 95.75 " fill-opacity="1" fill-rule="nonzero"/><path fill="#523762" d="M 163.550781 49.425781 C 169.875 49.425781 175.003906 54.726562 175.003906 61.265625 L 175.003906 98.183594 L 152.097656 98.183594 L 152.097656 61.265625 C 152.097656 54.726562 157.226562 49.425781 163.550781 49.425781 " fill-opacity="1" fill-rule="nonzero"/><path fill="#230b41" d="M 152.710938 97.570312 L 174.390625 97.570312 L 174.390625 61.265625 C 174.390625 55.074219 169.527344 50.039062 163.550781 50.039062 C 157.574219 50.039062 152.710938 55.074219 152.710938 61.265625 Z M 175.617188 98.796875 L 151.484375 98.796875 L 151.484375 61.265625 C 151.484375 54.398438 156.898438 48.8125 163.550781 48.8125 C 170.203125 48.8125 175.617188 54.398438 175.617188 61.265625 L 175.617188 98.796875 " fill-opacity="1" fill-rule="nonzero"/><path fill="#ae9fcf" d="M 173.699219 62.242188 L 153.402344 88.015625 L 153.402344 95.824219 L 173.699219 71.617188 L 173.699219 62.242188 " fill-opacity="1" fill-rule="nonzero"/><path fill="#ae9fcf" d="M 168.636719 58.558594 L 158.464844 72.390625 L 158.464844 76.753906 L 168.636719 63.851562 L 168.636719 58.558594 " fill-opacity="1" fill-rule="nonzero"/><path fill="#ffffff" d="M 163.550781 95.75 C 163.210938 95.75 162.9375 95.476562 162.9375 95.140625 L 162.9375 54.542969 C 162.9375 54.203125 163.210938 53.929688 163.550781 53.929688 C 163.886719 53.929688 164.164062 54.203125 164.164062 54.542969 L 164.164062 95.140625 C 164.164062 95.476562 163.886719 95.75 163.550781 95.75 " fill-opacity="1" fill-rule="nonzero"/><path fill="#523762" d="M 245.058594 199.074219 C 254.355469 199.074219 261.890625 206.609375 261.890625 215.902344 L 261.890625 268.390625 L 228.226562 268.390625 L 228.226562 215.902344 C 228.226562 206.609375 235.761719 199.074219 245.058594 199.074219 " fill-opacity="1" fill-rule="nonzero"/><path fill="#ae9fcf" d="M 259.015625 219.8125 L 234.390625 249.652344 L 234.390625 259.628906 L 259.015625 231.21875 L 259.015625 219.8125 " fill-opacity="1" fill-rule="nonzero"/><path fill="#ffffff" d="M 245.058594 263.113281 C 244.71875 263.113281 244.445312 262.839844 244.445312 262.5 L 244.445312 206.34375 C 244.445312 206.003906 244.71875 205.730469 245.058594 205.730469 C 245.394531 205.730469 245.671875 206.003906 245.671875 206.34375 L 245.671875 262.5 C 245.671875 262.839844 245.394531 263.113281 245.058594 263.113281 " fill-opacity="1" fill-rule="nonzero"/><path fill="#523762" d="M 127.1875 198.957031 C 136.484375 198.957031 144.019531 206.492188 144.019531 215.785156 L 144.019531 268.273438 L 110.355469 268.273438 L 110.355469 215.785156 C 110.355469 206.492188 117.890625 198.957031 127.1875 198.957031 " fill-opacity="1" fill-rule="nonzero"/><path fill="#230b41" d="M 110.96875 267.664062 L 143.402344 267.664062 L 143.402344 215.785156 C 143.402344 206.84375 136.128906 199.566406 127.1875 199.566406 C 118.246094 199.566406 110.96875 206.84375 110.96875 215.785156 Z M 144.632812 268.886719 L 109.742188 268.886719 L 109.742188 215.785156 C 109.742188 206.167969 117.570312 198.34375 127.1875 198.34375 C 136.804688 198.34375 144.632812 206.167969 144.632812 215.785156 L 144.632812 268.886719 " fill-opacity="1" fill-rule="nonzero"/><path fill="#ae9fcf" d="M 141.144531 219.695312 L 116.519531 249.535156 L 116.519531 259.511719 L 141.144531 231.101562 L 141.144531 219.695312 " fill-opacity="1" fill-rule="nonzero"/><path fill="#ffffff" d="M 127.1875 262.996094 C 126.847656 262.996094 126.574219 262.722656 126.574219 262.382812 L 126.574219 206.226562 C 126.574219 205.886719 126.847656 205.613281 127.1875 205.613281 C 127.523438 205.613281 127.800781 205.886719 127.800781 206.226562 L 127.800781 262.382812 C 127.800781 262.722656 127.523438 262.996094 127.1875 262.996094 " fill-opacity="1" fill-rule="nonzero"/><path fill="#523762" d="M 277.375 180.273438 L 94.171875 180.273438 L 94.171875 189.554688 L 277.375 189.554688 L 277.375 180.273438 " fill-opacity="1" fill-rule="nonzero"/><path fill="#230b41" d="M 94.785156 188.9375 L 276.765625 188.9375 L 276.765625 180.886719 L 94.785156 180.886719 Z M 94.171875 190.164062 C 94.007812 190.164062 93.851562 190.101562 93.738281 189.988281 C 93.621094 189.871094 93.558594 189.714844 93.558594 189.550781 L 93.558594 180.273438 C 93.558594 179.9375 93.832031 179.664062 94.171875 179.664062 L 277.378906 179.660156 C 277.539062 179.660156 277.695312 179.726562 277.8125 179.839844 C 277.925781 179.953125 277.992188 180.113281 277.992188 180.273438 L 277.992188 189.550781 C 277.992188 189.890625 277.714844 190.164062 277.378906 190.164062 L 94.171875 190.164062 " fill-opacity="1" fill-rule="nonzero"/><path fill="#230b41" d="M 185.851562 179.042969 C 185.511719 179.042969 185.238281 178.773438 185.238281 178.4375 L 184.253906 36.398438 C 184.25 36.058594 184.523438 35.78125 184.863281 35.777344 C 184.867188 35.777344 184.867188 35.777344 184.867188 35.777344 C 185.203125 35.777344 185.480469 36.050781 185.480469 36.386719 L 186.464844 178.425781 C 186.464844 178.765625 186.191406 179.042969 185.855469 179.042969 C 185.855469 179.042969 185.851562 179.042969 185.851562 179.042969 " fill-opacity="1" fill-rule="nonzero"/><path fill="#523762" d="M 199.726562 280.367188 L 151.277344 280.367188 C 150.765625 280.367188 150.351562 279.953125 150.351562 279.441406 L 150.351562 271.074219 C 150.351562 270.5625 150.765625 270.144531 151.277344 270.144531 L 199.726562 270.144531 C 200.238281 270.144531 200.652344 270.5625 200.652344 271.074219 L 200.652344 279.441406 C 200.652344 279.953125 200.238281 280.367188 199.726562 280.367188 " fill-opacity="1" fill-rule="nonzero"/><path fill="#230b41" d="M 152.394531 270.757812 C 151.605469 270.757812 150.964844 271.402344 150.964844 272.1875 L 150.964844 278.324219 C 150.964844 279.113281 151.605469 279.753906 152.394531 279.753906 L 198.609375 279.753906 C 199.398438 279.753906 200.039062 279.113281 200.039062 278.324219 L 200.039062 272.1875 C 200.039062 271.402344 199.398438 270.757812 198.609375 270.757812 Z M 198.609375 280.984375 L 152.394531 280.984375 C 150.929688 280.984375 149.738281 279.789062 149.738281 278.324219 L 149.738281 272.1875 C 149.738281 270.722656 150.929688 269.53125 152.394531 269.53125 L 198.609375 269.53125 C 200.074219 269.53125 201.265625 270.722656 201.265625 272.1875 L 201.265625 278.324219 C 201.265625 279.789062 200.074219 280.984375 198.609375 280.984375 " fill-opacity="1" fill-rule="nonzero"/><path fill="#ffffff" d="M 194.902344 180.542969 L 215.675781 170.128906 C 232.574219 161.652344 248.230469 151.003906 262.257812 138.441406 L 263.023438 131.992188 C 263.023438 131.992188 270.222656 132.070312 271.753906 131.980469 C 273.71875 131.871094 275.746094 132.558594 277.316406 134.03125 C 293.785156 149.503906 312.347656 162.5625 332.394531 172.792969 L 346.578125 180.035156 C 349.875 181.714844 351.1875 184.679688 350.398438 188.945312 L 335.554688 265.539062 C 328.582031 286.96875 298.023438 315.640625 280.773438 330.570312 C 277.636719 333.28125 273.714844 334.609375 269.753906 334.585938 C 268 334.574219 260.738281 334.804688 260.738281 334.804688 C 260.738281 334.804688 259.066406 331.742188 256.9375 329.671875 C 240.160156 313.335938 210.601562 281.886719 203.820312 257.125 L 191.390625 188.660156 C 190.492188 185.386719 191.949219 182.023438 194.902344 180.542969 " fill-opacity="1" fill-rule="nonzero"/><path fill="#000000" d="M 204.417969 256.988281 C 211.160156 281.554688 240.484375 312.792969 257.371094 329.230469 C 259.144531 330.960938 260.589844 333.316406 261.089844 334.179688 C 262.605469 334.132812 268.226562 333.964844 269.757812 333.96875 C 273.703125 333.996094 277.464844 332.621094 280.375 330.105469 C 297.792969 315.035156 328.039062 286.59375 334.960938 265.382812 L 349.800781 188.824219 C 350.535156 184.855469 349.390625 182.15625 346.300781 180.578125 L 332.117188 173.339844 C 312.003906 163.074219 293.425781 150 276.894531 134.476562 C 275.507812 133.171875 273.640625 132.488281 271.792969 132.59375 C 270.488281 132.667969 265.292969 132.625 263.566406 132.609375 L 262.871094 138.511719 C 262.851562 138.660156 262.78125 138.796875 262.667969 138.894531 C 248.609375 151.488281 232.894531 162.179688 215.949219 170.675781 L 195.175781 181.089844 L 194.902344 180.542969 L 195.175781 181.089844 C 192.472656 182.445312 191.160156 185.492188 191.984375 188.496094 C 191.988281 188.515625 191.992188 188.53125 191.996094 188.550781 Z M 260.738281 335.417969 C 260.511719 335.417969 260.304688 335.296875 260.199219 335.097656 C 260.183594 335.066406 258.546875 332.089844 256.511719 330.109375 C 239.535156 313.578125 210.035156 282.136719 203.230469 257.285156 C 203.222656 257.265625 203.222656 257.25 203.214844 257.234375 L 190.792969 188.796875 C 189.828125 185.226562 191.402344 181.609375 194.628906 179.992188 L 215.402344 169.578125 C 232.175781 161.164062 247.742188 150.589844 261.679688 138.136719 L 262.414062 131.917969 C 262.453125 131.609375 262.714844 131.375 263.023438 131.375 C 263.027344 131.375 263.027344 131.375 263.03125 131.375 C 263.101562 131.375 270.226562 131.453125 271.722656 131.367188 C 273.917969 131.242188 276.105469 132.050781 277.734375 133.582031 C 294.179688 149.027344 312.664062 162.035156 332.675781 172.25 L 346.859375 179.488281 C 350.445312 181.316406 351.839844 184.539062 351.007812 189.054688 L 336.160156 265.65625 C 336.15625 265.679688 336.148438 265.703125 336.140625 265.726562 C 329.144531 287.226562 298.703125 315.871094 281.179688 331.03125 C 278.039062 333.746094 273.976562 335.21875 269.753906 335.199219 C 268.027344 335.183594 260.828125 335.414062 260.757812 335.417969 C 260.75 335.417969 260.742188 335.417969 260.738281 335.417969 " fill-opacity="1" fill-rule="nonzero"/><path fill="#230b41" d="M 186.882812 180.953125 L 207.492188 170.621094 C 224.265625 162.210938 239.800781 151.644531 253.714844 139.179688 L 258.941406 134.5 C 261.65625 132.066406 265.878906 132.199219 268.65625 134.804688 C 285 150.152344 303.417969 163.113281 323.308594 173.265625 L 337.382812 180.449219 C 340.652344 182.117188 342.277344 185.902344 341.175781 189.289062 L 326.441406 265.289062 C 319.523438 286.550781 288.878906 315.269531 271.761719 330.078125 C 265.132812 335.8125 254.992188 335.300781 248.441406 328.921875 C 231.792969 312.710938 202.460938 281.511719 195.730469 256.9375 L 183.398438 189.007812 C 182.511719 185.761719 183.953125 182.421875 186.882812 180.953125 " fill-opacity="1" fill-rule="nonzero"/><path fill="#523762" d="M 200.207031 189.976562 L 217.269531 181.421875 C 231.15625 174.460938 244.015625 165.710938 255.539062 155.386719 L 259.863281 151.515625 C 262.117188 149.5 265.609375 149.609375 267.910156 151.769531 C 281.441406 164.476562 296.6875 175.207031 313.15625 183.613281 L 324.8125 189.558594 C 327.519531 190.941406 328.863281 194.074219 327.949219 196.878906 L 315.753906 259.804688 C 310.027344 277.40625 284.652344 301.1875 270.480469 313.449219 C 264.992188 318.199219 256.597656 317.773438 251.171875 312.492188 C 237.386719 299.070312 213.101562 273.234375 207.53125 252.890625 L 197.320312 196.648438 C 196.582031 193.957031 197.777344 191.195312 200.207031 189.976562 " fill-opacity="1" fill-rule="nonzero"/><path fill="#000000" d="M 260.945312 334.640625 C 256.308594 334.640625 251.605469 332.863281 248.011719 329.363281 C 231.164062 312.957031 201.890625 281.761719 195.140625 257.101562 C 195.136719 257.082031 195.128906 257.066406 195.128906 257.050781 L 191.941406 239.488281 C 191.878906 239.15625 192.101562 238.835938 192.433594 238.777344 C 192.765625 238.714844 193.085938 238.9375 193.148438 239.269531 L 196.332031 256.800781 C 203.019531 281.175781 232.113281 312.171875 248.867188 328.484375 C 255.148438 334.597656 265.027344 335.09375 271.359375 329.617188 C 288.765625 314.554688 318.980469 286.160156 325.847656 265.132812 L 340.570312 189.171875 C 340.574219 189.144531 340.582031 189.121094 340.589844 189.097656 C 341.59375 186.007812 340.097656 182.523438 337.101562 180.996094 L 323.027344 173.8125 C 303.066406 163.625 284.632812 150.652344 268.234375 135.253906 C 265.714844 132.886719 261.808594 132.753906 259.347656 134.957031 L 255.738281 138.191406 C 255.484375 138.417969 255.097656 138.398438 254.871094 138.144531 C 254.644531 137.894531 254.667969 137.503906 254.917969 137.277344 L 258.53125 134.042969 C 261.511719 131.375 266.042969 131.511719 269.074219 134.359375 C 285.390625 149.679688 303.730469 162.585938 323.585938 172.71875 L 337.65625 179.902344 C 341.175781 181.699219 342.933594 185.792969 341.769531 189.441406 L 327.046875 265.40625 C 327.039062 265.429688 327.03125 265.453125 327.027344 265.476562 C 320.089844 286.789062 289.675781 315.390625 272.160156 330.542969 C 268.988281 333.289062 264.988281 334.640625 260.945312 334.640625 " fill-opacity="1" fill-rule="nonzero"/><path fill="#000000" d="M 193.453125 178.273438 C 193.226562 178.273438 193.011719 178.148438 192.902344 177.933594 C 192.75 177.632812 192.871094 177.265625 193.175781 177.113281 L 207.21875 170.070312 C 217.710938 164.8125 227.8125 158.640625 237.253906 151.734375 C 237.527344 151.535156 237.910156 151.59375 238.109375 151.867188 C 238.308594 152.140625 238.25 152.523438 237.976562 152.722656 C 228.484375 159.671875 218.320312 165.878906 207.769531 171.167969 L 193.726562 178.210938 C 193.636719 178.253906 193.542969 178.273438 193.453125 178.273438 " fill-opacity="1" fill-rule="nonzero"/><path fill="#523762" d="M 298 330.085938 L 176.738281 328.027344 C 156.71875 331.257812 150.15625 329.152344 153.914062 336.953125 C 154.261719 337.675781 155.664062 338.328125 156.429688 338.566406 C 159.605469 339.550781 162.546875 339.839844 168.585938 339.984375 C 205.640625 340.878906 274.1875 338.820312 294.246094 336.488281 C 297.316406 336.132812 299.191406 332.941406 298 330.085938 " fill-opacity="1" fill-rule="nonzero"/><path fill="#000000" d="M 176.785156 328.640625 C 171.644531 329.46875 167.394531 329.945312 163.984375 330.332031 C 158.070312 330.996094 154.5 331.394531 153.707031 332.828125 C 153.308594 333.554688 153.546875 334.777344 154.464844 336.683594 C 154.675781 337.121094 155.765625 337.71875 156.613281 337.980469 C 159.605469 338.90625 162.292969 339.21875 168.601562 339.371094 C 206.773438 340.292969 274.960938 338.113281 294.175781 335.878906 C 295.445312 335.734375 296.542969 335.015625 297.191406 333.914062 C 297.769531 332.925781 297.902344 331.773438 297.566406 330.695312 Z M 189.082031 340.816406 C 181.683594 340.816406 174.738281 340.746094 168.570312 340.597656 C 162.210938 340.445312 159.332031 340.109375 156.25 339.152344 C 155.453125 338.90625 153.824219 338.1875 153.359375 337.21875 C 152.222656 334.859375 152.007812 333.367188 152.636719 332.230469 C 153.734375 330.246094 157.113281 329.867188 163.84375 329.113281 C 167.261719 328.726562 171.507812 328.25 176.640625 327.421875 C 176.675781 327.417969 176.714844 327.414062 176.75 327.414062 L 298.011719 329.472656 C 298.257812 329.480469 298.472656 329.625 298.570312 329.851562 C 299.207031 331.390625 299.09375 333.097656 298.25 334.535156 C 297.40625 335.972656 295.972656 336.90625 294.316406 337.097656 C 278.175781 338.976562 227.542969 340.816406 189.082031 340.816406 " fill-opacity="1" fill-rule="nonzero"/><path fill="#ffffff" d="M 297.796875 327.253906 L 176.539062 325.195312 C 156.515625 328.425781 150.636719 331.074219 153.710938 334.117188 C 154.277344 334.679688 155.011719 335.058594 155.789062 335.257812 C 159.546875 336.21875 162.34375 337.003906 168.382812 337.152344 C 205.4375 338.046875 273.984375 335.984375 294.042969 333.65625 C 297.113281 333.300781 298.984375 330.105469 297.796875 327.253906 " fill-opacity="1" fill-rule="nonzero"/><path fill="#000000" d="M 176.582031 325.808594 C 161.976562 328.167969 154.242188 330.394531 153.59375 332.421875 C 153.550781 332.554688 153.417969 332.964844 154.140625 333.679688 C 154.605469 334.140625 155.230469 334.480469 155.941406 334.660156 L 156.472656 334.800781 C 159.960938 335.691406 162.714844 336.398438 168.398438 336.535156 C 206.570312 337.460938 274.761719 335.277344 293.972656 333.046875 C 295.242188 332.898438 296.339844 332.179688 296.988281 331.078125 C 297.566406 330.09375 297.699219 328.9375 297.367188 327.859375 Z M 188.878906 337.980469 C 181.480469 337.980469 174.535156 337.914062 168.367188 337.765625 C 162.546875 337.621094 159.730469 336.902344 156.167969 335.988281 L 155.636719 335.851562 C 154.714844 335.613281 153.898438 335.167969 153.277344 334.550781 C 152.445312 333.726562 152.15625 332.882812 152.421875 332.046875 C 153.054688 330.085938 156.398438 327.824219 176.4375 324.585938 C 176.472656 324.582031 176.507812 324.578125 176.546875 324.578125 L 297.8125 326.640625 C 298.054688 326.644531 298.273438 326.792969 298.367188 327.019531 C 299.003906 328.558594 298.890625 330.261719 298.046875 331.699219 C 297.203125 333.136719 295.769531 334.074219 294.113281 334.265625 C 277.972656 336.140625 227.335938 337.980469 188.878906 337.980469 " fill-opacity="1" fill-rule="nonzero"/><path fill="#ffffff" d="M 176.539062 325.195312 C 176.269531 322.703125 176.136719 320.171875 176.179688 317.601562 C 176.753906 283.851562 206.308594 258.21875 240.0625 258.789062 C 273.816406 259.363281 298.984375 285.925781 298.410156 319.679688 C 298.367188 322.25 298.148438 324.773438 297.796875 327.253906 C 247.417969 330.109375 202.84375 330.898438 176.539062 325.195312 " fill-opacity="1" fill-rule="nonzero"/><path fill="#000000" d="M 177.097656 324.6875 C 205.921875 330.8125 256.335938 328.980469 297.257812 326.671875 C 297.578125 324.277344 297.761719 321.921875 297.796875 319.671875 C 298.375 285.882812 273.546875 259.972656 240.050781 259.402344 C 205.722656 258.820312 177.347656 284.933594 176.792969 317.613281 C 176.757812 319.886719 176.855469 322.261719 177.097656 324.6875 Z M 233.242188 330.066406 C 211.394531 330.066406 191.074219 328.972656 176.40625 325.792969 C 176.144531 325.738281 175.953125 325.519531 175.925781 325.257812 C 175.644531 322.632812 175.523438 320.054688 175.566406 317.59375 C 175.84375 301.273438 182.839844 286.101562 195.265625 274.871094 C 207.488281 263.820312 223.394531 257.890625 240.070312 258.175781 C 256.527344 258.457031 271.613281 264.917969 282.550781 276.371094 C 293.457031 287.785156 299.304688 303.171875 299.027344 319.691406 C 298.984375 322.152344 298.773438 324.726562 298.40625 327.339844 C 298.363281 327.628906 298.125 327.847656 297.832031 327.867188 C 277.417969 329.023438 254.601562 330.066406 233.242188 330.066406 " fill-opacity="1" fill-rule="nonzero"/><path fill="#000000" d="M 289.566406 320.753906 C 289.257812 320.753906 288.992188 320.519531 288.960938 320.203125 C 285.816406 288.328125 261.035156 270.972656 238.183594 270.300781 C 218.179688 269.71875 192.742188 282.128906 186.90625 319.046875 C 186.851562 319.382812 186.535156 319.613281 186.203125 319.558594 C 185.867188 319.503906 185.640625 319.191406 185.691406 318.855469 C 188.265625 302.578125 195.023438 289.34375 205.238281 280.582031 C 214.308594 272.804688 226.023438 268.71875 238.21875 269.078125 C 250.757812 269.441406 262.832031 274.351562 272.21875 282.894531 C 282.496094 292.25 288.703125 305.109375 290.179688 320.082031 C 290.210938 320.417969 289.964844 320.71875 289.628906 320.75 C 289.605469 320.753906 289.585938 320.753906 289.566406 320.753906 " fill-opacity="1" fill-rule="nonzero"/><path fill="#230b41" d="M 247.949219 337.847656 L 248.164062 331.476562 C 271.734375 339.121094 308.257812 344.21875 346.484375 331.476562 L 346.269531 337.847656 C 323.335938 355.472656 251.132812 347.613281 247.949219 337.847656 " fill-opacity="1" fill-rule="nonzero"/><path fill="#000000" d="M 248.566406 337.75 C 248.949219 338.738281 250.628906 340.613281 257.367188 342.703125 C 277.257812 348.855469 326.949219 351.589844 345.667969 337.535156 L 345.84375 332.332031 C 328.65625 337.949219 310.480469 340.4375 291.808594 339.734375 C 273.4375 339.039062 258.371094 335.367188 248.746094 332.308594 Z M 298.644531 348.914062 C 282.351562 348.914062 266.386719 346.777344 257.003906 343.871094 C 251.296875 342.105469 248.050781 340.144531 247.367188 338.035156 C 247.34375 337.96875 247.335938 337.898438 247.335938 337.828125 L 247.550781 331.457031 C 247.558594 331.265625 247.652344 331.082031 247.808594 330.972656 C 247.96875 330.863281 248.167969 330.832031 248.351562 330.894531 C 266.890625 336.90625 304.269531 344.902344 346.289062 330.894531 C 346.484375 330.832031 346.691406 330.863281 346.851562 330.984375 C 347.011719 331.105469 347.105469 331.296875 347.097656 331.496094 L 346.886719 337.871094 C 346.878906 338.050781 346.792969 338.222656 346.648438 338.335938 C 336.5625 346.085938 317.386719 348.914062 298.644531 348.914062 " fill-opacity="1" fill-rule="nonzero"/><path fill="#230b41" d="M 346.484375 330.628906 C 346.484375 335.90625 324.582031 341.667969 297.429688 341.667969 C 270.28125 341.667969 248.164062 335.90625 248.164062 330.628906 C 248.164062 325.351562 270.175781 321.074219 297.324219 321.074219 C 324.476562 321.074219 346.484375 325.351562 346.484375 330.628906 " fill-opacity="1" fill-rule="nonzero"/><path fill="#000000" d="M 297.324219 321.6875 C 268.714844 321.6875 248.773438 326.398438 248.773438 330.628906 C 248.773438 334.78125 268.179688 341.054688 297.429688 341.054688 C 326.550781 341.054688 345.871094 334.78125 345.871094 330.628906 C 345.871094 326.398438 325.933594 321.6875 297.324219 321.6875 Z M 297.429688 342.28125 C 284.632812 342.28125 272.21875 341.019531 262.472656 338.722656 C 256.898438 337.410156 247.546875 334.617188 247.546875 330.628906 C 247.546875 324.023438 273.195312 320.457031 297.324219 320.457031 C 321.457031 320.457031 347.097656 324.023438 347.097656 330.628906 C 347.097656 336.835938 323.886719 342.28125 297.429688 342.28125 " fill-opacity="1" fill-rule="nonzero"/><path fill="#230b41" d="M 324.949219 330.1875 C 304.222656 336.921875 284.609375 336.625 266.019531 329.855469 C 263.328125 328.878906 261.84375 325.996094 262.609375 323.238281 L 293.160156 213.332031 C 293.480469 212.179688 295.097656 212.15625 295.453125 213.296875 L 329.214844 321.871094 C 330.292969 325.34375 328.40625 329.0625 324.949219 330.1875 " fill-opacity="1" fill-rule="nonzero"/><path fill="#ffffff" d="M 324.789062 307.648438 L 317.90625 285.511719 C 302.003906 291.183594 288.074219 292.417969 273.441406 284.304688 L 267.445312 307.40625 C 285.234375 315.460938 306.480469 314.566406 324.789062 307.648438 " fill-opacity="1" fill-rule="nonzero"/><path fill="#ffffff" d="M 311.957031 266.367188 L 304.617188 242.765625 C 298.183594 244.589844 291.289062 245.132812 284.832031 243.296875 L 278.71875 265.285156 C 281.960938 266.695312 285.71875 267.082031 288.957031 267.730469 C 296.640625 268.859375 304.617188 268.679688 311.957031 266.367188 " fill-opacity="1" fill-rule="nonzero"/><path fill="#000000" d="M 324.949219 330.1875 L 324.953125 330.1875 Z M 294.3125 213.066406 C 294.3125 213.066406 294.308594 213.066406 294.304688 213.066406 C 294.203125 213.066406 293.859375 213.105469 293.75 213.492188 L 263.203125 323.402344 C 262.527344 325.835938 263.855469 328.414062 266.230469 329.28125 C 284.859375 336.0625 304.554688 336.167969 324.761719 329.601562 C 327.875 328.59375 329.609375 325.203125 328.632812 322.054688 L 294.867188 213.476562 C 294.75 213.101562 294.421875 213.066406 294.3125 213.066406 Z M 295.375 335.675781 C 285.292969 335.675781 275.414062 333.929688 265.808594 330.433594 C 262.839844 329.351562 261.175781 326.117188 262.019531 323.074219 L 292.570312 213.164062 C 292.789062 212.375 293.464844 211.855469 294.285156 211.839844 C 295.089844 211.832031 295.796875 212.328125 296.039062 213.113281 L 329.800781 321.691406 C 330.980469 325.480469 328.886719 329.550781 325.140625 330.769531 C 315.074219 334.039062 305.132812 335.675781 295.375 335.675781 " fill-opacity="1" fill-rule="nonzero"/><path fill="#ffffff" d="M 77.542969 67.960938 C 77.636719 76.007812 71.191406 82.605469 63.144531 82.699219 C 55.097656 82.792969 48.5 76.347656 48.40625 68.300781 C 48.3125 60.253906 54.757812 53.65625 62.804688 53.566406 C 70.851562 53.46875 77.449219 59.917969 77.542969 67.960938 " fill-opacity="1" fill-rule="nonzero"/><path fill="#000000" d="M 62.976562 54.175781 C 62.921875 54.175781 62.867188 54.175781 62.8125 54.175781 C 59.085938 54.222656 55.597656 55.714844 52.992188 58.378906 C 50.386719 61.046875 48.976562 64.566406 49.019531 68.296875 C 49.109375 75.933594 55.351562 82.085938 62.972656 82.089844 C 63.027344 82.089844 63.082031 82.085938 63.136719 82.085938 C 66.863281 82.042969 70.351562 80.550781 72.957031 77.882812 C 75.5625 75.21875 76.972656 71.695312 76.929688 67.96875 C 76.839844 60.332031 70.59375 54.175781 62.976562 54.175781 Z M 62.972656 83.3125 C 54.683594 83.316406 47.890625 76.621094 47.792969 68.308594 C 47.746094 64.253906 49.28125 60.421875 52.113281 57.523438 C 54.949219 54.621094 58.742188 53 62.796875 52.949219 C 62.855469 52.949219 62.917969 52.949219 62.976562 52.949219 C 71.265625 52.949219 78.058594 59.644531 78.15625 67.957031 C 78.203125 72.011719 76.667969 75.839844 73.835938 78.742188 C 71 81.640625 67.207031 83.265625 63.152344 83.3125 C 63.089844 83.3125 63.03125 83.3125 62.972656 83.3125 " fill-opacity="1" fill-rule="nonzero"/><path fill="#000000" d="M 62 75.121094 C 61.773438 75.121094 61.5625 74.996094 61.457031 74.789062 L 56.660156 65.65625 C 56.503906 65.359375 56.621094 64.984375 56.917969 64.828125 C 57.21875 64.671875 57.589844 64.789062 57.746094 65.085938 L 61.78125 72.773438 C 63.109375 67.503906 64.851562 63.574219 67.09375 60.789062 C 67.308594 60.523438 67.695312 60.484375 67.957031 60.699219 C 68.222656 60.910156 68.261719 61.296875 68.050781 61.558594 C 65.738281 64.425781 63.90625 68.828125 62.597656 74.640625 C 62.539062 74.890625 62.335938 75.082031 62.078125 75.113281 C 62.050781 75.117188 62.023438 75.121094 62 75.121094 " fill-opacity="1" fill-rule="nonzero"/><path fill="#000000" d="M 330.042969 143.710938 C 329.761719 143.710938 329.507812 143.511719 329.445312 143.226562 C 323.597656 115.054688 302.144531 89.515625 293.191406 79.84375 C 292.960938 79.597656 292.976562 79.207031 293.222656 78.976562 C 293.472656 78.746094 293.859375 78.761719 294.09375 79.011719 C 303.113281 88.757812 324.738281 114.503906 330.648438 142.976562 C 330.714844 143.308594 330.503906 143.628906 330.171875 143.699219 C 330.128906 143.710938 330.085938 143.710938 330.042969 143.710938 " fill-opacity="1" fill-rule="nonzero"/><path fill="#000000" d="M 336.828125 137.441406 C 336.5625 137.441406 336.316406 137.261719 336.242188 136.992188 C 329.984375 114.613281 316.023438 94.660156 308.261719 84.757812 C 308.054688 84.492188 308.097656 84.105469 308.363281 83.894531 C 308.632812 83.6875 309.015625 83.734375 309.226562 84 C 317.046875 93.976562 331.109375 114.078125 337.421875 136.660156 C 337.511719 136.988281 337.324219 137.328125 337 137.417969 C 336.941406 137.433594 336.886719 137.441406 336.828125 137.441406 " fill-opacity="1" fill-rule="nonzero"/><path fill="#000000" d="M 328.324219 148.035156 L 334.191406 152.320312 L 334.566406 146.480469 Z M 335.277344 154.628906 L 325.480469 147.484375 L 335.898438 144.882812 L 335.277344 154.628906 " fill-opacity="1" fill-rule="nonzero"/><path fill="#000000" d="M 232.714844 180.386719 C 211.929688 204.015625 175.929688 206.316406 152.304688 185.53125 C 128.679688 164.75 126.375 128.75 147.160156 105.125 C 167.945312 81.5 203.945312 79.195312 227.570312 99.980469 C 251.195312 120.761719 253.496094 156.761719 232.714844 180.386719 Z M 231.261719 95.78125 C 205.316406 72.960938 165.785156 75.488281 142.960938 101.429688 C 120.140625 127.375 122.667969 166.90625 148.613281 189.730469 C 174.554688 212.554688 214.085938 210.023438 236.910156 184.082031 C 259.734375 158.136719 257.203125 118.605469 231.261719 95.78125 " fill-opacity="1" fill-rule="nonzero"/><path fill="#000000" d="M 84.421875 258.789062 L 88.183594 262.097656 C 89.875 263.589844 92.457031 263.421875 93.945312 261.730469 L 151.304688 196.523438 L 141.417969 187.824219 L 84.054688 253.03125 C 82.566406 254.722656 82.730469 257.300781 84.421875 258.789062 " fill-opacity="1" fill-rule="nonzero"/><path fill="#ae9fcf" d="M 117.945312 230.230469 C 117.800781 230.230469 117.65625 230.179688 117.539062 230.078125 C 117.285156 229.855469 117.261719 229.464844 117.484375 229.210938 L 122.183594 223.871094 C 122.40625 223.617188 122.792969 223.59375 123.046875 223.816406 C 123.300781 224.042969 123.328125 224.429688 123.101562 224.683594 L 118.40625 230.019531 C 118.285156 230.160156 118.117188 230.230469 117.945312 230.230469 " fill-opacity="1" fill-rule="nonzero"/><path fill="#ae9fcf" d="M 90.652344 259.507812 C 89.710938 259.507812 88.765625 259.179688 88.003906 258.507812 C 86.347656 257.050781 86.183594 254.511719 87.644531 252.851562 L 92.921875 246.851562 C 93.144531 246.597656 93.53125 246.574219 93.785156 246.796875 C 94.039062 247.023438 94.066406 247.410156 93.839844 247.664062 L 88.566406 253.660156 C 87.550781 254.8125 87.664062 256.574219 88.816406 257.589844 C 89.96875 258.601562 91.730469 258.488281 92.742188 257.335938 L 111.28125 236.265625 C 111.503906 236.011719 111.890625 235.984375 112.144531 236.210938 C 112.398438 236.433594 112.425781 236.820312 112.203125 237.074219 L 93.664062 258.144531 C 92.871094 259.046875 91.765625 259.507812 90.652344 259.507812 " fill-opacity="1" fill-rule="nonzero"/><path fill="#ffffff" d="M 208.957031 96.65625 C 208.882812 96.65625 208.804688 96.644531 208.730469 96.613281 C 204.171875 94.765625 199.367188 93.605469 194.449219 93.167969 C 194.113281 93.136719 193.863281 92.839844 193.890625 92.503906 C 193.921875 92.167969 194.226562 91.917969 194.558594 91.945312 C 199.597656 92.394531 204.519531 93.582031 209.1875 95.476562 C 209.503906 95.601562 209.65625 95.960938 209.527344 96.277344 C 209.429688 96.511719 209.203125 96.65625 208.957031 96.65625 " fill-opacity="1" fill-rule="nonzero"/><path fill="#ffffff" d="M 189.96875 193.8125 C 177.988281 193.8125 165.964844 189.632812 156.28125 181.117188 C 148.601562 174.363281 143.183594 165.578125 140.613281 155.71875 C 140.527344 155.390625 140.722656 155.054688 141.050781 154.972656 C 141.378906 154.882812 141.714844 155.082031 141.800781 155.410156 C 144.308594 165.03125 149.597656 173.601562 157.09375 180.195312 C 177.71875 198.339844 209.257812 196.320312 227.402344 175.695312 C 245.546875 155.070312 243.527344 123.527344 222.902344 105.386719 C 222.652344 105.164062 222.625 104.773438 222.847656 104.519531 C 223.070312 104.265625 223.460938 104.242188 223.714844 104.464844 C 244.847656 123.054688 246.914062 155.371094 228.324219 176.503906 C 218.25 187.957031 204.140625 193.8125 189.96875 193.8125 " fill-opacity="1" fill-rule="nonzero"/><path fill="#ffffff" d="M 105.601562 147.277344 C 106.515625 147.203125 111 156.390625 125.035156 156.003906 C 139.070312 155.621094 150.328125 139.917969 150.328125 139.917969 C 150.328125 139.917969 155.175781 131.742188 158.855469 128.789062 C 162.53125 125.832031 163.109375 125.441406 163.109375 125.441406 C 163.109375 125.441406 164.261719 126.980469 163.109375 128.789062 C 161.957031 130.59375 158.773438 133.976562 158.773438 133.976562 C 158.773438 133.976562 162.28125 135.902344 160.699219 139.917969 C 158.878906 144.527344 153.75 144.160156 153.75 144.160156 C 153.75 144.160156 143.347656 190.226562 100.339844 168.335938 L 105.601562 147.277344 " fill-opacity="1" fill-rule="nonzero"/><path fill="#000000" d="M 101.054688 168.007812 C 113.535156 174.261719 124.410156 175.296875 133.378906 171.085938 C 148.484375 163.996094 153.109375 144.222656 153.152344 144.023438 C 153.21875 143.726562 153.484375 143.523438 153.796875 143.546875 C 153.988281 143.558594 158.5 143.816406 160.125 139.691406 C 161.484375 136.246094 158.597656 134.582031 158.476562 134.515625 C 158.308594 134.421875 158.195312 134.257812 158.167969 134.070312 C 158.136719 133.886719 158.195312 133.695312 158.324219 133.558594 C 158.355469 133.523438 161.484375 130.195312 162.59375 128.457031 C 163.125 127.621094 163.046875 126.863281 162.890625 126.375 C 162.328125 126.804688 161.253906 127.648438 159.238281 129.265625 C 155.691406 132.117188 150.90625 140.148438 150.855469 140.226562 C 150.847656 140.246094 150.839844 140.257812 150.828125 140.273438 C 150.359375 140.925781 139.226562 156.230469 125.050781 156.617188 C 113.617188 156.933594 108.441406 151.136719 106.222656 148.664062 C 106.136719 148.566406 106.046875 148.464844 105.960938 148.371094 Z M 121.667969 174.851562 C 115.097656 174.851562 107.875 172.859375 100.0625 168.882812 C 99.808594 168.75 99.675781 168.464844 99.746094 168.1875 L 105.007812 147.128906 C 105.070312 146.871094 105.289062 146.683594 105.554688 146.664062 C 106.039062 146.625 106.386719 147.007812 107.136719 147.84375 C 109.242188 150.191406 114.164062 155.6875 125.019531 155.390625 C 138.367188 155.023438 149.351562 140.214844 149.816406 139.578125 C 150.167969 138.988281 154.8125 131.246094 158.46875 128.308594 C 162.125 125.375 162.742188 124.949219 162.765625 124.933594 C 163.035156 124.75 163.402344 124.8125 163.597656 125.074219 C 163.65625 125.152344 164.992188 126.976562 163.628906 129.117188 C 162.722656 130.539062 160.65625 132.835938 159.707031 133.871094 C 161.015625 134.910156 162.472656 137.089844 161.269531 140.140625 C 159.664062 144.207031 155.664062 144.722656 154.230469 144.773438 C 153.40625 147.898438 148.199219 165.484375 133.902344 172.195312 C 130.128906 173.96875 126.042969 174.851562 121.667969 174.851562 " fill-opacity="1" fill-rule="nonzero"/><path fill="#000000" d="M 36.042969 168.335938 C 36.042969 168.335938 40.253906 141.152344 55.132812 134.464844 C 70.015625 127.773438 90.144531 128.703125 95.695312 132.046875 C 101.246094 135.386719 115.714844 150.484375 115.714844 150.484375 L 105.4375 170.765625 C 105.4375 170.765625 101.742188 186.953125 99.433594 199.636719 C 99.433594 199.636719 89.320312 230.726562 83.285156 228.351562 C 77.253906 225.976562 59.816406 215.945312 52.984375 200.519531 L 49.660156 166.171875 L 36.042969 168.335938 " fill-opacity="1" fill-rule="nonzero"/><path fill="#230b41" d="M 64.429688 200.199219 L 67.058594 153.613281 C 67.074219 152.371094 68.089844 151.371094 69.332031 151.371094 L 96.136719 151.371094 C 97.382812 151.371094 98.394531 152.375 98.410156 153.621094 L 98.929688 201.140625 L 64.429688 200.199219 " fill-opacity="1" fill-rule="nonzero"/><path fill="#000000" d="M 65.078125 199.601562 L 98.308594 200.511719 L 97.796875 153.625 C 97.785156 152.71875 97.042969 151.984375 96.136719 151.984375 L 69.332031 151.984375 C 68.429688 151.984375 67.683594 152.71875 67.671875 153.625 Z M 98.929688 201.753906 C 98.921875 201.753906 98.917969 201.753906 98.914062 201.753906 L 64.414062 200.8125 C 64.246094 200.808594 64.089844 200.734375 63.976562 200.613281 C 63.867188 200.492188 63.808594 200.328125 63.816406 200.164062 L 66.445312 153.582031 C 66.464844 152.035156 67.761719 150.757812 69.332031 150.757812 L 96.136719 150.757812 C 97.710938 150.757812 99.003906 152.039062 99.023438 153.613281 L 99.542969 201.132812 C 99.542969 201.300781 99.476562 201.460938 99.359375 201.578125 C 99.246094 201.691406 99.089844 201.753906 98.929688 201.753906 " fill-opacity="1" fill-rule="nonzero"/><path fill="#230b41" d="M 71.109375 156.21875 C 71.078125 156.21875 71.042969 156.21875 71.007812 156.214844 C 69.914062 156.160156 69.074219 155.230469 69.128906 154.132812 C 69.691406 143.191406 67.253906 138.316406 65.109375 136.15625 C 63.191406 134.21875 59.433594 132.789062 59.425781 132.785156 C 58.328125 132.832031 61.476562 131.582031 62.570312 131.535156 C 62.941406 131.519531 64.777344 130.1875 67.925781 133.363281 C 71.863281 137.332031 73.601562 144.390625 73.089844 154.339844 C 73.035156 155.398438 72.160156 156.21875 71.109375 156.21875 " fill-opacity="1" fill-rule="nonzero"/><path fill="#000000" d="M 62.542969 130.921875 C 62.539062 130.921875 62.535156 130.921875 62.53125 130.921875 C 62.535156 130.921875 62.539062 130.921875 62.542969 130.921875 Z M 59.425781 132.785156 L 59.429688 132.785156 Z M 60.695312 132.652344 C 62.019531 133.25 64.1875 134.355469 65.542969 135.722656 C 67.777344 137.976562 70.316406 143 69.742188 154.167969 C 69.703125 154.921875 70.285156 155.566406 71.039062 155.605469 L 71.109375 155.605469 C 71.839844 155.605469 72.441406 155.035156 72.476562 154.308594 C 72.980469 144.539062 71.300781 137.636719 67.488281 133.792969 C 65.054688 131.339844 63.625 131.835938 63.011719 132.046875 C 62.867188 132.097656 62.738281 132.140625 62.597656 132.148438 C 62.175781 132.167969 61.363281 132.410156 60.695312 132.652344 Z M 71.109375 156.832031 C 71.066406 156.832031 71.023438 156.832031 70.976562 156.832031 C 69.546875 156.757812 68.441406 155.53125 68.515625 154.101562 C 69.066406 143.386719 66.730469 138.664062 64.671875 136.585938 C 63.054688 134.957031 59.976562 133.667969 59.308594 133.398438 C 59.125 133.390625 58.847656 133.335938 58.683594 133.078125 C 58.566406 132.894531 58.558594 132.617188 58.660156 132.425781 C 58.984375 131.796875 61.675781 130.984375 62.5 130.925781 C 62.53125 130.917969 62.566406 130.902344 62.609375 130.890625 C 63.371094 130.625 65.382812 129.925781 68.363281 132.929688 C 72.425781 137.03125 74.222656 144.242188 73.703125 154.371094 C 73.632812 155.75 72.492188 156.832031 71.109375 156.832031 " fill-opacity="1" fill-rule="nonzero"/><path fill="#230b41" d="M 95.300781 156.21875 C 95.265625 156.21875 95.226562 156.21875 95.1875 156.214844 C 94.09375 156.15625 93.261719 155.21875 93.320312 154.125 C 94.511719 131.460938 87.40625 130.789062 87.644531 129.71875 C 87.882812 128.652344 90.839844 130.011719 91.910156 130.25 C 93.347656 130.570312 97.480469 131.867188 97.28125 154.347656 C 97.269531 155.40625 96.347656 156.21875 95.300781 156.21875 " fill-opacity="1" fill-rule="nonzero"/><path fill="#000000" d="M 88.546875 129.933594 C 88.558594 129.941406 88.574219 129.957031 88.585938 129.96875 C 90.320312 131.46875 94.917969 135.457031 93.929688 154.160156 C 93.890625 154.914062 94.472656 155.5625 95.222656 155.605469 C 95.25 155.605469 95.277344 155.605469 95.300781 155.605469 C 96.035156 155.605469 96.660156 155.027344 96.667969 154.339844 C 96.757812 144.140625 95.984375 131.78125 91.777344 130.851562 C 91.484375 130.78125 91.101562 130.65625 90.660156 130.507812 C 90.160156 130.34375 89.140625 130 88.546875 129.933594 Z M 95.300781 156.832031 C 95.253906 156.832031 95.203125 156.832031 95.152344 156.828125 C 93.730469 156.75 92.632812 155.523438 92.707031 154.09375 C 93.660156 135.992188 89.238281 132.15625 87.78125 130.894531 C 87.339844 130.507812 86.917969 130.144531 87.042969 129.585938 C 87.113281 129.28125 87.292969 129.035156 87.5625 128.882812 C 88.289062 128.472656 89.46875 128.816406 91.050781 129.34375 C 91.441406 129.476562 91.8125 129.601562 92.042969 129.652344 C 94.644531 130.230469 98.078125 133.417969 97.894531 154.351562 C 97.882812 155.71875 96.71875 156.832031 95.300781 156.832031 " fill-opacity="1" fill-rule="nonzero"/><path fill="#523762" d="M 101.851562 187.335938 L 72.898438 187.335938 L 81.964844 154.992188 L 110.921875 154.992188 L 101.851562 187.335938 " fill-opacity="1" fill-rule="nonzero"/><path fill="#000000" d="M 73.707031 186.722656 L 101.386719 186.722656 L 110.113281 155.605469 L 82.433594 155.605469 Z M 101.851562 187.949219 L 72.898438 187.949219 C 72.707031 187.949219 72.523438 187.859375 72.410156 187.707031 C 72.292969 187.554688 72.253906 187.355469 72.308594 187.167969 L 81.375 154.828125 C 81.449219 154.5625 81.691406 154.378906 81.964844 154.378906 L 110.921875 154.378906 C 111.113281 154.378906 111.292969 154.46875 111.410156 154.621094 C 111.527344 154.777344 111.5625 154.976562 111.511719 155.15625 L 102.445312 187.503906 C 102.371094 187.765625 102.128906 187.949219 101.851562 187.949219 " fill-opacity="1" fill-rule="nonzero"/><path fill="#ffffff" d="M 38.597656 168.441406 L 53.25 161.890625 C 53.25 161.890625 51.1875 186.71875 80.835938 175.253906 C 80.835938 175.253906 79.742188 172.0625 79.894531 168.335938 C 80.050781 164.609375 82.28125 168.214844 82.589844 171.242188 C 82.902344 174.273438 89.863281 173.042969 94.046875 171.851562 C 98.230469 170.65625 103.71875 171.4375 94.046875 176.773438 C 84.375 182.109375 82.253906 179.730469 82.253906 179.730469 C 82.253906 179.730469 69.898438 197.015625 54.53125 193.34375 C 35.625 188.824219 38.597656 168.441406 38.597656 168.441406 " fill-opacity="1" fill-rule="nonzero"/><path fill="#000000" d="M 39.164062 168.859375 C 39.039062 170.0625 38.730469 174.398438 40.074219 179.066406 C 42.164062 186.332031 47.078125 190.933594 54.671875 192.746094 C 69.453125 196.277344 81.632812 179.542969 81.753906 179.371094 C 81.863281 179.222656 82.035156 179.128906 82.222656 179.117188 C 82.410156 179.109375 82.589844 179.183594 82.710938 179.320312 C 82.714844 179.320312 84.878906 181.132812 93.75 176.238281 C 98.964844 173.359375 98.824219 172.320312 98.820312 172.308594 C 98.6875 171.996094 96.765625 171.714844 94.214844 172.441406 C 92.230469 173.007812 85.554688 174.722656 83.011719 173 C 82.410156 172.59375 82.054688 172.007812 81.980469 171.308594 C 81.808594 169.636719 81.066406 168.027344 80.613281 167.507812 C 80.570312 167.667969 80.527344 167.933594 80.507812 168.359375 C 80.359375 171.933594 81.402344 175.023438 81.414062 175.054688 C 81.519531 175.367188 81.363281 175.707031 81.054688 175.824219 C 70.84375 179.773438 63.175781 179.914062 58.261719 176.234375 C 53.070312 172.351562 52.585938 165.449219 52.601562 162.851562 Z M 58.816406 194.460938 C 57.371094 194.460938 55.894531 194.300781 54.386719 193.941406 C 44.332031 191.539062 40.40625 184.6875 38.882812 179.367188 C 37.246094 173.644531 37.957031 168.566406 37.988281 168.351562 C 38.019531 168.144531 38.152344 167.964844 38.347656 167.878906 L 53 161.332031 C 53.199219 161.242188 53.425781 161.261719 53.605469 161.390625 C 53.78125 161.515625 53.878906 161.722656 53.863281 161.941406 C 53.855469 162.03125 53.199219 170.921875 59.003906 175.257812 C 63.472656 178.597656 70.5625 178.472656 80.082031 174.886719 C 79.769531 173.785156 79.160156 171.21875 79.28125 168.3125 C 79.304688 167.78125 79.371094 166.167969 80.46875 166.132812 C 81.898438 166.089844 83.019531 169.394531 83.203125 171.179688 C 83.238281 171.523438 83.394531 171.78125 83.699219 171.988281 C 85.371094 173.117188 90.226562 172.300781 93.878906 171.261719 C 95.976562 170.660156 99.324219 170.324219 99.953125 171.84375 C 100.503906 173.179688 98.773438 174.867188 94.34375 177.308594 C 86.828125 181.457031 83.613281 181.074219 82.40625 180.542969 C 80.496094 183 70.929688 194.460938 58.816406 194.460938 " fill-opacity="1" fill-rule="nonzero"/><path fill="#000000" d="M 77.710938 122.074219 C 76.445312 123.234375 73.96875 124.648438 72.035156 123.671875 C 70.59375 122.945312 69.785156 121.066406 69.835938 118.910156 C 69.167969 118.964844 68.292969 118.917969 67.667969 118.363281 C 66.707031 117.515625 66.886719 115.949219 66.925781 114.925781 C 67.097656 110.179688 64.34375 109.453125 65.015625 106.234375 C 65.546875 103.703125 67.535156 102.195312 67.90625 101.914062 C 69.78125 100.492188 71.050781 100.953125 74.207031 100.125 C 79.515625 98.734375 84.417969 108.523438 82.359375 110.378906 C 78.738281 113.632812 81.472656 118.632812 77.710938 122.074219 " fill-opacity="1" fill-rule="nonzero"/><path fill="#ffffff" d="M 88.304688 113.613281 L 88.09375 113.429688 C 87.042969 112.527344 85.949219 111.476562 85.671875 110.117188 C 84.488281 104.34375 79.199219 102.246094 78.953125 107.546875 C 78.890625 108.886719 74.007812 108.816406 74.585938 110.21875 C 76.097656 113.882812 76.132812 112.894531 73.996094 114.246094 C 73.753906 114.257812 73.515625 114.308594 73.289062 114.414062 C 72.195312 114.925781 71.808594 116.410156 72.425781 117.734375 C 72.796875 118.535156 73.457031 119.085938 74.160156 119.289062 L 74.160156 125.070312 C 74.160156 127.238281 72.851562 129.191406 70.84375 130.015625 L 68.890625 130.8125 C 68.890625 130.8125 77.996094 136.757812 87.242188 130.230469 L 86.007812 129.675781 C 83.835938 128.699219 82.410156 126.574219 82.332031 124.191406 L 82.324219 123.0625 C 82.945312 123.117188 83.546875 123.074219 84.101562 122.914062 C 86.6875 122.160156 87.546875 119.183594 87.105469 115.480469 L 88.160156 114.914062 C 88.652344 114.648438 88.726562 113.972656 88.304688 113.613281 " fill-opacity="1" fill-rule="nonzero"/><path fill="#000000" d="M 70.300781 130.898438 C 72.796875 132.136719 79.226562 134.507812 85.972656 130.335938 L 85.753906 130.234375 C 83.386719 129.171875 81.800781 126.808594 81.71875 124.210938 L 81.710938 123.070312 C 81.707031 122.894531 81.78125 122.730469 81.90625 122.613281 C 82.035156 122.496094 82.203125 122.4375 82.378906 122.453125 C 82.945312 122.503906 83.46875 122.457031 83.929688 122.324219 C 86.871094 121.46875 86.707031 117.304688 86.5 115.550781 C 86.46875 115.300781 86.59375 115.058594 86.816406 114.941406 L 87.871094 114.375 C 87.941406 114.332031 87.960938 114.269531 87.964844 114.234375 C 87.96875 114.199219 87.964844 114.128906 87.902344 114.074219 L 87.691406 113.894531 C 86.59375 112.949219 85.390625 111.804688 85.070312 110.242188 C 84.363281 106.789062 82.191406 105.019531 80.960938 105.117188 C 80.144531 105.183594 79.632812 106.078125 79.566406 107.574219 C 79.515625 108.660156 78.15625 109.042969 76.84375 109.410156 C 76.292969 109.5625 75.398438 109.8125 75.167969 110.027344 C 75.382812 110.539062 75.5625 110.953125 75.710938 111.296875 C 76.417969 112.933594 76.660156 113.484375 75.222656 114.25 C 74.984375 114.378906 74.6875 114.539062 74.324219 114.765625 C 74.234375 114.824219 74.128906 114.855469 74.023438 114.859375 C 73.851562 114.867188 73.691406 114.90625 73.550781 114.96875 C 72.761719 115.335938 72.507812 116.460938 72.980469 117.472656 C 73.261719 118.078125 73.769531 118.535156 74.328125 118.699219 C 74.59375 118.773438 74.773438 119.015625 74.773438 119.289062 L 74.773438 125.070312 C 74.773438 127.5 73.324219 129.660156 71.074219 130.582031 Z M 77.898438 133.882812 C 72.5625 133.882812 68.613281 131.367188 68.554688 131.324219 C 68.363281 131.199219 68.257812 130.980469 68.277344 130.753906 C 68.300781 130.527344 68.445312 130.332031 68.65625 130.242188 L 70.609375 129.445312 C 72.394531 128.714844 73.546875 127 73.546875 125.070312 L 73.546875 119.714844 C 72.832031 119.378906 72.230469 118.773438 71.867188 117.992188 C 71.109375 116.367188 71.632812 114.511719 73.03125 113.859375 C 73.269531 113.746094 73.53125 113.675781 73.800781 113.644531 C 74.140625 113.4375 74.417969 113.289062 74.644531 113.167969 C 74.792969 113.089844 74.957031 113 75.042969 112.941406 C 75 112.742188 74.796875 112.277344 74.585938 111.785156 C 74.429688 111.425781 74.238281 110.988281 74.019531 110.457031 C 73.886719 110.136719 73.890625 109.816406 74.035156 109.523438 C 74.375 108.824219 75.363281 108.546875 76.511719 108.226562 C 77.105469 108.0625 78.214844 107.75 78.347656 107.496094 C 78.441406 105.363281 79.382812 104.007812 80.867188 103.894531 C 82.835938 103.738281 85.457031 106.027344 86.273438 109.992188 C 86.515625 111.179688 87.546875 112.148438 88.496094 112.96875 L 88.703125 113.148438 C 89.054688 113.449219 89.234375 113.90625 89.183594 114.367188 C 89.132812 114.828125 88.859375 115.234375 88.449219 115.453125 L 87.761719 115.824219 C 88.152344 119.953125 86.890625 122.742188 84.273438 123.503906 C 83.859375 123.625 83.414062 123.691406 82.941406 123.695312 L 82.945312 124.1875 C 83.011719 126.304688 84.3125 128.242188 86.257812 129.117188 L 87.492188 129.671875 C 87.691406 129.761719 87.832031 129.953125 87.851562 130.171875 C 87.871094 130.390625 87.773438 130.605469 87.59375 130.730469 C 84.222656 133.113281 80.847656 133.882812 77.898438 133.882812 " fill-opacity="1" fill-rule="nonzero"/><path fill="#000000" d="M 82.324219 123.675781 C 82.292969 123.675781 82.261719 123.671875 82.230469 123.667969 C 78.394531 123.078125 76.664062 120.144531 76.59375 120.015625 C 76.421875 119.722656 76.523438 119.351562 76.816406 119.179688 C 77.113281 119.011719 77.484375 119.113281 77.65625 119.40625 C 77.679688 119.445312 79.191406 121.960938 82.417969 122.457031 C 82.75 122.507812 82.980469 122.820312 82.929688 123.15625 C 82.882812 123.457031 82.621094 123.675781 82.324219 123.675781 " fill-opacity="1" fill-rule="nonzero"/><path fill="#230b41" d="M 87.347656 102.46875 C 87.167969 101.992188 86.960938 101.523438 86.71875 101.0625 C 83.542969 95.007812 76.054688 92.679688 70.003906 95.855469 C 63.949219 99.039062 61.617188 106.519531 64.796875 112.574219 C 65.039062 113.039062 65.308594 113.472656 65.597656 113.890625 L 87.347656 102.46875 " fill-opacity="1" fill-rule="nonzero"/><path fill="#000000" d="M 75.746094 95.042969 C 73.863281 95.042969 72 95.5 70.289062 96.402344 C 64.542969 99.417969 62.324219 106.542969 65.339844 112.289062 C 65.480469 112.558594 65.636719 112.824219 65.804688 113.089844 L 86.570312 102.183594 C 86.449219 101.890625 86.316406 101.617188 86.175781 101.347656 C 84.714844 98.566406 82.257812 96.519531 79.257812 95.582031 C 78.101562 95.222656 76.921875 95.042969 75.746094 95.042969 Z M 65.597656 114.503906 C 65.402344 114.503906 65.214844 114.410156 65.09375 114.238281 C 64.777344 113.78125 64.496094 113.320312 64.253906 112.859375 C 60.921875 106.515625 63.375 98.644531 69.71875 95.3125 C 72.789062 93.699219 76.308594 93.378906 79.621094 94.414062 C 82.9375 95.441406 85.648438 97.703125 87.265625 100.777344 C 87.507812 101.242188 87.722656 101.722656 87.921875 102.25 C 88.03125 102.539062 87.90625 102.867188 87.632812 103.011719 L 65.882812 114.433594 C 65.792969 114.480469 65.695312 114.503906 65.597656 114.503906 " fill-opacity="1" fill-rule="nonzero"/><path fill="#230b41" d="M 65.398438 116.476562 L 65.597656 113.890625 L 87.347656 102.46875 L 92.410156 102.292969 L 65.398438 116.476562 " fill-opacity="1" fill-rule="nonzero"/><path fill="#000000" d="M 66.183594 114.273438 L 66.09375 115.417969 L 89.746094 102.996094 L 87.507812 103.074219 Z M 65.398438 117.089844 C 65.28125 117.089844 65.164062 117.058594 65.0625 116.988281 C 64.875 116.867188 64.769531 116.652344 64.785156 116.429688 L 64.988281 113.839844 C 65.003906 113.628906 65.125 113.445312 65.3125 113.34375 L 87.0625 101.925781 C 87.144531 101.878906 87.234375 101.855469 87.324219 101.851562 L 92.390625 101.675781 C 92.6875 101.664062 92.933594 101.855469 93.003906 102.132812 C 93.078125 102.410156 92.949219 102.699219 92.695312 102.832031 L 65.683594 117.019531 C 65.59375 117.066406 65.496094 117.089844 65.398438 117.089844 " fill-opacity="1" fill-rule="nonzero"/><path fill="#ffffff" d="M 69.953125 119.992188 C 69.789062 119.992188 69.625 119.929688 69.5 119.8125 C 69.234375 119.558594 69.222656 119.140625 69.472656 118.875 C 72.203125 115.992188 71.535156 113.167969 71.527344 113.136719 C 71.4375 112.785156 71.65625 112.425781 72.007812 112.335938 C 72.363281 112.25 72.722656 112.464844 72.8125 112.816406 C 72.847656 112.960938 73.65625 116.382812 70.433594 119.785156 C 70.304688 119.921875 70.128906 119.992188 69.953125 119.992188 " fill-opacity="1" fill-rule="nonzero"/><path fill="#000000" d="M 85.148438 104.234375 C 84.945312 104.234375 84.75 104.136719 84.632812 103.953125 C 79.238281 95.535156 69.636719 99.65625 69.539062 99.699219 C 69.277344 99.816406 68.96875 99.734375 68.796875 99.503906 L 67.40625 97.613281 C 67.207031 97.339844 67.261719 96.957031 67.535156 96.753906 C 67.808594 96.554688 68.191406 96.613281 68.394531 96.882812 L 69.507812 98.398438 C 71.621094 97.640625 80.425781 95.113281 85.664062 103.292969 C 85.847656 103.578125 85.765625 103.957031 85.480469 104.136719 C 85.378906 104.203125 85.261719 104.234375 85.148438 104.234375 " fill-opacity="1" fill-rule="nonzero"/><path fill="#ffffff" d="M 80.128906 109.570312 C 80.128906 109.570312 81.367188 114.191406 85.722656 111.683594 C 89.292969 109.625 80.128906 109.570312 80.128906 109.570312 " fill-opacity="1" fill-rule="nonzero"/><path fill="#000000" d="M 83.34375 113.042969 C 82.878906 113.042969 82.4375 112.957031 82.019531 112.78125 C 80.167969 112.015625 79.5625 109.824219 79.535156 109.730469 C 79.449219 109.40625 79.640625 109.066406 79.96875 108.980469 C 80.292969 108.890625 80.632812 109.085938 80.71875 109.410156 C 80.730469 109.441406 81.210938 111.125 82.496094 111.652344 C 83.289062 111.980469 84.269531 111.808594 85.417969 111.152344 C 85.710938 110.984375 86.085938 111.082031 86.253906 111.375 C 86.421875 111.667969 86.324219 112.042969 86.027344 112.214844 C 85.070312 112.765625 84.171875 113.042969 83.34375 113.042969 " fill-opacity="1" fill-rule="nonzero"/><path fill="#ffffff" d="M 86.210938 106.0625 C 86.210938 106.0625 87.832031 108.199219 87.359375 110.21875 C 86.882812 112.238281 86.210938 106.0625 86.210938 106.0625 " fill-opacity="1" fill-rule="nonzero"/><path fill="#000000" d="M 87.359375 110.828125 C 87.3125 110.828125 87.265625 110.824219 87.21875 110.816406 C 86.886719 110.738281 86.683594 110.40625 86.761719 110.078125 C 87.097656 108.652344 86.125 106.964844 85.722656 106.433594 C 85.519531 106.164062 85.570312 105.777344 85.839844 105.574219 C 86.109375 105.367188 86.496094 105.421875 86.699219 105.691406 C 86.773438 105.785156 88.492188 108.085938 87.957031 110.355469 C 87.890625 110.640625 87.636719 110.828125 87.359375 110.828125 " fill-opacity="1" fill-rule="nonzero"/><path fill="#ffffff" d="M 52.972656 320.585938 L 54.023438 330.578125 L 60.78125 331.371094 L 60.78125 319.519531 L 52.972656 320.585938 " fill-opacity="1" fill-rule="nonzero"/><path fill="#000000" d="M 54.582031 330.027344 L 60.164062 330.679688 L 60.164062 320.222656 L 53.644531 321.109375 Z M 60.78125 331.984375 C 60.753906 331.984375 60.730469 331.980469 60.707031 331.980469 L 53.949219 331.1875 C 53.664062 331.15625 53.441406 330.925781 53.410156 330.640625 L 52.363281 320.648438 C 52.328125 320.320312 52.5625 320.019531 52.890625 319.976562 L 60.695312 318.914062 C 60.871094 318.890625 61.046875 318.941406 61.183594 319.058594 C 61.316406 319.175781 61.390625 319.34375 61.390625 319.519531 L 61.390625 331.371094 C 61.390625 331.546875 61.316406 331.710938 61.1875 331.828125 C 61.074219 331.929688 60.929688 331.984375 60.78125 331.984375 " fill-opacity="1" fill-rule="nonzero"/><path fill="#230b41" d="M 61.84375 348.769531 C 59.027344 349.164062 54.410156 349.511719 48.988281 348.761719 C 47.210938 348.515625 46.035156 346.792969 46.460938 345.050781 C 47.65625 340.199219 49.714844 330.996094 53.242188 326.730469 L 54.121094 329.042969 L 55.332031 326.867188 C 55.496094 326.566406 55.792969 326.367188 56.132812 326.324219 L 58.785156 325.988281 C 59.339844 325.917969 59.855469 326.285156 59.96875 326.832031 L 60.394531 328.835938 L 61.316406 326.203125 L 64.402344 345.382812 C 64.621094 347.023438 63.480469 348.535156 61.84375 348.769531 " fill-opacity="1" fill-rule="nonzero"/><path fill="#000000" d="M 53.0625 327.992188 C 50.242188 332.117188 48.429688 339.566406 47.316406 344.144531 L 47.058594 345.195312 C 46.894531 345.867188 47.015625 346.546875 47.402344 347.117188 C 47.785156 347.679688 48.394531 348.058594 49.074219 348.15625 C 54.375 348.886719 58.898438 348.5625 61.757812 348.160156 C 63.050781 347.976562 63.96875 346.769531 63.796875 345.464844 L 61.097656 328.6875 L 60.972656 329.042969 C 60.878906 329.300781 60.628906 329.46875 60.351562 329.449219 C 60.078125 329.433594 59.847656 329.234375 59.792969 328.964844 L 59.371094 326.957031 C 59.320312 326.726562 59.09375 326.566406 58.863281 326.59375 L 56.210938 326.933594 C 56.066406 326.949219 55.9375 327.035156 55.867188 327.164062 L 54.65625 329.34375 C 54.539062 329.550781 54.308594 329.671875 54.074219 329.65625 C 53.835938 329.640625 53.632812 329.484375 53.546875 329.261719 Z M 61.84375 348.769531 L 61.847656 348.769531 Z M 55.453125 349.816406 C 53.46875 349.816406 51.261719 349.695312 48.902344 349.367188 C 47.882812 349.226562 46.964844 348.660156 46.386719 347.804688 C 45.8125 346.957031 45.621094 345.898438 45.867188 344.902344 L 46.121094 343.855469 C 47.34375 338.832031 49.390625 330.421875 52.769531 326.339844 C 52.910156 326.171875 53.125 326.089844 53.34375 326.125 C 53.558594 326.160156 53.738281 326.308594 53.816406 326.511719 L 54.226562 327.59375 L 54.796875 326.566406 C 55.054688 326.101562 55.527344 325.78125 56.054688 325.714844 L 58.707031 325.378906 C 59.527344 325.273438 60.304688 325.792969 60.539062 326.574219 L 60.738281 326 C 60.832031 325.734375 61.097656 325.570312 61.371094 325.59375 C 61.652344 325.617188 61.878906 325.828125 61.921875 326.105469 L 65.007812 345.289062 C 65.269531 347.273438 63.886719 349.097656 61.929688 349.375 C 60.265625 349.609375 58.050781 349.816406 55.453125 349.816406 " fill-opacity="1" fill-rule="nonzero"/><path fill="#000000" d="M 54.011719 346.601562 C 52.195312 346.601562 50.230469 346.441406 48.273438 345.992188 C 47.941406 345.921875 47.734375 345.589844 47.808594 345.257812 C 47.886719 344.929688 48.214844 344.722656 48.542969 344.796875 C 55.113281 346.292969 61.984375 344.371094 62.054688 344.351562 C 62.378906 344.257812 62.71875 344.445312 62.8125 344.773438 C 62.902344 345.097656 62.714844 345.4375 62.390625 345.53125 C 62.179688 345.589844 58.566406 346.601562 54.011719 346.601562 " fill-opacity="1" fill-rule="nonzero"/><path fill="#000000" d="M 52.402344 339.171875 C 52.074219 339.171875 51.800781 338.910156 51.789062 338.578125 C 51.777344 338.238281 52.042969 337.957031 52.382812 337.945312 L 58.714844 337.738281 C 59.058594 337.726562 59.339844 337.992188 59.351562 338.328125 C 59.359375 338.667969 59.09375 338.949219 58.757812 338.960938 L 52.421875 339.171875 C 52.414062 339.171875 52.410156 339.171875 52.402344 339.171875 " fill-opacity="1" fill-rule="nonzero"/><path fill="#ffffff" d="M 84.621094 315.261719 L 85.636719 329.847656 L 93.765625 329.847656 L 94.144531 315.261719 L 84.621094 315.261719 " fill-opacity="1" fill-rule="nonzero"/><path fill="#000000" d="M 86.207031 329.234375 L 93.167969 329.234375 L 93.515625 315.878906 L 85.28125 315.878906 Z M 93.765625 330.460938 L 85.636719 330.460938 C 85.3125 330.460938 85.046875 330.210938 85.023438 329.890625 L 84.011719 315.304688 C 84 315.136719 84.058594 314.96875 84.171875 314.84375 C 84.289062 314.71875 84.453125 314.648438 84.621094 314.648438 L 94.144531 314.648438 C 94.308594 314.648438 94.46875 314.714844 94.582031 314.835938 C 94.699219 314.953125 94.761719 315.113281 94.757812 315.277344 L 94.378906 329.863281 C 94.371094 330.195312 94.097656 330.460938 93.765625 330.460938 " fill-opacity="1" fill-rule="nonzero"/><path fill="#230b41" d="M 83.511719 338.078125 C 83.492188 339.457031 84.433594 340.671875 85.777344 340.980469 C 90.449219 342.070312 100.980469 344.492188 103.984375 344.941406 C 107.882812 345.519531 112.675781 344.328125 114.734375 342.046875 C 116.792969 339.765625 110.121094 334.320312 106.953125 332.339844 C 102.25 329.398438 97.730469 323.582031 95.835938 323.320312 C 93.941406 323.058594 90.40625 328.558594 90.40625 328.558594 L 84.621094 326.128906 C 84.621094 326.128906 83.613281 331.082031 83.511719 338.078125 " fill-opacity="1" fill-rule="nonzero"/><path fill="#000000" d="M 84.125 338.089844 C 84.109375 339.175781 84.863281 340.140625 85.917969 340.386719 C 90.378906 341.425781 101.078125 343.886719 104.074219 344.335938 C 107.851562 344.898438 112.425781 343.6875 114.277344 341.636719 C 114.472656 341.421875 114.542969 341.15625 114.492188 340.808594 C 114.191406 338.644531 109.734375 334.800781 106.628906 332.863281 C 104.230469 331.359375 101.949219 329.195312 99.933594 327.285156 C 98.25 325.6875 96.507812 324.03125 95.753906 323.929688 C 94.835938 323.804688 92.519531 326.402344 90.921875 328.890625 C 90.757812 329.140625 90.441406 329.238281 90.167969 329.121094 L 85.089844 326.988281 C 84.816406 328.613281 84.203125 332.777344 84.125 338.089844 Z M 106.015625 345.699219 C 105.296875 345.699219 104.585938 345.652344 103.894531 345.546875 C 100.851562 345.09375 90.113281 342.621094 85.636719 341.582031 C 84.027344 341.207031 82.875 339.730469 82.898438 338.070312 C 83 331.097656 84.011719 326.054688 84.019531 326.007812 C 84.058594 325.824219 84.171875 325.671875 84.335938 325.585938 C 84.496094 325.5 84.691406 325.492188 84.859375 325.5625 L 90.171875 327.792969 C 91.300781 326.109375 93.992188 322.449219 95.921875 322.714844 C 97.011719 322.863281 98.410156 324.144531 100.78125 326.394531 C 102.75 328.265625 104.988281 330.386719 107.28125 331.824219 C 109.324219 333.101562 115.265625 337.46875 115.707031 340.640625 C 115.804688 341.34375 115.628906 341.972656 115.191406 342.457031 C 113.410156 344.425781 109.652344 345.699219 106.015625 345.699219 " fill-opacity="1" fill-rule="nonzero"/><path fill="#000000" d="M 105.945312 343.015625 C 97.421875 343.015625 86.046875 338.421875 85.402344 338.160156 C 85.089844 338.03125 84.9375 337.671875 85.066406 337.359375 C 85.195312 337.046875 85.554688 336.894531 85.867188 337.023438 C 86.074219 337.109375 106.527344 345.375 112.484375 340 C 112.734375 339.769531 113.125 339.789062 113.351562 340.042969 C 113.578125 340.292969 113.558594 340.683594 113.304688 340.910156 C 111.605469 342.445312 108.953125 343.015625 105.945312 343.015625 " fill-opacity="1" fill-rule="nonzero"/><path fill="#000000" d="M 96.929688 334.191406 C 96.761719 334.191406 96.597656 334.121094 96.476562 333.988281 C 96.25 333.738281 96.269531 333.347656 96.519531 333.121094 L 100.65625 329.390625 C 100.90625 329.164062 101.292969 329.183594 101.523438 329.4375 C 101.75 329.6875 101.730469 330.074219 101.476562 330.300781 L 97.34375 334.03125 C 97.222656 334.136719 97.078125 334.191406 96.929688 334.191406 " fill-opacity="1" fill-rule="nonzero"/><path fill="#230b41" d="M 52.984375 200.519531 C 52.984375 200.519531 48.148438 265.78125 46.828125 281.519531 C 45.511719 297.257812 49.914062 322.554688 49.914062 322.554688 L 62.464844 321.894531 C 62.464844 321.894531 63.324219 291.136719 64.253906 282.59375 C 64.253906 282.59375 69.558594 271.015625 71.128906 260.6875 C 72.699219 250.359375 78.050781 234.046875 78.050781 234.046875 C 78.050781 234.046875 82.398438 315.46875 82.816406 321.863281 C 82.816406 321.863281 92.660156 322.300781 96.1875 320.082031 C 96.1875 320.082031 102.4375 290.394531 101.542969 274.242188 C 100.644531 258.089844 99.433594 199.636719 99.433594 199.636719 L 67.902344 200.101562 L 52.984375 200.519531 " fill-opacity="1" fill-rule="nonzero"/><path fill="#000000" d="M 53.554688 201.117188 C 53.082031 207.496094 48.679688 266.777344 47.441406 281.570312 C 46.25 295.789062 49.804688 318.175781 50.425781 321.914062 L 61.867188 321.3125 C 61.988281 317.078125 62.792969 290.355469 63.644531 282.527344 C 63.652344 282.460938 63.671875 282.398438 63.699219 282.339844 C 63.75 282.226562 68.980469 270.714844 70.523438 260.59375 C 72.082031 250.335938 77.414062 234.019531 77.46875 233.855469 C 77.558594 233.574219 77.839844 233.402344 78.132812 233.441406 C 78.425781 233.476562 78.648438 233.71875 78.664062 234.015625 C 78.707031 234.808594 82.816406 311.816406 83.394531 321.265625 C 85.4375 321.316406 92.632812 321.363281 95.640625 319.691406 C 96.253906 316.710938 101.765625 289.355469 100.929688 274.273438 C 100.089844 259.183594 98.964844 206.539062 98.832031 200.257812 L 67.910156 200.714844 Z M 49.914062 323.167969 C 49.617188 323.167969 49.359375 322.957031 49.308594 322.660156 C 49.265625 322.40625 44.90625 297.101562 46.21875 281.46875 C 47.519531 265.914062 52.324219 201.128906 52.371094 200.476562 C 52.394531 200.160156 52.652344 199.914062 52.964844 199.90625 L 67.882812 199.492188 L 99.425781 199.023438 C 99.429688 199.023438 99.429688 199.023438 99.433594 199.023438 C 99.765625 199.023438 100.039062 199.289062 100.046875 199.625 C 100.058594 200.210938 101.265625 258.25 102.152344 274.207031 C 103.046875 290.253906 96.851562 319.910156 96.789062 320.207031 C 96.753906 320.371094 96.652344 320.511719 96.515625 320.601562 C 92.863281 322.898438 83.199219 322.496094 82.789062 322.476562 C 82.476562 322.464844 82.226562 322.214844 82.203125 321.902344 C 81.839844 316.324219 78.445312 252.90625 77.621094 237.453125 C 75.992188 242.726562 72.863281 253.367188 71.734375 260.777344 C 70.242188 270.585938 65.359375 281.636719 64.855469 282.757812 C 63.941406 291.3125 63.085938 321.605469 63.074219 321.910156 C 63.066406 322.234375 62.8125 322.492188 62.496094 322.507812 L 49.945312 323.167969 C 49.933594 323.167969 49.921875 323.167969 49.914062 323.167969 " fill-opacity="1" fill-rule="nonzero"/><path fill="#ffffff" d="M 61.945312 283.207031 L 58.109375 283.207031 C 57.769531 283.207031 57.496094 282.929688 57.496094 282.59375 C 57.496094 282.253906 57.769531 281.976562 58.109375 281.976562 L 61.945312 281.976562 C 62.285156 281.976562 62.558594 282.253906 62.558594 282.59375 C 62.558594 282.929688 62.285156 283.207031 61.945312 283.207031 " fill-opacity="1" fill-rule="nonzero"/><path fill="#ffffff" d="M 89.273438 306.886719 C 89.269531 306.886719 89.265625 306.886719 89.261719 306.886719 C 88.921875 306.878906 88.652344 306.597656 88.660156 306.261719 C 88.796875 298.671875 97.089844 285.128906 97.441406 284.554688 C 97.621094 284.265625 97.996094 284.175781 98.285156 284.355469 C 98.574219 284.53125 98.664062 284.910156 98.488281 285.199219 C 98.402344 285.335938 90.019531 299.03125 89.886719 306.28125 C 89.878906 306.617188 89.605469 306.886719 89.273438 306.886719 " fill-opacity="1" fill-rule="nonzero"/><path fill="#ffffff" d="M 80.683594 111.179688 C 80.605469 111.234375 75.089844 113.476562 75.089844 113.476562 C 75.089844 113.476562 80.761719 111.128906 80.683594 111.179688 " fill-opacity="1" fill-rule="nonzero"/><path fill="#000000" d="M 75.089844 114.089844 C 74.847656 114.089844 74.617188 113.945312 74.519531 113.707031 C 74.394531 113.394531 74.542969 113.035156 74.859375 112.910156 C 76.945312 112.058594 80.121094 110.761719 80.402344 110.636719 C 80.675781 110.496094 81.019531 110.578125 81.195312 110.839844 C 81.382812 111.125 81.304688 111.503906 81.023438 111.691406 C 80.953125 111.738281 80.890625 111.777344 75.320312 114.042969 C 75.246094 114.078125 75.167969 114.089844 75.089844 114.089844 " fill-opacity="1" fill-rule="nonzero"/></svg>