<svg xmlns="http://www.w3.org/2000/svg" xmlns:xlink="http://www.w3.org/1999/xlink" width="500" zoomAndPan="magnify" viewBox="0 0 375 374.999991" height="500" preserveAspectRatio="xMidYMid meet" version="1.0"><defs><clipPath id="6715e05028"><path d="M 24 3.984375 L 357 3.984375 L 357 365 L 24 365 Z M 24 3.984375 " clip-rule="nonzero"/></clipPath><clipPath id="03a748f030"><path d="M 177 3.984375 L 184 3.984375 L 184 269 L 177 269 Z M 177 3.984375 " clip-rule="nonzero"/></clipPath></defs><g clip-path="url(#6715e05028)"><path fill="#ae9fcf" d="M 342.851562 222.996094 C 333.238281 235.644531 321.273438 239.003906 305.558594 252.230469 C 290.941406 264.527344 289.296875 267.667969 288.242188 269.808594 C 277.84375 290.929688 299.710938 309.472656 295.3125 327.589844 C 294.96875 329 294.476562 330.371094 293.839844 331.710938 C 281.550781 357.652344 215.972656 371.007812 160.6875 361.796875 C 149.628906 359.957031 106.859375 351.859375 72.355469 325.109375 C 57.929688 313.929688 44.945312 299.484375 36.328125 280.875 C 34.0625 275.988281 12.667969 228.816406 32.804688 202.570312 C 39.789062 193.472656 45.402344 194.746094 52.183594 187.25 C 77.609375 159.140625 29.699219 106.78125 41.613281 68.949219 C 48.761719 46.25 78.632812 24.992188 117.332031 13.316406 C 119.277344 12.722656 121.246094 12.160156 123.238281 11.625 C 126.257812 10.800781 129.324219 10.046875 132.4375 9.347656 C 134.394531 8.910156 136.363281 8.496094 138.34375 8.109375 C 141.453125 7.5 144.589844 6.957031 147.761719 6.476562 C 149.71875 6.179688 151.6875 5.910156 153.667969 5.667969 C 156.714844 5.285156 159.785156 4.964844 162.867188 4.714844 C 164.828125 4.554688 166.804688 4.417969 168.777344 4.3125 C 171.828125 4.144531 174.890625 4.039062 177.96875 4.003906 C 179.929688 3.976562 181.898438 3.980469 183.871094 4.011719 C 186.933594 4.058594 190 4.171875 193.074219 4.351562 C 195.042969 4.472656 197.011719 4.613281 198.980469 4.792969 C 202.121094 5.070312 205.265625 5.421875 208.398438 5.855469 C 210.371094 6.128906 212.339844 6.425781 214.304688 6.761719 C 217.382812 7.277344 220.449219 7.878906 223.503906 8.554688 C 225.480469 8.992188 227.453125 9.464844 229.417969 9.96875 C 232.527344 10.769531 235.625 11.652344 238.699219 12.628906 C 240.675781 13.253906 242.644531 13.914062 244.605469 14.613281 C 255.4375 18.492188 265.949219 23.507812 275.910156 29.796875 C 349.441406 76.230469 374.980469 180.753906 342.851562 222.996094 " fill-opacity="1" fill-rule="nonzero"/></g><path fill="#ffffff" d="M 123.238281 11.625 L 123.238281 268.25 L 117.332031 268.25 L 117.332031 13.316406 L 123.238281 11.625 " fill-opacity="1" fill-rule="nonzero"/><path fill="#ffffff" d="M 138.34375 8.109375 L 138.34375 268.25 L 132.4375 268.25 L 132.4375 9.347656 C 134.394531 8.910156 136.363281 8.496094 138.34375 8.109375 " fill-opacity="1" fill-rule="nonzero"/><path fill="#ffffff" d="M 153.667969 5.667969 L 153.667969 268.25 L 147.761719 268.25 L 147.761719 6.476562 C 149.71875 6.179688 151.6875 5.910156 153.667969 5.667969 " fill-opacity="1" fill-rule="nonzero"/><path fill="#ffffff" d="M 168.777344 4.3125 L 168.777344 268.25 L 162.867188 268.25 L 162.867188 4.714844 C 164.828125 4.554688 166.804688 4.417969 168.777344 4.3125 " fill-opacity="1" fill-rule="nonzero"/><g clip-path="url(#03a748f030)"><path fill="#ffffff" d="M 183.871094 4.011719 L 183.871094 268.25 L 177.96875 268.25 L 177.96875 4.003906 C 179.929688 3.976562 181.898438 3.980469 183.871094 4.011719 " fill-opacity="1" fill-rule="nonzero"/></g><path fill="#ffffff" d="M 198.980469 4.792969 L 198.980469 268.25 L 193.074219 268.25 L 193.074219 4.351562 C 195.042969 4.472656 197.011719 4.613281 198.980469 4.792969 " fill-opacity="1" fill-rule="nonzero"/><path fill="#ffffff" d="M 214.304688 6.761719 L 214.304688 268.25 L 208.398438 268.25 L 208.398438 5.855469 C 210.371094 6.128906 212.339844 6.425781 214.304688 6.761719 " fill-opacity="1" fill-rule="nonzero"/><path fill="#ffffff" d="M 229.417969 9.96875 L 229.417969 268.25 L 223.503906 268.25 L 223.503906 8.554688 C 225.480469 8.992188 227.453125 9.464844 229.417969 9.96875 " fill-opacity="1" fill-rule="nonzero"/><path fill="#ffffff" d="M 244.605469 14.613281 L 244.605469 268.25 L 238.699219 268.25 L 238.699219 12.628906 C 240.675781 13.253906 242.644531 13.914062 244.605469 14.613281 " fill-opacity="1" fill-rule="nonzero"/><path fill="#230b41" d="M 293.839844 331.710938 C 281.550781 357.652344 215.972656 371.007812 160.6875 361.796875 C 149.628906 359.957031 106.859375 351.859375 72.355469 325.109375 L 129.902344 243.554688 L 231.632812 243.554688 L 293.839844 331.710938 " fill-opacity="1" fill-rule="nonzero"/><path fill="#000000" d="M 231.632812 244.207031 L 129.902344 244.207031 C 129.542969 244.207031 129.253906 243.914062 129.253906 243.554688 C 129.253906 243.191406 129.542969 242.902344 129.902344 242.902344 L 231.632812 242.902344 C 231.992188 242.902344 232.285156 243.191406 232.285156 243.554688 C 232.285156 243.914062 231.992188 244.207031 231.632812 244.207031 " fill-opacity="1" fill-rule="nonzero"/><path fill="#000000" d="M 129.089844 354.695312 C 129.03125 354.695312 128.976562 354.6875 128.917969 354.675781 C 107.429688 348.882812 86.277344 335.46875 86.066406 335.335938 C 85.761719 335.140625 85.671875 334.738281 85.867188 334.433594 C 86.058594 334.132812 86.464844 334.042969 86.765625 334.234375 C 86.976562 334.371094 107.964844 347.675781 129.257812 353.414062 C 129.605469 353.507812 129.8125 353.867188 129.71875 354.214844 C 129.640625 354.503906 129.375 354.695312 129.089844 354.695312 " fill-opacity="1" fill-rule="nonzero"/><path fill="#000000" d="M 248.480469 359.390625 C 248.183594 359.390625 247.914062 359.183594 247.84375 358.878906 C 247.769531 358.523438 247.992188 358.175781 248.347656 358.101562 C 248.523438 358.066406 266.019531 354.226562 279.601562 345.542969 C 279.902344 345.351562 280.308594 345.4375 280.5 345.742188 C 280.695312 346.046875 280.605469 346.449219 280.304688 346.640625 C 266.523438 355.453125 248.796875 359.339844 248.621094 359.375 C 248.574219 359.386719 248.527344 359.390625 248.480469 359.390625 " fill-opacity="1" fill-rule="nonzero"/><path fill="#230b41" d="M 317.753906 274.367188 L 253.375 274.367188 L 253.375 63.511719 L 317.753906 63.511719 L 317.753906 274.367188 " fill-opacity="1" fill-rule="nonzero"/><path fill="#000000" d="M 254.027344 273.714844 L 317.101562 273.714844 L 317.101562 64.164062 L 254.027344 64.164062 Z M 317.753906 275.019531 L 253.375 275.019531 C 253.015625 275.019531 252.722656 274.726562 252.722656 274.367188 L 252.722656 63.511719 C 252.722656 63.152344 253.015625 62.863281 253.375 62.863281 L 317.753906 62.863281 C 318.117188 62.863281 318.40625 63.152344 318.40625 63.511719 L 318.40625 274.367188 C 318.40625 274.726562 318.117188 275.019531 317.753906 275.019531 " fill-opacity="1" fill-rule="nonzero"/><path fill="#ae9fcf" d="M 302.109375 104.574219 L 269.019531 104.574219 C 267.546875 104.574219 266.351562 105.769531 266.351562 107.246094 C 266.351562 108.71875 267.546875 109.914062 269.019531 109.914062 L 302.109375 109.914062 C 303.585938 109.914062 304.78125 108.71875 304.78125 107.246094 C 304.78125 105.769531 303.585938 104.574219 302.109375 104.574219 " fill-opacity="1" fill-rule="nonzero"/><path fill="#ae9fcf" d="M 302.109375 117.621094 L 269.019531 117.621094 C 267.546875 117.621094 266.351562 118.816406 266.351562 120.289062 C 266.351562 121.765625 267.546875 122.960938 269.019531 122.960938 L 302.109375 122.960938 C 303.585938 122.960938 304.78125 121.765625 304.78125 120.289062 C 304.78125 118.816406 303.585938 117.621094 302.109375 117.621094 " fill-opacity="1" fill-rule="nonzero"/><path fill="#ae9fcf" d="M 302.109375 130.667969 L 269.019531 130.667969 C 267.546875 130.667969 266.351562 131.863281 266.351562 133.339844 C 266.351562 134.8125 267.546875 136.007812 269.019531 136.007812 L 302.109375 136.007812 C 303.585938 136.007812 304.78125 134.8125 304.78125 133.339844 C 304.78125 131.863281 303.585938 130.667969 302.109375 130.667969 " fill-opacity="1" fill-rule="nonzero"/><path fill="#ae9fcf" d="M 302.109375 143.714844 L 269.019531 143.714844 C 267.546875 143.714844 266.351562 144.910156 266.351562 146.382812 C 266.351562 147.859375 267.546875 149.054688 269.019531 149.054688 L 302.109375 149.054688 C 303.585938 149.054688 304.78125 147.859375 304.78125 146.382812 C 304.78125 144.910156 303.585938 143.714844 302.109375 143.714844 " fill-opacity="1" fill-rule="nonzero"/><path fill="#ae9fcf" d="M 302.109375 156.761719 L 269.019531 156.761719 C 267.546875 156.761719 266.351562 157.957031 266.351562 159.429688 C 266.351562 160.90625 267.546875 162.101562 269.019531 162.101562 L 302.109375 162.101562 C 303.585938 162.101562 304.78125 160.90625 304.78125 159.429688 C 304.78125 157.957031 303.585938 156.761719 302.109375 156.761719 " fill-opacity="1" fill-rule="nonzero"/><path fill="#523762" d="M 296.011719 32.699219 L 231.632812 32.699219 L 253.375 63.511719 L 317.753906 63.511719 L 296.011719 32.699219 " fill-opacity="1" fill-rule="nonzero"/><path fill="#000000" d="M 253.714844 62.863281 L 316.496094 62.863281 L 295.671875 33.351562 L 232.890625 33.351562 Z M 317.753906 64.164062 L 253.375 64.164062 C 253.164062 64.164062 252.964844 64.0625 252.84375 63.886719 L 231.101562 33.078125 C 230.957031 32.878906 230.941406 32.617188 231.054688 32.402344 C 231.164062 32.183594 231.386719 32.046875 231.632812 32.046875 L 296.011719 32.046875 C 296.222656 32.046875 296.421875 32.152344 296.542969 32.324219 L 318.285156 63.136719 C 318.425781 63.335938 318.445312 63.597656 318.335938 63.8125 C 318.222656 64.03125 318 64.164062 317.753906 64.164062 " fill-opacity="1" fill-rule="nonzero"/><path fill="#ffffff" d="M 253.375 63.511719 L 231.632812 32.699219 L 231.632812 243.554688 L 253.375 274.367188 L 253.375 63.511719 " fill-opacity="1" fill-rule="nonzero"/><path fill="#000000" d="M 232.285156 243.347656 L 252.722656 272.3125 L 252.722656 63.722656 L 232.285156 34.753906 Z M 253.375 275.019531 C 253.167969 275.019531 252.964844 274.917969 252.84375 274.746094 L 231.101562 243.929688 C 231.019531 243.820312 230.980469 243.691406 230.980469 243.554688 L 230.980469 32.699219 C 230.980469 32.417969 231.164062 32.164062 231.4375 32.078125 C 231.707031 31.992188 232 32.089844 232.164062 32.324219 L 253.910156 63.136719 C 253.984375 63.246094 254.027344 63.378906 254.027344 63.511719 L 254.027344 274.367188 C 254.027344 274.652344 253.84375 274.902344 253.574219 274.988281 C 253.507812 275.011719 253.441406 275.019531 253.375 275.019531 " fill-opacity="1" fill-rule="nonzero"/><path fill="#ae9fcf" d="M 250.0625 255.84375 L 234.945312 234.425781 L 234.945312 228.28125 L 250.0625 248.960938 L 250.0625 255.84375 " fill-opacity="1" fill-rule="nonzero"/><path fill="#ae9fcf" d="M 250.0625 238.449219 L 234.945312 217.03125 L 234.945312 210.886719 L 250.0625 231.566406 L 250.0625 238.449219 " fill-opacity="1" fill-rule="nonzero"/><path fill="#523762" d="M 250.0625 221.054688 L 234.945312 199.632812 L 234.945312 193.492188 L 250.0625 214.171875 L 250.0625 221.054688 " fill-opacity="1" fill-rule="nonzero"/><path fill="#ae9fcf" d="M 250.0625 203.660156 L 234.945312 182.242188 L 234.945312 176.097656 L 250.0625 196.777344 L 250.0625 203.660156 " fill-opacity="1" fill-rule="nonzero"/><path fill="#ae9fcf" d="M 250.0625 186.265625 L 234.945312 164.84375 L 234.945312 158.699219 L 250.0625 179.382812 L 250.0625 186.265625 " fill-opacity="1" fill-rule="nonzero"/><path fill="#230b41" d="M 250.0625 168.871094 L 234.945312 147.453125 L 234.945312 141.304688 L 250.0625 161.988281 L 250.0625 168.871094 " fill-opacity="1" fill-rule="nonzero"/><path fill="#523762" d="M 250.0625 151.476562 L 234.945312 130.054688 L 234.945312 123.914062 L 250.0625 144.589844 L 250.0625 151.476562 " fill-opacity="1" fill-rule="nonzero"/><path fill="#230b41" d="M 339.5 305.179688 L 275.117188 305.179688 L 275.117188 94.324219 L 339.5 94.324219 L 339.5 305.179688 " fill-opacity="1" fill-rule="nonzero"/><path fill="#000000" d="M 275.769531 304.527344 L 338.847656 304.527344 L 338.847656 94.976562 L 275.769531 94.976562 Z M 339.5 305.832031 L 275.117188 305.832031 C 274.757812 305.832031 274.46875 305.542969 274.46875 305.179688 L 274.46875 94.324219 C 274.46875 93.964844 274.757812 93.675781 275.117188 93.675781 L 339.5 93.675781 C 339.859375 93.675781 340.152344 93.964844 340.152344 94.324219 L 340.152344 305.179688 C 340.152344 305.542969 339.859375 305.832031 339.5 305.832031 " fill-opacity="1" fill-rule="nonzero"/><path fill="#ae9fcf" d="M 323.851562 135.386719 L 290.765625 135.386719 C 289.289062 135.386719 288.09375 136.585938 288.09375 138.058594 C 288.09375 139.535156 289.289062 140.726562 290.765625 140.726562 L 323.851562 140.726562 C 325.328125 140.726562 326.523438 139.535156 326.523438 138.058594 C 326.523438 136.585938 325.328125 135.386719 323.851562 135.386719 " fill-opacity="1" fill-rule="nonzero"/><path fill="#ae9fcf" d="M 323.851562 148.433594 L 290.765625 148.433594 C 289.289062 148.433594 288.09375 149.628906 288.09375 151.105469 C 288.09375 152.578125 289.289062 153.773438 290.765625 153.773438 L 323.851562 153.773438 C 325.328125 153.773438 326.523438 152.578125 326.523438 151.105469 C 326.523438 149.628906 325.328125 148.433594 323.851562 148.433594 " fill-opacity="1" fill-rule="nonzero"/><path fill="#ae9fcf" d="M 323.851562 161.480469 L 290.765625 161.480469 C 289.289062 161.480469 288.09375 162.675781 288.09375 164.152344 C 288.09375 165.625 289.289062 166.820312 290.765625 166.820312 L 323.851562 166.820312 C 325.328125 166.820312 326.523438 165.625 326.523438 164.152344 C 326.523438 162.675781 325.328125 161.480469 323.851562 161.480469 " fill-opacity="1" fill-rule="nonzero"/><path fill="#ae9fcf" d="M 323.851562 174.527344 L 290.765625 174.527344 C 289.289062 174.527344 288.09375 175.722656 288.09375 177.195312 C 288.09375 178.671875 289.289062 179.867188 290.765625 179.867188 L 323.851562 179.867188 C 325.328125 179.867188 326.523438 178.671875 326.523438 177.195312 C 326.523438 175.722656 325.328125 174.527344 323.851562 174.527344 " fill-opacity="1" fill-rule="nonzero"/><path fill="#ae9fcf" d="M 323.851562 187.574219 L 290.765625 187.574219 C 289.289062 187.574219 288.09375 188.765625 288.09375 190.242188 C 288.09375 191.71875 289.289062 192.914062 290.765625 192.914062 L 323.851562 192.914062 C 325.328125 192.914062 326.523438 191.71875 326.523438 190.242188 C 326.523438 188.765625 325.328125 187.574219 323.851562 187.574219 " fill-opacity="1" fill-rule="nonzero"/><path fill="#523762" d="M 317.753906 63.511719 L 253.375 63.511719 L 275.117188 94.324219 L 339.5 94.324219 L 317.753906 63.511719 " fill-opacity="1" fill-rule="nonzero"/><path fill="#000000" d="M 275.457031 93.675781 L 338.242188 93.675781 L 317.417969 64.164062 L 254.632812 64.164062 Z M 339.5 94.976562 L 275.117188 94.976562 C 274.90625 94.976562 274.707031 94.875 274.585938 94.699219 L 252.84375 63.886719 C 252.703125 63.6875 252.683594 63.429688 252.796875 63.210938 C 252.910156 62.996094 253.132812 62.863281 253.375 62.863281 L 317.753906 62.863281 C 317.964844 62.863281 318.164062 62.964844 318.285156 63.136719 L 340.03125 93.949219 C 340.171875 94.148438 340.1875 94.410156 340.078125 94.625 C 339.964844 94.839844 339.742188 94.976562 339.5 94.976562 " fill-opacity="1" fill-rule="nonzero"/><path fill="#ffffff" d="M 275.117188 94.324219 L 253.375 63.511719 L 253.375 274.367188 L 275.117188 305.179688 L 275.117188 94.324219 " fill-opacity="1" fill-rule="nonzero"/><path fill="#000000" d="M 254.027344 274.160156 L 274.46875 303.125 L 274.46875 94.53125 L 254.027344 65.566406 Z M 275.117188 305.832031 C 274.910156 305.832031 274.710938 305.730469 274.585938 305.558594 L 252.84375 274.746094 C 252.765625 274.632812 252.722656 274.5 252.722656 274.367188 L 252.722656 63.511719 C 252.722656 63.230469 252.90625 62.976562 253.175781 62.890625 C 253.449219 62.804688 253.746094 62.90625 253.910156 63.136719 L 275.652344 93.949219 C 275.730469 94.058594 275.769531 94.191406 275.769531 94.324219 L 275.769531 305.179688 C 275.769531 305.464844 275.585938 305.71875 275.316406 305.800781 C 275.25 305.824219 275.183594 305.832031 275.117188 305.832031 " fill-opacity="1" fill-rule="nonzero"/><path fill="#ae9fcf" d="M 271.804688 287.023438 L 256.691406 265.601562 L 256.691406 259.457031 L 271.804688 280.140625 L 271.804688 287.023438 " fill-opacity="1" fill-rule="nonzero"/><path fill="#ae9fcf" d="M 271.804688 269.625 L 256.691406 248.207031 L 256.691406 242.0625 L 271.804688 262.742188 L 271.804688 269.625 " fill-opacity="1" fill-rule="nonzero"/><path fill="#523762" d="M 271.804688 252.234375 L 256.691406 230.8125 L 256.691406 224.667969 L 271.804688 245.347656 L 271.804688 252.234375 " fill-opacity="1" fill-rule="nonzero"/><path fill="#230b41" d="M 271.804688 234.835938 L 256.691406 213.417969 L 256.691406 207.273438 L 271.804688 227.953125 L 271.804688 234.835938 " fill-opacity="1" fill-rule="nonzero"/><path fill="#ae9fcf" d="M 271.804688 217.445312 L 256.691406 196.023438 L 256.691406 189.878906 L 271.804688 210.558594 L 271.804688 217.445312 " fill-opacity="1" fill-rule="nonzero"/><path fill="#ae9fcf" d="M 271.804688 200.046875 L 256.691406 178.628906 L 256.691406 172.484375 L 271.804688 193.164062 L 271.804688 200.046875 " fill-opacity="1" fill-rule="nonzero"/><path fill="#ae9fcf" d="M 271.804688 182.652344 L 256.691406 161.230469 L 256.691406 155.089844 L 271.804688 175.769531 L 271.804688 182.652344 " fill-opacity="1" fill-rule="nonzero"/><path fill="#230b41" d="M 361.242188 335.992188 L 296.863281 335.992188 L 296.863281 125.136719 L 361.242188 125.136719 L 361.242188 335.992188 " fill-opacity="1" fill-rule="nonzero"/><path fill="#000000" d="M 297.515625 335.339844 L 360.589844 335.339844 L 360.589844 125.789062 L 297.515625 125.789062 Z M 361.242188 336.644531 L 296.863281 336.644531 C 296.503906 336.644531 296.210938 336.351562 296.210938 335.992188 L 296.210938 125.136719 C 296.210938 124.777344 296.503906 124.484375 296.863281 124.484375 L 361.242188 124.484375 C 361.601562 124.484375 361.894531 124.777344 361.894531 125.136719 L 361.894531 335.992188 C 361.894531 336.351562 361.601562 336.644531 361.242188 336.644531 " fill-opacity="1" fill-rule="nonzero"/><path fill="#ae9fcf" d="M 345.597656 166.203125 L 312.507812 166.203125 C 311.03125 166.203125 309.835938 167.394531 309.835938 168.871094 C 309.835938 170.34375 311.03125 171.542969 312.507812 171.542969 L 345.597656 171.542969 C 347.070312 171.542969 348.265625 170.34375 348.265625 168.871094 C 348.265625 167.394531 347.070312 166.203125 345.597656 166.203125 " fill-opacity="1" fill-rule="nonzero"/><path fill="#ae9fcf" d="M 345.597656 179.246094 L 312.507812 179.246094 C 311.03125 179.246094 309.835938 180.441406 309.835938 181.917969 C 309.835938 183.390625 311.03125 184.585938 312.507812 184.585938 L 345.597656 184.585938 C 347.070312 184.585938 348.265625 183.390625 348.265625 181.917969 C 348.265625 180.441406 347.070312 179.246094 345.597656 179.246094 " fill-opacity="1" fill-rule="nonzero"/><path fill="#ae9fcf" d="M 345.597656 192.292969 L 312.507812 192.292969 C 311.03125 192.292969 309.835938 193.488281 309.835938 194.960938 C 309.835938 196.4375 311.03125 197.632812 312.507812 197.632812 L 345.597656 197.632812 C 347.070312 197.632812 348.265625 196.4375 348.265625 194.960938 C 348.265625 193.488281 347.070312 192.292969 345.597656 192.292969 " fill-opacity="1" fill-rule="nonzero"/><path fill="#ae9fcf" d="M 345.597656 205.339844 L 312.507812 205.339844 C 311.03125 205.339844 309.835938 206.535156 309.835938 208.011719 C 309.835938 209.484375 311.03125 210.679688 312.507812 210.679688 L 345.597656 210.679688 C 347.070312 210.679688 348.265625 209.484375 348.265625 208.011719 C 348.265625 206.535156 347.070312 205.339844 345.597656 205.339844 " fill-opacity="1" fill-rule="nonzero"/><path fill="#ae9fcf" d="M 345.597656 218.386719 L 312.507812 218.386719 C 311.03125 218.386719 309.835938 219.582031 309.835938 221.054688 C 309.835938 222.53125 311.03125 223.726562 312.507812 223.726562 L 345.597656 223.726562 C 347.070312 223.726562 348.265625 222.53125 348.265625 221.054688 C 348.265625 219.582031 347.070312 218.386719 345.597656 218.386719 " fill-opacity="1" fill-rule="nonzero"/><path fill="#523762" d="M 339.5 94.324219 L 275.117188 94.324219 L 296.863281 125.136719 L 361.242188 125.136719 L 339.5 94.324219 " fill-opacity="1" fill-rule="nonzero"/><path fill="#000000" d="M 297.199219 124.484375 L 359.984375 124.484375 L 339.160156 94.976562 L 276.375 94.976562 Z M 361.242188 125.789062 L 296.863281 125.789062 C 296.652344 125.789062 296.453125 125.6875 296.332031 125.515625 L 274.585938 94.699219 C 274.445312 94.503906 274.429688 94.242188 274.542969 94.023438 C 274.652344 93.808594 274.875 93.675781 275.117188 93.675781 L 339.5 93.675781 C 339.710938 93.675781 339.910156 93.777344 340.03125 93.949219 L 361.773438 124.765625 C 361.914062 124.960938 361.933594 125.222656 361.820312 125.4375 C 361.707031 125.65625 361.484375 125.789062 361.242188 125.789062 " fill-opacity="1" fill-rule="nonzero"/><path fill="#ffffff" d="M 296.863281 125.136719 L 275.117188 94.324219 L 275.117188 305.179688 L 296.863281 335.992188 L 296.863281 125.136719 " fill-opacity="1" fill-rule="nonzero"/><path fill="#000000" d="M 275.769531 304.972656 L 296.210938 333.9375 L 296.210938 125.34375 L 275.769531 96.378906 Z M 296.863281 336.644531 C 296.65625 336.644531 296.453125 336.546875 296.332031 336.367188 L 274.585938 305.558594 C 274.507812 305.445312 274.46875 305.316406 274.46875 305.179688 L 274.46875 94.324219 C 274.46875 94.042969 274.652344 93.792969 274.921875 93.703125 C 275.191406 93.621094 275.488281 93.71875 275.652344 93.949219 L 297.394531 124.765625 C 297.472656 124.871094 297.515625 125.003906 297.515625 125.136719 L 297.515625 335.992188 C 297.515625 336.277344 297.332031 336.527344 297.058594 336.613281 C 296.996094 336.632812 296.929688 336.644531 296.863281 336.644531 " fill-opacity="1" fill-rule="nonzero"/><path fill="#230b41" d="M 293.125 314.636719 L 278.007812 293.214844 L 278.007812 287.070312 L 293.125 307.75 L 293.125 314.636719 " fill-opacity="1" fill-rule="nonzero"/><path fill="#ae9fcf" d="M 293.125 297.242188 L 278.007812 275.820312 L 278.007812 269.675781 L 293.125 290.355469 L 293.125 297.242188 " fill-opacity="1" fill-rule="nonzero"/><path fill="#ae9fcf" d="M 293.125 279.84375 L 278.007812 258.425781 L 278.007812 252.28125 L 293.125 272.960938 L 293.125 279.84375 " fill-opacity="1" fill-rule="nonzero"/><path fill="#523762" d="M 293.125 262.453125 L 278.007812 241.03125 L 278.007812 234.886719 L 293.125 255.566406 L 293.125 262.453125 " fill-opacity="1" fill-rule="nonzero"/><path fill="#ae9fcf" d="M 293.125 245.054688 L 278.007812 223.636719 L 278.007812 217.492188 L 293.125 238.171875 L 293.125 245.054688 " fill-opacity="1" fill-rule="nonzero"/><path fill="#230b41" d="M 293.125 227.664062 L 278.007812 206.242188 L 278.007812 200.097656 L 293.125 220.777344 L 293.125 227.664062 " fill-opacity="1" fill-rule="nonzero"/><path fill="#ae9fcf" d="M 293.125 210.265625 L 278.007812 188.847656 L 278.007812 182.703125 L 293.125 203.382812 L 293.125 210.265625 " fill-opacity="1" fill-rule="nonzero"/><path fill="#230b41" d="M 44.214844 274.367188 L 108.59375 274.367188 L 108.59375 63.511719 L 44.214844 63.511719 L 44.214844 274.367188 " fill-opacity="1" fill-rule="nonzero"/><path fill="#000000" d="M 44.867188 273.714844 L 107.941406 273.714844 L 107.941406 64.164062 L 44.867188 64.164062 Z M 108.59375 275.019531 L 44.214844 275.019531 C 43.855469 275.019531 43.5625 274.726562 43.5625 274.367188 L 43.5625 63.511719 C 43.5625 63.152344 43.855469 62.863281 44.214844 62.863281 L 108.59375 62.863281 C 108.953125 62.863281 109.246094 63.152344 109.246094 63.511719 L 109.246094 274.367188 C 109.246094 274.726562 108.953125 275.019531 108.59375 275.019531 " fill-opacity="1" fill-rule="nonzero"/><path fill="#ae9fcf" d="M 59.859375 104.574219 L 92.949219 104.574219 C 94.425781 104.574219 95.621094 105.769531 95.621094 107.246094 C 95.621094 108.71875 94.425781 109.914062 92.949219 109.914062 L 59.859375 109.914062 C 58.386719 109.914062 57.191406 108.71875 57.191406 107.246094 C 57.191406 105.769531 58.386719 104.574219 59.859375 104.574219 " fill-opacity="1" fill-rule="nonzero"/><path fill="#ae9fcf" d="M 59.859375 117.621094 L 92.949219 117.621094 C 94.425781 117.621094 95.621094 118.816406 95.621094 120.289062 C 95.621094 121.765625 94.425781 122.960938 92.949219 122.960938 L 59.859375 122.960938 C 58.386719 122.960938 57.191406 121.765625 57.191406 120.289062 C 57.191406 118.816406 58.386719 117.621094 59.859375 117.621094 " fill-opacity="1" fill-rule="nonzero"/><path fill="#ae9fcf" d="M 59.859375 130.667969 L 92.949219 130.667969 C 94.425781 130.667969 95.621094 131.863281 95.621094 133.339844 C 95.621094 134.8125 94.425781 136.007812 92.949219 136.007812 L 59.859375 136.007812 C 58.386719 136.007812 57.191406 134.8125 57.191406 133.339844 C 57.191406 131.863281 58.386719 130.667969 59.859375 130.667969 " fill-opacity="1" fill-rule="nonzero"/><path fill="#ae9fcf" d="M 59.859375 143.714844 L 92.949219 143.714844 C 94.425781 143.714844 95.621094 144.910156 95.621094 146.382812 C 95.621094 147.859375 94.425781 149.054688 92.949219 149.054688 L 59.859375 149.054688 C 58.386719 149.054688 57.191406 147.859375 57.191406 146.382812 C 57.191406 144.910156 58.386719 143.714844 59.859375 143.714844 " fill-opacity="1" fill-rule="nonzero"/><path fill="#ae9fcf" d="M 59.859375 156.761719 L 92.949219 156.761719 C 94.425781 156.761719 95.621094 157.957031 95.621094 159.429688 C 95.621094 160.90625 94.425781 162.101562 92.949219 162.101562 L 59.859375 162.101562 C 58.386719 162.101562 57.191406 160.90625 57.191406 159.429688 C 57.191406 157.957031 58.386719 156.761719 59.859375 156.761719 " fill-opacity="1" fill-rule="nonzero"/><path fill="#523762" d="M 65.960938 32.699219 L 130.339844 32.699219 L 108.59375 63.511719 L 44.214844 63.511719 L 65.960938 32.699219 " fill-opacity="1" fill-rule="nonzero"/><path fill="#000000" d="M 45.472656 62.863281 L 108.257812 62.863281 L 129.082031 33.351562 L 66.296875 33.351562 Z M 108.59375 64.164062 L 44.214844 64.164062 C 43.972656 64.164062 43.75 64.03125 43.636719 63.8125 C 43.523438 63.597656 43.542969 63.335938 43.683594 63.136719 L 65.425781 32.324219 C 65.550781 32.152344 65.746094 32.046875 65.960938 32.046875 L 130.339844 32.046875 C 130.582031 32.046875 130.804688 32.183594 130.917969 32.402344 C 131.03125 32.617188 131.011719 32.878906 130.871094 33.078125 L 109.128906 63.886719 C 109.003906 64.0625 108.808594 64.164062 108.59375 64.164062 " fill-opacity="1" fill-rule="nonzero"/><path fill="#ffffff" d="M 108.59375 63.511719 L 130.339844 32.699219 L 130.339844 243.554688 L 108.59375 274.367188 L 108.59375 63.511719 " fill-opacity="1" fill-rule="nonzero"/><path fill="#000000" d="M 109.246094 63.722656 L 109.246094 272.3125 L 129.6875 243.347656 L 129.6875 34.753906 Z M 108.59375 275.019531 C 108.53125 275.019531 108.460938 275.011719 108.398438 274.988281 C 108.125 274.902344 107.941406 274.652344 107.941406 274.367188 L 107.941406 63.511719 C 107.941406 63.378906 107.984375 63.246094 108.0625 63.136719 L 129.804688 32.324219 C 129.96875 32.089844 130.265625 31.992188 130.535156 32.078125 C 130.804688 32.164062 130.988281 32.417969 130.988281 32.699219 L 130.988281 243.554688 C 130.988281 243.691406 130.949219 243.820312 130.871094 243.929688 L 109.128906 274.746094 C 109.003906 274.917969 108.804688 275.019531 108.59375 275.019531 " fill-opacity="1" fill-rule="nonzero"/><path fill="#230b41" d="M 111.910156 258.382812 L 127.023438 236.960938 L 127.023438 230.820312 L 111.910156 251.5 L 111.910156 258.382812 " fill-opacity="1" fill-rule="nonzero"/><path fill="#ae9fcf" d="M 111.910156 240.988281 L 127.023438 219.570312 L 127.023438 213.425781 L 111.910156 234.105469 L 111.910156 240.988281 " fill-opacity="1" fill-rule="nonzero"/><path fill="#523762" d="M 111.910156 223.59375 L 127.023438 202.171875 L 127.023438 196.027344 L 111.910156 216.710938 L 111.910156 223.59375 " fill-opacity="1" fill-rule="nonzero"/><path fill="#ae9fcf" d="M 111.910156 206.199219 L 127.023438 184.777344 L 127.023438 178.632812 L 111.910156 199.316406 L 111.910156 206.199219 " fill-opacity="1" fill-rule="nonzero"/><path fill="#ae9fcf" d="M 111.910156 188.804688 L 127.023438 167.382812 L 127.023438 161.242188 L 111.910156 181.917969 L 111.910156 188.804688 " fill-opacity="1" fill-rule="nonzero"/><path fill="#230b41" d="M 111.910156 171.410156 L 127.023438 149.988281 L 127.023438 143.84375 L 111.910156 164.527344 L 111.910156 171.410156 " fill-opacity="1" fill-rule="nonzero"/><path fill="#ae9fcf" d="M 111.910156 154.015625 L 127.023438 132.59375 L 127.023438 126.449219 L 111.910156 147.128906 L 111.910156 154.015625 " fill-opacity="1" fill-rule="nonzero"/><path fill="#230b41" d="M 22.472656 305.179688 L 86.851562 305.179688 L 86.851562 94.324219 L 22.472656 94.324219 L 22.472656 305.179688 " fill-opacity="1" fill-rule="nonzero"/><path fill="#000000" d="M 23.125 304.527344 L 86.199219 304.527344 L 86.199219 94.976562 L 23.125 94.976562 Z M 86.851562 305.832031 L 22.472656 305.832031 C 22.113281 305.832031 21.820312 305.542969 21.820312 305.179688 L 21.820312 94.324219 C 21.820312 93.964844 22.113281 93.675781 22.472656 93.675781 L 86.851562 93.675781 C 87.210938 93.675781 87.503906 93.964844 87.503906 94.324219 L 87.503906 305.179688 C 87.503906 305.542969 87.210938 305.832031 86.851562 305.832031 " fill-opacity="1" fill-rule="nonzero"/><path fill="#ae9fcf" d="M 38.117188 135.386719 L 71.207031 135.386719 C 72.679688 135.386719 73.875 136.585938 73.875 138.058594 C 73.875 139.535156 72.679688 140.726562 71.207031 140.726562 L 38.117188 140.726562 C 36.644531 140.726562 35.445312 139.535156 35.445312 138.058594 C 35.445312 136.585938 36.644531 135.386719 38.117188 135.386719 " fill-opacity="1" fill-rule="nonzero"/><path fill="#ae9fcf" d="M 38.117188 148.433594 L 71.207031 148.433594 C 72.679688 148.433594 73.875 149.628906 73.875 151.105469 C 73.875 152.578125 72.679688 153.773438 71.207031 153.773438 L 38.117188 153.773438 C 36.644531 153.773438 35.445312 152.578125 35.445312 151.105469 C 35.445312 149.628906 36.644531 148.433594 38.117188 148.433594 " fill-opacity="1" fill-rule="nonzero"/><path fill="#ae9fcf" d="M 38.117188 161.480469 L 71.207031 161.480469 C 72.679688 161.480469 73.875 162.675781 73.875 164.152344 C 73.875 165.625 72.679688 166.820312 71.207031 166.820312 L 38.117188 166.820312 C 36.644531 166.820312 35.445312 165.625 35.445312 164.152344 C 35.445312 162.675781 36.644531 161.480469 38.117188 161.480469 " fill-opacity="1" fill-rule="nonzero"/><path fill="#ae9fcf" d="M 38.117188 174.527344 L 71.207031 174.527344 C 72.679688 174.527344 73.875 175.722656 73.875 177.195312 C 73.875 178.671875 72.679688 179.867188 71.207031 179.867188 L 38.117188 179.867188 C 36.644531 179.867188 35.445312 178.671875 35.445312 177.195312 C 35.445312 175.722656 36.644531 174.527344 38.117188 174.527344 " fill-opacity="1" fill-rule="nonzero"/><path fill="#ae9fcf" d="M 38.117188 187.574219 L 71.207031 187.574219 C 72.679688 187.574219 73.875 188.765625 73.875 190.242188 C 73.875 191.71875 72.679688 192.914062 71.207031 192.914062 L 38.117188 192.914062 C 36.644531 192.914062 35.445312 191.71875 35.445312 190.242188 C 35.445312 188.765625 36.644531 187.574219 38.117188 187.574219 " fill-opacity="1" fill-rule="nonzero"/><path fill="#523762" d="M 44.214844 63.511719 L 108.59375 63.511719 L 86.851562 94.324219 L 22.472656 94.324219 L 44.214844 63.511719 " fill-opacity="1" fill-rule="nonzero"/><path fill="#000000" d="M 23.730469 93.675781 L 86.511719 93.675781 L 107.335938 64.164062 L 44.554688 64.164062 Z M 86.851562 94.976562 L 22.472656 94.976562 C 22.230469 94.976562 22.003906 94.839844 21.894531 94.625 C 21.78125 94.410156 21.800781 94.148438 21.9375 93.949219 L 43.683594 63.136719 C 43.804688 62.964844 44.003906 62.863281 44.214844 62.863281 L 108.59375 62.863281 C 108.839844 62.863281 109.0625 62.996094 109.171875 63.210938 C 109.285156 63.429688 109.269531 63.6875 109.128906 63.886719 L 87.382812 94.699219 C 87.261719 94.875 87.0625 94.976562 86.851562 94.976562 " fill-opacity="1" fill-rule="nonzero"/><path fill="#ffffff" d="M 86.851562 94.324219 L 108.59375 63.511719 L 108.59375 274.367188 L 86.851562 305.179688 L 86.851562 94.324219 " fill-opacity="1" fill-rule="nonzero"/><path fill="#000000" d="M 87.503906 94.53125 L 87.503906 303.125 L 107.941406 274.160156 L 107.941406 65.566406 Z M 86.851562 305.832031 C 86.785156 305.832031 86.71875 305.824219 86.652344 305.800781 C 86.382812 305.71875 86.199219 305.464844 86.199219 305.179688 L 86.199219 94.324219 C 86.199219 94.191406 86.242188 94.058594 86.320312 93.949219 L 108.0625 63.136719 C 108.226562 62.90625 108.523438 62.804688 108.792969 62.890625 C 109.0625 62.976562 109.246094 63.230469 109.246094 63.511719 L 109.246094 274.367188 C 109.246094 274.5 109.207031 274.632812 109.128906 274.746094 L 87.382812 305.558594 C 87.257812 305.730469 87.058594 305.832031 86.851562 305.832031 " fill-opacity="1" fill-rule="nonzero"/><path fill="#230b41" d="M 90.402344 284.988281 L 105.519531 263.566406 L 105.519531 257.421875 L 90.402344 278.105469 L 90.402344 284.988281 " fill-opacity="1" fill-rule="nonzero"/><path fill="#ae9fcf" d="M 90.402344 267.59375 L 105.519531 246.171875 L 105.519531 240.027344 L 90.402344 260.707031 L 90.402344 267.59375 " fill-opacity="1" fill-rule="nonzero"/><path fill="#ae9fcf" d="M 90.402344 250.199219 L 105.519531 228.777344 L 105.519531 222.632812 L 90.402344 243.3125 L 90.402344 250.199219 " fill-opacity="1" fill-rule="nonzero"/><path fill="#230b41" d="M 90.402344 232.804688 L 105.519531 211.382812 L 105.519531 205.238281 L 90.402344 225.921875 L 90.402344 232.804688 " fill-opacity="1" fill-rule="nonzero"/><path fill="#ae9fcf" d="M 90.402344 215.410156 L 105.519531 193.988281 L 105.519531 187.84375 L 90.402344 208.523438 L 90.402344 215.410156 " fill-opacity="1" fill-rule="nonzero"/><path fill="#523762" d="M 90.402344 198.015625 L 105.519531 176.59375 L 105.519531 170.449219 L 90.402344 191.132812 L 90.402344 198.015625 " fill-opacity="1" fill-rule="nonzero"/><path fill="#ae9fcf" d="M 90.402344 180.617188 L 105.519531 159.199219 L 105.519531 153.054688 L 90.402344 173.734375 L 90.402344 180.617188 " fill-opacity="1" fill-rule="nonzero"/><path fill="#230b41" d="M 0.726562 335.992188 L 65.109375 335.992188 L 65.109375 125.136719 L 0.726562 125.136719 L 0.726562 335.992188 " fill-opacity="1" fill-rule="nonzero"/><path fill="#000000" d="M 1.378906 335.339844 L 64.457031 335.339844 L 64.457031 125.789062 L 1.378906 125.789062 Z M 65.109375 336.644531 L 0.726562 336.644531 C 0.367188 336.644531 0.078125 336.351562 0.078125 335.992188 L 0.078125 125.136719 C 0.078125 124.777344 0.367188 124.484375 0.726562 124.484375 L 65.109375 124.484375 C 65.46875 124.484375 65.761719 124.777344 65.761719 125.136719 L 65.761719 335.992188 C 65.761719 336.351562 65.46875 336.644531 65.109375 336.644531 " fill-opacity="1" fill-rule="nonzero"/><path fill="#ae9fcf" d="M 16.375 166.203125 L 49.464844 166.203125 C 50.9375 166.203125 52.132812 167.394531 52.132812 168.871094 C 52.132812 170.34375 50.9375 171.542969 49.464844 171.542969 L 16.375 171.542969 C 14.898438 171.542969 13.703125 170.34375 13.703125 168.871094 C 13.703125 167.394531 14.898438 166.203125 16.375 166.203125 " fill-opacity="1" fill-rule="nonzero"/><path fill="#ae9fcf" d="M 16.375 179.246094 L 49.464844 179.246094 C 50.9375 179.246094 52.132812 180.441406 52.132812 181.917969 C 52.132812 183.390625 50.9375 184.585938 49.464844 184.585938 L 16.375 184.585938 C 14.898438 184.585938 13.703125 183.390625 13.703125 181.917969 C 13.703125 180.441406 14.898438 179.246094 16.375 179.246094 " fill-opacity="1" fill-rule="nonzero"/><path fill="#ae9fcf" d="M 16.375 192.292969 L 49.464844 192.292969 C 50.9375 192.292969 52.132812 193.488281 52.132812 194.960938 C 52.132812 196.4375 50.9375 197.632812 49.464844 197.632812 L 16.375 197.632812 C 14.898438 197.632812 13.703125 196.4375 13.703125 194.960938 C 13.703125 193.488281 14.898438 192.292969 16.375 192.292969 " fill-opacity="1" fill-rule="nonzero"/><path fill="#ae9fcf" d="M 16.375 205.339844 L 49.464844 205.339844 C 50.9375 205.339844 52.132812 206.535156 52.132812 208.011719 C 52.132812 209.484375 50.9375 210.679688 49.464844 210.679688 L 16.375 210.679688 C 14.898438 210.679688 13.703125 209.484375 13.703125 208.011719 C 13.703125 206.535156 14.898438 205.339844 16.375 205.339844 " fill-opacity="1" fill-rule="nonzero"/><path fill="#ae9fcf" d="M 16.375 218.386719 L 49.464844 218.386719 C 50.9375 218.386719 52.132812 219.582031 52.132812 221.054688 C 52.132812 222.53125 50.9375 223.726562 49.464844 223.726562 L 16.375 223.726562 C 14.898438 223.726562 13.703125 222.53125 13.703125 221.054688 C 13.703125 219.582031 14.898438 218.386719 16.375 218.386719 " fill-opacity="1" fill-rule="nonzero"/><path fill="#523762" d="M 22.472656 94.324219 L 86.851562 94.324219 L 65.109375 125.136719 L 0.726562 125.136719 L 22.472656 94.324219 " fill-opacity="1" fill-rule="nonzero"/><path fill="#000000" d="M 1.988281 124.484375 L 64.769531 124.484375 L 85.59375 94.976562 L 22.808594 94.976562 Z M 65.109375 125.789062 L 0.726562 125.789062 C 0.484375 125.789062 0.261719 125.65625 0.148438 125.4375 C 0.0390625 125.222656 0.0546875 124.960938 0.195312 124.765625 L 21.9375 93.949219 C 22.0625 93.777344 22.261719 93.675781 22.472656 93.675781 L 86.851562 93.675781 C 87.09375 93.675781 87.316406 93.808594 87.429688 94.023438 C 87.542969 94.242188 87.523438 94.503906 87.382812 94.699219 L 65.640625 125.515625 C 65.519531 125.6875 65.320312 125.789062 65.109375 125.789062 " fill-opacity="1" fill-rule="nonzero"/><path fill="#ffffff" d="M 65.109375 125.136719 L 86.851562 94.324219 L 86.851562 305.179688 L 65.109375 335.992188 L 65.109375 125.136719 " fill-opacity="1" fill-rule="nonzero"/><path fill="#000000" d="M 65.761719 125.34375 L 65.761719 333.9375 L 86.199219 304.972656 L 86.199219 96.378906 Z M 65.109375 336.644531 C 65.042969 336.644531 64.976562 336.632812 64.910156 336.613281 C 64.640625 336.527344 64.457031 336.277344 64.457031 335.992188 L 64.457031 125.136719 C 64.457031 125.003906 64.496094 124.871094 64.574219 124.765625 L 86.320312 93.949219 C 86.484375 93.71875 86.777344 93.621094 87.046875 93.703125 C 87.320312 93.792969 87.503906 94.042969 87.503906 94.324219 L 87.503906 305.179688 C 87.503906 305.316406 87.460938 305.445312 87.382812 305.558594 L 65.640625 336.367188 C 65.515625 336.546875 65.316406 336.644531 65.109375 336.644531 " fill-opacity="1" fill-rule="nonzero"/><path fill="#230b41" d="M 68.421875 312.425781 L 83.539062 291.003906 L 83.539062 284.859375 L 68.421875 305.542969 L 68.421875 312.425781 " fill-opacity="1" fill-rule="nonzero"/><path fill="#ae9fcf" d="M 68.421875 295.03125 L 83.539062 273.609375 L 83.539062 267.464844 L 68.421875 288.144531 L 68.421875 295.03125 " fill-opacity="1" fill-rule="nonzero"/><path fill="#230b41" d="M 68.421875 277.636719 L 83.539062 256.214844 L 83.539062 250.070312 L 68.421875 270.75 L 68.421875 277.636719 " fill-opacity="1" fill-rule="nonzero"/><path fill="#ae9fcf" d="M 68.421875 260.238281 L 83.539062 238.820312 L 83.539062 232.675781 L 68.421875 253.355469 L 68.421875 260.238281 " fill-opacity="1" fill-rule="nonzero"/><path fill="#523762" d="M 68.421875 242.847656 L 83.539062 221.425781 L 83.539062 215.28125 L 68.421875 235.960938 L 68.421875 242.847656 " fill-opacity="1" fill-rule="nonzero"/><path fill="#ae9fcf" d="M 68.421875 225.449219 L 83.539062 204.03125 L 83.539062 197.886719 L 68.421875 218.566406 L 68.421875 225.449219 " fill-opacity="1" fill-rule="nonzero"/><path fill="#230b41" d="M 68.421875 208.054688 L 83.539062 186.632812 L 83.539062 180.492188 L 68.421875 201.171875 L 68.421875 208.054688 " fill-opacity="1" fill-rule="nonzero"/><path fill="#ffffff" d="M 253.320312 197.214844 C 253.320312 196.636719 221.121094 191.550781 219.042969 185.667969 C 215.941406 176.886719 212.078125 166.328125 212.078125 166.328125 L 204.039062 171.40625 L 209.214844 196.671875 L 253.320312 197.214844 " fill-opacity="1" fill-rule="nonzero"/><path fill="#000000" d="M 209.746094 196.027344 L 247.457031 196.492188 C 233.144531 193.421875 219.882812 190.011719 218.425781 185.886719 C 215.839844 178.554688 212.683594 169.890625 211.742188 167.3125 L 204.765625 171.71875 Z M 253.320312 197.867188 C 253.316406 197.867188 253.3125 197.867188 253.3125 197.867188 L 209.207031 197.324219 C 208.898438 197.320312 208.636719 197.101562 208.574219 196.804688 L 203.398438 171.539062 C 203.34375 171.273438 203.460938 171 203.6875 170.859375 L 211.730469 165.78125 C 211.898438 165.671875 212.101562 165.648438 212.289062 165.710938 C 212.476562 165.777344 212.621094 165.921875 212.691406 166.105469 C 212.730469 166.210938 216.59375 176.765625 219.65625 185.453125 C 221.101562 189.546875 240.335938 193.640625 248.550781 195.390625 C 253.972656 196.546875 253.972656 196.546875 253.96875 197.21875 C 253.96875 197.394531 253.898438 197.558594 253.773438 197.679688 C 253.652344 197.800781 253.488281 197.867188 253.320312 197.867188 " fill-opacity="1" fill-rule="nonzero"/><path fill="#523762" d="M 161.476562 139.183594 C 169.15625 136.679688 180.855469 134.882812 194.839844 139.335938 C 199.941406 140.957031 203.597656 145.445312 204.226562 150.761719 L 215.617188 216.355469 C 216.183594 221.121094 209.808594 225.757812 205.320312 227.460938 C 200.628906 229.238281 193.539062 230.917969 183.5 230.917969 C 172.734375 230.917969 164.914062 231.542969 160.546875 229.632812 C 156.925781 228.046875 151.472656 224.207031 151.289062 220.253906 L 152.078125 152.835938 C 151.792969 146.6875 155.628906 141.089844 161.476562 139.183594 " fill-opacity="1" fill-rule="nonzero"/><path fill="#523762" d="M 215.273438 167.367188 C 215.273438 167.367188 206.179688 142.179688 195.980469 139.757812 L 201.164062 175.449219 L 215.273438 167.367188 " fill-opacity="1" fill-rule="nonzero"/><path fill="#523762" d="M 140.269531 179.757812 C 140.269531 179.757812 141.269531 162.90625 142.722656 156.394531 C 145.789062 142.695312 158.855469 140.625 158.855469 140.625 L 160.441406 177.417969 L 140.269531 179.757812 " fill-opacity="1" fill-rule="nonzero"/><path fill="#000000" d="M 171.640625 144.53125 C 165.5 144.53125 160.675781 143.679688 160.324219 143.617188 C 159.972656 143.554688 159.734375 143.214844 159.800781 142.859375 C 159.863281 142.503906 160.199219 142.269531 160.554688 142.335938 C 160.707031 142.359375 175.613281 144.988281 186.402344 140.988281 C 186.742188 140.863281 187.117188 141.035156 187.238281 141.371094 C 187.367188 141.710938 187.191406 142.085938 186.855469 142.210938 C 181.984375 144.015625 176.417969 144.53125 171.640625 144.53125 " fill-opacity="1" fill-rule="nonzero"/><path fill="#ffffff" d="M 142.816406 179.058594 C 142.816406 179.058594 141.835938 191.910156 146.925781 200.539062 C 153.007812 210.84375 183.683594 196.964844 183.683594 196.964844 L 187.25 194.945312 C 189.667969 193.578125 192.542969 193.289062 195.179688 194.140625 L 200.945312 195.996094 C 200.945312 195.996094 196.183594 190.292969 192.136719 188.109375 C 190.238281 187.085938 187.78125 188.054688 185.699219 189.371094 C 182.125 191.632812 177.921875 192.695312 173.691406 192.570312 L 161.484375 192.207031 C 159.4375 192.144531 157.757812 190.5625 157.582031 188.519531 L 156.652344 177.886719 L 142.816406 179.058594 " fill-opacity="1" fill-rule="nonzero"/><path fill="#000000" d="M 143.4375 179.660156 C 143.328125 182.191406 143.152344 192.859375 147.488281 200.207031 C 149.003906 202.777344 152.226562 203.722656 156.140625 203.722656 C 166.804688 203.722656 182.632812 196.722656 183.390625 196.382812 L 186.933594 194.378906 C 189.496094 192.925781 192.574219 192.613281 195.382812 193.519531 L 198.855469 194.640625 C 197.140625 192.804688 194.320312 190.027344 191.828125 188.683594 C 190.121094 187.761719 187.742188 188.847656 186.050781 189.921875 C 182.429688 192.214844 178.148438 193.355469 173.671875 193.222656 L 161.46875 192.859375 C 159.085938 192.789062 157.136719 190.945312 156.929688 188.578125 L 156.058594 178.59375 Z M 156.226562 204.988281 C 151.832031 204.988281 148.152344 203.894531 146.367188 200.871094 C 141.230469 192.167969 142.128906 179.542969 142.167969 179.007812 C 142.191406 178.6875 142.441406 178.4375 142.761719 178.410156 L 156.597656 177.238281 C 156.957031 177.207031 157.273438 177.472656 157.304688 177.832031 L 158.230469 188.460938 C 158.378906 190.175781 159.789062 191.503906 161.507812 191.554688 L 173.710938 191.917969 C 177.925781 192.042969 181.953125 190.972656 185.351562 188.820312 C 188.242188 186.988281 190.628906 186.554688 192.445312 187.535156 C 196.558594 189.75 201.246094 195.34375 201.445312 195.578125 C 201.632812 195.804688 201.648438 196.121094 201.484375 196.363281 C 201.320312 196.601562 201.019531 196.707031 200.742188 196.617188 L 194.980469 194.757812 C 192.523438 193.964844 189.820312 194.238281 187.574219 195.511719 L 184.003906 197.53125 C 183.988281 197.542969 183.972656 197.550781 183.953125 197.558594 C 183.039062 197.972656 167.355469 204.988281 156.226562 204.988281 " fill-opacity="1" fill-rule="nonzero"/><path fill="#ffffff" d="M 189.894531 320.410156 L 183.242188 340.25 C 183.242188 340.25 190.484375 339.636719 191.179688 339.769531 C 191.871094 339.90625 200.34375 321.671875 200.34375 321.671875 L 189.894531 320.410156 " fill-opacity="1" fill-rule="nonzero"/><path fill="#000000" d="M 191.277344 339.125 C 191.285156 339.125 191.292969 339.128906 191.300781 339.128906 C 191.292969 339.128906 191.285156 339.125 191.277344 339.125 Z M 191.304688 339.128906 Z M 190.34375 321.121094 L 184.175781 339.519531 C 186.203125 339.351562 189.722656 339.082031 190.953125 339.105469 C 192 337.707031 196.457031 328.460938 199.375 322.214844 Z M 183.242188 340.902344 C 183.042969 340.902344 182.855469 340.8125 182.730469 340.65625 C 182.597656 340.484375 182.554688 340.253906 182.625 340.042969 L 189.273438 320.203125 C 189.371094 319.910156 189.660156 319.722656 189.96875 319.761719 L 200.421875 321.027344 C 200.628906 321.050781 200.8125 321.175781 200.914062 321.355469 C 201.015625 321.539062 201.023438 321.757812 200.9375 321.949219 C 200.914062 321.996094 198.789062 326.5625 196.609375 331.054688 C 191.976562 340.59375 191.6875 340.535156 191.054688 340.410156 C 190.589844 340.34375 186.742188 340.609375 183.296875 340.902344 C 183.28125 340.902344 183.261719 340.902344 183.242188 340.902344 " fill-opacity="1" fill-rule="nonzero"/><path fill="#230b41" d="M 184.765625 335.890625 C 184.765625 335.890625 194.769531 331.792969 196.617188 336.9375 C 198.96875 343.480469 202.648438 353.46875 202.648438 353.46875 C 203.269531 355.207031 202.074219 357.058594 200.230469 357.207031 C 196.578125 357.5 191.125 357.738281 188.585938 356.847656 C 184.574219 355.441406 177.925781 342.75 177.925781 342.75 L 179.972656 331.953125 C 179.972656 331.953125 183.601562 331.441406 184.765625 335.890625 " fill-opacity="1" fill-rule="nonzero"/><path fill="#000000" d="M 178.605469 342.648438 C 180.519531 346.257812 185.769531 355.167969 188.800781 356.234375 C 190.652344 356.882812 194.695312 357 200.179688 356.558594 C 200.855469 356.503906 201.449219 356.148438 201.816406 355.578125 C 202.183594 355.011719 202.261719 354.324219 202.035156 353.6875 C 202 353.59375 198.328125 343.628906 196.003906 337.15625 C 195.714844 336.355469 195.183594 335.792969 194.386719 335.4375 C 191.167969 334.007812 185.074219 336.46875 185.011719 336.496094 C 184.839844 336.566406 184.640625 336.558594 184.472656 336.476562 C 184.308594 336.390625 184.183594 336.238281 184.136719 336.058594 C 183.363281 333.101562 181.410156 332.640625 180.515625 332.589844 Z M 194.34375 358.125 C 191.980469 358.125 189.773438 357.957031 188.371094 357.464844 C 184.238281 356.011719 178.039062 344.378906 177.347656 343.054688 C 177.277344 342.925781 177.253906 342.773438 177.28125 342.628906 L 179.332031 331.832031 C 179.382812 331.558594 179.609375 331.347656 179.882812 331.308594 C 179.921875 331.304688 183.699219 330.824219 185.1875 335.035156 C 186.964844 334.398438 191.847656 332.882812 194.914062 334.246094 C 196.039062 334.746094 196.820312 335.578125 197.230469 336.71875 C 199.554688 343.183594 203.222656 353.144531 203.257812 353.242188 C 203.625 354.269531 203.5 355.375 202.914062 356.285156 C 202.324219 357.199219 201.367188 357.769531 200.285156 357.859375 C 198.449219 358.007812 196.339844 358.125 194.34375 358.125 " fill-opacity="1" fill-rule="nonzero"/><path fill="#000000" d="M 200.085938 353.535156 L 189.8125 353.535156 C 189.453125 353.535156 189.160156 353.246094 189.160156 352.882812 C 189.160156 352.523438 189.453125 352.234375 189.8125 352.234375 L 200.085938 352.234375 C 200.445312 352.234375 200.734375 352.523438 200.734375 352.882812 C 200.734375 353.246094 200.445312 353.535156 200.085938 353.535156 " fill-opacity="1" fill-rule="nonzero"/><path fill="#ffffff" d="M 171.035156 325.285156 L 173.296875 345.246094 L 182.386719 342.75 L 181.683594 324.769531 L 171.035156 325.285156 " fill-opacity="1" fill-rule="nonzero"/><path fill="#000000" d="M 171.761719 325.902344 L 173.859375 344.414062 L 181.714844 342.261719 L 181.058594 325.449219 Z M 173.296875 345.898438 C 173.164062 345.898438 173.039062 345.859375 172.929688 345.785156 C 172.769531 345.679688 172.667969 345.507812 172.648438 345.316406 L 170.386719 325.359375 C 170.367188 325.179688 170.421875 325 170.539062 324.863281 C 170.65625 324.726562 170.824219 324.640625 171.003906 324.632812 L 181.652344 324.117188 C 181.828125 324.109375 182 324.167969 182.125 324.289062 C 182.253906 324.40625 182.332031 324.570312 182.335938 324.742188 L 183.039062 342.726562 C 183.050781 343.027344 182.851562 343.300781 182.558594 343.378906 L 173.46875 345.875 C 173.410156 345.890625 173.351562 345.898438 173.296875 345.898438 " fill-opacity="1" fill-rule="nonzero"/><path fill="#230b41" d="M 172.4375 359.949219 L 186.820312 359.949219 C 188.765625 359.949219 190.261719 358.222656 189.976562 356.300781 C 189.496094 353.050781 187.933594 347.664062 183.242188 340.25 C 182.730469 339.441406 181.835938 338.949219 180.878906 338.949219 L 176.503906 338.949219 C 175.75 338.949219 175.117188 339.519531 175.039062 340.273438 L 174.710938 343.425781 L 172.804688 340.914062 C 172.804688 340.914062 169.40625 348.074219 169.246094 356.703125 C 169.214844 358.488281 170.65625 359.949219 172.4375 359.949219 " fill-opacity="1" fill-rule="nonzero"/><path fill="#000000" d="M 172.960938 342.199219 C 172.054688 344.449219 170.019531 350.183594 169.898438 356.714844 C 169.886719 357.402344 170.144531 358.046875 170.625 358.539062 C 171.109375 359.027344 171.75 359.296875 172.4375 359.296875 L 186.820312 359.296875 C 187.5625 359.296875 188.261719 358.976562 188.742188 358.417969 C 189.226562 357.859375 189.441406 357.121094 189.332031 356.394531 C 188.867188 353.238281 187.335938 347.9375 182.691406 340.601562 C 182.300781 339.984375 181.609375 339.601562 180.878906 339.601562 L 176.503906 339.601562 C 176.082031 339.601562 175.734375 339.921875 175.6875 340.339844 L 175.359375 343.492188 C 175.328125 343.761719 175.144531 343.984375 174.882812 344.054688 C 174.625 344.125 174.351562 344.035156 174.1875 343.820312 Z M 186.820312 360.601562 L 172.4375 360.601562 C 171.398438 360.601562 170.425781 360.195312 169.695312 359.449219 C 168.96875 358.710938 168.578125 357.730469 168.59375 356.691406 C 168.753906 348.019531 172.074219 340.929688 172.214844 340.632812 C 172.316406 340.425781 172.511719 340.285156 172.738281 340.261719 C 172.964844 340.242188 173.1875 340.335938 173.324219 340.519531 L 174.230469 341.71875 L 174.390625 340.203125 C 174.503906 339.117188 175.414062 338.300781 176.503906 338.300781 L 180.878906 338.300781 C 182.070312 338.300781 183.15625 338.898438 183.792969 339.902344 C 188.558594 347.433594 190.136719 352.925781 190.621094 356.203125 C 190.785156 357.308594 190.460938 358.425781 189.730469 359.269531 C 189 360.117188 187.941406 360.601562 186.820312 360.601562 " fill-opacity="1" fill-rule="nonzero"/><path fill="#000000" d="M 188.585938 357.164062 L 171.367188 357.164062 C 171.007812 357.164062 170.714844 356.871094 170.714844 356.511719 C 170.714844 356.152344 171.007812 355.863281 171.367188 355.863281 L 188.585938 355.863281 C 188.945312 355.863281 189.238281 356.152344 189.238281 356.511719 C 189.238281 356.871094 188.945312 357.164062 188.585938 357.164062 " fill-opacity="1" fill-rule="nonzero"/><path fill="#000000" d="M 205.175781 205.414062 C 204.796875 204.492188 204.035156 203.789062 203.085938 203.492188 C 197.828125 201.839844 179.492188 197.492188 160.617188 209.597656 C 159.726562 210.171875 159.15625 211.128906 159.078125 212.183594 C 158.398438 221.773438 155.851562 271.917969 171.714844 331.289062 L 182.402344 330.527344 L 184.578125 229.015625 C 184.578125 229.015625 200.40625 266.230469 187.539062 325.457031 L 198.652344 327.507812 C 198.652344 327.507812 214.914062 306.121094 217.824219 273.445312 C 220.402344 244.535156 208.058594 212.4375 205.175781 205.414062 " fill-opacity="1" fill-rule="nonzero"/><path fill="#ffffff" d="M 174.4375 284.339844 C 174.429688 284.339844 174.417969 284.339844 174.410156 284.339844 C 164.332031 283.90625 163.195312 270.238281 163.183594 270.101562 C 163.15625 269.742188 163.425781 269.429688 163.785156 269.402344 C 164.148438 269.375 164.457031 269.644531 164.484375 270.003906 C 164.496094 270.132812 165.546875 282.652344 174.464844 283.035156 C 174.824219 283.050781 175.105469 283.359375 175.089844 283.71875 C 175.074219 284.066406 174.785156 284.339844 174.4375 284.339844 " fill-opacity="1" fill-rule="nonzero"/><path fill="#ffffff" d="M 185.507812 238.972656 C 185.160156 238.972656 184.867188 238.695312 184.859375 238.339844 L 184.480469 225.644531 C 184.472656 225.421875 184.578125 225.214844 184.757812 225.089844 L 191.417969 220.40625 C 191.710938 220.199219 192.121094 220.269531 192.328125 220.566406 C 192.535156 220.859375 192.464844 221.265625 192.167969 221.472656 L 185.792969 225.957031 L 186.160156 238.304688 C 186.171875 238.660156 185.890625 238.960938 185.527344 238.972656 C 185.519531 238.972656 185.515625 238.972656 185.507812 238.972656 " fill-opacity="1" fill-rule="nonzero"/><path fill="#000000" d="M 171.105469 115.101562 C 167.042969 111.605469 166.117188 111.128906 164.933594 109.128906 C 163.96875 107.496094 161.816406 103.847656 163.273438 99.992188 C 164.53125 96.660156 168.011719 94.648438 171.210938 94.476562 C 174.089844 94.320312 176.1875 95.679688 177.296875 96.398438 C 177.78125 96.710938 182.058594 99.5625 182.902344 104.222656 C 183.128906 105.488281 182.957031 106.070312 183.535156 106.863281 C 184.835938 108.648438 187.1875 107.738281 188.8125 109.21875 C 190.859375 111.082031 189.910156 115.042969 189.832031 115.351562 C 188.765625 119.578125 184.199219 122.378906 180.476562 121.988281 C 178.328125 121.765625 178.558594 121.507812 171.105469 115.101562 " fill-opacity="1" fill-rule="nonzero"/><path fill="#ffffff" d="M 182.304688 136.007812 C 180.339844 134.707031 179.195312 132.480469 179.25 130.128906 L 179.472656 120.355469 C 179.539062 120.292969 179.601562 120.230469 179.667969 120.167969 C 179.667969 120.167969 183.582031 120.429688 184.152344 118.4375 C 184.722656 116.441406 181.957031 116.0625 181.957031 116.0625 C 181.957031 116.0625 184.570312 110.558594 177.808594 110.621094 C 175.992188 110.640625 175.34375 107.628906 172.363281 106.957031 C 172.363281 106.957031 170.890625 106.828125 169.394531 110.695312 L 166.121094 115.535156 L 167.757812 116.433594 C 167.355469 118.273438 167.179688 120.304688 167.429688 122.457031 C 167.5 123.078125 167.925781 123.597656 168.523438 123.789062 C 169.011719 123.949219 169.675781 124.121094 170.453125 124.210938 L 169.929688 130.75 C 169.699219 133.613281 168.195312 136.21875 165.84375 137.871094 C 163.574219 139.460938 161.476562 140.589844 161.476562 140.589844 C 161.476562 140.589844 173.535156 142.238281 187.398438 139.074219 C 187.398438 139.074219 184.71875 137.609375 182.304688 136.007812 " fill-opacity="1" fill-rule="nonzero"/><path fill="#000000" d="M 172.304688 107.605469 Z M 163.558594 140.140625 C 167.3125 140.429688 175.929688 140.753906 185.589844 138.796875 C 184.589844 138.214844 183.222656 137.398438 181.941406 136.550781 C 179.789062 135.125 178.535156 132.714844 178.597656 130.109375 L 178.820312 120.339844 C 178.824219 120.164062 178.898438 119.996094 179.027344 119.875 L 179.222656 119.695312 C 179.351562 119.570312 179.53125 119.507812 179.710938 119.519531 C 180.59375 119.574219 183.179688 119.46875 183.527344 118.257812 C 183.640625 117.851562 183.542969 117.632812 183.460938 117.503906 C 183.121094 116.984375 182.171875 116.75 181.867188 116.707031 C 181.660156 116.679688 181.480469 116.554688 181.382812 116.371094 C 181.285156 116.1875 181.277344 115.96875 181.367188 115.78125 C 181.375 115.761719 182.277344 113.804688 181.457031 112.527344 C 180.914062 111.675781 179.683594 111.25 177.8125 111.273438 C 177.808594 111.273438 177.800781 111.273438 177.792969 111.273438 C 176.664062 111.273438 175.910156 110.449219 175.183594 109.648438 C 174.425781 108.8125 173.644531 107.949219 172.316406 107.613281 C 172.105469 107.671875 171.105469 108.078125 170.003906 110.929688 C 169.984375 110.976562 169.960938 111.019531 169.933594 111.058594 L 167.066406 115.308594 L 168.070312 115.863281 C 168.324219 116 168.457031 116.289062 168.394531 116.570312 C 167.964844 118.535156 167.859375 120.492188 168.078125 122.382812 C 168.121094 122.746094 168.371094 123.058594 168.722656 123.167969 C 169.300781 123.355469 169.910156 123.488281 170.53125 123.5625 C 170.878906 123.601562 171.132812 123.914062 171.105469 124.261719 L 170.578125 130.800781 C 170.332031 133.859375 168.742188 136.632812 166.21875 138.402344 C 165.25 139.085938 164.316406 139.675781 163.558594 140.140625 Z M 169.523438 141.660156 C 164.617188 141.660156 161.449219 141.242188 161.390625 141.234375 C 161.109375 141.195312 160.886719 140.984375 160.835938 140.703125 C 160.785156 140.425781 160.921875 140.148438 161.167969 140.015625 C 161.191406 140.003906 163.261719 138.886719 165.46875 137.335938 C 167.675781 135.789062 169.0625 133.371094 169.277344 130.695312 L 169.757812 124.765625 C 169.265625 124.679688 168.785156 124.558594 168.320312 124.410156 C 167.488281 124.140625 166.882812 123.402344 166.78125 122.53125 C 166.5625 120.652344 166.648438 118.714844 167.023438 116.773438 L 165.808594 116.109375 C 165.648438 116.019531 165.53125 115.867188 165.488281 115.691406 C 165.445312 115.511719 165.480469 115.324219 165.582031 115.171875 L 168.8125 110.390625 C 170.394531 106.34375 172.09375 106.28125 172.417969 106.304688 C 172.449219 106.308594 172.476562 106.3125 172.507812 106.320312 C 174.292969 106.722656 175.320312 107.859375 176.148438 108.769531 C 176.824219 109.515625 177.265625 109.972656 177.792969 109.972656 C 177.832031 109.972656 177.878906 109.96875 177.925781 109.96875 C 180.210938 109.96875 181.769531 110.59375 182.558594 111.828125 C 183.382812 113.113281 183.101562 114.691406 182.824219 115.601562 C 183.390625 115.789062 184.125 116.140625 184.550781 116.792969 C 184.890625 117.316406 184.972656 117.945312 184.78125 118.617188 C 184.199219 120.640625 181.324219 120.839844 180.113281 120.835938 L 179.898438 130.140625 C 179.847656 132.296875 180.882812 134.285156 182.664062 135.464844 C 185.03125 137.03125 187.683594 138.488281 187.710938 138.5 C 187.949219 138.628906 188.082031 138.894531 188.042969 139.164062 C 188.007812 139.429688 187.808594 139.648438 187.542969 139.710938 C 180.726562 141.265625 174.300781 141.660156 169.523438 141.660156 " fill-opacity="1" fill-rule="nonzero"/><path fill="#ffffff" d="M 170.453125 124.210938 C 170.453125 124.210938 174.746094 124.359375 176.449219 122.027344 L 170.453125 124.210938 " fill-opacity="1" fill-rule="nonzero"/><path fill="#000000" d="M 170.628906 124.863281 C 170.523438 124.863281 170.453125 124.859375 170.433594 124.859375 C 170.074219 124.847656 169.792969 124.546875 169.804688 124.1875 C 169.816406 123.828125 170.113281 123.542969 170.476562 123.558594 C 170.515625 123.558594 174.445312 123.664062 175.921875 121.640625 C 176.136719 121.351562 176.542969 121.285156 176.835938 121.5 C 177.125 121.710938 177.1875 122.117188 176.976562 122.410156 C 175.289062 124.71875 171.546875 124.863281 170.628906 124.863281 " fill-opacity="1" fill-rule="nonzero"/><path fill="#000000" d="M 260.464844 194.671875 L 219.414062 194.671875 L 249.847656 147.867188 C 250.796875 146.40625 252.453125 145.519531 254.234375 145.519531 L 287.550781 145.519531 C 289.667969 145.519531 290.953125 147.785156 289.824219 149.519531 L 260.464844 194.671875 " fill-opacity="1" fill-rule="nonzero"/><path fill="#ae9fcf" d="M 269.222656 161.929688 C 267.886719 163.980469 265.019531 165.644531 262.8125 165.644531 C 260.609375 165.644531 259.90625 163.980469 261.238281 161.929688 C 262.570312 159.878906 265.441406 158.214844 267.644531 158.214844 C 269.847656 158.214844 270.558594 159.878906 269.222656 161.929688 " fill-opacity="1" fill-rule="nonzero"/><path fill="#000000" d="M 256.371094 198.578125 L 188.027344 198.578125 C 185.683594 198.578125 183.785156 196.679688 183.785156 194.335938 L 260.613281 194.335938 C 260.613281 196.679688 258.714844 198.578125 256.371094 198.578125 " fill-opacity="1" fill-rule="nonzero"/><path fill="#ffffff" d="M 258.328125 195.363281 L 223.074219 195.363281 C 222.71875 195.363281 222.425781 195.074219 222.425781 194.710938 C 222.425781 194.355469 222.71875 194.0625 223.074219 194.0625 L 258.328125 194.0625 C 258.691406 194.0625 258.984375 194.355469 258.984375 194.710938 C 258.984375 195.074219 258.691406 195.363281 258.328125 195.363281 " fill-opacity="1" fill-rule="nonzero"/><path fill="#523762" d="M 237.351562 71.941406 C 237.351562 63.058594 230.304688 55.824219 221.496094 55.523438 C 217.082031 36.386719 199.9375 22.117188 179.457031 22.117188 C 158.261719 22.117188 140.632812 37.410156 137.003906 57.5625 C 128.523438 58.425781 121.90625 65.585938 121.90625 74.292969 C 121.90625 74.332031 121.90625 74.371094 121.90625 74.410156 C 121.945312 80.101562 126.613281 84.679688 132.304688 84.679688 L 224.554688 84.679688 C 231.433594 84.679688 237.171875 79.246094 237.34375 72.367188 C 237.347656 72.226562 237.351562 72.085938 237.351562 71.941406 " fill-opacity="1" fill-rule="nonzero"/><path fill="#ae9fcf" d="M 190.738281 47.25 C 194.035156 52.773438 192.230469 59.917969 186.707031 63.214844 C 181.1875 66.507812 174.039062 64.703125 170.742188 59.183594 C 167.449219 53.660156 169.253906 46.515625 174.777344 43.21875 C 180.296875 39.921875 187.445312 41.726562 190.738281 47.25 Z M 170.695312 31.96875 L 166.8125 34.285156 L 168.347656 38.980469 C 167.542969 39.675781 166.808594 40.429688 166.144531 41.234375 L 161.414062 39.835938 L 159.210938 43.785156 L 162.886719 47.082031 C 162.546875 48.078125 162.289062 49.097656 162.117188 50.136719 L 157.316406 51.292969 L 157.378906 55.816406 L 162.207031 56.832031 C 162.40625 57.851562 162.695312 58.867188 163.070312 59.859375 L 159.492188 63.261719 L 161.808594 67.144531 L 166.503906 65.609375 C 167.199219 66.414062 167.957031 67.148438 168.761719 67.8125 L 167.363281 72.542969 L 171.3125 74.746094 L 174.609375 71.070312 C 175.605469 71.410156 176.625 71.667969 177.660156 71.839844 L 178.816406 76.644531 L 183.339844 76.578125 L 184.355469 71.75 C 185.378906 71.550781 186.390625 71.261719 187.386719 70.886719 L 190.789062 74.464844 L 194.671875 72.148438 L 193.136719 67.453125 C 193.941406 66.757812 194.675781 66.003906 195.335938 65.195312 L 200.066406 66.59375 L 202.273438 62.648438 L 198.59375 59.347656 C 198.933594 58.351562 199.191406 57.332031 199.363281 56.296875 L 204.167969 55.140625 L 204.101562 50.617188 L 199.273438 49.601562 C 199.074219 48.578125 198.785156 47.566406 198.410156 46.570312 L 201.988281 43.167969 L 199.671875 39.285156 L 194.976562 40.820312 C 194.28125 40.015625 193.527344 39.28125 192.722656 38.621094 L 194.121094 33.890625 L 190.171875 31.683594 L 186.875 35.363281 C 185.878906 35.023438 184.859375 34.765625 183.820312 34.59375 L 182.664062 29.789062 L 178.140625 29.855469 L 177.125 34.683594 C 176.105469 34.882812 175.09375 35.171875 174.097656 35.546875 L 170.695312 31.96875 " fill-opacity="1" fill-rule="nonzero"/><path fill="#ae9fcf" d="M 151.316406 67.082031 C 152.789062 69.546875 151.984375 72.738281 149.515625 74.210938 C 147.050781 75.683594 143.859375 74.875 142.386719 72.410156 C 140.914062 69.945312 141.722656 66.753906 144.1875 65.28125 C 146.652344 63.808594 149.84375 64.617188 151.316406 67.082031 Z M 142.363281 60.253906 L 140.628906 61.289062 L 141.316406 63.386719 C 140.957031 63.699219 140.628906 64.035156 140.332031 64.394531 L 138.222656 63.769531 L 137.234375 65.535156 L 138.878906 67.007812 C 138.726562 67.449219 138.613281 67.90625 138.535156 68.371094 L 136.390625 68.886719 L 136.417969 70.90625 L 138.574219 71.359375 C 138.664062 71.816406 138.792969 72.269531 138.960938 72.714844 L 137.363281 74.234375 L 138.398438 75.96875 L 140.492188 75.28125 C 140.804688 75.640625 141.140625 75.96875 141.5 76.261719 L 140.875 78.375 L 142.640625 79.363281 L 144.113281 77.71875 C 144.558594 77.871094 145.015625 77.984375 145.476562 78.0625 L 145.992188 80.207031 L 148.011719 80.179688 L 148.46875 78.023438 C 148.921875 77.933594 149.375 77.804688 149.820312 77.636719 L 151.339844 79.234375 L 153.074219 78.199219 L 152.386719 76.105469 C 152.746094 75.792969 153.074219 75.453125 153.371094 75.097656 L 155.484375 75.722656 L 156.46875 73.957031 L 154.824219 72.484375 C 154.976562 72.042969 155.09375 71.582031 155.167969 71.121094 L 157.316406 70.605469 L 157.285156 68.585938 L 155.128906 68.132812 C 155.039062 67.675781 154.910156 67.222656 154.742188 66.777344 L 156.34375 65.257812 L 155.308594 63.523438 L 153.210938 64.210938 C 152.898438 63.851562 152.5625 63.519531 152.203125 63.226562 L 152.828125 61.113281 L 151.0625 60.128906 L 149.589844 61.773438 C 149.148438 61.621094 148.691406 61.503906 148.226562 61.429688 L 147.710938 59.285156 L 145.691406 59.3125 L 145.238281 61.46875 C 144.78125 61.554688 144.328125 61.6875 143.882812 61.855469 L 142.363281 60.253906 " fill-opacity="1" fill-rule="nonzero"/><path fill="#000000" d="M 237.347656 73.019531 C 236.988281 73.019531 236.695312 72.730469 236.695312 72.367188 C 236.695312 66.140625 234.136719 61.523438 229.097656 58.652344 C 225.308594 56.492188 221.484375 56.175781 221.445312 56.175781 C 221.085938 56.148438 220.816406 55.832031 220.847656 55.476562 C 220.875 55.117188 221.191406 54.847656 221.546875 54.875 C 221.710938 54.886719 237.996094 56.324219 237.996094 72.367188 C 237.996094 72.730469 237.707031 73.019531 237.347656 73.019531 " fill-opacity="1" fill-rule="nonzero"/><path fill="#000000" d="M 204.777344 85.332031 L 156.625 85.332031 C 156.261719 85.332031 155.972656 85.039062 155.972656 84.679688 C 155.972656 84.320312 156.261719 84.027344 156.625 84.027344 L 204.777344 84.027344 C 205.136719 84.027344 205.429688 84.320312 205.429688 84.679688 C 205.429688 85.039062 205.136719 85.332031 204.777344 85.332031 " fill-opacity="1" fill-rule="nonzero"/><path fill="#000000" d="M 142.570312 42.222656 C 142.441406 42.222656 142.316406 42.1875 142.203125 42.113281 C 141.90625 41.910156 141.828125 41.507812 142.03125 41.207031 C 142.144531 41.039062 153.683594 24.210938 173.375 21.886719 C 173.734375 21.84375 174.058594 22.097656 174.101562 22.457031 C 174.144531 22.816406 173.886719 23.140625 173.527344 23.183594 C 154.425781 25.4375 143.222656 41.773438 143.109375 41.933594 C 142.984375 42.121094 142.777344 42.222656 142.570312 42.222656 " fill-opacity="1" fill-rule="nonzero"/></svg>