<svg xmlns="http://www.w3.org/2000/svg" xmlns:xlink="http://www.w3.org/1999/xlink" width="500" zoomAndPan="magnify" viewBox="0 0 375 374.999991" height="500" preserveAspectRatio="xMidYMid meet" version="1.0"><path fill="#ae9fcf" d="M 149.542969 17.503906 C 141.59375 19.984375 106.332031 31.496094 71.117188 62.050781 C 62.585938 69.453125 28.105469 99.367188 13.375 139.589844 C -11.699219 208.050781 18.304688 312.203125 104.730469 354.0625 C 205.390625 402.8125 332.546875 342.804688 361.550781 262.5 C 374.410156 226.878906 374.992188 167.8125 342.589844 128.867188 C 316.511719 97.519531 271.914062 82.625 273.644531 52.976562 C 274.476562 38.695312 285.25 34.75 282.265625 25.753906 C 275.171875 4.421875 205.710938 0 149.542969 17.503906 " fill-opacity="1" fill-rule="nonzero"/><path fill="#ffffff" d="M 353.589844 7.066406 L 19.742188 7.066406 C 12.375 7.066406 6.398438 13.90625 6.398438 22.347656 L 6.398438 284.527344 C 6.398438 292.964844 12.375 299.808594 19.742188 299.808594 L 353.589844 299.808594 C 360.957031 299.808594 366.929688 292.964844 366.929688 284.527344 L 366.929688 22.347656 C 366.929688 13.90625 360.957031 7.066406 353.589844 7.066406 " fill-opacity="1" fill-rule="nonzero"/><path fill="#000000" d="M 19.742188 7.726562 C 12.75 7.726562 7.058594 14.285156 7.058594 22.347656 L 7.058594 284.527344 C 7.058594 292.589844 12.75 299.148438 19.742188 299.148438 L 353.589844 299.148438 C 360.582031 299.148438 366.269531 292.589844 366.269531 284.527344 L 366.269531 22.347656 C 366.269531 14.285156 360.582031 7.726562 353.589844 7.726562 Z M 353.589844 300.46875 L 19.742188 300.46875 C 12.023438 300.46875 5.738281 293.316406 5.738281 284.527344 L 5.738281 22.347656 C 5.738281 13.558594 12.023438 6.40625 19.742188 6.40625 L 353.589844 6.40625 C 361.308594 6.40625 367.589844 13.558594 367.589844 22.347656 L 367.589844 284.527344 C 367.589844 293.316406 361.308594 300.46875 353.589844 300.46875 " fill-opacity="1" fill-rule="nonzero"/><path fill="#523762" d="M 19.742188 293.835938 C 15.261719 293.835938 11.617188 289.660156 11.617188 284.527344 L 11.617188 22.347656 C 11.617188 17.214844 15.261719 13.039062 19.742188 13.039062 L 353.589844 13.039062 C 358.070312 13.039062 361.714844 17.214844 361.714844 22.347656 L 361.714844 284.527344 C 361.714844 289.660156 358.070312 293.835938 353.589844 293.835938 L 19.742188 293.835938 " fill-opacity="1" fill-rule="nonzero"/><path fill="#000000" d="M 348.4375 286.882812 L 24.894531 286.882812 C 20.871094 286.882812 17.597656 283.179688 17.597656 278.625 L 17.597656 215.632812 C 17.597656 215.269531 17.894531 214.972656 18.257812 214.972656 C 18.625 214.972656 18.917969 215.269531 18.917969 215.632812 L 18.917969 278.625 C 18.917969 282.453125 21.597656 285.5625 24.894531 285.5625 L 348.4375 285.5625 C 351.730469 285.5625 354.410156 282.453125 354.410156 278.625 L 354.410156 175.324219 C 354.410156 174.960938 354.707031 174.664062 355.070312 174.664062 C 355.433594 174.664062 355.730469 174.960938 355.730469 175.324219 L 355.730469 278.625 C 355.730469 283.179688 352.457031 286.882812 348.4375 286.882812 " fill-opacity="1" fill-rule="nonzero"/><path fill="#000000" d="M 18.257812 57.820312 C 17.894531 57.820312 17.597656 57.523438 17.597656 57.160156 L 17.597656 41.042969 C 17.597656 40.675781 17.894531 40.378906 18.257812 40.378906 C 18.625 40.378906 18.917969 40.675781 18.917969 41.042969 L 18.917969 57.160156 C 18.917969 57.523438 18.625 57.820312 18.257812 57.820312 " fill-opacity="1" fill-rule="nonzero"/><path fill="#000000" d="M 18.257812 28.90625 C 17.894531 28.90625 17.597656 28.613281 17.597656 28.25 C 17.597656 23.695312 20.871094 19.992188 24.894531 19.992188 L 44.132812 19.992188 C 44.5 19.992188 44.792969 20.285156 44.792969 20.648438 C 44.792969 21.015625 44.5 21.308594 44.132812 21.308594 L 24.894531 21.308594 C 21.597656 21.308594 18.917969 24.421875 18.917969 28.25 C 18.917969 28.613281 18.625 28.90625 18.257812 28.90625 " fill-opacity="1" fill-rule="nonzero"/><path fill="#000000" d="M 355.070312 77.410156 C 354.707031 77.410156 354.410156 77.113281 354.410156 76.75 L 354.410156 58.933594 C 354.410156 58.570312 354.707031 58.273438 355.070312 58.273438 C 355.433594 58.273438 355.730469 58.570312 355.730469 58.933594 L 355.730469 76.75 C 355.730469 77.113281 355.433594 77.410156 355.070312 77.410156 " fill-opacity="1" fill-rule="nonzero"/><path fill="#ffffff" d="M 30.886719 198.046875 C 30.886719 196.472656 31.097656 194.972656 31.515625 193.554688 C 31.9375 192.128906 32.554688 190.871094 33.371094 189.773438 C 34.1875 188.679688 35.074219 187.917969 36.03125 187.492188 L 36.609375 189.101562 C 35.605469 189.84375 34.820312 190.992188 34.257812 192.542969 C 33.695312 194.097656 33.414062 195.90625 33.414062 197.984375 L 33.414062 198.300781 C 33.414062 200.382812 33.691406 202.203125 34.246094 203.765625 C 34.804688 205.324219 35.589844 206.488281 36.609375 207.257812 L 36.03125 208.832031 C 35.097656 208.414062 34.226562 207.675781 33.417969 206.613281 C 32.609375 205.554688 31.996094 204.328125 31.566406 202.941406 C 31.140625 201.550781 30.917969 200.101562 30.886719 198.59375 L 30.886719 198.046875 " fill-opacity="1" fill-rule="nonzero"/><path fill="#ffffff" d="M 42.410156 196.324219 L 44.285156 192.996094 L 47.46875 192.996094 L 44.292969 198.457031 L 47.601562 204.144531 L 44.410156 204.144531 L 42.417969 200.640625 L 40.441406 204.144531 L 37.234375 204.144531 L 40.542969 198.457031 L 37.378906 192.996094 L 40.574219 192.996094 L 42.410156 196.324219 " fill-opacity="1" fill-rule="nonzero"/><path fill="#ffffff" d="M 51.640625 192.996094 L 51.734375 194.285156 C 52.53125 193.289062 53.601562 192.792969 54.941406 192.792969 C 56.121094 192.792969 57 193.136719 57.578125 193.832031 C 58.15625 194.523438 58.449219 195.5625 58.464844 196.945312 L 58.464844 204.144531 L 55.484375 204.144531 L 55.484375 197.015625 C 55.484375 196.382812 55.347656 195.925781 55.074219 195.640625 C 54.796875 195.355469 54.34375 195.210938 53.703125 195.210938 C 52.867188 195.210938 52.238281 195.570312 51.816406 196.285156 L 51.816406 204.144531 L 48.839844 204.144531 L 48.839844 192.996094 L 51.640625 192.996094 " fill-opacity="1" fill-rule="nonzero"/><path fill="#ffffff" d="M 71.109375 198.285156 C 71.109375 199.835938 70.886719 201.332031 70.4375 202.765625 C 69.992188 204.199219 69.351562 205.46875 68.511719 206.566406 C 67.671875 207.667969 66.777344 208.421875 65.824219 208.832031 L 65.246094 207.257812 C 66.222656 206.523438 66.992188 205.390625 67.554688 203.855469 C 68.117188 202.324219 68.410156 200.5625 68.429688 198.570312 L 68.429688 198.027344 C 68.429688 195.96875 68.148438 194.160156 67.589844 192.59375 C 67.03125 191.027344 66.25 189.851562 65.246094 189.070312 L 65.824219 187.492188 C 66.757812 187.898438 67.636719 188.632812 68.464844 189.699219 C 69.292969 190.761719 69.933594 192.003906 70.390625 193.417969 C 70.847656 194.835938 71.085938 196.300781 71.109375 197.816406 L 71.109375 198.285156 " fill-opacity="1" fill-rule="nonzero"/><path fill="#ffffff" d="M 75.105469 189.832031 L 74.808594 193.996094 L 72.921875 193.996094 L 72.921875 188.320312 L 75.105469 188.320312 L 75.105469 189.832031 " fill-opacity="1" fill-rule="nonzero"/><path fill="#ffffff" d="M 91.554688 200.921875 L 82.339844 200.921875 L 82.339844 198.488281 L 91.554688 198.488281 Z M 91.554688 196.460938 L 82.339844 196.460938 L 82.339844 194.027344 L 91.554688 194.027344 L 91.554688 196.460938 " fill-opacity="1" fill-rule="nonzero"/><path fill="#ffffff" d="M 102.15625 192.996094 L 102.25 194.285156 C 103.046875 193.289062 104.117188 192.792969 105.457031 192.792969 C 106.636719 192.792969 107.515625 193.136719 108.09375 193.832031 C 108.671875 194.523438 108.964844 195.5625 108.980469 196.945312 L 108.980469 204.144531 L 106.003906 204.144531 L 106.003906 197.015625 C 106.003906 196.382812 105.863281 195.925781 105.589844 195.640625 C 105.3125 195.355469 104.859375 195.210938 104.21875 195.210938 C 103.378906 195.210938 102.753906 195.570312 102.332031 196.285156 L 102.332031 204.144531 L 99.355469 204.144531 L 99.355469 192.996094 L 102.15625 192.996094 " fill-opacity="1" fill-rule="nonzero"/><path fill="#ffffff" d="M 116.792969 196.964844 C 116.792969 196.488281 116.949219 196.105469 117.265625 195.808594 C 117.582031 195.511719 117.984375 195.367188 118.46875 195.367188 C 118.957031 195.367188 119.363281 195.511719 119.683594 195.808594 C 120 196.105469 120.160156 196.488281 120.160156 196.964844 C 120.160156 197.4375 120 197.820312 119.675781 198.113281 C 119.355469 198.40625 118.953125 198.550781 118.46875 198.550781 C 117.976562 198.550781 117.574219 198.402344 117.257812 198.101562 C 116.945312 197.804688 116.792969 197.425781 116.792969 196.964844 " fill-opacity="1" fill-rule="nonzero"/><path fill="#ffffff" d="M 132.351562 196.324219 L 134.226562 192.996094 L 137.410156 192.996094 L 134.238281 198.457031 L 137.542969 204.144531 L 134.351562 204.144531 L 132.363281 200.640625 L 130.382812 204.144531 L 127.179688 204.144531 L 130.488281 198.457031 L 127.324219 192.996094 L 130.515625 192.996094 L 132.351562 196.324219 " fill-opacity="1" fill-rule="nonzero"/><path fill="#ffffff" d="M 141.585938 192.996094 L 141.675781 194.285156 C 142.472656 193.289062 143.542969 192.792969 144.882812 192.792969 C 146.0625 192.792969 146.945312 193.136719 147.519531 193.832031 C 148.097656 194.523438 148.394531 195.5625 148.40625 196.945312 L 148.40625 204.144531 L 145.429688 204.144531 L 145.429688 197.015625 C 145.429688 196.382812 145.292969 195.925781 145.015625 195.640625 C 144.742188 195.355469 144.285156 195.210938 143.644531 195.210938 C 142.808594 195.210938 142.179688 195.570312 141.757812 196.285156 L 141.757812 204.144531 L 138.78125 204.144531 L 138.78125 192.996094 L 141.585938 192.996094 " fill-opacity="1" fill-rule="nonzero"/><path fill="#ffffff" d="M 161.710938 198.921875 L 155.910156 198.921875 L 155.910156 196.519531 L 161.710938 196.519531 L 161.710938 198.921875 " fill-opacity="1" fill-rule="nonzero"/><path fill="#ffffff" d="M 176.46875 204.144531 L 173.488281 204.144531 L 173.488281 192.667969 L 169.933594 193.769531 L 169.933594 191.347656 L 176.148438 189.121094 L 176.46875 189.121094 L 176.46875 204.144531 " fill-opacity="1" fill-rule="nonzero"/><path fill="#ffffff" d="M 287.742188 107.152344 C 287.378906 107.152344 287.085938 106.859375 287.085938 106.492188 L 287.085938 42.53125 C 287.085938 42.167969 287.378906 41.875 287.742188 41.875 C 288.109375 41.875 288.402344 42.167969 288.402344 42.53125 L 288.402344 106.492188 C 288.402344 106.859375 288.109375 107.152344 287.742188 107.152344 " fill-opacity="1" fill-rule="nonzero"/><path fill="#ffffff" d="M 285.507812 45.160156 L 287.742188 42.921875 L 289.980469 45.160156 L 289.980469 43.261719 L 287.742188 41.023438 L 285.507812 43.261719 L 285.507812 45.160156 " fill-opacity="1" fill-rule="nonzero"/><path fill="#ffffff" d="M 336.058594 81.832031 L 237.921875 81.832031 C 237.554688 81.832031 237.261719 81.539062 237.261719 81.171875 C 237.261719 80.808594 237.554688 80.515625 237.921875 80.515625 L 336.058594 80.515625 C 336.425781 80.515625 336.71875 80.808594 336.71875 81.171875 C 336.71875 81.539062 336.425781 81.832031 336.058594 81.832031 " fill-opacity="1" fill-rule="nonzero"/><path fill="#ffffff" d="M 333.433594 83.410156 L 335.671875 81.171875 L 333.433594 78.9375 L 335.332031 78.9375 L 337.566406 81.171875 L 335.332031 83.410156 L 333.433594 83.410156 " fill-opacity="1" fill-rule="nonzero"/><path fill="#230b41" d="M 287.96875 102.820312 C 276.589844 102.820312 267.335938 93.566406 267.335938 82.191406 L 267.335938 70.347656 C 267.335938 59.699219 258.671875 51.039062 248.023438 51.039062 L 237.917969 51.039062 C 237.554688 51.039062 237.261719 50.742188 237.261719 50.378906 C 237.261719 50.015625 237.554688 49.71875 237.917969 49.71875 L 248.023438 49.71875 C 259.402344 49.71875 268.65625 58.972656 268.65625 70.347656 L 268.65625 82.191406 C 268.65625 92.839844 277.316406 101.503906 287.96875 101.503906 C 298.613281 101.503906 307.277344 92.839844 307.277344 82.191406 L 307.277344 70.347656 C 307.277344 58.972656 316.53125 49.71875 327.90625 49.71875 L 333.828125 49.71875 C 334.191406 49.71875 334.488281 50.015625 334.488281 50.378906 C 334.488281 50.742188 334.191406 51.039062 333.828125 51.039062 L 327.90625 51.039062 C 317.261719 51.039062 308.597656 59.699219 308.597656 70.347656 L 308.597656 82.191406 C 308.597656 93.566406 299.34375 102.820312 287.96875 102.820312 " fill-opacity="1" fill-rule="nonzero"/><path fill="#ffffff" d="M 40.652344 134.761719 L 96.46875 134.761719 L 40.652344 77.183594 Z M 98.023438 136.078125 L 39.992188 136.078125 C 39.628906 136.078125 39.332031 135.785156 39.332031 135.421875 L 39.332031 75.554688 C 39.332031 75.285156 39.496094 75.042969 39.746094 74.945312 C 39.992188 74.84375 40.28125 74.902344 40.464844 75.097656 L 98.5 134.960938 C 98.683594 135.152344 98.734375 135.433594 98.632812 135.679688 C 98.527344 135.921875 98.289062 136.078125 98.023438 136.078125 " fill-opacity="1" fill-rule="nonzero"/><path fill="#230b41" d="M 45.46875 135.421875 C 45.46875 138.445312 43.015625 140.898438 39.992188 140.898438 C 36.96875 140.898438 34.515625 138.445312 34.515625 135.421875 C 34.515625 132.394531 36.96875 129.945312 39.992188 129.945312 C 43.015625 129.945312 45.46875 132.394531 45.46875 135.421875 " fill-opacity="1" fill-rule="nonzero"/><path fill="#000000" d="M 39.992188 130.601562 C 37.335938 130.601562 35.175781 132.765625 35.175781 135.421875 C 35.175781 138.078125 37.335938 140.238281 39.992188 140.238281 C 42.648438 140.238281 44.808594 138.078125 44.808594 135.421875 C 44.808594 132.765625 42.648438 130.601562 39.992188 130.601562 Z M 39.992188 141.554688 C 36.609375 141.554688 33.855469 138.804688 33.855469 135.421875 C 33.855469 132.035156 36.609375 129.285156 39.992188 129.285156 C 43.375 129.285156 46.128906 132.035156 46.128906 135.421875 C 46.128906 138.804688 43.375 141.554688 39.992188 141.554688 " fill-opacity="1" fill-rule="nonzero"/><path fill="#230b41" d="M 103.5 135.421875 C 103.5 138.445312 101.050781 140.898438 98.027344 140.898438 C 95 140.898438 92.550781 138.445312 92.550781 135.421875 C 92.550781 132.394531 95 129.945312 98.027344 129.945312 C 101.050781 129.945312 103.5 132.394531 103.5 135.421875 " fill-opacity="1" fill-rule="nonzero"/><path fill="#000000" d="M 98.023438 130.601562 C 95.371094 130.601562 93.207031 132.765625 93.207031 135.421875 C 93.207031 138.078125 95.371094 140.238281 98.023438 140.238281 C 100.679688 140.238281 102.84375 138.078125 102.84375 135.421875 C 102.84375 132.765625 100.679688 130.601562 98.023438 130.601562 Z M 98.023438 141.554688 C 94.640625 141.554688 91.890625 138.804688 91.890625 135.421875 C 91.890625 132.035156 94.640625 129.285156 98.023438 129.285156 C 101.40625 129.285156 104.160156 132.035156 104.160156 135.421875 C 104.160156 138.804688 101.40625 141.554688 98.023438 141.554688 " fill-opacity="1" fill-rule="nonzero"/><path fill="#230b41" d="M 45.46875 75.554688 C 45.46875 78.578125 43.015625 81.03125 39.992188 81.03125 C 36.96875 81.03125 34.515625 78.578125 34.515625 75.554688 C 34.515625 72.53125 36.96875 70.078125 39.992188 70.078125 C 43.015625 70.078125 45.46875 72.53125 45.46875 75.554688 " fill-opacity="1" fill-rule="nonzero"/><path fill="#000000" d="M 39.992188 70.738281 C 37.335938 70.738281 35.175781 72.898438 35.175781 75.554688 C 35.175781 78.210938 37.335938 80.371094 39.992188 80.371094 C 42.648438 80.371094 44.808594 78.210938 44.808594 75.554688 C 44.808594 72.898438 42.648438 70.738281 39.992188 70.738281 Z M 39.992188 81.691406 C 36.609375 81.691406 33.855469 78.9375 33.855469 75.554688 C 33.855469 72.171875 36.609375 69.417969 39.992188 69.417969 C 43.375 69.417969 46.128906 72.171875 46.128906 75.554688 C 46.128906 78.9375 43.375 81.691406 39.992188 81.691406 " fill-opacity="1" fill-rule="nonzero"/><path fill="#ffffff" d="M 239.003906 126.507812 C 239.429688 126.613281 239.847656 126.617188 240.257812 126.519531 C 240.664062 126.417969 240.992188 126.230469 241.246094 125.953125 L 241.714844 124.09375 L 240.636719 123.824219 C 239.191406 123.460938 238.292969 123.765625 237.949219 124.742188 L 237.898438 124.910156 C 237.804688 125.269531 237.855469 125.597656 238.054688 125.894531 C 238.25 126.191406 238.5625 126.394531 239.003906 126.507812 Z M 240.886719 129.113281 C 240.820312 128.824219 240.804688 128.476562 240.839844 128.074219 C 239.945312 128.675781 238.9375 128.835938 237.820312 128.554688 C 236.761719 128.289062 235.960938 127.761719 235.417969 126.976562 C 234.875 126.1875 234.722656 125.328125 234.957031 124.394531 C 235.246094 123.246094 235.890625 122.476562 236.894531 122.078125 C 237.898438 121.675781 239.203125 121.675781 240.8125 122.074219 L 242.140625 122.40625 L 242.296875 121.785156 C 242.421875 121.289062 242.394531 120.855469 242.210938 120.492188 C 242.03125 120.125 241.664062 119.875 241.109375 119.734375 C 240.625 119.613281 240.214844 119.636719 239.878906 119.800781 C 239.542969 119.960938 239.324219 120.246094 239.222656 120.652344 L 236.335938 119.925781 C 236.492188 119.300781 236.832031 118.769531 237.351562 118.335938 C 237.871094 117.898438 238.523438 117.617188 239.304688 117.492188 C 240.089844 117.367188 240.917969 117.414062 241.800781 117.636719 C 243.132812 117.972656 244.105469 118.570312 244.71875 119.4375 C 245.332031 120.304688 245.488281 121.34375 245.183594 122.558594 L 244.003906 127.242188 C 243.753906 128.269531 243.699219 129.082031 243.847656 129.679688 L 243.804688 129.847656 L 240.886719 129.113281 " fill-opacity="1" fill-rule="nonzero"/><path fill="#ffffff" d="M 252.488281 132.035156 L 249.601562 131.308594 L 252.402344 120.175781 L 248.6875 120.378906 L 249.277344 118.027344 L 255.84375 117.386719 L 256.15625 117.464844 L 252.488281 132.035156 " fill-opacity="1" fill-rule="nonzero"/><path fill="#ffffff" d="M 257.933594 134.734375 L 255.78125 134.191406 L 265.113281 119.738281 L 267.265625 120.28125 L 257.933594 134.734375 " fill-opacity="1" fill-rule="nonzero"/><path fill="#ffffff" d="M 270.359375 125.03125 L 270.136719 126.304688 C 271.152344 125.53125 272.308594 125.308594 273.609375 125.636719 C 274.753906 125.925781 275.523438 126.476562 275.914062 127.289062 C 276.304688 128.101562 276.335938 129.179688 276.015625 130.523438 L 274.257812 137.507812 L 271.371094 136.78125 L 273.105469 129.867188 C 273.261719 129.253906 273.242188 128.777344 273.042969 128.433594 C 272.847656 128.089844 272.4375 127.839844 271.816406 127.683594 C 271.007812 127.480469 270.308594 127.671875 269.726562 128.261719 L 267.8125 135.886719 L 264.921875 135.160156 L 267.644531 124.347656 L 270.359375 125.03125 " fill-opacity="1" fill-rule="nonzero"/><path fill="#ffffff" d="M 292.601562 134.199219 L 283.667969 131.949219 L 284.261719 129.59375 L 293.195312 131.839844 Z M 291.511719 138.523438 L 282.578125 136.277344 L 283.171875 133.917969 L 292.105469 136.164062 L 291.511719 138.523438 " fill-opacity="1" fill-rule="nonzero"/><path fill="#ffffff" d="M 303.730469 133.425781 L 303.503906 134.695312 C 304.519531 133.925781 305.679688 133.703125 306.976562 134.03125 C 308.125 134.316406 308.890625 134.871094 309.28125 135.683594 C 309.671875 136.496094 309.707031 137.574219 309.382812 138.917969 L 307.625 145.902344 L 304.738281 145.175781 L 306.476562 138.261719 C 306.628906 137.648438 306.609375 137.167969 306.414062 136.828125 C 306.214844 136.484375 305.808594 136.234375 305.1875 136.078125 C 304.375 135.871094 303.679688 136.066406 303.097656 136.65625 L 301.179688 144.28125 L 298.292969 143.554688 L 301.011719 132.742188 L 303.730469 133.425781 " fill-opacity="1" fill-rule="nonzero"/><path fill="#ffffff" d="M 315.261719 144.699219 L 321.398438 133.894531 L 323.707031 134.476562 L 315.832031 147.964844 L 313.371094 147.347656 L 312.828125 141.65625 L 310.570312 141.085938 L 311.164062 138.726562 L 315.039062 139.703125 L 315.261719 144.699219 " fill-opacity="1" fill-rule="nonzero"/><path fill="#ffffff" d="M 325.757812 148.328125 C 326.1875 148.433594 326.605469 148.4375 327.011719 148.339844 C 327.417969 148.242188 327.75 148.054688 328.003906 147.777344 L 328.46875 145.917969 L 327.390625 145.648438 C 325.945312 145.285156 325.046875 145.589844 324.707031 146.566406 L 324.652344 146.730469 C 324.5625 147.089844 324.613281 147.421875 324.808594 147.714844 C 325.003906 148.015625 325.320312 148.21875 325.757812 148.328125 Z M 327.644531 150.9375 C 327.574219 150.644531 327.558594 150.296875 327.597656 149.894531 C 326.699219 150.5 325.691406 150.660156 324.574219 150.378906 C 323.515625 150.113281 322.714844 149.585938 322.171875 148.796875 C 321.628906 148.011719 321.476562 147.148438 321.710938 146.214844 C 322 145.070312 322.644531 144.296875 323.648438 143.898438 C 324.652344 143.5 325.960938 143.496094 327.566406 143.894531 L 328.894531 144.230469 L 329.050781 143.609375 C 329.175781 143.109375 329.148438 142.675781 328.96875 142.316406 C 328.785156 141.949219 328.417969 141.699219 327.867188 141.558594 C 327.378906 141.4375 326.972656 141.457031 326.632812 141.621094 C 326.296875 141.785156 326.082031 142.070312 325.976562 142.476562 L 323.089844 141.75 C 323.246094 141.121094 323.585938 140.589844 324.105469 140.15625 C 324.628906 139.71875 325.277344 139.441406 326.0625 139.316406 C 326.84375 139.1875 327.675781 139.238281 328.554688 139.457031 C 329.886719 139.792969 330.859375 140.394531 331.476562 141.261719 C 332.089844 142.125 332.242188 143.167969 331.941406 144.378906 L 330.761719 149.066406 C 330.507812 150.09375 330.457031 150.90625 330.605469 151.503906 L 330.5625 151.671875 L 327.644531 150.9375 " fill-opacity="1" fill-rule="nonzero"/><path fill="#ffffff" d="M 81.925781 65.683594 C 82.25 65.632812 82.542969 65.511719 82.792969 65.324219 C 83.046875 65.140625 83.21875 64.910156 83.316406 64.648438 L 83.097656 63.226562 L 82.273438 63.351562 C 81.167969 63.523438 80.636719 63.996094 80.683594 64.773438 L 80.695312 64.902344 C 80.738281 65.175781 80.867188 65.390625 81.089844 65.535156 C 81.3125 65.6875 81.589844 65.734375 81.925781 65.683594 Z M 83.988281 66.9375 C 83.855469 66.753906 83.742188 66.519531 83.652344 66.230469 C 83.210938 66.90625 82.558594 67.3125 81.703125 67.445312 C 80.894531 67.566406 80.1875 67.4375 79.582031 67.050781 C 78.980469 66.664062 78.621094 66.117188 78.511719 65.398438 C 78.378906 64.523438 78.597656 63.804688 79.175781 63.234375 C 79.753906 62.667969 80.65625 62.285156 81.882812 62.09375 L 82.898438 61.9375 L 82.828125 61.460938 C 82.765625 61.078125 82.621094 60.789062 82.390625 60.589844 C 82.160156 60.390625 81.832031 60.324219 81.410156 60.390625 C 81.039062 60.445312 80.757812 60.582031 80.574219 60.789062 C 80.394531 61.003906 80.324219 61.261719 80.371094 61.574219 L 78.164062 61.910156 C 78.089844 61.433594 78.171875 60.96875 78.402344 60.515625 C 78.636719 60.0625 79.003906 59.679688 79.507812 59.363281 C 80.011719 59.050781 80.601562 58.839844 81.273438 58.738281 C 82.292969 58.582031 83.140625 58.710938 83.816406 59.132812 C 84.492188 59.550781 84.902344 60.226562 85.046875 61.152344 L 85.597656 64.734375 C 85.722656 65.519531 85.921875 66.09375 86.199219 66.464844 L 86.21875 66.59375 L 83.988281 66.9375 " fill-opacity="1" fill-rule="nonzero"/><path fill="#ffffff" d="M 88.347656 57.808594 L 88.5625 58.75 C 89.039062 57.921875 89.777344 57.429688 90.769531 57.277344 C 91.644531 57.140625 92.335938 57.300781 92.84375 57.75 C 93.351562 58.199219 93.6875 58.933594 93.855469 59.953125 L 94.675781 65.292969 L 92.46875 65.632812 L 91.65625 60.347656 C 91.582031 59.878906 91.429688 59.554688 91.191406 59.375 C 90.957031 59.195312 90.601562 59.140625 90.128906 59.214844 C 89.507812 59.308594 89.082031 59.644531 88.851562 60.222656 L 89.746094 66.050781 L 87.539062 66.390625 L 86.269531 58.125 L 88.347656 57.808594 " fill-opacity="1" fill-rule="nonzero"/><path fill="#ffffff" d="M 99.648438 59.082031 C 99.59375 58.730469 99.667969 58.425781 99.867188 58.171875 C 100.066406 57.917969 100.347656 57.761719 100.710938 57.707031 C 101.070312 57.648438 101.386719 57.714844 101.660156 57.898438 C 101.929688 58.078125 102.089844 58.347656 102.144531 58.695312 C 102.199219 59.046875 102.121094 59.347656 101.917969 59.601562 C 101.710938 59.855469 101.429688 60.011719 101.074219 60.066406 C 100.707031 60.121094 100.390625 60.058594 100.125 59.871094 C 99.859375 59.683594 99.699219 59.421875 99.648438 59.082031 " fill-opacity="1" fill-rule="nonzero"/><path fill="#ffffff" d="M 111.582031 61.125 C 111.90625 61.074219 112.195312 60.957031 112.449219 60.769531 C 112.703125 60.582031 112.875 60.355469 112.96875 60.09375 L 112.753906 58.671875 L 111.925781 58.796875 C 110.820312 58.964844 110.292969 59.4375 110.339844 60.214844 L 110.351562 60.34375 C 110.390625 60.621094 110.523438 60.832031 110.746094 60.980469 C 110.964844 61.128906 111.246094 61.175781 111.582031 61.125 Z M 113.640625 62.382812 C 113.511719 62.195312 113.398438 61.960938 113.308594 61.675781 C 112.863281 62.351562 112.214844 62.757812 111.359375 62.886719 C 110.550781 63.011719 109.84375 62.882812 109.238281 62.496094 C 108.632812 62.109375 108.277344 61.558594 108.167969 60.84375 C 108.03125 59.96875 108.253906 59.246094 108.832031 58.679688 C 109.410156 58.109375 110.3125 57.730469 111.539062 57.535156 L 112.554688 57.378906 L 112.480469 56.90625 C 112.421875 56.523438 112.277344 56.234375 112.046875 56.035156 C 111.8125 55.835938 111.488281 55.765625 111.066406 55.832031 C 110.695312 55.890625 110.414062 56.023438 110.230469 56.234375 C 110.046875 56.445312 109.980469 56.707031 110.027344 57.015625 L 107.820312 57.355469 C 107.746094 56.875 107.824219 56.410156 108.058594 55.960938 C 108.289062 55.507812 108.660156 55.121094 109.164062 54.808594 C 109.667969 54.492188 110.257812 54.285156 110.929688 54.179688 C 111.945312 54.023438 112.796875 54.15625 113.472656 54.574219 C 114.148438 54.996094 114.558594 55.667969 114.703125 56.59375 L 115.25 60.179688 C 115.378906 60.960938 115.578125 61.539062 115.851562 61.90625 L 115.875 62.039062 L 113.640625 62.382812 " fill-opacity="1" fill-rule="nonzero"/><path fill="#ffffff" d="M 118.039062 53.242188 L 118.253906 54.15625 C 118.726562 53.351562 119.464844 52.871094 120.460938 52.714844 C 121.527344 52.550781 122.320312 52.859375 122.847656 53.640625 C 123.300781 52.710938 124.0625 52.160156 125.136719 51.996094 C 126.035156 51.859375 126.742188 52.019531 127.257812 52.472656 C 127.777344 52.925781 128.117188 53.679688 128.277344 54.726562 L 129.089844 60.003906 L 126.875 60.347656 L 126.0625 55.078125 C 125.992188 54.609375 125.847656 54.28125 125.628906 54.089844 C 125.414062 53.902344 125.074219 53.84375 124.609375 53.914062 C 123.949219 54.015625 123.539062 54.40625 123.382812 55.074219 L 124.261719 60.75 L 122.054688 61.085938 L 121.246094 55.824219 C 121.171875 55.347656 121.023438 55.015625 120.800781 54.828125 C 120.582031 54.644531 120.242188 54.585938 119.789062 54.65625 C 119.164062 54.753906 118.75 55.082031 118.550781 55.644531 L 119.449219 61.488281 L 117.242188 61.828125 L 115.972656 53.5625 L 118.039062 53.242188 " fill-opacity="1" fill-rule="nonzero"/><path fill="#ffffff" d="M 141.335938 55.675781 L 134.503906 56.726562 L 134.226562 54.925781 L 141.058594 53.875 Z M 140.824219 52.371094 L 133.996094 53.421875 L 133.71875 51.617188 L 140.546875 50.566406 L 140.824219 52.371094 " fill-opacity="1" fill-rule="nonzero"/><path fill="#ffffff" d="M 150.257812 55.183594 C 150.585938 55.132812 150.875 55.011719 151.128906 54.828125 C 151.378906 54.640625 151.550781 54.414062 151.648438 54.148438 L 151.429688 52.726562 L 150.605469 52.851562 C 149.5 53.023438 148.96875 53.496094 149.015625 54.269531 L 149.027344 54.402344 C 149.070312 54.675781 149.203125 54.890625 149.421875 55.035156 C 149.644531 55.1875 149.921875 55.234375 150.257812 55.183594 Z M 152.320312 56.4375 C 152.1875 56.253906 152.074219 56.019531 151.984375 55.730469 C 151.539062 56.40625 150.890625 56.8125 150.035156 56.945312 C 149.226562 57.070312 148.519531 56.9375 147.917969 56.550781 C 147.3125 56.164062 146.953125 55.617188 146.84375 54.902344 C 146.710938 54.023438 146.929688 53.304688 147.507812 52.734375 C 148.085938 52.167969 148.988281 51.785156 150.214844 51.59375 L 151.230469 51.4375 L 151.15625 50.960938 C 151.097656 50.582031 150.953125 50.289062 150.722656 50.089844 C 150.492188 49.890625 150.164062 49.824219 149.742188 49.890625 C 149.371094 49.949219 149.089844 50.082031 148.90625 50.289062 C 148.722656 50.503906 148.65625 50.765625 148.703125 51.074219 L 146.496094 51.414062 C 146.421875 50.933594 146.503906 50.46875 146.734375 50.015625 C 146.96875 49.5625 147.335938 49.179688 147.839844 48.863281 C 148.34375 48.550781 148.933594 48.339844 149.605469 48.238281 C 150.625 48.078125 151.472656 48.210938 152.148438 48.632812 C 152.824219 49.050781 153.234375 49.726562 153.378906 50.652344 L 153.929688 54.234375 C 154.054688 55.019531 154.253906 55.597656 154.53125 55.964844 L 154.550781 56.09375 L 152.320312 56.4375 " fill-opacity="1" fill-rule="nonzero"/><path fill="#ffffff" d="M 156.679688 47.308594 L 156.894531 48.25 C 157.371094 47.421875 158.109375 46.929688 159.101562 46.777344 C 159.976562 46.644531 160.667969 46.800781 161.175781 47.25 C 161.683594 47.699219 162.019531 48.433594 162.1875 49.457031 L 163.007812 54.796875 L 160.796875 55.136719 L 159.984375 49.847656 C 159.914062 49.382812 159.761719 49.054688 159.523438 48.875 C 159.289062 48.695312 158.933594 48.640625 158.457031 48.714844 C 157.839844 48.808594 157.414062 49.144531 157.183594 49.722656 L 158.078125 55.550781 L 155.871094 55.890625 L 154.601562 47.628906 L 156.679688 47.308594 " fill-opacity="1" fill-rule="nonzero"/><path fill="#ffffff" d="M 172.074219 47.03125 L 174.828125 46.605469 L 175.136719 48.597656 L 172.378906 49.023438 L 172.859375 52.140625 L 170.757812 52.460938 L 170.277344 49.347656 L 167.511719 49.769531 L 167.207031 47.777344 L 169.972656 47.351562 L 169.511719 44.367188 L 171.613281 44.042969 L 172.074219 47.03125 " fill-opacity="1" fill-rule="nonzero"/><path fill="#ffffff" d="M 181.8125 43.445312 L 182.023438 44.359375 C 182.5 43.550781 183.234375 43.070312 184.234375 42.917969 C 185.296875 42.753906 186.09375 43.0625 186.621094 43.839844 C 187.070312 42.910156 187.832031 42.363281 188.910156 42.199219 C 189.804688 42.0625 190.511719 42.21875 191.03125 42.671875 C 191.546875 43.128906 191.890625 43.882812 192.046875 44.929688 L 192.859375 50.207031 L 190.644531 50.550781 L 189.835938 45.277344 C 189.765625 44.808594 189.617188 44.480469 189.402344 44.292969 C 189.183594 44.105469 188.84375 44.046875 188.382812 44.117188 C 187.71875 44.21875 187.308594 44.605469 187.152344 45.277344 L 188.03125 50.949219 L 185.824219 51.289062 L 185.015625 46.027344 C 184.941406 45.546875 184.796875 45.214844 184.574219 45.03125 C 184.351562 44.84375 184.015625 44.789062 183.5625 44.855469 C 182.9375 44.953125 182.519531 45.285156 182.320312 45.84375 L 183.21875 51.691406 L 181.011719 52.03125 L 179.742188 43.761719 L 181.8125 43.445312 " fill-opacity="1" fill-rule="nonzero"/><path fill="#ffffff" d="M 333.976562 262.601562 L 208.691406 262.601562 C 208.328125 262.601562 208.035156 262.304688 208.035156 261.941406 L 208.035156 169.25 C 208.035156 168.886719 208.328125 168.589844 208.691406 168.589844 C 209.058594 168.589844 209.351562 168.886719 209.351562 169.25 L 209.351562 261.28125 L 333.316406 261.28125 L 333.316406 189.453125 C 333.316406 189.089844 333.609375 188.792969 333.976562 188.792969 C 334.339844 188.792969 334.632812 189.089844 334.632812 189.453125 L 334.632812 261.941406 C 334.632812 262.304688 334.339844 262.601562 333.976562 262.601562 " fill-opacity="1" fill-rule="nonzero"/><path fill="#ffffff" d="M 309.726562 262.601562 C 309.363281 262.601562 309.066406 262.304688 309.066406 261.941406 L 309.066406 163.804688 C 309.066406 163.441406 309.363281 163.144531 309.726562 163.144531 C 310.089844 163.144531 310.386719 163.441406 310.386719 163.804688 L 310.386719 261.941406 C 310.386719 262.304688 310.089844 262.601562 309.726562 262.601562 " fill-opacity="1" fill-rule="nonzero"/><path fill="#ffffff" d="M 311.964844 166.433594 L 309.726562 164.191406 L 307.492188 166.433594 L 307.492188 164.53125 L 309.726562 162.292969 L 311.964844 164.53125 L 311.964844 166.433594 " fill-opacity="1" fill-rule="nonzero"/><path fill="#ffffff" d="M 284.582031 262.601562 C 284.21875 262.601562 283.921875 262.304688 283.921875 261.941406 L 283.921875 188.738281 C 283.921875 188.371094 284.21875 188.078125 284.582031 188.078125 C 284.945312 188.078125 285.242188 188.371094 285.242188 188.738281 L 285.242188 261.941406 C 285.242188 262.304688 284.945312 262.601562 284.582031 262.601562 " fill-opacity="1" fill-rule="nonzero"/><path fill="#ffffff" d="M 286.816406 191.363281 L 284.582031 189.125 L 282.34375 191.363281 L 282.34375 189.464844 L 284.582031 187.230469 L 286.816406 189.464844 L 286.816406 191.363281 " fill-opacity="1" fill-rule="nonzero"/><path fill="#ffffff" d="M 258.984375 262.601562 C 258.621094 262.601562 258.328125 262.304688 258.328125 261.941406 L 258.328125 163.804688 C 258.328125 163.441406 258.621094 163.144531 258.984375 163.144531 C 259.347656 163.144531 259.644531 163.441406 259.644531 163.804688 L 259.644531 261.941406 C 259.644531 262.304688 259.347656 262.601562 258.984375 262.601562 " fill-opacity="1" fill-rule="nonzero"/><path fill="#ffffff" d="M 261.222656 166.433594 L 258.984375 164.191406 L 256.75 166.433594 L 256.75 164.53125 L 258.984375 162.292969 L 261.222656 164.53125 L 261.222656 166.433594 " fill-opacity="1" fill-rule="nonzero"/><path fill="#ffffff" d="M 233.839844 262.601562 C 233.476562 262.601562 233.179688 262.304688 233.179688 261.941406 L 233.179688 188.738281 C 233.179688 188.371094 233.476562 188.078125 233.839844 188.078125 C 234.203125 188.078125 234.5 188.371094 234.5 188.738281 L 234.5 261.941406 C 234.5 262.304688 234.203125 262.601562 233.839844 262.601562 " fill-opacity="1" fill-rule="nonzero"/><path fill="#ffffff" d="M 236.074219 191.363281 L 233.839844 189.125 L 231.601562 191.363281 L 231.601562 189.464844 L 233.839844 187.230469 L 236.074219 189.464844 L 236.074219 191.363281 " fill-opacity="1" fill-rule="nonzero"/><path fill="#230b41" d="M 302.046875 246.382812 C 301.414062 246.382812 300.789062 246.367188 300.152344 246.339844 C 289.429688 245.8125 280.019531 238.5625 270.914062 231.554688 C 262.371094 224.976562 254.300781 218.757812 245.972656 218.75 C 245.953125 218.75 245.933594 218.75 245.914062 218.75 C 236.992188 218.75 222.191406 221.617188 209.054688 225.894531 C 193.828125 230.855469 183.945312 236.664062 181.933594 241.832031 C 181.800781 242.171875 181.417969 242.339844 181.082031 242.207031 C 180.738281 242.074219 180.570312 241.695312 180.703125 241.355469 C 183.652344 233.769531 199.476562 227.628906 208.644531 224.640625 C 221.898438 220.324219 236.867188 217.429688 245.914062 217.429688 C 245.933594 217.429688 245.953125 217.429688 245.972656 217.429688 C 254.75 217.441406 262.992188 223.789062 271.722656 230.511719 C 280.664062 237.394531 289.910156 244.515625 300.214844 245.023438 C 320.265625 246 338.300781 230.433594 338.480469 230.277344 C 338.753906 230.039062 339.171875 230.066406 339.410156 230.339844 C 339.652344 230.613281 339.625 231.03125 339.347656 231.273438 C 339.171875 231.425781 321.84375 246.382812 302.046875 246.382812 " fill-opacity="1" fill-rule="nonzero"/><path fill="#230b41" d="M 306.234375 228.148438 C 303.960938 228.148438 301.917969 227.832031 300.253906 227.085938 C 296.636719 225.464844 292.628906 219.761719 287.988281 213.15625 C 279.640625 201.277344 269.246094 186.496094 256.136719 187.886719 C 244.34375 189.132812 239.53125 196.121094 235.28125 202.28125 C 232.074219 206.933594 229.046875 211.328125 223.566406 212.757812 C 223.210938 212.847656 222.851562 212.636719 222.761719 212.285156 C 222.671875 211.933594 222.878906 211.574219 223.234375 211.480469 C 228.238281 210.175781 231 206.171875 234.195312 201.535156 C 238.605469 195.136719 243.601562 187.882812 255.996094 186.574219 C 269.894531 185.09375 280.519531 200.238281 289.066406 212.394531 C 293.59375 218.84375 297.507812 224.410156 300.792969 225.882812 C 308.703125 229.429688 326.375 222.347656 334.871094 218.945312 C 336.550781 218.273438 337.875 217.742188 338.707031 217.464844 C 339.050781 217.347656 339.421875 217.535156 339.539062 217.878906 C 339.65625 218.222656 339.46875 218.597656 339.125 218.710938 C 338.332031 218.980469 337.019531 219.503906 335.359375 220.167969 C 328.414062 222.953125 315.441406 228.148438 306.234375 228.148438 " fill-opacity="1" fill-rule="nonzero"/><path fill="#ffffff" d="M 104.914062 92.660156 C 105.640625 91.265625 106.515625 90.035156 107.546875 88.96875 C 108.574219 87.898438 109.703125 87.066406 110.933594 86.472656 C 112.164062 85.878906 113.304688 85.613281 114.347656 85.675781 L 114.117188 87.371094 C 112.882812 87.5625 111.660156 88.21875 110.441406 89.335938 C 109.226562 90.453125 108.140625 91.933594 107.179688 93.773438 L 107.035156 94.054688 C 106.074219 95.902344 105.480469 97.648438 105.253906 99.289062 C 105.027344 100.925781 105.1875 102.324219 105.734375 103.472656 L 104.492188 104.605469 C 103.859375 103.804688 103.425781 102.746094 103.199219 101.429688 C 102.976562 100.113281 102.992188 98.746094 103.257812 97.316406 C 103.519531 95.890625 103.988281 94.5 104.660156 93.148438 L 104.914062 92.660156 " fill-opacity="1" fill-rule="nonzero"/><path fill="#ffffff" d="M 116.933594 95.703125 C 116.410156 95.429688 115.894531 95.386719 115.382812 95.570312 C 114.871094 95.753906 114.398438 96.152344 113.964844 96.769531 L 117.636719 98.679688 L 117.75 98.46875 C 118.042969 97.875 118.121094 97.339844 117.980469 96.859375 C 117.84375 96.378906 117.496094 95.996094 116.933594 95.703125 Z M 113.007812 103.984375 C 111.558594 103.230469 110.609375 102.171875 110.160156 100.804688 C 109.710938 99.441406 109.871094 98.019531 110.644531 96.539062 L 110.777344 96.285156 C 111.292969 95.289062 111.949219 94.5 112.738281 93.917969 C 113.53125 93.335938 114.390625 93.015625 115.3125 92.957031 C 116.238281 92.902344 117.152344 93.105469 118.054688 93.574219 C 119.40625 94.28125 120.25 95.261719 120.582031 96.519531 C 120.914062 97.777344 120.671875 99.1875 119.859375 100.753906 L 119.296875 101.835938 L 113 98.554688 C 112.746094 99.246094 112.734375 99.898438 112.960938 100.511719 C 113.1875 101.125 113.632812 101.601562 114.289062 101.945312 C 115.308594 102.472656 116.292969 102.519531 117.25 102.082031 L 117.792969 104.210938 C 117.105469 104.5625 116.339844 104.722656 115.5 104.6875 C 114.660156 104.644531 113.828125 104.410156 113.007812 103.984375 " fill-opacity="1" fill-rule="nonzero"/><path fill="#ffffff" d="M 126.046875 101.722656 L 129.246094 99.632812 L 132.070312 101.105469 L 126.734375 104.484375 L 127.042969 111.058594 L 124.207031 109.582031 L 124.0625 105.554688 L 120.6875 107.75 L 117.847656 106.269531 L 123.40625 102.75 L 123.121094 96.449219 L 125.957031 97.921875 L 126.046875 101.722656 " fill-opacity="1" fill-rule="nonzero"/><path fill="#ffffff" d="M 140.113281 111.25 C 139.398438 112.628906 138.511719 113.851562 137.449219 114.917969 C 136.390625 115.988281 135.238281 116.8125 133.984375 117.402344 C 132.734375 117.992188 131.589844 118.246094 130.554688 118.171875 L 130.769531 116.507812 C 131.976562 116.304688 133.179688 115.652344 134.386719 114.554688 C 135.59375 113.457031 136.667969 112.03125 137.605469 110.269531 L 137.859375 109.785156 C 138.804688 107.964844 139.390625 106.230469 139.621094 104.582031 C 139.84375 102.933594 139.695312 101.53125 139.167969 100.375 L 140.40625 99.242188 C 141.050781 100.03125 141.492188 101.089844 141.734375 102.417969 C 141.976562 103.742188 141.972656 105.140625 141.726562 106.605469 C 141.476562 108.070312 141.011719 109.484375 140.328125 110.839844 L 140.113281 111.25 " fill-opacity="1" fill-rule="nonzero"/><path fill="#ffffff" d="M 147.5625 105.601562 L 145.375 109.15625 L 143.703125 108.289062 L 146.324219 103.25 L 148.261719 104.257812 L 147.5625 105.601562 " fill-opacity="1" fill-rule="nonzero"/><path fill="#ffffff" d="M 159.09375 119.074219 L 150.921875 114.820312 L 152.042969 112.664062 L 160.214844 116.917969 Z M 157.03125 123.03125 L 148.859375 118.777344 L 149.984375 116.621094 L 158.15625 120.875 L 157.03125 123.03125 " fill-opacity="1" fill-rule="nonzero"/><path fill="#ffffff" d="M 170.902344 123.792969 C 170.378906 123.519531 169.863281 123.476562 169.351562 123.660156 C 168.839844 123.847656 168.367188 124.246094 167.929688 124.859375 L 171.605469 126.773438 L 171.71875 126.558594 C 172.011719 125.96875 172.089844 125.429688 171.949219 124.949219 C 171.8125 124.472656 171.460938 124.082031 170.902344 123.792969 Z M 166.976562 132.078125 C 165.523438 131.320312 164.574219 130.261719 164.128906 128.898438 C 163.679688 127.535156 163.839844 126.109375 164.613281 124.628906 L 164.746094 124.375 C 165.261719 123.382812 165.917969 122.59375 166.707031 122.011719 C 167.5 121.425781 168.359375 121.105469 169.28125 121.046875 C 170.207031 120.992188 171.121094 121.199219 172.019531 121.667969 C 173.371094 122.371094 174.21875 123.351562 174.550781 124.609375 C 174.882812 125.867188 174.640625 127.277344 173.824219 128.84375 L 173.265625 129.925781 L 166.96875 126.644531 C 166.714844 127.335938 166.703125 127.988281 166.929688 128.601562 C 167.15625 129.214844 167.597656 129.691406 168.257812 130.035156 C 169.277344 130.566406 170.261719 130.613281 171.21875 130.171875 L 171.761719 132.300781 C 171.070312 132.65625 170.308594 132.8125 169.46875 132.773438 C 168.628906 132.738281 167.796875 132.503906 166.976562 132.078125 " fill-opacity="1" fill-rule="nonzero"/><path fill="#ffffff" d="M 180.015625 129.8125 L 183.214844 127.726562 L 186.039062 129.195312 L 180.703125 132.574219 L 181.011719 139.148438 L 178.175781 137.675781 L 178.027344 133.648438 L 174.65625 135.839844 L 171.8125 134.363281 L 177.375 130.84375 L 177.089844 124.539062 L 179.925781 126.011719 L 180.015625 129.8125 " fill-opacity="1" fill-rule="nonzero"/><path fill="#ffffff" d="M 34.707031 248.121094 C 34.707031 246.546875 34.914062 245.050781 35.335938 243.628906 C 35.753906 242.207031 36.371094 240.945312 37.1875 239.851562 C 38.007812 238.753906 38.894531 237.992188 39.847656 237.566406 L 40.425781 239.175781 C 39.421875 239.917969 38.640625 241.0625 38.074219 242.617188 C 37.511719 244.167969 37.230469 245.984375 37.230469 248.058594 L 37.230469 248.378906 C 37.230469 250.460938 37.507812 252.28125 38.066406 253.839844 C 38.621094 255.398438 39.410156 256.5625 40.425781 257.332031 L 39.847656 258.910156 C 38.914062 258.492188 38.042969 257.75 37.234375 256.6875 C 36.429688 255.628906 35.8125 254.402344 35.386719 253.015625 C 34.960938 251.628906 34.734375 250.179688 34.707031 248.667969 L 34.707031 248.121094 " fill-opacity="1" fill-rule="nonzero"/><path fill="#ffffff" d="M 46.617188 252.027344 C 47.167969 252.027344 47.613281 251.875 47.957031 251.570312 C 48.300781 251.269531 48.480469 250.871094 48.496094 250.367188 L 51.285156 250.367188 C 51.28125 251.121094 51.074219 251.816406 50.667969 252.445312 C 50.261719 253.074219 49.707031 253.558594 49.003906 253.90625 C 48.300781 254.253906 47.523438 254.425781 46.671875 254.425781 C 45.078125 254.425781 43.820312 253.921875 42.898438 252.90625 C 41.976562 251.894531 41.519531 250.492188 41.519531 248.707031 L 41.519531 248.511719 C 41.519531 246.792969 41.976562 245.421875 42.886719 244.398438 C 43.800781 243.378906 45.054688 242.863281 46.648438 242.863281 C 48.042969 242.863281 49.164062 243.261719 50.003906 244.054688 C 50.84375 244.847656 51.273438 245.902344 51.285156 247.222656 L 48.496094 247.222656 C 48.480469 246.644531 48.300781 246.171875 47.957031 245.808594 C 47.613281 245.445312 47.160156 245.265625 46.597656 245.265625 C 45.902344 245.265625 45.378906 245.519531 45.027344 246.023438 C 44.671875 246.53125 44.496094 247.351562 44.496094 248.488281 L 44.496094 248.796875 C 44.496094 249.945312 44.671875 250.769531 45.019531 251.273438 C 45.371094 251.773438 45.902344 252.027344 46.617188 252.027344 " fill-opacity="1" fill-rule="nonzero"/><path fill="#ffffff" d="M 55.5 248.753906 C 55.5 249.8125 55.699219 250.625 56.101562 251.183594 C 56.496094 251.746094 57.066406 252.027344 57.808594 252.027344 C 58.53125 252.027344 59.09375 251.75 59.5 251.195312 C 59.90625 250.640625 60.109375 249.753906 60.109375 248.539062 C 60.109375 247.5 59.90625 246.695312 59.5 246.121094 C 59.09375 245.550781 58.523438 245.265625 57.789062 245.265625 C 57.0625 245.265625 56.496094 245.550781 56.101562 246.117188 C 55.699219 246.683594 55.5 247.5625 55.5 248.753906 Z M 52.523438 248.542969 C 52.523438 247.4375 52.734375 246.449219 53.164062 245.585938 C 53.589844 244.71875 54.203125 244.050781 55.003906 243.574219 C 55.800781 243.101562 56.730469 242.863281 57.789062 242.863281 C 59.292969 242.863281 60.523438 243.324219 61.472656 244.246094 C 62.425781 245.164062 62.957031 246.417969 63.066406 247.996094 L 63.085938 248.761719 C 63.085938 250.46875 62.609375 251.839844 61.652344 252.875 C 60.699219 253.910156 59.417969 254.425781 57.808594 254.425781 C 56.203125 254.425781 54.917969 253.914062 53.960938 252.878906 C 53.003906 251.851562 52.523438 250.449219 52.523438 248.675781 L 52.523438 248.542969 " fill-opacity="1" fill-rule="nonzero"/><path fill="#ffffff" d="M 70.960938 251.140625 C 70.960938 250.773438 70.777344 250.488281 70.417969 250.277344 C 70.058594 250.070312 69.480469 249.882812 68.683594 249.71875 C 66.03125 249.160156 64.703125 248.035156 64.703125 246.335938 C 64.703125 245.347656 65.113281 244.523438 65.9375 243.859375 C 66.757812 243.195312 67.828125 242.863281 69.15625 242.863281 C 70.570312 242.863281 71.703125 243.199219 72.550781 243.863281 C 73.398438 244.53125 73.824219 245.398438 73.824219 246.460938 L 70.847656 246.460938 C 70.847656 246.035156 70.707031 245.683594 70.433594 245.40625 C 70.160156 245.128906 69.730469 244.988281 69.144531 244.988281 C 68.644531 244.988281 68.253906 245.101562 67.980469 245.328125 C 67.707031 245.554688 67.570312 245.84375 67.570312 246.195312 C 67.570312 246.523438 67.726562 246.789062 68.039062 246.992188 C 68.351562 247.195312 68.878906 247.371094 69.621094 247.519531 C 70.363281 247.667969 70.988281 247.832031 71.496094 248.019531 C 73.070312 248.59375 73.855469 249.59375 73.855469 251.015625 C 73.855469 252.03125 73.417969 252.855469 72.546875 253.484375 C 71.675781 254.113281 70.546875 254.425781 69.167969 254.425781 C 68.230469 254.425781 67.402344 254.261719 66.675781 253.925781 C 65.953125 253.59375 65.382812 253.136719 64.972656 252.558594 C 64.558594 251.976562 64.355469 251.351562 64.355469 250.675781 L 67.175781 250.675781 C 67.203125 251.203125 67.398438 251.609375 67.765625 251.890625 C 68.128906 252.175781 68.617188 252.3125 69.226562 252.3125 C 69.796875 252.3125 70.230469 252.207031 70.523438 251.992188 C 70.8125 251.773438 70.960938 251.488281 70.960938 251.140625 " fill-opacity="1" fill-rule="nonzero"/><path fill="#ffffff" d="M 85.273438 246.398438 L 87.148438 243.070312 L 90.332031 243.070312 L 87.160156 248.53125 L 90.46875 254.21875 L 87.273438 254.21875 L 85.28125 250.71875 L 83.304688 254.21875 L 80.101562 254.21875 L 83.40625 248.53125 L 80.242188 243.070312 L 83.4375 243.070312 L 85.273438 246.398438 " fill-opacity="1" fill-rule="nonzero"/><path fill="#ffffff" d="M 96.898438 248.355469 C 96.898438 249.910156 96.671875 251.402344 96.226562 252.839844 C 95.78125 254.277344 95.136719 255.542969 94.300781 256.644531 C 93.460938 257.742188 92.566406 258.496094 91.609375 258.910156 L 91.035156 257.332031 C 92.007812 256.597656 92.777344 255.464844 93.34375 253.933594 C 93.90625 252.398438 94.195312 250.636719 94.21875 248.644531 L 94.21875 248.097656 C 94.21875 246.046875 93.9375 244.234375 93.378906 242.667969 C 92.816406 241.101562 92.035156 239.925781 91.035156 239.144531 L 91.609375 237.566406 C 92.542969 237.972656 93.425781 238.707031 94.253906 239.773438 C 95.082031 240.839844 95.722656 242.078125 96.179688 243.492188 C 96.636719 244.90625 96.875 246.375 96.898438 247.894531 L 96.898438 248.355469 " fill-opacity="1" fill-rule="nonzero"/><path fill="#ffffff" d="M 100.894531 239.90625 L 100.597656 244.070312 L 98.710938 244.070312 L 98.710938 238.390625 L 100.894531 238.390625 L 100.894531 239.90625 " fill-opacity="1" fill-rule="nonzero"/><path fill="#ffffff" d="M 117.34375 250.996094 L 108.128906 250.996094 L 108.128906 248.5625 L 117.34375 248.5625 Z M 117.34375 246.53125 L 108.128906 246.53125 L 108.128906 244.101562 L 117.34375 244.101562 L 117.34375 246.53125 " fill-opacity="1" fill-rule="nonzero"/><path fill="#ffffff" d="M 130.996094 248.996094 L 125.195312 248.996094 L 125.195312 246.59375 L 130.996094 246.59375 L 130.996094 248.996094 " fill-opacity="1" fill-rule="nonzero"/><path fill="#ffffff" d="M 139.425781 251.140625 C 139.425781 250.773438 139.246094 250.488281 138.886719 250.277344 C 138.523438 250.070312 137.945312 249.882812 137.148438 249.71875 C 134.496094 249.160156 133.171875 248.035156 133.171875 246.335938 C 133.171875 245.347656 133.582031 244.523438 134.402344 243.859375 C 135.222656 243.195312 136.296875 242.863281 137.621094 242.863281 C 139.039062 242.863281 140.167969 243.199219 141.019531 243.863281 C 141.867188 244.53125 142.289062 245.398438 142.289062 246.460938 L 139.3125 246.460938 C 139.3125 246.035156 139.175781 245.683594 138.898438 245.40625 C 138.625 245.128906 138.195312 244.988281 137.613281 244.988281 C 137.109375 244.988281 136.722656 245.101562 136.449219 245.328125 C 136.171875 245.554688 136.035156 245.84375 136.035156 246.195312 C 136.035156 246.523438 136.191406 246.789062 136.503906 246.992188 C 136.816406 247.195312 137.34375 247.371094 138.085938 247.519531 C 138.828125 247.667969 139.453125 247.832031 139.960938 248.019531 C 141.535156 248.59375 142.320312 249.59375 142.320312 251.015625 C 142.320312 252.03125 141.886719 252.855469 141.011719 253.484375 C 140.140625 254.113281 139.011719 254.425781 137.632812 254.425781 C 136.699219 254.425781 135.871094 254.261719 135.144531 253.925781 C 134.417969 253.59375 133.851562 253.136719 133.4375 252.558594 C 133.027344 251.976562 132.820312 251.351562 132.820312 250.675781 L 135.644531 250.675781 C 135.671875 251.203125 135.867188 251.609375 136.230469 251.890625 C 136.59375 252.175781 137.082031 252.3125 137.695312 252.3125 C 138.265625 252.3125 138.695312 252.207031 138.988281 251.992188 C 139.28125 251.773438 139.425781 251.488281 139.425781 251.140625 " fill-opacity="1" fill-rule="nonzero"/><path fill="#ffffff" d="M 147.382812 254.21875 L 144.394531 254.21875 L 144.394531 243.070312 L 147.382812 243.070312 Z M 144.21875 240.1875 C 144.21875 239.738281 144.367188 239.371094 144.667969 239.082031 C 144.964844 238.796875 145.371094 238.648438 145.886719 238.648438 C 146.394531 238.648438 146.800781 238.796875 147.105469 239.082031 C 147.40625 239.371094 147.558594 239.738281 147.558594 240.1875 C 147.558594 240.640625 147.402344 241.011719 147.097656 241.296875 C 146.792969 241.585938 146.390625 241.730469 145.886719 241.730469 C 145.386719 241.730469 144.984375 241.585938 144.675781 241.296875 C 144.371094 241.011719 144.21875 240.640625 144.21875 240.1875 " fill-opacity="1" fill-rule="nonzero"/><path fill="#ffffff" d="M 152.578125 243.070312 L 152.667969 244.359375 C 153.464844 243.363281 154.535156 242.863281 155.871094 242.863281 C 157.054688 242.863281 157.933594 243.210938 158.511719 243.90625 C 159.089844 244.597656 159.382812 245.636719 159.398438 247.019531 L 159.398438 254.21875 L 156.417969 254.21875 L 156.417969 247.089844 C 156.417969 246.457031 156.28125 246 156.007812 245.714844 C 155.730469 245.429688 155.277344 245.285156 154.636719 245.285156 C 153.796875 245.285156 153.167969 245.644531 152.75 246.359375 L 152.75 254.21875 L 149.773438 254.21875 L 149.773438 243.070312 L 152.578125 243.070312 " fill-opacity="1" fill-rule="nonzero"/><path fill="#ffffff" d="M 171.15625 246.398438 L 173.03125 243.070312 L 176.214844 243.070312 L 173.042969 248.53125 L 176.347656 254.21875 L 173.15625 254.21875 L 171.164062 250.71875 L 169.1875 254.21875 L 165.984375 254.21875 L 169.289062 248.53125 L 166.125 243.070312 L 169.320312 243.070312 L 171.15625 246.398438 " fill-opacity="1" fill-rule="nonzero"/><path fill="#000000" d="M 232.15625 371.617188 L 193.492188 371.617188 C 188.382812 345.8125 183.230469 323.511719 179.289062 314.8125 C 179.113281 314.414062 178.929688 314.042969 178.753906 313.703125 C 178.753906 313.703125 172.761719 339.644531 165.902344 371.617188 L 122.378906 371.617188 C 122.613281 319.980469 127.738281 295.714844 130.628906 283.839844 C 130.683594 283.609375 130.738281 283.382812 130.796875 283.152344 C 132.726562 275.289062 134.742188 268.449219 136.519531 262.910156 C 136.742188 262.222656 136.960938 261.554688 137.171875 260.914062 C 137.703125 259.296875 138.207031 257.8125 138.675781 256.460938 L 144.558594 239.6875 L 144.695312 239.28125 L 146.046875 235.433594 L 149.257812 235.996094 L 150.363281 236.183594 L 219.914062 248.339844 C 219.914062 248.339844 221.085938 257.347656 222.792969 272.265625 C 225.417969 295.183594 229.308594 332.0625 232.15625 371.617188 " fill-opacity="1" fill-rule="nonzero"/><path fill="#ae9fcf" d="M 179.09375 316.554688 C 179.054688 316.554688 179.015625 316.550781 178.976562 316.542969 C 178.617188 316.476562 178.378906 316.132812 178.445312 315.777344 L 180.253906 305.707031 C 180.257812 305.6875 180.261719 305.667969 180.265625 305.648438 C 181.207031 302.21875 183.953125 299.644531 187.4375 298.925781 L 190.46875 298.300781 C 190.824219 298.222656 191.171875 298.453125 191.246094 298.8125 C 191.320312 299.167969 191.089844 299.515625 190.734375 299.589844 L 187.703125 300.214844 C 184.71875 300.832031 182.363281 303.035156 181.546875 305.96875 L 179.742188 316.011719 C 179.683594 316.328125 179.40625 316.554688 179.09375 316.554688 " fill-opacity="1" fill-rule="nonzero"/><path fill="#ae9fcf" d="M 139.136719 299.359375 C 138.820312 299.359375 138.542969 299.132812 138.488281 298.808594 C 138.429688 298.449219 138.667969 298.109375 139.027344 298.050781 C 156.050781 295.214844 159.476562 281.871094 159.507812 281.734375 C 159.59375 281.382812 159.949219 281.164062 160.304688 281.25 C 160.660156 281.335938 160.878906 281.691406 160.792969 282.046875 C 160.757812 282.1875 157.121094 296.371094 139.246094 299.351562 C 139.210938 299.359375 139.171875 299.359375 139.136719 299.359375 " fill-opacity="1" fill-rule="nonzero"/><path fill="#ae9fcf" d="M 220.789062 287.535156 C 220.703125 287.535156 220.613281 287.519531 220.527344 287.484375 C 210.105469 282.957031 210.355469 273.082031 210.359375 272.984375 C 210.375 272.621094 210.691406 272.335938 211.046875 272.347656 C 211.410156 272.363281 211.691406 272.667969 211.679688 273.035156 C 211.667969 273.402344 211.480469 282.113281 221.054688 286.269531 C 221.386719 286.414062 221.539062 286.804688 221.394531 287.136719 C 221.285156 287.386719 221.046875 287.535156 220.789062 287.535156 " fill-opacity="1" fill-rule="nonzero"/><path fill="#000000" d="M 128.527344 260.914062 C 126.753906 266.96875 123.980469 275.34375 127.050781 279.367188 C 132.640625 286.675781 137.273438 285.503906 144.167969 282.988281 C 157.953125 277.960938 179.957031 270.023438 186.378906 274.4375 L 186.664062 260.914062 L 128.527344 260.914062 " fill-opacity="1" fill-rule="nonzero"/><path fill="#230b41" d="M 207.59375 131.257812 C 219.042969 131.203125 229.507812 137.679688 234.515625 147.90625 C 240.324219 159.757812 248.515625 190.773438 248.832031 204.316406 C 249.394531 227.992188 228.652344 229.328125 228.035156 229.363281 C 228.027344 229.363281 228.023438 229.367188 228.023438 229.375 C 228.089844 230.0625 230.511719 255.785156 230.703125 260.351562 C 231.054688 268.703125 215.5625 281.734375 197.769531 275.316406 C 180.066406 268.929688 131.703125 256.203125 126.789062 267.039062 C 126.785156 267.054688 126.761719 267.046875 126.765625 267.03125 L 147.054688 191.757812 C 147.058594 191.75 147.050781 191.742188 147.042969 191.742188 L 130.386719 192.546875 C 130.382812 192.546875 130.382812 192.546875 130.378906 192.542969 L 116.816406 184.699219 C 116.808594 184.695312 116.808594 184.691406 116.808594 184.683594 L 120.242188 169.472656 C 126.769531 143.476562 144.226562 131.550781 166.753906 131.445312 L 207.59375 131.257812 " fill-opacity="1" fill-rule="nonzero"/><path fill="#ffffff" d="M 154.183594 189.324219 C 151.070312 188.75 151.917969 185.140625 140.984375 184.488281 C 109.421875 182.605469 124.714844 166.582031 142.796875 169.636719 C 148.789062 170.648438 151.148438 174.523438 153.402344 175.507812 C 172.320312 183.761719 160.390625 190.472656 154.183594 189.324219 " fill-opacity="1" fill-rule="nonzero"/><path fill="#000000" d="M 154.300781 188.675781 C 157.414062 189.253906 162.070312 187.679688 162.863281 185.089844 C 163.675781 182.433594 160.128906 179.160156 153.136719 176.113281 C 152.324219 175.757812 151.546875 175.105469 150.648438 174.355469 C 148.835938 172.835938 146.574219 170.941406 142.6875 170.285156 C 134.445312 168.894531 126.851562 171.539062 124.269531 174.898438 C 123.378906 176.054688 123.175781 177.179688 123.660156 178.238281 C 124.300781 179.644531 127.28125 183.011719 141.023438 183.832031 C 148.585938 184.28125 150.714844 186.132812 152.269531 187.484375 C 152.957031 188.085938 153.453125 188.519531 154.300781 188.675781 Z M 155.695312 190.117188 C 155.132812 190.117188 154.582031 190.070312 154.0625 189.972656 C 152.863281 189.75 152.152344 189.136719 151.402344 188.484375 C 149.992188 187.253906 148.058594 185.570312 140.941406 185.148438 C 130.613281 184.53125 124.050781 182.273438 122.457031 178.785156 C 121.777344 177.289062 122.046875 175.625 123.222656 174.097656 C 126.042969 170.425781 134.175781 167.511719 142.90625 168.988281 C 147.148438 169.699219 149.664062 171.804688 151.496094 173.34375 C 152.316406 174.03125 153.027344 174.625 153.664062 174.902344 C 163.648438 179.261719 164.863281 183.058594 164.125 185.476562 C 163.246094 188.34375 159.183594 190.117188 155.695312 190.117188 " fill-opacity="1" fill-rule="nonzero"/><path fill="#ffffff" d="M 193.917969 135.6875 C 194.96875 134.785156 194.414062 133.066406 193.035156 132.902344 L 190.894531 132.644531 C 188.597656 132.367188 186.679688 130.835938 185.929688 128.71875 L 182.40625 102.6875 L 175.175781 105.269531 L 165.609375 100.539062 L 166.464844 128.359375 C 166.394531 130.785156 164.8125 132.929688 162.472656 133.765625 L 159.675781 134.765625 C 158.207031 135.292969 158.136719 137.285156 159.5625 137.90625 C 165.257812 140.390625 188.398438 140.410156 193.917969 135.6875 " fill-opacity="1" fill-rule="nonzero"/><path fill="#000000" d="M 166.300781 101.617188 L 167.121094 128.339844 C 167.046875 131.09375 165.304688 133.453125 162.695312 134.386719 L 159.898438 135.386719 C 159.472656 135.539062 159.207031 135.890625 159.195312 136.324219 C 159.175781 136.757812 159.414062 137.125 159.828125 137.300781 C 165.074219 139.59375 188.160156 139.746094 193.488281 135.183594 C 193.769531 134.945312 193.871094 134.589844 193.765625 134.234375 C 193.675781 133.941406 193.417969 133.609375 192.957031 133.554688 L 190.816406 133.296875 C 188.257812 132.988281 186.148438 131.320312 185.308594 128.9375 C 185.292969 128.898438 185.28125 128.851562 185.277344 128.808594 L 181.859375 103.582031 L 175.394531 105.890625 C 175.230469 105.953125 175.042969 105.941406 174.882812 105.859375 Z M 173.640625 140.238281 C 167.460938 140.238281 161.757812 139.582031 159.300781 138.511719 C 158.386719 138.113281 157.839844 137.257812 157.875 136.28125 C 157.910156 135.300781 158.511719 134.480469 159.457031 134.144531 L 162.25 133.144531 C 164.347656 132.394531 165.742188 130.507812 165.804688 128.339844 L 164.945312 100.558594 C 164.941406 100.328125 165.054688 100.109375 165.25 99.984375 C 165.445312 99.859375 165.691406 99.847656 165.898438 99.949219 L 175.21875 104.554688 L 182.183594 102.066406 C 182.371094 101.996094 182.578125 102.019531 182.746094 102.121094 C 182.917969 102.226562 183.03125 102.402344 183.058594 102.59375 L 186.574219 128.5625 C 187.261719 130.429688 188.941406 131.742188 190.972656 131.988281 L 193.113281 132.246094 C 194.027344 132.355469 194.761719 132.96875 195.027344 133.851562 C 195.289062 134.710938 195.027344 135.605469 194.347656 136.1875 C 190.976562 139.074219 181.882812 140.238281 173.640625 140.238281 " fill-opacity="1" fill-rule="nonzero"/><path fill="#ffffff" d="M 185.609375 81.984375 C 197.933594 86.519531 195.816406 94.492188 195.816406 94.492188 C 195.660156 96.6875 195.570312 100.703125 195.980469 102.15625 C 196.316406 103.359375 198.285156 105.617188 198.382812 106.285156 C 198.476562 106.953125 197.410156 108.320312 195.273438 108.808594 C 195.273438 108.808594 194.464844 119.464844 191.671875 121.207031 C 188.878906 122.953125 178.121094 119.601562 178.121094 119.601562 L 176.3125 118.878906 C 170.484375 116.542969 166.921875 111.679688 165.226562 105.664062 C 165.226562 105.664062 157.378906 71.589844 185.609375 81.984375 " fill-opacity="1" fill-rule="nonzero"/><path fill="#000000" d="M 178.34375 118.984375 C 182.394531 120.242188 189.480469 121.800781 191.320312 120.648438 C 193.152344 119.503906 194.3125 112.746094 194.617188 108.757812 C 194.640625 108.46875 194.847656 108.230469 195.128906 108.164062 C 196.957031 107.75 197.734375 106.660156 197.726562 106.371094 C 197.675781 106.179688 197.199219 105.480469 196.847656 104.96875 C 196.210938 104.042969 195.554688 103.085938 195.34375 102.335938 C 194.859375 100.597656 195.042969 96.050781 195.15625 94.445312 C 195.160156 94.402344 195.167969 94.363281 195.175781 94.324219 C 195.253906 94.023438 196.945312 86.859375 185.382812 82.601562 C 178.023438 79.894531 172.570312 80.035156 169.171875 83.03125 C 162.207031 89.164062 165.832031 105.355469 165.871094 105.515625 C 167.625 111.75 171.324219 116.167969 176.558594 118.265625 Z M 189.042969 122.363281 C 184.914062 122.363281 178.796875 120.503906 177.925781 120.234375 C 177.910156 120.226562 177.894531 120.222656 177.878906 120.214844 L 176.066406 119.492188 C 170.441406 117.234375 166.472656 112.515625 164.589844 105.84375 C 164.421875 105.117188 160.746094 88.695312 168.296875 82.042969 C 172.089844 78.703125 177.988281 78.472656 185.839844 81.367188 C 197.933594 85.816406 196.648438 93.726562 196.46875 94.585938 C 196.308594 96.890625 196.25 100.675781 196.613281 101.980469 C 196.765625 102.519531 197.414062 103.464844 197.933594 104.222656 C 198.613281 105.214844 198.972656 105.75 199.035156 106.191406 C 199.183594 107.253906 197.96875 108.699219 195.894531 109.324219 C 195.6875 111.613281 194.757812 120.058594 192.023438 121.769531 C 191.335938 122.195312 190.277344 122.363281 189.042969 122.363281 " fill-opacity="1" fill-rule="nonzero"/><path fill="#000000" d="M 181.554688 76.214844 C 184.792969 77.003906 187.960938 79.023438 189.632812 79.203125 C 192.335938 79.492188 194.28125 76.03125 197.691406 77.289062 C 200.6875 78.394531 202.371094 80.941406 202.800781 83.816406 C 202.871094 84.296875 202.890625 84.804688 202.84375 85.347656 C 202.210938 92.621094 197.660156 94.164062 195.816406 94.492188 C 195.816406 94.492188 185.117188 93.503906 183.027344 94.007812 C 181.078125 94.480469 178.0625 97.519531 177.152344 101.839844 C 177.035156 102.394531 176.546875 102.800781 175.976562 102.84375 C 175.308594 102.894531 174.703125 102.433594 174.589844 101.777344 C 174.230469 99.703125 173.253906 95.558594 171.148438 95.4375 C 168.695312 95.296875 165.566406 100.148438 168.777344 103.1875 C 169.765625 104.125 169.4375 105.832031 168.171875 106.339844 C 167.121094 106.761719 165.804688 106.789062 164.378906 105.632812 C 164.378906 105.632812 158.046875 94.53125 161.070312 85.160156 C 164.089844 75.789062 177.246094 75.160156 181.554688 76.214844 " fill-opacity="1" fill-rule="nonzero"/><path fill="#000000" d="M 198.757812 106.148438 C 198.582031 106.148438 198.40625 106.078125 198.273438 105.9375 C 198.027344 105.667969 198.042969 105.253906 198.308594 105.003906 C 199.039062 104.328125 199.566406 102.796875 199.652344 101.105469 C 199.71875 99.898438 199.546875 98.71875 199.183594 97.867188 C 198.894531 97.179688 198.503906 96.753906 198.140625 96.738281 C 198.132812 96.738281 198.121094 96.738281 198.117188 96.738281 C 197.507812 96.738281 196.683594 97.820312 196.332031 99.671875 C 196.265625 100.03125 195.914062 100.261719 195.5625 100.195312 C 195.203125 100.128906 194.96875 99.78125 195.035156 99.421875 C 195.515625 96.917969 196.769531 95.339844 198.207031 95.417969 C 199.113281 95.464844 199.890625 96.152344 200.398438 97.351562 C 200.84375 98.398438 201.042969 99.753906 200.972656 101.171875 C 200.867188 103.222656 200.1875 105.058594 199.207031 105.96875 C 199.078125 106.089844 198.917969 106.148438 198.757812 106.148438 " fill-opacity="1" fill-rule="nonzero"/><path fill="#000000" d="M 187.988281 100.929688 C 187.921875 102.179688 188.160156 103.363281 188.652344 104.257812 C 188.90625 104.714844 189.453125 105.492188 190.285156 105.535156 C 191.644531 105.597656 192.917969 103.613281 193.042969 101.1875 C 193.105469 99.941406 192.871094 98.761719 192.378906 97.867188 C 192.125 97.40625 191.574219 96.628906 190.746094 96.585938 C 189.378906 96.519531 188.113281 98.507812 187.988281 100.929688 Z M 190.355469 106.855469 C 190.308594 106.855469 190.261719 106.855469 190.214844 106.851562 C 189.128906 106.796875 188.164062 106.101562 187.5 104.894531 C 186.886719 103.789062 186.59375 102.355469 186.671875 100.863281 C 186.839844 97.617188 188.660156 95.148438 190.816406 95.269531 C 191.902344 95.324219 192.867188 96.023438 193.53125 97.230469 C 194.140625 98.335938 194.4375 99.765625 194.359375 101.257812 C 194.195312 104.433594 192.449219 106.855469 190.355469 106.855469 " fill-opacity="1" fill-rule="nonzero"/><path fill="#000000" d="M 187.710938 99.300781 C 187.691406 99.300781 187.671875 99.296875 187.652344 99.296875 L 175.894531 98.242188 C 175.53125 98.210938 175.265625 97.890625 175.296875 97.527344 C 175.332031 97.164062 175.648438 96.890625 176.011719 96.929688 L 187.769531 97.980469 C 188.132812 98.015625 188.398438 98.335938 188.367188 98.699219 C 188.335938 99.039062 188.050781 99.300781 187.710938 99.300781 " fill-opacity="1" fill-rule="nonzero"/><path fill="#ffffff" d="M 168.96875 150.046875 C 168.96875 150.046875 173.546875 157.226562 177.671875 155.957031 C 179.835938 155.292969 181.953125 148.210938 182.816406 147.957031 C 185.578125 147.152344 190.84375 145.839844 194.078125 140.066406 C 197.09375 134.675781 196.4375 131.792969 195.660156 130.46875 C 195.300781 129.859375 195.304688 129.101562 195.703125 128.515625 C 196.28125 127.664062 196.839844 126.375 196.253906 125.046875 C 196.050781 124.582031 196.070312 124.046875 196.273438 123.582031 C 197.039062 121.796875 198.460938 117.6875 195.699219 116.878906 C 194.949219 116.65625 194.140625 116.9375 193.6875 117.566406 C 192.808594 118.773438 190.980469 121.050781 188.71875 122.492188 C 185.519531 124.527344 183.601562 125.917969 181.996094 126.832031 C 180.621094 127.617188 179.894531 120.75 176.582031 118.167969 C 173.648438 115.875 172.648438 117.035156 172.355469 118.113281 C 172.0625 119.1875 173.878906 119.613281 174.914062 124.734375 C 176.128906 130.730469 174.859375 135.773438 174.492188 138.46875 C 174.0625 141.632812 168.96875 150.046875 168.96875 150.046875 " fill-opacity="1" fill-rule="nonzero"/><path fill="#000000" d="M 169.75 150.03125 C 171.140625 152.070312 174.660156 156.191406 177.476562 155.328125 C 178.523438 155.007812 179.898438 152.050781 180.71875 150.285156 C 181.636719 148.308594 182.03125 147.5 182.628906 147.324219 L 182.980469 147.226562 C 185.804688 146.410156 190.53125 145.050781 193.5 139.742188 C 196.40625 134.554688 195.742188 131.914062 195.089844 130.804688 C 194.59375 129.960938 194.617188 128.941406 195.15625 128.148438 C 195.636719 127.4375 196.117188 126.367188 195.652344 125.3125 C 195.382812 124.695312 195.386719 123.972656 195.667969 123.320312 C 196.625 121.085938 196.914062 119.25 196.457031 118.28125 C 196.273438 117.890625 195.972656 117.644531 195.511719 117.507812 C 195.03125 117.367188 194.511719 117.546875 194.21875 117.953125 C 193.304688 119.214844 191.421875 121.554688 189.070312 123.046875 C 187.683594 123.929688 186.546875 124.6875 185.546875 125.351562 C 184.261719 126.203125 183.246094 126.878906 182.324219 127.40625 C 182.042969 127.566406 181.726562 127.597656 181.429688 127.496094 C 180.664062 127.222656 180.230469 126.117188 179.574219 124.445312 C 178.832031 122.554688 177.820312 119.964844 176.179688 118.6875 C 174.539062 117.40625 173.789062 117.457031 173.539062 117.542969 C 173.226562 117.648438 173.066406 118.003906 172.992188 118.285156 C 172.957031 118.40625 173.042969 118.558594 173.367188 119.050781 C 173.945312 119.925781 174.910156 121.382812 175.5625 124.605469 C 176.605469 129.75 175.867188 134.167969 175.378906 137.089844 C 175.285156 137.636719 175.203125 138.128906 175.148438 138.558594 C 174.746094 141.476562 170.742188 148.355469 169.75 150.03125 Z M 176.667969 156.765625 C 172.523438 156.765625 168.59375 150.683594 168.414062 150.402344 C 168.28125 150.1875 168.277344 149.917969 168.40625 149.703125 C 168.457031 149.621094 173.429688 141.375 173.839844 138.382812 C 173.898438 137.941406 173.984375 137.433594 174.078125 136.875 C 174.546875 134.046875 175.261719 129.769531 174.269531 124.867188 C 173.667969 121.898438 172.828125 120.625 172.269531 119.777344 C 171.871094 119.175781 171.523438 118.652344 171.71875 117.9375 C 171.949219 117.101562 172.445312 116.515625 173.125 116.289062 C 174.128906 115.957031 175.390625 116.398438 176.992188 117.648438 C 178.914062 119.148438 180.007812 121.933594 180.800781 123.964844 C 181.117188 124.769531 181.535156 125.839844 181.8125 126.179688 C 182.664062 125.683594 183.621094 125.046875 184.816406 124.25 C 185.824219 123.582031 186.964844 122.824219 188.363281 121.933594 C 190.53125 120.558594 192.292969 118.363281 193.152344 117.179688 C 193.773438 116.320312 194.871094 115.945312 195.882812 116.246094 C 196.707031 116.484375 197.304688 116.980469 197.652344 117.71875 C 198.453125 119.425781 197.671875 121.992188 196.878906 123.84375 C 196.742188 124.15625 196.734375 124.5 196.859375 124.785156 C 197.417969 126.054688 197.207031 127.472656 196.246094 128.886719 C 195.996094 129.253906 195.988281 129.734375 196.226562 130.136719 C 197.199219 131.792969 197.714844 134.914062 194.652344 140.386719 C 191.414062 146.164062 186.164062 147.679688 183.34375 148.492188 L 183.085938 148.566406 C 182.84375 148.839844 182.328125 149.945312 181.914062 150.839844 C 180.527344 153.816406 179.351562 156.128906 177.867188 156.589844 C 177.464844 156.710938 177.066406 156.765625 176.667969 156.765625 " fill-opacity="1" fill-rule="nonzero"/><path fill="#230b41" d="M 184.054688 153.222656 L 170.191406 144.390625 C 170.191406 144.390625 151.449219 174.691406 137.257812 184.976562 C 130.347656 189.984375 116.945312 184.097656 116.945312 184.097656 C 116.945312 184.097656 104.074219 233.554688 128.914062 240.625 C 170.292969 252.398438 184.054688 153.222656 184.054688 153.222656 " fill-opacity="1" fill-rule="nonzero"/><path fill="#ae9fcf" d="M 225.761719 230.613281 C 210.210938 230.613281 188.398438 218.570312 172.535156 206.75 C 172.242188 206.535156 172.179688 206.121094 172.398438 205.828125 C 172.617188 205.535156 173.03125 205.476562 173.324219 205.691406 C 189.242188 217.550781 213.257812 230.8125 228.53125 229.152344 C 228.886719 229.113281 229.21875 229.375 229.257812 229.738281 C 229.296875 230.097656 229.035156 230.425781 228.675781 230.464844 C 227.730469 230.566406 226.757812 230.613281 225.761719 230.613281 " fill-opacity="1" fill-rule="nonzero"/><path fill="#ae9fcf" d="M 204.769531 192.507812 C 196.082031 192.507812 180.109375 185.027344 179.367188 184.675781 C 179.035156 184.523438 178.894531 184.128906 179.050781 183.796875 C 179.207031 183.46875 179.601562 183.328125 179.925781 183.484375 C 180.125 183.578125 199.679688 192.738281 206.886719 190.972656 C 218.976562 188.007812 216.101562 172.5 216.070312 172.34375 C 216 171.984375 216.234375 171.640625 216.589844 171.570312 C 216.945312 171.5 217.296875 171.734375 217.367188 172.089844 C 217.398438 172.257812 220.5 188.996094 207.199219 192.25 C 206.484375 192.429688 205.664062 192.507812 204.769531 192.507812 " fill-opacity="1" fill-rule="nonzero"/><path fill="#ae9fcf" d="M 136.042969 187.074219 C 135.84375 187.074219 135.644531 186.984375 135.515625 186.808594 C 135.296875 186.519531 135.355469 186.105469 135.648438 185.886719 C 150.566406 174.734375 169.074219 144.113281 169.257812 143.804688 C 169.445312 143.492188 169.851562 143.390625 170.160156 143.582031 C 170.476562 143.769531 170.578125 144.171875 170.386719 144.484375 C 170.203125 144.796875 151.5625 175.636719 136.4375 186.945312 C 136.320312 187.03125 136.179688 187.074219 136.042969 187.074219 " fill-opacity="1" fill-rule="nonzero"/><path fill="#ae9fcf" d="M 134.84375 242.734375 C 134.308594 242.734375 133.769531 242.710938 133.230469 242.664062 C 132.867188 242.632812 132.597656 242.3125 132.628906 241.949219 C 132.660156 241.589844 132.984375 241.324219 133.34375 241.351562 C 150.320312 242.804688 163.023438 218.851562 170.679688 198.488281 C 178.410156 177.933594 182.683594 156.816406 183.320312 153.539062 L 177.65625 149.929688 C 177.347656 149.734375 177.257812 149.328125 177.453125 149.019531 C 177.648438 148.710938 178.058594 148.625 178.363281 148.820312 L 184.40625 152.664062 C 184.632812 152.8125 184.753906 153.078125 184.703125 153.34375 C 184.660156 153.574219 180.324219 176.582031 171.921875 198.9375 C 166.972656 212.097656 161.601562 222.472656 155.953125 229.765625 C 149.285156 238.378906 142.191406 242.734375 134.84375 242.734375 " fill-opacity="1" fill-rule="nonzero"/><path fill="#000000" d="M 243.347656 347.683594 C 243.058594 347.683594 242.796875 347.496094 242.714844 347.203125 C 242.613281 346.855469 242.816406 346.492188 243.167969 346.390625 C 268.015625 339.328125 286.082031 327.308594 298.398438 309.640625 C 298.605469 309.34375 299.015625 309.269531 299.3125 309.480469 C 299.613281 309.6875 299.6875 310.097656 299.480469 310.394531 C 286.984375 328.320312 268.683594 340.511719 243.53125 347.660156 C 243.46875 347.675781 243.40625 347.683594 243.347656 347.683594 " fill-opacity="1" fill-rule="nonzero"/><path fill="#000000" d="M 258.691406 347.257812 C 258.398438 347.257812 258.132812 347.0625 258.054688 346.761719 C 257.964844 346.414062 258.175781 346.050781 258.527344 345.960938 C 272.957031 342.21875 293.199219 329.070312 298.6875 317.074219 C 298.835938 316.742188 299.230469 316.597656 299.5625 316.75 C 299.890625 316.898438 300.039062 317.292969 299.886719 317.621094 C 297.183594 323.527344 290.996094 330.015625 282.453125 335.890625 C 274.816406 341.144531 265.996094 345.386719 258.859375 347.238281 C 258.804688 347.25 258.75 347.257812 258.691406 347.257812 " fill-opacity="1" fill-rule="nonzero"/><path fill="#000000" d="M 113.816406 344.09375 C 113.773438 344.09375 113.730469 344.089844 113.6875 344.078125 C 92.25 339.847656 73.730469 327.996094 57.070312 307.839844 C 56.835938 307.558594 56.875 307.140625 57.15625 306.910156 C 57.4375 306.675781 57.855469 306.71875 58.085938 306.996094 C 74.546875 326.910156 92.816406 338.617188 113.941406 342.785156 C 114.300781 342.855469 114.53125 343.203125 114.460938 343.5625 C 114.398438 343.875 114.125 344.09375 113.816406 344.09375 " fill-opacity="1" fill-rule="nonzero"/></svg>