<svg xmlns="http://www.w3.org/2000/svg" xmlns:xlink="http://www.w3.org/1999/xlink" width="500" zoomAndPan="magnify" viewBox="0 0 375 374.999991" height="500" preserveAspectRatio="xMidYMid meet" version="1.0"><defs><clipPath id="a5187270a8"><path d="M 200 292 L 374 292 L 374 312.609375 L 200 312.609375 Z M 200 292 " clip-rule="nonzero"/></clipPath><clipPath id="0ffd8b6a31"><path d="M 78 230 L 266 230 L 266 312.609375 L 78 312.609375 Z M 78 230 " clip-rule="nonzero"/></clipPath><clipPath id="383b3cf8a4"><path d="M 0 135 L 134 135 L 134 312.609375 L 0 312.609375 Z M 0 135 " clip-rule="nonzero"/></clipPath></defs><g clip-path="url(#a5187270a8)"><path fill="#000000" d="M 373.144531 312.890625 C 372.980469 312.890625 372.84375 312.753906 372.84375 312.589844 L 372.84375 292.6875 L 200.742188 292.6875 C 200.578125 292.6875 200.441406 292.550781 200.441406 292.386719 C 200.441406 292.222656 200.578125 292.085938 200.742188 292.085938 L 373.144531 292.085938 C 373.308594 292.085938 373.445312 292.222656 373.445312 292.386719 L 373.445312 312.589844 C 373.445312 312.753906 373.308594 312.890625 373.144531 312.890625 Z M 373.144531 312.890625 " fill-opacity="1" fill-rule="nonzero"/></g><path fill="#ffffff" d="M 327.800781 246.539062 L 259.039062 246.539062 C 251.589844 246.539062 245.539062 252.589844 245.539062 260.042969 C 245.539062 267.496094 251.589844 273.542969 259.039062 273.542969 L 327.800781 273.542969 C 335.253906 273.542969 341.304688 267.496094 341.304688 260.042969 C 341.304688 252.589844 335.253906 246.539062 327.800781 246.539062 Z M 327.800781 246.539062 " fill-opacity="1" fill-rule="nonzero"/><path fill="#000000" d="M 327.800781 273.855469 L 259.039062 273.855469 C 251.425781 273.855469 245.238281 267.65625 245.238281 260.054688 C 245.238281 252.453125 251.4375 246.253906 259.039062 246.253906 L 327.800781 246.253906 C 335.417969 246.253906 341.605469 252.453125 341.605469 260.054688 C 341.605469 267.65625 335.417969 273.855469 327.800781 273.855469 Z M 259.039062 246.839844 C 251.765625 246.839844 245.839844 252.765625 245.839844 260.042969 C 245.839844 267.316406 251.765625 273.242188 259.039062 273.242188 L 327.800781 273.242188 C 335.078125 273.242188 341.003906 267.316406 341.003906 260.042969 C 341.003906 252.765625 335.078125 246.839844 327.800781 246.839844 Z M 259.039062 246.839844 " fill-opacity="1" fill-rule="nonzero"/><path fill="#ffffff" d="M 262.277344 263.71875 C 263.210938 263.867188 264.125 264.109375 265.011719 264.441406 C 265.898438 264.773438 266.746094 265.1875 267.550781 265.6875 C 268.355469 266.183594 269.105469 266.753906 269.800781 267.402344 C 270.492188 268.046875 271.117188 268.753906 271.671875 269.523438 C 272.222656 270.292969 272.699219 271.105469 273.089844 271.96875 C 273.484375 272.832031 273.789062 273.722656 274.007812 274.644531 C 274.226562 275.566406 274.351562 276.5 274.382812 277.449219 C 274.417969 278.394531 274.359375 279.335938 274.207031 280.269531 C 274.054688 281.207031 273.8125 282.117188 273.484375 283.003906 C 273.152344 283.890625 272.738281 284.738281 272.238281 285.542969 C 271.742188 286.351562 271.167969 287.101562 270.523438 287.792969 C 269.878906 288.484375 269.171875 289.109375 268.402344 289.664062 C 267.632812 290.21875 266.816406 290.691406 265.957031 291.085938 C 265.09375 291.476562 264.203125 291.785156 263.28125 292 C 262.359375 292.21875 261.421875 292.34375 260.476562 292.378906 C 259.53125 292.410156 258.589844 292.351562 257.652344 292.199219 C 256.71875 292.050781 255.808594 291.808594 254.917969 291.476562 C 254.03125 291.144531 253.1875 290.730469 252.378906 290.230469 C 251.574219 289.734375 250.824219 289.160156 250.132812 288.515625 C 249.4375 287.871094 248.816406 287.164062 248.261719 286.394531 C 247.707031 285.625 247.234375 284.8125 246.839844 283.949219 C 246.445312 283.085938 246.140625 282.195312 245.921875 281.273438 C 245.707031 280.351562 245.578125 279.417969 245.546875 278.46875 C 245.511719 277.523438 245.570312 276.582031 245.722656 275.648438 C 245.875 274.710938 246.117188 273.800781 246.449219 272.914062 C 246.78125 272.027344 247.195312 271.179688 247.691406 270.375 C 248.191406 269.566406 248.761719 268.816406 249.40625 268.125 C 250.054688 267.429688 250.761719 266.808594 251.53125 266.253906 C 252.296875 265.699219 253.113281 265.226562 253.976562 264.832031 C 254.835938 264.441406 255.730469 264.132812 256.652344 263.917969 C 257.574219 263.699219 258.507812 263.574219 259.453125 263.539062 C 260.402344 263.507812 261.34375 263.566406 262.277344 263.71875 Z M 262.277344 263.71875 " fill-opacity="1" fill-rule="nonzero"/><path fill="#000000" d="M 259.953125 292.6875 C 251.832031 292.6875 245.226562 286.078125 245.226562 277.957031 C 245.226562 269.839844 251.832031 263.230469 259.953125 263.230469 C 268.074219 263.230469 274.679688 269.839844 274.679688 277.957031 C 274.679688 286.078125 268.074219 292.6875 259.953125 292.6875 Z M 259.953125 263.828125 C 252.160156 263.828125 245.824219 270.164062 245.824219 277.957031 C 245.824219 285.75 252.160156 292.085938 259.953125 292.085938 C 267.746094 292.085938 274.082031 285.75 274.082031 277.957031 C 274.082031 270.164062 267.746094 263.828125 259.953125 263.828125 Z M 259.953125 263.828125 " fill-opacity="1" fill-rule="nonzero"/><path fill="#ffffff" d="M 261.003906 271.570312 C 261.421875 271.640625 261.832031 271.746094 262.230469 271.894531 C 262.625 272.042969 263.007812 272.230469 263.367188 272.453125 C 263.730469 272.675781 264.066406 272.933594 264.375 273.222656 C 264.6875 273.511719 264.96875 273.832031 265.214844 274.175781 C 265.464844 274.519531 265.675781 274.886719 265.851562 275.273438 C 266.027344 275.660156 266.167969 276.058594 266.265625 276.472656 C 266.363281 276.886719 266.417969 277.304688 266.433594 277.730469 C 266.449219 278.152344 266.421875 278.578125 266.351562 278.996094 C 266.285156 279.414062 266.175781 279.824219 266.027344 280.222656 C 265.878906 280.621094 265.695312 281 265.46875 281.359375 C 265.246094 281.722656 264.992188 282.058594 264.699219 282.371094 C 264.410156 282.679688 264.09375 282.960938 263.75 283.207031 C 263.40625 283.457031 263.039062 283.667969 262.652344 283.847656 C 262.265625 284.023438 261.867188 284.160156 261.453125 284.257812 C 261.039062 284.355469 260.621094 284.410156 260.195312 284.425781 C 259.769531 284.441406 259.347656 284.414062 258.929688 284.347656 C 258.507812 284.277344 258.101562 284.171875 257.703125 284.023438 C 257.304688 283.875 256.925781 283.6875 256.5625 283.464844 C 256.203125 283.242188 255.867188 282.984375 255.554688 282.695312 C 255.242188 282.40625 254.964844 282.085938 254.714844 281.742188 C 254.46875 281.398438 254.253906 281.03125 254.078125 280.644531 C 253.902344 280.257812 253.765625 279.859375 253.667969 279.445312 C 253.570312 279.03125 253.511719 278.613281 253.496094 278.1875 C 253.484375 277.761719 253.507812 277.339844 253.578125 276.921875 C 253.644531 276.503906 253.753906 276.09375 253.902344 275.695312 C 254.050781 275.296875 254.238281 274.917969 254.460938 274.554688 C 254.683594 274.195312 254.941406 273.859375 255.230469 273.546875 C 255.519531 273.238281 255.835938 272.957031 256.179688 272.707031 C 256.527344 272.460938 256.890625 272.246094 257.277344 272.070312 C 257.664062 271.894531 258.066406 271.757812 258.480469 271.660156 C 258.890625 271.5625 259.3125 271.507812 259.734375 271.492188 C 260.160156 271.476562 260.582031 271.503906 261.003906 271.570312 Z M 261.003906 271.570312 " fill-opacity="1" fill-rule="nonzero"/><path fill="#000000" d="M 259.953125 284.714844 C 256.21875 284.714844 253.183594 281.675781 253.183594 277.945312 C 253.183594 274.210938 256.21875 271.171875 259.953125 271.171875 C 263.6875 271.171875 266.726562 274.210938 266.726562 277.945312 C 266.726562 281.691406 263.6875 284.714844 259.953125 284.714844 Z M 259.953125 271.785156 C 256.546875 271.785156 253.78125 274.550781 253.78125 277.957031 C 253.78125 281.363281 256.546875 284.128906 259.953125 284.128906 C 263.359375 284.128906 266.125 281.363281 266.125 277.957031 C 266.125 274.550781 263.359375 271.785156 259.953125 271.785156 Z M 259.953125 271.785156 " fill-opacity="1" fill-rule="nonzero"/><path fill="#ffffff" d="M 294.992188 263.632812 C 295.933594 263.734375 296.855469 263.929688 297.757812 264.214844 C 298.660156 264.5 299.527344 264.871094 300.359375 265.324219 C 301.191406 265.78125 301.96875 266.3125 302.695312 266.921875 C 303.417969 267.53125 304.078125 268.207031 304.671875 268.945312 C 305.265625 269.683594 305.777344 270.472656 306.214844 271.3125 C 306.652344 272.15625 307.003906 273.03125 307.269531 273.9375 C 307.535156 274.847656 307.707031 275.773438 307.789062 276.71875 C 307.871094 277.664062 307.863281 278.605469 307.757812 279.546875 C 307.65625 280.488281 307.460938 281.410156 307.175781 282.316406 C 306.890625 283.21875 306.519531 284.085938 306.0625 284.914062 C 305.609375 285.746094 305.074219 286.523438 304.46875 287.25 C 303.859375 287.976562 303.183594 288.632812 302.445312 289.226562 C 301.707031 289.820312 300.917969 290.335938 300.074219 290.773438 C 299.234375 291.210938 298.359375 291.5625 297.449219 291.824219 C 296.542969 292.089844 295.613281 292.265625 294.671875 292.347656 C 293.726562 292.429688 292.785156 292.417969 291.84375 292.316406 C 290.902344 292.210938 289.976562 292.015625 289.074219 291.730469 C 288.171875 291.445312 287.304688 291.078125 286.472656 290.621094 C 285.644531 290.164062 284.867188 289.632812 284.140625 289.023438 C 283.414062 288.414062 282.753906 287.738281 282.164062 287 C 281.570312 286.261719 281.054688 285.472656 280.617188 284.632812 C 280.179688 283.792969 279.828125 282.917969 279.5625 282.007812 C 279.300781 281.097656 279.125 280.171875 279.042969 279.226562 C 278.960938 278.285156 278.972656 277.339844 279.074219 276.398438 C 279.179688 275.457031 279.371094 274.535156 279.65625 273.632812 C 279.941406 272.726562 280.3125 271.859375 280.769531 271.03125 C 281.226562 270.199219 281.757812 269.421875 282.367188 268.695312 C 282.976562 267.96875 283.648438 267.3125 284.386719 266.71875 C 285.128906 266.125 285.917969 265.609375 286.757812 265.171875 C 287.597656 264.738281 288.472656 264.386719 289.382812 264.121094 C 290.292969 263.855469 291.21875 263.683594 292.164062 263.597656 C 293.105469 263.515625 294.050781 263.527344 294.992188 263.632812 Z M 294.992188 263.632812 " fill-opacity="1" fill-rule="nonzero"/><path fill="#000000" d="M 293.414062 292.6875 C 285.292969 292.6875 278.6875 286.078125 278.6875 277.957031 C 278.6875 269.839844 285.292969 263.230469 293.414062 263.230469 C 301.535156 263.230469 308.140625 269.839844 308.140625 277.957031 C 308.140625 286.078125 301.535156 292.6875 293.414062 292.6875 Z M 293.414062 263.828125 C 285.621094 263.828125 279.285156 270.164062 279.285156 277.957031 C 279.285156 285.75 285.621094 292.085938 293.414062 292.085938 C 301.207031 292.085938 307.542969 285.75 307.542969 277.957031 C 307.542969 270.164062 301.207031 263.828125 293.414062 263.828125 Z M 293.414062 263.828125 " fill-opacity="1" fill-rule="nonzero"/><path fill="#ffffff" d="M 294.464844 271.570312 C 294.886719 271.640625 295.292969 271.75 295.691406 271.898438 C 296.089844 272.046875 296.46875 272.230469 296.832031 272.457031 C 297.191406 272.679688 297.527344 272.933594 297.839844 273.226562 C 298.152344 273.515625 298.429688 273.832031 298.679688 274.175781 C 298.925781 274.519531 299.140625 274.886719 299.316406 275.273438 C 299.492188 275.660156 299.628906 276.058594 299.726562 276.472656 C 299.824219 276.886719 299.882812 277.304688 299.894531 277.730469 C 299.910156 278.15625 299.882812 278.578125 299.816406 278.996094 C 299.75 279.417969 299.640625 279.824219 299.492188 280.222656 C 299.34375 280.621094 299.15625 281 298.933594 281.363281 C 298.710938 281.722656 298.453125 282.058594 298.164062 282.371094 C 297.875 282.683594 297.558594 282.960938 297.210938 283.210938 C 296.867188 283.457031 296.503906 283.671875 296.117188 283.847656 C 295.730469 284.023438 295.328125 284.160156 294.914062 284.257812 C 294.5 284.355469 294.082031 284.414062 293.65625 284.425781 C 293.234375 284.441406 292.8125 284.417969 292.390625 284.347656 C 291.972656 284.28125 291.5625 284.171875 291.164062 284.023438 C 290.765625 283.875 290.386719 283.6875 290.027344 283.464844 C 289.664062 283.242188 289.328125 282.984375 289.019531 282.695312 C 288.707031 282.40625 288.425781 282.089844 288.179688 281.742188 C 287.929688 281.398438 287.71875 281.035156 287.542969 280.648438 C 287.363281 280.261719 287.226562 279.859375 287.128906 279.445312 C 287.03125 279.03125 286.976562 278.613281 286.960938 278.1875 C 286.945312 277.765625 286.972656 277.34375 287.039062 276.921875 C 287.109375 276.503906 287.21875 276.09375 287.367188 275.695312 C 287.515625 275.300781 287.699219 274.917969 287.921875 274.558594 C 288.148438 274.195312 288.402344 273.859375 288.691406 273.550781 C 288.984375 273.238281 289.300781 272.957031 289.644531 272.710938 C 289.988281 272.460938 290.355469 272.25 290.742188 272.074219 C 291.128906 271.894531 291.527344 271.757812 291.941406 271.660156 C 292.355469 271.5625 292.773438 271.507812 293.199219 271.492188 C 293.625 271.476562 294.046875 271.503906 294.464844 271.570312 Z M 294.464844 271.570312 " fill-opacity="1" fill-rule="nonzero"/><path fill="#000000" d="M 293.414062 284.714844 C 289.683594 284.714844 286.644531 281.675781 286.644531 277.945312 C 286.644531 274.210938 289.683594 271.171875 293.414062 271.171875 C 297.148438 271.171875 300.1875 274.210938 300.1875 277.945312 C 300.1875 281.691406 297.148438 284.714844 293.414062 284.714844 Z M 293.414062 271.785156 C 290.007812 271.785156 287.242188 274.550781 287.242188 277.957031 C 287.242188 281.363281 290.007812 284.128906 293.414062 284.128906 C 296.820312 284.128906 299.585938 281.363281 299.585938 277.957031 C 299.585938 274.550781 296.820312 271.785156 293.414062 271.785156 Z M 293.414062 271.785156 " fill-opacity="1" fill-rule="nonzero"/><path fill="#ffffff" d="M 328.453125 263.632812 C 329.394531 263.738281 330.316406 263.929688 331.222656 264.214844 C 332.125 264.5 332.992188 264.871094 333.824219 265.328125 C 334.652344 265.785156 335.429688 266.316406 336.15625 266.925781 C 336.882812 267.535156 337.542969 268.207031 338.132812 268.949219 C 338.726562 269.6875 339.242188 270.476562 339.679688 271.316406 C 340.117188 272.15625 340.46875 273.03125 340.730469 273.941406 C 340.996094 274.851562 341.171875 275.777344 341.253906 276.722656 C 341.335938 277.664062 341.324219 278.609375 341.222656 279.550781 C 341.117188 280.492188 340.925781 281.414062 340.640625 282.316406 C 340.355469 283.222656 339.984375 284.089844 339.527344 284.917969 C 339.070312 285.75 338.539062 286.527344 337.929688 287.253906 C 337.320312 287.976562 336.648438 288.636719 335.90625 289.230469 C 335.167969 289.824219 334.378906 290.335938 333.539062 290.773438 C 332.699219 291.210938 331.824219 291.5625 330.914062 291.828125 C 330.003906 292.09375 329.078125 292.265625 328.132812 292.347656 C 327.191406 292.429688 326.246094 292.421875 325.304688 292.316406 C 324.363281 292.214844 323.441406 292.019531 322.539062 291.734375 C 321.632812 291.449219 320.765625 291.078125 319.9375 290.625 C 319.105469 290.167969 318.328125 289.636719 317.601562 289.027344 C 316.878906 288.417969 316.21875 287.742188 315.625 287.003906 C 315.03125 286.265625 314.515625 285.476562 314.078125 284.632812 C 313.644531 283.792969 313.292969 282.917969 313.027344 282.007812 C 312.761719 281.101562 312.589844 280.171875 312.507812 279.230469 C 312.421875 278.285156 312.433594 277.34375 312.539062 276.402344 C 312.640625 275.460938 312.835938 274.535156 313.121094 273.632812 C 313.40625 272.730469 313.777344 271.863281 314.230469 271.03125 C 314.6875 270.203125 315.21875 269.425781 315.828125 268.699219 C 316.4375 267.972656 317.113281 267.3125 317.851562 266.722656 C 318.589844 266.128906 319.378906 265.613281 320.21875 265.175781 C 321.0625 264.738281 321.9375 264.386719 322.84375 264.121094 C 323.753906 263.859375 324.683594 263.683594 325.625 263.601562 C 326.570312 263.519531 327.511719 263.53125 328.453125 263.632812 Z M 328.453125 263.632812 " fill-opacity="1" fill-rule="nonzero"/><path fill="#000000" d="M 326.875 292.6875 C 318.753906 292.6875 312.148438 286.078125 312.148438 277.957031 C 312.148438 269.839844 318.753906 263.230469 326.875 263.230469 C 334.996094 263.230469 341.605469 269.839844 341.605469 277.957031 C 341.605469 286.078125 334.996094 292.6875 326.875 292.6875 Z M 326.875 263.828125 C 319.082031 263.828125 312.746094 270.164062 312.746094 277.957031 C 312.746094 285.75 319.082031 292.085938 326.875 292.085938 C 334.667969 292.085938 341.003906 285.75 341.003906 277.957031 C 341.003906 270.164062 334.667969 263.828125 326.875 263.828125 Z M 326.875 263.828125 " fill-opacity="1" fill-rule="nonzero"/><path fill="#ffffff" d="M 327.929688 271.574219 C 328.347656 271.640625 328.757812 271.75 329.15625 271.898438 C 329.550781 272.046875 329.933594 272.234375 330.292969 272.457031 C 330.65625 272.679688 330.992188 272.9375 331.300781 273.226562 C 331.613281 273.515625 331.894531 273.832031 332.140625 274.175781 C 332.390625 274.523438 332.601562 274.886719 332.777344 275.273438 C 332.957031 275.660156 333.09375 276.0625 333.191406 276.472656 C 333.289062 276.886719 333.34375 277.308594 333.359375 277.730469 C 333.375 278.15625 333.347656 278.578125 333.28125 278.996094 C 333.210938 279.417969 333.101562 279.824219 332.953125 280.222656 C 332.804688 280.621094 332.621094 281.003906 332.394531 281.363281 C 332.171875 281.726562 331.917969 282.0625 331.625 282.371094 C 331.335938 282.683594 331.019531 282.960938 330.675781 283.210938 C 330.332031 283.460938 329.964844 283.671875 329.578125 283.847656 C 329.191406 284.023438 328.792969 284.160156 328.378906 284.257812 C 327.964844 284.355469 327.546875 284.414062 327.121094 284.429688 C 326.695312 284.445312 326.273438 284.417969 325.855469 284.347656 C 325.433594 284.28125 325.027344 284.171875 324.628906 284.023438 C 324.230469 283.875 323.851562 283.6875 323.488281 283.464844 C 323.128906 283.242188 322.792969 282.984375 322.480469 282.695312 C 322.167969 282.40625 321.890625 282.089844 321.640625 281.746094 C 321.394531 281.398438 321.179688 281.035156 321.003906 280.648438 C 320.828125 280.261719 320.691406 279.859375 320.59375 279.449219 C 320.496094 279.035156 320.4375 278.613281 320.425781 278.191406 C 320.410156 277.765625 320.4375 277.34375 320.503906 276.925781 C 320.570312 276.503906 320.679688 276.097656 320.828125 275.699219 C 320.976562 275.300781 321.164062 274.921875 321.386719 274.558594 C 321.609375 274.195312 321.867188 273.859375 322.15625 273.550781 C 322.445312 273.238281 322.761719 272.960938 323.109375 272.710938 C 323.453125 272.460938 323.816406 272.25 324.203125 272.074219 C 324.589844 271.898438 324.992188 271.761719 325.40625 271.664062 C 325.820312 271.566406 326.238281 271.507812 326.664062 271.492188 C 327.085938 271.480469 327.507812 271.503906 327.929688 271.574219 Z M 327.929688 271.574219 " fill-opacity="1" fill-rule="nonzero"/><path fill="#000000" d="M 326.875 284.714844 C 323.144531 284.714844 320.105469 281.675781 320.105469 277.945312 C 320.105469 274.210938 323.144531 271.171875 326.875 271.171875 C 330.609375 271.171875 333.648438 274.210938 333.648438 277.945312 C 333.648438 281.691406 330.609375 284.714844 326.875 284.714844 Z M 326.875 271.785156 C 323.46875 271.785156 320.703125 274.550781 320.703125 277.957031 C 320.703125 281.363281 323.46875 284.128906 326.875 284.128906 C 330.28125 284.128906 333.046875 281.363281 333.046875 277.957031 C 333.046875 274.550781 330.28125 271.785156 326.875 271.785156 Z M 326.875 271.785156 " fill-opacity="1" fill-rule="nonzero"/><path fill="#ffffff" d="M 326.792969 221.253906 L 310.050781 188.570312 C 308.632812 185.804688 305.800781 184.074219 302.691406 184.074219 L 284.148438 184.074219 C 281.042969 184.074219 278.210938 185.804688 276.792969 188.570312 L 260.050781 221.253906 C 259.449219 222.425781 259.136719 223.71875 259.136719 225.027344 L 259.136719 234.347656 C 259.136719 238.910156 262.84375 242.617188 267.40625 242.617188 L 319.449219 242.617188 C 324.015625 242.617188 327.71875 238.910156 327.71875 234.347656 L 327.71875 225.027344 C 327.707031 223.71875 327.394531 222.425781 326.792969 221.253906 Z M 326.792969 221.253906 " fill-opacity="1" fill-rule="nonzero"/><path fill="#000000" d="M 319.4375 242.917969 L 267.390625 242.917969 C 262.664062 242.917969 258.824219 239.074219 258.824219 234.347656 L 258.824219 225.027344 C 258.824219 223.679688 259.148438 222.332031 259.761719 221.117188 L 276.507812 188.433594 C 277.976562 185.558594 280.90625 183.773438 284.136719 183.773438 L 302.679688 183.773438 C 305.90625 183.773438 308.835938 185.558594 310.308594 188.433594 L 327.054688 221.117188 C 327.667969 222.316406 327.992188 223.679688 327.992188 225.027344 L 327.992188 234.347656 C 328.007812 239.074219 324.164062 242.917969 319.4375 242.917969 Z M 284.148438 184.375 C 281.140625 184.375 278.429688 186.035156 277.050781 188.707031 L 260.308594 221.390625 C 259.734375 222.507812 259.4375 223.761719 259.4375 225.027344 L 259.4375 234.347656 C 259.4375 238.746094 263.003906 242.316406 267.40625 242.316406 L 319.449219 242.316406 C 323.851562 242.316406 327.421875 238.746094 327.421875 234.347656 L 327.421875 225.027344 C 327.421875 223.773438 327.121094 222.507812 326.550781 221.390625 L 309.804688 188.707031 C 308.429688 186.035156 305.71875 184.375 302.707031 184.375 Z M 284.148438 184.375 " fill-opacity="1" fill-rule="nonzero"/><path fill="#ffffff" d="M 304.519531 188.894531 L 282.324219 188.894531 C 269.109375 188.894531 258.402344 178.1875 258.402344 164.972656 L 258.402344 138.570312 C 258.402344 135.667969 260.757812 133.308594 263.660156 133.308594 L 323.199219 133.308594 C 326.097656 133.308594 328.457031 135.667969 328.457031 138.570312 L 328.457031 164.972656 C 328.441406 178.1875 317.734375 188.894531 304.519531 188.894531 Z M 304.519531 188.894531 " fill-opacity="1" fill-rule="nonzero"/><path fill="#000000" d="M 304.519531 189.195312 L 282.324219 189.195312 C 268.960938 189.195312 258.101562 178.324219 258.101562 164.972656 L 258.101562 138.570312 C 258.101562 135.503906 260.59375 133.011719 263.660156 133.011719 L 323.199219 133.011719 C 326.261719 133.011719 328.757812 135.503906 328.757812 138.570312 L 328.757812 164.972656 C 328.742188 178.335938 317.871094 189.195312 304.519531 189.195312 Z M 263.644531 133.621094 C 260.921875 133.621094 258.6875 135.84375 258.6875 138.582031 L 258.6875 164.984375 C 258.6875 178.011719 269.285156 188.609375 282.3125 188.609375 L 304.503906 188.609375 C 317.53125 188.609375 328.128906 178.011719 328.128906 164.984375 L 328.128906 138.570312 C 328.128906 135.84375 325.910156 133.609375 323.171875 133.609375 L 263.644531 133.609375 Z M 263.644531 133.621094 " fill-opacity="1" fill-rule="nonzero"/><path fill="#e2eaff" d="M 313.703125 167.234375 L 273.140625 167.234375 C 270.484375 167.234375 268.332031 165.082031 268.332031 162.425781 L 268.332031 157.957031 C 268.332031 155.300781 270.484375 153.144531 273.140625 153.144531 L 313.703125 153.144531 C 316.359375 153.144531 318.511719 155.300781 318.511719 157.957031 L 318.511719 162.425781 C 318.511719 165.082031 316.359375 167.234375 313.703125 167.234375 Z M 313.703125 167.234375 " fill-opacity="1" fill-rule="nonzero"/><path fill="#ffffff" d="M 308.949219 156.292969 C 309.21875 156.355469 309.476562 156.445312 309.726562 156.5625 C 309.976562 156.675781 310.214844 156.8125 310.4375 156.972656 C 310.664062 157.136719 310.867188 157.316406 311.054688 157.519531 C 311.242188 157.71875 311.410156 157.9375 311.554688 158.171875 C 311.699219 158.40625 311.820312 158.652344 311.917969 158.910156 C 312.011719 159.167969 312.082031 159.433594 312.128906 159.707031 C 312.171875 159.976562 312.1875 160.25 312.179688 160.527344 C 312.167969 160.800781 312.132812 161.074219 312.070312 161.34375 C 312.003906 161.609375 311.917969 161.871094 311.800781 162.121094 C 311.6875 162.371094 311.550781 162.609375 311.390625 162.832031 C 311.226562 163.054688 311.046875 163.261719 310.84375 163.449219 C 310.644531 163.636719 310.425781 163.804688 310.191406 163.949219 C 309.957031 164.09375 309.710938 164.214844 309.453125 164.308594 C 309.195312 164.40625 308.929688 164.476562 308.65625 164.519531 C 308.386719 164.5625 308.109375 164.582031 307.835938 164.570312 C 307.558594 164.5625 307.289062 164.523438 307.019531 164.460938 C 306.753906 164.398438 306.492188 164.308594 306.242188 164.195312 C 305.992188 164.082031 305.753906 163.941406 305.53125 163.78125 C 305.308594 163.621094 305.101562 163.441406 304.914062 163.238281 C 304.726562 163.035156 304.558594 162.816406 304.414062 162.582031 C 304.269531 162.347656 304.148438 162.101562 304.054688 161.84375 C 303.957031 161.585938 303.886719 161.320312 303.84375 161.050781 C 303.796875 160.777344 303.78125 160.503906 303.792969 160.230469 C 303.800781 159.953125 303.835938 159.683594 303.902344 159.414062 C 303.964844 159.144531 304.054688 158.886719 304.167969 158.636719 C 304.28125 158.386719 304.417969 158.148438 304.582031 157.925781 C 304.742188 157.699219 304.921875 157.496094 305.125 157.308594 C 305.328125 157.121094 305.542969 156.953125 305.777344 156.808594 C 306.011719 156.664062 306.257812 156.542969 306.519531 156.445312 C 306.777344 156.351562 307.039062 156.28125 307.3125 156.234375 C 307.585938 156.191406 307.859375 156.175781 308.132812 156.183594 C 308.410156 156.195312 308.679688 156.230469 308.949219 156.292969 Z M 308.949219 156.292969 " fill-opacity="1" fill-rule="nonzero"/><path fill="#ffffff" d="M 283.011719 159.664062 C 283.054688 159.9375 283.074219 160.210938 283.0625 160.484375 C 283.054688 160.761719 283.015625 161.03125 282.953125 161.300781 C 282.890625 161.570312 282.800781 161.828125 282.6875 162.078125 C 282.574219 162.328125 282.433594 162.566406 282.273438 162.789062 C 282.113281 163.015625 281.929688 163.21875 281.730469 163.40625 C 281.527344 163.59375 281.308594 163.761719 281.074219 163.90625 C 280.839844 164.050781 280.59375 164.171875 280.335938 164.269531 C 280.078125 164.363281 279.8125 164.433594 279.542969 164.480469 C 279.269531 164.523438 278.996094 164.539062 278.71875 164.53125 C 278.445312 164.519531 278.171875 164.484375 277.90625 164.421875 C 277.636719 164.355469 277.378906 164.269531 277.128906 164.152344 C 276.875 164.039062 276.640625 163.902344 276.414062 163.742188 C 276.191406 163.578125 275.988281 163.398438 275.800781 163.195312 C 275.609375 162.996094 275.445312 162.777344 275.300781 162.542969 C 275.15625 162.308594 275.035156 162.0625 274.9375 161.804688 C 274.84375 161.546875 274.773438 161.28125 274.726562 161.007812 C 274.683594 160.738281 274.667969 160.464844 274.675781 160.1875 C 274.6875 159.914062 274.722656 159.640625 274.785156 159.371094 C 274.847656 159.105469 274.9375 158.84375 275.050781 158.59375 C 275.167969 158.34375 275.304688 158.105469 275.464844 157.882812 C 275.625 157.660156 275.808594 157.453125 276.007812 157.265625 C 276.210938 157.078125 276.429688 156.910156 276.664062 156.765625 C 276.898438 156.621094 277.144531 156.5 277.402344 156.40625 C 277.660156 156.308594 277.925781 156.238281 278.199219 156.195312 C 278.46875 156.152344 278.742188 156.132812 279.019531 156.144531 C 279.292969 156.152344 279.566406 156.1875 279.835938 156.253906 C 280.101562 156.316406 280.363281 156.40625 280.613281 156.519531 C 280.863281 156.632812 281.101562 156.773438 281.324219 156.933594 C 281.546875 157.09375 281.753906 157.273438 281.941406 157.476562 C 282.128906 157.679688 282.292969 157.894531 282.4375 158.132812 C 282.585938 158.367188 282.703125 158.613281 282.800781 158.871094 C 282.898438 159.128906 282.96875 159.394531 283.011719 159.664062 Z M 283.011719 159.664062 " fill-opacity="1" fill-rule="nonzero"/><path fill="#000000" d="M 293.414062 177.671875 C 293.25 177.671875 293.113281 177.535156 293.113281 177.371094 C 293.113281 177.207031 293.25 177.070312 293.414062 177.070312 C 297.609375 177.070312 301.464844 174.617188 303.25 170.832031 C 303.320312 170.679688 303.496094 170.613281 303.648438 170.679688 C 303.796875 170.75 303.863281 170.925781 303.796875 171.074219 C 301.917969 175.082031 297.84375 177.671875 293.414062 177.671875 Z M 293.414062 177.671875 " fill-opacity="1" fill-rule="nonzero"/><path fill="#000000" d="M 307.964844 192.96875 L 279.476562 192.96875 C 279.3125 192.96875 279.175781 192.832031 279.175781 192.671875 C 279.175781 192.507812 279.3125 192.371094 279.476562 192.371094 L 307.964844 192.371094 C 308.128906 192.371094 308.265625 192.507812 308.265625 192.671875 C 308.265625 192.832031 308.128906 192.96875 307.964844 192.96875 Z M 307.964844 192.96875 " fill-opacity="1" fill-rule="nonzero"/><path fill="#000000" d="M 110.277344 100.773438 C 110.277344 100.773438 130.238281 113.828125 135.523438 90.476562 C 140.277344 69.480469 128.277344 82.996094 125.644531 81.195312 C 122.8125 79.261719 127.335938 73.730469 123.453125 71.972656 C 119.625 70.242188 114.789062 75.105469 111.121094 72.871094 C 107.457031 70.636719 101.394531 62.109375 92.363281 64.179688 C 84.800781 65.910156 82.171875 73.390625 82.171875 73.390625 C 82.171875 73.390625 74.011719 71.617188 68.464844 83.171875 C 62.921875 94.726562 72.539062 122.328125 72.539062 122.328125 Z M 110.277344 100.773438 " fill-opacity="1" fill-rule="nonzero"/><path fill="#ffffff" d="M 70.167969 111.0625 L 48.015625 141.648438 C 46.597656 143.597656 44.253906 144.644531 41.84375 144.398438 L 36.339844 143.8125 C 36.339844 143.8125 40.863281 177.316406 65.15625 179.375 C 89.445312 181.429688 90.414062 160.382812 90.414062 160.382812 L 85.714844 158.515625 C 82.894531 157.398438 81.777344 154.003906 83.355469 151.429688 L 95.210938 132.097656 C 95.222656 132.097656 78.585938 107.53125 70.167969 111.0625 Z M 70.167969 111.0625 " fill-opacity="1" fill-rule="nonzero"/><path fill="#000000" d="M 68.425781 179.824219 C 67.363281 179.824219 66.273438 179.769531 65.140625 179.671875 C 55.101562 178.816406 46.882812 172.34375 41.378906 160.953125 C 37.238281 152.371094 36.066406 143.9375 36.054688 143.855469 C 36.039062 143.757812 36.066406 143.675781 36.132812 143.609375 C 36.203125 143.542969 36.285156 143.515625 36.378906 143.515625 L 41.882812 144.101562 C 44.171875 144.34375 46.421875 143.335938 47.769531 141.46875 L 69.921875 110.882812 C 69.949219 110.84375 70.003906 110.800781 70.046875 110.789062 C 78.601562 107.207031 94.773438 130.925781 95.453125 131.933594 C 95.523438 132.027344 95.523438 132.152344 95.46875 132.261719 L 83.613281 151.59375 C 82.90625 152.75 82.742188 154.15625 83.179688 155.433594 C 83.601562 156.714844 84.570312 157.75 85.835938 158.242188 L 90.535156 160.109375 C 90.660156 160.148438 90.726562 160.273438 90.726562 160.394531 C 90.726562 160.476562 90.25 169.046875 83.765625 174.726562 C 79.910156 178.121094 74.757812 179.824219 68.425781 179.824219 Z M 36.691406 144.15625 C 36.964844 145.886719 38.300781 153.242188 41.910156 160.707031 C 45.683594 168.515625 52.769531 178.023438 65.179688 179.085938 C 72.867188 179.742188 78.984375 178.132812 83.355469 174.292969 C 89.09375 169.265625 89.976562 161.921875 90.101562 160.585938 L 85.605469 158.800781 C 84.1875 158.242188 83.082031 157.082031 82.605469 155.625 C 82.117188 154.167969 82.308594 152.589844 83.109375 151.28125 L 94.855469 132.109375 C 93.410156 130.011719 78.136719 108.242188 70.359375 111.320312 L 48.261719 141.824219 C 46.789062 143.855469 44.324219 144.957031 41.816406 144.699219 Z M 36.691406 144.15625 " fill-opacity="1" fill-rule="nonzero"/><path fill="#ffffff" d="M 76.503906 118.8125 C 76.503906 118.8125 78.152344 133.621094 93.722656 135.75 C 109.285156 137.875 115.441406 119.125 120.25 98.691406 C 117.769531 99.070312 114.9375 99.003906 111.175781 97.722656 C 104.800781 95.558594 92.226562 88.882812 92.046875 87.21875 C 92.730469 93.621094 91.859375 99.710938 87.742188 102.421875 C 86.082031 103.648438 83.507812 104.113281 79.542969 102.96875 C 79.542969 102.96875 79.582031 96.117188 72.878906 98.050781 C 66.164062 99.972656 63.53125 115.992188 76.503906 118.8125 Z M 76.503906 118.8125 " fill-opacity="1" fill-rule="nonzero"/><path fill="#000000" d="M 96.082031 136.210938 C 95.292969 136.210938 94.488281 136.15625 93.667969 136.046875 C 85.507812 134.929688 81.191406 130.3125 79.011719 126.648438 C 76.9375 123.160156 76.351562 119.929688 76.230469 119.074219 C 70.632812 117.777344 67.199219 113.71875 67.019531 108.1875 C 66.855469 103.324219 69.40625 98.746094 72.796875 97.765625 C 74.894531 97.164062 76.570312 97.328125 77.8125 98.253906 C 79.542969 99.574219 79.800781 101.988281 79.839844 102.738281 C 83.191406 103.664062 85.796875 103.472656 87.566406 102.179688 C 92.019531 99.25 92.308594 92.4375 91.75 87.246094 C 91.734375 87.082031 91.84375 86.933594 92.019531 86.917969 C 92.183594 86.90625 92.335938 87.015625 92.347656 87.191406 C 92.484375 88.484375 104.203125 95.039062 111.273438 97.449219 C 114.5 98.554688 117.335938 98.855469 120.195312 98.40625 C 120.292969 98.390625 120.402344 98.417969 120.46875 98.5 C 120.535156 98.566406 120.5625 98.675781 120.535156 98.773438 C 118.34375 108.078125 115.523438 118.566406 111.273438 125.84375 C 107.183594 132.792969 102.199219 136.210938 96.082031 136.210938 Z M 75.058594 98.007812 C 74.417969 98.007812 73.722656 98.117188 72.960938 98.335938 C 69.8125 99.25 67.46875 103.554688 67.621094 108.160156 C 67.796875 113.460938 71.136719 117.34375 76.570312 118.527344 C 76.695312 118.554688 76.789062 118.664062 76.804688 118.785156 C 76.804688 118.828125 77.238281 122.492188 79.542969 126.347656 C 81.667969 129.902344 85.847656 134.359375 93.75 135.449219 C 100.714844 136.402344 106.285156 133.160156 110.742188 125.53125 C 114.894531 118.433594 117.675781 108.199219 119.84375 99.042969 C 117.035156 99.414062 114.230469 99.085938 111.066406 98.007812 C 108.042969 96.988281 103.355469 94.835938 99.132812 92.546875 C 96.625 91.183594 93.738281 89.492188 92.429688 88.253906 C 92.839844 93.445312 92.28125 99.78125 87.894531 102.667969 C 85.945312 104.097656 83.097656 104.304688 79.445312 103.253906 C 79.324219 103.214844 79.226562 103.105469 79.226562 102.96875 C 79.226562 102.941406 79.226562 100.09375 77.429688 98.730469 C 76.804688 98.242188 76 98.007812 75.058594 98.007812 Z M 75.058594 98.007812 " fill-opacity="1" fill-rule="nonzero"/><path fill="#000000" d="M 75.261719 109.957031 C 75.101562 109.957031 74.964844 109.835938 74.964844 109.671875 C 74.921875 108.609375 74.894531 107.519531 74.554688 106.511719 C 74.1875 105.421875 73.492188 104.617188 72.648438 104.289062 C 72.496094 104.234375 72.417969 104.058594 72.46875 103.910156 C 72.523438 103.757812 72.703125 103.675781 72.851562 103.730469 C 73.875 104.125 74.691406 105.066406 75.113281 106.320312 C 75.480469 107.410156 75.523438 108.554688 75.550781 109.65625 C 75.5625 109.820312 75.441406 109.957031 75.261719 109.957031 Z M 75.261719 109.957031 " fill-opacity="1" fill-rule="nonzero"/><path fill="#ffffff" d="M 158.792969 216.457031 L 174.378906 229.648438 L 224.027344 210.464844 C 224.027344 210.464844 230.976562 202.792969 236.738281 199.195312 C 242.488281 195.597656 255.445312 206.636719 256.644531 210.707031 C 257.84375 214.78125 252.09375 220.546875 252.09375 220.546875 C 252.09375 220.546875 255.210938 224.140625 251.847656 228.214844 C 251.847656 228.214844 253.523438 231.335938 249.449219 234.210938 C 249.449219 234.210938 251.710938 239.441406 247.296875 242.601562 C 240.621094 247.386719 240.253906 240.164062 240.253906 240.164062 C 240.253906 240.164062 230.511719 243.078125 224.992188 244.523438 C 219.476562 245.96875 197.894531 267.792969 175.347656 277.863281 C 152.800781 287.929688 123.78125 254.835938 119.707031 248.597656 C 115.632812 242.359375 158.792969 216.457031 158.792969 216.457031 Z M 158.792969 216.457031 " fill-opacity="1" fill-rule="nonzero"/><path fill="#000000" d="M 166.3125 280.042969 C 156.914062 280.042969 147.445312 274.769531 140.429688 269.59375 C 129.816406 261.773438 121.585938 252.015625 119.460938 248.773438 C 119.148438 248.285156 119.066406 247.683594 119.214844 246.988281 C 121.082031 238.828125 157.117188 217.140625 158.644531 216.214844 C 158.753906 216.144531 158.890625 216.160156 159 216.242188 L 174.449219 229.320312 L 223.863281 210.21875 C 224.488281 209.523438 231.109375 202.371094 236.589844 198.949219 C 238.25 197.914062 240.527344 197.941406 243.371094 199.019531 C 249.148438 201.210938 256.03125 207.519531 256.941406 210.640625 C 258.074219 214.46875 253.496094 219.539062 252.488281 220.585938 C 253.101562 221.445312 255.035156 224.699219 252.203125 228.285156 C 252.488281 229.019531 253.265625 231.785156 249.816406 234.347656 C 250.199219 235.410156 251.507812 239.988281 247.472656 242.875 C 245.265625 244.457031 243.453125 244.933594 242.121094 244.292969 C 240.539062 243.53125 240.101562 241.445312 239.992188 240.585938 C 238.195312 241.117188 229.9375 243.570312 225.074219 244.851562 C 223.03125 245.382812 218.496094 248.980469 212.746094 253.515625 C 202.921875 261.28125 189.476562 271.910156 175.484375 278.164062 C 172.484375 279.46875 169.40625 280.042969 166.3125 280.042969 Z M 158.765625 216.824219 C 155.917969 218.542969 121.546875 239.484375 119.800781 247.113281 C 119.679688 247.65625 119.734375 248.082031 119.964844 248.433594 C 121.761719 251.1875 130.03125 261.171875 140.78125 269.101562 C 149.980469 275.886719 163.425781 282.847656 175.222656 277.589844 C 189.164062 271.363281 202.570312 260.765625 212.363281 253.011719 C 218.398438 248.242188 222.757812 244.796875 224.914062 244.238281 C 230.363281 242.820312 240.0625 239.90625 240.15625 239.878906 C 240.238281 239.851562 240.335938 239.863281 240.417969 239.917969 C 240.5 239.972656 240.539062 240.054688 240.539062 240.152344 C 240.539062 240.179688 240.703125 242.929688 242.363281 243.71875 C 243.496094 244.265625 245.089844 243.800781 247.121094 242.359375 C 251.289062 239.375 249.273438 234.539062 249.175781 234.320312 C 249.121094 234.183594 249.164062 234.035156 249.285156 233.953125 C 253.085938 231.269531 251.65625 228.460938 251.589844 228.339844 C 251.535156 228.230469 251.546875 228.105469 251.617188 228.011719 C 254.761719 224.183594 251.984375 220.859375 251.859375 220.722656 C 251.75 220.601562 251.765625 220.421875 251.875 220.3125 C 251.929688 220.257812 257.488281 214.632812 256.355469 210.777344 C 255.582031 208.148438 249.082031 201.8125 243.140625 199.550781 C 240.484375 198.542969 238.386719 198.5 236.886719 199.429688 C 231.234375 202.957031 224.3125 210.574219 224.246094 210.640625 C 224.21875 210.679688 224.175781 210.707031 224.136719 210.722656 L 174.488281 229.90625 C 174.394531 229.945312 174.269531 229.917969 174.1875 229.851562 Z M 158.765625 216.824219 " fill-opacity="1" fill-rule="nonzero"/><path fill="#523762" d="M 90.074219 155.964844 L 163.644531 214.167969 C 163.644531 214.167969 149.367188 233.9375 128.507812 252.058594 C 107.648438 270.179688 90.074219 155.964844 90.074219 155.964844 Z M 90.074219 155.964844 " fill-opacity="1" fill-rule="nonzero"/><path fill="#ffffff" d="M 252.105469 220.546875 C 252.105469 220.546875 250.171875 222.738281 247.964844 223.433594 C 244.722656 224.46875 243.320312 219.6875 243.320312 219.6875 C 243.320312 219.6875 243.101562 219.058594 243.660156 217.792969 C 244.21875 216.527344 246.097656 212.847656 246.097656 212.847656 Z M 252.105469 220.546875 " fill-opacity="1" fill-rule="nonzero"/><path fill="#000000" d="M 240.375 240.464844 C 240.28125 240.464844 240.238281 240.464844 240.226562 240.464844 C 239.164062 240.394531 237.09375 239.703125 236.941406 237.535156 C 236.804688 235.695312 238.019531 234.167969 238.769531 233.40625 C 237.921875 233.339844 236.574219 233.09375 235.757812 232.195312 C 235.171875 231.554688 234.964844 230.722656 235.117188 229.6875 C 235.675781 225.925781 242.132812 222.386719 242.40625 222.234375 C 242.554688 222.152344 242.734375 222.207031 242.8125 222.359375 C 242.894531 222.507812 242.839844 222.683594 242.691406 222.765625 C 242.625 222.808594 236.234375 226.308594 235.703125 229.78125 C 235.578125 230.628906 235.742188 231.308594 236.191406 231.800781 C 237.242188 232.945312 239.488281 232.820312 239.503906 232.820312 C 239.625 232.808594 239.75 232.890625 239.804688 233.011719 C 239.84375 233.132812 239.816406 233.269531 239.707031 233.351562 C 239.679688 233.367188 237.363281 235.207031 237.527344 237.480469 C 237.691406 239.660156 240.15625 239.851562 240.265625 239.851562 C 240.308594 239.851562 242.773438 240.042969 246.535156 236.363281 C 246.65625 236.253906 246.847656 236.253906 246.957031 236.363281 C 247.066406 236.484375 247.066406 236.675781 246.957031 236.785156 C 243.453125 240.21875 241.003906 240.464844 240.375 240.464844 Z M 240.375 240.464844 " fill-opacity="1" fill-rule="nonzero"/><path fill="#000000" d="M 239.515625 233.421875 C 239.4375 233.421875 239.339844 233.378906 239.285156 233.3125 C 239.175781 233.1875 239.203125 233 239.328125 232.890625 L 244.175781 228.855469 C 244.300781 228.746094 244.488281 228.773438 244.597656 228.898438 C 244.707031 229.019531 244.679688 229.210938 244.558594 229.320312 L 239.707031 233.351562 C 239.652344 233.394531 239.585938 233.421875 239.515625 233.421875 Z M 239.515625 233.421875 " fill-opacity="1" fill-rule="nonzero"/><path fill="#523762" d="M 226.371094 188.515625 L 258.617188 255.847656 C 259.273438 257.207031 260.921875 257.792969 262.296875 257.140625 L 263.265625 256.675781 C 264.625 256.023438 265.210938 254.375 264.558594 253 L 232.308594 185.667969 C 231.65625 184.304688 230.007812 183.71875 228.632812 184.375 L 227.652344 184.835938 C 226.289062 185.503906 225.714844 187.152344 226.371094 188.515625 Z M 226.371094 188.515625 " fill-opacity="1" fill-rule="nonzero"/><path fill="#000000" d="M 228.425781 192.96875 C 228.316406 192.96875 228.222656 192.914062 228.167969 192.808594 C 228.085938 192.65625 228.140625 192.480469 228.289062 192.398438 L 233.917969 189.386719 C 234.066406 189.304688 234.246094 189.359375 234.328125 189.507812 C 234.410156 189.660156 234.355469 189.835938 234.203125 189.917969 L 228.578125 192.929688 C 228.523438 192.957031 228.480469 192.96875 228.425781 192.96875 Z M 228.425781 192.96875 " fill-opacity="1" fill-rule="nonzero"/><path fill="#ffffff" d="M 252.105469 220.546875 C 252.105469 220.546875 250.171875 222.738281 247.964844 223.433594 C 244.722656 224.46875 243.320312 219.6875 243.320312 219.6875 C 243.320312 219.6875 243.101562 219.058594 243.660156 217.792969 C 244.21875 216.527344 246.097656 212.847656 246.097656 212.847656 Z M 252.105469 220.546875 " fill-opacity="1" fill-rule="nonzero"/><path fill="#000000" d="M 247.066406 223.882812 C 246.589844 223.882812 246.125 223.761719 245.6875 223.527344 C 243.863281 222.5625 243.058594 219.890625 243.019531 219.769531 C 242.992188 219.714844 242.773438 219.007812 243.371094 217.65625 C 243.929688 216.390625 245.742188 212.847656 245.824219 212.699219 C 245.90625 212.546875 246.085938 212.492188 246.234375 212.5625 C 246.382812 212.644531 246.4375 212.820312 246.371094 212.96875 C 246.355469 213.011719 244.476562 216.648438 243.929688 217.902344 C 243.441406 219.019531 243.605469 219.578125 243.605469 219.59375 C 243.617188 219.632812 244.382812 222.140625 245.988281 222.996094 C 246.574219 223.3125 247.214844 223.351562 247.882812 223.148438 C 249.980469 222.480469 251.875 220.367188 251.886719 220.339844 C 251.996094 220.21875 252.1875 220.203125 252.308594 220.3125 C 252.433594 220.421875 252.445312 220.613281 252.335938 220.734375 C 252.257812 220.832031 250.320312 222.996094 248.058594 223.71875 C 247.71875 223.828125 247.390625 223.882812 247.066406 223.882812 Z M 247.066406 223.882812 " fill-opacity="1" fill-rule="nonzero"/><path fill="#ffffff" d="M 229.3125 233.964844 C 232.664062 227.972656 233.917969 217.65625 233.917969 217.65625 C 233.917969 217.65625 235.550781 218.609375 239.394531 220.285156 C 243.238281 221.960938 248.03125 220.53125 248.03125 216.445312 C 248.03125 212.355469 240.117188 206.851562 235.074219 206.851562 C 230.035156 206.851562 221.480469 216.90625 221.480469 216.90625 Z M 229.3125 233.964844 " fill-opacity="1" fill-rule="nonzero"/><path fill="#000000" d="M 229.3125 234.265625 C 229.257812 234.265625 229.21875 234.25 229.164062 234.222656 C 229.011719 234.140625 228.972656 233.964844 229.054688 233.816406 C 232.351562 227.945312 233.605469 217.726562 233.617188 217.628906 C 233.632812 217.535156 233.6875 217.4375 233.78125 217.398438 C 233.875 217.359375 233.972656 217.359375 234.066406 217.410156 C 234.082031 217.425781 235.742188 218.378906 239.503906 220.027344 C 241.683594 220.980469 244.273438 220.886719 245.933594 219.796875 C 247.105469 219.035156 247.71875 217.875 247.71875 216.457031 C 247.71875 212.726562 240.15625 207.167969 235.0625 207.167969 C 230.226562 207.167969 221.777344 217.015625 221.683594 217.125 C 221.574219 217.25 221.382812 217.261719 221.261719 217.152344 C 221.136719 217.042969 221.125 216.851562 221.234375 216.730469 C 221.585938 216.320312 229.953125 206.566406 235.0625 206.566406 C 240.101562 206.566406 248.320312 212.097656 248.320312 216.457031 C 248.320312 218.066406 247.582031 219.429688 246.261719 220.285156 C 244.410156 221.5 241.65625 221.609375 239.257812 220.558594 C 236.453125 219.332031 234.832031 218.5 234.148438 218.132812 C 233.863281 220.175781 232.527344 228.828125 229.570312 234.101562 C 229.515625 234.210938 229.40625 234.265625 229.3125 234.265625 Z M 229.3125 234.265625 " fill-opacity="1" fill-rule="nonzero"/><path fill="#ffffff" d="M 174.394531 229.648438 L 162.199219 235.394531 Z M 174.394531 229.648438 " fill-opacity="1" fill-rule="nonzero"/><path fill="#000000" d="M 162.1875 235.695312 C 162.078125 235.695312 161.96875 235.628906 161.914062 235.519531 C 161.84375 235.367188 161.914062 235.191406 162.0625 235.125 L 174.257812 229.375 C 174.40625 229.304688 174.585938 229.375 174.652344 229.523438 C 174.71875 229.671875 174.652344 229.851562 174.503906 229.917969 L 162.308594 235.667969 C 162.269531 235.695312 162.226562 235.695312 162.1875 235.695312 Z M 162.1875 235.695312 " fill-opacity="1" fill-rule="nonzero"/><path fill="#000000" d="M 231.601562 301.921875 C 230.59375 301.921875 229.679688 301.894531 228.917969 301.8125 C 228.753906 301.800781 228.632812 301.652344 228.644531 301.488281 C 228.660156 301.324219 228.808594 301.199219 228.972656 301.214844 C 233.824219 301.679688 244.449219 300.507812 250.417969 299.605469 C 250.582031 299.578125 250.730469 299.6875 250.757812 299.851562 C 250.785156 300.015625 250.675781 300.164062 250.511719 300.191406 C 245.457031 300.96875 237.050781 301.921875 231.601562 301.921875 Z M 231.601562 301.921875 " fill-opacity="1" fill-rule="nonzero"/><path fill="#000000" d="M 228.441406 308.640625 C 226.957031 308.640625 225.375 308.585938 223.714844 308.476562 C 223.550781 308.460938 223.425781 308.328125 223.441406 308.164062 C 223.453125 308 223.589844 307.875 223.753906 307.890625 C 233.535156 308.570312 240.5 306.894531 240.566406 306.882812 C 240.730469 306.839844 240.894531 306.9375 240.933594 307.101562 C 240.976562 307.265625 240.878906 307.425781 240.714844 307.46875 C 240.660156 307.453125 235.769531 308.640625 228.441406 308.640625 Z M 228.441406 308.640625 " fill-opacity="1" fill-rule="nonzero"/><path fill="#ffffff" d="M 79.296875 260.777344 C 79.296875 260.777344 94.488281 293.476562 120.222656 301.707031 C 145.960938 309.933594 190.6875 306.773438 190.6875 306.773438 C 190.6875 306.773438 206.640625 310.574219 221.179688 311.542969 C 235.402344 312.480469 238.742188 310.207031 240.648438 307.167969 C 240.648438 307.167969 248.769531 304.347656 250.363281 299.960938 C 252.433594 299.390625 264 298.722656 265.007812 293.285156 C 265.824219 288.832031 260.253906 288.925781 254.558594 289.347656 C 248.863281 289.769531 238.25 290.847656 233.398438 288.953125 C 233.398438 288.953125 257.351562 289.675781 261.289062 281.5 C 264.761719 274.265625 246.765625 278.191406 235.417969 277.875 C 230.703125 277.738281 225.074219 276.828125 224.027344 274.714844 C 222.976562 272.605469 231.191406 270.914062 232.039062 264.171875 C 232.882812 257.414062 228.742188 257.671875 222.40625 261.050781 C 216.070312 264.429688 204.855469 270.054688 201.261719 270.476562 C 197.675781 270.902344 147.636719 262.277344 147.636719 262.277344 L 124.011719 230.394531 Z M 79.296875 260.777344 " fill-opacity="1" fill-rule="nonzero"/><g clip-path="url(#0ffd8b6a31)"><path fill="#000000" d="M 227.050781 312.046875 C 225.320312 312.046875 223.359375 311.976562 221.152344 311.828125 C 207.132812 310.902344 191.613281 307.292969 190.660156 307.058594 C 189 307.167969 145.265625 310.015625 120.128906 301.976562 C 106.761719 297.699219 96.285156 286.757812 89.867188 278.324219 C 82.921875 269.199219 79.066406 260.96875 79.023438 260.886719 C 78.957031 260.75 79.011719 260.601562 79.132812 260.519531 L 123.859375 230.136719 C 123.996094 230.042969 124.175781 230.082031 124.269531 230.207031 L 147.828125 261.964844 C 150.550781 262.425781 197.8125 270.53125 201.246094 270.136719 C 204.488281 269.757812 214.597656 264.839844 222.28125 260.75 C 226.613281 258.449219 229.488281 257.847656 231.058594 258.9375 C 232.253906 259.769531 232.679688 261.488281 232.335938 264.183594 C 231.820312 268.324219 228.671875 270.574219 226.382812 272.207031 C 224.898438 273.269531 224 273.964844 224.285156 274.550781 C 225.226562 276.433594 230.550781 277.414062 235.417969 277.550781 C 238.578125 277.632812 242.296875 277.386719 245.878906 277.152344 C 253.46875 276.648438 260.023438 276.214844 261.644531 278.613281 C 262.160156 279.375 262.132812 280.382812 261.546875 281.609375 C 258.265625 288.433594 241.820312 289.199219 235.675781 289.253906 C 240.390625 290.136719 247.679688 289.566406 252.746094 289.171875 C 253.386719 289.117188 253.984375 289.074219 254.53125 289.035156 C 258.742188 288.722656 263.003906 288.570312 264.652344 290.425781 C 265.292969 291.144531 265.511719 292.128906 265.292969 293.328125 C 264.4375 298.011719 256.246094 299.292969 252.308594 299.90625 C 251.5625 300.027344 250.960938 300.125 250.582031 300.207031 C 248.917969 304.375 241.820312 307.058594 240.839844 307.398438 C 239.011719 310.234375 235.851562 312.046875 227.050781 312.046875 Z M 190.675781 306.460938 C 190.703125 306.460938 190.714844 306.460938 190.742188 306.472656 C 190.90625 306.515625 206.847656 310.273438 221.179688 311.226562 C 235.824219 312.195312 238.699219 309.675781 240.375 306.992188 C 240.417969 306.9375 240.472656 306.894531 240.527344 306.867188 C 240.605469 306.839844 248.523438 304.046875 250.050781 299.851562 C 250.074219 299.757812 250.15625 299.6875 250.253906 299.660156 C 250.632812 299.550781 251.328125 299.445312 252.203125 299.308594 C 256.003906 298.707031 263.90625 297.480469 264.679688 293.21875 C 264.871094 292.183594 264.707031 291.40625 264.191406 290.820312 C 262.71875 289.171875 258.441406 289.347656 254.558594 289.632812 C 254.011719 289.675781 253.414062 289.714844 252.773438 289.769531 C 246.777344 290.246094 237.707031 290.957031 233.265625 289.210938 C 233.128906 289.15625 233.046875 289.019531 233.074219 288.871094 C 233.101562 288.734375 233.222656 288.625 233.371094 288.625 C 233.605469 288.640625 257.175781 289.253906 260.988281 281.351562 C 261.480469 280.328125 261.535156 279.539062 261.140625 278.953125 C 259.707031 276.839844 252.691406 277.304688 245.90625 277.753906 C 242.308594 277.984375 238.578125 278.246094 235.375 278.148438 C 230.484375 278.011719 224.84375 277.074219 223.726562 274.824219 C 223.183594 273.734375 224.433594 272.847656 226.003906 271.71875 C 228.210938 270.136719 231.21875 267.984375 231.710938 264.101562 C 232.011719 261.675781 231.667969 260.109375 230.675781 259.429688 C 229.3125 258.503906 226.574219 259.117188 222.515625 261.28125 C 219.722656 262.765625 205.550781 270.234375 201.273438 270.738281 C 197.691406 271.160156 149.609375 262.890625 147.566406 262.535156 C 147.484375 262.523438 147.417969 262.480469 147.375 262.414062 L 123.914062 230.789062 L 79.636719 260.859375 C 80.304688 262.25 84.039062 269.742188 90.320312 277.957031 C 96.695312 286.324219 107.0625 297.167969 120.277344 301.390625 C 145.660156 309.511719 190.183594 306.472656 190.632812 306.445312 C 190.660156 306.460938 190.675781 306.460938 190.675781 306.460938 Z M 190.675781 306.460938 " fill-opacity="1" fill-rule="nonzero"/></g><path fill="#000000" d="M 231.601562 301.921875 C 230.59375 301.921875 229.679688 301.894531 228.917969 301.8125 C 228.753906 301.800781 228.632812 301.652344 228.644531 301.488281 C 228.660156 301.324219 228.808594 301.199219 228.972656 301.214844 C 233.824219 301.679688 244.449219 300.507812 250.417969 299.605469 C 250.582031 299.578125 250.730469 299.6875 250.757812 299.851562 C 250.785156 300.015625 250.675781 300.164062 250.511719 300.191406 C 245.457031 300.96875 237.050781 301.921875 231.601562 301.921875 Z M 231.601562 301.921875 " fill-opacity="1" fill-rule="nonzero"/><path fill="#000000" d="M 228.441406 308.640625 C 226.957031 308.640625 225.375 308.585938 223.714844 308.476562 C 223.550781 308.460938 223.425781 308.328125 223.441406 308.164062 C 223.453125 308 223.589844 307.875 223.753906 307.890625 C 233.535156 308.570312 240.5 306.894531 240.566406 306.882812 C 240.730469 306.839844 240.894531 306.9375 240.933594 307.101562 C 240.976562 307.265625 240.878906 307.425781 240.714844 307.46875 C 240.660156 307.453125 235.769531 308.640625 228.441406 308.640625 Z M 228.441406 308.640625 " fill-opacity="1" fill-rule="nonzero"/><g clip-path="url(#383b3cf8a4)"><path fill="#523762" d="M 120.890625 214.578125 C 109.992188 193.761719 105.304688 175.246094 93.722656 159.265625 L 93.371094 158.527344 C 93.371094 158.527344 93.316406 158.542969 93.21875 158.554688 C 90.5625 154.957031 87.8125 151.714844 84.949219 149.003906 C 62.621094 127.777344 34.433594 131.796875 17.960938 154.496094 C 13.492188 160.652344 7.0625 175.734375 0.0585938 194.457031 L 0.0585938 312.589844 L 67.933594 312.589844 L 79.964844 274.742188 C 81.722656 278.324219 82.757812 280.425781 82.757812 280.425781 L 133.277344 239.796875 Z M 120.890625 214.578125 " fill-opacity="1" fill-rule="nonzero"/></g><path fill="#000000" d="M 133.277344 240.097656 C 133.167969 240.097656 133.058594 240.027344 133.003906 239.933594 L 120.617188 214.714844 C 116.285156 206.445312 112.960938 198.597656 109.746094 190.996094 C 104.964844 179.714844 100.441406 169.046875 93.492188 159.441406 C 93.398438 159.304688 93.425781 159.113281 93.5625 159.019531 C 93.695312 158.921875 93.886719 158.949219 93.984375 159.085938 C 100.984375 168.761719 105.507812 179.441406 110.304688 190.761719 C 113.519531 198.339844 116.84375 206.1875 121.164062 214.441406 L 133.546875 239.660156 C 133.617188 239.808594 133.5625 239.988281 133.410156 240.054688 C 133.355469 240.082031 133.316406 240.097656 133.277344 240.097656 Z M 133.277344 240.097656 " fill-opacity="1" fill-rule="nonzero"/><path fill="#000000" d="M 79.964844 275.042969 C 79.855469 275.042969 79.730469 274.972656 79.691406 274.867188 C 79.433594 274.265625 53.53125 214.605469 51.011719 209.550781 C 48.558594 204.644531 42.171875 204.222656 42.117188 204.222656 C 41.953125 204.210938 41.828125 204.074219 41.828125 203.910156 C 41.84375 203.746094 41.980469 203.625 42.144531 203.625 C 42.414062 203.636719 48.941406 204.058594 51.542969 209.277344 C 54.078125 214.347656 79.976562 274.019531 80.238281 274.621094 C 80.304688 274.769531 80.238281 274.945312 80.085938 275.015625 C 80.046875 275.042969 80.003906 275.042969 79.964844 275.042969 Z M 79.964844 275.042969 " fill-opacity="1" fill-rule="nonzero"/><path fill="#523762" d="M 186.777344 194.058594 C 184.53125 194.058594 182.351562 193.390625 180.660156 192.042969 C 177.335938 189.402344 176.070312 184.359375 177.582031 179.808594 C 179.175781 174.984375 183.113281 171.824219 186.136719 170.011719 C 188.289062 168.71875 190.621094 167.738281 193.046875 167.058594 C 191.53125 165.613281 189.761719 164.34375 187.828125 163.351562 C 183.195312 160.96875 177.636719 159.929688 171.289062 160.257812 C 165.703125 160.542969 160.835938 161.839844 156.84375 164.101562 C 157.117188 164.25 157.375 164.398438 157.636719 164.550781 C 163.890625 168.296875 168.003906 175.054688 168.085938 181.769531 C 168.152344 186.714844 165.890625 191.105469 162.324219 192.929688 C 158.671875 194.796875 153.765625 193.925781 150.386719 190.804688 C 146.640625 187.34375 145.058594 181.402344 146.449219 176.035156 C 147.664062 171.335938 150.988281 167.03125 155.605469 164.128906 C 150.359375 161.578125 143.875 160.859375 137.484375 162.164062 C 131.339844 163.433594 125.183594 166.472656 119.1875 171.199219 C 119.050781 171.292969 118.875 171.28125 118.765625 171.144531 C 118.65625 171.007812 118.683594 170.832031 118.820312 170.722656 C 124.898438 165.925781 131.136719 162.847656 137.375 161.566406 C 144.023438 160.203125 150.796875 161.007812 156.21875 163.746094 C 160.347656 161.320312 165.414062 159.929688 171.246094 159.632812 C 177.703125 159.292969 183.371094 160.355469 188.097656 162.792969 C 190.199219 163.867188 192.105469 165.257812 193.726562 166.851562 C 198.890625 165.542969 204.421875 165.625 209.503906 167.207031 C 217.199219 169.605469 223.808594 175.410156 227.160156 182.753906 C 227.226562 182.902344 227.160156 183.078125 227.011719 183.148438 C 226.859375 183.214844 226.683594 183.148438 226.613281 182.996094 C 223.332031 175.816406 216.875 170.121094 209.324219 167.777344 C 204.460938 166.265625 199.175781 166.15625 194.214844 167.34375 C 196.546875 169.78125 198.234375 172.683594 199.011719 175.734375 C 200.523438 181.609375 198.480469 188.105469 194.066406 191.539062 C 191.914062 193.230469 189.296875 194.058594 186.777344 194.058594 Z M 193.535156 167.5625 C 191.042969 168.230469 188.644531 169.222656 186.4375 170.542969 C 183.507812 172.300781 179.679688 175.367188 178.140625 180.011719 C 176.710938 184.332031 177.894531 189.101562 181.027344 191.59375 C 184.40625 194.292969 189.84375 194.085938 193.671875 191.117188 C 197.910156 187.832031 199.855469 181.59375 198.414062 175.941406 C 197.636719 172.875 195.917969 169.972656 193.535156 167.5625 Z M 156.230469 164.46875 C 151.585938 167.289062 148.234375 171.554688 147.035156 176.210938 C 145.699219 181.375 147.214844 187.070312 150.796875 190.382812 C 153.996094 193.339844 158.628906 194.167969 162.050781 192.410156 C 166.136719 190.3125 167.539062 185.382812 167.484375 181.796875 C 167.390625 175.285156 163.414062 168.734375 157.324219 165.082031 C 156.96875 164.875 156.601562 164.671875 156.230469 164.46875 Z M 156.230469 164.46875 " fill-opacity="1" fill-rule="nonzero"/><path fill="#ffffff" d="M 174.40625 116.320312 C 174.40625 120.488281 177.785156 123.867188 181.953125 123.867188 C 182.269531 123.867188 182.566406 123.839844 182.867188 123.8125 C 183.617188 126.839844 184.816406 129.699219 186.382812 132.300781 C 186.136719 132.492188 185.90625 132.683594 185.6875 132.902344 C 182.746094 135.84375 182.746094 140.625 185.6875 143.582031 C 188.628906 146.523438 193.414062 146.523438 196.371094 143.582031 C 196.585938 143.363281 196.792969 143.132812 196.96875 142.886719 C 199.570312 144.453125 202.433594 145.652344 205.457031 146.402344 C 205.414062 146.703125 205.402344 147.003906 205.402344 147.316406 C 205.402344 151.484375 208.78125 154.863281 212.949219 154.863281 C 217.117188 154.863281 220.496094 151.484375 220.496094 147.316406 C 220.496094 147.003906 220.46875 146.703125 220.445312 146.402344 C 223.46875 145.652344 226.328125 144.453125 228.929688 142.886719 C 229.121094 143.132812 229.3125 143.363281 229.53125 143.582031 C 232.472656 146.523438 237.253906 146.523438 240.210938 143.582031 C 243.15625 140.640625 243.15625 135.855469 240.210938 132.902344 C 239.996094 132.683594 239.761719 132.480469 239.515625 132.300781 C 241.085938 129.699219 242.28125 126.839844 243.03125 123.8125 C 243.332031 123.855469 243.632812 123.867188 243.945312 123.867188 C 248.113281 123.867188 251.492188 120.488281 251.492188 116.320312 C 251.492188 112.152344 248.113281 108.773438 243.945312 108.773438 C 243.632812 108.773438 243.332031 108.800781 243.03125 108.828125 C 242.28125 105.800781 241.085938 102.941406 239.515625 100.339844 C 239.761719 100.148438 239.996094 99.957031 240.210938 99.738281 C 243.15625 96.796875 243.15625 92.015625 240.210938 89.058594 C 237.269531 86.117188 232.488281 86.117188 229.53125 89.058594 C 229.3125 89.277344 229.109375 89.507812 228.929688 89.753906 C 226.328125 88.1875 223.46875 86.988281 220.445312 86.238281 C 220.484375 85.9375 220.496094 85.636719 220.496094 85.324219 C 220.496094 81.15625 217.117188 77.777344 212.949219 77.777344 C 208.78125 77.777344 205.402344 81.15625 205.402344 85.324219 C 205.402344 85.636719 205.429688 85.9375 205.457031 86.238281 C 202.433594 86.988281 199.570312 88.1875 196.96875 89.753906 C 196.777344 89.507812 196.585938 89.277344 196.371094 89.058594 C 193.425781 86.117188 188.644531 86.117188 185.6875 89.058594 C 182.746094 92 182.746094 96.78125 185.6875 99.738281 C 185.90625 99.957031 186.136719 100.160156 186.382812 100.339844 C 184.816406 102.941406 183.617188 105.800781 182.867188 108.828125 C 182.566406 108.785156 182.269531 108.773438 181.953125 108.773438 C 177.800781 108.773438 174.40625 112.152344 174.40625 116.320312 Z M 198.945312 116.320312 C 198.945312 108.582031 205.226562 102.300781 212.964844 102.300781 C 220.703125 102.300781 226.984375 108.582031 226.984375 116.320312 C 226.984375 124.058594 220.703125 130.339844 212.964844 130.339844 C 205.226562 130.351562 198.945312 124.074219 198.945312 116.320312 Z M 198.945312 116.320312 " fill-opacity="1" fill-rule="nonzero"/><path fill="#000000" d="M 212.976562 155.175781 C 208.644531 155.175781 205.128906 151.660156 205.128906 147.328125 C 205.128906 147.109375 205.144531 146.878906 205.171875 146.632812 C 202.324219 145.898438 199.597656 144.78125 197.078125 143.28125 C 196.914062 143.472656 196.765625 143.636719 196.613281 143.800781 C 193.550781 146.867188 188.578125 146.867188 185.511719 143.800781 C 184.027344 142.316406 183.207031 140.339844 183.207031 138.253906 C 183.207031 136.15625 184.027344 134.179688 185.511719 132.710938 C 185.660156 132.558594 185.835938 132.410156 186.027344 132.246094 C 184.53125 129.726562 183.414062 127 182.675781 124.152344 C 182.433594 124.179688 182.199219 124.195312 181.980469 124.195312 C 177.648438 124.195312 174.132812 120.679688 174.132812 116.347656 C 174.132812 112.015625 177.648438 108.5 181.980469 108.5 C 182.199219 108.5 182.417969 108.511719 182.675781 108.539062 C 183.414062 105.691406 184.53125 102.96875 186.027344 100.449219 C 185.835938 100.285156 185.675781 100.132812 185.511719 99.984375 C 184.027344 98.5 183.207031 96.523438 183.207031 94.441406 C 183.207031 92.339844 184.027344 90.367188 185.511719 88.894531 C 188.578125 85.828125 193.550781 85.828125 196.613281 88.894531 C 196.765625 89.042969 196.914062 89.222656 197.078125 89.414062 C 199.597656 87.914062 202.324219 86.796875 205.171875 86.0625 C 205.144531 85.816406 205.128906 85.582031 205.128906 85.367188 C 205.128906 81.035156 208.644531 77.519531 212.976562 77.519531 C 217.308594 77.519531 220.824219 81.035156 220.824219 85.367188 C 220.824219 85.582031 220.8125 85.816406 220.785156 86.0625 C 223.632812 86.796875 226.355469 87.914062 228.875 89.414062 C 229.039062 89.222656 229.191406 89.058594 229.339844 88.894531 C 232.40625 85.828125 237.378906 85.828125 240.445312 88.894531 C 243.507812 91.960938 243.507812 96.933594 240.445312 100 C 240.292969 100.148438 240.117188 100.296875 239.925781 100.460938 C 241.425781 102.996094 242.542969 105.707031 243.277344 108.554688 C 243.523438 108.527344 243.753906 108.511719 243.972656 108.511719 C 248.304688 108.511719 251.820312 112.027344 251.820312 116.359375 C 251.820312 120.695312 248.304688 124.207031 243.972656 124.207031 C 243.753906 124.207031 243.523438 124.195312 243.277344 124.167969 C 242.542969 127.015625 241.425781 129.738281 239.925781 132.261719 C 240.117188 132.425781 240.28125 132.574219 240.445312 132.722656 C 243.507812 135.789062 243.507812 140.761719 240.445312 143.828125 C 237.378906 146.894531 232.40625 146.894531 229.339844 143.828125 C 229.191406 143.675781 229.039062 143.5 228.875 143.308594 C 226.355469 144.808594 223.632812 145.925781 220.785156 146.660156 C 220.8125 146.90625 220.824219 147.136719 220.824219 147.355469 C 220.824219 151.660156 217.296875 155.175781 212.976562 155.175781 Z M 196.996094 142.601562 C 197.050781 142.601562 197.105469 142.613281 197.144531 142.640625 C 199.761719 144.222656 202.582031 145.394531 205.550781 146.128906 C 205.703125 146.171875 205.796875 146.308594 205.785156 146.457031 C 205.742188 146.785156 205.730469 147.070312 205.730469 147.34375 C 205.730469 151.335938 208.984375 154.589844 212.976562 154.589844 C 216.96875 154.589844 220.226562 151.335938 220.226562 147.34375 C 220.226562 147.070312 220.210938 146.785156 220.171875 146.457031 C 220.15625 146.308594 220.253906 146.171875 220.402344 146.128906 C 223.371094 145.394531 226.191406 144.222656 228.808594 142.640625 C 228.945312 142.558594 229.109375 142.601562 229.203125 142.710938 C 229.40625 142.96875 229.597656 143.1875 229.789062 143.378906 C 232.625 146.210938 237.214844 146.210938 240.046875 143.378906 C 242.882812 140.542969 242.882812 135.953125 240.046875 133.117188 C 239.859375 132.929688 239.640625 132.738281 239.382812 132.53125 C 239.257812 132.4375 239.230469 132.273438 239.3125 132.136719 C 240.894531 129.523438 242.066406 126.703125 242.800781 123.730469 C 242.839844 123.582031 242.976562 123.488281 243.128906 123.5 C 243.453125 123.542969 243.742188 123.554688 244.011719 123.554688 C 248.003906 123.554688 251.261719 120.296875 251.261719 116.304688 C 251.261719 112.316406 248.003906 109.058594 244.011719 109.058594 C 243.742188 109.058594 243.46875 109.070312 243.128906 109.113281 C 242.976562 109.125 242.839844 109.03125 242.800781 108.882812 C 242.066406 105.910156 240.894531 103.089844 239.3125 100.476562 C 239.230469 100.339844 239.273438 100.175781 239.382812 100.082031 C 239.640625 99.875 239.859375 99.683594 240.046875 99.496094 C 242.882812 96.660156 242.882812 92.070312 240.046875 89.234375 C 237.214844 86.402344 232.625 86.414062 229.789062 89.234375 C 229.597656 89.425781 229.40625 89.644531 229.203125 89.902344 C 229.109375 90.027344 228.945312 90.050781 228.808594 89.972656 C 226.191406 88.390625 223.371094 87.21875 220.402344 86.484375 C 220.253906 86.441406 220.15625 86.304688 220.171875 86.15625 C 220.210938 85.828125 220.226562 85.542969 220.226562 85.269531 C 220.226562 81.277344 216.96875 78.023438 212.976562 78.023438 C 208.984375 78.023438 205.730469 81.277344 205.730469 85.269531 C 205.730469 85.542969 205.742188 85.828125 205.785156 86.15625 C 205.796875 86.304688 205.703125 86.441406 205.550781 86.484375 C 202.582031 87.21875 199.761719 88.390625 197.144531 89.972656 C 197.023438 90.050781 196.847656 90.011719 196.75 89.902344 C 196.546875 89.644531 196.355469 89.425781 196.164062 89.234375 C 193.332031 86.402344 188.738281 86.414062 185.90625 89.234375 C 184.53125 90.609375 183.78125 92.421875 183.78125 94.359375 C 183.78125 96.292969 184.53125 98.117188 185.90625 99.480469 C 186.097656 99.671875 186.316406 99.863281 186.574219 100.066406 C 186.695312 100.160156 186.722656 100.324219 186.640625 100.460938 C 185.0625 103.078125 183.890625 105.910156 183.152344 108.867188 C 183.113281 109.019531 182.976562 109.113281 182.828125 109.097656 C 182.5 109.058594 182.214844 109.042969 181.941406 109.042969 C 177.949219 109.042969 174.691406 112.300781 174.691406 116.292969 C 174.691406 120.285156 177.949219 123.542969 181.941406 123.542969 C 182.214844 123.542969 182.5 123.527344 182.828125 123.488281 C 182.976562 123.472656 183.113281 123.566406 183.152344 123.71875 C 183.890625 126.6875 185.0625 129.507812 186.640625 132.125 C 186.722656 132.261719 186.683594 132.425781 186.574219 132.519531 C 186.316406 132.722656 186.097656 132.914062 185.90625 133.105469 C 184.53125 134.480469 183.78125 136.292969 183.78125 138.226562 C 183.78125 140.164062 184.53125 141.988281 185.90625 143.351562 C 188.738281 146.171875 193.332031 146.183594 196.164062 143.351562 C 196.355469 143.160156 196.546875 142.941406 196.75 142.683594 C 196.820312 142.640625 196.902344 142.601562 196.996094 142.601562 Z M 212.976562 130.652344 C 205.074219 130.652344 198.660156 124.222656 198.660156 116.332031 C 198.660156 108.445312 205.074219 102 212.976562 102 C 220.878906 102 227.296875 108.433594 227.296875 116.320312 C 227.296875 124.207031 220.867188 130.652344 212.976562 130.652344 Z M 212.976562 102.601562 C 205.414062 102.601562 199.257812 108.757812 199.257812 116.320312 C 199.257812 123.882812 205.414062 130.039062 212.976562 130.039062 C 220.539062 130.039062 226.695312 123.882812 226.695312 116.320312 C 226.695312 108.757812 220.539062 102.601562 212.976562 102.601562 Z M 212.976562 102.601562 " fill-opacity="1" fill-rule="nonzero"/><path fill="#ffffff" d="M 248.058594 87.367188 C 248.058594 89.917969 250.117188 91.972656 252.664062 91.972656 C 252.855469 91.972656 253.046875 91.960938 253.222656 91.933594 C 253.6875 93.785156 254.410156 95.515625 255.363281 97.109375 C 255.210938 97.21875 255.074219 97.339844 254.941406 97.476562 C 253.140625 99.277344 253.140625 102.191406 254.941406 103.992188 C 256.738281 105.789062 259.652344 105.789062 261.453125 103.992188 C 261.589844 103.855469 261.710938 103.71875 261.820312 103.566406 C 263.414062 104.523438 265.144531 105.257812 266.996094 105.707031 C 266.96875 105.882812 266.957031 106.074219 266.957031 106.265625 C 266.957031 108.8125 269.015625 110.871094 271.5625 110.871094 C 274.109375 110.871094 276.167969 108.8125 276.167969 106.265625 C 276.167969 106.074219 276.152344 105.882812 276.125 105.707031 C 277.980469 105.242188 279.707031 104.523438 281.304688 103.566406 C 281.410156 103.71875 281.535156 103.855469 281.671875 103.992188 C 283.46875 105.789062 286.382812 105.789062 288.183594 103.992188 C 289.980469 102.191406 289.980469 99.277344 288.183594 97.476562 C 288.046875 97.339844 287.910156 97.21875 287.761719 97.109375 C 288.714844 95.515625 289.449219 93.785156 289.898438 91.933594 C 290.078125 91.960938 290.265625 91.972656 290.457031 91.972656 C 293.007812 91.972656 295.0625 89.917969 295.0625 87.367188 C 295.0625 84.820312 293.007812 82.765625 290.457031 82.765625 C 290.265625 82.765625 290.078125 82.777344 289.898438 82.804688 C 289.4375 80.953125 288.714844 79.222656 287.761719 77.628906 C 287.910156 77.519531 288.046875 77.394531 288.183594 77.257812 C 289.980469 75.460938 289.980469 72.546875 288.183594 70.746094 C 286.382812 68.949219 283.46875 68.949219 281.671875 70.746094 C 281.535156 70.882812 281.410156 71.019531 281.304688 71.167969 C 279.707031 70.214844 277.980469 69.480469 276.125 69.03125 C 276.152344 68.851562 276.167969 68.664062 276.167969 68.472656 C 276.167969 65.925781 274.109375 63.867188 271.5625 63.867188 C 269.015625 63.867188 266.957031 65.925781 266.957031 68.472656 C 266.957031 68.664062 266.96875 68.851562 266.996094 69.03125 C 265.144531 69.492188 263.414062 70.214844 261.820312 71.167969 C 261.710938 71.019531 261.589844 70.882812 261.453125 70.746094 C 259.652344 68.949219 256.738281 68.949219 254.941406 70.746094 C 253.140625 72.546875 253.140625 75.460938 254.941406 77.257812 C 255.074219 77.394531 255.210938 77.519531 255.363281 77.628906 C 254.410156 79.222656 253.671875 80.953125 253.222656 82.804688 C 253.046875 82.777344 252.855469 82.765625 252.664062 82.765625 C 250.117188 82.765625 248.058594 84.820312 248.058594 87.367188 Z M 263.019531 87.367188 C 263.019531 82.65625 266.847656 78.828125 271.5625 78.828125 C 276.277344 78.828125 280.105469 82.65625 280.105469 87.367188 C 280.105469 92.082031 276.277344 95.910156 271.5625 95.910156 C 266.847656 95.910156 263.019531 92.082031 263.019531 87.367188 Z M 263.019531 87.367188 " fill-opacity="1" fill-rule="nonzero"/><path fill="#000000" d="M 271.5625 111.171875 C 268.863281 111.171875 266.65625 108.976562 266.65625 106.265625 C 266.65625 106.15625 266.65625 106.046875 266.671875 105.9375 C 264.996094 105.503906 263.386719 104.835938 261.886719 103.964844 C 261.804688 104.058594 261.738281 104.125 261.65625 104.207031 C 260.730469 105.132812 259.503906 105.640625 258.195312 105.640625 C 256.886719 105.640625 255.660156 105.132812 254.734375 104.207031 C 252.828125 102.300781 252.828125 99.179688 254.734375 97.273438 C 254.816406 97.191406 254.886719 97.125 254.980469 97.042969 C 254.109375 95.542969 253.441406 93.9375 253.003906 92.261719 C 252.882812 92.273438 252.773438 92.273438 252.679688 92.273438 C 249.980469 92.273438 247.773438 90.078125 247.773438 87.367188 C 247.773438 84.671875 249.96875 82.464844 252.679688 82.464844 C 252.789062 82.464844 252.894531 82.464844 253.003906 82.476562 C 253.441406 80.800781 254.109375 79.195312 254.980469 77.695312 C 254.898438 77.613281 254.816406 77.546875 254.734375 77.464844 C 252.828125 75.554688 252.828125 72.4375 254.734375 70.527344 C 255.660156 69.601562 256.886719 69.097656 258.195312 69.097656 C 259.503906 69.097656 260.730469 69.601562 261.65625 70.527344 C 261.726562 70.597656 261.804688 70.679688 261.886719 70.773438 C 263.386719 69.902344 264.996094 69.234375 266.671875 68.800781 C 266.65625 68.675781 266.65625 68.566406 266.65625 68.472656 C 266.65625 65.773438 268.851562 63.566406 271.5625 63.566406 C 274.257812 63.566406 276.464844 65.761719 276.464844 68.472656 C 276.464844 68.582031 276.464844 68.691406 276.453125 68.800781 C 278.128906 69.234375 279.734375 69.902344 281.234375 70.773438 C 281.316406 70.691406 281.382812 70.609375 281.464844 70.527344 C 283.375 68.621094 286.492188 68.621094 288.402344 70.527344 C 290.308594 72.4375 290.308594 75.554688 288.402344 77.464844 C 288.320312 77.53125 288.25 77.613281 288.15625 77.695312 C 289.027344 79.195312 289.695312 80.800781 290.132812 82.476562 C 290.253906 82.464844 290.363281 82.464844 290.457031 82.464844 C 293.15625 82.464844 295.363281 84.65625 295.363281 87.367188 C 295.363281 90.066406 293.167969 92.273438 290.457031 92.273438 C 290.347656 92.273438 290.242188 92.273438 290.132812 92.261719 C 289.695312 93.9375 289.027344 95.542969 288.15625 97.042969 C 288.238281 97.125 288.320312 97.191406 288.402344 97.273438 C 290.308594 99.179688 290.308594 102.300781 288.402344 104.207031 C 286.492188 106.117188 283.375 106.117188 281.464844 104.207031 C 281.398438 104.140625 281.316406 104.058594 281.234375 103.964844 C 279.734375 104.835938 278.128906 105.503906 276.453125 105.9375 C 276.464844 106.0625 276.464844 106.171875 276.464844 106.265625 C 276.464844 108.964844 274.257812 111.171875 271.5625 111.171875 Z M 261.820312 103.269531 C 261.875 103.269531 261.929688 103.28125 261.96875 103.308594 C 263.550781 104.261719 265.265625 104.972656 267.066406 105.421875 C 267.214844 105.460938 267.3125 105.597656 267.296875 105.746094 C 267.269531 105.9375 267.257812 106.117188 267.257812 106.265625 C 267.257812 108.636719 269.191406 110.570312 271.5625 110.570312 C 273.933594 110.570312 275.867188 108.636719 275.867188 106.265625 C 275.867188 106.101562 275.851562 105.9375 275.824219 105.746094 C 275.8125 105.597656 275.90625 105.460938 276.058594 105.421875 C 277.855469 104.972656 279.574219 104.261719 281.152344 103.308594 C 281.289062 103.226562 281.453125 103.269531 281.546875 103.378906 C 281.671875 103.527344 281.78125 103.664062 281.886719 103.773438 C 283.5625 105.449219 286.289062 105.449219 287.980469 103.773438 C 289.65625 102.097656 289.65625 99.371094 287.980469 97.683594 C 287.871094 97.574219 287.734375 97.464844 287.582031 97.339844 C 287.460938 97.246094 287.433594 97.082031 287.515625 96.945312 C 288.46875 95.367188 289.175781 93.648438 289.628906 91.851562 C 289.667969 91.703125 289.804688 91.605469 289.953125 91.621094 C 290.144531 91.648438 290.320312 91.660156 290.472656 91.660156 C 292.84375 91.660156 294.777344 89.726562 294.777344 87.355469 C 294.777344 84.984375 292.84375 83.050781 290.472656 83.050781 C 290.308594 83.050781 290.144531 83.0625 289.953125 83.089844 C 289.804688 83.105469 289.667969 83.007812 289.628906 82.859375 C 289.175781 81.0625 288.46875 79.34375 287.515625 77.761719 C 287.433594 77.628906 287.472656 77.464844 287.582031 77.367188 C 287.734375 77.246094 287.871094 77.136719 287.980469 77.027344 C 289.65625 75.351562 289.65625 72.628906 287.980469 70.9375 C 286.304688 69.261719 283.578125 69.261719 281.886719 70.9375 C 281.78125 71.046875 281.671875 71.167969 281.546875 71.332031 C 281.453125 71.457031 281.289062 71.484375 281.152344 71.402344 C 279.574219 70.449219 277.855469 69.738281 276.058594 69.289062 C 275.90625 69.25 275.8125 69.113281 275.824219 68.960938 C 275.851562 68.773438 275.867188 68.59375 275.867188 68.445312 C 275.867188 66.074219 273.933594 64.140625 271.5625 64.140625 C 269.191406 64.140625 267.257812 66.074219 267.257812 68.445312 C 267.257812 68.609375 267.269531 68.773438 267.296875 68.960938 C 267.3125 69.113281 267.214844 69.25 267.066406 69.289062 C 265.265625 69.738281 263.550781 70.449219 261.96875 71.402344 C 261.832031 71.484375 261.671875 71.441406 261.574219 71.332031 C 261.453125 71.183594 261.34375 71.046875 261.234375 70.9375 C 260.417969 70.121094 259.339844 69.671875 258.195312 69.671875 C 257.050781 69.671875 255.960938 70.121094 255.15625 70.925781 C 253.480469 72.601562 253.480469 75.324219 255.15625 77.015625 C 255.265625 77.125 255.402344 77.230469 255.554688 77.355469 C 255.675781 77.449219 255.703125 77.613281 255.621094 77.75 C 254.667969 79.332031 253.957031 81.046875 253.507812 82.84375 C 253.46875 82.996094 253.332031 83.089844 253.183594 83.078125 C 252.992188 83.050781 252.816406 83.035156 252.664062 83.035156 C 250.292969 83.035156 248.359375 84.972656 248.359375 87.339844 C 248.359375 89.710938 250.292969 91.648438 252.664062 91.648438 C 252.828125 91.648438 252.992188 91.632812 253.183594 91.605469 C 253.332031 91.59375 253.46875 91.6875 253.507812 91.835938 C 253.957031 93.636719 254.667969 95.351562 255.621094 96.933594 C 255.703125 97.070312 255.660156 97.234375 255.554688 97.328125 C 255.402344 97.449219 255.265625 97.558594 255.15625 97.667969 C 253.480469 99.34375 253.480469 102.070312 255.15625 103.757812 C 255.976562 104.574219 257.050781 105.011719 258.195312 105.011719 C 259.339844 105.011719 260.429688 104.5625 261.234375 103.757812 C 261.34375 103.648438 261.453125 103.527344 261.574219 103.363281 C 261.644531 103.308594 261.738281 103.269531 261.820312 103.269531 Z M 271.5625 96.210938 C 266.683594 96.210938 262.71875 92.246094 262.71875 87.367188 C 262.71875 82.492188 266.683594 78.527344 271.5625 78.527344 C 276.4375 78.527344 280.402344 82.492188 280.402344 87.367188 C 280.402344 92.246094 276.4375 96.210938 271.5625 96.210938 Z M 271.5625 79.125 C 267.011719 79.125 263.320312 82.832031 263.320312 87.367188 C 263.320312 91.917969 267.023438 95.613281 271.5625 95.613281 C 276.113281 95.613281 279.804688 91.90625 279.804688 87.367188 C 279.804688 82.816406 276.113281 79.125 271.5625 79.125 Z M 271.5625 79.125 " fill-opacity="1" fill-rule="nonzero"/><path fill="#523762" d="M 341.304688 78.0625 L 307.964844 78.0625 C 307.800781 78.0625 307.664062 77.925781 307.664062 77.761719 C 307.664062 77.601562 307.800781 77.464844 307.964844 77.464844 L 341.304688 77.464844 C 341.46875 77.464844 341.605469 77.601562 341.605469 77.761719 C 341.605469 77.925781 341.46875 78.0625 341.304688 78.0625 Z M 341.304688 78.0625 " fill-opacity="1" fill-rule="nonzero"/><path fill="#523762" d="M 350.011719 87.519531 L 316.671875 87.519531 C 316.507812 87.519531 316.371094 87.382812 316.371094 87.21875 C 316.371094 87.054688 316.507812 86.917969 316.671875 86.917969 L 350.011719 86.917969 C 350.171875 86.917969 350.308594 87.054688 350.308594 87.21875 C 350.308594 87.382812 350.1875 87.519531 350.011719 87.519531 Z M 350.011719 87.519531 " fill-opacity="1" fill-rule="nonzero"/><path fill="#523762" d="M 358.730469 96.960938 L 325.390625 96.960938 C 325.226562 96.960938 325.089844 96.824219 325.089844 96.660156 C 325.089844 96.496094 325.226562 96.359375 325.390625 96.359375 L 358.730469 96.359375 C 358.894531 96.359375 359.027344 96.496094 359.027344 96.660156 C 359.027344 96.824219 358.894531 96.960938 358.730469 96.960938 Z M 358.730469 96.960938 " fill-opacity="1" fill-rule="nonzero"/><path fill="#000000" d="M 350.664062 192.96875 L 316.835938 192.96875 C 316.671875 192.96875 316.535156 192.832031 316.535156 192.671875 C 316.535156 192.507812 316.671875 192.371094 316.835938 192.371094 L 350.542969 192.371094 L 368.59375 174.320312 C 368.714844 174.195312 368.90625 174.195312 369.015625 174.320312 C 369.136719 174.441406 369.136719 174.632812 369.015625 174.742188 L 350.882812 192.875 C 350.8125 192.929688 350.746094 192.96875 350.664062 192.96875 Z M 350.664062 192.96875 " fill-opacity="1" fill-rule="nonzero"/><path fill="#000000" d="M 368.796875 199.835938 L 321.058594 199.835938 C 320.894531 199.835938 320.757812 199.699219 320.757812 199.535156 C 320.757812 199.375 320.894531 199.238281 321.058594 199.238281 L 368.796875 199.238281 C 368.960938 199.238281 369.097656 199.375 369.097656 199.535156 C 369.097656 199.699219 368.960938 199.835938 368.796875 199.835938 Z M 368.796875 199.835938 " fill-opacity="1" fill-rule="nonzero"/><path fill="#000000" d="M 360.171875 224.632812 C 360.089844 224.632812 360.023438 224.605469 359.957031 224.550781 L 342.585938 207.167969 L 325.296875 207.167969 C 325.132812 207.167969 324.996094 207.03125 324.996094 206.867188 C 324.996094 206.703125 325.132812 206.566406 325.296875 206.566406 L 342.722656 206.566406 C 342.800781 206.566406 342.871094 206.59375 342.9375 206.648438 L 360.40625 224.113281 C 360.527344 224.238281 360.527344 224.429688 360.40625 224.539062 C 360.324219 224.605469 360.253906 224.632812 360.171875 224.632812 Z M 360.171875 224.632812 " fill-opacity="1" fill-rule="nonzero"/><path fill="#ffffff" d="M 369.820312 170.332031 C 370.097656 170.398438 370.367188 170.488281 370.625 170.609375 C 370.886719 170.726562 371.128906 170.871094 371.363281 171.035156 C 371.59375 171.203125 371.804688 171.390625 372 171.601562 C 372.195312 171.808594 372.367188 172.035156 372.519531 172.277344 C 372.667969 172.519531 372.792969 172.773438 372.890625 173.042969 C 372.992188 173.308594 373.066406 173.585938 373.109375 173.867188 C 373.15625 174.148438 373.175781 174.429688 373.164062 174.714844 C 373.152344 175 373.117188 175.28125 373.050781 175.558594 C 372.984375 175.839844 372.894531 176.105469 372.773438 176.367188 C 372.65625 176.625 372.511719 176.871094 372.347656 177.101562 C 372.179688 177.335938 371.992188 177.546875 371.78125 177.742188 C 371.574219 177.9375 371.347656 178.109375 371.105469 178.257812 C 370.863281 178.410156 370.605469 178.535156 370.339844 178.632812 C 370.074219 178.734375 369.796875 178.804688 369.515625 178.851562 C 369.234375 178.898438 368.953125 178.914062 368.667969 178.90625 C 368.382812 178.894531 368.097656 178.855469 367.820312 178.792969 C 367.542969 178.726562 367.273438 178.632812 367.015625 178.515625 C 366.757812 178.398438 366.511719 178.253906 366.277344 178.085938 C 366.046875 177.921875 365.835938 177.734375 365.640625 177.523438 C 365.445312 177.316406 365.273438 177.089844 365.125 176.847656 C 364.972656 176.605469 364.847656 176.347656 364.75 176.082031 C 364.648438 175.8125 364.578125 175.539062 364.53125 175.257812 C 364.484375 174.976562 364.46875 174.691406 364.476562 174.40625 C 364.488281 174.121094 364.523438 173.839844 364.589844 173.5625 C 364.65625 173.285156 364.75 173.015625 364.867188 172.757812 C 364.984375 172.496094 365.128906 172.25 365.296875 172.019531 C 365.460938 171.789062 365.648438 171.574219 365.859375 171.382812 C 366.066406 171.1875 366.292969 171.015625 366.535156 170.863281 C 366.777344 170.714844 367.035156 170.589844 367.300781 170.488281 C 367.570312 170.390625 367.84375 170.316406 368.125 170.273438 C 368.40625 170.226562 368.691406 170.207031 368.976562 170.21875 C 369.261719 170.226562 369.542969 170.265625 369.820312 170.332031 Z M 369.820312 170.332031 " fill-opacity="1" fill-rule="nonzero"/><path fill="#000000" d="M 368.796875 179.167969 C 366.234375 179.167969 364.152344 177.085938 364.152344 174.523438 C 364.152344 171.960938 366.234375 169.878906 368.796875 169.878906 C 371.359375 169.878906 373.445312 171.960938 373.445312 174.523438 C 373.445312 177.085938 371.359375 179.167969 368.796875 179.167969 Z M 368.796875 170.476562 C 366.5625 170.476562 364.75 172.289062 364.75 174.523438 C 364.75 176.757812 366.5625 178.570312 368.796875 178.570312 C 371.03125 178.570312 372.84375 176.757812 372.84375 174.523438 C 372.84375 172.289062 371.03125 170.476562 368.796875 170.476562 Z M 368.796875 170.476562 " fill-opacity="1" fill-rule="nonzero"/><path fill="#ffffff" d="M 371.871094 196.464844 C 372.074219 196.667969 372.253906 196.886719 372.414062 197.125 C 372.570312 197.359375 372.703125 197.609375 372.8125 197.875 C 372.921875 198.136719 373.003906 198.410156 373.0625 198.691406 C 373.117188 198.96875 373.144531 199.253906 373.144531 199.539062 C 373.144531 199.824219 373.117188 200.105469 373.0625 200.386719 C 373.003906 200.664062 372.921875 200.9375 372.8125 201.199219 C 372.703125 201.464844 372.570312 201.714844 372.414062 201.953125 C 372.253906 202.191406 372.074219 202.410156 371.871094 202.609375 C 371.671875 202.8125 371.449219 202.992188 371.214844 203.152344 C 370.976562 203.308594 370.726562 203.445312 370.460938 203.554688 C 370.199219 203.664062 369.925781 203.746094 369.644531 203.800781 C 369.367188 203.855469 369.082031 203.882812 368.796875 203.882812 C 368.511719 203.882812 368.230469 203.855469 367.949219 203.800781 C 367.671875 203.746094 367.398438 203.664062 367.136719 203.554688 C 366.871094 203.445312 366.621094 203.308594 366.382812 203.152344 C 366.148438 202.992188 365.925781 202.8125 365.726562 202.609375 C 365.523438 202.410156 365.34375 202.191406 365.183594 201.953125 C 365.027344 201.714844 364.890625 201.464844 364.785156 201.199219 C 364.675781 200.9375 364.589844 200.664062 364.535156 200.386719 C 364.480469 200.105469 364.453125 199.824219 364.453125 199.539062 C 364.453125 199.253906 364.480469 198.96875 364.535156 198.691406 C 364.589844 198.410156 364.675781 198.136719 364.78125 197.875 C 364.890625 197.609375 365.027344 197.359375 365.183594 197.125 C 365.34375 196.886719 365.523438 196.667969 365.726562 196.464844 C 365.925781 196.261719 366.148438 196.082031 366.382812 195.925781 C 366.621094 195.765625 366.871094 195.632812 367.136719 195.523438 C 367.398438 195.414062 367.671875 195.332031 367.949219 195.273438 C 368.230469 195.21875 368.511719 195.191406 368.796875 195.191406 C 369.082031 195.191406 369.367188 195.21875 369.644531 195.273438 C 369.925781 195.332031 370.199219 195.414062 370.460938 195.523438 C 370.726562 195.632812 370.976562 195.765625 371.214844 195.925781 C 371.449219 196.082031 371.667969 196.261719 371.871094 196.464844 Z M 371.871094 196.464844 " fill-opacity="1" fill-rule="nonzero"/><path fill="#000000" d="M 368.796875 204.167969 C 366.234375 204.167969 364.152344 202.085938 364.152344 199.523438 C 364.152344 196.960938 366.234375 194.878906 368.796875 194.878906 C 371.359375 194.878906 373.445312 196.960938 373.445312 199.523438 C 373.445312 202.097656 371.359375 204.167969 368.796875 204.167969 Z M 368.796875 195.492188 C 366.5625 195.492188 364.75 197.300781 364.75 199.535156 C 364.75 201.769531 366.5625 203.582031 368.796875 203.582031 C 371.03125 203.582031 372.84375 201.769531 372.84375 199.535156 C 372.84375 197.300781 371.03125 195.492188 368.796875 195.492188 Z M 368.796875 195.492188 " fill-opacity="1" fill-rule="nonzero"/><path fill="#ffffff" d="M 362.449219 220.804688 C 362.691406 220.957031 362.917969 221.128906 363.125 221.324219 C 363.335938 221.519531 363.523438 221.730469 363.691406 221.960938 C 363.855469 222.195312 364 222.4375 364.117188 222.699219 C 364.238281 222.957031 364.328125 223.226562 364.394531 223.503906 C 364.460938 223.78125 364.496094 224.0625 364.507812 224.347656 C 364.519531 224.632812 364.5 224.917969 364.453125 225.199219 C 364.410156 225.480469 364.335938 225.757812 364.234375 226.023438 C 364.136719 226.289062 364.011719 226.546875 363.863281 226.789062 C 363.710938 227.03125 363.539062 227.257812 363.34375 227.464844 C 363.148438 227.675781 362.9375 227.863281 362.707031 228.03125 C 362.472656 228.195312 362.230469 228.339844 361.96875 228.457031 C 361.710938 228.574219 361.441406 228.667969 361.164062 228.734375 C 360.886719 228.800781 360.605469 228.835938 360.320312 228.847656 C 360.035156 228.855469 359.75 228.839844 359.46875 228.792969 C 359.1875 228.75 358.914062 228.675781 358.644531 228.574219 C 358.378906 228.476562 358.121094 228.351562 357.878906 228.199219 C 357.636719 228.050781 357.410156 227.878906 357.203125 227.683594 C 356.992188 227.488281 356.804688 227.277344 356.640625 227.046875 C 356.472656 226.8125 356.328125 226.566406 356.210938 226.308594 C 356.09375 226.050781 356 225.78125 355.933594 225.503906 C 355.867188 225.226562 355.832031 224.945312 355.820312 224.660156 C 355.8125 224.371094 355.828125 224.089844 355.875 223.808594 C 355.921875 223.527344 355.992188 223.25 356.09375 222.984375 C 356.191406 222.71875 356.316406 222.460938 356.46875 222.21875 C 356.617188 221.976562 356.789062 221.75 356.984375 221.542969 C 357.179688 221.332031 357.390625 221.144531 357.621094 220.976562 C 357.855469 220.8125 358.101562 220.667969 358.359375 220.550781 C 358.621094 220.429688 358.886719 220.339844 359.164062 220.273438 C 359.441406 220.207031 359.726562 220.171875 360.011719 220.160156 C 360.296875 220.148438 360.578125 220.167969 360.859375 220.214844 C 361.140625 220.257812 361.417969 220.332031 361.683594 220.433594 C 361.953125 220.53125 362.207031 220.65625 362.449219 220.804688 Z M 362.449219 220.804688 " fill-opacity="1" fill-rule="nonzero"/><path fill="#000000" d="M 360.171875 229.183594 C 357.613281 229.183594 355.527344 227.097656 355.527344 224.539062 C 355.527344 221.976562 357.613281 219.890625 360.171875 219.890625 C 362.734375 219.890625 364.820312 221.976562 364.820312 224.539062 C 364.820312 227.097656 362.734375 229.183594 360.171875 229.183594 Z M 360.171875 220.492188 C 357.9375 220.492188 356.128906 222.304688 356.128906 224.539062 C 356.128906 226.773438 357.9375 228.582031 360.171875 228.582031 C 362.40625 228.582031 364.21875 226.773438 364.21875 224.539062 C 364.21875 222.304688 362.40625 220.492188 360.171875 220.492188 Z M 360.171875 220.492188 " fill-opacity="1" fill-rule="nonzero"/></svg>