<svg xmlns="http://www.w3.org/2000/svg" xmlns:xlink="http://www.w3.org/1999/xlink" width="500" zoomAndPan="magnify" viewBox="0 0 375 374.999991" height="500" preserveAspectRatio="xMidYMid meet" version="1.0"><defs><clipPath id="8eb78b16aa"><path d="M 124 24.140625 L 144 24.140625 L 144 60 L 124 60 Z M 124 24.140625 " clip-rule="nonzero"/></clipPath></defs><path fill="#000000" d="M 362.179688 303.953125 L 311.5 266.050781 L 25.941406 290.832031 L 9.734375 284.144531 L 8.621094 292.289062 L 69.761719 344.34375 L 373.582031 312.527344 L 374.785156 304.296875 Z M 362.179688 303.953125 " fill-opacity="1" fill-rule="nonzero"/><path fill="#523762" d="M 11.191406 284.574219 L 312.441406 258.417969 L 373.242188 303.867188 L 71.132812 335.507812 Z M 11.191406 284.574219 " fill-opacity="1" fill-rule="nonzero"/><path fill="#000000" d="M 312.269531 259.019531 L 371.699219 303.4375 L 71.390625 334.910156 L 12.734375 285 L 312.269531 259.019531 M 312.613281 257.816406 L 9.734375 284.144531 L 70.960938 336.195312 L 374.785156 304.296875 Z M 312.613281 257.816406 " fill-opacity="1" fill-rule="nonzero"/><path fill="#000000" d="M 259.789062 301.722656 L 241.351562 287.917969 L 151.484375 295.71875 L 135.535156 294.863281 L 134.675781 297.179688 L 156.199219 315.527344 L 263.21875 304.296875 L 264.164062 301.980469 Z M 259.789062 301.722656 " fill-opacity="1" fill-rule="nonzero"/><path fill="#ae9fcf" d="M 135.535156 294.863281 L 157.144531 313.128906 L 264.164062 301.980469 L 242.210938 285.601562 Z M 135.535156 294.863281 " fill-opacity="1" fill-rule="nonzero"/><path fill="#ae9fcf" d="M 148.738281 224.714844 C 132.359375 225.230469 115.808594 229.605469 101.316406 236.378906 C 80.222656 246.15625 56.554688 262.535156 32.457031 251.902344 C 0.902344 237.921875 32.03125 194.703125 27.484375 171.378906 C 24.054688 153.542969 14.535156 137.675781 8.789062 120.613281 C 0.214844 95.230469 5.703125 69.417969 31.601562 57.328125 C 46.78125 50.210938 64.359375 50.039062 80.910156 52.609375 C 110.492188 57.242188 138.363281 71.476562 168.121094 60.15625 C 188.441406 52.4375 212.109375 40.261719 230.546875 58.699219 C 249.929688 78.25 248.46875 112.292969 250.613281 137.675781 C 252.757812 160.488281 262.363281 181.839844 267.851562 203.792969 C 274.539062 230.546875 249.328125 252.5 223.601562 247.527344 C 212.796875 245.46875 202.933594 240.066406 193.074219 235.179688 C 179.097656 228.402344 164.605469 224.289062 148.738281 224.714844 Z M 148.738281 224.714844 " fill-opacity="1" fill-rule="nonzero"/><g clip-path="url(#8eb78b16aa)"><path fill="#ae9fcf" d="M 124.558594 42.75 L 142.136719 59.554688 C 142.652344 60.070312 143.507812 59.726562 143.507812 58.957031 L 143.507812 25.253906 C 143.507812 24.484375 142.652344 24.140625 142.136719 24.65625 L 124.558594 41.460938 C 124.214844 41.804688 124.214844 42.40625 124.558594 42.75 Z M 124.558594 42.75 " fill-opacity="1" fill-rule="nonzero"/></g><path fill="#ae9fcf" d="M 132.789062 44.894531 L 123.015625 50.980469 C 122.585938 51.238281 122.070312 50.980469 122.070312 50.464844 L 122.070312 33.832031 C 122.070312 33.316406 122.585938 33.058594 123.015625 33.316406 L 132.789062 39.574219 C 132.960938 39.660156 133.046875 39.917969 133.046875 40.089844 L 133.046875 44.378906 C 133.132812 44.550781 132.960938 44.808594 132.789062 44.894531 Z M 132.789062 44.894531 " fill-opacity="1" fill-rule="nonzero"/><path fill="#ae9fcf" d="M 148.3125 55.527344 C 147.882812 55.527344 147.539062 55.183594 147.539062 54.753906 C 147.539062 54.324219 147.882812 53.984375 148.3125 53.984375 C 154.914062 53.984375 160.230469 48.664062 160.230469 42.0625 C 160.230469 35.460938 154.914062 30.144531 148.3125 30.144531 C 147.882812 30.144531 147.539062 29.800781 147.539062 29.371094 C 147.539062 28.941406 147.882812 28.601562 148.3125 28.601562 C 155.6875 28.601562 161.6875 34.601562 161.6875 41.976562 C 161.773438 49.523438 155.769531 55.527344 148.3125 55.527344 Z M 148.3125 55.527344 " fill-opacity="1" fill-rule="nonzero"/><path fill="#ae9fcf" d="M 148.3125 51.839844 C 147.882812 51.839844 147.539062 51.496094 147.539062 51.066406 C 147.539062 50.636719 147.882812 50.296875 148.3125 50.296875 C 152.855469 50.296875 156.542969 46.609375 156.542969 42.0625 C 156.542969 37.519531 152.855469 33.832031 148.3125 33.832031 C 147.882812 33.832031 147.539062 33.488281 147.539062 33.058594 C 147.539062 32.628906 147.882812 32.289062 148.3125 32.289062 C 153.628906 32.289062 158 36.660156 158 41.976562 C 158 47.292969 153.714844 51.839844 148.3125 51.839844 Z M 148.3125 51.839844 " fill-opacity="1" fill-rule="nonzero"/><path fill="#ae9fcf" d="M 148.3125 48.410156 C 147.882812 48.410156 147.539062 48.066406 147.539062 47.636719 C 147.539062 47.207031 147.882812 46.863281 148.3125 46.863281 C 150.96875 46.863281 153.113281 44.722656 153.113281 42.0625 C 153.113281 39.40625 150.96875 37.261719 148.3125 37.261719 C 147.882812 37.261719 147.539062 36.917969 147.539062 36.488281 C 147.539062 36.058594 147.882812 35.71875 148.3125 35.71875 C 151.742188 35.71875 154.570312 38.546875 154.570312 41.976562 C 154.570312 45.578125 151.828125 48.410156 148.3125 48.410156 Z M 148.3125 48.410156 " fill-opacity="1" fill-rule="nonzero"/><path fill="#ae9fcf" d="M 69.332031 162.117188 L 65.988281 162.117188 C 65.386719 159.542969 64.445312 157.058594 63.074219 154.914062 L 65.558594 152.425781 C 66.417969 151.570312 66.417969 150.199219 65.558594 149.253906 L 60.242188 143.9375 C 59.386719 143.078125 58.011719 143.078125 57.070312 143.9375 L 54.753906 146.253906 C 52.609375 144.878906 50.125 143.851562 47.550781 143.164062 L 47.550781 139.734375 C 47.550781 138.535156 46.523438 137.507812 45.320312 137.507812 L 37.773438 137.507812 C 36.574219 137.507812 35.546875 138.535156 35.546875 139.734375 L 35.546875 143.078125 C 32.972656 143.679688 30.488281 144.625 28.34375 145.996094 L 25.941406 143.59375 C 25.082031 142.738281 23.710938 142.738281 22.769531 143.59375 L 17.453125 148.910156 C 16.59375 149.769531 16.59375 151.140625 17.453125 152.085938 L 19.765625 154.398438 C 18.394531 156.542969 17.367188 159.03125 16.679688 161.601562 L 13.25 161.601562 C 12.050781 161.601562 11.019531 162.632812 11.019531 163.832031 L 11.019531 171.378906 C 11.019531 172.578125 12.050781 173.609375 13.25 173.609375 L 16.59375 173.609375 C 17.195312 176.179688 18.136719 178.667969 19.511719 180.8125 L 17.023438 183.296875 C 16.164062 184.15625 16.164062 185.527344 17.023438 186.472656 L 22.339844 191.789062 C 23.199219 192.644531 24.570312 192.644531 25.511719 191.789062 L 27.828125 189.386719 C 29.972656 190.757812 32.457031 191.789062 35.03125 192.472656 L 35.03125 195.902344 C 35.03125 197.105469 36.058594 198.132812 37.261719 198.132812 L 44.808594 198.132812 C 46.007812 198.132812 47.035156 197.105469 47.035156 195.902344 L 47.035156 192.558594 C 49.609375 191.960938 52.097656 191.015625 54.238281 189.644531 L 56.726562 192.128906 C 57.585938 192.988281 58.957031 192.988281 59.898438 192.128906 L 65.214844 186.8125 C 66.074219 185.957031 66.074219 184.585938 65.214844 183.640625 L 62.902344 181.324219 C 64.273438 179.183594 65.300781 176.695312 65.988281 174.121094 L 69.417969 174.121094 C 70.617188 174.121094 71.648438 173.09375 71.648438 171.894531 L 71.648438 164.347656 C 71.5625 163.144531 70.53125 162.117188 69.332031 162.117188 Z M 41.292969 181.925781 C 33.488281 181.925781 27.226562 175.582031 27.226562 167.863281 C 27.226562 160.058594 33.574219 153.800781 41.292969 153.800781 C 49.09375 153.800781 55.355469 160.144531 55.355469 167.863281 C 55.355469 175.667969 49.007812 181.925781 41.292969 181.925781 Z M 41.292969 181.925781 " fill-opacity="1" fill-rule="nonzero"/><path fill="#000000" d="M 70.789062 160.574219 L 67.445312 160.574219 C 66.84375 158 65.902344 155.515625 64.53125 153.371094 L 67.015625 150.882812 C 67.875 150.027344 67.875 148.652344 67.015625 147.710938 L 61.699219 142.394531 C 60.84375 141.535156 59.472656 141.535156 58.527344 142.394531 L 56.125 144.796875 C 53.984375 143.421875 51.496094 142.394531 48.921875 141.707031 L 48.921875 138.277344 C 48.921875 137.078125 47.894531 136.046875 46.695312 136.046875 L 39.148438 136.046875 C 37.945312 136.046875 36.917969 137.078125 36.917969 138.277344 L 36.917969 141.621094 C 34.34375 142.222656 31.859375 143.164062 29.714844 144.539062 L 27.3125 142.136719 C 26.457031 141.277344 25.082031 141.277344 24.140625 142.136719 L 18.824219 147.453125 C 17.964844 148.3125 17.964844 149.683594 18.824219 150.625 L 21.140625 152.941406 C 19.765625 155.085938 18.738281 157.570312 18.050781 160.144531 L 14.621094 160.144531 C 13.421875 160.144531 12.390625 161.171875 12.390625 162.375 L 12.390625 169.921875 C 12.390625 171.121094 13.421875 172.148438 14.621094 172.148438 L 17.964844 172.148438 C 18.566406 174.722656 19.511719 177.210938 20.882812 179.351562 L 18.394531 181.839844 C 17.539062 182.699219 17.539062 184.070312 18.394531 185.011719 L 23.710938 190.328125 C 24.570312 191.1875 25.941406 191.1875 26.882812 190.328125 L 29.199219 188.015625 C 31.34375 189.386719 33.832031 190.414062 36.402344 191.101562 L 36.402344 194.53125 C 36.402344 195.730469 37.433594 196.761719 38.632812 196.761719 L 46.179688 196.761719 C 47.378906 196.761719 48.410156 195.730469 48.410156 194.53125 L 48.410156 191.101562 C 50.980469 190.5 53.46875 189.558594 55.613281 188.1875 L 58.097656 190.671875 C 58.957031 191.53125 60.328125 191.53125 61.273438 190.671875 L 66.589844 185.355469 C 67.445312 184.5 67.445312 183.125 66.589844 182.183594 L 64.273438 179.867188 C 65.644531 177.722656 66.675781 175.238281 67.359375 172.664062 L 70.789062 172.664062 C 71.992188 172.664062 73.019531 171.636719 73.019531 170.433594 L 73.019531 162.804688 C 72.933594 161.601562 71.992188 160.574219 70.789062 160.574219 Z M 42.664062 180.382812 C 34.859375 180.382812 28.601562 174.035156 28.601562 166.320312 C 28.601562 158.601562 34.945312 152.253906 42.664062 152.253906 C 50.464844 152.253906 56.726562 158.601562 56.726562 166.320312 C 56.726562 174.035156 50.464844 180.382812 42.664062 180.382812 Z M 42.664062 180.382812 " fill-opacity="1" fill-rule="nonzero"/><path fill="#000000" d="M 337.824219 118.039062 C 331.820312 99.433594 311.839844 89.226562 293.234375 95.316406 C 274.625 101.316406 264.421875 121.296875 270.507812 139.90625 C 276.511719 158.515625 296.492188 168.71875 315.101562 162.632812 C 333.621094 156.628906 343.828125 136.648438 337.824219 118.039062 Z M 304.125 97.117188 C 309.011719 97.117188 312.871094 101.0625 312.871094 105.863281 C 312.871094 110.75 308.925781 114.609375 304.125 114.609375 C 299.234375 114.609375 295.378906 110.664062 295.378906 105.863281 C 295.378906 100.976562 299.234375 97.117188 304.125 97.117188 Z M 273.765625 119.070312 C 275.226562 114.4375 280.199219 111.953125 284.828125 113.410156 C 289.460938 114.867188 291.945312 119.839844 290.488281 124.472656 C 289.03125 129.101562 284.058594 131.589844 279.425781 130.132812 C 274.796875 128.671875 272.308594 123.699219 273.765625 119.070312 Z M 297.605469 152.769531 C 294.777344 156.714844 289.289062 157.570312 285.34375 154.742188 C 281.398438 151.914062 280.542969 146.425781 283.371094 142.480469 C 286.203125 138.535156 291.691406 137.675781 295.632812 140.507812 C 299.578125 143.421875 300.523438 148.910156 297.605469 152.769531 Z M 322.816406 154.742188 C 318.875 157.570312 313.386719 156.714844 310.554688 152.769531 C 307.726562 148.824219 308.582031 143.335938 312.527344 140.507812 C 316.472656 137.675781 321.960938 138.535156 324.789062 142.480469 C 327.621094 146.425781 326.761719 151.914062 322.816406 154.742188 Z M 328.820312 130.132812 C 324.191406 131.589844 319.300781 129.101562 317.757812 124.472656 C 316.300781 119.839844 318.789062 114.953125 323.417969 113.410156 C 328.050781 111.953125 332.9375 114.4375 334.480469 119.070312 C 335.9375 123.699219 333.367188 128.671875 328.820312 130.132812 Z M 328.820312 130.132812 " fill-opacity="1" fill-rule="nonzero"/><path fill="#ae9fcf" d="M 335.679688 115.894531 C 329.679688 97.289062 309.699219 87.082031 291.089844 93.171875 C 272.480469 99.175781 262.277344 119.15625 268.363281 137.761719 C 274.367188 156.371094 294.347656 166.578125 312.957031 160.488281 C 331.566406 154.484375 341.683594 134.503906 335.679688 115.894531 Z M 301.980469 94.972656 C 306.867188 94.972656 310.726562 98.917969 310.726562 103.71875 C 310.726562 108.605469 306.78125 112.464844 301.980469 112.464844 C 297.179688 112.464844 293.234375 108.523438 293.234375 103.71875 C 293.234375 98.917969 297.179688 94.972656 301.980469 94.972656 Z M 271.710938 117.011719 C 273.167969 112.378906 278.140625 109.894531 282.773438 111.351562 C 287.402344 112.808594 289.890625 117.78125 288.429688 122.414062 C 286.972656 127.042969 282 129.53125 277.367188 128.074219 C 272.738281 126.53125 270.164062 121.554688 271.710938 117.011719 Z M 295.546875 150.710938 C 292.71875 154.65625 287.230469 155.515625 283.285156 152.683594 C 279.339844 149.855469 278.484375 144.367188 281.3125 140.421875 C 284.144531 136.476562 289.632812 135.621094 293.578125 138.449219 C 297.519531 141.277344 298.378906 146.765625 295.546875 150.710938 Z M 320.761719 152.597656 C 316.816406 155.429688 311.328125 154.570312 308.496094 150.625 C 305.667969 146.679688 306.523438 141.195312 310.46875 138.363281 C 314.414062 135.535156 319.902344 136.390625 322.730469 140.335938 C 325.5625 144.28125 324.617188 149.769531 320.761719 152.597656 Z M 326.675781 128.074219 C 322.046875 129.53125 317.160156 127.042969 315.613281 122.414062 C 314.15625 117.78125 316.644531 112.894531 321.273438 111.351562 C 325.90625 109.894531 330.792969 112.378906 332.335938 117.011719 C 333.792969 121.554688 331.308594 126.53125 326.675781 128.074219 Z M 326.675781 128.074219 " fill-opacity="1" fill-rule="nonzero"/><path fill="#000000" d="M 313.472656 126.871094 C 313.472656 127.628906 313.398438 128.375 313.25 129.113281 C 313.101562 129.855469 312.886719 130.574219 312.597656 131.269531 C 312.308594 131.96875 311.953125 132.628906 311.535156 133.257812 C 311.117188 133.882812 310.640625 134.464844 310.105469 134.996094 C 309.570312 135.53125 308.992188 136.007812 308.363281 136.425781 C 307.738281 136.847656 307.074219 137.199219 306.378906 137.488281 C 305.679688 137.777344 304.960938 137.996094 304.222656 138.144531 C 303.480469 138.289062 302.734375 138.363281 301.980469 138.363281 C 301.226562 138.363281 300.476562 138.289062 299.738281 138.144531 C 299 137.996094 298.28125 137.777344 297.582031 137.488281 C 296.886719 137.199219 296.222656 136.847656 295.597656 136.425781 C 294.96875 136.007812 294.386719 135.53125 293.855469 134.996094 C 293.320312 134.464844 292.84375 133.882812 292.425781 133.257812 C 292.007812 132.628906 291.652344 131.96875 291.363281 131.269531 C 291.074219 130.574219 290.855469 129.855469 290.710938 129.113281 C 290.5625 128.375 290.488281 127.628906 290.488281 126.871094 C 290.488281 126.117188 290.5625 125.371094 290.710938 124.632812 C 290.855469 123.890625 291.074219 123.171875 291.363281 122.476562 C 291.652344 121.777344 292.007812 121.117188 292.425781 120.488281 C 292.84375 119.859375 293.320312 119.28125 293.855469 118.746094 C 294.386719 118.214844 294.96875 117.738281 295.597656 117.316406 C 296.222656 116.898438 296.886719 116.546875 297.582031 116.257812 C 298.28125 115.96875 299 115.75 299.738281 115.601562 C 300.476562 115.457031 301.226562 115.382812 301.980469 115.382812 C 302.734375 115.382812 303.480469 115.457031 304.222656 115.601562 C 304.960938 115.75 305.679688 115.96875 306.378906 116.257812 C 307.074219 116.546875 307.738281 116.898438 308.363281 117.316406 C 308.992188 117.738281 309.570312 118.214844 310.105469 118.746094 C 310.640625 119.28125 311.117188 119.859375 311.535156 120.488281 C 311.953125 121.117188 312.308594 121.777344 312.597656 122.476562 C 312.886719 123.171875 313.101562 123.890625 313.25 124.632812 C 313.398438 125.371094 313.472656 126.117188 313.472656 126.871094 Z M 313.472656 126.871094 " fill-opacity="1" fill-rule="nonzero"/><path fill="#523762" d="M 310.726562 126.871094 C 310.726562 127.445312 310.671875 128.015625 310.558594 128.578125 C 310.445312 129.140625 310.28125 129.6875 310.0625 130.21875 C 309.839844 130.75 309.570312 131.253906 309.253906 131.730469 C 308.933594 132.210938 308.570312 132.652344 308.164062 133.058594 C 307.757812 133.464844 307.316406 133.828125 306.839844 134.144531 C 306.363281 134.464844 305.859375 134.734375 305.328125 134.953125 C 304.796875 135.171875 304.25 135.339844 303.6875 135.453125 C 303.125 135.5625 302.554688 135.621094 301.980469 135.621094 C 301.40625 135.621094 300.835938 135.5625 300.273438 135.453125 C 299.710938 135.339844 299.164062 135.171875 298.632812 134.953125 C 298.101562 134.734375 297.597656 134.464844 297.121094 134.144531 C 296.644531 133.828125 296.203125 133.464844 295.796875 133.058594 C 295.390625 132.652344 295.027344 132.210938 294.707031 131.730469 C 294.386719 131.253906 294.117188 130.75 293.898438 130.21875 C 293.679688 129.6875 293.511719 129.140625 293.402344 128.578125 C 293.289062 128.015625 293.234375 127.445312 293.234375 126.871094 C 293.234375 126.296875 293.289062 125.730469 293.402344 125.167969 C 293.511719 124.601562 293.679688 124.054688 293.898438 123.523438 C 294.117188 122.996094 294.386719 122.492188 294.707031 122.011719 C 295.027344 121.535156 295.390625 121.09375 295.796875 120.6875 C 296.203125 120.28125 296.644531 119.917969 297.121094 119.601562 C 297.597656 119.28125 298.101562 119.011719 298.632812 118.792969 C 299.164062 118.570312 299.710938 118.40625 300.273438 118.292969 C 300.835938 118.183594 301.40625 118.125 301.980469 118.125 C 302.554688 118.125 303.125 118.183594 303.6875 118.292969 C 304.25 118.40625 304.796875 118.570312 305.328125 118.792969 C 305.859375 119.011719 306.363281 119.28125 306.839844 119.601562 C 307.316406 119.917969 307.757812 120.28125 308.164062 120.6875 C 308.570312 121.09375 308.933594 121.535156 309.253906 122.011719 C 309.570312 122.492188 309.839844 122.996094 310.0625 123.523438 C 310.28125 124.054688 310.445312 124.601562 310.558594 125.167969 C 310.671875 125.730469 310.726562 126.296875 310.726562 126.871094 Z M 310.726562 126.871094 " fill-opacity="1" fill-rule="nonzero"/><path fill="#000000" d="M 152.425781 283.714844 L 193.847656 281.140625 L 205.9375 219.742188 L 164.519531 222.230469 Z M 152.425781 283.714844 " fill-opacity="1" fill-rule="nonzero"/><path fill="#000000" d="M 123.613281 289.203125 L 223.171875 283.113281 L 223.085938 281.398438 C 223 279.339844 221.199219 277.882812 219.230469 277.96875 L 127.042969 283.628906 C 124.984375 283.714844 123.527344 285.515625 123.613281 287.488281 Z M 123.613281 289.203125 " fill-opacity="1" fill-rule="nonzero"/><path fill="#000000" d="M 39.660156 109.550781 L 68.730469 253.871094 C 69.417969 257.21875 72.589844 259.875 75.933594 259.875 L 298.808594 246.925781 C 302.152344 246.925781 304.210938 244.269531 303.609375 240.925781 L 274.539062 110.578125 C 273.851562 107.234375 270.679688 104.578125 267.335938 104.578125 L 44.378906 103.460938 C 41.121094 103.546875 38.976562 106.207031 39.660156 109.550781 Z M 39.660156 109.550781 " fill-opacity="1" fill-rule="nonzero"/><path fill="#000000" d="M 39.660156 109.550781 L 67.1875 246.328125 L 302.066406 233.464844 L 274.539062 110.664062 C 273.851562 107.320312 270.679688 104.664062 267.335938 104.664062 L 44.378906 103.546875 C 41.121094 103.546875 38.976562 106.207031 39.660156 109.550781 Z M 39.660156 109.550781 " fill-opacity="1" fill-rule="nonzero"/><path fill="#ae9fcf" d="M 44.894531 104.320312 L 73.964844 248.640625 C 74.648438 251.984375 77.820312 254.644531 81.167969 254.644531 L 304.039062 241.695312 C 307.382812 241.695312 309.441406 239.039062 308.839844 235.691406 L 279.769531 105.347656 C 279.085938 102.003906 275.910156 99.347656 272.566406 99.347656 L 49.609375 98.230469 C 46.351562 98.316406 44.207031 101.0625 44.894531 104.320312 Z M 44.894531 104.320312 " fill-opacity="1" fill-rule="nonzero"/><path fill="#523762" d="M 44.894531 104.320312 L 72.417969 241.179688 L 307.296875 228.320312 L 279.769531 105.519531 C 279.085938 102.175781 275.910156 99.515625 272.566406 99.515625 L 49.609375 98.402344 C 46.351562 98.316406 44.207031 101.0625 44.894531 104.320312 Z M 44.894531 104.320312 " fill-opacity="1" fill-rule="nonzero"/><path fill="#230b41" d="M 50.636719 104.40625 L 76.878906 234.835938 L 300.265625 221.972656 L 273.9375 105.519531 Z M 50.636719 104.40625 " fill-opacity="1" fill-rule="nonzero"/><path stroke-linecap="butt" transform="matrix(0.857529, 0, 0, 0.857529, -24.481287, -26.710875)" fill-opacity="1" fill="#523762" fill-rule="nonzero" stroke-linejoin="miter" d="M 375.498273 277.901288 L 136.398424 290.901935 C 133.801938 291.00215 131.601759 289.298491 131.100683 286.702006 L 97.200607 115.798614 C 96.599315 112.600837 99.100141 109.498721 102.398132 109.598936 L 343.101426 115.798614 C 345.502036 115.898829 347.501785 117.597933 347.998306 119.898327 L 380.199278 271.601395 C 380.900785 274.799171 378.60039 277.700857 375.498273 277.901288 Z M 375.498273 277.901288 " stroke="#162667" stroke-width="1.477" stroke-opacity="1" stroke-miterlimit="10"/><path fill="#ae9fcf" d="M 297.433594 205.851562 L 92.398438 216.226562 L 84.683594 177.210938 L 290.058594 170.863281 Z M 297.433594 205.851562 " fill-opacity="1" fill-rule="nonzero"/><path fill="#000000" d="M 288.945312 165.71875 L 144.539062 169.664062 L 125.242188 74.304688 L 270.25 77.566406 Z M 288.945312 165.71875 " fill-opacity="1" fill-rule="nonzero"/><path fill="#523762" d="M 288.601562 178.152344 L 147.28125 183.039062 L 146.851562 181.324219 L 288.257812 176.523438 Z M 288.601562 178.152344 " fill-opacity="1" fill-rule="nonzero"/><path fill="#523762" d="M 245.554688 94.371094 L 154.398438 93.171875 L 165.03125 145.394531 L 256.015625 144.023438 Z M 242.210938 99.089844 L 243.324219 104.492188 L 237.578125 104.492188 L 236.464844 99.089844 Z M 230.375 99.003906 L 231.492188 104.492188 L 225.746094 104.40625 L 224.632812 98.917969 Z M 218.371094 98.832031 L 219.484375 104.320312 L 213.65625 104.234375 L 212.539062 98.746094 Z M 206.195312 98.746094 L 207.308594 104.234375 L 201.390625 104.148438 L 200.277344 98.574219 Z M 163.660156 103.976562 L 162.546875 98.316406 L 168.71875 98.402344 L 169.835938 104.0625 Z M 171.121094 140.25 L 169.921875 134.589844 L 176.09375 134.503906 L 177.296875 140.164062 Z M 176.4375 104.0625 L 175.324219 98.402344 L 181.410156 98.488281 L 182.527344 104.0625 Z M 183.8125 140.078125 L 182.613281 134.417969 L 187.671875 134.332031 L 188.785156 139.992188 Z M 188.957031 104.148438 L 187.84375 98.574219 L 193.84375 98.660156 L 194.960938 104.234375 Z M 196.332031 139.90625 L 195.21875 134.332031 L 201.21875 134.246094 L 202.335938 139.820312 Z M 208.253906 139.734375 L 207.136719 134.160156 L 213.054688 134.074219 L 214.167969 139.648438 Z M 220.429688 139.648438 L 219.3125 134.074219 L 225.144531 133.988281 L 226.261719 139.476562 Z M 232.003906 139.476562 L 230.890625 133.988281 L 236.636719 133.90625 L 237.75 139.390625 Z M 242.726562 133.90625 L 248.382812 133.820312 L 249.5 139.222656 L 243.839844 139.308594 Z M 242.726562 133.90625 " fill-opacity="1" fill-rule="nonzero"/><path fill="#ffffff" d="M 214.855469 118.726562 L 200.964844 112.125 C 200.535156 111.953125 200.019531 112.292969 200.105469 112.722656 L 202.851562 125.84375 C 202.933594 126.1875 203.363281 126.359375 203.707031 126.1875 L 214.941406 119.582031 C 215.199219 119.496094 215.199219 118.984375 214.855469 118.726562 Z M 214.855469 118.726562 " fill-opacity="1" fill-rule="nonzero"/><path fill="#000000" d="M 116.667969 81.9375 L 80.996094 81.253906 L 80.652344 79.28125 L 116.238281 80.050781 Z M 116.667969 81.9375 " fill-opacity="1" fill-rule="nonzero"/><path fill="#ffffff" d="M 118.039062 88.710938 L 82.367188 88.199219 L 82.023438 86.226562 L 117.613281 86.742188 Z M 118.039062 88.710938 " fill-opacity="1" fill-rule="nonzero"/><path fill="#000000" d="M 119.414062 95.488281 L 83.738281 95.058594 L 83.394531 93.085938 L 118.984375 93.515625 Z M 119.414062 95.488281 " fill-opacity="1" fill-rule="nonzero"/><path fill="#ffffff" d="M 76.792969 81.167969 L 72.847656 81.167969 L 72.503906 79.109375 L 76.363281 79.195312 Z M 76.792969 81.167969 " fill-opacity="1" fill-rule="nonzero"/><path fill="#ffffff" d="M 78.164062 88.113281 L 74.21875 88.027344 L 73.878906 86.054688 L 77.734375 86.140625 Z M 78.164062 88.113281 " fill-opacity="1" fill-rule="nonzero"/><path fill="#ffffff" d="M 79.535156 94.972656 L 75.59375 94.972656 L 75.25 93 L 79.109375 93 Z M 79.535156 94.972656 " fill-opacity="1" fill-rule="nonzero"/><path fill="#ffffff" d="M 125.15625 124.042969 L 89.570312 124.128906 L 89.140625 122.15625 L 124.730469 122.070312 Z M 125.15625 124.042969 " fill-opacity="1" fill-rule="nonzero"/><path fill="#ae9fcf" d="M 126.53125 130.816406 L 90.941406 131.074219 L 90.597656 129.101562 L 126.101562 128.84375 Z M 126.53125 130.816406 " fill-opacity="1" fill-rule="nonzero"/><path fill="#000000" d="M 127.902344 137.589844 L 92.3125 138.019531 L 91.972656 135.960938 L 127.472656 135.707031 Z M 127.902344 137.589844 " fill-opacity="1" fill-rule="nonzero"/><path fill="#ffffff" d="M 85.367188 124.128906 L 81.421875 124.128906 L 80.996094 122.15625 L 84.941406 122.15625 Z M 85.367188 124.128906 " fill-opacity="1" fill-rule="nonzero"/><path fill="#ffffff" d="M 86.742188 131.074219 L 82.796875 131.074219 L 82.453125 129.101562 L 86.3125 129.101562 Z M 86.742188 131.074219 " fill-opacity="1" fill-rule="nonzero"/><path fill="#ffffff" d="M 88.113281 138.019531 L 84.167969 138.105469 L 83.824219 136.046875 L 87.683594 136.046875 Z M 88.113281 138.019531 " fill-opacity="1" fill-rule="nonzero"/><path fill="#ffffff" d="M 107.921875 101.832031 L 85.109375 101.660156 L 84.683594 99.6875 L 107.492188 99.859375 Z M 107.921875 101.832031 " fill-opacity="1" fill-rule="nonzero"/><path fill="#ae9fcf" d="M 109.292969 108.691406 L 86.484375 108.523438 L 86.054688 106.550781 L 108.863281 106.722656 Z M 109.292969 108.691406 " fill-opacity="1" fill-rule="nonzero"/><path fill="#000000" d="M 110.664062 115.46875 L 87.855469 115.46875 L 87.425781 113.496094 L 110.238281 113.496094 Z M 110.664062 115.46875 " fill-opacity="1" fill-rule="nonzero"/><path fill="#000000" d="M 181.410156 194.53125 L 150.285156 195.816406 L 149.339844 191.273438 L 180.46875 190.074219 Z M 181.410156 194.53125 " fill-opacity="1" fill-rule="nonzero"/><path fill="#ffffff" d="M 210.054688 201.476562 L 179.953125 202.851562 L 179.011719 198.390625 L 209.195312 197.019531 Z M 210.054688 201.476562 " fill-opacity="1" fill-rule="nonzero"/><path fill="#ffffff" d="M 249.757812 187.929688 L 229.777344 188.871094 L 229.175781 185.871094 L 249.15625 185.011719 Z M 249.757812 187.929688 " fill-opacity="1" fill-rule="nonzero"/><path fill="#000000" d="M 225.746094 196.160156 L 208.9375 196.847656 L 208.082031 192.472656 L 224.800781 191.875 Z M 225.746094 196.160156 " fill-opacity="1" fill-rule="nonzero"/><path fill="#523762" d="M 271.710938 194.703125 L 255.671875 195.390625 L 255.160156 192.988281 L 271.195312 192.300781 Z M 271.710938 194.703125 " fill-opacity="1" fill-rule="nonzero"/><path fill="#000000" d="M 132.875 189.558594 L 99.945312 190.757812 L 99.515625 188.359375 L 132.445312 187.15625 Z M 132.875 189.558594 " fill-opacity="1" fill-rule="nonzero"/><path fill="#523762" d="M 97.203125 190.84375 L 94.714844 191.015625 L 94.199219 188.527344 L 96.6875 188.441406 Z M 97.203125 190.84375 " fill-opacity="1" fill-rule="nonzero"/><path fill="#523762" d="M 134.074219 195.21875 L 101.148438 196.589844 L 100.632812 194.1875 L 133.5625 192.902344 Z M 134.074219 195.21875 " fill-opacity="1" fill-rule="nonzero"/><path fill="#523762" d="M 98.316406 196.675781 L 95.914062 196.847656 L 95.402344 194.359375 L 97.800781 194.273438 Z M 98.316406 196.675781 " fill-opacity="1" fill-rule="nonzero"/><path fill="#000000" d="M 136.390625 206.707031 L 103.460938 208.253906 L 102.949219 205.765625 L 135.875 204.308594 Z M 136.390625 206.707031 " fill-opacity="1" fill-rule="nonzero"/><path fill="#523762" d="M 100.632812 208.339844 L 98.230469 208.507812 L 97.714844 206.023438 L 100.117188 205.9375 Z M 100.632812 208.339844 " fill-opacity="1" fill-rule="nonzero"/><path fill="#523762" d="M 131.761719 183.8125 L 98.832031 185.011719 L 98.316406 182.527344 L 131.246094 181.410156 Z M 131.761719 183.8125 " fill-opacity="1" fill-rule="nonzero"/><path fill="#523762" d="M 96 185.097656 L 93.601562 185.183594 L 93.085938 182.699219 L 95.488281 182.613281 Z M 96 185.097656 " fill-opacity="1" fill-rule="nonzero"/><path fill="#523762" d="M 135.191406 200.964844 L 102.261719 202.421875 L 101.832031 200.019531 L 134.761719 198.5625 Z M 135.191406 200.964844 " fill-opacity="1" fill-rule="nonzero"/><path fill="#523762" d="M 99.515625 202.507812 L 97.03125 202.679688 L 96.515625 200.191406 L 99.003906 200.105469 Z M 99.515625 202.507812 " fill-opacity="1" fill-rule="nonzero"/><path fill="#000000" d="M 140.679688 182.441406 C 140.851562 183.382812 140.164062 184.15625 139.136719 184.15625 C 138.105469 184.15625 137.164062 183.46875 136.90625 182.527344 C 136.734375 181.582031 137.421875 180.8125 138.449219 180.8125 C 139.5625 180.8125 140.507812 181.582031 140.679688 182.441406 Z M 140.679688 182.441406 " fill-opacity="1" fill-rule="nonzero"/><path fill="#000000" d="M 141.964844 188.613281 C 142.136719 189.558594 141.449219 190.328125 140.421875 190.328125 C 139.394531 190.328125 138.449219 189.644531 138.191406 188.699219 C 138.019531 187.757812 138.707031 186.984375 139.734375 186.984375 C 140.765625 186.898438 141.707031 187.671875 141.964844 188.613281 Z M 141.964844 188.613281 " fill-opacity="1" fill-rule="nonzero"/><path fill="#000000" d="M 143.164062 194.703125 C 143.335938 195.648438 142.652344 196.417969 141.621094 196.417969 C 140.59375 196.417969 139.648438 195.730469 139.390625 194.789062 C 139.222656 193.84375 139.90625 193.074219 140.9375 193.074219 C 141.964844 193.074219 142.996094 193.761719 143.164062 194.703125 Z M 143.164062 194.703125 " fill-opacity="1" fill-rule="nonzero"/><path fill="#000000" d="M 144.367188 200.792969 C 144.539062 201.734375 143.851562 202.507812 142.824219 202.59375 C 141.792969 202.679688 140.851562 201.90625 140.59375 200.964844 C 140.421875 200.019531 141.109375 199.25 142.136719 199.164062 C 143.25 199.164062 144.195312 199.847656 144.367188 200.792969 Z M 144.367188 200.792969 " fill-opacity="1" fill-rule="nonzero"/><path fill="#000000" d="M 145.652344 206.964844 C 145.824219 207.910156 145.136719 208.679688 144.109375 208.765625 C 143.078125 208.851562 142.136719 208.082031 141.878906 207.136719 C 141.707031 206.195312 142.394531 205.421875 143.421875 205.335938 C 144.453125 205.25 145.480469 206.023438 145.652344 206.964844 Z M 145.652344 206.964844 " fill-opacity="1" fill-rule="nonzero"/><path fill="#ffffff" d="M 292.804688 257.988281 L 265.277344 261.332031 L 265.019531 241.695312 C 265.019531 241.695312 252.070312 245.296875 250.785156 236.894531 C 249.5 228.488281 250.871094 224.375 250.871094 224.375 C 250.871094 224.375 247.613281 224.632812 246.496094 223.859375 C 245.640625 223.34375 249.585938 214.511719 251.816406 207.996094 C 252.671875 205.679688 253.273438 203.621094 253.359375 202.335938 C 253.359375 202.335938 259.105469 193.246094 269.136719 194.359375 C 272.222656 194.703125 275.824219 196.074219 279.683594 198.992188 C 296.0625 211.425781 290.402344 232.261719 289.632812 238.4375 C 288.601562 244.613281 292.804688 257.988281 292.804688 257.988281 Z M 292.804688 257.988281 " fill-opacity="1" fill-rule="nonzero"/><path fill="#000000" d="M 261.074219 257.132812 L 265.191406 250.101562 L 290.746094 247.699219 C 290.746094 247.699219 296.75 256.789062 295.546875 256.789062 C 294.433594 256.789062 261.074219 257.132812 261.074219 257.132812 Z M 261.074219 257.132812 " fill-opacity="1" fill-rule="nonzero"/><path fill="#000000" d="M 270.164062 219.230469 C 270.164062 219.230469 272.394531 208.253906 267.421875 206.28125 C 262.449219 204.222656 256.960938 205.421875 253.273438 202.335938 C 247.957031 197.875 248.640625 190.84375 250.101562 187.671875 C 252.070312 183.296875 256.617188 180.726562 261.246094 180.125 C 265.105469 179.609375 268.878906 180.640625 272.394531 182.097656 C 273.683594 182.613281 274.882812 183.382812 276.167969 183.984375 C 277.539062 184.585938 279 184.925781 280.371094 185.355469 C 287.660156 187.929688 296.0625 192.730469 296.578125 201.390625 C 297.09375 210.566406 296.148438 230.035156 289.117188 240.238281 C 289.117188 240.238281 285 242.296875 282.769531 235.523438 C 280.542969 228.746094 285.085938 214.425781 279.855469 211.769531 C 274.710938 209.023438 278.828125 224.546875 270.164062 219.230469 Z M 270.164062 219.230469 " fill-opacity="1" fill-rule="nonzero"/><path fill="#230b41" d="M 319.644531 350.515625 L 274.195312 350.6875 L 267.25 350.6875 L 235.949219 350.859375 C 242.554688 340.226562 242.554688 325.5625 241.011719 312.097656 C 241.011719 311.925781 240.925781 311.671875 240.925781 311.5 C 239.292969 297.949219 236.121094 285.601562 236.722656 279.855469 C 237.664062 270.59375 245.726562 263.992188 253.101562 259.875 C 256.359375 258.074219 259.445312 256.703125 261.761719 255.84375 C 263.390625 255.160156 264.675781 254.816406 265.191406 254.644531 C 265.363281 254.558594 265.449219 254.558594 265.449219 254.558594 L 291.347656 252.585938 L 291.433594 252.585938 C 292.460938 252.84375 293.492188 253.101562 294.433594 253.445312 C 311.242188 258.761719 318.703125 268.621094 322.132812 281.398438 C 322.648438 283.199219 323.074219 285.171875 323.332031 287.058594 C 325.046875 296.921875 325.046875 308.15625 325.390625 320.160156 C 325.648438 330.019531 323.160156 340.570312 319.644531 350.515625 Z M 319.644531 350.515625 " fill-opacity="1" fill-rule="nonzero"/><path fill="#ffffff" d="M 143.25 304.808594 C 142.910156 304.808594 128.074219 305.496094 124.042969 307.210938 C 120.011719 308.925781 116.324219 313.128906 117.867188 313.300781 C 119.414062 313.558594 127.730469 316.128906 132.1875 315.359375 C 136.648438 314.585938 140.335938 316.730469 140.59375 316.644531 C 140.851562 316.558594 143.59375 304.636719 143.59375 304.636719 Z M 143.25 304.808594 " fill-opacity="1" fill-rule="nonzero"/><path fill="#230b41" d="M 257.046875 258.503906 L 241.867188 311.15625 C 241.867188 311.15625 210.394531 325.820312 199.675781 328.5625 C 196.246094 329.421875 189.558594 329.078125 181.839844 328.136719 C 165.289062 326.078125 144.109375 321.015625 140.9375 318.789062 C 138.191406 316.730469 138.363281 311.839844 139.90625 307.984375 C 140.851562 305.410156 142.394531 303.351562 144.023438 302.835938 C 147.96875 301.636719 188.957031 304.980469 191.101562 304.636719 C 193.246094 304.296875 212.539062 289.03125 223.515625 277.710938 C 234.492188 266.476562 257.046875 258.503906 257.046875 258.503906 Z M 257.046875 258.503906 " fill-opacity="1" fill-rule="nonzero"/><path fill="#000000" d="M 344.855469 288.601562 C 344.855469 288.601562 342.113281 288.601562 342.113281 288.515625 C 342.113281 288.515625 341.082031 288.089844 340.054688 287.660156 L 326.335938 350.429688 L 319.644531 350.429688 L 274.195312 350.601562 L 267.25 350.601562 L 281.570312 284.742188 C 282 282.773438 283.800781 281.3125 285.773438 281.3125 L 335.9375 281.3125 C 337.140625 281.3125 338.253906 281.828125 339.027344 282.601562 L 344.683594 288.257812 C 344.683594 288.515625 344.769531 288.515625 344.855469 288.601562 Z M 344.855469 288.601562 " fill-opacity="1" fill-rule="nonzero"/><path fill="#230b41" d="M 345.886719 292.460938 L 333.28125 350.429688 L 319.644531 350.429688 L 274.195312 350.601562 L 287.316406 290.488281 C 287.746094 288.515625 289.546875 287.058594 291.519531 287.058594 L 341.683594 287.058594 C 342.882812 287.058594 343.914062 287.488281 344.683594 288.257812 C 344.769531 288.34375 344.855469 288.34375 344.855469 288.429688 C 345.714844 289.632812 346.230469 291.003906 345.886719 292.460938 Z M 345.886719 292.460938 " fill-opacity="1" fill-rule="nonzero"/></svg>