<svg xmlns="http://www.w3.org/2000/svg" xmlns:xlink="http://www.w3.org/1999/xlink" width="500" zoomAndPan="magnify" viewBox="0 0 375 374.999991" height="500" preserveAspectRatio="xMidYMid meet" version="1.0"><defs><clipPath id="7e6bc23af8"><path d="M 1 161 L 97 161 L 97 313.640625 L 1 313.640625 Z M 1 161 " clip-rule="nonzero"/></clipPath><clipPath id="27e6dd4e71"><path d="M 0 162 L 97 162 L 97 313.640625 L 0 313.640625 Z M 0 162 " clip-rule="nonzero"/></clipPath><clipPath id="d59a422260"><path d="M 158 280 L 261 280 L 261 313.640625 L 158 313.640625 Z M 158 280 " clip-rule="nonzero"/></clipPath><clipPath id="ad61512c57"><path d="M 158 279 L 261 279 L 261 313.640625 L 158 313.640625 Z M 158 279 " clip-rule="nonzero"/></clipPath></defs><path fill="#ffffff" d="M 87.085938 96.027344 L 207.8125 96.027344 L 207.8125 252.941406 L 87.085938 252.941406 Z M 87.085938 96.027344 " fill-opacity="1" fill-rule="nonzero"/><path fill="#000000" d="M 207.8125 253.238281 L 87.085938 253.238281 C 86.925781 253.238281 86.789062 253.105469 86.789062 252.941406 L 86.789062 96.027344 C 86.789062 95.867188 86.925781 95.730469 87.085938 95.730469 L 207.8125 95.730469 C 207.976562 95.730469 208.109375 95.867188 208.109375 96.027344 L 208.109375 252.941406 C 208.109375 253.105469 207.976562 253.238281 207.8125 253.238281 Z M 87.382812 252.644531 L 207.515625 252.644531 L 207.515625 96.328125 L 87.382812 96.328125 Z M 87.382812 252.644531 " fill-opacity="1" fill-rule="nonzero"/><path fill="#e2eaff" d="M 183.515625 128.605469 L 108.730469 128.605469 C 106.664062 128.605469 104.972656 126.925781 104.972656 124.84375 L 104.972656 119.378906 C 104.972656 117.308594 106.648438 115.617188 108.730469 115.617188 L 183.53125 115.617188 C 185.597656 115.617188 187.289062 117.296875 187.289062 119.378906 L 187.289062 124.84375 C 187.277344 126.925781 185.597656 128.605469 183.515625 128.605469 Z M 183.515625 128.605469 " fill-opacity="1" fill-rule="nonzero"/><path fill="#000000" d="M 187.277344 149.167969 L 106.5 149.167969 C 106.335938 149.167969 106.203125 149.03125 106.203125 148.871094 C 106.203125 148.707031 106.335938 148.574219 106.5 148.574219 L 187.277344 148.574219 C 187.4375 148.574219 187.574219 148.707031 187.574219 148.871094 C 187.574219 149.03125 187.4375 149.167969 187.277344 149.167969 Z M 187.277344 149.167969 " fill-opacity="1" fill-rule="nonzero"/><path fill="#000000" d="M 187.277344 161.003906 L 106.5 161.003906 C 106.335938 161.003906 106.203125 160.871094 106.203125 160.707031 C 106.203125 160.546875 106.335938 160.410156 106.5 160.410156 L 187.277344 160.410156 C 187.4375 160.410156 187.574219 160.546875 187.574219 160.707031 C 187.574219 160.871094 187.4375 161.003906 187.277344 161.003906 Z M 187.277344 161.003906 " fill-opacity="1" fill-rule="nonzero"/><path fill="#000000" d="M 187.277344 172.84375 L 106.5 172.84375 C 106.335938 172.84375 106.203125 172.707031 106.203125 172.542969 C 106.203125 172.382812 106.335938 172.246094 106.5 172.246094 L 187.277344 172.246094 C 187.4375 172.246094 187.574219 172.382812 187.574219 172.542969 C 187.574219 172.707031 187.4375 172.84375 187.277344 172.84375 Z M 187.277344 172.84375 " fill-opacity="1" fill-rule="nonzero"/><path fill="#000000" d="M 150.84375 184.679688 L 106.5 184.679688 C 106.335938 184.679688 106.203125 184.542969 106.203125 184.382812 C 106.203125 184.21875 106.335938 184.085938 106.5 184.085938 L 150.84375 184.085938 C 151.007812 184.085938 151.144531 184.21875 151.144531 184.382812 C 151.144531 184.542969 151.007812 184.679688 150.84375 184.679688 Z M 150.84375 184.679688 " fill-opacity="1" fill-rule="nonzero"/><path fill="#ffffff" d="M 64.46875 121.734375 L 67.796875 112.359375 C 67.796875 112.359375 66.292969 108.082031 68.917969 105.984375 C 71.542969 103.890625 75.816406 105.242188 75.816406 105.242188 C 75.816406 105.242188 79.226562 110.679688 80.027344 114.402344 C 80.605469 117.121094 79.347656 118.890625 73.871094 119.121094 L 72.816406 121.761719 L 64.46875 121.761719 Z M 64.46875 121.734375 " fill-opacity="1" fill-rule="nonzero"/><path fill="#000000" d="M 72.816406 122.03125 L 64.453125 122.03125 C 64.359375 122.03125 64.265625 121.988281 64.210938 121.910156 C 64.15625 121.828125 64.144531 121.734375 64.171875 121.636719 L 67.472656 112.359375 C 67.253906 111.667969 66.160156 107.796875 68.730469 105.757812 C 71.449219 103.578125 75.722656 104.890625 75.914062 104.957031 C 75.980469 104.984375 76.035156 105.027344 76.074219 105.078125 C 76.210938 105.308594 79.523438 110.613281 80.324219 114.332031 C 80.605469 115.660156 80.445312 116.6875 79.835938 117.472656 C 78.941406 118.621094 77.0625 119.242188 74.085938 119.390625 L 73.113281 121.839844 C 73.058594 121.960938 72.9375 122.03125 72.816406 122.03125 Z M 64.886719 121.433594 L 72.613281 121.433594 L 73.585938 118.988281 C 73.625 118.878906 73.734375 118.8125 73.855469 118.796875 C 76.765625 118.675781 78.550781 118.121094 79.347656 117.09375 C 79.847656 116.457031 79.972656 115.578125 79.726562 114.441406 C 79.011719 111.085938 76.074219 106.214844 75.628906 105.484375 C 74.964844 105.308594 71.355469 104.417969 69.109375 106.214844 C 66.671875 108.164062 68.066406 112.222656 68.078125 112.261719 C 68.105469 112.332031 68.105469 112.398438 68.078125 112.464844 Z M 64.886719 121.433594 " fill-opacity="1" fill-rule="nonzero"/><path fill="#000000" d="M 74.113281 118.796875 C 74.085938 118.796875 74.058594 118.796875 74.019531 118.785156 C 73.855469 118.730469 73.777344 118.566406 73.828125 118.40625 L 75.222656 114.023438 C 75.277344 113.859375 75.4375 113.777344 75.601562 113.832031 C 75.765625 113.886719 75.84375 114.046875 75.792969 114.210938 L 74.398438 118.59375 C 74.355469 118.714844 74.234375 118.796875 74.113281 118.796875 Z M 74.113281 118.796875 " fill-opacity="1" fill-rule="nonzero"/><path fill="#000000" d="M 76.820312 98.925781 C 74.613281 97.246094 69.230469 98.503906 66.496094 99.207031 C 63.765625 99.925781 61.464844 101.925781 60.421875 104.429688 C 59.382812 106.933594 59.597656 109.855469 60.9375 112.222656 C 61.316406 112.898438 61.84375 113.5625 62.613281 113.792969 C 62.65625 113.238281 62.695312 112.667969 62.738281 112.113281 C 62.75 111.882812 62.804688 111.601562 63.089844 111.558594 C 63.316406 111.53125 63.519531 111.695312 63.5625 111.898438 C 64.277344 115.007812 67.472656 115.402344 70.285156 115.292969 C 70.949219 115.265625 71.40625 114.628906 71.191406 114.035156 C 71.164062 113.96875 71.136719 113.886719 71.125 113.804688 C 70.800781 113.535156 70.527344 113.195312 70.285156 112.84375 C 69.796875 112.101562 69.488281 111.222656 69.40625 110.328125 C 69.339844 109.558594 69.488281 108.707031 70.070312 108.152344 C 70.582031 107.675781 71.328125 107.527344 71.988281 107.730469 C 72.207031 107.796875 72.410156 107.894531 72.597656 108.015625 C 74.804688 111.855469 74.152344 106.839844 75.101562 106.554688 C 75.96875 106.296875 77.035156 106.109375 77.078125 105.050781 C 77.089844 104.917969 80.660156 101.847656 76.820312 98.925781 Z M 76.820312 98.925781 " fill-opacity="1" fill-rule="nonzero"/><path fill="#000000" d="M 72.261719 114.699219 C 71.9375 114.699219 71.609375 114.617188 71.339844 114.441406 C 71.203125 114.359375 71.152344 114.171875 71.246094 114.035156 C 71.328125 113.898438 71.515625 113.847656 71.652344 113.941406 C 71.960938 114.128906 72.367188 114.15625 72.707031 114.023438 C 73.042969 113.886719 73.300781 113.5625 73.382812 113.210938 C 73.421875 113.046875 73.574219 112.9375 73.734375 112.980469 C 73.898438 113.019531 73.992188 113.167969 73.964844 113.332031 C 73.84375 113.871094 73.449219 114.347656 72.9375 114.5625 C 72.71875 114.65625 72.488281 114.699219 72.261719 114.699219 Z M 72.261719 114.699219 " fill-opacity="1" fill-rule="nonzero"/><path fill="#000000" d="M 73.261719 112.195312 C 73.152344 112.195312 73.058594 112.140625 73.003906 112.046875 C 72.71875 111.558594 72.289062 111.152344 71.785156 110.910156 C 71.636719 110.84375 71.570312 110.667969 71.652344 110.519531 C 71.71875 110.367188 71.910156 110.300781 72.042969 110.382812 C 72.652344 110.679688 73.179688 111.167969 73.519531 111.75 C 73.597656 111.882812 73.558594 112.074219 73.410156 112.15625 C 73.355469 112.183594 73.300781 112.195312 73.261719 112.195312 Z M 73.261719 112.195312 " fill-opacity="1" fill-rule="nonzero"/><path fill="#ffffff" d="M 109.339844 135.597656 C 109.339844 135.597656 119.621094 137.425781 125.332031 136.640625 C 125.332031 136.640625 128.957031 132.472656 130.6875 127.226562 C 132.421875 121.976562 127.96875 121.707031 127.96875 121.707031 C 127.96875 121.707031 127.035156 118.714844 123.855469 120.3125 C 123.855469 120.3125 123.355469 118.785156 121.070312 119.378906 C 118.785156 119.972656 113.859375 122.640625 113.695312 125.425781 C 113.695312 125.425781 111.871094 126.15625 111.234375 128.035156 C 110.910156 128.96875 109.339844 135.597656 109.339844 135.597656 Z M 109.339844 135.597656 " fill-opacity="1" fill-rule="nonzero"/><path fill="#000000" d="M 121.9375 137.140625 C 116.375 137.140625 109.636719 135.949219 109.285156 135.898438 C 109.207031 135.882812 109.136719 135.828125 109.082031 135.761719 C 109.042969 135.695312 109.03125 135.613281 109.042969 135.53125 C 109.109375 135.261719 110.613281 128.890625 110.9375 127.957031 C 111.492188 126.292969 112.898438 125.480469 113.398438 125.238281 C 113.777344 122.21875 118.933594 119.636719 120.976562 119.109375 C 122.84375 118.621094 123.667969 119.460938 123.964844 119.933594 C 124.953125 119.5 125.832031 119.445312 126.589844 119.757812 C 127.535156 120.164062 127.996094 121.042969 128.160156 121.433594 C 128.660156 121.503906 130 121.800781 130.78125 122.964844 C 131.5 124.019531 131.554688 125.492188 130.957031 127.320312 C 129.226562 132.570312 125.589844 136.804688 125.546875 136.84375 C 125.507812 136.898438 125.441406 136.9375 125.359375 136.9375 C 124.34375 137.074219 123.167969 137.140625 121.9375 137.140625 Z M 109.707031 135.355469 C 111.453125 135.652344 120.109375 137.019531 125.183594 136.355469 C 125.695312 135.734375 128.847656 131.851562 130.40625 127.117188 C 130.945312 125.464844 130.917969 124.179688 130.308594 123.289062 C 129.511719 122.113281 127.957031 122.003906 127.941406 122.003906 C 127.820312 121.988281 127.710938 121.910156 127.671875 121.800781 C 127.671875 121.785156 127.320312 120.703125 126.359375 120.296875 C 125.710938 120.027344 124.898438 120.109375 123.976562 120.582031 C 123.898438 120.625 123.816406 120.625 123.734375 120.597656 C 123.652344 120.570312 123.601562 120.5 123.574219 120.40625 C 123.558594 120.351562 123.113281 119.164062 121.136719 119.675781 C 118.796875 120.285156 114.144531 122.882812 113.980469 125.453125 C 113.96875 125.5625 113.898438 125.667969 113.792969 125.710938 C 113.777344 125.722656 112.085938 126.414062 111.503906 128.144531 C 111.234375 128.929688 110.015625 134.042969 109.707031 135.355469 Z M 109.707031 135.355469 " fill-opacity="1" fill-rule="nonzero"/><path fill="#000000" d="M 122.800781 124.804688 C 122.761719 124.804688 122.71875 124.789062 122.679688 124.777344 C 122.53125 124.707031 122.464844 124.53125 122.53125 124.382812 C 123.125 123.125 123.476562 121.773438 123.601562 120.394531 C 123.613281 120.230469 123.761719 120.109375 123.925781 120.121094 C 124.085938 120.136719 124.207031 120.285156 124.195312 120.449219 C 124.074219 121.910156 123.695312 123.316406 123.070312 124.640625 C 123.019531 124.734375 122.910156 124.804688 122.800781 124.804688 Z M 122.800781 124.804688 " fill-opacity="1" fill-rule="nonzero"/><path fill="#000000" d="M 126.859375 126.414062 C 126.820312 126.414062 126.777344 126.398438 126.738281 126.386719 C 126.589844 126.320312 126.523438 126.144531 126.589844 125.992188 L 126.617188 125.925781 C 126.617188 125.914062 126.628906 125.914062 126.628906 125.898438 C 127.238281 124.601562 127.605469 123.152344 127.699219 121.71875 C 127.710938 121.558594 127.847656 121.433594 128.011719 121.433594 C 128.171875 121.449219 128.292969 121.582031 128.28125 121.746094 C 128.171875 123.289062 127.765625 124.832031 127.117188 126.222656 C 127.089844 126.347656 126.980469 126.414062 126.859375 126.414062 Z M 126.859375 126.414062 " fill-opacity="1" fill-rule="nonzero"/><path fill="#000000" d="M 113.589844 127.183594 C 113.46875 127.183594 113.34375 127.101562 113.304688 126.980469 C 113.25 126.832031 113.332031 126.65625 113.480469 126.601562 C 115.359375 125.925781 116.957031 125.492188 119.109375 125.359375 C 119.269531 125.359375 119.417969 125.464844 119.417969 125.640625 C 119.433594 125.804688 119.3125 125.953125 119.136719 125.953125 C 117.066406 126.089844 115.511719 126.507812 113.671875 127.171875 C 113.65625 127.171875 113.628906 127.183594 113.589844 127.183594 Z M 113.589844 127.183594 " fill-opacity="1" fill-rule="nonzero"/><path fill="#000000" d="M 117.390625 125.222656 C 117.351562 125.222656 117.296875 125.210938 117.253906 125.195312 C 117.105469 125.128906 117.050781 124.9375 117.121094 124.804688 C 117.78125 123.464844 118.527344 122.152344 119.339844 120.90625 C 119.433594 120.773438 119.609375 120.730469 119.742188 120.828125 C 119.878906 120.921875 119.921875 121.097656 119.824219 121.230469 C 119.027344 122.464844 118.296875 123.75 117.648438 125.0625 C 117.605469 125.15625 117.5 125.222656 117.390625 125.222656 Z M 117.390625 125.222656 " fill-opacity="1" fill-rule="nonzero"/><path fill="#000000" d="M 107.148438 134.570312 C 106.867188 134.570312 106.59375 134.460938 106.390625 134.234375 C 106.011719 133.8125 106.039062 133.164062 106.460938 132.785156 L 115.929688 124.167969 C 116.347656 123.789062 116.996094 123.816406 117.375 124.234375 C 117.753906 124.65625 117.726562 125.304688 117.308594 125.683594 L 107.839844 134.300781 C 107.648438 134.476562 107.394531 134.570312 107.148438 134.570312 Z M 107.148438 134.570312 " fill-opacity="1" fill-rule="nonzero"/><path fill="#ffffff" d="M 47.503906 173.761719 L 37.304688 170.867188 C 37.304688 170.867188 40.402344 160.003906 42.835938 159.164062 L 51.628906 160.085938 Z M 47.503906 173.761719 " fill-opacity="1" fill-rule="nonzero"/><path fill="#000000" d="M 47.503906 174.058594 C 47.476562 174.058594 47.449219 174.058594 47.421875 174.046875 L 37.222656 171.152344 C 37.140625 171.125 37.085938 171.082031 37.046875 171.015625 C 37.003906 170.949219 36.992188 170.867188 37.019531 170.785156 C 37.34375 169.664062 40.226562 159.746094 42.742188 158.894531 C 42.78125 158.882812 42.824219 158.882812 42.863281 158.882812 L 51.65625 159.800781 C 51.75 159.816406 51.820312 159.855469 51.875 159.9375 C 51.925781 160.003906 51.941406 160.097656 51.914062 160.195312 L 47.773438 173.871094 C 47.746094 173.980469 47.625 174.058594 47.503906 174.058594 Z M 37.667969 170.664062 L 47.300781 173.398438 L 51.25 160.34375 L 42.878906 159.476562 C 41.050781 160.21875 38.589844 167.527344 37.667969 170.664062 Z M 37.667969 170.664062 " fill-opacity="1" fill-rule="nonzero"/><path fill="#523762" d="M 36.503906 172.542969 L 42.824219 159.179688 L 37.304688 153.226562 L 47.613281 143.214844 C 47.613281 143.214844 47.910156 149.640625 45.960938 155.175781 C 44.011719 160.707031 45.878906 165.484375 51.941406 166.835938 C 56.757812 167.90625 78.210938 167.269531 86.789062 166.972656 C 88.777344 166.902344 90.347656 165.265625 90.347656 163.277344 L 90.347656 160.261719 C 90.347656 160.261719 101.414062 173.046875 112.761719 171.625 C 124.128906 170.203125 125.695312 155.933594 125.316406 136.65625 C 125.316406 136.65625 114.78125 133.285156 109.328125 135.613281 L 107.839844 138.304688 L 98.4375 126.589844 C 94.769531 122.015625 89.089844 119.542969 83.246094 119.960938 C 73.910156 120.625 59.460938 121.734375 48.722656 122.894531 C 40.226562 123.800781 32.3125 127.605469 26.292969 133.664062 C 20.285156 139.710938 12.332031 148.140625 12.332031 153.429688 C 12.316406 168.621094 36.503906 172.542969 36.503906 172.542969 Z M 36.503906 172.542969 " fill-opacity="1" fill-rule="nonzero"/><path fill="#000000" d="M 90.550781 159.460938 C 90.386719 159.460938 90.253906 159.339844 90.253906 159.179688 C 90.089844 154.121094 91.011719 148.980469 92.917969 144.296875 C 92.984375 144.148438 93.148438 144.066406 93.308594 144.136719 C 93.457031 144.203125 93.539062 144.367188 93.472656 144.527344 C 91.605469 149.140625 90.699219 154.199219 90.863281 159.164062 C 90.847656 159.3125 90.726562 159.449219 90.550781 159.460938 Z M 90.550781 159.460938 " fill-opacity="1" fill-rule="nonzero"/><path fill="#000000" d="M 47.503906 143.1875 C 47.488281 143.1875 47.488281 143.1875 47.503906 143.1875 C 47.339844 143.1875 47.207031 143.054688 47.207031 142.890625 C 47.21875 141.320312 46.460938 139.738281 45.246094 138.75 C 45.121094 138.644531 45.09375 138.453125 45.203125 138.332031 C 45.3125 138.210938 45.5 138.183594 45.625 138.292969 C 47.003906 139.402344 47.816406 141.117188 47.800781 142.890625 C 47.789062 143.054688 47.667969 143.1875 47.503906 143.1875 Z M 47.503906 143.1875 " fill-opacity="1" fill-rule="nonzero"/><path fill="#000000" d="M 32.757812 157.636719 C 32.675781 157.636719 32.59375 157.609375 32.542969 157.542969 C 32.433594 157.421875 32.433594 157.230469 32.554688 157.121094 L 36.722656 153.1875 C 36.84375 153.078125 37.03125 153.078125 37.140625 153.199219 C 37.25 153.320312 37.25 153.511719 37.128906 153.617188 L 32.960938 157.554688 C 32.90625 157.609375 32.839844 157.636719 32.757812 157.636719 Z M 32.757812 157.636719 " fill-opacity="1" fill-rule="nonzero"/><path fill="#000000" d="M 118.484375 150.925781 C 118.40625 150.925781 118.324219 150.886719 118.257812 150.816406 C 116.875 149.25 107.703125 138.574219 107.609375 138.46875 C 107.5 138.34375 107.515625 138.15625 107.636719 138.046875 C 107.757812 137.941406 107.949219 137.953125 108.054688 138.074219 C 108.136719 138.167969 116.160156 147.503906 118.324219 150.007812 L 118.824219 148.207031 C 118.863281 148.046875 119.027344 147.949219 119.191406 148.003906 C 119.351562 148.046875 119.445312 148.207031 119.390625 148.371094 L 118.742188 150.710938 C 118.714844 150.816406 118.636719 150.898438 118.527344 150.925781 C 118.527344 150.925781 118.511719 150.925781 118.484375 150.925781 Z M 118.484375 150.925781 " fill-opacity="1" fill-rule="nonzero"/><g clip-path="url(#7e6bc23af8)"><path fill="#ffffff" d="M 39.496094 313.0625 L 18.1875 313.0625 C 13.195312 313.0625 8.3125 311.613281 4.132812 308.894531 C 1.628906 307.273438 0.480469 304.226562 1.265625 301.359375 C 7.3125 279.417969 32.785156 189.035156 48.722656 163.195312 C 48.722656 163.195312 69.5 164.359375 83.554688 161.679688 C 86.113281 161.195312 88.480469 163.167969 88.492188 165.765625 C 88.546875 190.050781 88.777344 290.226562 88.480469 303.023438 L 95.554688 309.4375 C 96.960938 310.707031 96.054688 313.0625 94.164062 313.0625 L 59.285156 313.0625 C 54.984375 313.0625 51.574219 309.394531 51.914062 305.09375 L 58.164062 219.21875 L 38.386719 301.792969 C 37.65625 304.808594 38.535156 307.988281 40.699219 310.195312 C 41.742188 311.261719 40.984375 313.0625 39.496094 313.0625 Z M 39.496094 313.0625 " fill-opacity="1" fill-rule="nonzero"/></g><g clip-path="url(#27e6dd4e71)"><path fill="#000000" d="M 94.164062 313.359375 L 59.285156 313.359375 C 57.148438 313.359375 55.09375 312.464844 53.644531 310.898438 C 52.199219 309.328125 51.453125 307.203125 51.617188 305.082031 L 57.609375 222.855469 L 38.667969 301.859375 C 37.953125 304.796875 38.792969 307.828125 40.914062 309.992188 C 41.484375 310.574219 41.644531 311.398438 41.335938 312.140625 C 41.023438 312.886719 40.320312 313.359375 39.507812 313.359375 L 18.1875 313.359375 C 13.128906 313.359375 8.203125 311.898438 3.96875 309.152344 C 1.34375 307.449219 0.140625 304.296875 0.980469 301.277344 C 8.148438 275.292969 32.757812 188.519531 48.492188 163.035156 C 48.574219 162.898438 48.761719 162.84375 48.898438 162.941406 C 49.03125 163.019531 49.085938 163.210938 48.992188 163.34375 C 32.90625 189.414062 6.648438 282.949219 1.546875 301.425781 C 0.789062 304.1875 1.886719 307.082031 4.292969 308.636719 C 8.449219 311.332031 13.25 312.75 18.203125 312.75 L 39.523438 312.75 C 40.199219 312.75 40.632812 312.316406 40.808594 311.898438 C 40.984375 311.492188 40.996094 310.871094 40.523438 310.382812 C 38.265625 308.082031 37.371094 304.835938 38.128906 301.699219 L 57.867188 219.148438 C 57.90625 219 58.042969 218.90625 58.203125 218.917969 C 58.351562 218.945312 58.460938 219.082031 58.460938 219.230469 L 52.210938 305.105469 C 52.0625 307.097656 52.726562 309.003906 54.078125 310.476562 C 55.429688 311.9375 57.285156 312.75 59.285156 312.75 L 94.164062 312.75 C 95.070312 312.75 95.609375 312.15625 95.828125 311.613281 C 96.042969 311.058594 96.027344 310.261719 95.367188 309.652344 L 88.292969 303.242188 C 88.222656 303.1875 88.195312 303.105469 88.195312 303.011719 C 88.492188 290.105469 88.265625 186.425781 88.210938 165.765625 C 88.210938 165.605469 88.34375 165.46875 88.507812 165.46875 C 88.671875 165.46875 88.804688 165.605469 88.804688 165.765625 C 88.859375 186.355469 89.089844 289.402344 88.792969 302.886719 L 95.773438 309.21875 C 96.515625 309.894531 96.761719 310.898438 96.394531 311.832031 C 96.015625 312.777344 95.164062 313.359375 94.164062 313.359375 Z M 94.164062 313.359375 " fill-opacity="1" fill-rule="nonzero"/></g><path fill="#000000" d="M 57.894531 218.390625 C 57.878906 218.390625 57.878906 218.390625 57.867188 218.390625 C 57.703125 218.378906 57.582031 218.230469 57.597656 218.066406 L 59.449219 193.582031 C 59.570312 191.984375 59.707031 190.171875 59.03125 188.617188 C 58.40625 187.210938 56.796875 185.992188 55.269531 186.480469 C 55.105469 186.53125 54.945312 186.4375 54.890625 186.289062 C 54.835938 186.125 54.929688 185.964844 55.078125 185.910156 C 56.933594 185.316406 58.855469 186.734375 59.570312 188.371094 C 60.316406 190.0625 60.167969 191.957031 60.042969 193.621094 L 58.191406 218.109375 C 58.175781 218.285156 58.042969 218.390625 57.894531 218.390625 Z M 57.894531 218.390625 " fill-opacity="1" fill-rule="nonzero"/><path fill="#000000" d="M 70.3125 304.511719 C 64.5625 304.511719 58.828125 304.132812 53.117188 303.375 C 52.957031 303.347656 52.832031 303.199219 52.859375 303.039062 C 52.886719 302.875 53.035156 302.753906 53.199219 302.78125 C 64.550781 304.28125 76.046875 304.28125 87.398438 302.78125 C 87.5625 302.753906 87.710938 302.875 87.738281 303.039062 C 87.761719 303.199219 87.640625 303.347656 87.480469 303.375 C 81.769531 304.132812 76.035156 304.511719 70.3125 304.511719 Z M 70.3125 304.511719 " fill-opacity="1" fill-rule="nonzero"/><path fill="#000000" d="M 36.816406 305.324219 C 36.816406 305.324219 36.804688 305.324219 36.804688 305.324219 C 25.277344 304.675781 13.871094 302.347656 2.902344 298.382812 C 2.753906 298.328125 2.671875 298.152344 2.726562 298.003906 C 2.78125 297.855469 2.957031 297.773438 3.105469 297.828125 C 14.019531 301.765625 25.371094 304.09375 36.828125 304.726562 C 36.992188 304.742188 37.113281 304.878906 37.113281 305.039062 C 37.113281 305.203125 36.980469 305.324219 36.816406 305.324219 Z M 36.816406 305.324219 " fill-opacity="1" fill-rule="nonzero"/><path fill="#000000" d="M 308.960938 107.460938 C 309.558594 103.863281 313.710938 101.820312 315.617188 98.640625 C 318.917969 93.132812 314.792969 85.84375 317.527344 80.078125 C 319.3125 76.304688 324.167969 74.03125 328.496094 74.9375 C 331.894531 75.65625 334.585938 77.984375 337.035156 80.28125 C 343.09375 86.003906 348.707031 92.160156 353.566406 98.789062 C 355.066406 100.832031 356.542969 103.035156 356.757812 105.5 C 356.960938 107.71875 356.109375 109.9375 354.730469 111.75 C 353.347656 113.5625 351.46875 114.996094 349.464844 116.226562 C 341.769531 120.933594 331.960938 122.558594 322.992188 120.625 C 318.917969 119.742188 314.65625 117.796875 312.871094 114.375 C 312.464844 114.117188 312.074219 113.847656 311.710938 113.546875 C 309.84375 112.046875 308.582031 109.734375 308.960938 107.460938 Z M 308.960938 107.460938 " fill-opacity="1" fill-rule="nonzero"/><path fill="#ffffff" d="M 302.863281 154.742188 L 296.015625 185.261719 L 314.671875 185.261719 L 320.136719 108.933594 L 313.386719 109.042969 C 310.300781 109.488281 307.460938 111.003906 305.351562 113.332031 C 298.371094 121.03125 284.882812 137.019531 284.882812 137.019531 C 284.882812 137.019531 270.785156 116.699219 269.796875 111.695312 C 268.8125 106.6875 266.117188 107.746094 265.875 109.839844 C 265.632812 111.9375 267.039062 116.511719 262.5625 118.511719 C 258.082031 120.5 251.15625 119.417969 247.464844 118.703125 C 243.769531 117.984375 242.945312 119.488281 242.945312 119.488281 C 241.78125 118.742188 240.496094 118.1875 238.722656 119.488281 C 236.953125 120.785156 239.292969 123.574219 239.292969 123.574219 C 238.0625 124.195312 239.292969 125.96875 239.292969 125.96875 C 244.039062 131.539062 259.058594 130.148438 259.058594 130.148438 C 261.425781 145.285156 267.757812 164.507812 278.238281 166.199219 C 288.710938 167.878906 302.863281 154.742188 302.863281 154.742188 Z M 302.863281 154.742188 " fill-opacity="1" fill-rule="nonzero"/><path fill="#000000" d="M 314.671875 185.558594 L 296.015625 185.558594 C 295.921875 185.558594 295.839844 185.519531 295.785156 185.449219 C 295.730469 185.382812 295.707031 185.289062 295.730469 185.195312 L 302.375 155.582031 C 299.371094 158.21875 287.492188 167.972656 278.1875 166.46875 C 273.328125 165.6875 269 161.261719 265.335938 153.320312 C 261.519531 145.054688 259.625 135.558594 258.800781 130.445312 C 256.648438 130.621094 243.539062 131.40625 239.050781 126.128906 C 238.953125 125.992188 238.25 124.953125 238.46875 124.085938 C 238.523438 123.84375 238.65625 123.640625 238.847656 123.476562 C 238.453125 122.9375 237.613281 121.652344 237.765625 120.515625 C 237.832031 119.988281 238.089844 119.554688 238.535156 119.214844 C 240.292969 117.929688 241.660156 118.335938 242.878906 119.066406 C 243.308594 118.621094 244.554688 117.808594 247.519531 118.390625 C 254.242188 119.691406 259.261719 119.636719 262.4375 118.214844 C 265.78125 116.726562 265.660156 113.804688 265.5625 111.453125 C 265.539062 110.800781 265.511719 110.246094 265.5625 109.789062 C 265.699219 108.664062 266.445312 107.8125 267.351562 107.785156 C 267.945312 107.757812 269.394531 108.097656 270.082031 111.628906 C 270.976562 116.171875 283.097656 133.90625 284.894531 136.519531 C 286.777344 134.285156 298.734375 120.164062 305.121094 113.117188 C 307.273438 110.746094 310.179688 109.191406 313.332031 108.730469 C 313.347656 108.730469 313.359375 108.730469 313.371094 108.730469 L 320.125 108.625 C 320.203125 108.625 320.285156 108.652344 320.339844 108.71875 C 320.394531 108.773438 320.421875 108.867188 320.421875 108.949219 L 314.957031 185.273438 C 314.957031 185.4375 314.832031 185.558594 314.671875 185.558594 Z M 296.394531 184.964844 L 314.402344 184.964844 L 319.8125 109.234375 L 313.398438 109.328125 C 310.398438 109.773438 307.609375 111.25 305.566406 113.507812 C 298.667969 121.109375 285.246094 137.03125 285.113281 137.195312 C 285.058594 137.261719 284.964844 137.304688 284.867188 137.304688 C 284.773438 137.304688 284.691406 137.25 284.640625 137.183594 C 284.058594 136.34375 270.488281 116.742188 269.5 111.734375 C 269.015625 109.21875 268.082031 108.367188 267.378906 108.378906 C 266.78125 108.40625 266.253906 109.042969 266.160156 109.867188 C 266.105469 110.289062 266.132812 110.828125 266.160156 111.4375 C 266.253906 113.695312 266.390625 117.121094 262.683594 118.769531 C 259.382812 120.246094 254.242188 120.3125 247.410156 118.988281 C 244.027344 118.324219 243.214844 119.609375 243.203125 119.621094 C 243.160156 119.691406 243.09375 119.742188 243.011719 119.757812 C 242.933594 119.769531 242.851562 119.769531 242.78125 119.71875 C 241.726562 119.039062 240.550781 118.484375 238.886719 119.703125 C 238.574219 119.933594 238.398438 120.21875 238.359375 120.582031 C 238.210938 121.785156 239.496094 123.34375 239.507812 123.355469 C 239.5625 123.421875 239.589844 123.519531 239.578125 123.613281 C 239.5625 123.707031 239.496094 123.777344 239.414062 123.816406 C 239.210938 123.910156 239.101562 124.058594 239.050781 124.234375 C 238.914062 124.75 239.347656 125.519531 239.523438 125.765625 C 244.09375 131.136719 258.867188 129.835938 259.015625 129.824219 C 259.179688 129.808594 259.3125 129.917969 259.339844 130.078125 C 261.777344 145.582031 268.1875 164.25 278.265625 165.890625 C 288.480469 167.539062 302.511719 154.648438 302.644531 154.523438 C 302.738281 154.429688 302.886719 154.417969 302.996094 154.484375 C 303.105469 154.550781 303.171875 154.675781 303.144531 154.808594 Z M 296.394531 184.964844 " fill-opacity="1" fill-rule="nonzero"/><path fill="#000000" d="M 265.199219 142.390625 C 264.15625 142.390625 263.117188 142.308594 262.085938 142.121094 C 261.925781 142.09375 261.816406 141.929688 261.84375 141.769531 C 261.871094 141.605469 262.035156 141.496094 262.183594 141.523438 C 269.269531 142.769531 277.035156 139.441406 281.082031 133.449219 C 281.175781 133.3125 281.351562 133.273438 281.5 133.367188 C 281.636719 133.460938 281.675781 133.636719 281.582031 133.785156 C 277.996094 139.101562 271.570312 142.390625 265.199219 142.390625 Z M 265.199219 142.390625 " fill-opacity="1" fill-rule="nonzero"/><path fill="#000000" d="M 290.847656 147.9375 C 290.742188 147.9375 290.644531 147.882812 290.589844 147.789062 L 284.746094 137.316406 C 284.667969 137.167969 284.71875 136.992188 284.855469 136.910156 C 285.003906 136.832031 285.179688 136.882812 285.261719 137.019531 L 291.105469 147.492188 C 291.1875 147.640625 291.132812 147.816406 290.996094 147.894531 C 290.941406 147.921875 290.902344 147.9375 290.847656 147.9375 Z M 290.847656 147.9375 " fill-opacity="1" fill-rule="nonzero"/><path fill="#000000" d="M 250.65625 126.644531 C 249.183594 126.644531 247.707031 126.496094 246.273438 126.195312 C 246.136719 126.171875 246.003906 126.144531 245.867188 126.101562 C 244.746094 125.859375 243.566406 125.601562 242.566406 126.007812 C 242.417969 126.0625 242.242188 125.996094 242.175781 125.84375 C 242.121094 125.695312 242.1875 125.519531 242.335938 125.453125 C 243.511719 124.992188 244.773438 125.261719 245.988281 125.519531 C 246.125 125.546875 246.257812 125.574219 246.394531 125.601562 C 249.359375 126.222656 252.496094 126.183594 255.445312 125.480469 C 255.609375 125.441406 255.769531 125.546875 255.796875 125.695312 C 255.835938 125.859375 255.730469 126.019531 255.582031 126.0625 C 253.96875 126.453125 252.320312 126.644531 250.65625 126.644531 Z M 250.65625 126.644531 " fill-opacity="1" fill-rule="nonzero"/><path fill="#000000" d="M 253.089844 121.734375 C 249.925781 121.734375 246.746094 121.300781 243.730469 120.449219 C 243.566406 120.40625 243.488281 120.246094 243.527344 120.082031 C 243.566406 119.921875 243.730469 119.824219 243.890625 119.878906 C 248.003906 121.042969 252.441406 121.421875 256.691406 120.949219 C 256.851562 120.933594 257 121.042969 257.015625 121.21875 C 257.027344 121.382812 256.917969 121.53125 256.742188 121.542969 C 255.539062 121.664062 254.324219 121.734375 253.089844 121.734375 Z M 253.089844 121.734375 " fill-opacity="1" fill-rule="nonzero"/><path fill="#000000" d="M 250.898438 124.574219 C 249.558594 124.574219 248.222656 124.4375 246.921875 124.167969 C 246.503906 124.085938 246.082031 123.976562 245.679688 123.882812 C 245 123.722656 244.296875 123.546875 243.609375 123.449219 C 242.335938 123.261719 241.28125 123.355469 240.402344 123.722656 C 240.253906 123.789062 240.078125 123.707031 240.007812 123.558594 C 239.941406 123.410156 240.023438 123.234375 240.171875 123.167969 C 241.144531 122.761719 242.308594 122.667969 243.6875 122.867188 C 244.40625 122.976562 245.125 123.152344 245.8125 123.316406 C 246.21875 123.410156 246.636719 123.519531 247.042969 123.601562 C 249.558594 124.128906 252.210938 124.128906 254.726562 123.601562 C 254.890625 123.574219 255.054688 123.667969 255.078125 123.828125 C 255.105469 123.992188 255.011719 124.15625 254.851562 124.179688 C 253.550781 124.4375 252.226562 124.574219 250.898438 124.574219 Z M 250.898438 124.574219 " fill-opacity="1" fill-rule="nonzero"/><path fill="#000000" d="M 303.402344 153.820312 C 303.375 153.820312 303.363281 153.820312 303.335938 153.808594 C 303.171875 153.765625 303.078125 153.617188 303.105469 153.457031 L 305.863281 141.320312 C 305.90625 141.160156 306.066406 141.066406 306.214844 141.089844 C 306.378906 141.132812 306.472656 141.28125 306.445312 141.441406 L 303.6875 153.578125 C 303.660156 153.726562 303.539062 153.820312 303.402344 153.820312 Z M 303.402344 153.820312 " fill-opacity="1" fill-rule="nonzero"/><path fill="#523762" d="M 343.539062 115.496094 L 339.617188 108.785156 C 339.617188 108.785156 329.5 107.949219 319.636719 108.636719 C 318.5 108.71875 317.5 109.4375 317.050781 110.503906 L 311.289062 124.410156 C 309.273438 129.28125 308.53125 134.585938 309.152344 139.832031 L 310.777344 153.523438 L 345.433594 155.242188 Z M 343.539062 115.496094 " fill-opacity="1" fill-rule="nonzero"/><path fill="#ffffff" d="M 356.609375 183.691406 L 356.445312 156.960938 L 362.128906 153.523438 C 362.128906 153.523438 362.074219 131.472656 355.660156 120.433594 C 348.65625 108.367188 336.277344 108.082031 336.277344 108.082031 L 336.277344 183.691406 Z M 356.609375 183.691406 " fill-opacity="1" fill-rule="nonzero"/><path fill="#000000" d="M 356.445312 157.257812 C 356.351562 157.257812 356.242188 157.203125 356.191406 157.109375 C 356.109375 156.972656 356.148438 156.785156 356.285156 156.703125 L 361.816406 153.363281 C 361.789062 151.304688 361.398438 130.933594 355.390625 120.597656 C 348.546875 108.800781 336.382812 108.394531 336.261719 108.394531 C 336.101562 108.394531 335.964844 108.257812 335.964844 108.082031 C 335.964844 107.921875 336.101562 107.785156 336.277344 107.785156 C 336.398438 107.785156 348.898438 108.203125 355.90625 120.285156 C 362.277344 131.257812 362.414062 153.292969 362.414062 153.523438 C 362.414062 153.632812 362.359375 153.726562 362.265625 153.78125 L 356.582031 157.21875 C 356.554688 157.246094 356.5 157.257812 356.445312 157.257812 Z M 356.445312 157.257812 " fill-opacity="1" fill-rule="nonzero"/><path fill="#ffffff" d="M 329.253906 93.769531 L 334.800781 108.503906 L 319.109375 125.886719 L 320.636719 110.070312 L 323.53125 108.433594 L 321.53125 98.871094 Z M 329.253906 93.769531 " fill-opacity="1" fill-rule="nonzero"/><path fill="#ffffff" d="M 331.648438 90.523438 C 332.273438 89.832031 333.40625 89.765625 334.179688 90.28125 C 334.949219 90.792969 335.316406 91.796875 335.195312 92.703125 C 335.070312 93.621094 334.503906 94.433594 333.761719 94.988281 C 333.015625 95.542969 332.121094 95.839844 331.214844 95.988281 C 330.257812 97.949219 329.023438 99.886719 327.183594 101.074219 C 325.34375 102.277344 322.800781 102.589844 320.988281 101.347656 C 319.839844 100.5625 319.121094 99.25 318.796875 97.882812 C 318.488281 96.515625 318.527344 95.109375 318.648438 93.714844 C 318.945312 90.050781 319.71875 86.410156 320.921875 82.921875 C 322.316406 82.851562 323.722656 82.8125 325.089844 83.109375 C 326.453125 83.40625 327.78125 84.070312 328.617188 85.179688 C 329.660156 86.558594 329.835938 88.414062 329.660156 90.117188 C 329.605469 90.660156 329.296875 92.445312 330.28125 92.375 C 330.960938 92.347656 331.257812 90.957031 331.648438 90.523438 Z M 331.648438 90.523438 " fill-opacity="1" fill-rule="nonzero"/><path fill="#000000" d="M 323.679688 102.457031 C 322.695312 102.457031 321.707031 102.210938 320.828125 101.601562 C 319.703125 100.832031 318.890625 99.546875 318.511719 97.964844 C 318.175781 96.53125 318.242188 95.070312 318.351562 93.703125 C 318.664062 89.996094 319.433594 86.34375 320.636719 82.839844 C 320.679688 82.730469 320.785156 82.648438 320.90625 82.636719 C 322.289062 82.570312 323.734375 82.527344 325.15625 82.824219 C 326.738281 83.164062 328.050781 83.949219 328.863281 85.003906 C 329.808594 86.261719 330.175781 87.992188 329.957031 90.15625 L 329.945312 90.320312 C 329.902344 90.699219 329.78125 91.726562 330.054688 92.023438 C 330.09375 92.066406 330.148438 92.105469 330.269531 92.09375 C 330.527344 92.078125 330.796875 91.511719 330.988281 91.105469 C 331.136719 90.792969 331.269531 90.507812 331.433594 90.320312 C 332.121094 89.550781 333.433594 89.425781 334.339844 90.035156 C 335.167969 90.589844 335.625 91.6875 335.476562 92.742188 C 335.355469 93.6875 334.789062 94.582031 333.9375 95.21875 C 333.257812 95.71875 332.40625 96.070312 331.40625 96.246094 C 330.621094 97.816406 329.363281 99.992188 327.332031 101.320312 C 326.332031 101.996094 325.007812 102.457031 323.679688 102.457031 Z M 321.152344 83.21875 C 319.988281 86.613281 319.257812 90.15625 318.960938 93.742188 C 318.851562 95.070312 318.796875 96.476562 319.109375 97.816406 C 319.445312 99.25 320.175781 100.414062 321.179688 101.101562 C 322.746094 102.171875 325.15625 102.0625 327.035156 100.816406 C 328.996094 99.53125 330.214844 97.367188 330.960938 95.839844 C 331 95.757812 331.082031 95.691406 331.175781 95.675781 C 332.148438 95.515625 332.960938 95.203125 333.597656 94.730469 C 334.328125 94.1875 334.800781 93.433594 334.910156 92.648438 C 335.019531 91.808594 334.667969 90.941406 334.03125 90.507812 C 333.367188 90.0625 332.394531 90.15625 331.894531 90.699219 C 331.785156 90.820312 331.664062 91.078125 331.542969 91.335938 C 331.257812 91.945312 330.933594 92.621094 330.324219 92.660156 C 330.054688 92.675781 329.808594 92.59375 329.632812 92.402344 C 329.160156 91.902344 329.296875 90.808594 329.363281 90.226562 L 329.375 90.0625 C 329.578125 88.046875 329.253906 86.453125 328.402344 85.328125 C 327.6875 84.382812 326.496094 83.679688 325.046875 83.367188 C 323.761719 83.136719 322.421875 83.152344 321.152344 83.21875 Z M 321.152344 83.21875 " fill-opacity="1" fill-rule="nonzero"/><path fill="#000000" d="M 330.609375 94.972656 C 330.554688 94.972656 330.484375 94.960938 330.445312 94.921875 C 330.308594 94.824219 330.269531 94.636719 330.363281 94.5 C 330.917969 93.6875 331.824219 93.132812 332.800781 93.011719 C 332.960938 92.984375 333.109375 93.105469 333.136719 93.269531 C 333.152344 93.433594 333.042969 93.582031 332.878906 93.609375 C 332.070312 93.703125 331.3125 94.164062 330.851562 94.839844 C 330.796875 94.933594 330.703125 94.972656 330.609375 94.972656 Z M 330.609375 94.972656 " fill-opacity="1" fill-rule="nonzero"/><path fill="#ffffff" d="M 341.796875 133.609375 C 341.796875 133.609375 350.398438 114.007812 350.683594 114.265625 C 350.96875 114.523438 368.472656 131.351562 371.449219 149.289062 C 374.425781 167.226562 362.710938 173.707031 344.09375 180.527344 C 325.480469 187.34375 320.894531 188.128906 321.53125 185.21875 C 321.53125 185.21875 319.324219 184.964844 318.917969 182.988281 C 318.917969 182.988281 316.753906 182.09375 316.484375 180.121094 C 316.484375 180.121094 311.707031 178.050781 316.132812 173.289062 L 317.214844 175.667969 C 317.214844 175.667969 322.992188 174.734375 325.15625 172.746094 C 327.320312 170.773438 325.898438 169.339844 324.75 168.796875 C 323.601562 168.257812 320.21875 165.792969 320.828125 164.425781 C 321.4375 163.0625 326.847656 165.171875 328.820312 165.105469 C 330.796875 165.035156 347.84375 156.714844 352.253906 153.496094 C 352.210938 153.523438 346.460938 139.832031 341.796875 133.609375 Z M 341.796875 133.609375 " fill-opacity="1" fill-rule="nonzero"/><path fill="#000000" d="M 323.207031 187.113281 C 322.421875 187.113281 321.910156 186.964844 321.597656 186.695312 C 321.273438 186.410156 321.136719 186.003906 321.191406 185.464844 C 320.542969 185.300781 319.066406 184.789062 318.664062 183.203125 C 318.160156 182.960938 316.539062 182.070312 316.214844 180.324219 C 315.742188 180.078125 314.347656 179.242188 314.023438 177.683594 C 313.726562 176.292969 314.359375 174.75 315.902344 173.085938 C 315.96875 173.019531 316.066406 172.976562 316.171875 172.992188 C 316.269531 173.003906 316.347656 173.070312 316.402344 173.167969 L 317.390625 175.34375 C 318.460938 175.15625 323.113281 174.222656 324.953125 172.542969 C 325.722656 171.839844 326.0625 171.179688 325.96875 170.570312 C 325.847656 169.71875 324.898438 169.203125 324.613281 169.066406 C 323.707031 168.636719 319.773438 166.039062 320.542969 164.304688 C 321.03125 163.222656 323.289062 163.738281 325.695312 164.292969 C 326.941406 164.578125 328.105469 164.832031 328.796875 164.820312 C 330.621094 164.753906 347.167969 156.714844 351.859375 153.402344 C 351.101562 151.617188 345.839844 139.46875 341.566406 133.773438 C 341.472656 133.636719 341.496094 133.449219 341.621094 133.355469 C 341.753906 133.257812 341.945312 133.285156 342.039062 133.40625 C 346.679688 139.578125 352.441406 153.238281 352.496094 153.375 C 352.550781 153.496094 352.511719 153.644531 352.402344 153.726562 C 348.179688 156.8125 330.972656 165.320312 328.808594 165.386719 C 328.050781 165.414062 326.832031 165.144531 325.5625 164.847656 C 323.898438 164.46875 321.367188 163.886719 321.082031 164.523438 C 320.625 165.550781 323.53125 167.863281 324.871094 168.5 C 325.222656 168.660156 326.386719 169.296875 326.550781 170.449219 C 326.671875 171.257812 326.265625 172.097656 325.34375 172.949219 C 323.140625 174.964844 317.484375 175.898438 317.253906 175.941406 C 317.121094 175.96875 317 175.886719 316.929688 175.765625 L 316.039062 173.804688 C 314.847656 175.183594 314.375 176.441406 314.605469 177.535156 C 314.929688 179.078125 316.578125 179.824219 316.605469 179.824219 C 316.699219 179.863281 316.769531 179.957031 316.78125 180.054688 C 317.027344 181.839844 319.015625 182.675781 319.042969 182.675781 C 319.136719 182.71875 319.203125 182.800781 319.21875 182.894531 C 319.582031 184.640625 321.558594 184.894531 321.570312 184.894531 C 321.652344 184.910156 321.734375 184.949219 321.773438 185.019531 C 321.828125 185.085938 321.839844 185.167969 321.828125 185.246094 C 321.691406 185.855469 321.855469 186.085938 321.992188 186.195312 C 323.382812 187.410156 331.796875 184.679688 344 180.214844 C 361.25 173.898438 374.195312 167.605469 371.164062 149.304688 C 368.203125 131.566406 350.65625 114.65625 350.480469 114.496094 C 350.359375 114.386719 350.34375 114.199219 350.46875 114.074219 C 350.574219 113.953125 350.765625 113.941406 350.886719 114.0625 C 351.0625 114.226562 368.757812 131.285156 371.746094 149.261719 C 374.859375 168.027344 361.710938 174.410156 344.203125 180.835938 C 332.121094 185.246094 325.996094 187.113281 323.207031 187.113281 Z M 323.207031 187.113281 " fill-opacity="1" fill-rule="nonzero"/><path fill="#000000" d="M 343.796875 179.753906 C 343.621094 179.753906 343.5 179.621094 343.5 179.457031 C 343.636719 173.34375 341.417969 167.1875 337.414062 162.585938 C 337.304688 162.464844 337.316406 162.277344 337.441406 162.167969 C 337.5625 162.058594 337.75 162.074219 337.859375 162.195312 C 341.957031 166.902344 344.230469 173.207031 344.09375 179.472656 C 344.09375 179.621094 343.960938 179.753906 343.796875 179.753906 Z M 343.796875 179.753906 " fill-opacity="1" fill-rule="nonzero"/><path fill="#000000" d="M 352.820312 153.632812 C 352.726562 153.632812 352.632812 153.589844 352.578125 153.511719 C 352.484375 153.375 352.511719 153.1875 352.644531 153.089844 C 353.890625 152.210938 355.082031 151.210938 356.164062 150.140625 C 356.285156 150.035156 356.472656 150.035156 356.582031 150.140625 C 356.703125 150.265625 356.691406 150.453125 356.582031 150.5625 C 355.472656 151.65625 354.253906 152.671875 352.984375 153.578125 C 352.929688 153.617188 352.875 153.632812 352.820312 153.632812 Z M 352.820312 153.632812 " fill-opacity="1" fill-rule="nonzero"/><path fill="#000000" d="M 322.234375 185.558594 C 321.964844 185.558594 321.691406 185.546875 321.410156 185.53125 C 321.246094 185.519531 321.125 185.382812 321.136719 185.21875 C 321.152344 185.058594 321.285156 184.9375 321.449219 184.9375 C 323.882812 185.097656 326.375 184.488281 328.46875 183.230469 C 328.605469 183.152344 328.796875 183.191406 328.875 183.328125 C 328.957031 183.460938 328.917969 183.652344 328.78125 183.730469 C 326.820312 184.921875 324.519531 185.558594 322.234375 185.558594 Z M 322.234375 185.558594 " fill-opacity="1" fill-rule="nonzero"/><path fill="#000000" d="M 319.8125 183.300781 C 319.472656 183.300781 319.136719 183.285156 318.796875 183.257812 C 318.636719 183.246094 318.511719 183.097656 318.527344 182.933594 C 318.539062 182.773438 318.691406 182.648438 318.851562 182.664062 C 321.4375 182.867188 324.085938 182.246094 326.320312 180.933594 C 326.453125 180.851562 326.644531 180.890625 326.726562 181.039062 C 326.804688 181.175781 326.765625 181.363281 326.617188 181.445312 C 324.574219 182.664062 322.191406 183.300781 319.8125 183.300781 Z M 319.8125 183.300781 " fill-opacity="1" fill-rule="nonzero"/><path fill="#000000" d="M 319.367188 180.917969 C 318.390625 180.917969 317.429688 180.796875 316.484375 180.527344 C 316.320312 180.484375 316.226562 180.324219 316.28125 180.160156 C 316.320312 180 316.484375 179.917969 316.648438 179.957031 C 319.542969 180.769531 322.746094 180.230469 325.222656 178.539062 C 325.359375 178.441406 325.546875 178.484375 325.644531 178.617188 C 325.738281 178.753906 325.695312 178.945312 325.5625 179.039062 C 323.734375 180.269531 321.558594 180.917969 319.367188 180.917969 Z M 319.367188 180.917969 " fill-opacity="1" fill-rule="nonzero"/><path fill="#ffffff" d="M 349.640625 195.070312 L 276.589844 195.070312 L 276.589844 171.503906 L 349.640625 171.503906 Z M 349.640625 195.070312 " fill-opacity="1" fill-rule="nonzero"/><path fill="#000000" d="M 349.640625 195.367188 L 276.589844 195.367188 C 276.425781 195.367188 276.292969 195.230469 276.292969 195.070312 L 276.292969 171.503906 C 276.292969 171.339844 276.425781 171.207031 276.589844 171.207031 L 349.640625 171.207031 C 349.804688 171.207031 349.941406 171.339844 349.941406 171.503906 L 349.941406 195.070312 C 349.941406 195.230469 349.816406 195.367188 349.640625 195.367188 Z M 276.902344 194.769531 L 349.359375 194.769531 L 349.359375 171.800781 L 276.902344 171.800781 Z M 276.902344 194.769531 " fill-opacity="1" fill-rule="nonzero"/><path fill="#000000" d="M 285.449219 133.109375 L 336.289062 133.109375 L 343.027344 166.863281 L 291.390625 166.863281 Z M 285.449219 133.109375 " fill-opacity="1" fill-rule="nonzero"/><path fill="#ffffff" d="M 349.652344 175.128906 L 254.792969 175.128906 L 254.792969 165.023438 L 349.652344 165.023438 Z M 349.652344 175.128906 " fill-opacity="1" fill-rule="nonzero"/><path fill="#000000" d="M 349.640625 175.425781 L 254.78125 175.425781 C 254.621094 175.425781 254.484375 175.289062 254.484375 175.128906 L 254.484375 165.023438 C 254.484375 164.859375 254.621094 164.726562 254.78125 164.726562 L 349.640625 164.726562 C 349.804688 164.726562 349.941406 164.859375 349.941406 165.023438 L 349.941406 175.128906 C 349.941406 175.289062 349.816406 175.425781 349.640625 175.425781 Z M 255.078125 174.832031 L 349.34375 174.832031 L 349.34375 165.320312 L 255.078125 165.320312 Z M 255.078125 174.832031 " fill-opacity="1" fill-rule="nonzero"/><path fill="#000000" d="M 282.40625 164.183594 C 282.285156 164.183594 282.175781 164.117188 282.121094 163.996094 C 274.128906 142.851562 276.375 128.429688 279.675781 120.042969 C 283.257812 110.9375 288.847656 106.785156 288.902344 106.742188 C 289.035156 106.648438 289.226562 106.675781 289.320312 106.8125 C 289.414062 106.945312 289.386719 107.136719 289.253906 107.230469 C 289.199219 107.269531 283.734375 111.34375 280.214844 120.3125 C 276.96875 128.589844 274.75 142.851562 282.675781 163.792969 C 282.730469 163.941406 282.664062 164.117188 282.5 164.171875 C 282.488281 164.171875 282.449219 164.183594 282.40625 164.183594 Z M 282.40625 164.183594 " fill-opacity="1" fill-rule="nonzero"/><path fill="#000000" d="M 290.660156 103.1875 C 290.910156 103.289062 291.144531 103.414062 291.367188 103.566406 C 291.59375 103.714844 291.800781 103.882812 291.988281 104.074219 C 292.179688 104.265625 292.351562 104.472656 292.5 104.695312 C 292.648438 104.917969 292.773438 105.15625 292.878906 105.40625 C 292.980469 105.652344 293.058594 105.910156 293.113281 106.171875 C 293.164062 106.4375 293.191406 106.703125 293.191406 106.972656 C 293.191406 107.242188 293.164062 107.507812 293.113281 107.773438 C 293.058594 108.035156 292.980469 108.292969 292.878906 108.542969 C 292.773438 108.789062 292.648438 109.027344 292.5 109.25 C 292.351562 109.472656 292.179688 109.679688 291.988281 109.871094 C 291.800781 110.0625 291.59375 110.230469 291.367188 110.382812 C 291.144531 110.53125 290.910156 110.65625 290.660156 110.761719 C 290.410156 110.863281 290.15625 110.941406 289.890625 110.992188 C 289.628906 111.046875 289.359375 111.074219 289.089844 111.074219 C 288.820312 111.074219 288.554688 111.046875 288.292969 110.992188 C 288.027344 110.941406 287.769531 110.863281 287.523438 110.761719 C 287.273438 110.65625 287.039062 110.53125 286.8125 110.382812 C 286.589844 110.230469 286.382812 110.0625 286.191406 109.871094 C 286.003906 109.679688 285.832031 109.472656 285.683594 109.25 C 285.535156 109.027344 285.40625 108.789062 285.304688 108.542969 C 285.203125 108.292969 285.125 108.035156 285.070312 107.773438 C 285.019531 107.507812 284.992188 107.242188 284.992188 106.972656 C 284.992188 106.703125 285.019531 106.4375 285.070312 106.171875 C 285.125 105.910156 285.203125 105.652344 285.304688 105.40625 C 285.40625 105.15625 285.535156 104.917969 285.683594 104.695312 C 285.832031 104.472656 286.003906 104.265625 286.191406 104.074219 C 286.382812 103.882812 286.589844 103.714844 286.8125 103.566406 C 287.039062 103.414062 287.273438 103.289062 287.523438 103.1875 C 287.769531 103.082031 288.027344 103.003906 288.292969 102.953125 C 288.554688 102.902344 288.820312 102.875 289.089844 102.875 C 289.359375 102.875 289.628906 102.902344 289.890625 102.953125 C 290.15625 103.003906 290.410156 103.082031 290.660156 103.1875 Z M 290.660156 103.1875 " fill-opacity="1" fill-rule="nonzero"/><path fill="#ffffff" d="M 198.625 125.113281 L 220.800781 125.113281 L 220.800781 150.941406 L 198.625 150.941406 Z M 198.625 125.113281 " fill-opacity="1" fill-rule="nonzero"/><path fill="#000000" d="M 220.800781 151.238281 L 198.625 151.238281 C 198.464844 151.238281 198.328125 151.101562 198.328125 150.941406 L 198.328125 125.113281 C 198.328125 124.953125 198.464844 124.816406 198.625 124.816406 L 220.800781 124.816406 C 220.960938 124.816406 221.097656 124.953125 221.097656 125.113281 L 221.097656 150.941406 C 221.097656 151.101562 220.960938 151.238281 220.800781 151.238281 Z M 198.925781 150.640625 L 220.503906 150.640625 L 220.503906 125.414062 L 198.925781 125.414062 Z M 198.925781 150.640625 " fill-opacity="1" fill-rule="nonzero"/><path fill="#ffffff" d="M 192.121094 106.011719 C 192.121094 109.207031 194.339844 114.507812 191.171875 114.902344 C 184.261719 115.753906 180.539062 109.21875 180.539062 106.011719 C 180.539062 102.820312 183.136719 100.222656 186.328125 100.222656 C 189.523438 100.222656 192.121094 102.820312 192.121094 106.011719 Z M 192.121094 106.011719 " fill-opacity="1" fill-rule="nonzero"/><path fill="#000000" d="M 189.957031 115.265625 C 187.113281 115.265625 185.058594 114.023438 183.785156 112.898438 C 181.460938 110.84375 180.242188 107.878906 180.242188 106.011719 C 180.242188 102.65625 182.976562 99.925781 186.328125 99.925781 C 189.683594 99.925781 192.417969 102.65625 192.417969 106.011719 C 192.417969 106.917969 192.605469 108.027344 192.78125 109.109375 C 193.132812 111.167969 193.484375 113.292969 192.648438 114.414062 C 192.324219 114.859375 191.835938 115.117188 191.199219 115.199219 C 190.765625 115.253906 190.347656 115.265625 189.957031 115.265625 Z M 186.328125 100.519531 C 183.300781 100.519531 180.835938 102.984375 180.835938 106.011719 C 180.835938 107.746094 181.988281 110.519531 184.179688 112.453125 C 185.546875 113.65625 187.84375 114.996094 191.132812 114.601562 C 191.605469 114.550781 191.945312 114.359375 192.175781 114.0625 C 192.863281 113.140625 192.527344 111.140625 192.199219 109.21875 C 192.011719 108.125 191.820312 106.972656 191.820312 106.027344 C 191.820312 102.984375 189.359375 100.519531 186.328125 100.519531 Z M 186.328125 100.519531 " fill-opacity="1" fill-rule="nonzero"/><path fill="#000000" d="M 191.089844 112.761719 C 190.996094 112.761719 190.890625 112.710938 190.835938 112.628906 C 189.441406 110.394531 187.359375 108.570312 184.976562 107.460938 C 184.828125 107.394531 184.761719 107.21875 184.828125 107.066406 C 184.894531 106.917969 185.070312 106.851562 185.21875 106.917969 C 187.710938 108.070312 189.886719 109.992188 191.335938 112.316406 C 191.417969 112.453125 191.375 112.640625 191.242188 112.722656 C 191.199219 112.75 191.144531 112.761719 191.089844 112.761719 Z M 191.089844 112.761719 " fill-opacity="1" fill-rule="nonzero"/><path fill="#ffffff" d="M 227.308594 106.011719 C 227.308594 109.207031 225.089844 114.507812 228.253906 114.902344 C 235.167969 115.753906 238.886719 109.21875 238.886719 106.011719 C 238.886719 102.820312 236.289062 100.222656 233.097656 100.222656 C 229.902344 100.222656 227.308594 102.820312 227.308594 106.011719 Z M 227.308594 106.011719 " fill-opacity="1" fill-rule="nonzero"/><path fill="#000000" d="M 229.472656 115.265625 C 229.066406 115.265625 228.660156 115.238281 228.226562 115.183594 C 227.589844 115.105469 227.105469 114.847656 226.777344 114.402344 C 225.941406 113.265625 226.292969 111.152344 226.644531 109.097656 C 226.832031 108.015625 227.007812 106.90625 227.007812 106 C 227.007812 102.644531 229.742188 99.910156 233.097656 99.910156 C 236.453125 99.910156 239.183594 102.644531 239.183594 106 C 239.183594 107.867188 237.96875 110.828125 235.640625 112.886719 C 234.355469 114.023438 232.3125 115.265625 229.472656 115.265625 Z M 233.097656 100.519531 C 230.066406 100.519531 227.605469 102.984375 227.605469 106.011719 C 227.605469 106.960938 227.414062 108.109375 227.226562 109.207031 C 226.902344 111.140625 226.5625 113.128906 227.253906 114.046875 C 227.484375 114.359375 227.820312 114.535156 228.292969 114.589844 C 231.566406 114.996094 233.882812 113.644531 235.246094 112.4375 C 237.4375 110.492188 238.589844 107.730469 238.589844 106 C 238.574219 102.984375 236.113281 100.519531 233.097656 100.519531 Z M 233.097656 100.519531 " fill-opacity="1" fill-rule="nonzero"/><path fill="#000000" d="M 228.320312 112.761719 C 228.265625 112.761719 228.214844 112.75 228.160156 112.722656 C 228.023438 112.640625 227.984375 112.453125 228.0625 112.316406 C 229.511719 109.992188 231.691406 108.082031 234.179688 106.917969 C 234.328125 106.851562 234.503906 106.917969 234.570312 107.066406 C 234.640625 107.21875 234.570312 107.394531 234.421875 107.460938 C 232.042969 108.570312 229.957031 110.394531 228.566406 112.628906 C 228.523438 112.710938 228.429688 112.761719 228.320312 112.761719 Z M 228.320312 112.761719 " fill-opacity="1" fill-rule="nonzero"/><path fill="#ffffff" d="M 216.605469 132.5 L 202.808594 132.5 C 196.988281 132.5 192.175781 127.96875 191.820312 122.164062 L 189.386719 82.609375 L 230.011719 82.609375 L 227.578125 122.164062 C 227.238281 127.984375 222.421875 132.5 216.605469 132.5 Z M 216.605469 132.5 " fill-opacity="1" fill-rule="nonzero"/><path fill="#000000" d="M 216.605469 132.796875 L 202.808594 132.796875 C 196.839844 132.796875 191.890625 128.132812 191.523438 122.191406 L 189.089844 82.636719 C 189.089844 82.554688 189.117188 82.472656 189.171875 82.417969 C 189.226562 82.367188 189.304688 82.324219 189.386719 82.324219 L 230.011719 82.324219 C 230.09375 82.324219 230.175781 82.367188 230.230469 82.417969 C 230.28125 82.472656 230.308594 82.554688 230.308594 82.636719 L 227.875 122.191406 C 227.523438 128.144531 222.570312 132.796875 216.605469 132.796875 Z M 189.710938 82.90625 L 192.121094 122.152344 C 192.472656 127.792969 197.164062 132.203125 202.808594 132.203125 L 216.605469 132.203125 C 222.246094 132.203125 226.941406 127.792969 227.292969 122.152344 L 229.699219 82.90625 Z M 189.710938 82.90625 " fill-opacity="1" fill-rule="nonzero"/><path fill="#000000" d="M 190.347656 105.175781 C 190.78125 104.957031 193.351562 104.308594 193.296875 99.84375 C 193.296875 99.84375 209.179688 98.019531 216.890625 84.246094 C 216.890625 84.246094 221.152344 96.230469 226.820312 99.085938 C 226.820312 99.085938 227.0625 104.457031 228.671875 104.671875 L 231.324219 100.15625 C 231.324219 100.15625 232.675781 80.175781 232.71875 75.75 C 232.757812 71.328125 226.820312 66.644531 220.800781 70.664062 C 220.800781 70.664062 205.429688 61.640625 194.214844 68.132812 C 183 74.613281 180.09375 87.871094 188.847656 97.449219 Z M 190.347656 105.175781 " fill-opacity="1" fill-rule="nonzero"/><path fill="#ffffff" d="M 189.375 290.199219 L 181.378906 160.140625 L 192.554688 153.363281 L 229.957031 153.363281 L 238.046875 162.035156 L 229.566406 290.199219 Z M 189.375 290.199219 " fill-opacity="1" fill-rule="nonzero"/><path fill="#000000" d="M 229.566406 290.496094 L 189.375 290.496094 C 189.210938 290.496094 189.089844 290.375 189.074219 290.210938 L 181.082031 160.152344 C 181.066406 160.042969 181.136719 159.9375 181.230469 159.882812 L 192.402344 153.105469 C 192.445312 153.078125 192.5 153.0625 192.554688 153.0625 L 229.957031 153.0625 C 230.039062 153.0625 230.121094 153.105469 230.175781 153.160156 L 238.25 161.832031 C 238.304688 161.882812 238.332031 161.964844 238.332031 162.046875 L 229.851562 290.210938 C 229.851562 290.375 229.714844 290.496094 229.566406 290.496094 Z M 189.65625 289.902344 L 229.28125 289.902344 L 237.738281 162.140625 L 229.835938 153.660156 L 192.648438 153.660156 L 181.691406 160.300781 Z M 189.65625 289.902344 " fill-opacity="1" fill-rule="nonzero"/><path fill="#523762" d="M 157.976562 287.332031 C 157.976562 287.332031 125.738281 304.929688 109.082031 292.335938 C 92.429688 279.742188 106.296875 240.671875 110.449219 228.363281 C 114.589844 216.039062 123.207031 181.917969 138.507812 172.585938 C 153.808594 163.25 180.148438 157.082031 180.148438 157.082031 L 193.796875 149.667969 L 190.0625 290.210938 Z M 157.976562 287.332031 " fill-opacity="1" fill-rule="nonzero"/><path fill="#000000" d="M 177.457031 253.199219 L 121.246094 253.199219 C 121.082031 253.199219 120.949219 253.0625 120.949219 252.902344 C 120.949219 252.738281 121.082031 252.605469 121.246094 252.605469 L 177.457031 252.605469 C 177.617188 252.605469 177.753906 252.738281 177.753906 252.902344 C 177.753906 253.0625 177.617188 253.199219 177.457031 253.199219 Z M 177.457031 253.199219 " fill-opacity="1" fill-rule="nonzero"/><path fill="#000000" d="M 153.496094 253.199219 C 153.484375 253.199219 153.457031 253.199219 153.441406 253.199219 C 153.28125 253.171875 153.171875 253.011719 153.210938 252.847656 L 157.285156 233.203125 C 157.3125 233.042969 157.472656 232.933594 157.636719 232.976562 C 157.800781 233.003906 157.90625 233.164062 157.867188 233.328125 L 153.792969 252.96875 C 153.753906 253.105469 153.632812 253.199219 153.496094 253.199219 Z M 153.496094 253.199219 " fill-opacity="1" fill-rule="nonzero"/><path fill="#000000" d="M 188.792969 269.8125 C 188.644531 269.8125 188.507812 269.691406 188.496094 269.542969 L 179.851562 160.167969 C 179.835938 160.003906 179.957031 159.855469 180.121094 159.839844 C 180.28125 159.828125 180.429688 159.949219 180.445312 160.113281 L 189.089844 269.488281 C 189.101562 269.648438 188.980469 269.796875 188.820312 269.8125 C 188.820312 269.8125 188.804688 269.8125 188.792969 269.8125 Z M 188.792969 269.8125 " fill-opacity="1" fill-rule="nonzero"/><path fill="#523762" d="M 261.4375 287.332031 C 261.4375 287.332031 293.675781 304.929688 310.328125 292.335938 C 326.980469 279.742188 313.117188 240.671875 308.960938 228.363281 C 304.824219 216.039062 296.207031 181.917969 280.90625 172.585938 C 265.605469 163.25 239.265625 157.082031 239.265625 157.082031 L 225.617188 149.65625 L 229.347656 290.199219 Z M 261.4375 287.332031 " fill-opacity="1" fill-rule="nonzero"/><path fill="#000000" d="M 298.167969 253.199219 L 241.957031 253.199219 C 241.796875 253.199219 241.660156 253.0625 241.660156 252.902344 C 241.660156 252.738281 241.796875 252.605469 241.957031 252.605469 L 298.167969 252.605469 C 298.328125 252.605469 298.464844 252.738281 298.464844 252.902344 C 298.464844 253.0625 298.328125 253.199219 298.167969 253.199219 Z M 298.167969 253.199219 " fill-opacity="1" fill-rule="nonzero"/><path fill="#000000" d="M 265.917969 253.199219 C 265.78125 253.199219 265.660156 253.105469 265.617188 252.957031 L 261.546875 233.3125 C 261.519531 233.152344 261.613281 232.988281 261.777344 232.960938 C 261.9375 232.933594 262.101562 233.027344 262.128906 233.191406 L 266.199219 252.835938 C 266.226562 252.996094 266.132812 253.160156 265.96875 253.1875 C 265.957031 253.199219 265.941406 253.199219 265.917969 253.199219 Z M 265.917969 253.199219 " fill-opacity="1" fill-rule="nonzero"/><path fill="#000000" d="M 230.621094 269.8125 C 230.609375 269.8125 230.609375 269.8125 230.59375 269.8125 C 230.433594 269.796875 230.308594 269.648438 230.324219 269.488281 L 238.96875 160.113281 C 238.980469 159.949219 239.128906 159.828125 239.292969 159.839844 C 239.453125 159.855469 239.578125 160.003906 239.5625 160.167969 L 230.917969 269.542969 C 230.90625 269.691406 230.769531 269.8125 230.621094 269.8125 Z M 230.621094 269.8125 " fill-opacity="1" fill-rule="nonzero"/><path fill="#523762" d="M 215.820312 237.101562 L 203.605469 237.101562 L 208.582031 155.066406 C 208.664062 153.644531 210.75 153.644531 210.84375 155.066406 Z M 215.820312 237.101562 " fill-opacity="1" fill-rule="nonzero"/><path fill="#523762" d="M 218.609375 157.621094 L 212.5625 166.066406 C 211.152344 168.027344 208.246094 168.027344 206.839844 166.066406 L 200.792969 157.621094 L 209.691406 152.238281 Z M 218.609375 157.621094 " fill-opacity="1" fill-rule="nonzero"/><path fill="#ffffff" d="M 223.679688 143.511719 L 209.707031 148.503906 L 195.746094 143.511719 L 193.714844 149.65625 L 193.714844 156.296875 L 202.847656 164.886719 L 209.707031 157.042969 L 216.578125 164.886719 L 225.710938 156.296875 L 225.710938 149.65625 Z M 223.679688 143.511719 " fill-opacity="1" fill-rule="nonzero"/><path fill="#000000" d="M 225.710938 149.953125 C 225.589844 149.953125 225.46875 149.871094 225.425781 149.75 L 223.492188 143.890625 L 209.816406 148.789062 C 209.746094 148.816406 209.679688 148.816406 209.613281 148.789062 L 195.933594 143.890625 L 194 149.75 C 193.945312 149.910156 193.785156 149.992188 193.621094 149.9375 C 193.460938 149.886719 193.378906 149.722656 193.433594 149.558594 L 195.460938 143.417969 C 195.488281 143.335938 195.542969 143.28125 195.609375 143.242188 C 195.679688 143.203125 195.757812 143.203125 195.839844 143.230469 L 209.707031 148.195312 L 223.574219 143.230469 C 223.652344 143.203125 223.734375 143.203125 223.804688 143.242188 C 223.871094 143.28125 223.925781 143.335938 223.953125 143.417969 L 225.980469 149.558594 C 226.035156 149.722656 225.953125 149.886719 225.792969 149.9375 C 225.765625 149.9375 225.738281 149.953125 225.710938 149.953125 Z M 225.710938 149.953125 " fill-opacity="1" fill-rule="nonzero"/><path fill="#000000" d="M 202.847656 165.183594 C 202.765625 165.183594 202.699219 165.160156 202.644531 165.105469 L 194.730469 157.664062 C 194.609375 157.554688 194.609375 157.367188 194.71875 157.246094 C 194.824219 157.121094 195.015625 157.121094 195.136719 157.230469 L 202.835938 164.453125 L 209.503906 156.839844 C 209.613281 156.703125 209.839844 156.703125 209.949219 156.839844 L 216.621094 164.453125 L 224.359375 157.175781 C 224.480469 157.070312 224.667969 157.070312 224.777344 157.191406 C 224.886719 157.3125 224.886719 157.5 224.761719 157.609375 L 216.796875 165.105469 C 216.742188 165.160156 216.660156 165.183594 216.578125 165.183594 C 216.496094 165.183594 216.417969 165.144531 216.375 165.078125 L 209.734375 157.488281 L 203.089844 165.078125 C 203.039062 165.144531 202.957031 165.171875 202.886719 165.183594 C 202.847656 165.183594 202.847656 165.183594 202.847656 165.183594 Z M 202.847656 165.183594 " fill-opacity="1" fill-rule="nonzero"/><g clip-path="url(#d59a422260)"><path fill="#ffffff" d="M 158.394531 280.148438 L 260.421875 280.148438 L 260.421875 313.0625 L 158.394531 313.0625 Z M 158.394531 280.148438 " fill-opacity="1" fill-rule="nonzero"/></g><g clip-path="url(#ad61512c57)"><path fill="#000000" d="M 260.410156 313.359375 C 260.246094 313.359375 260.113281 313.222656 260.113281 313.0625 L 260.113281 280.445312 L 158.679688 280.445312 L 158.679688 313.0625 C 158.679688 313.222656 158.542969 313.359375 158.378906 313.359375 C 158.21875 313.359375 158.082031 313.222656 158.082031 313.0625 L 158.082031 280.148438 C 158.082031 279.984375 158.21875 279.851562 158.378906 279.851562 L 260.410156 279.851562 C 260.574219 279.851562 260.707031 279.984375 260.707031 280.148438 L 260.707031 313.0625 C 260.707031 313.222656 260.574219 313.359375 260.410156 313.359375 Z M 260.410156 313.359375 " fill-opacity="1" fill-rule="nonzero"/></g><path fill="#000000" d="M 259.042969 226.535156 L 159.761719 226.535156 L 168.054688 273.667969 L 250.75 273.667969 Z M 259.042969 226.535156 " fill-opacity="1" fill-rule="nonzero"/><path fill="#ffffff" d="M 143.160156 271.109375 L 275.644531 271.109375 L 275.644531 285.222656 L 143.160156 285.222656 Z M 143.160156 271.109375 " fill-opacity="1" fill-rule="nonzero"/><path fill="#000000" d="M 268.621094 269.8125 C 268.582031 269.8125 268.554688 269.8125 268.511719 269.796875 C 268.363281 269.746094 268.285156 269.570312 268.335938 269.417969 C 279.417969 240.132812 276.320312 220.175781 271.773438 208.597656 C 266.847656 196.054688 259.191406 190.359375 259.125 190.292969 C 258.988281 190.199219 258.960938 190.007812 259.058594 189.875 C 259.152344 189.738281 259.339844 189.710938 259.476562 189.804688 C 259.558594 189.859375 267.324219 195.636719 272.316406 208.328125 C 275.25 215.765625 276.671875 224.101562 276.550781 233.097656 C 276.398438 244.324219 273.828125 256.609375 268.90625 269.621094 C 268.851562 269.746094 268.742188 269.8125 268.621094 269.8125 Z M 268.621094 269.8125 " fill-opacity="1" fill-rule="nonzero"/><path fill="#000000" d="M 263.339844 185.992188 C 263.605469 186.257812 263.84375 186.546875 264.050781 186.859375 C 264.261719 187.171875 264.4375 187.5 264.582031 187.847656 C 264.722656 188.195312 264.832031 188.554688 264.90625 188.921875 C 264.980469 189.289062 265.015625 189.664062 265.015625 190.039062 C 265.015625 190.414062 264.980469 190.785156 264.90625 191.15625 C 264.832031 191.523438 264.722656 191.882812 264.582031 192.230469 C 264.4375 192.574219 264.261719 192.90625 264.050781 193.21875 C 263.84375 193.53125 263.605469 193.820312 263.339844 194.085938 C 263.074219 194.351562 262.785156 194.589844 262.472656 194.796875 C 262.160156 195.003906 261.832031 195.183594 261.484375 195.324219 C 261.136719 195.46875 260.777344 195.578125 260.410156 195.652344 C 260.042969 195.726562 259.667969 195.761719 259.292969 195.761719 C 258.917969 195.761719 258.546875 195.726562 258.175781 195.652344 C 257.808594 195.578125 257.449219 195.46875 257.105469 195.324219 C 256.757812 195.183594 256.425781 195.003906 256.113281 194.796875 C 255.800781 194.589844 255.511719 194.351562 255.246094 194.085938 C 254.980469 193.820312 254.742188 193.53125 254.535156 193.21875 C 254.328125 192.90625 254.148438 192.574219 254.007812 192.230469 C 253.863281 191.882812 253.753906 191.523438 253.679688 191.15625 C 253.609375 190.785156 253.570312 190.414062 253.570312 190.039062 C 253.570312 189.664062 253.609375 189.292969 253.679688 188.921875 C 253.753906 188.554688 253.863281 188.195312 254.007812 187.847656 C 254.148438 187.503906 254.328125 187.171875 254.535156 186.859375 C 254.742188 186.546875 254.980469 186.257812 255.246094 185.992188 C 255.511719 185.726562 255.800781 185.488281 256.113281 185.28125 C 256.425781 185.070312 256.757812 184.894531 257.101562 184.753906 C 257.449219 184.609375 257.808594 184.5 258.175781 184.425781 C 258.546875 184.351562 258.917969 184.316406 259.292969 184.316406 C 259.667969 184.316406 260.042969 184.351562 260.410156 184.425781 C 260.777344 184.5 261.136719 184.609375 261.484375 184.753906 C 261.832031 184.894531 262.160156 185.070312 262.472656 185.28125 C 262.785156 185.488281 263.074219 185.726562 263.339844 185.992188 Z M 263.339844 185.992188 " fill-opacity="1" fill-rule="nonzero"/><path fill="#000000" d="M 256.175781 285.519531 L 164.128906 285.519531 C 163.96875 285.519531 163.832031 285.382812 163.832031 285.222656 C 163.832031 285.058594 163.96875 284.921875 164.128906 284.921875 L 256.175781 284.921875 C 256.339844 284.921875 256.472656 285.058594 256.472656 285.222656 C 256.472656 285.382812 256.339844 285.519531 256.175781 285.519531 Z M 256.175781 285.519531 " fill-opacity="1" fill-rule="nonzero"/><path fill="#000000" d="M 337.34375 215.890625 L 314.277344 215.890625 C 314.117188 215.890625 313.980469 215.753906 313.980469 215.589844 C 313.980469 215.429688 314.117188 215.292969 314.277344 215.292969 L 337.34375 215.292969 C 337.507812 215.292969 337.640625 215.429688 337.640625 215.589844 C 337.640625 215.753906 337.507812 215.890625 337.34375 215.890625 Z M 337.34375 215.890625 " fill-opacity="1" fill-rule="nonzero"/><path fill="#000000" d="M 326.277344 221.125 L 311.832031 221.125 C 311.667969 221.125 311.53125 220.988281 311.53125 220.828125 C 311.53125 220.664062 311.667969 220.527344 311.832031 220.527344 L 326.277344 220.527344 C 326.441406 220.527344 326.578125 220.664062 326.578125 220.828125 C 326.578125 220.988281 326.441406 221.125 326.277344 221.125 Z M 326.277344 221.125 " fill-opacity="1" fill-rule="nonzero"/></svg>