<svg width="14" height="14" viewBox="0 0 14 14" fill="none" xmlns="http://www.w3.org/2000/svg">
<path fill-rule="evenodd" clip-rule="evenodd" d="M8.5 0H1.5C1.10218 0 0.720644 0.158035 0.43934 0.43934C0.158035 0.720644 0 1.10218 0 1.5L0 8.5C0 8.89782 0.158035 9.27936 0.43934 9.56066C0.720644 9.84196 1.10218 10 1.5 10H2.754V6.5C2.754 6.41792 2.77017 6.33665 2.80158 6.26082C2.83298 6.18499 2.87902 6.11609 2.93706 6.05806C2.99509 6.00002 3.06399 5.95398 3.13982 5.92258C3.21565 5.89117 3.29692 5.875 3.379 5.875C3.46108 5.875 3.54235 5.89117 3.61818 5.92258C3.69401 5.95398 3.76291 6.00002 3.82094 6.05806C3.87898 6.11609 3.92502 6.18499 3.95642 6.26082C3.98783 6.33665 4.004 6.41792 4.004 6.5V10.75L4 10.82V12.5C4 12.8978 4.15804 13.2794 4.43934 13.5607C4.72064 13.842 5.10218 14 5.5 14H12.5C12.8978 14 13.2794 13.842 13.5607 13.5607C13.842 13.2794 14 12.8978 14 12.5V5.5C14 5.10218 13.842 4.72064 13.5607 4.43934C13.2794 4.15804 12.8978 4 12.5 4H10V1.5C10 1.10218 9.84196 0.720644 9.56066 0.43934C9.27936 0.158035 8.89782 0 8.5 0Z" fill="#AE9FCF" fill-opacity="0.88"/>
</svg>
