<svg width="16" height="16" viewBox="0 0 16 16" fill="none" xmlns="http://www.w3.org/2000/svg">
<path d="M15.854 12.854L11 8.00003L15.854 3.14603C15.947 3.05188 15.9992 2.92487 15.9992 2.79253C15.9992 2.66019 15.947 2.53318 15.854 2.43903L13.561 0.146027C13.4672 0.0522915 13.3401 -0.000366211 13.2075 -0.000366211C13.0749 -0.000366211 12.9478 0.0522915 12.854 0.146027L8 5.00003L3.146 0.146027C3.05223 0.0522915 2.92508 -0.000366211 2.7925 -0.000366211C2.65991 -0.000366211 2.53276 0.0522915 2.439 0.146027L0.145996 2.43903C0.052261 2.53279 -0.000396729 2.65994 -0.000396729 2.79253C-0.000396729 2.92511 0.052261 3.05226 0.145996 3.14603L5 8.00003L0.145996 12.854C0.052261 12.9478 -0.000396729 13.0749 -0.000396729 13.2075C-0.000396729 13.3401 0.052261 13.4673 0.145996 13.561L2.439 15.854C2.53276 15.9478 2.65991 16.0004 2.7925 16.0004C2.92508 16.0004 3.05223 15.9478 3.146 15.854L8 11L12.854 15.854C12.9478 15.9478 13.0749 16.0004 13.2075 16.0004C13.3401 16.0004 13.4672 15.9478 13.561 15.854L15.854 13.561C15.9477 13.4673 16.0004 13.3401 16.0004 13.2075C16.0004 13.0749 15.9477 12.9478 15.854 12.854Z" fill="#230B41"/>
</svg>
