<svg width="10" height="10" viewBox="0 0 10 10" fill="none" xmlns="http://www.w3.org/2000/svg">
<path d="M4.58334 7.08337H5.41668V4.58337H4.58334V7.08337ZM5.00001 3.75004C5.11807 3.75004 5.21709 3.71004 5.29709 3.63004C5.37709 3.55004 5.41695 3.45115 5.41668 3.33337C5.4164 3.2156 5.3764 3.11671 5.29668 3.03671C5.21695 2.95671 5.11807 2.91671 5.00001 2.91671C4.88196 2.91671 4.78307 2.95671 4.70334 3.03671C4.62362 3.11671 4.58362 3.2156 4.58334 3.33337C4.58307 3.45115 4.62307 3.55018 4.70334 3.63046C4.78362 3.71074 4.88251 3.7506 5.00001 3.75004ZM5.00001 9.16671C4.42362 9.16671 3.88196 9.05726 3.37501 8.83837C2.86807 8.61949 2.42709 8.32268 2.05209 7.94796C1.67709 7.57324 1.38029 7.13226 1.16168 6.62504C0.943066 6.11782 0.833622 5.57615 0.833344 5.00004C0.833066 4.42393 0.942511 3.88226 1.16168 3.37504C1.38084 2.86782 1.67765 2.42685 2.05209 2.05212C2.42654 1.6774 2.86751 1.3806 3.37501 1.16171C3.88251 0.942819 4.42418 0.833374 5.00001 0.833374C5.57584 0.833374 6.11751 0.942819 6.62501 1.16171C7.13251 1.3806 7.57348 1.6774 7.94793 2.05212C8.32237 2.42685 8.61932 2.86782 8.83876 3.37504C9.0582 3.88226 9.16751 4.42393 9.16668 5.00004C9.16584 5.57615 9.0564 6.11782 8.83834 6.62504C8.62029 7.13226 8.32348 7.57324 7.94793 7.94796C7.57237 8.32268 7.1314 8.61962 6.62501 8.83879C6.11862 9.05796 5.57695 9.16726 5.00001 9.16671ZM5.00001 8.33337C5.93057 8.33337 6.71876 8.01046 7.36459 7.36462C8.01043 6.71879 8.33334 5.9306 8.33334 5.00004C8.33334 4.06949 8.01043 3.28129 7.36459 2.63546C6.71876 1.98962 5.93057 1.66671 5.00001 1.66671C4.06945 1.66671 3.28126 1.98962 2.63543 2.63546C1.98959 3.28129 1.66668 4.06949 1.66668 5.00004C1.66668 5.9306 1.98959 6.71879 2.63543 7.36462C3.28126 8.01046 4.06945 8.33337 5.00001 8.33337Z" fill="#230B41"/>
</svg>
