<svg xmlns="http://www.w3.org/2000/svg" xmlns:xlink="http://www.w3.org/1999/xlink" zoomAndPan="magnify" preserveAspectRatio="xMidYMid meet" version="1.0" viewBox="26.33 27.68 1366.86 774.75"><path fill="#523762" d="M 290.558594 566.113281 C 276.6875 513.144531 313.121094 378.210938 254.886719 351.046875 C 228.773438 338.863281 170.574219 352.652344 157.609375 411.507812 C 151.039062 441.339844 189.917969 480.367188 208.414062 509.511719 C 233.894531 549.664062 188.070312 606.875 105.4375 563.859375 C 22.808594 520.847656 11.835938 389.757812 82.46875 310.304688 C 179.589844 205.636719 353.382812 211.246094 411.527344 353.003906 C 438.921875 419.785156 401.554688 490.414062 407.855469 524.457031 C 411.640625 552.203125 476.429688 581.597656 437.707031 625.882812 C 381.113281 690.628906 299.382812 606.476562 290.558594 566.113281 Z M 490.070312 659.671875 C 443.203125 666.308594 402.65625 709.734375 456.867188 777.761719 C 485.839844 807.480469 548.304688 792.898438 563.394531 755.925781 C 587.21875 681.5625 535.65625 653.222656 490.070312 659.671875 Z M 578.160156 50.410156 C 478.671875 87.859375 427.378906 209 480.503906 285.523438 C 533.628906 362.046875 600.808594 332.734375 596.929688 285.355469 C 594.125 250.945312 577.867188 198.308594 597.566406 174.960938 C 636.4375 128.890625 694.367188 143.773438 711.808594 166.710938 C 750.710938 217.855469 655.671875 320.328125 643.304688 373.671875 C 632.328125 413.5 665.515625 526.015625 745.734375 495.046875 C 800.621094 473.863281 756.945312 417.699219 766.511719 391.378906 C 776.777344 358.308594 842.714844 313.183594 849.546875 241.328125 C 864.046875 88.796875 712.824219 2.957031 578.160156 50.410156 Z M 776.363281 549.320312 C 731.789062 533.390625 675.691406 552.953125 692.023438 638.386719 C 703.84375 678.171875 765.914062 694.339844 796.472656 668.628906 C 852.167969 613.898438 819.714844 564.816406 776.363281 549.320312 Z M 1228.484375 43.652344 C 1126.046875 15.226562 1013.1875 82.808594 1010.957031 175.933594 C 1008.730469 269.066406 1080.269531 285.015625 1105.105469 244.46875 C 1123.128906 215.019531 1141.035156 162.925781 1170.714844 155.6875 C 1229.265625 141.40625 1267.277344 187.59375 1267.839844 216.398438 C 1269.09375 280.644531 1131.90625 307.359375 1090.460938 343.140625 C 1058.113281 368.832031 1018.550781 479.273438 1101.601562 501.578125 C 1158.414062 516.832031 1156.269531 445.71875 1179.515625 430.105469 C 1207.3125 409.449219 1287.167969 411.898438 1335.0625 357.894531 C 1436.734375 243.257812 1365.234375 84.746094 1228.484375 43.652344 Z M 973.683594 585.65625 C 959.761719 624.761719 1000.363281 674.414062 1040.203125 671.683594 C 1117.457031 660.324219 1120.195312 601.539062 1094.324219 563.460938 C 1067.722656 524.308594 1010.875 507.027344 973.683594 585.65625 Z M 973.683594 585.65625 " fill-opacity="1" fill-rule="nonzero"/><path fill="#f4f0d2" d="M 79.679688 421.84375 C 70.894531 443.4375 75.8125 467.917969 84.175781 489.050781 C 90.882812 506.011719 106.757812 532.695312 128.214844 528.472656 C 131.574219 527.8125 134.160156 523.445312 132.914062 520.195312 C 126.882812 504.386719 110.292969 495.195312 103.464844 478.566406 C 96.070312 460.558594 95.984375 440.578125 91.667969 421.851562 C 90.160156 415.238281 81.796875 416.644531 79.679688 421.84375 Z M 341.515625 442.035156 C 344.460938 452.253906 345.773438 462.746094 347.589844 473.207031 C 349.039062 481.542969 350.945312 492.1875 354.691406 499.757812 C 355.664062 501.734375 359.042969 501.804688 360 499.757812 C 368.957031 480.550781 360.707031 455.351562 352.210938 437.523438 C 349.3125 431.441406 339.703125 435.761719 341.515625 442.035156 Z M 485.5625 706.484375 C 485.226562 710.625 485.1875 707.808594 490.234375 707.308594 C 495.4375 706.796875 500.53125 707.589844 505.539062 708.933594 C 516.757812 711.945312 524.5 719.371094 523.433594 731.382812 C 522.359375 743.421875 541.097656 743.3125 542.167969 731.382812 C 544.140625 709.292969 526.859375 694.574219 506.847656 689.945312 C 492.644531 686.660156 468.378906 687.5 466.835938 706.484375 C 465.847656 718.53125 484.59375 718.4375 485.5625 706.484375 Z M 523.929688 147.695312 C 499 169.507812 475.746094 247.429688 516.777344 264.714844 C 521.003906 266.492188 525.164062 262.128906 525.300781 258.21875 C 525.550781 251.207031 523.761719 246.210938 521.386719 239.578125 C 517.316406 228.195312 517.429688 215.972656 519.117188 204.15625 C 521.59375 186.808594 529.695312 170.523438 534.328125 153.734375 C 536.0625 147.453125 528.46875 143.726562 523.929688 147.695312 Z M 746.222656 287.238281 C 744.085938 297.628906 740.363281 307.484375 737.117188 317.558594 C 734.5 325.667969 731.140625 336.128906 730.945312 344.632812 C 730.898438 346.765625 733.683594 348.730469 735.574219 347.289062 C 752.382812 334.449219 756.945312 308.550781 757.722656 288.796875 C 757.980469 282.238281 747.558594 280.738281 746.222656 287.238281 Z M 750.394531 589.019531 C 749.464844 590.488281 747.757812 590.34375 749.167969 590.292969 C 751.0625 590.21875 752.992188 591.074219 754.746094 591.699219 C 759.285156 593.308594 763.445312 596.683594 766.921875 599.90625 C 775.277344 607.640625 779.25 617.84375 772.726562 627.945312 C 766.152344 638.132812 782.375 647.511719 788.902344 637.398438 C 800.941406 618.738281 793.058594 597.683594 777.34375 584.132812 C 766.632812 574.902344 744.371094 563.5625 734.214844 579.566406 C 727.726562 589.796875 743.941406 599.1875 750.394531 589.019531 Z M 1128.273438 90.164062 C 1105.25 91.40625 1085.914062 105.824219 1070.335938 122.058594 C 1058.027344 134.886719 1037.949219 164.355469 1053.046875 181.097656 C 1055.578125 183.902344 1059.980469 183.484375 1062.574219 181.097656 C 1068.066406 176.027344 1069.148438 169.375 1071.273438 162.386719 C 1074.570312 151.546875 1081.257812 142.496094 1088.902344 134.324219 C 1101.515625 120.835938 1118.582031 112.433594 1132.683594 100.777344 C 1136.84375 97.324219 1133.449219 89.882812 1128.273438 90.164062 Z M 1224.039062 334.480469 C 1216.347656 341.5 1207.640625 347.226562 1199.179688 353.265625 C 1192.105469 358.316406 1183.386719 364.722656 1178.183594 371.644531 C 1176.734375 373.566406 1178.710938 376.269531 1180.839844 376.269531 C 1189.191406 376.253906 1199.96875 370.996094 1207.023438 366.6875 C 1216.921875 360.648438 1225.195312 351.800781 1232.320312 342.769531 C 1236.910156 336.945312 1229.753906 329.273438 1224.039062 334.480469 Z M 1048.683594 580.652344 C 1051.234375 579.691406 1048.570312 580.675781 1048.058594 580.402344 C 1049.332031 581.085938 1050.382812 582.761719 1051.164062 583.898438 C 1053.839844 587.824219 1055.308594 592.292969 1056.480469 596.84375 C 1059.167969 607.285156 1057.421875 620.007812 1046.273438 624.363281 C 1035.152344 628.714844 1039.988281 646.839844 1051.253906 642.429688 C 1072.203125 634.238281 1078.605469 615.109375 1075.015625 594.035156 C 1072.792969 580.988281 1061.003906 556.058594 1043.714844 562.585938 C 1032.507812 566.808594 1037.355469 584.925781 1048.683594 580.652344 Z M 1048.683594 580.652344 " fill-opacity="1" fill-rule="nonzero"/><path fill="#070404" d="M 459.144531 593.78125 C 458.480469 569.550781 434.578125 551.085938 421.660156 533.054688 C 405.722656 510.8125 425.28125 466.292969 428.421875 441.816406 C 433.40625 402.964844 429.691406 368.496094 412.699219 333.089844 C 388 281.628906 339.835938 246.027344 284.851562 233.375 C 197.894531 213.367188 101.742188 258.214844 54.78125 332.222656 C 6.675781 408.054688 18.007812 525.546875 100.71875 571.949219 C 100.757812 571.96875 100.789062 571.976562 100.824219 571.996094 C 142.003906 591.785156 203.8125 600.539062 222.839844 547.171875 C 230.085938 526.859375 218.84375 507.667969 207.53125 491.757812 C 181.234375 454.800781 147.753906 419.339844 186.035156 376.824219 C 205.773438 354.90625 246.902344 346.355469 265.980469 372.832031 C 283.394531 397.007812 280.351562 435.46875 279.789062 463.585938 C 278.792969 513 269.441406 562.679688 300.234375 605.023438 C 328.214844 643.503906 377.859375 673.441406 424.183594 649.511719 C 444.4375 639.042969 459.769531 616.578125 459.144531 593.78125 Z M 328.289062 608.96875 C 283.414062 565.902344 298.226562 504.800781 298.714844 448.910156 C 299.066406 408.878906 295.289062 351.671875 248.644531 339.164062 C 204.097656 327.210938 153.207031 367.378906 148.230469 411.515625 C 144.058594 448.496094 176.324219 480.113281 196.0625 507.859375 C 209.066406 526.136719 209.683594 546.976562 190.433594 561.40625 C 167.109375 578.890625 133.117188 566.824219 110.171875 555.765625 C 43.585938 518.410156 33.589844 434.933594 57.648438 368.53125 C 82.613281 299.632812 155.933594 255.433594 226.34375 248.402344 C 295.316406 241.511719 358.261719 276.199219 392.707031 335.359375 C 416.832031 376.789062 414.046875 420.910156 405.277344 466.140625 C 400.738281 489.566406 392.71875 515.105469 402.792969 538.019531 C 414.410156 564.4375 453.582031 580.785156 434.890625 614.292969 C 409.292969 660.179688 356.070312 635.632812 328.289062 608.96875 Z M 490.070312 650.3125 C 489.691406 650.355469 489.363281 650.464844 489.007812 650.542969 C 488.535156 650.558594 488.070312 650.558594 487.578125 650.644531 C 449.898438 657.070312 414.933594 686.539062 422.507812 728.257812 C 431.5 777.765625 467.484375 810.015625 517.828125 800.890625 C 565.246094 792.300781 584.976562 746.207031 576.640625 702.167969 C 569.128906 662.515625 525.984375 646.191406 490.070312 650.3125 Z M 518.082031 781.515625 C 478.652344 794.171875 451.265625 765.042969 441.625 729.058594 C 432.578125 695.300781 462.589844 674.195312 491.613281 668.90625 C 516.28125 666.429688 541.054688 672.59375 554.316406 695.289062 C 573.90625 728.808594 551.96875 770.632812 518.082031 781.515625 Z M 550.792969 52.695312 C 468.777344 94.984375 419.167969 208.1875 472.410156 290.253906 C 472.484375 290.367188 472.574219 290.445312 472.648438 290.554688 C 499.75 326.925781 550.335938 363.933594 591.96875 325.597656 C 605.957031 312.714844 607.558594 292.789062 605.183594 275.222656 C 598.6875 227.1875 583.214844 174.628906 643.082031 156.277344 C 679.394531 145.148438 716.226562 168.886719 710.816406 207.535156 C 706.277344 240 685.769531 270.695312 669.6875 298.523438 C 645.339844 340.648438 625.300781 375.261719 636.128906 424.671875 C 645.265625 466.371094 673.640625 507.582031 719.375 509.742188 C 741.414062 510.785156 763.871094 499.691406 776.804688 482.351562 C 790.574219 463.886719 780.675781 434.367188 776.292969 414.691406 C 769.792969 385.523438 794.585938 364.496094 811.285156 343.527344 C 831.125 318.628906 847.386719 292.164062 855.703125 261.238281 C 870.953125 204.574219 851.058594 141.347656 814.574219 97.464844 C 752.296875 22.546875 634.371094 9.601562 550.792969 52.695312 Z M 840.839844 232.605469 C 839.472656 272.550781 817.480469 305.886719 793.417969 336.078125 C 779.492188 353.558594 761.925781 370.980469 756.394531 393.285156 C 750.660156 416.398438 767.304688 440.449219 764 464.070312 C 760.839844 486.65625 728.511719 492.957031 710.140625 490.199219 C 693.367188 487.675781 680.671875 474.480469 671.527344 461.25 C 636.195312 410.097656 654.152344 362.921875 682.027344 314.605469 C 703.121094 278.039062 747.675781 216.382812 725.421875 171.523438 C 703.976562 128.304688 638.46875 125.574219 604.53125 155.167969 C 570.519531 184.824219 578.285156 222.972656 584.734375 263.683594 C 588.351562 286.496094 591.0625 310.445312 565.539062 320.898438 C 534.816406 333.480469 504.640625 302.429688 488.589844 280.792969 C 447.078125 216.804688 476.601562 138.269531 528.882812 90.613281 C 584.550781 39.875 672.804688 35.578125 739.449219 64.796875 C 806.84375 94.347656 843.3125 160.539062 840.839844 232.605469 Z M 778.847656 540.285156 C 746.246094 529.5 710.6875 535.183594 690.8125 565.128906 C 665.957031 602.558594 679.222656 658.929688 717.476562 680.308594 C 761.6875 705.019531 806.476562 683.558594 828.015625 641.425781 C 850.371094 597.695312 819.347656 556.175781 778.847656 540.285156 Z M 808.65625 638.1875 C 789.890625 674.890625 747.273438 681.460938 715.644531 656.894531 C 691.902344 638.460938 692.8125 592.023438 710.550781 569.527344 C 725.640625 550.378906 753.046875 551.46875 773.863281 558.351562 C 808.4375 571.917969 826.433594 603.40625 808.65625 638.1875 Z M 1246.746094 39.980469 C 1147.015625 -0.046875 1008.148438 60.863281 1001.585938 175.929688 C 1001.578125 176.054688 1001.605469 176.15625 1001.601562 176.28125 C 1001.808594 219.1875 1017.566406 271.175781 1067.691406 274.777344 C 1120.078125 278.535156 1132 199.914062 1160.835938 171.496094 C 1192.464844 140.335938 1255.085938 178.199219 1258.460938 216.394531 C 1261.101562 246.292969 1221.449219 266.191406 1199.867188 277.613281 C 1158.8125 299.34375 1102.183594 310.800781 1072.320312 348.820312 C 1048.246094 379.460938 1032.839844 430.742188 1048.738281 468.148438 C 1064.71875 505.742188 1118.796875 530.296875 1150.859375 497.398438 C 1164.996094 482.898438 1169.292969 461.070312 1179.285156 443.953125 C 1191.460938 423.09375 1238.695312 419.691406 1259.632812 413.257812 C 1321.28125 394.332031 1364.753906 350.324219 1384.734375 289.101562 C 1419.386719 182.882812 1342.351562 78.359375 1246.746094 39.980469 Z M 1304.109375 372.464844 C 1277.316406 391.4375 1243.707031 398.550781 1212.542969 406.917969 C 1193.503906 412.035156 1174.871094 417.816406 1163.121094 434.503906 C 1149.992188 453.136719 1148.730469 483.816406 1124.757812 493.152344 C 1085.425781 508.472656 1060.847656 459.792969 1061.648438 429.550781 C 1063.195312 370.605469 1102.910156 342.164062 1151.386719 320.488281 C 1191.070312 302.742188 1254.9375 283.304688 1272.71875 238.464844 C 1289.8125 195.363281 1248.664062 150.195312 1206.519531 144.902344 C 1147.34375 137.46875 1128.160156 181.082031 1104.238281 226.90625 C 1093.96875 246.578125 1080.625 260.703125 1056.898438 254.035156 C 1025.628906 245.253906 1020.402344 202.25 1020.328125 175.929688 C 1025.089844 92.488281 1109.367188 45.992188 1185.527344 46.535156 C 1261.34375 47.078125 1332.234375 104.390625 1360.800781 172.214844 C 1390.367188 242.414062 1366.429688 328.335938 1304.109375 372.464844 Z M 1013.742188 526.785156 C 966.75 550.042969 947.277344 605.882812 978.691406 649.082031 C 1008.097656 689.523438 1059.898438 687.605469 1096.390625 658.085938 C 1127.039062 633.289062 1121.5 588.390625 1102.410156 558.734375 C 1082.695312 531.25 1047.496094 510.085938 1013.742188 526.785156 Z M 1093.382812 632.667969 C 1086.300781 646.023438 1071.707031 653.351562 1058.09375 658.078125 C 1034.441406 666.289062 1014.917969 659.90625 997.621094 642.652344 C 966.082031 611.195312 984.898438 565.539062 1018.871094 545.101562 C 1043.703125 530.164062 1071.570312 547.742188 1086.226562 568.171875 C 1086.234375 568.179688 1086.234375 568.183594 1086.238281 568.1875 C 1098.792969 587.691406 1104.773438 611.175781 1093.382812 632.667969 Z M 1093.382812 632.667969 " fill-opacity="1" fill-rule="nonzero"/></svg>