<svg width="14" height="14" viewBox="0 0 14 14" fill="none" xmlns="http://www.w3.org/2000/svg">
<path d="M6.93935 10.5C6.93935 10.616 6.89326 10.7273 6.81121 10.8094C6.72917 10.8914 6.61789 10.9375 6.50185 10.9375C4.28985 10.9375 2.47919 9.18458 2.47919 7C2.47919 4.81542 4.28985 3.0625 6.50185 3.0625C8.3131 3.0625 9.85544 4.23792 10.3548 5.86308L10.7065 5.26808C10.7655 5.16814 10.8618 5.09574 10.9743 5.0668C11.0867 5.03787 11.206 5.05477 11.3059 5.11379C11.4058 5.17281 11.4782 5.26912 11.5072 5.38152C11.5361 5.49393 11.5192 5.61322 11.4602 5.71317L10.5094 7.32025C10.4511 7.41884 10.3566 7.49067 10.246 7.52033C10.1354 7.55 10.0176 7.53513 9.91785 7.47892L8.27169 6.55083C8.22163 6.5226 8.17762 6.48479 8.14217 6.43955C8.10672 6.39432 8.08053 6.34254 8.06509 6.28718C8.04965 6.23182 8.04527 6.17396 8.05219 6.11691C8.05912 6.05986 8.07721 6.00473 8.10544 5.95467C8.13367 5.90461 8.17148 5.86059 8.21672 5.82515C8.26195 5.7897 8.31373 5.76351 8.36909 5.74807C8.42445 5.73263 8.48231 5.72825 8.53936 5.73517C8.59641 5.7421 8.65154 5.76019 8.7016 5.78842L9.56027 6.27258C9.22544 4.93792 7.99052 3.9375 6.50244 3.9375C4.7536 3.9375 3.35419 5.31825 3.35419 7C3.35419 8.68175 4.7536 10.0625 6.50185 10.0625C6.61789 10.0625 6.72917 10.1086 6.81121 10.1906C6.89326 10.2727 6.93935 10.384 6.93935 10.5Z" fill="#230B41"/>
</svg>
