<svg width="14" height="14" viewBox="0 0 14 14" fill="none" xmlns="http://www.w3.org/2000/svg">
<path fill-rule="evenodd" clip-rule="evenodd" d="M10.4948 3.5058L3.14945 6.16172L5.59653 7.57805L7.75428 5.41972C7.86374 5.31034 8.01216 5.24892 8.1669 5.24898C8.32164 5.24903 8.47002 5.31056 8.5794 5.42001C8.68878 5.52947 8.7502 5.67789 8.75015 5.83264C8.75009 5.98738 8.68857 6.13576 8.57911 6.24514L6.42078 8.40347L7.83828 10.85L10.4948 3.5058ZM10.6832 2.1968C11.3803 1.94422 12.0558 2.61972 11.8032 3.3168L8.72203 11.8364C8.46886 12.5352 7.51453 12.6204 7.14178 11.977L5.2652 8.7348L2.02303 6.85822C1.37961 6.48547 1.46478 5.53114 2.16361 5.27797L10.6832 2.1968Z" fill="#230B41"/>
</svg>
