<svg xmlns="http://www.w3.org/2000/svg" xmlns:xlink="http://www.w3.org/1999/xlink" width="500" zoomAndPan="magnify" viewBox="0 0 375 374.999991" height="500" preserveAspectRatio="xMidYMid meet" version="1.0"><defs><clipPath id="02eda89318"><path d="M 131.25 131.25 L 243.75 131.25 L 243.75 243.75 L 131.25 243.75 Z M 131.25 131.25 " clip-rule="nonzero"/></clipPath><clipPath id="480380f0ea"><path d="M 148.5 131.25 L 226.5 131.25 C 231.074219 131.25 235.460938 133.066406 238.699219 136.300781 C 241.933594 139.539062 243.75 143.925781 243.75 148.5 L 243.75 226.5 C 243.75 231.074219 241.933594 235.460938 238.699219 238.699219 C 235.460938 241.933594 231.074219 243.75 226.5 243.75 L 148.5 243.75 C 143.925781 243.75 139.539062 241.933594 136.300781 238.699219 C 133.066406 235.460938 131.25 231.074219 131.25 226.5 L 131.25 148.5 C 131.25 143.925781 133.066406 139.539062 136.300781 136.300781 C 139.539062 133.066406 143.925781 131.25 148.5 131.25 Z M 148.5 131.25 " clip-rule="nonzero"/></clipPath><clipPath id="336a6c87d1"><path d="M 37.5 145 L 239 145 L 239 370.382812 L 37.5 370.382812 Z M 37.5 145 " clip-rule="nonzero"/></clipPath><clipPath id="9472ca57ba"><path d="M 142 143 L 343.5 143 L 343.5 368 L 142 368 Z M 142 143 " clip-rule="nonzero"/></clipPath><clipPath id="d0c529eb79"><path d="M 73 4.382812 L 308 4.382812 L 308 239 L 73 239 Z M 73 4.382812 " clip-rule="nonzero"/></clipPath></defs><g clip-path="url(#02eda89318)"><g clip-path="url(#480380f0ea)"><path fill="#ffffff" d="M 131.25 131.25 L 243.75 131.25 L 243.75 243.75 L 131.25 243.75 Z M 131.25 131.25 " fill-opacity="1" fill-rule="nonzero"/></g></g><g clip-path="url(#336a6c87d1)"><path fill="#db2f14" d="M 118.527344 145.832031 L 238.261719 203.957031 L 157.28125 370.359375 L 120.8125 291.625 L 37.542969 312.238281 L 118.527344 145.832031 " fill-opacity="1" fill-rule="evenodd"/></g><path fill="#ff430e" d="M 136.058594 155.980469 L 219.53125 194.894531 L 158.363281 322.734375 L 134.6875 266.347656 L 73.394531 282.933594 L 136.058594 155.980469 " fill-opacity="1" fill-rule="evenodd"/><g clip-path="url(#9472ca57ba)"><path fill="#db2f14" d="M 261.921875 143.234375 L 142.402344 201.792969 L 223.992188 367.902344 L 260.171875 289.039062 L 343.511719 309.34375 L 261.921875 143.234375 " fill-opacity="1" fill-rule="evenodd"/></g><path fill="#ff430e" d="M 244.425781 153.449219 L 161.097656 192.667969 L 222.734375 320.28125 L 246.207031 263.808594 L 307.554688 280.171875 L 244.425781 153.449219 " fill-opacity="1" fill-rule="evenodd"/><g clip-path="url(#d0c529eb79)"><path fill="#cdcde9" d="M 190.527344 4.371094 C 255.230469 4.371094 307.753906 56.832031 307.753906 121.449219 C 307.753906 186.066406 255.230469 238.527344 190.527344 238.527344 C 125.828125 238.527344 73.304688 186.066406 73.304688 121.449219 C 73.304688 56.832031 125.828125 4.371094 190.527344 4.371094 " fill-opacity="1" fill-rule="evenodd"/></g><path fill="#aaaace" d="M 190.527344 29.578125 C 240.429688 29.578125 280.941406 70.746094 280.941406 121.449219 C 280.941406 172.152344 240.429688 213.320312 190.527344 213.320312 C 140.628906 213.320312 100.117188 172.152344 100.117188 121.449219 C 100.117188 70.746094 140.628906 29.578125 190.527344 29.578125 " fill-opacity="1" fill-rule="evenodd"/><path fill="#e7e8f0" d="M 115.109375 68.324219 C 115.246094 67.933594 115.636719 67.664062 116.082031 67.664062 C 116.527344 67.664062 116.917969 67.933594 117.050781 68.324219 L 120.78125 79.460938 L 132.859375 82.902344 C 133.28125 83.023438 133.574219 83.386719 133.574219 83.796875 C 133.574219 84.207031 133.28125 84.566406 132.859375 84.691406 L 120.78125 88.128906 L 117.050781 99.265625 C 116.917969 99.660156 116.527344 99.925781 116.082031 99.925781 C 115.636719 99.925781 115.246094 99.660156 115.109375 99.265625 L 111.382812 88.128906 L 99.304688 84.691406 C 98.878906 84.566406 98.589844 84.207031 98.589844 83.796875 C 98.589844 83.386719 98.878906 83.023438 99.304688 82.902344 L 111.382812 79.460938 L 115.109375 68.324219 " fill-opacity="1" fill-rule="evenodd"/><path fill="#e7e8f0" d="M 263.246094 157.914062 C 263.378906 157.515625 263.78125 157.242188 264.230469 157.242188 C 264.683594 157.242188 265.082031 157.515625 265.214844 157.914062 L 269 169.214844 L 281.253906 172.707031 C 281.6875 172.828125 281.980469 173.195312 281.980469 173.613281 C 281.980469 174.027344 281.6875 174.398438 281.253906 174.519531 L 269 178.011719 L 265.214844 189.3125 C 265.082031 189.710938 264.683594 189.980469 264.230469 189.980469 C 263.78125 189.980469 263.378906 189.710938 263.246094 189.3125 L 259.460938 178.011719 L 247.203125 174.519531 C 246.773438 174.398438 246.480469 174.027344 246.480469 173.613281 C 246.480469 173.195312 246.773438 172.828125 247.203125 172.707031 L 259.460938 169.214844 L 263.246094 157.914062 " fill-opacity="1" fill-rule="evenodd"/><path fill="#e7e8f0" d="M 97.609375 91.21875 C 97.695312 90.957031 97.960938 90.777344 98.257812 90.777344 C 98.558594 90.777344 98.820312 90.957031 98.910156 91.21875 L 101.414062 98.691406 L 109.515625 101 C 109.800781 101.082031 109.996094 101.324219 109.996094 101.601562 C 109.996094 101.878906 109.800781 102.121094 109.515625 102.203125 L 101.414062 104.511719 L 98.910156 111.984375 C 98.820312 112.246094 98.558594 112.425781 98.257812 112.425781 C 97.960938 112.425781 97.695312 112.246094 97.609375 111.984375 L 95.105469 104.511719 L 87 102.203125 C 86.714844 102.121094 86.523438 101.878906 86.523438 101.601562 C 86.523438 101.324219 86.714844 101.082031 87 101 L 95.105469 98.691406 L 97.609375 91.21875 " fill-opacity="1" fill-rule="evenodd"/><path fill="#e7e8f0" d="M 280.742188 139.304688 C 280.839844 139.015625 281.128906 138.820312 281.457031 138.820312 C 281.78125 138.820312 282.074219 139.015625 282.167969 139.304688 L 284.914062 147.5 L 293.800781 150.03125 C 294.113281 150.121094 294.328125 150.386719 294.328125 150.691406 C 294.328125 150.992188 294.113281 151.257812 293.800781 151.347656 L 284.914062 153.878906 L 282.167969 162.074219 C 282.074219 162.363281 281.78125 162.558594 281.457031 162.558594 C 281.128906 162.558594 280.839844 162.363281 280.742188 162.074219 L 277.996094 153.878906 L 269.109375 151.347656 C 268.796875 151.257812 268.585938 150.992188 268.585938 150.691406 C 268.585938 150.386719 268.796875 150.121094 269.109375 150.03125 L 277.996094 147.5 L 280.742188 139.304688 " fill-opacity="1" fill-rule="evenodd"/><path fill="#e7e8f0" d="M 155.503906 143.625 C 151.179688 148.152344 150.5625 153.503906 152.300781 157.65625 C 154.054688 161.835938 158.324219 165.136719 164.625 165.136719 L 216.988281 165.136719 C 221.292969 165.136719 224.402344 163.488281 226.492188 161.160156 C 229.527344 157.78125 230.386719 152.695312 229.046875 148.25 C 227.519531 143.167969 223.316406 139.023438 216.988281 139.023438 L 201.332031 139.023438 C 200.3125 139.023438 199.257812 139.046875 198.183594 139.085938 C 202.273438 136.117188 206.421875 132.8125 211.316406 128.65625 C 211.390625 128.59375 211.464844 128.527344 211.535156 128.457031 C 225.855469 114.53125 229.136719 98.285156 224.710938 85.625 C 220.199219 72.726562 207.648438 63.136719 189.453125 63.136719 C 176.132812 63.136719 162.894531 68.636719 156.003906 82.082031 C 155.96875 82.152344 155.933594 82.222656 155.902344 82.296875 C 151.941406 91.195312 155.695312 97.578125 160.890625 100.320312 C 166.253906 103.152344 173.679688 102.148438 177.765625 95.71875 C 177.765625 95.71875 177.765625 95.714844 177.765625 95.714844 C 180.445312 91.492188 185.023438 88.714844 189.453125 88.714844 C 194.476562 88.714844 197.6875 90.511719 198.964844 93.507812 C 201.105469 98.527344 198.425781 105.539062 192.695312 110.019531 C 192.609375 110.085938 192.53125 110.15625 192.453125 110.226562 C 179.273438 122.171875 167.730469 130.601562 155.503906 143.625 " fill-opacity="1" fill-rule="nonzero"/></svg>