<svg xmlns="http://www.w3.org/2000/svg" xmlns:xlink="http://www.w3.org/1999/xlink" width="500" zoomAndPan="magnify" viewBox="0 0 375 374.999991" height="500" preserveAspectRatio="xMidYMid meet" version="1.0"><defs><clipPath id="3fc23e2630"><path d="M 131.25 131.25 L 243.75 131.25 L 243.75 243.75 L 131.25 243.75 Z M 131.25 131.25 " clip-rule="nonzero"/></clipPath><clipPath id="9dce05aa36"><path d="M 148.5 131.25 L 226.5 131.25 C 231.074219 131.25 235.460938 133.066406 238.699219 136.300781 C 241.933594 139.539062 243.75 143.925781 243.75 148.5 L 243.75 226.5 C 243.75 231.074219 241.933594 235.460938 238.699219 238.699219 C 235.460938 241.933594 231.074219 243.75 226.5 243.75 L 148.5 243.75 C 143.925781 243.75 139.539062 241.933594 136.300781 238.699219 C 133.066406 235.460938 131.25 231.074219 131.25 226.5 L 131.25 148.5 C 131.25 143.925781 133.066406 139.539062 136.300781 136.300781 C 139.539062 133.066406 143.925781 131.25 148.5 131.25 Z M 148.5 131.25 " clip-rule="nonzero"/></clipPath><clipPath id="faa6170304"><path d="M 37.5 145 L 239 145 L 239 371.21875 L 37.5 371.21875 Z M 37.5 145 " clip-rule="nonzero"/></clipPath><clipPath id="d6e8b80a91"><path d="M 142 143 L 344.25 143 L 344.25 369 L 142 369 Z M 142 143 " clip-rule="nonzero"/></clipPath><clipPath id="de9426c52c"><path d="M 73 3.71875 L 309 3.71875 L 309 239 L 73 239 Z M 73 3.71875 " clip-rule="nonzero"/></clipPath></defs><g clip-path="url(#3fc23e2630)"><g clip-path="url(#9dce05aa36)"><path fill="#ffffff" d="M 131.25 131.25 L 243.75 131.25 L 243.75 243.75 L 131.25 243.75 Z M 131.25 131.25 " fill-opacity="1" fill-rule="nonzero"/></g></g><g clip-path="url(#faa6170304)"><path fill="#db2f14" d="M 118.6875 145.757812 L 238.71875 204.117188 L 157.535156 371.203125 L 120.976562 292.148438 L 37.507812 312.84375 L 118.6875 145.757812 " fill-opacity="1" fill-rule="evenodd"/></g><path fill="#ff430e" d="M 136.265625 155.945312 L 219.941406 195.019531 L 158.621094 323.382812 L 134.890625 266.765625 L 73.445312 283.417969 L 136.265625 155.945312 " fill-opacity="1" fill-rule="evenodd"/><g clip-path="url(#d6e8b80a91)"><path fill="#db2f14" d="M 262.4375 143.148438 L 142.621094 201.949219 L 224.414062 368.738281 L 260.683594 289.550781 L 344.226562 309.9375 L 262.4375 143.148438 " fill-opacity="1" fill-rule="evenodd"/></g><path fill="#ff430e" d="M 244.898438 153.402344 L 161.367188 192.785156 L 223.152344 320.921875 L 246.679688 264.214844 L 308.183594 280.648438 L 244.898438 153.402344 " fill-opacity="1" fill-rule="evenodd"/><g clip-path="url(#de9426c52c)"><path fill="#f9a159" d="M 190.867188 3.714844 C 255.726562 3.714844 308.382812 56.394531 308.382812 121.273438 C 308.382812 186.15625 255.726562 238.832031 190.867188 238.832031 C 126.011719 238.832031 73.351562 186.15625 73.351562 121.273438 C 73.351562 56.394531 126.011719 3.714844 190.867188 3.714844 " fill-opacity="1" fill-rule="evenodd"/></g><path fill="#fa6b25" d="M 190.867188 29.027344 C 240.890625 29.027344 281.5 70.363281 281.5 121.273438 C 281.5 172.1875 240.890625 213.519531 190.867188 213.519531 C 140.847656 213.519531 100.234375 172.1875 100.234375 121.273438 C 100.234375 70.363281 140.847656 29.027344 190.867188 29.027344 " fill-opacity="1" fill-rule="evenodd"/><path fill="#ffca96" d="M 115.265625 67.929688 C 115.398438 67.539062 115.792969 67.269531 116.238281 67.269531 C 116.683594 67.269531 117.078125 67.539062 117.210938 67.929688 L 120.949219 79.113281 L 133.054688 82.566406 C 133.480469 82.6875 133.769531 83.054688 133.769531 83.464844 C 133.769531 83.878906 133.480469 84.242188 133.054688 84.363281 L 120.949219 87.820312 L 117.210938 99 C 117.078125 99.390625 116.683594 99.660156 116.238281 99.660156 C 115.792969 99.660156 115.398438 99.390625 115.265625 99 L 111.527344 87.820312 L 99.417969 84.363281 C 98.992188 84.242188 98.703125 83.878906 98.703125 83.464844 C 98.703125 83.054688 98.992188 82.6875 99.417969 82.566406 L 111.527344 79.113281 L 115.265625 67.929688 " fill-opacity="1" fill-rule="evenodd"/><path fill="#ffca96" d="M 263.765625 157.886719 C 263.898438 157.488281 264.296875 157.214844 264.75 157.214844 C 265.203125 157.214844 265.601562 157.488281 265.738281 157.886719 L 269.53125 169.234375 L 281.816406 172.742188 C 282.25 172.863281 282.542969 173.234375 282.542969 173.652344 C 282.542969 174.070312 282.25 174.4375 281.816406 174.5625 L 269.53125 178.070312 L 265.738281 189.417969 C 265.601562 189.816406 265.203125 190.089844 264.75 190.089844 C 264.296875 190.089844 263.898438 189.816406 263.765625 189.417969 L 259.96875 178.070312 L 247.683594 174.5625 C 247.25 174.4375 246.957031 174.070312 246.957031 173.652344 C 246.957031 173.234375 247.25 172.863281 247.683594 172.742188 L 259.96875 169.234375 L 263.765625 157.886719 " fill-opacity="1" fill-rule="evenodd"/><path fill="#ffca96" d="M 97.71875 90.917969 C 97.808594 90.65625 98.070312 90.476562 98.371094 90.476562 C 98.671875 90.476562 98.933594 90.65625 99.023438 90.917969 L 101.53125 98.421875 L 109.660156 100.742188 C 109.941406 100.824219 110.136719 101.066406 110.136719 101.34375 C 110.136719 101.621094 109.941406 101.863281 109.660156 101.945312 L 101.53125 104.265625 L 99.023438 111.769531 C 98.933594 112.03125 98.671875 112.210938 98.371094 112.210938 C 98.070312 112.210938 97.808594 112.03125 97.71875 111.769531 L 95.210938 104.265625 L 87.085938 101.945312 C 86.800781 101.863281 86.605469 101.621094 86.605469 101.34375 C 86.605469 101.066406 86.800781 100.824219 87.085938 100.742188 L 95.210938 98.421875 L 97.71875 90.917969 " fill-opacity="1" fill-rule="evenodd"/><path fill="#ffca96" d="M 281.304688 139.203125 C 281.402344 138.914062 281.691406 138.714844 282.019531 138.714844 C 282.347656 138.714844 282.636719 138.914062 282.734375 139.203125 L 285.484375 147.429688 L 294.394531 149.972656 C 294.707031 150.0625 294.921875 150.332031 294.921875 150.632812 C 294.921875 150.9375 294.707031 151.203125 294.394531 151.292969 L 285.484375 153.835938 L 282.734375 162.066406 C 282.636719 162.355469 282.347656 162.554688 282.019531 162.554688 C 281.691406 162.554688 281.402344 162.355469 281.304688 162.066406 L 278.550781 153.835938 L 269.644531 151.292969 C 269.328125 151.203125 269.117188 150.9375 269.117188 150.632812 C 269.117188 150.332031 269.328125 150.0625 269.644531 149.972656 L 278.550781 147.429688 L 281.304688 139.203125 " fill-opacity="1" fill-rule="evenodd"/><path fill="#ffca96" d="M 168.515625 110.320312 C 162.695312 114.976562 162.195312 123.382812 166.347656 128.695312 C 169.023438 132.121094 173.613281 134.484375 180.109375 133.308594 C 184.394531 132.871094 190.40625 132.113281 195.375 133.113281 C 197.484375 133.539062 199.421875 134.226562 200.558594 135.828125 C 201.277344 136.84375 201.609375 138.199219 201.609375 139.925781 C 201.609375 142.847656 200.839844 145.027344 199.417969 146.542969 C 197.074219 149.027344 193.332031 149.753906 189.628906 149.753906 C 184.945312 149.753906 180.527344 148.109375 177.824219 144.574219 C 177.820312 144.566406 177.816406 144.5625 177.8125 144.558594 C 174.625 140.421875 170.523438 138.832031 166.660156 138.871094 C 161.105469 138.925781 155.988281 142.535156 154.214844 147.53125 C 153.019531 150.894531 153.203125 154.929688 155.933594 158.996094 C 162.992188 170.003906 175.054688 175.160156 187.328125 175.160156 C 201.070312 175.160156 211.15625 171.054688 217.855469 164.800781 C 224.789062 158.332031 228.222656 149.492188 228.222656 139.925781 C 228.222656 125.683594 218.4375 113.535156 204.5625 110.136719 L 219.800781 95.890625 C 219.839844 95.855469 219.875 95.820312 219.910156 95.785156 C 224.363281 91.332031 225.078125 85.613281 223.296875 81.035156 C 221.476562 76.359375 217.027344 72.746094 210.859375 72.746094 L 169.46875 72.746094 C 153.230469 72.746094 152.203125 98.421875 169.46875 98.421875 L 181.386719 98.421875 L 168.511719 110.324219 L 168.515625 110.320312 " fill-opacity="1" fill-rule="nonzero"/></svg>