<svg xmlns="http://www.w3.org/2000/svg" xmlns:xlink="http://www.w3.org/1999/xlink" width="500" zoomAndPan="magnify" viewBox="0 0 375 374.999991" height="500" preserveAspectRatio="xMidYMid meet" version="1.0"><defs><clipPath id="9c45885e61"><path d="M 131.25 131.25 L 243.75 131.25 L 243.75 243.75 L 131.25 243.75 Z M 131.25 131.25 " clip-rule="nonzero"/></clipPath><clipPath id="2ef68888b8"><path d="M 148.5 131.25 L 226.5 131.25 C 231.074219 131.25 235.460938 133.066406 238.699219 136.300781 C 241.933594 139.539062 243.75 143.925781 243.75 148.5 L 243.75 226.5 C 243.75 231.074219 241.933594 235.460938 238.699219 238.699219 C 235.460938 241.933594 231.074219 243.75 226.5 243.75 L 148.5 243.75 C 143.925781 243.75 139.539062 241.933594 136.300781 238.699219 C 133.066406 235.460938 131.25 231.074219 131.25 226.5 L 131.25 148.5 C 131.25 143.925781 133.066406 139.539062 136.300781 136.300781 C 139.539062 133.066406 143.925781 131.25 148.5 131.25 Z M 148.5 131.25 " clip-rule="nonzero"/></clipPath><clipPath id="32845f3c63"><path d="M 30.9375 145 L 233 145 L 233 371.429688 L 30.9375 371.429688 Z M 30.9375 145 " clip-rule="nonzero"/></clipPath><clipPath id="a27251491f"><path d="M 136 143 L 337.6875 143 L 337.6875 369 L 136 369 Z M 136 143 " clip-rule="nonzero"/></clipPath><clipPath id="28964383b8"><path d="M 66 3.929688 L 302 3.929688 L 302 240 L 66 240 Z M 66 3.929688 " clip-rule="nonzero"/></clipPath></defs><g clip-path="url(#9c45885e61)"><g clip-path="url(#2ef68888b8)"><path fill="#ffffff" d="M 131.25 131.25 L 243.75 131.25 L 243.75 243.75 L 131.25 243.75 Z M 131.25 131.25 " fill-opacity="1" fill-rule="nonzero"/></g></g><g clip-path="url(#32845f3c63)"><path fill="#db2f14" d="M 112.136719 145.980469 L 232.167969 204.339844 L 150.984375 371.425781 L 114.429688 292.371094 L 30.957031 313.066406 L 112.136719 145.980469 " fill-opacity="1" fill-rule="evenodd"/></g><path fill="#ff430e" d="M 129.714844 156.167969 L 213.390625 195.246094 L 152.070312 323.605469 L 128.335938 266.988281 L 66.898438 283.640625 L 129.714844 156.167969 " fill-opacity="1" fill-rule="evenodd"/><g clip-path="url(#a27251491f)"><path fill="#db2f14" d="M 255.886719 143.371094 L 136.070312 202.171875 L 217.863281 368.960938 L 254.132812 289.769531 L 337.675781 310.160156 L 255.886719 143.371094 " fill-opacity="1" fill-rule="evenodd"/></g><path fill="#ff430e" d="M 238.347656 153.625 L 154.816406 193.007812 L 216.601562 321.144531 L 240.128906 264.441406 L 301.632812 280.867188 L 238.347656 153.625 " fill-opacity="1" fill-rule="evenodd"/><g clip-path="url(#28964383b8)"><path fill="#ffc50d" d="M 184.316406 3.9375 C 249.175781 3.9375 301.828125 56.613281 301.828125 121.496094 C 301.828125 186.378906 249.175781 239.054688 184.316406 239.054688 C 119.460938 239.054688 66.804688 186.378906 66.804688 121.496094 C 66.804688 56.613281 119.460938 3.9375 184.316406 3.9375 " fill-opacity="1" fill-rule="evenodd"/></g><path fill="#f59f0a" d="M 184.316406 29.25 C 234.339844 29.25 274.949219 70.585938 274.949219 121.496094 C 274.949219 172.410156 234.339844 213.742188 184.316406 213.742188 C 134.296875 213.742188 93.683594 172.410156 93.683594 121.496094 C 93.683594 70.585938 134.296875 29.25 184.316406 29.25 " fill-opacity="1" fill-rule="evenodd"/><path fill="#faf29f" d="M 108.714844 68.15625 C 108.847656 67.761719 109.242188 67.492188 109.6875 67.492188 C 110.132812 67.492188 110.527344 67.761719 110.65625 68.15625 L 114.398438 79.335938 L 126.503906 82.789062 C 126.929688 82.914062 127.222656 83.277344 127.222656 83.6875 C 127.222656 84.101562 126.929688 84.464844 126.503906 84.585938 L 114.398438 88.039062 L 110.65625 99.222656 C 110.527344 99.617188 110.132812 99.882812 109.6875 99.882812 C 109.242188 99.882812 108.847656 99.617188 108.714844 99.222656 L 104.976562 88.039062 L 92.867188 84.585938 C 92.441406 84.464844 92.152344 84.101562 92.152344 83.6875 C 92.152344 83.277344 92.441406 82.914062 92.867188 82.789062 L 104.976562 79.335938 L 108.714844 68.15625 " fill-opacity="1" fill-rule="evenodd"/><path fill="#faf29f" d="M 257.214844 158.109375 C 257.347656 157.710938 257.746094 157.4375 258.199219 157.4375 C 258.652344 157.4375 259.050781 157.710938 259.183594 158.109375 L 262.980469 169.457031 L 275.265625 172.960938 C 275.699219 173.085938 275.996094 173.457031 275.996094 173.875 C 275.996094 174.292969 275.699219 174.660156 275.265625 174.785156 L 262.980469 178.289062 L 259.183594 189.636719 C 259.050781 190.035156 258.652344 190.3125 258.199219 190.3125 C 257.746094 190.3125 257.347656 190.035156 257.214844 189.636719 L 253.417969 178.289062 L 241.132812 174.785156 C 240.699219 174.660156 240.40625 174.292969 240.40625 173.875 C 240.40625 173.457031 240.699219 173.085938 241.132812 172.960938 L 253.417969 169.457031 L 257.214844 158.109375 " fill-opacity="1" fill-rule="evenodd"/><path fill="#faf29f" d="M 91.167969 91.140625 C 91.257812 90.878906 91.523438 90.695312 91.820312 90.695312 C 92.121094 90.695312 92.382812 90.878906 92.472656 91.140625 L 94.984375 98.648438 L 103.105469 100.964844 C 103.394531 101.046875 103.585938 101.289062 103.585938 101.566406 C 103.585938 101.84375 103.394531 102.085938 103.105469 102.167969 L 94.984375 104.484375 L 92.472656 111.988281 C 92.382812 112.253906 92.121094 112.4375 91.820312 112.4375 C 91.523438 112.4375 91.257812 112.253906 91.167969 111.988281 L 88.660156 104.484375 L 80.535156 102.167969 C 80.25 102.085938 80.054688 101.84375 80.054688 101.566406 C 80.054688 101.289062 80.25 101.046875 80.535156 100.964844 L 88.660156 98.648438 L 91.167969 91.140625 " fill-opacity="1" fill-rule="evenodd"/><path fill="#faf29f" d="M 274.753906 139.425781 C 274.847656 139.132812 275.140625 138.9375 275.464844 138.9375 C 275.796875 138.9375 276.085938 139.132812 276.183594 139.425781 L 278.933594 147.652344 L 287.84375 150.195312 C 288.15625 150.285156 288.371094 150.554688 288.371094 150.855469 C 288.371094 151.160156 288.15625 151.425781 287.84375 151.515625 L 278.933594 154.058594 L 276.183594 162.285156 C 276.085938 162.578125 275.796875 162.777344 275.464844 162.777344 C 275.140625 162.777344 274.847656 162.578125 274.753906 162.285156 L 272 154.058594 L 263.089844 151.515625 C 262.777344 151.425781 262.5625 151.160156 262.5625 150.855469 C 262.5625 150.554688 262.777344 150.285156 263.089844 150.195312 L 272 147.652344 L 274.753906 139.425781 " fill-opacity="1" fill-rule="evenodd"/><path fill="#faf29f" d="M 175.992188 161.273438 C 175.992188 169.144531 182.507812 173.328125 189.335938 173.277344 C 196.140625 173.226562 202.609375 168.917969 202.609375 161.273438 L 202.609375 85.484375 C 202.609375 78.730469 200.171875 74.625 197.085938 72.507812 C 193.789062 70.25 189.347656 69.945312 184.6875 71.9375 C 184.699219 71.933594 165.804688 78.90625 165.804688 78.90625 C 160.425781 80.703125 157.660156 84.214844 156.636719 87.894531 C 154.191406 96.6875 162.261719 107.425781 173.617188 103.734375 C 173.710938 103.707031 173.800781 103.671875 173.890625 103.636719 L 175.992188 102.792969 L 175.992188 161.273438 " fill-opacity="1" fill-rule="nonzero"/></svg>