<svg width="10" height="10" viewBox="0 0 10 10" fill="none" xmlns="http://www.w3.org/2000/svg">
<path d="M5.625 8.4375C5.79759 8.4375 5.9375 8.29759 5.9375 8.125C5.9375 7.95241 5.79759 7.8125 5.625 7.8125C5.45241 7.8125 5.3125 7.95241 5.3125 8.125C5.3125 8.29759 5.45241 8.4375 5.625 8.4375Z" fill="#F8F8F8"/>
<path d="M8.75 6.25C9.09469 6.25 9.375 5.96969 9.375 5.625V4.375C9.375 4.03063 9.09469 3.75 8.75 3.75H8.4375V2.1875C8.4375 1.84313 8.15719 1.5625 7.8125 1.5625H6.25V1.25C6.25 0.905625 5.96969 0.625 5.625 0.625H4.375C4.03031 0.625 3.75 0.905625 3.75 1.25V1.5625H2.1875C1.84281 1.5625 1.5625 1.84313 1.5625 2.1875V3.79438C1.025 3.93406 0.625 4.41937 0.625 5C0.625 5.58063 1.025 6.06562 1.5625 6.20562V7.8125C1.5625 8.15719 1.84281 8.4375 2.1875 8.4375H4.375V8.75C4.375 9.09469 4.65531 9.375 5 9.375H8.75C9.09469 9.375 9.375 9.09469 9.375 8.75V7.5C9.375 7.15563 9.09469 6.875 8.75 6.875H8.4375V6.25H8.75ZM8.75 5.625H7.5V4.375H8.75V5.625ZM4.375 1.25H5.625V2.5H4.375V1.25ZM3.75 2.1875V2.5C3.75 2.84469 4.03031 3.125 4.375 3.125H5.625C5.96969 3.125 6.25 2.84469 6.25 2.5V2.1875H7.8125V3.75H7.5C7.15531 3.75 6.875 4.03063 6.875 4.375V4.6875H3.08062C3.02447 4.47274 2.91213 4.2768 2.75517 4.11983C2.5982 3.96287 2.40226 3.85053 2.1875 3.79438V2.1875H3.75ZM1.25 5C1.25 4.65563 1.53031 4.375 1.875 4.375C2.21969 4.375 2.5 4.65563 2.5 5C2.5 5.34437 2.21969 5.625 1.875 5.625C1.53031 5.625 1.25 5.34469 1.25 5ZM8.75 8.75H5V7.5H8.75V8.75ZM7.8125 6.875H5C4.65531 6.875 4.375 7.15563 4.375 7.5V7.8125H2.1875V6.20562C2.40226 6.14947 2.5982 6.03713 2.75517 5.88017C2.91213 5.7232 3.02447 5.52726 3.08062 5.3125H6.875V5.625C6.875 5.96969 7.15531 6.25 7.5 6.25H7.8125V6.875Z" fill="#F8F8F8"/>
</svg>
