<svg xmlns="http://www.w3.org/2000/svg" xmlns:xlink="http://www.w3.org/1999/xlink" width="500" zoomAndPan="magnify" viewBox="0 0 375 374.999991" height="500" preserveAspectRatio="xMidYMid meet" version="1.0"><path fill="#ae9fcf" d="M 367.492188 245.230469 C 366.261719 250.871094 364.726562 256.179688 362.960938 261.042969 C 351.546875 292.394531 324.519531 320.539062 289.886719 339.832031 C 289.507812 340.046875 289.125 340.257812 288.738281 340.472656 C 288.375 340.671875 288.007812 340.871094 287.640625 341.066406 C 286.542969 341.664062 285.441406 342.25 284.332031 342.816406 C 284.074219 342.957031 283.816406 343.085938 283.554688 343.222656 C 282.988281 343.515625 282.421875 343.800781 281.84375 344.09375 C 245 362.5625 200.726562 371.171875 157.808594 363.734375 L 157.804688 363.734375 C 142.5625 361.09375 127.484375 356.425781 112.972656 349.453125 C 28.847656 309.035156 -0.0078125 186.679688 24.398438 120.574219 C 38.738281 81.734375 60.386719 65.007812 68.691406 57.863281 C 102.96875 28.359375 134.140625 23.144531 141.871094 20.75 C 196.546875 3.84375 278.878906 11.847656 285.78125 32.441406 C 288.691406 41.128906 278.203125 44.9375 277.394531 58.726562 C 275.710938 87.359375 319.121094 101.738281 344.5 132.003906 C 371.589844 164.300781 375 210.921875 367.492188 245.230469 " fill-opacity="1" fill-rule="nonzero"/><path fill="#523762" d="M 340.890625 236.449219 L 93.105469 236.449219 L 93.105469 66.414062 L 346.542969 68.660156 L 346.527344 230.355469 C 346.523438 233.71875 344.003906 236.449219 340.890625 236.449219 " fill-opacity="1" fill-rule="nonzero"/><path fill="#230b41" d="M 224.035156 92.445312 L 78.636719 91.71875 C 76.605469 91.707031 75.265625 89.597656 76.125 87.757812 L 118.851562 29.585938 C 119.792969 28.304688 121.296875 27.554688 122.886719 27.585938 C 140.007812 27.921875 240.507812 25.136719 240.507812 25.136719 L 224.035156 92.445312 " fill-opacity="1" fill-rule="nonzero"/><path fill="#ae9fcf" d="M 135.167969 158.957031 L 151.742188 158.957031 C 152.507812 158.957031 153.128906 158.339844 153.128906 157.570312 L 153.128906 132.246094 C 153.128906 131.476562 152.507812 130.855469 151.742188 130.855469 L 135.167969 130.855469 C 134.402344 130.855469 133.78125 131.476562 133.78125 132.246094 L 133.78125 157.570312 C 133.78125 158.339844 134.402344 158.957031 135.167969 158.957031 " fill-opacity="1" fill-rule="nonzero"/><path fill="#ae9fcf" d="M 112.613281 158.957031 L 128.902344 158.957031 C 129.75 158.957031 130.433594 158.273438 130.433594 157.429688 L 130.433594 132.382812 C 130.433594 131.539062 129.75 130.855469 128.902344 130.855469 L 112.613281 130.855469 C 111.769531 130.855469 111.085938 131.539062 111.085938 132.382812 L 111.085938 157.429688 C 111.085938 158.273438 111.769531 158.957031 112.613281 158.957031 " fill-opacity="1" fill-rule="nonzero"/><path fill="#ae9fcf" d="M 134.773438 190.183594 L 152.136719 190.183594 C 152.683594 190.183594 153.128906 189.742188 153.128906 189.191406 L 153.128906 163.074219 C 153.128906 162.523438 152.683594 162.082031 152.136719 162.082031 L 134.773438 162.082031 C 134.226562 162.082031 133.78125 162.523438 133.78125 163.074219 L 133.78125 189.191406 C 133.78125 189.742188 134.226562 190.183594 134.773438 190.183594 " fill-opacity="1" fill-rule="nonzero"/><path fill="#ae9fcf" d="M 112.652344 190.183594 L 128.863281 190.183594 C 129.730469 190.183594 130.429688 189.480469 130.429688 188.617188 L 130.429688 163.648438 C 130.429688 162.785156 129.730469 162.082031 128.863281 162.082031 L 112.652344 162.082031 C 111.785156 162.082031 111.082031 162.785156 111.082031 163.648438 L 111.082031 188.617188 C 111.082031 189.480469 111.785156 190.183594 112.652344 190.183594 " fill-opacity="1" fill-rule="nonzero"/><path fill="#ffffff" d="M 165.09375 232.082031 L 165.09375 70.792969 L 262.859375 27.203125 L 356.257812 71.433594 L 355.929688 232.679688 C 355.875 234.878906 353.964844 237.074219 351.648438 237.054688 L 170.273438 237.054688 C 167.40625 237.03125 165.09375 234.8125 165.09375 232.082031 " fill-opacity="1" fill-rule="nonzero"/><path fill="#000000" d="M 351.648438 236.414062 C 351.65625 236.414062 351.667969 236.414062 351.675781 236.414062 C 353.691406 236.414062 355.242188 234.4375 355.285156 232.660156 L 355.613281 71.839844 L 262.851562 27.914062 L 165.734375 71.210938 L 165.734375 232.082031 C 165.734375 234.449219 167.773438 236.394531 170.28125 236.414062 Z M 351.679688 237.695312 C 351.667969 237.695312 351.65625 237.695312 351.644531 237.695312 L 170.277344 237.695312 C 167.0625 237.667969 164.449219 235.152344 164.449219 232.082031 L 164.449219 70.792969 C 164.449219 70.539062 164.601562 70.308594 164.832031 70.207031 L 262.59375 26.617188 C 262.765625 26.542969 262.960938 26.542969 263.132812 26.625 L 356.53125 70.855469 C 356.757812 70.960938 356.898438 71.1875 356.898438 71.433594 L 356.570312 232.679688 C 356.503906 235.367188 354.21875 237.695312 351.679688 237.695312 " fill-opacity="1" fill-rule="nonzero"/><path fill="#ae9fcf" d="M 322.542969 160.976562 L 339.757812 160.976562 C 340.554688 160.976562 341.199219 160.335938 341.199219 159.539062 L 341.199219 133.273438 C 341.199219 132.476562 340.554688 131.832031 339.757812 131.832031 L 322.542969 131.832031 C 321.75 131.832031 321.101562 132.476562 321.101562 133.273438 L 321.101562 159.539062 C 321.101562 160.335938 321.75 160.976562 322.542969 160.976562 " fill-opacity="1" fill-rule="nonzero"/><path fill="#ae9fcf" d="M 299.113281 160.976562 L 316.039062 160.976562 C 316.914062 160.976562 317.625 160.265625 317.625 159.390625 L 317.625 133.417969 C 317.625 132.542969 316.914062 131.832031 316.039062 131.832031 L 299.113281 131.832031 C 298.238281 131.832031 297.527344 132.542969 297.527344 133.417969 L 297.527344 159.390625 C 297.527344 160.265625 298.238281 160.976562 299.113281 160.976562 " fill-opacity="1" fill-rule="nonzero"/><path fill="#ae9fcf" d="M 322.132812 193.367188 L 340.167969 193.367188 C 340.738281 193.367188 341.199219 192.902344 341.199219 192.335938 L 341.199219 165.246094 C 341.199219 164.679688 340.738281 164.21875 340.167969 164.21875 L 322.132812 164.21875 C 321.5625 164.21875 321.101562 164.679688 321.101562 165.246094 L 321.101562 192.335938 C 321.101562 192.902344 321.5625 193.367188 322.132812 193.367188 " fill-opacity="1" fill-rule="nonzero"/><path fill="#ae9fcf" d="M 299.15625 193.367188 L 315.996094 193.367188 C 316.894531 193.367188 317.625 192.636719 317.625 191.738281 L 317.625 165.84375 C 317.625 164.945312 316.894531 164.21875 315.996094 164.21875 L 299.15625 164.21875 C 298.253906 164.21875 297.527344 164.945312 297.527344 165.84375 L 297.527344 191.738281 C 297.527344 192.636719 298.253906 193.367188 299.15625 193.367188 " fill-opacity="1" fill-rule="nonzero"/><path fill="#ae9fcf" d="M 263.667969 77.007812 L 280.882812 77.007812 C 281.675781 77.007812 282.324219 76.359375 282.324219 75.566406 L 282.324219 54.863281 C 282.324219 54.066406 281.675781 53.421875 280.882812 53.421875 L 263.667969 53.421875 C 262.871094 53.421875 262.226562 54.066406 262.226562 54.863281 L 262.226562 75.566406 C 262.226562 76.359375 262.871094 77.007812 263.667969 77.007812 " fill-opacity="1" fill-rule="nonzero"/><path fill="#ae9fcf" d="M 240.238281 77.007812 L 257.160156 77.007812 C 258.039062 77.007812 258.75 76.296875 258.75 75.421875 L 258.75 55.007812 C 258.75 54.128906 258.039062 53.421875 257.160156 53.421875 L 240.238281 53.421875 C 239.359375 53.421875 238.648438 54.128906 238.648438 55.007812 L 238.648438 75.421875 C 238.648438 76.296875 239.359375 77.007812 240.238281 77.007812 " fill-opacity="1" fill-rule="nonzero"/><path fill="#ae9fcf" d="M 263.257812 103.214844 L 281.292969 103.214844 C 281.863281 103.214844 282.324219 102.75 282.324219 102.183594 L 282.324219 80.65625 C 282.324219 80.089844 281.863281 79.628906 281.292969 79.628906 L 263.257812 79.628906 C 262.6875 79.628906 262.226562 80.089844 262.226562 80.65625 L 262.226562 102.183594 C 262.226562 102.75 262.6875 103.214844 263.257812 103.214844 " fill-opacity="1" fill-rule="nonzero"/><path fill="#ae9fcf" d="M 240.277344 103.214844 L 257.117188 103.214844 C 258.019531 103.214844 258.746094 102.484375 258.746094 101.585938 L 258.746094 81.253906 C 258.746094 80.355469 258.019531 79.628906 257.117188 79.628906 L 240.277344 79.628906 C 239.378906 79.628906 238.648438 80.355469 238.648438 81.253906 L 238.648438 101.585938 C 238.648438 102.484375 239.378906 103.214844 240.277344 103.214844 " fill-opacity="1" fill-rule="nonzero"/><path fill="#ae9fcf" d="M 202.605469 160.929688 L 219.820312 160.929688 C 220.617188 160.929688 221.261719 160.285156 221.261719 159.488281 L 221.261719 133.179688 C 221.261719 132.382812 220.617188 131.738281 219.820312 131.738281 L 202.605469 131.738281 C 201.808594 131.738281 201.164062 132.382812 201.164062 133.179688 L 201.164062 159.488281 C 201.164062 160.285156 201.808594 160.929688 202.605469 160.929688 " fill-opacity="1" fill-rule="nonzero"/><path fill="#ae9fcf" d="M 179.175781 160.929688 L 196.097656 160.929688 C 196.972656 160.929688 197.683594 160.21875 197.683594 159.34375 L 197.683594 133.324219 C 197.683594 132.449219 196.972656 131.738281 196.097656 131.738281 L 179.175781 131.738281 C 178.296875 131.738281 177.585938 132.449219 177.585938 133.324219 L 177.585938 159.34375 C 177.585938 160.21875 178.296875 160.929688 179.175781 160.929688 " fill-opacity="1" fill-rule="nonzero"/><path fill="#ae9fcf" d="M 202.191406 193.363281 L 220.226562 193.363281 C 220.796875 193.363281 221.261719 192.902344 221.261719 192.332031 L 221.261719 165.203125 C 221.261719 164.632812 220.796875 164.171875 220.226562 164.171875 L 202.191406 164.171875 C 201.625 164.171875 201.164062 164.632812 201.164062 165.203125 L 201.164062 192.332031 C 201.164062 192.902344 201.625 193.363281 202.191406 193.363281 " fill-opacity="1" fill-rule="nonzero"/><path fill="#ae9fcf" d="M 179.214844 193.363281 L 196.054688 193.363281 C 196.953125 193.363281 197.683594 192.636719 197.683594 191.738281 L 197.683594 165.800781 C 197.683594 164.902344 196.953125 164.171875 196.054688 164.171875 L 179.214844 164.171875 C 178.316406 164.171875 177.585938 164.902344 177.585938 165.800781 L 177.585938 191.738281 C 177.585938 192.636719 178.316406 193.363281 179.214844 193.363281 " fill-opacity="1" fill-rule="nonzero"/><path fill="#ffffff" d="M 262.550781 12.042969 L 368.738281 68.648438 C 370.988281 69.847656 371.414062 72.289062 369.65625 73.910156 L 365.601562 78.988281 C 363.796875 81.246094 360.652344 81.921875 358.078125 80.605469 L 261.773438 31.390625 C 261.128906 31.0625 260.367188 31.058594 259.722656 31.386719 L 161.046875 81.117188 C 159.746094 81.773438 158.164062 81.449219 157.230469 80.332031 L 153.050781 75.363281 C 150.675781 72.535156 151.652344 68.757812 155.253906 66.855469 L 258.945312 12.035156 C 260.074219 11.441406 261.425781 11.441406 262.550781 12.042969 " fill-opacity="1" fill-rule="nonzero"/><path fill="#000000" d="M 260.742188 12.230469 C 260.230469 12.230469 259.714844 12.355469 259.246094 12.601562 L 155.550781 67.421875 C 153.890625 68.300781 152.769531 69.667969 152.476562 71.175781 C 152.222656 72.484375 152.601562 73.828125 153.542969 74.949219 L 157.722656 79.921875 C 158.46875 80.8125 159.71875 81.066406 160.757812 80.542969 L 259.433594 30.8125 C 260.261719 30.394531 261.246094 30.398438 262.066406 30.820312 L 358.371094 80.035156 C 360.660156 81.207031 363.492188 80.597656 365.097656 78.589844 L 369.15625 73.507812 C 369.175781 73.480469 369.199219 73.457031 369.222656 73.4375 C 369.875 72.832031 370.179688 72.085938 370.085938 71.332031 C 369.976562 70.488281 369.375 69.714844 368.4375 69.214844 L 262.246094 12.609375 C 261.777344 12.359375 261.261719 12.230469 260.742188 12.230469 Z M 159.628906 82.097656 C 158.542969 82.097656 157.476562 81.628906 156.738281 80.746094 L 152.5625 75.773438 C 151.363281 74.347656 150.882812 72.628906 151.214844 70.933594 C 151.585938 69.042969 152.945312 67.347656 154.953125 66.289062 L 258.648438 11.46875 C 259.964844 10.769531 261.535156 10.773438 262.851562 11.472656 L 369.039062 68.082031 C 370.351562 68.78125 371.195312 69.90625 371.355469 71.167969 C 371.503906 72.316406 371.058594 73.472656 370.128906 74.34375 L 366.101562 79.390625 C 364.117188 81.875 360.617188 82.628906 357.785156 81.179688 L 261.480469 31.964844 C 261.023438 31.726562 260.472656 31.726562 260.011719 31.957031 L 161.339844 81.691406 C 160.792969 81.964844 160.207031 82.097656 159.628906 82.097656 " fill-opacity="1" fill-rule="nonzero"/><path fill="#ae9fcf" d="M 283.746094 240.949219 L 235.628906 240.949219 C 234.132812 240.949219 232.917969 239.734375 232.917969 238.234375 L 232.917969 133.390625 C 232.917969 131.890625 234.132812 130.675781 235.628906 130.675781 L 283.746094 130.675781 C 285.246094 130.675781 286.457031 131.890625 286.457031 133.390625 L 286.457031 238.234375 C 286.457031 239.734375 285.246094 240.949219 283.746094 240.949219 " fill-opacity="1" fill-rule="nonzero"/><path fill="#230b41" d="M 284.457031 236.890625 L 237.9375 237.054688 C 236.785156 237.054688 235.855469 236.125 235.855469 234.976562 L 235.855469 135.828125 C 235.855469 134.679688 236.785156 133.75 237.9375 133.75 L 282.949219 133.800781 C 283.773438 133.804688 284.433594 134.480469 284.414062 135.296875 L 284.457031 236.890625 " fill-opacity="1" fill-rule="nonzero"/><path fill="#523762" d="M 293.1875 240.746094 L 226.417969 240.746094 C 225.710938 240.746094 225.136719 240.175781 225.136719 239.46875 L 225.136719 232.414062 C 225.136719 231.707031 225.710938 231.132812 226.417969 231.132812 L 293.1875 231.132812 C 293.894531 231.132812 294.46875 231.707031 294.46875 232.414062 L 294.46875 239.46875 C 294.46875 240.175781 293.894531 240.746094 293.1875 240.746094 " fill-opacity="1" fill-rule="nonzero"/><path fill="#230b41" d="M 226.417969 231.777344 C 226.066406 231.777344 225.777344 232.0625 225.777344 232.414062 L 225.777344 239.46875 C 225.777344 239.820312 226.066406 240.109375 226.417969 240.109375 L 293.1875 240.109375 C 293.539062 240.109375 293.824219 239.820312 293.824219 239.46875 L 293.824219 232.414062 C 293.824219 232.0625 293.539062 231.777344 293.1875 231.777344 Z M 293.1875 241.390625 L 226.417969 241.390625 C 225.359375 241.390625 224.496094 240.527344 224.496094 239.46875 L 224.496094 232.414062 C 224.496094 231.355469 225.359375 230.492188 226.417969 230.492188 L 293.1875 230.492188 C 294.246094 230.492188 295.109375 231.355469 295.109375 232.414062 L 295.109375 239.46875 C 295.109375 240.527344 294.246094 241.390625 293.1875 241.390625 " fill-opacity="1" fill-rule="nonzero"/><path fill="#ae9fcf" d="M 341.699219 116.828125 L 175.589844 116.828125 C 175.234375 116.828125 174.945312 116.542969 174.945312 116.183594 C 174.945312 115.832031 175.234375 115.542969 175.589844 115.542969 L 341.699219 115.542969 C 342.054688 115.542969 342.339844 115.832031 342.339844 116.183594 C 342.339844 116.542969 342.054688 116.828125 341.699219 116.828125 " fill-opacity="1" fill-rule="nonzero"/><path fill="#230b41" d="M 46.265625 315.921875 C 46.265625 315.921875 45.035156 338.230469 43.421875 366.273438 C 43.417969 366.3125 43.414062 366.398438 43.414062 366.398438 L 146.511719 366.480469 C 146.511719 366.480469 146.496094 366.363281 146.484375 366.304688 C 141.910156 336.207031 137.652344 310.394531 137.652344 310.394531 L 77.21875 315.058594 L 46.265625 315.921875 " fill-opacity="1" fill-rule="nonzero"/><path fill="#ffffff" d="M 57.21875 339.574219 C 56.90625 339.574219 56.632812 339.339844 56.585938 339.023438 C 56.535156 338.671875 56.777344 338.347656 57.125 338.296875 C 71.007812 336.265625 72.679688 324.738281 72.742188 324.25 C 72.789062 323.898438 73.113281 323.648438 73.460938 323.695312 C 73.8125 323.742188 74.0625 324.0625 74.015625 324.414062 C 74 324.542969 72.179688 337.390625 57.3125 339.566406 C 57.28125 339.570312 57.25 339.574219 57.21875 339.574219 " fill-opacity="1" fill-rule="nonzero"/><path fill="#ffffff" d="M 137.152344 339.078125 C 137.097656 339.078125 137.039062 339.074219 136.984375 339.058594 C 127.65625 336.492188 124.894531 324.964844 124.78125 324.476562 C 124.699219 324.128906 124.914062 323.785156 125.261719 323.707031 C 125.605469 323.625 125.949219 323.839844 126.03125 324.1875 C 126.058594 324.296875 128.742188 335.457031 137.324219 337.820312 C 137.664062 337.914062 137.867188 338.269531 137.773438 338.609375 C 137.695312 338.894531 137.433594 339.078125 137.152344 339.078125 " fill-opacity="1" fill-rule="nonzero"/><path fill="#ffffff" d="M 147.492188 207.699219 C 147.492188 207.699219 161.742188 230.160156 177.371094 227.851562 C 203.992188 223.914062 226.425781 193.734375 226.425781 193.734375 C 226.425781 193.734375 234.964844 177.644531 241.738281 171.65625 C 248.507812 165.664062 249.578125 164.867188 249.578125 164.867188 C 249.578125 164.867188 251.925781 167.703125 249.882812 171.269531 C 247.839844 174.835938 242.050781 181.601562 242.050781 181.601562 C 242.050781 181.601562 248.941406 184.96875 246.277344 192.792969 C 244.527344 197.933594 240.558594 200.058594 237.484375 200.933594 C 234.898438 201.667969 232.9375 203.765625 232.25 206.359375 C 228.484375 220.589844 214.011719 260.089844 172.582031 262.109375 C 145.394531 263.433594 133.324219 249.171875 121.003906 237.878906 L 147.492188 207.699219 " fill-opacity="1" fill-rule="nonzero"/><path fill="#000000" d="M 121.898438 237.832031 C 122.949219 238.800781 124.011719 239.800781 125.042969 240.769531 C 136.464844 251.527344 148.28125 262.648438 172.550781 261.46875 C 214.339844 259.433594 228.335938 218.648438 231.628906 206.195312 C 232.382812 203.351562 234.558594 201.097656 237.304688 200.316406 C 240.203125 199.492188 244.003906 197.480469 245.667969 192.585938 C 248.125 185.378906 242.03125 182.304688 241.769531 182.175781 C 241.589844 182.089844 241.464844 181.925781 241.421875 181.730469 C 241.382812 181.535156 241.433594 181.332031 241.5625 181.183594 C 241.621094 181.117188 247.335938 174.421875 249.324219 170.949219 C 250.636719 168.664062 249.925781 166.714844 249.429688 165.8125 C 248.613281 166.496094 246.640625 168.175781 242.164062 172.136719 C 235.554688 177.980469 227.078125 193.875 226.992188 194.035156 C 226.980469 194.066406 226.960938 194.09375 226.941406 194.117188 C 226.714844 194.421875 204.039062 224.554688 177.46875 228.484375 C 176.660156 228.605469 175.855469 228.660156 175.0625 228.660156 C 161.601562 228.664062 149.910156 212.449219 147.421875 208.753906 Z M 169.148438 262.835938 C 146.597656 262.839844 134.710938 251.640625 124.160156 241.703125 C 122.984375 240.59375 121.765625 239.445312 120.570312 238.351562 C 120.3125 238.117188 120.289062 237.71875 120.519531 237.457031 L 147.011719 207.273438 C 147.144531 207.121094 147.339844 207.042969 147.542969 207.054688 C 147.746094 207.070312 147.925781 207.183594 148.035156 207.355469 C 148.167969 207.5625 160.914062 227.371094 175.105469 227.375 C 175.828125 227.375 176.550781 227.320312 177.277344 227.214844 C 202.902344 223.425781 224.964844 194.605469 225.882812 193.386719 C 226.484375 192.261719 234.640625 177.074219 241.3125 171.175781 C 248.027344 165.234375 249.152344 164.382812 249.195312 164.351562 C 249.46875 164.148438 249.855469 164.191406 250.074219 164.457031 C 250.179688 164.585938 252.679688 167.679688 250.441406 171.589844 C 248.71875 174.59375 244.480469 179.714844 243.03125 181.441406 C 244.800781 182.609375 249.167969 186.296875 246.886719 193 C 245.039062 198.421875 240.847656 200.644531 237.65625 201.550781 C 235.34375 202.210938 233.511719 204.113281 232.871094 206.523438 C 229.519531 219.1875 215.273438 260.671875 172.617188 262.75 C 171.433594 262.808594 170.273438 262.835938 169.148438 262.835938 " fill-opacity="1" fill-rule="nonzero"/><path fill="#000000" d="M 18.648438 256.773438 C 18.648438 256.773438 3.296875 197.386719 46.636719 186.804688 C 77.011719 179.386719 104.769531 176.535156 119.691406 182.164062 C 139.789062 189.742188 161.121094 217.117188 161.121094 217.117188 L 132.804688 241.988281 C 132.804688 241.988281 138.613281 281.8125 139.988281 306.488281 C 140.582031 317.148438 143.765625 335.113281 99.691406 327.183594 C 71.144531 322.046875 49.429688 338.4375 44.105469 334.128906 C 40.320312 331.074219 42.976562 313.242188 42.28125 302.503906 L 36.097656 253.144531 L 18.648438 256.773438 " fill-opacity="1" fill-rule="nonzero"/><path fill="#230b41" d="M 158.105469 298.09375 L 97.984375 298.09375 C 96.117188 298.09375 94.757812 296.386719 95.125 294.507812 L 110.996094 213.027344 C 111.289062 211.527344 112.59375 210.429688 114.082031 210.429688 L 174.199219 210.429688 C 176.066406 210.429688 177.429688 212.136719 177.0625 214.015625 L 161.1875 295.496094 C 160.898438 296.996094 159.589844 298.09375 158.105469 298.09375 " fill-opacity="1" fill-rule="nonzero"/><path fill="#523762" d="M 160.910156 297.882812 L 100.789062 297.882812 C 98.921875 297.882812 97.5625 296.179688 97.929688 294.300781 L 113.796875 212.964844 C 114.085938 211.46875 115.394531 210.367188 116.878906 210.367188 L 177 210.367188 C 178.867188 210.367188 180.226562 212.074219 179.859375 213.949219 L 163.992188 295.289062 C 163.703125 296.785156 162.394531 297.882812 160.910156 297.882812 " fill-opacity="1" fill-rule="nonzero"/><path fill="#000000" d="M 116.875 211.117188 C 115.6875 211.117188 114.65625 211.988281 114.421875 213.191406 L 98.558594 294.429688 C 98.417969 295.148438 98.59375 295.878906 99.042969 296.421875 C 99.480469 296.953125 100.097656 297.242188 100.789062 297.242188 L 160.910156 297.242188 C 162.097656 297.242188 163.128906 296.367188 163.363281 295.167969 L 179.226562 213.929688 C 179.367188 213.207031 179.191406 212.480469 178.742188 211.933594 C 178.308594 211.40625 177.6875 211.117188 176.996094 211.117188 Z M 160.910156 298.523438 L 100.789062 298.523438 C 99.722656 298.523438 98.726562 298.058594 98.054688 297.238281 C 97.359375 296.394531 97.085938 295.28125 97.296875 294.179688 L 113.164062 212.941406 C 113.511719 211.140625 115.074219 209.832031 116.875 209.832031 L 176.996094 209.832031 C 178.0625 209.832031 179.058594 210.300781 179.734375 211.117188 C 180.425781 211.960938 180.703125 213.078125 180.488281 214.175781 L 164.625 295.414062 C 164.273438 297.21875 162.710938 298.523438 160.910156 298.523438 " fill-opacity="1" fill-rule="nonzero"/><path fill="#ae9fcf" d="M 153.96875 217.921875 L 136.539062 217.921875 C 133.753906 217.921875 131.730469 215.371094 132.296875 212.574219 L 132.792969 210.125 C 132.839844 209.875 133.058594 209.691406 133.308594 209.691406 L 160.152344 209.691406 C 160.464844 209.691406 160.695312 209.980469 160.628906 210.292969 L 160.128906 212.78125 C 159.527344 215.75 156.925781 217.921875 153.96875 217.921875 " fill-opacity="1" fill-rule="nonzero"/><path fill="#000000" d="M 133.402344 210.335938 L 132.925781 212.703125 C 132.6875 213.871094 132.972656 215.050781 133.699219 215.941406 C 134.394531 216.792969 135.429688 217.28125 136.539062 217.28125 L 153.96875 217.28125 C 156.632812 217.28125 158.957031 215.335938 159.5 212.652344 L 159.964844 210.335938 Z M 153.96875 218.5625 L 136.539062 218.5625 C 135.042969 218.5625 133.644531 217.90625 132.707031 216.753906 C 131.734375 215.566406 131.355469 213.996094 131.667969 212.449219 L 132.164062 209.996094 C 132.273438 209.449219 132.753906 209.050781 133.308594 209.050781 L 160.152344 209.050781 C 160.492188 209.050781 160.808594 209.199219 161.023438 209.464844 C 161.242188 209.730469 161.328125 210.082031 161.257812 210.421875 L 160.757812 212.90625 C 160.09375 216.183594 157.238281 218.5625 153.96875 218.5625 " fill-opacity="1" fill-rule="nonzero"/><path fill="#ae9fcf" d="M 145.675781 207.019531 L 145.683594 206.964844 C 145.855469 206.113281 146.601562 205.484375 147.449219 205.484375 C 148.523438 205.484375 149.304688 206.472656 149.085938 207.554688 L 149.078125 207.605469 C 148.90625 208.457031 148.160156 209.085938 147.3125 209.085938 C 146.238281 209.085938 145.457031 208.101562 145.675781 207.019531 Z M 142.339844 215.058594 L 149.78125 215.058594 C 150.0625 215.058594 150.3125 214.871094 150.367188 214.585938 L 151.625 207.960938 C 152.128906 205.324219 150.222656 202.933594 147.609375 202.933594 C 145.523438 202.933594 143.6875 204.480469 143.285156 206.589844 L 141.796875 214.398438 C 141.726562 214.757812 141.984375 215.058594 142.339844 215.058594 " fill-opacity="1" fill-rule="nonzero"/><path fill="#000000" d="M 146.304688 207.144531 C 146.238281 207.480469 146.316406 207.820312 146.523438 208.074219 C 146.71875 208.3125 147 208.445312 147.3125 208.445312 C 147.851562 208.445312 148.335938 208.03125 148.449219 207.476562 L 148.457031 207.429688 C 148.523438 207.089844 148.445312 206.753906 148.238281 206.5 C 148.042969 206.257812 147.761719 206.128906 147.449219 206.128906 C 146.902344 206.128906 146.425781 206.535156 146.3125 207.09375 Z M 147.3125 209.726562 C 146.617188 209.726562 145.96875 209.421875 145.53125 208.886719 C 145.078125 208.335938 144.902344 207.609375 145.042969 206.890625 L 145.054688 206.839844 C 145.285156 205.683594 146.292969 204.84375 147.449219 204.84375 C 148.144531 204.84375 148.792969 205.152344 149.230469 205.683594 C 149.683594 206.238281 149.859375 206.964844 149.714844 207.679688 L 149.707031 207.730469 C 149.476562 208.886719 148.46875 209.726562 147.3125 209.726562 Z M 142.445312 214.414062 L 149.746094 214.414062 L 150.996094 207.839844 C 151.203125 206.742188 150.933594 205.640625 150.246094 204.8125 C 149.597656 204.023438 148.636719 203.574219 147.609375 203.574219 C 145.816406 203.574219 144.261719 204.894531 143.914062 206.710938 Z M 142.425781 214.519531 Z M 149.78125 215.699219 L 142.339844 215.699219 C 141.976562 215.699219 141.636719 215.542969 141.410156 215.269531 C 141.183594 214.996094 141.09375 214.632812 141.164062 214.277344 L 142.652344 206.46875 C 143.117188 204.046875 145.199219 202.289062 147.609375 202.289062 C 149.019531 202.289062 150.34375 202.910156 151.238281 203.992188 C 152.167969 205.117188 152.539062 206.609375 152.257812 208.078125 L 150.996094 214.707031 C 150.882812 215.292969 150.382812 215.699219 149.78125 215.699219 " fill-opacity="1" fill-rule="nonzero"/><path fill="#000000" d="M 49.429688 250.609375 C 49.140625 250.609375 48.878906 250.414062 48.808594 250.121094 C 48.722656 249.777344 48.933594 249.429688 49.277344 249.34375 L 58.097656 247.164062 L 51.4375 224.167969 C 51.339844 223.828125 51.535156 223.472656 51.875 223.371094 C 52.21875 223.273438 52.574219 223.472656 52.671875 223.8125 L 59.515625 247.449219 C 59.566406 247.617188 59.542969 247.800781 59.457031 247.949219 C 59.367188 248.101562 59.222656 248.210938 59.054688 248.253906 L 49.585938 250.589844 C 49.53125 250.605469 49.480469 250.609375 49.429688 250.609375 " fill-opacity="1" fill-rule="nonzero"/><path fill="#ffffff" d="M 22.90625 255.972656 L 50.957031 249.625 C 50.957031 249.625 54.921875 264.359375 62.476562 271.050781 C 66.664062 274.757812 79.410156 276.324219 95.503906 269.3125 C 98.035156 268.207031 100.050781 266.167969 100.859375 263.535156 C 101.792969 260.496094 102.828125 256.234375 102.804688 252.292969 C 102.761719 245.144531 110.382812 248.433594 110.425781 255.738281 C 110.460938 261.574219 121.730469 260.441406 129.628906 257.777344 C 137.527344 255.113281 148.113281 256.109375 130.078125 267.203125 C 121.058594 272.75 115.484375 274.433594 112.160156 274.726562 C 108.992188 275.011719 106.050781 276.46875 104.050781 278.949219 C 96.5625 288.230469 69.449219 306.1875 46.644531 303.9375 C 29.207031 302.21875 22.90625 255.972656 22.90625 255.972656 " fill-opacity="1" fill-rule="nonzero"/><path fill="#000000" d="M 23.628906 256.46875 C 24.433594 261.796875 31.011719 301.753906 46.707031 303.300781 C 68.8125 305.480469 95.851562 288.089844 103.550781 278.546875 C 105.621094 275.976562 108.660156 274.394531 112.105469 274.089844 C 115.066406 273.824219 120.53125 272.320312 129.742188 266.65625 C 139.792969 260.472656 139.457031 258.359375 139.289062 258 C 138.765625 256.878906 134.519531 256.804688 129.835938 258.386719 C 123.503906 260.523438 115.078125 261.671875 111.542969 259.152344 C 110.382812 258.324219 109.792969 257.175781 109.785156 255.742188 C 109.765625 252.546875 108.195312 250.226562 106.648438 249.347656 C 105.871094 248.902344 105.113281 248.832031 104.570312 249.152344 C 103.835938 249.582031 103.433594 250.695312 103.445312 252.289062 C 103.46875 256.355469 102.386719 260.75 101.472656 263.722656 C 100.640625 266.429688 98.558594 268.679688 95.761719 269.898438 C 80.285156 276.644531 66.84375 275.773438 62.050781 271.53125 C 55.21875 265.476562 51.34375 253.253906 50.503906 250.382812 Z M 50.703125 304.777344 C 49.328125 304.777344 47.953125 304.714844 46.582031 304.578125 C 28.84375 302.828125 22.53125 257.96875 22.269531 256.0625 C 22.226562 255.730469 22.441406 255.421875 22.765625 255.347656 L 50.816406 248.996094 C 51.152344 248.917969 51.488281 249.121094 51.578125 249.457031 C 51.617188 249.601562 55.582031 264.085938 62.902344 270.570312 C 66.488281 273.746094 78.4375 276.050781 95.25 268.722656 C 97.703125 267.652344 99.523438 265.691406 100.246094 263.34375 C 101.132812 260.460938 102.183594 256.203125 102.160156 252.296875 C 102.144531 249.640625 103.109375 248.519531 103.921875 248.042969 C 104.871094 247.488281 106.097656 247.554688 107.285156 248.230469 C 109.015625 249.21875 111.042969 251.773438 111.066406 255.734375 C 111.074219 256.75 111.472656 257.523438 112.289062 258.105469 C 115.316406 260.265625 123.199219 259.269531 129.425781 257.167969 C 133.0625 255.941406 139.269531 254.933594 140.453125 257.453125 C 141.460938 259.605469 138.175781 262.972656 130.414062 267.75 C 122.847656 272.402344 116.726562 274.96875 112.21875 275.367188 C 109.125 275.644531 106.402344 277.058594 104.550781 279.351562 C 101.003906 283.75 92.460938 290.710938 81.382812 296.339844 C 73.542969 300.324219 62.203125 304.777344 50.703125 304.777344 " fill-opacity="1" fill-rule="nonzero"/><path fill="#ffffff" d="M 89.058594 155.546875 L 93.03125 172.644531 C 93.734375 175.011719 94.125 178.128906 97.949219 178.882812 L 101.878906 179.867188 C 102.828125 180.109375 103.171875 181.277344 102.503906 181.992188 C 93.953125 191.125 80.367188 193.4375 69.273438 187.648438 L 62.585938 184.15625 L 70.378906 180.972656 C 72.617188 180.058594 74.089844 177.890625 74.117188 175.472656 L 73.535156 150.304688 L 89.058594 155.546875 " fill-opacity="1" fill-rule="nonzero"/><path fill="#000000" d="M 64.109375 184.226562 L 69.574219 187.078125 C 80.367188 192.714844 93.714844 190.441406 102.035156 181.550781 C 102.261719 181.308594 102.210938 181.039062 102.179688 180.933594 C 102.152344 180.824219 102.042969 180.570312 101.722656 180.492188 L 97.792969 179.507812 C 94.039062 178.765625 93.265625 175.921875 92.640625 173.636719 C 92.566406 173.359375 92.492188 173.089844 92.414062 172.828125 L 88.515625 156.042969 L 74.199219 151.207031 L 74.757812 175.457031 C 74.730469 178.164062 73.105469 180.550781 70.621094 181.566406 Z M 82.121094 191.4375 C 77.640625 191.4375 73.128906 190.386719 68.980469 188.21875 L 62.289062 184.722656 C 62.066406 184.605469 61.933594 184.375 61.945312 184.125 C 61.957031 183.875 62.109375 183.65625 62.34375 183.558594 L 70.136719 180.378906 C 72.140625 179.558594 73.453125 177.632812 73.476562 175.464844 L 72.894531 150.320312 C 72.890625 150.109375 72.988281 149.914062 73.15625 149.789062 C 73.324219 149.664062 73.542969 149.628906 73.742188 149.699219 L 89.261719 154.9375 C 89.472656 155.011719 89.632812 155.1875 89.683594 155.402344 L 93.65625 172.5 C 93.726562 172.730469 93.800781 173.011719 93.878906 173.296875 C 94.464844 175.441406 95.070312 177.660156 98.074219 178.253906 L 102.035156 179.246094 C 102.703125 179.414062 103.21875 179.910156 103.414062 180.570312 C 103.609375 181.230469 103.441406 181.925781 102.972656 182.425781 C 97.460938 188.316406 89.839844 191.4375 82.121094 191.4375 " fill-opacity="1" fill-rule="nonzero"/><path fill="#000000" d="M 96.996094 120.3125 C 91.878906 120.261719 98.535156 125.21875 79.398438 120.59375 C 71.777344 118.753906 75.980469 127.359375 74 126.886719 C 66.699219 125.144531 66.949219 125.195312 63.46875 126.289062 C 61.167969 127.011719 59.84375 131.386719 60.425781 134.578125 C 61.195312 138.792969 64.742188 139.722656 68.246094 148.542969 C 70.703125 154.734375 70.34375 158.585938 72.90625 159.382812 C 75.496094 160.191406 77.222656 156.679688 80.117188 157.347656 C 83.863281 158.210938 83.421875 164.664062 87.144531 167.152344 C 89.492188 168.722656 94.8125 169.25 103.097656 164.722656 C 104.441406 163.988281 105.074219 162.394531 104.601562 160.933594 C 103.996094 159.0625 103.21875 156.699219 102.285156 154.507812 C 97.847656 144.0625 93.957031 141.835938 95.203125 139.015625 C 97.113281 134.695312 105.199219 136.738281 106.363281 133.207031 C 107.570312 129.542969 104.007812 120.386719 96.996094 120.3125 " fill-opacity="1" fill-rule="nonzero"/><path fill="#ffffff" d="M 79.289062 136.308594 L 80.871094 138.96875 C 81.621094 140.222656 82.277344 141.523438 82.84375 142.871094 C 83.910156 145.394531 85.769531 149.722656 87 152.066406 C 88.800781 155.507812 99.816406 150.675781 99.816406 150.675781 L 100.394531 148.472656 L 101.675781 147.875 C 101.921875 147.761719 102.148438 147.59375 102.304688 147.371094 C 102.699219 146.8125 102.667969 146.097656 102.289062 145.585938 C 100.210938 142.796875 95.855469 136.519531 94.132812 130.785156 C 94.132812 130.785156 85.714844 129.027344 79.289062 136.308594 " fill-opacity="1" fill-rule="nonzero"/><path fill="#000000" d="M 80.082031 136.386719 L 81.425781 138.640625 C 82.183594 139.914062 82.859375 141.253906 83.4375 142.625 C 84.453125 145.03125 86.339844 149.425781 87.566406 151.765625 C 88.648438 153.835938 95.199219 151.953125 99.277344 150.210938 L 99.773438 148.308594 C 99.820312 148.125 99.953125 147.96875 100.125 147.886719 L 101.402344 147.292969 C 101.570312 147.21875 101.699219 147.117188 101.78125 147.003906 C 102.003906 146.6875 102 146.273438 101.773438 145.96875 C 99.480469 142.890625 95.421875 136.957031 93.636719 131.355469 C 92.027344 131.144531 85.386719 130.6875 80.082031 136.386719 Z M 90.007812 153.925781 C 88.378906 153.925781 87.03125 153.511719 86.429688 152.363281 C 85.179688 149.980469 83.277344 145.550781 82.253906 143.121094 C 81.699219 141.808594 81.050781 140.519531 80.320312 139.296875 L 78.738281 136.636719 C 78.59375 136.394531 78.621094 136.089844 78.808594 135.882812 C 85.40625 128.40625 93.90625 130.078125 94.265625 130.152344 C 94.496094 130.203125 94.679688 130.375 94.75 130.597656 C 96.46875 136.328125 100.953125 142.722656 102.804688 145.203125 C 103.363281 145.953125 103.371094 146.972656 102.832031 147.742188 C 102.621094 148.039062 102.3125 148.285156 101.945312 148.460938 L 100.9375 148.925781 L 100.4375 150.835938 C 100.390625 151.027344 100.253906 151.183594 100.074219 151.261719 C 99.246094 151.628906 93.847656 153.925781 90.007812 153.925781 " fill-opacity="1" fill-rule="nonzero"/><path fill="#ffffff" d="M 74.347656 141.789062 C 77.582031 139.5 81.019531 144.613281 82.34375 146.910156 C 82.6875 147.507812 82.460938 148.265625 81.851562 148.585938 C 80.457031 149.3125 77.933594 150.269531 75.828125 149.085938 C 69.546875 145.566406 74.347656 141.789062 74.347656 141.789062 " fill-opacity="1" fill-rule="nonzero"/><path fill="#230b41" d="M 103.722656 121.738281 C 103.273438 120.847656 102.769531 119.96875 102.195312 119.117188 C 94.675781 107.90625 79.496094 104.914062 68.285156 112.433594 C 57.074219 119.949219 54.085938 135.132812 61.601562 146.347656 C 62.175781 147.199219 62.796875 147.996094 63.453125 148.753906 L 103.722656 121.738281 " fill-opacity="1" fill-rule="nonzero"/><path fill="#230b41" d="M 63.605469 153.878906 L 61.992188 146.6875 L 102.375 120.167969 L 113.625 120.324219 L 63.605469 153.878906 " fill-opacity="1" fill-rule="nonzero"/><path fill="#230b41" d="M 74.695312 143.859375 Z M 74.71875 143.960938 Z M 69.691406 158.976562 C 69.554688 158.976562 69.417969 158.933594 69.300781 158.847656 C 69.019531 158.632812 68.964844 158.230469 69.179688 157.949219 C 74.214844 151.339844 74.792969 144.863281 74.695312 143.878906 C 74.628906 143.570312 74.796875 143.25 75.101562 143.136719 C 75.433594 143.015625 75.804688 143.1875 75.925781 143.519531 C 76.085938 143.957031 76 151.113281 70.203125 158.726562 C 70.074219 158.890625 69.886719 158.976562 69.691406 158.976562 " fill-opacity="1" fill-rule="nonzero"/><path fill="#ae9fcf" d="M 98.265625 123.507812 C 98.09375 123.507812 97.921875 123.441406 97.792969 123.304688 C 85.242188 109.828125 68.078125 119.476562 67.90625 119.578125 C 67.644531 119.726562 67.3125 119.675781 67.109375 119.457031 L 63.980469 116.039062 C 63.742188 115.777344 63.757812 115.371094 64.019531 115.132812 C 64.28125 114.894531 64.6875 114.910156 64.925781 115.171875 L 67.722656 118.222656 C 70.625 116.742188 86.660156 109.464844 98.734375 122.429688 C 98.976562 122.691406 98.960938 123.097656 98.703125 123.335938 C 98.578125 123.453125 98.421875 123.507812 98.265625 123.507812 " fill-opacity="1" fill-rule="nonzero"/><path fill="#000000" d="M 81.851562 108.921875 C 77.179688 108.921875 72.609375 110.304688 68.644531 112.964844 C 57.746094 120.273438 54.828125 135.089844 62.136719 145.988281 C 62.230469 146.125 62.328125 146.261719 62.425781 146.394531 L 62.578125 146.601562 C 62.628906 146.671875 62.664062 146.75 62.683594 146.835938 L 64.027344 152.824219 L 111.558594 120.9375 L 102.851562 120.816406 C 102.632812 120.8125 102.425781 120.695312 102.3125 120.503906 C 102.078125 120.117188 101.867188 119.777344 101.664062 119.472656 C 98.121094 114.191406 92.738281 110.609375 86.5 109.378906 C 84.953125 109.074219 83.394531 108.921875 81.851562 108.921875 Z M 63.605469 154.519531 C 63.523438 154.519531 63.445312 154.503906 63.367188 154.476562 C 63.171875 154.394531 63.023438 154.226562 62.976562 154.019531 L 61.460938 147.246094 L 61.394531 147.15625 C 61.285156 147.007812 61.171875 146.855469 61.070312 146.699219 C 53.367188 135.214844 56.441406 119.601562 67.929688 111.898438 C 73.492188 108.164062 80.175781 106.824219 86.75 108.117188 C 93.320312 109.414062 98.996094 113.195312 102.730469 118.757812 C 102.890625 118.996094 103.054688 119.253906 103.226562 119.539062 L 113.632812 119.683594 C 113.914062 119.6875 114.160156 119.871094 114.242188 120.140625 C 114.320312 120.410156 114.214844 120.699219 113.984375 120.859375 L 63.960938 154.410156 C 63.855469 154.484375 63.730469 154.519531 63.605469 154.519531 " fill-opacity="1" fill-rule="nonzero"/><path fill="#523762" d="M 285.789062 342.597656 C 257.367188 357.097656 222.972656 363.933594 189.652344 358.191406 L 189.648438 358.191406 C 188.964844 358.007812 188.285156 357.808594 187.605469 357.609375 C 187.601562 357.609375 187.597656 357.605469 187.59375 357.605469 C 231.015625 329.457031 270.328125 337.546875 285.789062 342.597656 " fill-opacity="1" fill-rule="nonzero"/><path fill="#523762" d="M 290.003906 314.078125 C 290.003906 314.078125 283.667969 297.890625 296.179688 284.210938 C 296.179688 284.210938 303.675781 298.128906 290.003906 314.078125 " fill-opacity="1" fill-rule="nonzero"/><path fill="#523762" d="M 290.628906 340.023438 C 290.335938 340.1875 290.046875 340.351562 289.75 340.507812 C 289.472656 340.664062 289.191406 340.816406 288.910156 340.960938 C 288.074219 341.417969 287.226562 341.863281 286.378906 342.292969 C 277.328125 338.367188 257.730469 327.695312 248.136719 305.800781 C 245.074219 298.808594 243.03125 290.667969 242.675781 281.238281 C 242.675781 281.238281 282.929688 288.585938 290.628906 340.023438 " fill-opacity="1" fill-rule="nonzero"/><path fill="#ae9fcf" d="M 273.351562 325.167969 C 273.148438 325.167969 272.945312 325.070312 272.820312 324.890625 L 247.265625 287.847656 C 247.066406 287.558594 247.136719 287.15625 247.429688 286.953125 C 247.722656 286.753906 248.121094 286.824219 248.320312 287.121094 L 273.878906 324.160156 C 274.078125 324.453125 274.003906 324.851562 273.714844 325.054688 C 273.601562 325.132812 273.476562 325.167969 273.351562 325.167969 " fill-opacity="1" fill-rule="nonzero"/><path fill="#523762" d="M 288.910156 340.960938 C 288.074219 341.417969 287.226562 341.863281 286.378906 342.292969 C 286.183594 342.398438 285.988281 342.5 285.789062 342.597656 C 285.351562 342.824219 284.917969 343.042969 284.480469 343.261719 C 236.296875 332.277344 220.382812 297.269531 220.382812 297.269531 C 231.097656 299.3125 240.289062 302.296875 248.136719 305.800781 C 273.542969 317.109375 284.949219 333.757812 288.910156 340.960938 " fill-opacity="1" fill-rule="nonzero"/><path fill="#ae9fcf" d="M 260.839844 324.59375 C 260.722656 324.59375 260.605469 324.5625 260.503906 324.496094 L 235.277344 308.882812 C 234.972656 308.699219 234.878906 308.300781 235.066406 308 C 235.253906 307.699219 235.648438 307.605469 235.949219 307.792969 L 261.179688 323.40625 C 261.480469 323.589844 261.574219 323.984375 261.386719 324.289062 C 261.265625 324.484375 261.054688 324.59375 260.839844 324.59375 " fill-opacity="1" fill-rule="nonzero"/><path fill="#523762" d="M 349.960938 268.113281 C 349.019531 272.402344 347.847656 276.4375 346.496094 280.128906 C 337.675781 304.226562 316.648438 325.828125 289.75 340.507812 C 292.027344 324.953125 302.550781 281.90625 349.960938 268.113281 " fill-opacity="1" fill-rule="nonzero"/><path fill="#ae9fcf" d="M 306.175781 321.246094 C 306.03125 321.246094 305.886719 321.199219 305.765625 321.101562 C 305.492188 320.875 305.453125 320.472656 305.679688 320.199219 L 331.683594 288.601562 C 331.910156 288.328125 332.316406 288.289062 332.589844 288.515625 C 332.863281 288.738281 332.902344 289.144531 332.679688 289.417969 L 306.667969 321.011719 C 306.542969 321.167969 306.359375 321.246094 306.175781 321.246094 " fill-opacity="1" fill-rule="nonzero"/><path fill="#000000" d="M 289.75 345.699219 C 289.5 345.699219 289.265625 345.554688 289.160156 345.308594 C 289.023438 344.980469 289.175781 344.605469 289.503906 344.46875 C 296.773438 341.398438 304.800781 336.84375 312.105469 331.644531 C 336.675781 314.148438 354.949219 291.355469 364.957031 265.726562 C 365.082031 265.394531 365.457031 265.230469 365.789062 265.363281 C 366.117188 265.488281 366.28125 265.863281 366.148438 266.195312 C 356.054688 292.054688 337.625 315.050781 312.847656 332.691406 C 305.472656 337.941406 297.359375 342.546875 290 345.648438 C 289.921875 345.683594 289.835938 345.699219 289.75 345.699219 " fill-opacity="1" fill-rule="nonzero"/><path fill="#000000" d="M 262.230469 362.433594 C 261.945312 362.433594 261.6875 362.242188 261.613281 361.953125 C 261.523438 361.609375 261.730469 361.257812 262.070312 361.167969 C 281.0625 356.230469 298.539062 348.84375 314.015625 339.222656 C 314.316406 339.035156 314.710938 339.128906 314.898438 339.429688 C 315.085938 339.730469 314.996094 340.128906 314.691406 340.3125 C 299.109375 350.003906 281.511719 357.4375 262.394531 362.414062 C 262.339844 362.425781 262.285156 362.433594 262.230469 362.433594 " fill-opacity="1" fill-rule="nonzero"/><path fill="#000000" d="M 323.101562 334.578125 C 322.898438 334.578125 322.703125 334.484375 322.578125 334.308594 C 322.371094 334.019531 322.4375 333.617188 322.726562 333.414062 C 341.792969 319.773438 350.3125 307.246094 352.46875 303.730469 C 352.652344 303.429688 353.046875 303.332031 353.351562 303.519531 C 353.652344 303.703125 353.75 304.101562 353.5625 304.402344 C 347.722656 313.921875 336.472656 325.15625 323.472656 334.457031 C 323.359375 334.535156 323.230469 334.578125 323.101562 334.578125 " fill-opacity="1" fill-rule="nonzero"/><path fill="#ffffff" d="M 191.753906 292.933594 C 191.753906 296.230469 189.007812 298.90625 185.621094 298.90625 C 182.230469 298.90625 179.484375 296.230469 179.484375 292.933594 C 179.484375 289.636719 182.230469 286.960938 185.621094 286.960938 C 189.007812 286.960938 191.753906 289.636719 191.753906 292.933594 " fill-opacity="1" fill-rule="nonzero"/><path fill="#000000" d="M 210.257812 318.5 L 206.152344 318.5 C 205.800781 318.5 205.511719 318.214844 205.511719 317.859375 C 205.511719 317.503906 205.800781 317.21875 206.152344 317.21875 L 210.257812 317.21875 C 210.609375 317.21875 210.898438 317.503906 210.898438 317.859375 C 210.898438 318.214844 210.609375 318.5 210.257812 318.5 " fill-opacity="1" fill-rule="nonzero"/><path fill="#000000" d="M 200.695312 318.5 L 196.589844 318.5 C 196.238281 318.5 195.949219 318.214844 195.949219 317.859375 C 195.949219 317.503906 196.238281 317.21875 196.589844 317.21875 L 200.695312 317.21875 C 201.050781 317.21875 201.339844 317.503906 201.339844 317.859375 C 201.339844 318.214844 201.050781 318.5 200.695312 318.5 " fill-opacity="1" fill-rule="nonzero"/><path fill="#000000" d="M 203.425781 315.847656 C 203.070312 315.847656 202.78125 315.558594 202.78125 315.203125 L 202.78125 311.207031 C 202.78125 310.851562 203.070312 310.566406 203.425781 310.566406 C 203.777344 310.566406 204.066406 310.851562 204.066406 311.207031 L 204.066406 315.203125 C 204.066406 315.558594 203.777344 315.847656 203.425781 315.847656 " fill-opacity="1" fill-rule="nonzero"/><path fill="#000000" d="M 203.425781 325.15625 C 203.070312 325.15625 202.78125 324.867188 202.78125 324.515625 L 202.78125 320.519531 C 202.78125 320.164062 203.070312 319.875 203.425781 319.875 C 203.777344 319.875 204.066406 320.164062 204.066406 320.519531 L 204.066406 324.515625 C 204.066406 324.867188 203.777344 325.15625 203.425781 325.15625 " fill-opacity="1" fill-rule="nonzero"/><path fill="#000000" d="M 77.417969 41.546875 C 77.203125 41.546875 76.996094 41.441406 76.871094 41.242188 C 76.683594 40.941406 76.777344 40.546875 77.078125 40.359375 L 79.265625 39.011719 C 79.566406 38.824219 79.960938 38.917969 80.148438 39.21875 C 80.335938 39.519531 80.242188 39.914062 79.941406 40.101562 L 77.757812 41.453125 C 77.652344 41.515625 77.535156 41.546875 77.417969 41.546875 " fill-opacity="1" fill-rule="nonzero"/><path fill="#000000" d="M 69.085938 46.945312 C 68.878906 46.945312 68.679688 46.851562 68.554688 46.671875 C 68.355469 46.375 68.425781 45.976562 68.71875 45.777344 C 70.042969 44.863281 71.398438 43.960938 72.871094 43.011719 C 73.167969 42.820312 73.566406 42.90625 73.757812 43.203125 C 73.949219 43.5 73.863281 43.898438 73.566406 44.09375 C 72.109375 45.03125 70.761719 45.929688 69.449219 46.832031 C 69.335938 46.910156 69.210938 46.945312 69.085938 46.945312 Z M 61.117188 52.875 C 60.929688 52.875 60.742188 52.792969 60.617188 52.632812 C 60.394531 52.359375 60.4375 51.953125 60.710938 51.730469 C 61.988281 50.703125 63.316406 49.675781 64.660156 48.679688 C 64.945312 48.46875 65.347656 48.527344 65.558594 48.8125 C 65.769531 49.09375 65.710938 49.496094 65.425781 49.707031 C 64.097656 50.699219 62.78125 51.714844 61.519531 52.730469 C 61.398438 52.828125 61.257812 52.875 61.117188 52.875 Z M 53.644531 59.414062 C 53.476562 59.414062 53.304688 59.347656 53.179688 59.214844 C 52.933594 58.957031 52.945312 58.550781 53.203125 58.304688 C 54.398438 57.167969 55.640625 56.035156 56.890625 54.941406 C 57.15625 54.707031 57.5625 54.734375 57.796875 55 C 58.027344 55.269531 58 55.671875 57.734375 55.910156 C 56.5 56.988281 55.269531 58.109375 54.085938 59.234375 C 53.964844 59.355469 53.804688 59.414062 53.644531 59.414062 Z M 46.75 66.558594 C 46.597656 66.558594 46.445312 66.503906 46.324219 66.394531 C 46.058594 66.160156 46.035156 65.753906 46.269531 65.488281 C 47.371094 64.246094 48.511719 63.011719 49.660156 61.824219 C 49.90625 61.570312 50.3125 61.5625 50.566406 61.808594 C 50.824219 62.054688 50.832031 62.460938 50.582031 62.714844 C 49.449219 63.894531 48.320312 65.109375 47.230469 66.339844 C 47.101562 66.484375 46.925781 66.558594 46.75 66.558594 Z M 40.480469 74.253906 C 40.34375 74.253906 40.210938 74.210938 40.09375 74.125 C 39.8125 73.910156 39.753906 73.511719 39.964844 73.226562 C 40.960938 71.898438 41.992188 70.574219 43.035156 69.292969 C 43.261719 69.019531 43.664062 68.976562 43.941406 69.199219 C 44.214844 69.421875 44.257812 69.828125 44.03125 70.105469 C 43 71.371094 41.976562 72.683594 40.992188 73.996094 C 40.867188 74.164062 40.675781 74.253906 40.480469 74.253906 Z M 34.855469 82.433594 C 34.738281 82.433594 34.621094 82.402344 34.515625 82.335938 C 34.214844 82.144531 34.125 81.75 34.3125 81.449219 C 35.199219 80.046875 36.121094 78.644531 37.058594 77.28125 C 37.257812 76.988281 37.65625 76.914062 37.949219 77.117188 C 38.242188 77.316406 38.316406 77.714844 38.117188 78.007812 C 37.191406 79.355469 36.277344 80.742188 35.398438 82.132812 C 35.277344 82.328125 35.070312 82.433594 34.855469 82.433594 Z M 29.882812 91.027344 C 29.78125 91.027344 29.679688 91 29.582031 90.949219 C 29.269531 90.785156 29.152344 90.398438 29.316406 90.082031 C 30.097656 88.609375 30.910156 87.144531 31.734375 85.71875 C 31.910156 85.414062 32.304688 85.308594 32.609375 85.484375 C 32.917969 85.664062 33.023438 86.058594 32.84375 86.363281 C 32.027344 87.773438 31.222656 89.226562 30.453125 90.683594 C 30.335938 90.902344 30.113281 91.027344 29.882812 91.027344 Z M 25.542969 99.953125 C 25.457031 99.953125 25.367188 99.9375 25.285156 99.898438 C 24.960938 99.753906 24.8125 99.375 24.957031 99.050781 C 25.632812 97.527344 26.339844 96.007812 27.058594 94.527344 C 27.214844 94.210938 27.597656 94.078125 27.917969 94.230469 C 28.234375 94.386719 28.367188 94.773438 28.214844 95.089844 C 27.503906 96.554688 26.800781 98.066406 26.132812 99.574219 C 26.023438 99.8125 25.789062 99.953125 25.542969 99.953125 Z M 21.8125 109.152344 C 21.738281 109.152344 21.664062 109.140625 21.589844 109.113281 C 21.257812 108.988281 21.085938 108.621094 21.210938 108.289062 C 21.785156 106.726562 22.390625 105.164062 23.007812 103.640625 C 23.140625 103.3125 23.515625 103.152344 23.84375 103.285156 C 24.175781 103.417969 24.332031 103.792969 24.199219 104.121094 C 23.585938 105.632812 22.984375 107.1875 22.414062 108.734375 C 22.316406 108.992188 22.070312 109.152344 21.8125 109.152344 " fill-opacity="1" fill-rule="nonzero"/><path fill="#000000" d="M 19.355469 116.296875 C 19.289062 116.296875 19.222656 116.285156 19.160156 116.265625 C 18.820312 116.15625 18.636719 115.796875 18.742188 115.460938 C 19.007812 114.632812 19.273438 113.816406 19.542969 113.007812 C 19.65625 112.675781 20.023438 112.492188 20.359375 112.605469 C 20.695312 112.71875 20.875 113.082031 20.761719 113.417969 C 20.492188 114.21875 20.226562 115.03125 19.964844 115.847656 C 19.878906 116.125 19.625 116.296875 19.355469 116.296875 " fill-opacity="1" fill-rule="nonzero"/><path fill="#230b41" d="M 353.628906 54.949219 C 353.628906 70.273438 341.207031 82.691406 325.886719 82.691406 C 310.5625 82.691406 298.144531 70.273438 298.144531 54.949219 C 298.144531 39.628906 310.5625 27.203125 325.886719 27.203125 C 341.207031 27.203125 353.628906 39.628906 353.628906 54.949219 " fill-opacity="1" fill-rule="nonzero"/><path fill="#000000" d="M 325.886719 27.847656 C 310.941406 27.847656 298.785156 40.003906 298.785156 54.949219 C 298.785156 69.890625 310.941406 82.050781 325.886719 82.050781 C 340.828125 82.050781 352.988281 69.890625 352.988281 54.949219 C 352.988281 40.003906 340.828125 27.847656 325.886719 27.847656 Z M 325.886719 83.335938 C 310.234375 83.335938 297.5 70.601562 297.5 54.949219 C 297.5 39.296875 310.234375 26.5625 325.886719 26.5625 C 341.539062 26.5625 354.269531 39.296875 354.269531 54.949219 C 354.269531 70.601562 341.539062 83.335938 325.886719 83.335938 " fill-opacity="1" fill-rule="nonzero"/><path fill="#ffffff" d="M 323.632812 69.988281 C 323.398438 69.988281 323.183594 69.863281 323.070312 69.660156 C 319.296875 62.867188 311.839844 54.722656 311.765625 54.640625 C 311.527344 54.378906 311.542969 53.976562 311.804688 53.734375 C 312.066406 53.496094 312.472656 53.511719 312.710938 53.773438 C 312.785156 53.851562 319.582031 61.277344 323.566406 67.953125 C 330.648438 52.691406 337.484375 42.109375 337.554688 42 C 337.75 41.703125 338.148438 41.617188 338.445312 41.8125 C 338.742188 42.003906 338.828125 42.402344 338.632812 42.699219 C 338.5625 42.808594 331.4375 53.839844 324.214844 69.613281 C 324.117188 69.835938 323.898438 69.980469 323.65625 69.988281 C 323.648438 69.988281 323.640625 69.988281 323.632812 69.988281 " fill-opacity="1" fill-rule="nonzero"/></svg>