<svg xmlns="http://www.w3.org/2000/svg" xmlns:xlink="http://www.w3.org/1999/xlink" width="500" zoomAndPan="magnify" viewBox="0 0 375 374.999991" height="500" preserveAspectRatio="xMidYMid meet" version="1.0"><path fill="#ae9fcf" d="M 12.566406 296.433594 C 22.84375 321.582031 46.914062 333.457031 62.300781 341.042969 C 122.941406 370.960938 212.84375 364.464844 281.53125 312.601562 C 297.601562 300.46875 374.988281 215.066406 357.265625 124.3125 C 341.601562 44.085938 261.105469 15.222656 194.382812 9.105469 C 139.105469 4.035156 66.890625 24.363281 41.328125 73.34375 C 25.25 104.140625 44.515625 113.898438 31.320312 183.664062 C 19.898438 244.046875 -0.0078125 265.675781 12.566406 296.433594 " fill-opacity="1" fill-rule="nonzero"/><path fill="#523762" d="M 31.972656 330.722656 L 225.699219 330.722656 C 231.027344 330.722656 235.308594 326.433594 235.257812 321.140625 L 232.78125 53.050781 C 232.574219 45.871094 229.054688 41.789062 223.039062 41.789062 L 29.308594 41.789062 C 24.519531 41.789062 20.46875 45.257812 19.746094 49.976562 L 22.234375 321.140625 C 22.285156 326.433594 26.644531 330.722656 31.972656 330.722656 " fill-opacity="1" fill-rule="nonzero"/><path fill="#ffffff" d="M 41.613281 331.265625 L 235.34375 331.265625 C 240.671875 331.265625 244.953125 326.945312 244.910156 321.621094 L 242.59375 51.902344 C 242.390625 44.679688 238.871094 40.570312 232.855469 40.570312 L 39.125 40.570312 C 34.335938 40.570312 30.285156 44.0625 29.558594 48.808594 L 31.882812 321.621094 C 31.929688 326.945312 36.285156 331.265625 41.613281 331.265625 " fill-opacity="1" fill-rule="nonzero"/><path fill="#000000" d="M 31.230469 248.222656 C 30.882812 248.222656 30.597656 247.941406 30.59375 247.589844 L 29.035156 105.75 C 29.03125 105.398438 29.3125 105.109375 29.664062 105.105469 C 30.007812 105.109375 30.304688 105.382812 30.308594 105.734375 L 31.867188 247.578125 C 31.871094 247.929688 31.589844 248.21875 31.238281 248.222656 C 31.234375 248.222656 31.230469 248.222656 31.230469 248.222656 " fill-opacity="1" fill-rule="nonzero"/><path fill="#ae9fcf" d="M 93.828125 61.386719 L 183.960938 61.386719 C 186.28125 61.386719 188.144531 59.503906 188.128906 57.183594 L 187.945312 36.300781 C 187.925781 33.980469 186.03125 32.101562 183.710938 32.101562 L 93.578125 32.101562 C 91.257812 32.101562 89.390625 33.980469 89.410156 36.300781 L 89.589844 57.183594 C 89.609375 59.503906 91.507812 61.386719 93.828125 61.386719 " fill-opacity="1" fill-rule="nonzero"/><path fill="#000000" d="M 93.578125 32.738281 C 92.625 32.738281 91.734375 33.109375 91.066406 33.78125 C 90.398438 34.453125 90.039062 35.347656 90.046875 36.296875 L 90.226562 57.179688 C 90.242188 59.148438 91.859375 60.75 93.828125 60.75 L 183.957031 60.75 C 184.910156 60.75 185.804688 60.378906 186.46875 59.707031 C 187.136719 59.035156 187.5 58.140625 187.488281 57.191406 L 187.3125 36.308594 C 187.292969 34.339844 185.679688 32.738281 183.707031 32.738281 Z M 183.957031 62.023438 L 93.828125 62.023438 C 91.160156 62.023438 88.976562 59.855469 88.953125 57.191406 L 88.773438 36.308594 C 88.761719 35.015625 89.253906 33.800781 90.164062 32.886719 C 91.070312 31.96875 92.28125 31.464844 93.578125 31.464844 L 183.707031 31.464844 C 186.375 31.464844 188.558594 33.632812 188.585938 36.296875 L 188.761719 57.179688 C 188.773438 58.472656 188.28125 59.691406 187.375 60.605469 C 186.464844 61.519531 185.25 62.023438 183.957031 62.023438 " fill-opacity="1" fill-rule="nonzero"/><path fill="#ae9fcf" d="M 139.53125 31.472656 C 135.050781 32.035156 131.25 28.269531 131.773438 23.789062 C 132.132812 20.738281 134.582031 18.269531 137.632812 17.886719 C 142.109375 17.324219 145.910156 21.089844 145.382812 25.570312 C 145.023438 28.621094 142.578125 31.085938 139.53125 31.472656 Z M 138.390625 8.382812 C 129.074219 8.382812 121.621094 15.929688 121.699219 25.238281 L 121.917969 50.503906 C 121.9375 52.773438 123.792969 54.617188 126.066406 54.617188 L 151.503906 54.617188 C 153.777344 54.617188 155.601562 52.773438 155.582031 50.503906 L 155.371094 25.238281 C 155.289062 15.929688 147.707031 8.382812 138.390625 8.382812 " fill-opacity="1" fill-rule="nonzero"/><path fill="#000000" d="M 138.515625 18.472656 C 138.25 18.472656 137.980469 18.484375 137.710938 18.519531 C 134.960938 18.867188 132.730469 21.113281 132.40625 23.863281 C 132.179688 25.800781 132.839844 27.695312 134.21875 29.066406 C 135.601562 30.4375 137.507812 31.082031 139.449219 30.839844 C 142.199219 30.492188 144.429688 28.246094 144.753906 25.496094 C 144.980469 23.558594 144.316406 21.664062 142.9375 20.292969 C 141.746094 19.109375 140.171875 18.472656 138.515625 18.472656 Z M 139.53125 31.472656 Z M 138.640625 32.164062 C 136.652344 32.164062 134.753906 31.390625 133.324219 29.972656 C 131.664062 28.324219 130.867188 26.042969 131.140625 23.714844 C 131.53125 20.390625 134.226562 17.675781 137.550781 17.257812 C 139.882812 16.960938 142.171875 17.742188 143.835938 19.386719 C 145.496094 21.035156 146.289062 23.316406 146.015625 25.644531 C 145.625 28.96875 142.929688 31.683594 139.609375 32.101562 C 139.285156 32.144531 138.960938 32.164062 138.640625 32.164062 Z M 138.390625 9.019531 C 134.0625 9.019531 130.015625 10.703125 126.988281 13.757812 C 123.949219 16.820312 122.300781 20.894531 122.335938 25.234375 L 122.550781 50.5 C 122.570312 52.417969 124.144531 53.980469 126.066406 53.980469 L 151.503906 53.980469 C 152.429688 53.980469 153.304688 53.617188 153.953125 52.960938 C 154.601562 52.304688 154.957031 51.4375 154.949219 50.507812 L 154.730469 25.246094 C 154.65625 16.300781 147.324219 9.019531 138.390625 9.019531 Z M 151.503906 55.25 L 126.066406 55.25 C 123.449219 55.25 121.300781 53.125 121.277344 50.507812 L 121.0625 25.246094 C 121.023438 20.5625 122.804688 16.164062 126.082031 12.859375 C 129.351562 9.5625 133.722656 7.746094 138.390625 7.746094 C 148.019531 7.746094 155.921875 15.59375 156.003906 25.234375 L 156.21875 50.5 C 156.230469 51.769531 155.746094 52.960938 154.855469 53.855469 C 153.964844 54.753906 152.773438 55.25 151.503906 55.25 " fill-opacity="1" fill-rule="nonzero"/><path fill="#000000" d="M 53.722656 110.195312 C 52.910156 110.195312 52.144531 110.507812 51.574219 111.085938 C 51.007812 111.660156 50.695312 112.421875 50.703125 113.234375 L 50.84375 129.507812 C 50.855469 131.191406 52.238281 132.558594 53.925781 132.558594 L 70.210938 132.558594 C 71.027344 132.558594 71.789062 132.242188 72.359375 131.667969 C 72.929688 131.09375 73.238281 130.332031 73.230469 129.519531 L 73.09375 113.246094 C 73.078125 111.5625 71.695312 110.195312 70.007812 110.195312 Z M 70.210938 133.835938 L 53.925781 133.835938 C 51.542969 133.835938 49.589844 131.898438 49.570312 129.519531 L 49.429688 113.246094 C 49.421875 112.09375 49.863281 111.003906 50.671875 110.1875 C 51.484375 109.371094 52.566406 108.917969 53.722656 108.917969 L 70.007812 108.917969 C 72.390625 108.917969 74.34375 110.855469 74.367188 113.234375 L 74.503906 129.507812 C 74.515625 130.660156 74.074219 131.75 73.265625 132.566406 C 72.453125 133.382812 71.367188 133.835938 70.210938 133.835938 " fill-opacity="1" fill-rule="nonzero"/><path fill="#230b41" d="M 60.253906 130.210938 C 60.0625 130.210938 59.871094 130.191406 59.683594 130.15625 C 58.554688 129.953125 57.625 129.167969 57.238281 128.09375 L 54.347656 120.734375 C 53.878906 119.53125 54.46875 118.175781 55.667969 117.707031 C 56.871094 117.234375 58.222656 117.828125 58.695312 119.027344 L 60.539062 123.734375 L 66.671875 113.824219 C 67.347656 112.730469 68.785156 112.386719 69.882812 113.066406 C 70.980469 113.742188 71.316406 115.183594 70.640625 116.28125 L 62.824219 128.914062 L 62.730469 129.03125 C 62.117188 129.785156 61.203125 130.210938 60.253906 130.210938 " fill-opacity="1" fill-rule="nonzero"/><path fill="#000000" d="M 54 151.941406 C 53.1875 151.941406 52.421875 152.257812 51.851562 152.835938 C 51.285156 153.410156 50.972656 154.171875 50.980469 154.984375 L 51.121094 171.257812 C 51.132812 172.941406 52.515625 174.3125 54.203125 174.3125 L 70.488281 174.3125 C 71.304688 174.3125 72.066406 173.996094 72.636719 173.417969 C 73.207031 172.84375 73.515625 172.082031 73.507812 171.265625 L 73.371094 154.996094 C 73.355469 153.3125 71.972656 151.941406 70.285156 151.941406 Z M 70.488281 175.585938 L 54.203125 175.585938 C 51.820312 175.585938 49.867188 173.648438 49.847656 171.265625 L 49.707031 154.996094 C 49.695312 153.839844 50.136719 152.753906 50.949219 151.9375 C 51.757812 151.117188 52.84375 150.667969 54 150.667969 L 70.285156 150.667969 C 72.667969 150.667969 74.621094 152.605469 74.644531 154.984375 L 74.78125 171.257812 C 74.792969 172.410156 74.351562 173.496094 73.539062 174.316406 C 72.730469 175.132812 71.644531 175.585938 70.488281 175.585938 " fill-opacity="1" fill-rule="nonzero"/><path fill="#230b41" d="M 60.527344 171.957031 C 60.339844 171.957031 60.148438 171.941406 59.957031 171.910156 C 58.832031 171.703125 57.902344 170.917969 57.511719 169.84375 L 54.625 162.480469 C 54.15625 161.28125 54.746094 159.925781 55.945312 159.457031 C 57.144531 158.988281 58.5 159.578125 58.972656 160.777344 L 60.816406 165.484375 L 66.945312 155.574219 C 67.625 154.476562 69.0625 154.136719 70.160156 154.816406 C 71.257812 155.496094 71.59375 156.933594 70.917969 158.027344 L 63.101562 170.664062 L 63.003906 170.785156 C 62.394531 171.535156 61.480469 171.957031 60.527344 171.957031 " fill-opacity="1" fill-rule="nonzero"/><path fill="#ae9fcf" d="M 70.835938 215.71875 L 54.550781 215.71875 C 52.511719 215.71875 50.847656 214.066406 50.832031 212.03125 L 50.691406 195.761719 C 50.675781 193.722656 52.3125 192.074219 54.347656 192.074219 L 70.632812 192.074219 C 72.671875 192.074219 74.335938 193.722656 74.351562 195.761719 L 74.492188 212.03125 C 74.511719 214.066406 72.871094 215.71875 70.835938 215.71875 " fill-opacity="1" fill-rule="nonzero"/><path fill="#ae9fcf" d="M 71.5625 257.867188 L 55.277344 257.867188 C 53.242188 257.867188 51.574219 256.21875 51.558594 254.183594 L 51.417969 237.910156 C 51.402344 235.878906 53.039062 234.230469 55.074219 234.230469 L 71.363281 234.230469 C 73.398438 234.230469 75.0625 235.878906 75.082031 237.910156 L 75.222656 254.183594 C 75.238281 256.21875 73.601562 257.867188 71.5625 257.867188 " fill-opacity="1" fill-rule="nonzero"/><path fill="#000000" d="M 55.617188 276.453125 C 54.800781 276.453125 54.039062 276.769531 53.46875 277.34375 C 52.898438 277.917969 52.589844 278.683594 52.597656 279.496094 L 52.734375 295.769531 C 52.75 297.449219 54.132812 298.820312 55.820312 298.820312 L 72.105469 298.820312 C 72.917969 298.820312 73.683594 298.503906 74.253906 297.929688 C 74.820312 297.355469 75.132812 296.589844 75.125 295.777344 L 74.984375 279.503906 C 74.972656 277.824219 73.589844 276.453125 71.902344 276.453125 Z M 72.105469 300.09375 L 55.820312 300.09375 C 53.4375 300.09375 51.484375 298.160156 51.460938 295.777344 L 51.324219 279.503906 C 51.3125 278.351562 51.753906 277.265625 52.566406 276.449219 C 53.375 275.632812 54.460938 275.179688 55.617188 275.179688 L 71.902344 275.179688 C 74.285156 275.179688 76.238281 277.117188 76.257812 279.496094 L 76.398438 295.769531 C 76.40625 296.921875 75.96875 298.007812 75.15625 298.824219 C 74.34375 299.644531 73.261719 300.09375 72.105469 300.09375 " fill-opacity="1" fill-rule="nonzero"/><path fill="#ae9fcf" d="M 186.328125 88.535156 L 93.785156 88.535156 C 91.882812 88.535156 90.324219 86.992188 90.308594 85.085938 L 90.285156 82.21875 C 90.269531 80.3125 91.800781 78.773438 93.703125 78.773438 L 186.246094 78.773438 C 188.148438 78.773438 189.707031 80.3125 189.722656 82.21875 L 189.746094 85.085938 C 189.761719 86.992188 188.230469 88.535156 186.328125 88.535156 " fill-opacity="1" fill-rule="nonzero"/><path fill="#ae9fcf" d="M 221.207031 125.632812 L 91.089844 125.632812 C 89.1875 125.632812 87.628906 124.089844 87.613281 122.1875 C 87.597656 120.289062 89.128906 118.746094 91.03125 118.746094 L 221.148438 118.746094 C 223.054688 118.746094 224.613281 120.289062 224.628906 122.1875 C 224.644531 124.089844 223.113281 125.632812 221.207031 125.632812 " fill-opacity="1" fill-rule="nonzero"/><path fill="#ae9fcf" d="M 202.984375 143.398438 L 91.261719 143.398438 C 89.355469 143.398438 87.800781 141.855469 87.785156 139.953125 C 87.769531 138.046875 89.296875 136.507812 91.203125 136.507812 L 202.921875 136.507812 C 204.828125 136.507812 206.382812 138.046875 206.402344 139.953125 C 206.414062 141.855469 204.886719 143.398438 202.984375 143.398438 " fill-opacity="1" fill-rule="nonzero"/><path fill="#ae9fcf" d="M 212.148438 167.695312 L 91.601562 167.695312 C 89.699219 167.695312 88.140625 166.152344 88.125 164.25 C 88.109375 162.347656 89.640625 160.800781 91.542969 160.800781 L 212.085938 160.800781 C 213.992188 160.800781 215.550781 162.347656 215.566406 164.25 C 215.582031 166.152344 214.050781 167.695312 212.148438 167.695312 " fill-opacity="1" fill-rule="nonzero"/><path fill="#ae9fcf" d="M 159.703125 185.121094 L 91.890625 185.121094 C 89.988281 185.121094 88.429688 183.582031 88.414062 181.675781 C 88.398438 179.773438 89.929688 178.230469 91.832031 178.230469 L 159.644531 178.230469 C 161.550781 178.230469 163.105469 179.773438 163.121094 181.675781 C 163.136719 183.582031 161.605469 185.121094 159.703125 185.121094 " fill-opacity="1" fill-rule="nonzero"/><path fill="#ae9fcf" d="M 221.910156 207.578125 L 91.792969 207.578125 C 89.890625 207.578125 88.332031 206.035156 88.316406 204.132812 C 88.300781 202.230469 89.832031 200.6875 91.734375 200.6875 L 221.851562 200.6875 C 223.757812 200.6875 225.316406 202.230469 225.332031 204.132812 C 225.347656 206.035156 223.816406 207.578125 221.910156 207.578125 " fill-opacity="1" fill-rule="nonzero"/><path fill="#ae9fcf" d="M 203.683594 225.339844 L 91.964844 225.339844 C 90.058594 225.339844 88.503906 223.796875 88.484375 221.894531 C 88.46875 219.992188 90 218.449219 91.90625 218.449219 L 203.625 218.449219 C 205.53125 218.449219 207.085938 219.992188 207.101562 221.894531 C 207.117188 223.796875 205.589844 225.339844 203.683594 225.339844 " fill-opacity="1" fill-rule="nonzero"/><path fill="#ae9fcf" d="M 219.503906 249.636719 L 92.03125 249.636719 C 90.125 249.636719 88.570312 248.09375 88.554688 246.191406 C 88.535156 244.289062 90.066406 242.746094 91.972656 242.746094 L 219.445312 242.746094 C 221.347656 242.746094 222.90625 244.289062 222.921875 246.191406 C 222.941406 248.09375 221.410156 249.636719 219.503906 249.636719 " fill-opacity="1" fill-rule="nonzero"/><path fill="#ae9fcf" d="M 160.394531 265.851562 L 92.585938 265.851562 C 90.679688 265.851562 89.121094 264.3125 89.105469 262.40625 C 89.089844 260.503906 90.621094 258.960938 92.527344 258.960938 L 160.335938 258.960938 C 162.238281 258.960938 163.796875 260.503906 163.8125 262.40625 C 163.828125 264.3125 162.300781 265.851562 160.394531 265.851562 " fill-opacity="1" fill-rule="nonzero"/><path fill="#ae9fcf" d="M 223.027344 289.117188 L 92.910156 289.117188 C 91.003906 289.117188 89.449219 287.574219 89.433594 285.671875 C 89.414062 283.769531 90.945312 282.226562 92.851562 282.226562 L 222.96875 282.226562 C 224.871094 282.226562 226.429688 283.769531 226.449219 285.671875 C 226.460938 287.574219 224.933594 289.117188 223.027344 289.117188 " fill-opacity="1" fill-rule="nonzero"/><path fill="#ae9fcf" d="M 204.800781 306.878906 L 93.078125 306.878906 C 91.175781 306.878906 89.617188 305.335938 89.601562 303.433594 C 89.585938 301.53125 91.117188 299.988281 93.019531 299.988281 L 204.742188 299.988281 C 206.644531 299.988281 208.203125 301.53125 208.21875 303.433594 C 208.234375 305.335938 206.703125 306.878906 204.800781 306.878906 " fill-opacity="1" fill-rule="nonzero"/><path fill="#523762" d="M 161.207031 196.929688 C 160.832031 196.382812 160.832031 195.675781 161.207031 195.125 C 161.726562 194.371094 162.011719 193.554688 162.011719 192.703125 C 162.011719 188.75 155.890625 185.546875 148.335938 185.546875 C 140.78125 185.546875 134.660156 188.75 134.660156 192.703125 C 134.660156 193.554688 134.941406 194.371094 135.464844 195.125 C 135.839844 195.675781 135.839844 196.382812 135.464844 196.929688 C 134.941406 197.683594 134.660156 198.5 134.660156 199.351562 C 134.660156 201.226562 136.039062 202.933594 138.292969 204.207031 C 138.242188 204.421875 138.214844 204.636719 138.214844 204.855469 C 138.214844 207.78125 142.746094 210.152344 148.335938 210.152344 C 153.925781 210.152344 158.457031 207.78125 158.457031 204.855469 C 158.457031 204.636719 158.425781 204.421875 158.378906 204.207031 C 160.632812 202.933594 162.011719 201.226562 162.011719 199.351562 C 162.011719 198.5 161.726562 197.683594 161.207031 196.929688 " fill-opacity="1" fill-rule="nonzero"/><path fill="#000000" d="M 148.335938 186.183594 C 141.265625 186.183594 135.296875 189.171875 135.296875 192.703125 C 135.296875 193.402344 135.527344 194.097656 135.988281 194.765625 C 136.515625 195.53125 136.515625 196.523438 135.988281 197.289062 C 135.527344 197.957031 135.296875 198.648438 135.296875 199.351562 C 135.296875 200.917969 136.472656 202.445312 138.605469 203.652344 L 139.019531 203.886719 L 138.914062 204.351562 C 138.871094 204.53125 138.851562 204.695312 138.851562 204.855469 C 138.851562 207.382812 143.195312 209.519531 148.335938 209.519531 C 153.476562 209.519531 157.820312 207.382812 157.820312 204.855469 C 157.820312 204.695312 157.796875 204.53125 157.757812 204.351562 L 157.648438 203.886719 L 158.0625 203.652344 C 160.199219 202.445312 161.375 200.917969 161.375 199.351562 C 161.375 198.648438 161.140625 197.957031 160.683594 197.289062 C 160.15625 196.523438 160.15625 195.53125 160.683594 194.765625 C 161.140625 194.097656 161.375 193.402344 161.375 192.703125 C 161.375 189.171875 155.402344 186.183594 148.335938 186.183594 Z M 148.335938 210.789062 C 142.304688 210.789062 137.578125 208.183594 137.578125 204.855469 C 137.578125 204.753906 137.582031 204.644531 137.59375 204.535156 C 135.289062 203.121094 134.023438 201.292969 134.023438 199.351562 C 134.023438 198.390625 134.332031 197.453125 134.9375 196.570312 C 135.164062 196.238281 135.164062 195.816406 134.9375 195.488281 C 134.332031 194.605469 134.023438 193.667969 134.023438 192.703125 C 134.023438 188.335938 140.3125 184.910156 148.335938 184.910156 C 156.359375 184.910156 162.648438 188.335938 162.648438 192.703125 C 162.648438 193.667969 162.339844 194.605469 161.730469 195.488281 C 161.503906 195.816406 161.503906 196.238281 161.730469 196.570312 C 162.339844 197.453125 162.648438 198.390625 162.648438 199.351562 C 162.648438 201.292969 161.382812 203.121094 159.078125 204.535156 C 159.085938 204.644531 159.09375 204.753906 159.09375 204.855469 C 159.09375 208.183594 154.367188 210.789062 148.335938 210.789062 " fill-opacity="1" fill-rule="nonzero"/><path fill="#ffffff" d="M 185.453125 137.835938 C 185.453125 117.570312 168.585938 100.277344 148.316406 100.277344 C 128.085938 100.277344 111.402344 117.101562 111.265625 137.332031 C 111.199219 147.628906 116.167969 157.210938 122.941406 163.917969 C 127.828125 168.753906 131.390625 174.765625 133.121094 181.417969 L 133.203125 181.742188 C 134.882812 188.199219 140.714844 192.710938 147.386719 192.710938 L 150.125 192.710938 C 156.796875 192.710938 162.628906 188.199219 164.308594 181.742188 L 164.359375 181.546875 C 166.078125 174.9375 169.496094 168.871094 174.382812 164.101562 C 181.214844 157.4375 185.453125 148.136719 185.453125 137.835938 " fill-opacity="1" fill-rule="nonzero"/><path fill="#000000" d="M 148.316406 100.914062 C 128.371094 100.914062 112.039062 117.25 111.902344 137.332031 C 111.839844 146.652344 116.027344 156.175781 123.390625 163.464844 C 128.429688 168.449219 132.007812 174.601562 133.738281 181.261719 L 133.820312 181.582031 C 135.425781 187.757812 141.007812 192.070312 147.386719 192.070312 L 150.125 192.070312 C 156.507812 192.070312 162.085938 187.757812 163.691406 181.582031 L 163.746094 181.386719 C 165.519531 174.554688 169.046875 168.421875 173.9375 163.644531 C 180.953125 156.800781 184.820312 147.632812 184.820312 137.835938 C 184.820312 117.820312 168.101562 100.914062 148.316406 100.914062 Z M 150.125 193.34375 L 147.386719 193.34375 C 140.425781 193.34375 134.339844 188.636719 132.589844 181.898438 L 132.503906 181.582031 C 130.832031 175.144531 127.371094 169.195312 122.496094 164.371094 C 114.890625 156.84375 110.566406 146.984375 110.628906 137.324219 C 110.695312 127.359375 114.664062 117.925781 121.804688 110.769531 C 128.964844 103.59375 138.378906 99.640625 148.316406 99.640625 C 168.792969 99.640625 186.09375 117.132812 186.09375 137.835938 C 186.09375 147.980469 182.089844 157.472656 174.824219 164.558594 C 170.097656 169.171875 166.691406 175.097656 164.976562 181.707031 L 164.925781 181.898438 C 163.171875 188.636719 157.089844 193.34375 150.125 193.34375 " fill-opacity="1" fill-rule="nonzero"/><path fill="#000000" d="M 154.125 131.207031 C 153.570312 131.695312 153.070312 132.300781 152.648438 133.046875 C 149.992188 137.726562 150.867188 140.238281 151.625 141.320312 C 152.417969 142.453125 153.796875 143.042969 155.132812 142.820312 C 156.207031 142.640625 156.988281 141.964844 157.273438 140.96875 C 158.257812 137.523438 156.5625 133.523438 154.125 131.207031 Z M 143.113281 131.546875 C 141.917969 132.890625 140.953125 134.730469 140.253906 137.023438 C 139.488281 139.542969 139.738281 141.679688 140.941406 142.886719 C 141.730469 143.679688 142.835938 143.960938 143.894531 143.644531 C 145.191406 143.253906 146.125 142.0625 146.46875 140.375 C 146.976562 137.847656 145.617188 132.910156 143.113281 131.546875 Z M 150.398438 188.089844 C 150.046875 188.089844 149.761719 187.804688 149.765625 187.453125 C 149.84375 167.71875 161.367188 145.4375 163.675781 141.175781 C 165.0625 138.617188 165.589844 136.519531 165.292969 134.765625 C 164.847656 132.15625 163.511719 130.476562 161.324219 129.773438 C 159.734375 129.265625 157.257812 129.226562 155.167969 130.453125 C 157.804688 133.097656 159.589844 137.5 158.496094 141.320312 C 158.078125 142.78125 156.898438 143.816406 155.34375 144.074219 C 153.523438 144.378906 151.65625 143.585938 150.578125 142.046875 C 149.652344 140.722656 148.542969 137.707031 151.539062 132.421875 C 152 131.609375 152.539062 130.9375 153.132812 130.386719 C 153.019531 130.304688 152.910156 130.230469 152.796875 130.160156 C 151.238281 129.179688 148.679688 128.464844 146.160156 129.40625 C 145.410156 129.683594 144.707031 130.09375 144.058594 130.636719 C 146.882812 132.515625 148.304688 137.714844 147.714844 140.628906 C 147.277344 142.789062 146.019531 144.335938 144.261719 144.863281 C 142.769531 145.3125 141.148438 144.902344 140.039062 143.785156 C 138.496094 142.238281 138.128906 139.636719 139.039062 136.652344 C 139.792969 134.164062 140.789062 132.371094 141.847656 131.074219 C 137.566406 129.839844 134.574219 131.882812 133.765625 133.878906 C 132.832031 136.183594 133.171875 138.925781 134.652344 141.042969 C 138.03125 145.871094 145.929688 159.96875 146.320312 186.546875 C 146.324219 186.898438 146.042969 187.183594 145.691406 187.191406 C 145.347656 187.195312 145.050781 186.917969 145.046875 186.5625 C 144.664062 160.339844 136.921875 146.503906 133.609375 141.769531 C 131.859375 139.269531 131.476562 136.140625 132.585938 133.402344 C 133.808594 130.386719 137.929688 128.367188 142.804688 130.046875 C 143.8125 129.097656 144.832031 128.539062 145.714844 128.210938 C 148.671875 127.109375 151.664062 127.941406 153.476562 129.082031 C 153.710938 129.234375 153.941406 129.394531 154.171875 129.574219 C 156.6875 127.917969 159.769531 127.9375 161.710938 128.5625 C 165.050781 129.632812 166.183594 132.410156 166.546875 134.550781 C 166.898438 136.628906 166.34375 138.925781 164.796875 141.78125 C 162.511719 146 151.113281 168.03125 151.035156 187.457031 C 151.035156 187.808594 150.75 188.089844 150.398438 188.089844 " fill-opacity="1" fill-rule="nonzero"/><path fill="#000000" d="M 165.339844 161.503906 C 165.125 161.503906 164.921875 161.398438 164.796875 161.207031 C 164.609375 160.90625 164.699219 160.515625 165 160.328125 C 171.578125 156.191406 176.308594 149.472656 177.988281 141.898438 C 178.0625 141.554688 178.402344 141.339844 178.746094 141.414062 C 179.089844 141.488281 179.304688 141.828125 179.230469 142.171875 C 177.480469 150.082031 172.539062 157.089844 165.675781 161.40625 C 165.570312 161.472656 165.453125 161.503906 165.339844 161.503906 " fill-opacity="1" fill-rule="nonzero"/><path fill="#000000" d="M 125.394531 157.253906 C 125.21875 157.253906 125.042969 157.179688 124.917969 157.039062 C 119.957031 151.457031 117.226562 144.273438 117.226562 136.796875 C 117.226562 125.140625 123.710938 114.675781 134.15625 109.488281 C 134.46875 109.332031 134.851562 109.460938 135.007812 109.777344 C 135.164062 110.089844 135.039062 110.472656 134.722656 110.628906 C 124.714844 115.597656 118.5 125.625 118.5 136.796875 C 118.5 143.960938 121.117188 150.847656 125.871094 156.191406 C 126.101562 156.457031 126.078125 156.859375 125.816406 157.089844 C 125.695312 157.199219 125.542969 157.253906 125.394531 157.253906 " fill-opacity="1" fill-rule="nonzero"/><path fill="#ffffff" d="M 150.671875 197.167969 C 150.367188 197.167969 150.101562 196.949219 150.046875 196.640625 C 149.988281 196.292969 150.21875 195.964844 150.566406 195.90625 C 151.8125 195.691406 153.023438 195.417969 154.164062 195.097656 C 154.503906 195 154.855469 195.195312 154.953125 195.535156 C 155.046875 195.875 154.851562 196.226562 154.511719 196.320312 C 153.328125 196.65625 152.074219 196.9375 150.78125 197.160156 C 150.746094 197.167969 150.707031 197.167969 150.671875 197.167969 " fill-opacity="1" fill-rule="nonzero"/><path fill="#ffffff" d="M 144.90625 204.199219 C 144.558594 204.199219 144.273438 203.917969 144.269531 203.570312 C 144.269531 203.21875 144.550781 202.929688 144.902344 202.929688 C 147.722656 202.902344 151.859375 202.511719 155.558594 200.78125 C 155.878906 200.628906 156.253906 200.769531 156.40625 201.089844 C 156.554688 201.40625 156.417969 201.785156 156.097656 201.933594 C 152.191406 203.757812 147.859375 204.175781 144.914062 204.199219 C 144.910156 204.199219 144.910156 204.199219 144.90625 204.199219 " fill-opacity="1" fill-rule="nonzero"/><path fill="#000000" d="M 148.519531 92.082031 C 148.515625 92.082031 148.511719 92.082031 148.507812 92.082031 C 148.15625 92.074219 147.878906 91.78125 147.886719 91.429688 L 148.222656 75.222656 C 148.230469 74.875 148.511719 74.597656 148.859375 74.597656 C 148.863281 74.597656 148.867188 74.597656 148.871094 74.597656 C 149.222656 74.605469 149.503906 74.894531 149.492188 75.246094 L 149.15625 91.457031 C 149.152344 91.804688 148.867188 92.082031 148.519531 92.082031 " fill-opacity="1" fill-rule="nonzero"/><path fill="#000000" d="M 101.539062 125.101562 L 91.1875 125.097656 C 90.835938 125.097656 90.550781 124.8125 90.550781 124.460938 C 90.554688 124.109375 90.839844 123.824219 91.1875 123.824219 C 91.191406 123.824219 91.191406 123.824219 91.191406 123.824219 L 101.539062 123.832031 C 101.890625 123.832031 102.175781 124.117188 102.175781 124.46875 C 102.175781 124.820312 101.890625 125.101562 101.539062 125.101562 " fill-opacity="1" fill-rule="nonzero"/><path fill="#000000" d="M 111.089844 103.464844 C 110.988281 103.464844 110.882812 103.4375 110.785156 103.386719 L 99.113281 97.058594 C 98.804688 96.894531 98.691406 96.507812 98.859375 96.195312 C 99.023438 95.886719 99.410156 95.773438 99.71875 95.941406 L 111.394531 102.265625 C 111.703125 102.433594 111.816406 102.820312 111.648438 103.128906 C 111.535156 103.34375 111.316406 103.464844 111.089844 103.464844 " fill-opacity="1" fill-rule="nonzero"/><path fill="#000000" d="M 195.132812 125.101562 C 194.78125 125.101562 194.496094 124.820312 194.496094 124.46875 C 194.496094 124.117188 194.78125 123.832031 195.132812 123.832031 L 205.480469 123.824219 C 205.835938 123.824219 206.117188 124.109375 206.117188 124.460938 C 206.117188 124.8125 205.835938 125.097656 205.484375 125.097656 L 195.132812 125.101562 " fill-opacity="1" fill-rule="nonzero"/><path fill="#000000" d="M 185.582031 103.464844 C 185.355469 103.464844 185.136719 103.34375 185.023438 103.128906 C 184.855469 102.820312 184.96875 102.433594 185.277344 102.265625 L 196.949219 95.941406 C 197.257812 95.773438 197.644531 95.886719 197.8125 96.195312 C 197.980469 96.507812 197.867188 96.894531 197.558594 97.058594 L 185.882812 103.386719 C 185.789062 103.4375 185.683594 103.464844 185.582031 103.464844 " fill-opacity="1" fill-rule="nonzero"/><path fill="#230b41" d="M 33.160156 76.699219 C 25.710938 75.023438 21.027344 67.632812 22.699219 60.191406 C 24.367188 52.746094 31.761719 48.070312 39.207031 49.746094 C 46.65625 51.421875 51.34375 58.8125 49.671875 66.253906 C 48 73.699219 40.609375 78.375 33.160156 76.699219 Z M 62.699219 71.9375 L 63.875 66.703125 L 58.574219 64.1875 C 58.632812 62.925781 58.582031 61.679688 58.429688 60.449219 L 63.496094 57.523438 L 61.894531 52.398438 L 56.046875 52.871094 C 55.46875 51.765625 54.800781 50.707031 54.046875 49.710938 L 56.972656 44.632812 L 53.023438 40.996094 L 48.207031 44.320312 C 47.164062 43.65625 46.054688 43.082031 44.890625 42.589844 L 44.882812 36.726562 L 39.640625 35.550781 L 37.132812 40.84375 C 35.871094 40.789062 34.621094 40.835938 33.394531 40.988281 L 30.457031 35.921875 L 25.332031 37.519531 L 25.808594 43.363281 C 24.703125 43.941406 23.648438 44.609375 22.652344 45.359375 L 17.570312 42.429688 L 13.933594 46.375 L 17.261719 51.195312 C 16.597656 52.234375 16.023438 53.34375 15.53125 54.507812 L 9.667969 54.507812 L 8.492188 59.746094 L 13.792969 62.257812 C 13.738281 63.519531 13.785156 64.769531 13.941406 65.996094 L 8.871094 68.925781 L 10.472656 74.046875 L 16.320312 73.578125 C 16.898438 74.683594 17.566406 75.738281 18.320312 76.734375 L 15.394531 81.8125 L 19.34375 85.449219 L 24.164062 82.128906 C 25.207031 82.789062 26.316406 83.367188 27.480469 83.855469 L 27.488281 89.71875 L 32.726562 90.898438 L 35.238281 85.601562 C 36.5 85.660156 37.75 85.609375 38.976562 85.457031 L 41.910156 90.523438 L 47.035156 88.929688 L 46.558594 83.085938 C 47.664062 82.507812 48.722656 81.839844 49.714844 81.089844 L 54.800781 84.015625 L 58.4375 80.074219 L 55.105469 75.253906 C 55.769531 74.210938 56.347656 73.101562 56.835938 71.9375 L 62.699219 71.9375 " fill-opacity="1" fill-rule="nonzero"/><path fill="#230b41" d="M 64.40625 36.191406 C 59.8125 33.390625 58.355469 27.398438 61.15625 22.808594 C 63.957031 18.222656 69.953125 16.773438 74.546875 19.574219 C 79.144531 22.375 80.597656 28.359375 77.796875 32.953125 C 75 37.539062 69.003906 38.992188 64.40625 36.191406 Z M 85.214844 39.683594 L 87.183594 36.457031 L 84.210938 33.582031 C 84.535156 32.753906 84.785156 31.910156 84.960938 31.058594 L 89.007812 30.246094 L 89.097656 26.464844 L 85.085938 25.457031 C 84.949219 24.59375 84.742188 23.738281 84.464844 22.902344 L 87.566406 20.175781 L 85.753906 16.855469 L 81.785156 17.984375 C 81.238281 17.308594 80.628906 16.671875 79.960938 16.082031 L 81.28125 12.167969 L 78.050781 10.199219 L 75.175781 13.164062 C 74.34375 12.84375 73.5 12.59375 72.644531 12.417969 L 71.832031 8.371094 L 68.046875 8.28125 L 67.042969 12.285156 C 66.175781 12.421875 65.320312 12.628906 64.484375 12.90625 L 61.753906 9.800781 L 58.429688 11.613281 L 59.5625 15.578125 C 58.886719 16.125 58.25 16.734375 57.660156 17.398438 L 53.742188 16.078125 L 51.773438 19.304688 L 54.742188 22.179688 C 54.421875 23.007812 54.171875 23.851562 53.996094 24.707031 L 49.949219 25.515625 L 49.859375 29.292969 L 53.871094 30.300781 C 54.003906 31.167969 54.210938 32.027344 54.488281 32.859375 L 51.386719 35.585938 L 53.203125 38.90625 L 57.171875 37.777344 C 57.71875 38.457031 58.328125 39.089844 58.996094 39.679688 L 57.671875 43.59375 L 60.90625 45.5625 L 63.78125 42.597656 C 64.609375 42.917969 65.457031 43.171875 66.308594 43.34375 L 67.121094 47.390625 L 70.90625 47.480469 L 71.910156 43.476562 C 72.78125 43.339844 73.636719 43.132812 74.46875 42.859375 L 77.203125 45.960938 L 80.523438 44.148438 L 79.390625 40.183594 C 80.070312 39.636719 80.707031 39.027344 81.296875 38.363281 L 85.214844 39.683594 " fill-opacity="1" fill-rule="nonzero"/><path fill="#523762" d="M 248.039062 12.191406 L 204.328125 12.191406 C 202.171875 12.191406 200.425781 13.9375 200.425781 16.089844 L 200.425781 74.167969 C 200.425781 76.320312 202.171875 78.070312 204.328125 78.070312 L 248.039062 78.070312 C 250.191406 78.070312 251.9375 76.320312 251.9375 74.167969 L 251.9375 16.089844 C 251.9375 13.9375 250.191406 12.191406 248.039062 12.191406 " fill-opacity="1" fill-rule="nonzero"/><path fill="#000000" d="M 204.328125 12.828125 C 202.527344 12.828125 201.066406 14.292969 201.066406 16.09375 L 201.066406 74.167969 C 201.066406 75.96875 202.527344 77.429688 204.328125 77.429688 L 248.039062 77.429688 C 249.835938 77.429688 251.300781 75.96875 251.300781 74.167969 L 251.300781 16.09375 C 251.300781 14.292969 249.835938 12.828125 248.039062 12.828125 Z M 248.039062 78.707031 L 204.328125 78.707031 C 201.828125 78.707031 199.792969 76.671875 199.792969 74.167969 L 199.792969 16.09375 C 199.792969 13.589844 201.828125 11.554688 204.328125 11.554688 L 248.039062 11.554688 C 250.539062 11.554688 252.574219 13.589844 252.574219 16.09375 L 252.574219 74.167969 C 252.574219 76.671875 250.539062 78.707031 248.039062 78.707031 " fill-opacity="1" fill-rule="nonzero"/><path fill="#ffffff" d="M 216.496094 67.890625 L 206.550781 67.890625 L 206.550781 42.734375 L 216.496094 42.734375 L 216.496094 67.890625 " fill-opacity="1" fill-rule="nonzero"/><path fill="#ffffff" d="M 230.851562 67.890625 L 220.90625 67.890625 L 220.90625 31.675781 L 230.851562 31.675781 L 230.851562 67.890625 " fill-opacity="1" fill-rule="nonzero"/><path fill="#ffffff" d="M 245.207031 67.890625 L 235.257812 67.890625 L 235.257812 22.808594 L 245.207031 22.808594 L 245.207031 67.890625 " fill-opacity="1" fill-rule="nonzero"/><path fill="#523762" d="M 295.226562 25.507812 C 293.082031 21.929688 287.847656 21.90625 285.703125 25.480469 L 248.355469 87.871094 C 246.101562 91.632812 248.773438 96.539062 253.117188 96.539062 L 265.746094 96.539062 C 269.167969 96.539062 271.792969 99.539062 271.246094 102.96875 C 265.902344 136.777344 205.558594 302.421875 34.976562 340.613281 C 42.507812 354.984375 110.890625 360.960938 139.363281 359.070312 C 270.480469 308.152344 306.535156 134.679688 307.164062 102.042969 C 307.226562 98.96875 309.703125 96.539062 312.734375 96.539062 L 327.8125 96.539062 C 332.15625 96.539062 334.828125 91.621094 332.574219 87.859375 L 295.226562 25.507812 " fill-opacity="1" fill-rule="nonzero"/><path fill="#230b41" d="M 28.484375 359.585938 L 123.234375 359.585938 C 128.921875 359.585938 133.175781 354.367188 132.03125 348.796875 L 117.65625 278.917969 C 116.449219 273.042969 111.273438 268.824219 105.273438 268.824219 L 24 268.824219 L 28.484375 359.585938 " fill-opacity="1" fill-rule="nonzero"/><path fill="#000000" d="M 29.089844 358.953125 L 123.234375 358.953125 C 125.753906 358.953125 128.109375 357.832031 129.703125 355.878906 C 131.292969 353.925781 131.914062 351.390625 131.40625 348.925781 L 117.03125 279.046875 C 115.890625 273.492188 110.945312 269.460938 105.273438 269.460938 L 24.671875 269.460938 Z M 123.234375 360.222656 L 28.484375 360.222656 C 28.144531 360.222656 27.863281 359.957031 27.847656 359.621094 L 23.367188 268.855469 C 23.355469 268.679688 23.421875 268.511719 23.539062 268.386719 C 23.660156 268.257812 23.828125 268.1875 24 268.1875 L 105.273438 268.1875 C 111.546875 268.1875 117.015625 272.644531 118.28125 278.789062 L 132.65625 348.667969 C 133.238281 351.511719 132.523438 354.433594 130.6875 356.683594 C 128.855469 358.933594 126.136719 360.222656 123.234375 360.222656 " fill-opacity="1" fill-rule="nonzero"/><path fill="#230b41" d="M 16.351562 359.585938 L 34.738281 359.585938 C 40.425781 359.585938 44.683594 354.367188 43.535156 348.796875 L 27.703125 271.832031 C 27.34375 270.078125 25.804688 268.824219 24.015625 268.824219 L 19.289062 268.824219 C 17.328125 268.824219 15.695312 270.328125 15.535156 272.28125 L 9.058594 351.675781 C 8.710938 355.9375 12.074219 359.585938 16.351562 359.585938 " fill-opacity="1" fill-rule="nonzero"/><path fill="#000000" d="M 19.289062 269.460938 C 17.671875 269.460938 16.300781 270.722656 16.167969 272.332031 L 9.695312 351.730469 C 9.539062 353.609375 10.160156 355.410156 11.4375 356.796875 C 12.71875 358.183594 14.464844 358.953125 16.351562 358.953125 L 34.738281 358.953125 C 37.257812 358.953125 39.617188 357.832031 41.207031 355.878906 C 42.800781 353.925781 43.421875 351.390625 42.914062 348.925781 L 27.078125 271.957031 C 26.78125 270.511719 25.492188 269.460938 24.015625 269.460938 Z M 34.738281 360.222656 L 16.351562 360.222656 C 14.136719 360.222656 12.003906 359.289062 10.503906 357.660156 C 9.003906 356.03125 8.246094 353.832031 8.425781 351.625 L 14.902344 272.230469 C 15.085938 269.960938 17.011719 268.1875 19.289062 268.1875 L 24.015625 268.1875 C 26.09375 268.1875 27.90625 269.664062 28.328125 271.703125 L 44.160156 348.667969 C 44.746094 351.511719 44.027344 354.433594 42.195312 356.683594 C 40.359375 358.933594 37.640625 360.222656 34.738281 360.222656 " fill-opacity="1" fill-rule="nonzero"/><path fill="#000000" d="M 115.578125 306.140625 L 41.390625 306.140625 C 38.886719 306.140625 36.734375 304.441406 36.15625 302.003906 L 29.617188 274.394531 C 29.535156 274.050781 29.746094 273.710938 30.089844 273.628906 C 30.429688 273.546875 30.773438 273.757812 30.855469 274.101562 L 37.394531 301.707031 C 37.835938 303.570312 39.480469 304.867188 41.390625 304.867188 L 115.578125 304.867188 C 115.929688 304.867188 116.214844 305.152344 116.214844 305.503906 C 116.214844 305.855469 115.929688 306.140625 115.578125 306.140625 " fill-opacity="1" fill-rule="nonzero"/><path fill="#ffffff" d="M 70.027344 305.503906 L 72.105469 313.886719 C 72.441406 315.304688 73.707031 316.308594 75.164062 316.308594 L 89.855469 316.308594 C 91.457031 316.308594 92.617188 314.78125 92.1875 313.238281 L 90.035156 305.503906 L 70.027344 305.503906 " fill-opacity="1" fill-rule="nonzero"/><path fill="#000000" d="M 70.839844 306.140625 L 72.722656 313.734375 C 72.992188 314.878906 73.996094 315.671875 75.164062 315.671875 L 89.855469 315.671875 C 90.417969 315.671875 90.933594 315.414062 91.277344 314.96875 C 91.617188 314.519531 91.722656 313.953125 91.574219 313.410156 L 89.550781 306.140625 Z M 89.855469 316.945312 L 75.164062 316.945312 C 73.402344 316.945312 71.890625 315.746094 71.484375 314.035156 L 69.40625 305.65625 C 69.359375 305.46875 69.402344 305.265625 69.523438 305.113281 C 69.644531 304.957031 69.828125 304.867188 70.027344 304.867188 L 90.035156 304.867188 C 90.320312 304.867188 90.570312 305.058594 90.648438 305.335938 L 92.800781 313.070312 C 93.058594 314 92.871094 314.96875 92.289062 315.738281 C 91.707031 316.503906 90.820312 316.945312 89.855469 316.945312 " fill-opacity="1" fill-rule="nonzero"/><path fill="#000000" d="M 126.976562 353.203125 L 48.164062 353.203125 C 47.8125 353.203125 47.527344 352.917969 47.527344 352.566406 C 47.527344 352.214844 47.8125 351.929688 48.164062 351.929688 L 126.976562 351.929688 C 127.328125 351.929688 127.613281 352.214844 127.613281 352.566406 C 127.613281 352.917969 127.328125 353.203125 126.976562 353.203125 " fill-opacity="1" fill-rule="nonzero"/><path fill="#230b41" d="M 86.554688 265.652344 L 92.707031 265.652344 C 94.367188 265.652344 95.714844 267 95.714844 268.660156 L 83.542969 268.660156 C 83.542969 267 84.890625 265.652344 86.554688 265.652344 " fill-opacity="1" fill-rule="nonzero"/><path fill="#000000" d="M 84.265625 268.027344 L 94.992188 268.027344 C 94.710938 267.023438 93.792969 266.289062 92.707031 266.289062 L 86.554688 266.289062 C 85.464844 266.289062 84.546875 267.023438 84.265625 268.027344 Z M 95.714844 269.296875 L 83.542969 269.296875 C 83.191406 269.296875 82.90625 269.011719 82.90625 268.660156 C 82.90625 266.652344 84.542969 265.015625 86.554688 265.015625 L 92.707031 265.015625 C 94.714844 265.015625 96.351562 266.652344 96.351562 268.660156 C 96.351562 269.011719 96.066406 269.296875 95.714844 269.296875 " fill-opacity="1" fill-rule="nonzero"/><path fill="#230b41" d="M 37.25 265.652344 L 43.398438 265.652344 C 45.0625 265.652344 46.410156 267 46.410156 268.660156 L 34.238281 268.660156 C 34.238281 267 35.585938 265.652344 37.25 265.652344 " fill-opacity="1" fill-rule="nonzero"/><path fill="#000000" d="M 34.960938 268.027344 L 45.6875 268.027344 C 45.40625 267.023438 44.488281 266.289062 43.398438 266.289062 L 37.25 266.289062 C 36.160156 266.289062 35.242188 267.023438 34.960938 268.027344 Z M 46.410156 269.296875 L 34.238281 269.296875 C 33.886719 269.296875 33.601562 269.011719 33.601562 268.660156 C 33.601562 266.652344 35.238281 265.015625 37.25 265.015625 L 43.398438 265.015625 C 45.410156 265.015625 47.046875 266.652344 47.046875 268.660156 C 47.046875 269.011719 46.761719 269.296875 46.410156 269.296875 " fill-opacity="1" fill-rule="nonzero"/><path fill="#ffffff" d="M 38.855469 265.488281 L 37.863281 259.601562 C 37.160156 255.425781 39.976562 252.039062 44.152344 252.039062 L 81.042969 252.039062 C 85.21875 252.039062 89.171875 255.425781 89.875 259.601562 L 90.867188 265.488281 L 88.042969 265.488281 L 87.273438 260.90625 C 86.726562 257.65625 83.648438 255.023438 80.398438 255.023438 L 45.800781 255.023438 C 42.550781 255.023438 40.359375 257.65625 40.90625 260.90625 L 41.679688 265.488281 L 38.855469 265.488281 " fill-opacity="1" fill-rule="nonzero"/><path fill="#000000" d="M 88.582031 264.851562 L 90.113281 264.851562 L 89.25 259.707031 C 88.597656 255.828125 84.914062 252.675781 81.042969 252.675781 L 44.152344 252.675781 C 42.34375 252.675781 40.757812 253.371094 39.695312 254.628906 C 38.605469 255.914062 38.179688 257.644531 38.492188 259.496094 L 39.394531 264.851562 L 40.925781 264.851562 L 40.277344 261.011719 C 39.980469 259.238281 40.402344 257.566406 41.46875 256.304688 C 42.515625 255.066406 44.054688 254.382812 45.800781 254.382812 L 80.398438 254.382812 C 83.9375 254.382812 87.304688 257.261719 87.898438 260.800781 Z M 90.867188 266.128906 L 88.042969 266.128906 C 87.734375 266.128906 87.46875 265.902344 87.417969 265.597656 L 86.644531 261.011719 C 86.148438 258.0625 83.34375 255.660156 80.398438 255.660156 L 45.800781 255.660156 C 44.433594 255.660156 43.242188 256.179688 42.441406 257.128906 C 41.621094 258.097656 41.296875 259.402344 41.535156 260.800781 L 42.304688 265.386719 C 42.335938 265.570312 42.285156 265.757812 42.164062 265.902344 C 42.042969 266.046875 41.863281 266.128906 41.679688 266.128906 L 38.855469 266.128906 C 38.542969 266.128906 38.277344 265.902344 38.226562 265.597656 L 37.234375 259.707031 C 36.859375 257.480469 37.386719 255.382812 38.722656 253.808594 C 40.035156 252.257812 41.960938 251.402344 44.152344 251.402344 L 81.042969 251.402344 C 85.507812 251.402344 89.753906 255.03125 90.503906 259.496094 L 91.496094 265.386719 C 91.527344 265.570312 91.472656 265.757812 91.355469 265.902344 C 91.234375 266.046875 91.054688 266.128906 90.867188 266.128906 " fill-opacity="1" fill-rule="nonzero"/><path fill="#523762" d="M 45.984375 249.601562 L 78.390625 249.601562 C 79.695312 249.601562 80.933594 250.660156 81.152344 251.964844 L 81.628906 254.796875 C 81.847656 256.101562 80.96875 257.160156 79.660156 257.160156 L 47.257812 257.160156 C 45.949219 257.160156 44.714844 256.101562 44.496094 254.796875 L 44.015625 251.964844 C 43.796875 250.660156 44.679688 249.601562 45.984375 249.601562 " fill-opacity="1" fill-rule="nonzero"/><path fill="#000000" d="M 45.984375 250.238281 C 45.550781 250.238281 45.171875 250.398438 44.925781 250.691406 C 44.667969 250.996094 44.570312 251.410156 44.644531 251.859375 L 45.121094 254.691406 C 45.289062 255.6875 46.265625 256.523438 47.257812 256.523438 L 79.660156 256.523438 C 80.097656 256.523438 80.472656 256.363281 80.722656 256.070312 C 80.976562 255.765625 81.074219 255.355469 81 254.902344 L 80.523438 252.070312 C 80.355469 251.078125 79.378906 250.238281 78.390625 250.238281 Z M 79.660156 257.800781 L 47.257812 257.800781 C 45.628906 257.800781 44.140625 256.527344 43.867188 254.902344 L 43.390625 252.070312 C 43.25 251.246094 43.449219 250.464844 43.953125 249.871094 C 44.445312 249.285156 45.167969 248.964844 45.984375 248.964844 L 78.390625 248.964844 C 80.015625 248.964844 81.507812 250.238281 81.777344 251.859375 L 82.257812 254.691406 C 82.394531 255.515625 82.195312 256.296875 81.691406 256.890625 C 81.199219 257.476562 80.476562 257.800781 79.660156 257.800781 " fill-opacity="1" fill-rule="nonzero"/><path fill="#000000" d="M 34.910156 353.203125 C 34.804688 353.203125 34.699219 353.175781 34.597656 353.121094 L 21.894531 345.882812 C 21.695312 345.769531 21.574219 345.558594 21.574219 345.332031 L 21.574219 274.246094 C 21.574219 273.894531 21.859375 273.613281 22.210938 273.613281 C 22.5625 273.613281 22.847656 273.894531 22.847656 274.246094 L 22.847656 344.960938 L 35.226562 352.015625 C 35.535156 352.1875 35.640625 352.578125 35.464844 352.882812 C 35.347656 353.085938 35.132812 353.203125 34.910156 353.203125 " fill-opacity="1" fill-rule="nonzero"/><path fill="#000000" d="M 13.96875 352.074219 C 13.796875 352.074219 13.628906 352.007812 13.507812 351.875 C 13.269531 351.625 13.269531 351.238281 13.511719 350.996094 C 13.792969 350.71875 19.425781 346.582031 21.835938 344.816406 C 22.117188 344.609375 22.515625 344.671875 22.726562 344.953125 C 22.933594 345.238281 22.871094 345.636719 22.585938 345.84375 C 19.472656 348.125 14.71875 351.625 14.398438 351.910156 C 14.277344 352.019531 14.121094 352.074219 13.96875 352.074219 " fill-opacity="1" fill-rule="nonzero"/><path fill="#000000" d="M 300.933594 129.726562 C 295.917969 125.921875 291.070312 121.90625 284.261719 122.40625 C 280.90625 122.652344 280.285156 123.453125 276.902344 122.117188 C 275.519531 121.570312 273.609375 119.445312 271.980469 120.144531 C 269.765625 121.09375 269.128906 126.074219 270.203125 130.101562 C 271.269531 134.105469 274.878906 136.613281 277.003906 139.984375 C 280.320312 145.238281 283.546875 149.582031 287.863281 154.148438 C 292.214844 158.753906 296.445312 164.183594 296.691406 170.519531 C 296.917969 176.261719 293.808594 181.59375 292.9375 187.277344 C 290.839844 201.015625 301.402344 210.179688 313.617188 213.28125 C 318.414062 214.5 323.632812 214.523438 328.175781 212.5625 C 335.882812 209.246094 335.507812 203.304688 338.648438 196.824219 C 339.933594 194.164062 342.386719 192.304688 344.386719 190.128906 C 350.40625 183.578125 355.625 164.925781 342.882812 162.265625 C 339.699219 161.601562 336.15625 162.617188 333.285156 161.09375 C 329.359375 159.007812 329.773438 154.703125 328.421875 151.140625 C 327.0625 147.5625 324.40625 144.449219 321.496094 142.042969 C 315.308594 136.929688 307.328125 134.566406 300.933594 129.726562 " fill-opacity="1" fill-rule="nonzero"/><path fill="#ffffff" d="M 333.488281 331.050781 C 334.816406 333.75 337.628906 339.757812 339.09375 345.847656 C 339.683594 348.308594 339.046875 349.703125 338.488281 351.695312 C 337.679688 354.558594 336.773438 355.902344 337.164062 356.714844 C 337.996094 358.425781 347.5 358 350.652344 352.808594 C 351.660156 351.148438 351.867188 348.71875 350.207031 340.054688 C 348.5 331.164062 349.136719 329.777344 347.824219 328.695312 C 343.695312 325.292969 334.632812 330.386719 333.488281 331.050781 " fill-opacity="1" fill-rule="nonzero"/><path fill="#000000" d="M 334.320312 331.3125 C 336.125 335.035156 338.433594 340.386719 339.710938 345.703125 C 340.261719 347.976562 339.832031 349.40625 339.335938 351.058594 C 339.257812 351.316406 339.179688 351.585938 339.101562 351.867188 C 338.789062 352.964844 338.46875 353.839844 338.207031 354.542969 C 337.886719 355.417969 337.609375 356.171875 337.738281 356.4375 C 337.816406 356.585938 338.492188 356.929688 339.980469 356.972656 C 342.902344 357.0625 348.007812 355.941406 350.105469 352.480469 C 351.011719 350.992188 351.195312 348.589844 349.578125 340.175781 C 348.878906 336.515625 348.566406 334.097656 348.363281 332.496094 C 348.0625 330.160156 347.980469 329.648438 347.417969 329.1875 C 344.03125 326.390625 336.511719 330.121094 334.320312 331.3125 Z M 340.304688 358.253906 C 340.113281 358.253906 339.929688 358.246094 339.753906 358.238281 C 338.558594 358.183594 337.042969 357.921875 336.59375 356.992188 C 336.226562 356.242188 336.542969 355.390625 337.011719 354.105469 C 337.265625 353.421875 337.578125 352.570312 337.875 351.523438 C 337.953125 351.234375 338.035156 350.960938 338.117188 350.691406 C 338.578125 349.15625 338.941406 347.941406 338.472656 346 C 337.160156 340.53125 334.726562 335.003906 332.914062 331.332031 L 332.648438 330.796875 L 333.167969 330.5 C 334.921875 329.488281 343.894531 324.632812 348.226562 328.203125 C 349.199219 329.003906 349.3125 329.910156 349.625 332.335938 C 349.828125 333.921875 350.136719 336.316406 350.832031 339.933594 C 352.542969 348.859375 352.3125 351.300781 351.195312 353.140625 C 348.886719 356.945312 343.625 358.253906 340.304688 358.253906 " fill-opacity="1" fill-rule="nonzero"/><path fill="#230b41" d="M 339.078125 356.429688 C 338.75 356.429688 338.472656 356.179688 338.441406 355.847656 C 338.414062 355.496094 338.671875 355.1875 339.019531 355.160156 C 342.574219 354.851562 345.097656 353.589844 346.511719 351.40625 C 349.207031 347.277344 347.136719 341.105469 347.117188 341.046875 C 347 340.714844 347.179688 340.351562 347.511719 340.238281 C 347.84375 340.121094 348.207031 340.296875 348.320312 340.632812 C 348.414062 340.90625 350.609375 347.441406 347.585938 352.097656 C 345.941406 354.625 343.097656 356.082031 339.132812 356.429688 C 339.113281 356.429688 339.09375 356.429688 339.078125 356.429688 " fill-opacity="1" fill-rule="nonzero"/><path fill="#ffffff" d="M 290.355469 342.285156 C 290.355469 342.285156 289.863281 346.109375 291.476562 354.910156 C 291.707031 356.175781 290.363281 357.214844 289.085938 357.328125 C 283.863281 357.789062 271.601562 358.621094 261.371094 358.292969 C 260.421875 358.265625 259.734375 357.542969 259.519531 356.925781 C 257.628906 351.40625 272.703125 349.640625 273.3125 345.898438 C 274.410156 339.203125 290.355469 342.285156 290.355469 342.285156 " fill-opacity="1" fill-rule="nonzero"/><path fill="#000000" d="M 282.714844 342.210938 C 279.976562 342.210938 277.132812 342.5625 275.414062 343.757812 C 274.574219 344.347656 274.089844 345.078125 273.941406 346 C 273.625 347.9375 270.714844 349.1875 267.34375 350.628906 C 263.355469 352.339844 259.226562 354.105469 260.121094 356.71875 C 260.246094 357.070312 260.695312 357.636719 261.390625 357.660156 C 273.351562 358.035156 287.460938 356.832031 289.027344 356.691406 C 289.640625 356.636719 290.28125 356.304688 290.617188 355.863281 C 290.820312 355.59375 290.902344 355.3125 290.847656 355.027344 C 289.574219 348.089844 289.597656 344.214844 289.671875 342.8125 C 288.507812 342.621094 285.667969 342.210938 282.714844 342.210938 Z M 266.308594 359.003906 C 264.640625 359.003906 262.976562 358.984375 261.351562 358.929688 C 260.144531 358.894531 259.214844 357.996094 258.917969 357.132812 C 257.636719 353.402344 262.53125 351.308594 266.84375 349.457031 C 269.484375 348.328125 272.480469 347.042969 272.683594 345.796875 C 272.890625 344.535156 273.566406 343.5 274.6875 342.714844 C 279.246094 339.535156 290.019531 341.570312 290.476562 341.660156 L 291.0625 341.773438 L 290.988281 342.367188 C 290.976562 342.429688 290.539062 346.269531 292.101562 354.796875 C 292.21875 355.4375 292.054688 356.074219 291.628906 356.632812 C 291.070312 357.367188 290.121094 357.875 289.140625 357.960938 C 287.777344 358.082031 276.988281 359.003906 266.308594 359.003906 " fill-opacity="1" fill-rule="nonzero"/><path fill="#230b41" d="M 268.164062 356.699219 C 266.253906 356.699219 264.359375 356.640625 262.554688 356.515625 C 262.203125 356.488281 261.9375 356.183594 261.96875 355.832031 C 261.988281 355.484375 262.300781 355.214844 262.644531 355.242188 C 273.585938 356.03125 287.019531 354.09375 288.285156 353.28125 C 288.578125 353.089844 288.972656 353.179688 289.164062 353.472656 C 289.355469 353.769531 289.269531 354.164062 288.972656 354.351562 C 287.496094 355.300781 277.609375 356.699219 268.164062 356.699219 " fill-opacity="1" fill-rule="nonzero"/><path fill="#000000" d="M 265.445312 204.980469 C 265.445312 204.980469 266.746094 297.160156 262.359375 338.714844 C 261.644531 345.488281 267.167969 351.296875 273.96875 350.921875 C 276.097656 350.804688 278.5625 350.335938 281.417969 349.375 C 287.824219 347.214844 292.863281 346.820312 296.445312 347.027344 C 299.953125 347.230469 302.898438 344.398438 302.886719 340.882812 C 302.839844 322.996094 302.390625 277.839844 299.144531 258.878906 C 299.144531 258.878906 312.90625 298.78125 324.1875 334.019531 C 325.523438 338.195312 329.511719 340.925781 333.890625 340.703125 C 338.839844 340.449219 345.734375 339.148438 353.277344 334.890625 C 358.402344 332 360.824219 325.921875 359.175781 320.273438 C 353.0625 299.367188 334.378906 245.21875 294.140625 199.828125 L 265.445312 204.980469 " fill-opacity="1" fill-rule="nonzero"/><path fill="#ae9fcf" d="M 301.652344 268.644531 C 301.375 268.644531 301.121094 268.464844 301.039062 268.191406 C 299.414062 262.738281 295.210938 251.699219 291.820312 243.191406 C 290 238.628906 286.058594 235.234375 281.273438 234.113281 C 280.933594 234.035156 280.71875 233.691406 280.800781 233.347656 C 280.878906 233.003906 281.222656 232.789062 281.566406 232.875 C 286.753906 234.089844 291.03125 237.773438 293 242.71875 C 296.402344 251.257812 300.621094 262.332031 302.261719 267.828125 C 302.359375 268.164062 302.167969 268.519531 301.832031 268.617188 C 301.773438 268.636719 301.710938 268.644531 301.652344 268.644531 " fill-opacity="1" fill-rule="nonzero"/><path fill="#ffffff" d="M 202.554688 145.429688 C 202.097656 144.785156 202.300781 143.875 203.023438 143.492188 C 203.539062 143.222656 204.171875 143.347656 204.585938 143.75 L 211.183594 150.136719 L 211.886719 150.003906 C 213.269531 149.738281 214.589844 150.695312 214.773438 152.085938 C 214.773438 152.085938 214.6875 156.171875 215.917969 157.769531 C 222.261719 166.003906 236.785156 180.441406 239.023438 180.441406 C 241.429688 180.441406 245.4375 178.199219 245.4375 178.199219 L 263.5625 181.726562 C 263.5625 181.726562 254.261719 196.480469 238.382812 192.953125 C 225.011719 189.980469 212.890625 168.125 209.398438 161.300781 C 208.980469 160.484375 208.304688 159.839844 207.488281 159.417969 C 207.148438 159.246094 206.824219 159.023438 206.53125 158.757812 L 203.808594 156.289062 C 202.78125 155.355469 202.441406 153.878906 202.960938 152.59375 L 203.613281 150.980469 C 204.261719 149.378906 204.050781 147.558594 203.054688 146.144531 L 202.554688 145.429688 " fill-opacity="1" fill-rule="nonzero"/><path fill="#000000" d="M 203.070312 145.066406 L 203.574219 145.78125 C 204.699219 147.375 204.933594 149.410156 204.203125 151.21875 L 203.550781 152.832031 C 203.132812 153.871094 203.40625 155.070312 204.234375 155.820312 L 206.957031 158.285156 C 207.203125 158.507812 207.480469 158.703125 207.777344 158.855469 C 208.734375 159.347656 209.492188 160.09375 209.964844 161.011719 C 213.347656 167.621094 225.402344 189.417969 238.519531 192.332031 C 251.679688 195.253906 260.292969 185.109375 262.476562 182.164062 L 245.539062 178.867188 C 244.664062 179.335938 241.269531 181.082031 239.019531 181.082031 C 236.285156 181.082031 221.398438 165.929688 215.414062 158.160156 C 214.125 156.488281 214.125 152.765625 214.132812 152.128906 C 214.058594 151.648438 213.804688 151.226562 213.40625 150.941406 C 212.996094 150.644531 212.5 150.535156 212.003906 150.628906 L 211.304688 150.761719 C 211.097656 150.800781 210.890625 150.738281 210.738281 150.597656 L 204.140625 144.210938 C 203.914062 143.984375 203.574219 143.921875 203.320312 144.058594 C 203.136719 144.15625 203.011719 144.3125 202.964844 144.511719 C 202.917969 144.699219 202.957031 144.90625 203.070312 145.066406 Z M 243.195312 194.128906 C 241.621094 194.128906 239.972656 193.957031 238.242188 193.574219 C 224.585938 190.539062 212.277344 168.328125 208.828125 161.59375 C 208.484375 160.910156 207.914062 160.355469 207.195312 159.988281 C 206.800781 159.78125 206.429688 159.527344 206.101562 159.230469 L 203.378906 156.761719 C 202.15625 155.652344 201.753906 153.882812 202.371094 152.355469 L 203.023438 150.742188 C 203.59375 149.335938 203.410156 147.757812 202.535156 146.515625 L 202.03125 145.800781 C 201.703125 145.339844 201.597656 144.761719 201.726562 144.210938 C 201.859375 143.664062 202.222656 143.195312 202.726562 142.933594 C 203.476562 142.539062 204.398438 142.6875 205.027344 143.296875 L 211.390625 149.449219 L 211.765625 149.378906 C 212.609375 149.214844 213.457031 149.40625 214.152344 149.90625 C 214.847656 150.410156 215.292969 151.15625 215.402344 152.007812 C 215.410156 152.039062 215.410156 152.070312 215.410156 152.101562 C 215.386719 153.179688 215.527344 156.21875 216.421875 157.382812 C 223.078125 166.023438 237.136719 179.675781 239.023438 179.808594 C 241.234375 179.808594 245.085938 177.664062 245.125 177.644531 C 245.257812 177.570312 245.410156 177.546875 245.5625 177.574219 L 263.679688 181.101562 C 263.886719 181.144531 264.0625 181.28125 264.144531 181.472656 C 264.226562 181.667969 264.210938 181.886719 264.097656 182.066406 C 264.011719 182.199219 256.324219 194.128906 243.195312 194.128906 " fill-opacity="1" fill-rule="nonzero"/><path fill="#ffffff" d="M 327.929688 180.492188 C 323.464844 173.257812 318.148438 166.402344 314.34375 161.773438 C 311.441406 158.242188 307.210938 156.085938 302.671875 155.800781 C 302.335938 155.722656 301.984375 155.675781 301.621094 155.671875 L 272.398438 155.25 C 267.035156 155.15625 261.339844 158.132812 258.203125 162.488281 C 255.289062 166.53125 250.332031 171.054688 245.972656 174.625 C 244.773438 175.605469 244.09375 177.082031 244.160156 178.628906 C 244.464844 185.625 248.632812 188.90625 250.816406 193.71875 C 251.28125 194.75 252.542969 195.152344 253.5 194.550781 C 260.839844 189.9375 263.5625 183.8125 263.5625 183.8125 L 262.757812 208.027344 C 262.757812 208.027344 265.242188 211.699219 273.34375 208.988281 C 281.445312 206.28125 295.925781 197.429688 309.820312 207.777344 L 307.269531 183.59375 C 308.871094 185.183594 310.96875 187.472656 312.902344 190.226562 C 313.34375 190.855469 314.191406 191.03125 314.855469 190.640625 C 319.238281 188.070312 324.945312 188.84375 328.039062 183.046875 C 328.46875 182.242188 328.40625 181.265625 327.929688 180.492188 " fill-opacity="1" fill-rule="nonzero"/><path fill="#000000" d="M 263.402344 207.8125 C 263.957031 208.417969 266.503906 210.605469 273.144531 208.386719 C 274.40625 207.964844 275.863281 207.375 277.40625 206.753906 C 285.425781 203.511719 297.414062 198.667969 309.035156 206.449219 L 306.632812 183.664062 C 306.605469 183.394531 306.75 183.140625 306.992188 183.023438 C 307.234375 182.90625 307.527344 182.957031 307.714844 183.144531 C 309.203125 184.621094 311.402344 186.988281 313.421875 189.863281 C 313.671875 190.21875 314.148438 190.316406 314.53125 190.09375 C 316.078125 189.1875 317.769531 188.679688 319.40625 188.191406 C 322.570312 187.246094 325.550781 186.355469 327.480469 182.746094 C 327.789062 182.160156 327.753906 181.425781 327.386719 180.828125 C 322.902344 173.5625 317.550781 166.675781 313.851562 162.179688 C 311.078125 158.800781 306.988281 156.710938 302.632812 156.4375 C 302.597656 156.433594 302.5625 156.429688 302.527344 156.421875 C 302.222656 156.351562 301.914062 156.3125 301.609375 156.308594 L 272.390625 155.886719 C 267.273438 155.792969 261.789062 158.601562 258.714844 162.859375 C 255.605469 167.179688 250.285156 171.910156 246.371094 175.121094 C 245.328125 175.976562 244.738281 177.277344 244.792969 178.601562 C 244.992188 183.167969 246.9375 186.144531 248.816406 189.023438 C 249.726562 190.421875 250.671875 191.863281 251.394531 193.457031 C 251.546875 193.792969 251.828125 194.039062 252.175781 194.144531 C 252.511719 194.246094 252.863281 194.199219 253.160156 194.011719 C 260.25 189.554688 262.953125 183.609375 262.976562 183.550781 C 263.101562 183.273438 263.40625 183.121094 263.703125 183.191406 C 264 183.257812 264.207031 183.527344 264.195312 183.832031 Z M 267.949219 210.625 C 263.8125 210.625 262.316406 208.507812 262.230469 208.386719 C 262.15625 208.273438 262.117188 208.140625 262.125 208.007812 L 262.839844 186.359375 C 261.359375 188.621094 258.527344 192.140625 253.835938 195.09375 C 253.234375 195.472656 252.496094 195.570312 251.808594 195.363281 C 251.109375 195.15625 250.539062 194.648438 250.234375 193.984375 C 249.554688 192.476562 248.675781 191.136719 247.75 189.71875 C 245.777344 186.699219 243.734375 183.574219 243.523438 178.65625 C 243.445312 176.9375 244.210938 175.246094 245.566406 174.132812 C 249.421875 170.972656 254.652344 166.324219 257.683594 162.117188 C 260.984375 157.535156 266.902344 154.527344 272.410156 154.613281 L 301.628906 155.039062 C 302.003906 155.042969 302.382812 155.085938 302.761719 155.167969 C 307.449219 155.480469 311.847656 157.734375 314.835938 161.367188 C 318.558594 165.898438 323.949219 172.835938 328.472656 180.160156 C 329.078125 181.140625 329.125 182.359375 328.601562 183.34375 C 326.425781 187.421875 323.042969 188.433594 319.773438 189.414062 C 318.136719 189.902344 316.589844 190.363281 315.175781 191.191406 C 314.214844 191.753906 313.015625 191.5 312.378906 190.59375 C 310.933594 188.53125 309.386719 186.738281 308.09375 185.359375 L 310.449219 207.710938 C 310.472656 207.964844 310.347656 208.207031 310.132812 208.332031 C 309.914062 208.457031 309.640625 208.441406 309.4375 208.289062 C 298.027344 199.792969 286.382812 204.496094 277.882812 207.933594 C 276.320312 208.5625 274.847656 209.160156 273.542969 209.59375 C 271.292969 210.34375 269.449219 210.625 267.949219 210.625 " fill-opacity="1" fill-rule="nonzero"/><path fill="#ae9fcf" d="M 276.410156 219.183594 L 321.023438 243.890625 C 323.210938 245.101562 325.964844 244.3125 327.175781 242.125 L 341.964844 215.425781 C 343.175781 213.238281 342.382812 210.484375 340.195312 209.273438 L 295.585938 184.566406 C 293.398438 183.351562 290.640625 184.144531 289.429688 186.332031 L 274.648438 213.027344 C 273.4375 215.214844 274.226562 217.972656 276.410156 219.183594 " fill-opacity="1" fill-rule="nonzero"/><path fill="#ffffff" d="M 274.707031 221.714844 L 319.535156 246.546875 C 320.527344 247.09375 321.773438 246.738281 322.320312 245.75 L 339.511719 214.714844 C 340.058594 213.726562 339.699219 212.480469 338.710938 211.929688 L 293.878906 187.097656 C 292.886719 186.550781 291.640625 186.910156 291.09375 187.898438 L 273.902344 218.933594 C 273.359375 219.921875 273.714844 221.167969 274.707031 221.714844 " fill-opacity="1" fill-rule="nonzero"/><path fill="#230b41" d="M 272.226562 224.453125 L 318.773438 250.238281 C 320.960938 251.449219 323.714844 250.65625 324.925781 248.472656 L 339.714844 221.769531 C 340.925781 219.585938 340.132812 216.832031 337.945312 215.621094 L 291.398438 189.835938 C 289.210938 188.625 286.457031 189.417969 285.246094 191.605469 L 270.460938 218.304688 C 269.25 220.488281 270.039062 223.242188 272.226562 224.453125 " fill-opacity="1" fill-rule="nonzero"/><path fill="#ffffff" d="M 298.054688 226.953125 L 305.203125 223.144531 C 305.203125 223.144531 298.601562 224.054688 299.339844 221.808594 C 299.722656 220.652344 300.292969 220.710938 301.789062 220.6875 C 302.886719 220.671875 304.757812 220.566406 306.441406 220.460938 C 309.078125 220.296875 311.523438 218.996094 313.105469 216.878906 C 317.707031 210.730469 319.933594 202.164062 319.03125 198.605469 C 318.375 196.015625 315.867188 193.027344 314.019531 190.191406 C 320.425781 186.847656 323.070312 186.292969 327.242188 184.203125 C 331.992188 192.113281 331.121094 198.363281 330.699219 201.011719 C 328.914062 212.210938 317.535156 221.652344 314.007812 224.335938 C 313.332031 224.851562 312.683594 225.40625 312.070312 226 C 309.632812 228.363281 304.964844 232.300781 301.671875 231.476562 C 297.023438 230.308594 298.054688 226.953125 298.054688 226.953125 " fill-opacity="1" fill-rule="nonzero"/><path fill="#000000" d="M 298.617188 227.371094 C 298.570312 227.714844 298.550781 228.378906 298.9375 229.050781 C 299.417969 229.886719 300.390625 230.496094 301.828125 230.855469 C 304.011719 231.40625 307.582031 229.464844 311.628906 225.542969 C 312.246094 224.945312 312.917969 224.367188 313.625 223.828125 C 317.039062 221.226562 328.324219 211.882812 330.070312 200.910156 C 330.433594 198.632812 331.382812 192.664062 327 185.035156 C 325.445312 185.785156 324.078125 186.347656 322.636719 186.933594 C 320.589844 187.773438 318.285156 188.714844 314.945312 190.425781 C 315.316406 190.976562 315.703125 191.53125 316.082031 192.070312 C 317.582031 194.210938 319.132812 196.421875 319.648438 198.449219 C 320.609375 202.238281 318.234375 211.089844 313.617188 217.257812 C 311.929688 219.519531 309.324219 220.917969 306.480469 221.097656 C 304.3125 221.230469 302.738281 221.308594 301.800781 221.324219 L 301.558594 221.328125 C 300.21875 221.34375 300.15625 221.371094 299.945312 222.003906 C 299.898438 222.152344 299.929688 222.191406 299.949219 222.214844 C 300.402344 222.753906 302.984375 222.804688 305.113281 222.511719 C 305.421875 222.46875 305.710938 222.648438 305.808594 222.945312 C 305.902344 223.238281 305.773438 223.558594 305.503906 223.703125 Z M 302.625 232.226562 C 302.246094 232.226562 301.878906 232.183594 301.519531 232.09375 C 299.71875 231.640625 298.472656 230.820312 297.816406 229.65625 C 297.011719 228.226562 297.429688 226.824219 297.449219 226.765625 C 297.496094 226.601562 297.609375 226.46875 297.757812 226.390625 L 302.292969 223.972656 C 300.9375 223.949219 299.5625 223.734375 298.972656 223.03125 C 298.644531 222.640625 298.566406 222.136719 298.738281 221.609375 C 299.238281 220.085938 300.207031 220.070312 301.546875 220.054688 L 301.78125 220.050781 C 302.683594 220.035156 304.28125 219.960938 306.402344 219.824219 C 308.875 219.671875 311.128906 218.457031 312.601562 216.496094 C 317.007812 210.605469 319.304688 202.273438 318.414062 198.761719 C 317.957031 196.964844 316.476562 194.847656 315.039062 192.804688 C 314.515625 192.058594 313.976562 191.285156 313.488281 190.535156 C 313.390625 190.386719 313.359375 190.199219 313.40625 190.027344 C 313.453125 189.851562 313.566406 189.707031 313.726562 189.621094 C 317.464844 187.675781 319.957031 186.65625 322.15625 185.757812 C 323.734375 185.109375 325.226562 184.5 326.960938 183.632812 C 327.257812 183.484375 327.621094 183.589844 327.792969 183.875 C 332.753906 192.144531 331.71875 198.660156 331.328125 201.109375 C 329.507812 212.550781 317.910156 222.167969 314.394531 224.84375 C 313.726562 225.351562 313.097656 225.894531 312.515625 226.457031 C 309.707031 229.179688 305.84375 232.226562 302.625 232.226562 " fill-opacity="1" fill-rule="nonzero"/><path fill="#ffffff" d="M 279.644531 128.203125 C 278.792969 128.90625 278.300781 129.105469 277.613281 129.773438 C 276.207031 131.132812 274.984375 135.144531 272.621094 135.972656 C 272.367188 137.285156 273.417969 137.4375 273.8125 138.167969 C 273.519531 138.8125 273.035156 141.816406 272.523438 143.652344 C 272.339844 144.296875 272.667969 144.980469 273.285156 145.230469 C 274.332031 145.652344 275.507812 145.929688 276.820312 146.027344 C 276.820312 146.027344 283.554688 153.699219 276.703125 158.972656 C 276.703125 158.972656 283.128906 164.265625 290.40625 156.550781 C 291.683594 155.199219 285.796875 143.28125 285.796875 143.28125 C 285.996094 143.207031 288.625 142.199219 288.902344 140.023438 C 289.007812 139.226562 288.832031 137.953125 288.113281 137.683594 C 287.410156 137.417969 286.230469 138.121094 285.488281 139.628906 C 285.328125 139.269531 285.183594 138.8125 285.039062 138.28125 C 284.839844 137.554688 284.691406 136.726562 284.898438 136.308594 C 278.339844 134.53125 284.234375 128.15625 279.644531 128.203125 " fill-opacity="1" fill-rule="nonzero"/><path fill="#000000" d="M 277.753906 158.921875 C 279.480469 159.957031 284.398438 161.992188 289.945312 156.117188 C 290.382812 155.179688 287.84375 148.859375 285.222656 143.5625 C 285.144531 143.402344 285.132812 143.210938 285.203125 143.046875 C 285.269531 142.878906 285.40625 142.746094 285.574219 142.6875 C 285.675781 142.648438 288.039062 141.757812 288.273438 139.941406 C 288.367188 139.175781 288.136719 138.371094 287.886719 138.277344 C 287.585938 138.164062 286.695312 138.628906 286.0625 139.910156 C 285.949219 140.128906 285.746094 140.265625 285.480469 140.261719 C 285.234375 140.261719 285.011719 140.117188 284.910156 139.894531 C 284.714844 139.460938 284.554688 138.921875 284.425781 138.449219 C 284.230469 137.75 284.144531 137.195312 284.164062 136.75 C 280.664062 135.539062 280.816406 132.847656 280.925781 131.035156 C 280.972656 130.207031 281.015625 129.425781 280.71875 129.109375 C 280.5625 128.953125 280.277344 128.863281 279.867188 128.84375 C 279.558594 129.089844 279.292969 129.273438 279.054688 129.4375 C 278.707031 129.679688 278.40625 129.886719 278.050781 130.230469 C 277.605469 130.664062 277.132812 131.484375 276.632812 132.355469 C 275.734375 133.917969 274.722656 135.675781 273.21875 136.410156 C 273.234375 136.691406 273.398438 136.832031 273.691406 137.085938 C 273.921875 137.289062 274.1875 137.523438 274.371094 137.863281 C 274.46875 138.039062 274.476562 138.25 274.390625 138.433594 C 274.265625 138.707031 274.039062 139.796875 273.839844 140.757812 C 273.625 141.777344 273.382812 142.9375 273.132812 143.824219 C 273.039062 144.164062 273.207031 144.515625 273.527344 144.640625 C 274.535156 145.050781 275.664062 145.304688 276.867188 145.390625 C 277.035156 145.402344 277.191406 145.480469 277.300781 145.605469 C 277.441406 145.769531 280.800781 149.648438 280.378906 153.953125 C 280.195312 155.847656 279.3125 157.515625 277.753906 158.921875 Z M 282.101562 161.363281 C 278.667969 161.363281 276.335938 159.5 276.296875 159.464844 C 276.144531 159.339844 276.058594 159.15625 276.066406 158.960938 C 276.066406 158.765625 276.160156 158.585938 276.3125 158.46875 C 277.996094 157.175781 278.933594 155.617188 279.109375 153.835938 C 279.433594 150.578125 277.132812 147.433594 276.5 146.636719 C 275.261719 146.523438 274.105469 146.25 273.046875 145.824219 C 272.128906 145.453125 271.636719 144.445312 271.90625 143.484375 C 272.144531 142.628906 272.382812 141.5 272.59375 140.5 C 272.8125 139.449219 272.964844 138.730469 273.101562 138.273438 C 273.027344 138.203125 272.945312 138.125 272.851562 138.042969 C 272.414062 137.664062 271.757812 137.085938 271.992188 135.851562 C 272.039062 135.632812 272.195312 135.449219 272.40625 135.375 C 273.683594 134.925781 274.664062 133.222656 275.527344 131.71875 C 276.074219 130.773438 276.589844 129.875 277.167969 129.316406 C 277.597656 128.902344 277.949219 128.65625 278.328125 128.390625 C 278.605469 128.199219 278.890625 128.003906 279.238281 127.714844 C 279.351562 127.621094 279.492188 127.570312 279.636719 127.566406 C 280.546875 127.570312 281.203125 127.773438 281.636719 128.234375 C 282.320312 128.945312 282.257812 129.996094 282.195312 131.109375 C 282.082031 133.039062 281.976562 134.859375 285.066406 135.695312 C 285.25 135.746094 285.402344 135.871094 285.480469 136.046875 C 285.554688 136.21875 285.554688 136.421875 285.46875 136.589844 C 285.46875 136.59375 285.320312 136.910156 285.652344 138.113281 C 285.660156 138.136719 285.664062 138.164062 285.671875 138.191406 C 286.488281 137.238281 287.511719 136.777344 288.335938 137.085938 C 289.445312 137.503906 289.660156 139.121094 289.53125 140.105469 C 289.292969 142.003906 287.613281 143.109375 286.652344 143.597656 C 287.148438 144.628906 288.207031 146.863281 289.164062 149.164062 C 291.613281 155.035156 291.429688 156.398438 290.867188 156.992188 C 287.671875 160.378906 284.59375 161.363281 282.101562 161.363281 " fill-opacity="1" fill-rule="nonzero"/><path fill="#ffffff" d="M 282.226562 145.230469 C 282.226562 145.230469 279.984375 146.617188 277.035156 146.050781 L 282.226562 145.230469 " fill-opacity="1" fill-rule="nonzero"/><path fill="#000000" d="M 278.472656 146.824219 C 277.980469 146.824219 277.460938 146.777344 276.914062 146.675781 C 276.570312 146.609375 276.34375 146.273438 276.410156 145.929688 C 276.476562 145.585938 276.808594 145.359375 277.15625 145.425781 C 279.828125 145.9375 281.871094 144.699219 281.890625 144.6875 C 282.191406 144.503906 282.582031 144.59375 282.765625 144.890625 C 282.953125 145.191406 282.863281 145.585938 282.5625 145.769531 C 282.480469 145.820312 280.828125 146.824219 278.472656 146.824219 " fill-opacity="1" fill-rule="nonzero"/><path fill="#000000" d="M 317.527344 33.214844 C 314.945312 33.214844 312.839844 31.117188 312.839844 28.53125 C 312.839844 25.953125 314.945312 23.855469 317.527344 23.855469 C 317.878906 23.855469 318.160156 24.140625 318.160156 24.488281 C 318.160156 24.839844 317.878906 25.128906 317.527344 25.128906 C 315.644531 25.128906 314.113281 26.65625 314.113281 28.53125 C 314.113281 30.414062 315.644531 31.941406 317.527344 31.941406 C 319.410156 31.941406 320.941406 30.414062 320.941406 28.53125 C 320.941406 28.183594 321.226562 27.898438 321.578125 27.898438 C 321.929688 27.898438 322.210938 28.183594 322.210938 28.53125 C 322.210938 31.117188 320.113281 33.214844 317.527344 33.214844 " fill-opacity="1" fill-rule="nonzero"/><path fill="#000000" d="M 331.917969 43.371094 C 331.761719 43.371094 331.597656 43.308594 331.476562 43.195312 C 331.222656 42.949219 331.214844 42.546875 331.457031 42.292969 L 333.460938 40.199219 C 333.703125 39.945312 334.105469 39.9375 334.359375 40.179688 C 334.613281 40.421875 334.625 40.824219 334.378906 41.078125 L 332.378906 43.175781 C 332.253906 43.304688 332.082031 43.371094 331.917969 43.371094 " fill-opacity="1" fill-rule="nonzero"/><path fill="#000000" d="M 324.90625 50.695312 C 324.75 50.695312 324.589844 50.640625 324.464844 50.519531 C 324.210938 50.277344 324.203125 49.875 324.445312 49.621094 L 326.449219 47.527344 C 326.691406 47.273438 327.09375 47.265625 327.347656 47.507812 C 327.601562 47.75 327.613281 48.152344 327.367188 48.40625 L 325.367188 50.5 C 325.242188 50.632812 325.074219 50.695312 324.90625 50.695312 " fill-opacity="1" fill-rule="nonzero"/><path fill="#000000" d="M 326.871094 43.484375 C 326.707031 43.484375 326.546875 43.421875 326.421875 43.300781 L 324.390625 41.296875 C 324.136719 41.050781 324.136719 40.644531 324.382812 40.398438 C 324.628906 40.144531 325.03125 40.144531 325.28125 40.390625 L 327.316406 42.394531 C 327.566406 42.640625 327.566406 43.042969 327.320312 43.292969 C 327.199219 43.421875 327.035156 43.484375 326.871094 43.484375 " fill-opacity="1" fill-rule="nonzero"/><path fill="#000000" d="M 333.988281 50.496094 C 333.828125 50.496094 333.667969 50.433594 333.542969 50.3125 L 331.507812 48.308594 C 331.257812 48.0625 331.253906 47.65625 331.503906 47.410156 C 331.75 47.15625 332.152344 47.15625 332.402344 47.402344 L 334.433594 49.40625 C 334.683594 49.652344 334.691406 50.054688 334.441406 50.304688 C 334.316406 50.429688 334.152344 50.496094 333.988281 50.496094 " fill-opacity="1" fill-rule="nonzero"/><path fill="#000000" d="M 131.902344 293.988281 C 131.671875 293.988281 131.449219 293.867188 131.335938 293.648438 C 131.171875 293.335938 131.292969 292.953125 131.605469 292.789062 C 154.039062 281.085938 173.960938 264.167969 189.222656 243.878906 C 189.433594 243.597656 189.832031 243.542969 190.113281 243.753906 C 190.394531 243.964844 190.449219 244.363281 190.238281 244.644531 C 174.867188 265.085938 154.796875 282.125 132.195312 293.917969 C 132.101562 293.96875 132 293.988281 131.902344 293.988281 " fill-opacity="1" fill-rule="nonzero"/><path fill="#000000" d="M 211.6875 316.203125 C 211.5 316.203125 211.320312 316.121094 211.191406 315.96875 C 210.96875 315.695312 211.011719 315.296875 211.285156 315.074219 C 219.277344 308.542969 226.730469 301.242188 233.425781 293.375 C 233.652344 293.109375 234.054688 293.074219 234.324219 293.300781 C 234.589844 293.53125 234.625 293.929688 234.394531 294.199219 C 227.648438 302.125 220.144531 309.480469 212.085938 316.058594 C 211.972656 316.15625 211.828125 316.203125 211.6875 316.203125 " fill-opacity="1" fill-rule="nonzero"/></svg>