<svg xmlns="http://www.w3.org/2000/svg" xmlns:xlink="http://www.w3.org/1999/xlink" width="500" zoomAndPan="magnify" viewBox="0 0 375 374.999991" height="500" preserveAspectRatio="xMidYMid meet" version="1.0"><path fill="#ae9fcf" d="M 92.371094 104.957031 C 128.125 68.828125 117.890625 46.191406 142.355469 29.464844 C 180 3.726562 250.257812 25.871094 291.710938 61.269531 C 342.476562 104.625 368.667969 183.789062 338.832031 255.40625 C 307.054688 331.675781 223.449219 371.265625 148.84375 359.335938 C 82.226562 348.679688 16.734375 295.972656 10.171875 232.753906 C 9.460938 225.902344 6.320312 188.859375 28.34375 156.925781 C 46.542969 130.53125 64.027344 133.589844 92.371094 104.957031 " fill-opacity="1" fill-rule="nonzero"/><path fill="#230b41" d="M 343.515625 245.761719 L 43.84375 245.761719 C 38.824219 245.761719 34.996094 241.226562 35.796875 236.230469 L 35.789062 25.304688 C 36.425781 21.324219 39.835938 18.402344 43.835938 18.402344 L 343.503906 18.402344 C 348.527344 18.402344 351.4375 21.875 351.550781 27.933594 L 351.5625 238.859375 C 351.351562 243.300781 347.515625 245.761719 343.515625 245.761719 " fill-opacity="1" fill-rule="nonzero"/><path fill="#ffffff" d="M 335.691406 246.015625 L 36.019531 246.015625 C 30.996094 246.015625 27.167969 241.46875 27.972656 236.457031 L 27.964844 25.738281 C 28.601562 21.75 32.011719 18.816406 36.011719 18.816406 L 335.679688 18.816406 C 340.703125 18.816406 343.609375 22.300781 343.726562 28.375 L 343.734375 239.09375 C 343.523438 243.550781 339.6875 246.015625 335.691406 246.015625 " fill-opacity="1" fill-rule="nonzero"/><path fill="#000000" d="M 335.691406 246.136719 L 329.070312 246.136719 C 328.726562 246.136719 328.449219 245.859375 328.449219 245.515625 C 328.449219 245.171875 328.726562 244.894531 329.070312 244.894531 L 335.691406 244.894531 C 339.121094 244.894531 342.910156 242.917969 343.117188 238.578125 L 343.105469 28.355469 C 342.996094 22.609375 340.359375 19.4375 335.679688 19.4375 L 36.011719 19.4375 C 32.3125 19.4375 29.199219 22.101562 28.582031 25.773438 L 28.589844 168.3125 C 28.589844 168.65625 28.3125 168.933594 27.96875 168.933594 C 27.628906 168.933594 27.347656 168.65625 27.347656 168.3125 L 27.34375 25.722656 C 27.34375 25.691406 27.34375 25.660156 27.351562 25.625 C 28.042969 21.320312 31.683594 18.195312 36.011719 18.195312 L 335.679688 18.195312 C 341.0625 18.195312 344.222656 21.894531 344.347656 28.34375 L 344.359375 238.609375 C 344.121094 243.558594 339.820312 246.136719 335.691406 246.136719 " fill-opacity="1" fill-rule="nonzero"/><path fill="#ffffff" d="M 68.714844 97.324219 C 68.554688 91.871094 64.03125 87.675781 58.65625 88.082031 C 53.414062 88.480469 49.449219 93.039062 49.679688 98.386719 C 49.792969 100.964844 50.863281 103.25 52.558594 104.890625 C 53.859375 106.144531 54.628906 107.875 54.679688 109.714844 L 54.714844 110.808594 C 54.738281 111.714844 55.480469 112.414062 56.363281 112.371094 L 62.835938 112.0625 C 63.722656 112.019531 64.417969 111.253906 64.394531 110.347656 L 64.363281 109.257812 C 64.308594 107.441406 64.929688 105.640625 66.152344 104.296875 C 67.816406 102.460938 68.789062 99.992188 68.714844 97.324219 " fill-opacity="1" fill-rule="nonzero"/><path fill="#000000" d="M 59.378906 88.679688 C 59.152344 88.679688 58.925781 88.6875 58.699219 88.703125 C 53.769531 89.078125 50.078125 93.320312 50.300781 98.363281 C 50.402344 100.710938 51.355469 102.871094 52.988281 104.445312 C 54.421875 105.828125 55.246094 107.695312 55.300781 109.699219 L 55.332031 110.792969 C 55.339844 111.070312 55.453125 111.320312 55.648438 111.503906 C 55.835938 111.675781 56.078125 111.765625 56.335938 111.753906 L 62.804688 111.441406 C 63.355469 111.417969 63.789062 110.933594 63.773438 110.367188 L 63.742188 109.277344 C 63.683594 107.277344 64.394531 105.3125 65.691406 103.882812 C 67.308594 102.097656 68.164062 99.777344 68.09375 97.34375 C 68.019531 94.832031 66.972656 92.542969 65.148438 90.898438 C 63.542969 89.453125 61.515625 88.679688 59.378906 88.679688 Z M 56.289062 112.996094 C 55.734375 112.996094 55.214844 112.792969 54.804688 112.414062 C 54.363281 112.003906 54.109375 111.441406 54.089844 110.828125 L 54.058594 109.734375 C 54.011719 108.058594 53.324219 106.496094 52.125 105.339844 C 50.265625 103.542969 49.175781 101.085938 49.058594 98.414062 C 48.808594 92.703125 53.003906 87.890625 58.609375 87.464844 C 61.335938 87.257812 63.953125 88.152344 65.976562 89.976562 C 68.058594 91.847656 69.25 94.453125 69.332031 97.308594 C 69.414062 100.0625 68.445312 102.695312 66.609375 104.714844 C 65.527344 105.910156 64.933594 107.558594 64.980469 109.242188 L 65.011719 110.332031 C 65.046875 111.570312 64.085938 112.625 62.863281 112.683594 L 56.394531 112.992188 C 56.359375 112.992188 56.324219 112.996094 56.289062 112.996094 " fill-opacity="1" fill-rule="nonzero"/><path fill="#ffffff" d="M 59.800781 118.839844 C 57.59375 118.945312 55.75 117.207031 55.683594 114.953125 L 55.609375 112.304688 L 63.605469 111.921875 L 63.679688 114.570312 C 63.746094 116.824219 62.007812 118.734375 59.800781 118.839844 " fill-opacity="1" fill-rule="nonzero"/><path fill="#000000" d="M 56.246094 112.894531 L 56.304688 114.933594 C 56.332031 115.871094 56.71875 116.726562 57.390625 117.351562 C 58.039062 117.953125 58.886719 118.261719 59.773438 118.21875 C 61.640625 118.128906 63.117188 116.5 63.0625 114.585938 L 63.003906 112.570312 Z M 59.609375 119.464844 C 58.46875 119.464844 57.390625 119.042969 56.546875 118.261719 C 55.628906 117.410156 55.101562 116.242188 55.066406 114.96875 L 54.972656 111.710938 L 64.207031 111.269531 L 64.300781 114.550781 C 64.375 117.136719 62.371094 119.335938 59.832031 119.457031 C 59.757812 119.460938 59.683594 119.464844 59.609375 119.464844 " fill-opacity="1" fill-rule="nonzero"/><path fill="#000000" d="M 58.871094 81.671875 C 58.539062 81.671875 58.265625 81.414062 58.25 81.078125 L 57.957031 74.554688 C 57.941406 74.210938 58.207031 73.921875 58.550781 73.90625 C 58.898438 73.890625 59.183594 74.15625 59.199219 74.5 L 59.488281 81.023438 C 59.503906 81.367188 59.238281 81.65625 58.898438 81.671875 C 58.886719 81.671875 58.878906 81.671875 58.871094 81.671875 " fill-opacity="1" fill-rule="nonzero"/><path fill="#000000" d="M 42.769531 101.214844 C 42.769531 101.214844 42.765625 101.214844 42.765625 101.214844 L 39.21875 101.210938 C 38.875 101.207031 38.597656 100.933594 38.601562 100.585938 C 38.601562 100.246094 38.878906 99.96875 39.21875 99.96875 C 39.21875 99.96875 39.222656 99.96875 39.222656 99.96875 L 42.769531 99.972656 C 43.109375 99.972656 43.390625 100.25 43.386719 100.59375 C 43.386719 100.9375 43.109375 101.214844 42.769531 101.214844 " fill-opacity="1" fill-rule="nonzero"/><path fill="#000000" d="M 46.039062 88.40625 C 45.886719 88.40625 45.734375 88.355469 45.617188 88.242188 L 41.617188 84.496094 C 41.363281 84.261719 41.351562 83.871094 41.585938 83.621094 C 41.820312 83.371094 42.214844 83.355469 42.464844 83.589844 L 46.464844 87.335938 C 46.714844 87.570312 46.726562 87.960938 46.492188 88.210938 C 46.371094 88.34375 46.207031 88.40625 46.039062 88.40625 " fill-opacity="1" fill-rule="nonzero"/><path fill="#000000" d="M 75.78125 101.214844 C 75.4375 101.214844 75.160156 100.9375 75.160156 100.59375 C 75.160156 100.25 75.4375 99.972656 75.78125 99.972656 L 79.328125 99.96875 C 79.671875 99.96875 79.949219 100.246094 79.949219 100.585938 C 79.949219 100.933594 79.671875 101.207031 79.328125 101.210938 L 75.78125 101.214844 " fill-opacity="1" fill-rule="nonzero"/><path fill="#000000" d="M 72.507812 88.40625 C 72.339844 88.40625 72.175781 88.34375 72.054688 88.210938 C 71.820312 87.960938 71.832031 87.570312 72.082031 87.335938 L 76.082031 83.589844 C 76.335938 83.355469 76.726562 83.371094 76.960938 83.621094 C 77.195312 83.871094 77.183594 84.261719 76.933594 84.496094 L 72.933594 88.242188 C 72.8125 88.355469 72.660156 88.40625 72.507812 88.40625 " fill-opacity="1" fill-rule="nonzero"/><path fill="#ae9fcf" d="M 162.324219 66.730469 C 162.3125 82.40625 149.644531 95.105469 134.03125 95.09375 C 118.417969 95.082031 105.769531 82.363281 105.78125 66.691406 C 105.792969 51.015625 118.460938 38.316406 134.074219 38.328125 C 149.6875 38.339844 162.335938 51.054688 162.324219 66.730469 " fill-opacity="1" fill-rule="nonzero"/><path fill="#523762" d="M 134.550781 66.824219 L 149.507812 90.398438 C 157.148438 85.320312 162.191406 76.621094 162.199219 66.734375 C 162.207031 60.46875 160.183594 54.675781 156.761719 49.976562 L 134.550781 66.824219 " fill-opacity="1" fill-rule="nonzero"/><path fill="#230b41" d="M 140.105469 39.019531 L 134.550781 66.824219 L 156.765625 49.984375 C 152.785156 44.519531 146.910156 40.539062 140.105469 39.019531 " fill-opacity="1" fill-rule="nonzero"/><path fill="#ffffff" d="M 142.667969 66.71875 C 142.664062 71.496094 138.804688 75.363281 134.046875 75.363281 C 129.289062 75.355469 125.433594 71.480469 125.4375 66.707031 C 125.441406 61.929688 129.300781 58.0625 134.058594 58.066406 C 138.816406 58.066406 142.671875 61.941406 142.667969 66.71875 " fill-opacity="1" fill-rule="nonzero"/><path fill="#000000" d="M 208.941406 108.113281 C 208.773438 108.113281 208.617188 108.046875 208.503906 107.929688 L 196.613281 95.996094 C 196.371094 95.753906 196.371094 95.359375 196.613281 95.121094 C 196.859375 94.875 197.253906 94.878906 197.492188 95.121094 L 208.941406 106.613281 L 261.933594 53.445312 C 262.175781 53.203125 262.570312 53.203125 262.8125 53.445312 C 263.054688 53.6875 263.058594 54.078125 262.8125 54.324219 L 209.382812 107.929688 C 209.261719 108.046875 209.105469 108.113281 208.941406 108.113281 " fill-opacity="1" fill-rule="nonzero"/><path fill="#000000" d="M 86.71875 161.699219 C 86.5625 161.699219 86.402344 161.640625 86.28125 161.519531 C 86.039062 161.277344 86.039062 160.886719 86.28125 160.640625 L 117.289062 129.511719 C 117.519531 129.277344 117.933594 129.277344 118.167969 129.511719 L 134.476562 145.890625 L 184.636719 95.53125 C 184.878906 95.289062 185.273438 95.289062 185.515625 95.53125 C 185.757812 95.773438 185.757812 96.164062 185.519531 96.410156 L 134.917969 147.207031 C 134.683594 147.441406 134.269531 147.441406 134.039062 147.207031 L 117.726562 130.832031 L 87.160156 161.519531 C 87.039062 161.640625 86.878906 161.699219 86.71875 161.699219 " fill-opacity="1" fill-rule="nonzero"/><path fill="#230b41" d="M 114.707031 129.953125 C 114.707031 128.273438 116.058594 126.917969 117.726562 126.917969 C 119.394531 126.917969 120.75 128.273438 120.75 129.953125 C 120.75 131.625 119.394531 132.984375 117.726562 132.984375 C 116.058594 132.984375 114.707031 131.625 114.707031 129.953125 " fill-opacity="1" fill-rule="nonzero"/><path fill="#000000" d="M 117.726562 125.675781 C 115.375 125.675781 113.464844 127.59375 113.464844 129.953125 C 113.464844 132.308594 115.375 134.226562 117.726562 134.226562 C 120.078125 134.226562 121.992188 132.308594 121.992188 129.953125 C 121.992188 127.59375 120.078125 125.675781 117.726562 125.675781 Z M 117.726562 126.917969 C 119.394531 126.917969 120.75 128.273438 120.75 129.953125 C 120.75 131.625 119.394531 132.984375 117.726562 132.984375 C 116.058594 132.984375 114.707031 131.625 114.707031 129.953125 C 114.707031 128.273438 116.058594 126.917969 117.726562 126.917969 " fill-opacity="1" fill-rule="nonzero"/><path fill="#523762" d="M 206.011719 107.367188 C 206.011719 105.691406 207.367188 104.332031 209.035156 104.332031 C 210.703125 104.332031 212.058594 105.691406 212.058594 107.367188 C 212.058594 109.042969 210.703125 110.402344 209.035156 110.402344 C 207.367188 110.402344 206.011719 109.042969 206.011719 107.367188 " fill-opacity="1" fill-rule="nonzero"/><path fill="#000000" d="M 209.035156 103.089844 C 206.683594 103.089844 204.769531 105.007812 204.769531 107.367188 C 204.769531 109.726562 206.683594 111.644531 209.035156 111.644531 C 211.386719 111.644531 213.296875 109.726562 213.296875 107.367188 C 213.296875 105.007812 211.386719 103.089844 209.035156 103.089844 Z M 209.035156 104.332031 C 210.703125 104.332031 212.054688 105.691406 212.054688 107.367188 C 212.054688 109.042969 210.703125 110.402344 209.035156 110.402344 C 207.367188 110.402344 206.011719 109.042969 206.011719 107.367188 C 206.011719 105.691406 207.367188 104.332031 209.035156 104.332031 " fill-opacity="1" fill-rule="nonzero"/><path fill="#230b41" d="M 260.054688 53.589844 C 260.054688 51.914062 261.410156 50.554688 263.078125 50.554688 C 264.746094 50.554688 266.101562 51.914062 266.101562 53.589844 C 266.101562 55.265625 264.746094 56.621094 263.078125 56.621094 C 261.410156 56.621094 260.054688 55.265625 260.054688 53.589844 " fill-opacity="1" fill-rule="nonzero"/><path fill="#000000" d="M 263.078125 49.316406 C 260.726562 49.316406 258.8125 51.230469 258.8125 53.589844 C 258.8125 55.949219 260.726562 57.867188 263.078125 57.867188 C 265.425781 57.867188 267.339844 55.949219 267.339844 53.589844 C 267.339844 51.230469 265.425781 49.316406 263.078125 49.316406 Z M 263.078125 50.558594 C 264.746094 50.558594 266.097656 51.914062 266.097656 53.589844 C 266.097656 55.265625 264.746094 56.625 263.078125 56.625 C 261.410156 56.625 260.054688 55.265625 260.054688 53.589844 C 260.054688 51.914062 261.410156 50.558594 263.078125 50.558594 " fill-opacity="1" fill-rule="nonzero"/><path fill="#523762" d="M 131.734375 146.414062 C 131.734375 144.738281 133.085938 143.378906 134.757812 143.378906 C 136.425781 143.378906 137.78125 144.738281 137.78125 146.414062 C 137.78125 148.089844 136.425781 149.449219 134.757812 149.449219 C 133.085938 149.449219 131.734375 148.089844 131.734375 146.414062 " fill-opacity="1" fill-rule="nonzero"/><path fill="#000000" d="M 134.757812 142.140625 C 132.40625 142.140625 130.492188 144.058594 130.492188 146.414062 C 130.492188 148.773438 132.40625 150.691406 134.757812 150.691406 C 137.109375 150.691406 139.023438 148.773438 139.023438 146.414062 C 139.023438 144.058594 137.109375 142.140625 134.757812 142.140625 Z M 134.757812 143.378906 C 136.425781 143.378906 137.78125 144.738281 137.78125 146.414062 C 137.78125 148.089844 136.425781 149.449219 134.757812 149.449219 C 133.085938 149.449219 131.734375 148.089844 131.734375 146.414062 C 131.734375 144.738281 133.085938 143.378906 134.757812 143.378906 " fill-opacity="1" fill-rule="nonzero"/><path fill="#230b41" d="M 188.242188 89.988281 C 188.242188 88.3125 189.59375 86.957031 191.265625 86.957031 C 192.933594 86.957031 194.285156 88.3125 194.285156 89.988281 C 194.285156 91.667969 192.933594 93.023438 191.265625 93.023438 C 189.59375 93.023438 188.242188 91.667969 188.242188 89.988281 " fill-opacity="1" fill-rule="nonzero"/><path fill="#000000" d="M 191.265625 85.714844 C 188.914062 85.714844 187 87.632812 187 89.992188 C 187 92.347656 188.914062 94.265625 191.265625 94.265625 C 193.617188 94.265625 195.527344 92.347656 195.527344 89.992188 C 195.527344 87.632812 193.617188 85.714844 191.265625 85.714844 Z M 191.265625 86.957031 C 192.933594 86.957031 194.289062 88.3125 194.289062 89.992188 C 194.289062 91.664062 192.933594 93.023438 191.265625 93.023438 C 189.59375 93.023438 188.242188 91.664062 188.242188 89.992188 C 188.242188 88.3125 189.59375 86.957031 191.265625 86.957031 " fill-opacity="1" fill-rule="nonzero"/><path fill="#523762" d="M 83.015625 161.316406 C 83.015625 159.640625 84.367188 158.28125 86.039062 158.28125 C 87.707031 158.28125 89.058594 159.640625 89.058594 161.316406 C 89.058594 162.992188 87.707031 164.347656 86.039062 164.347656 C 84.367188 164.347656 83.015625 162.992188 83.015625 161.316406 " fill-opacity="1" fill-rule="nonzero"/><path fill="#000000" d="M 86.039062 157.039062 C 83.6875 157.039062 81.773438 158.957031 81.773438 161.316406 C 81.773438 163.675781 83.6875 165.589844 86.039062 165.589844 C 88.390625 165.589844 90.300781 163.675781 90.300781 161.316406 C 90.300781 158.957031 88.390625 157.039062 86.039062 157.039062 Z M 86.039062 158.28125 C 87.707031 158.28125 89.058594 159.640625 89.058594 161.316406 C 89.058594 162.992188 87.707031 164.347656 86.039062 164.347656 C 84.367188 164.347656 83.015625 162.992188 83.015625 161.316406 C 83.015625 159.640625 84.367188 158.28125 86.039062 158.28125 " fill-opacity="1" fill-rule="nonzero"/><path fill="#ae9fcf" d="M 110.332031 205.144531 L 105.480469 205.039062 C 103.347656 204.996094 101.644531 203.246094 101.648438 201.105469 L 101.695312 177.722656 C 101.699219 175.527344 103.488281 173.761719 105.671875 173.800781 L 110.480469 173.878906 C 112.617188 173.914062 114.332031 175.664062 114.332031 177.808594 C 114.332031 183.769531 114.332031 195.164062 114.332031 201.214844 C 114.332031 203.417969 112.527344 205.1875 110.332031 205.144531 " fill-opacity="1" fill-rule="nonzero"/><path fill="#ae9fcf" d="M 127.519531 205.144531 L 122.664062 205.039062 C 120.535156 204.996094 118.832031 203.246094 118.832031 201.105469 L 118.882812 162.964844 C 118.886719 160.769531 120.679688 159.003906 122.863281 159.039062 L 127.667969 159.121094 C 129.804688 159.15625 131.515625 160.902344 131.515625 163.046875 C 131.515625 171.675781 131.515625 192.449219 131.515625 201.21875 C 131.515625 203.417969 129.714844 205.1875 127.519531 205.144531 " fill-opacity="1" fill-rule="nonzero"/><path fill="#ae9fcf" d="M 144.707031 205.144531 L 139.851562 205.039062 C 137.71875 204.996094 136.015625 203.246094 136.019531 201.105469 L 136.070312 170.828125 C 136.070312 168.636719 137.863281 166.867188 140.050781 166.90625 L 144.855469 166.984375 C 146.988281 167.019531 148.703125 168.765625 148.703125 170.914062 C 148.703125 178.183594 148.703125 193.832031 148.703125 201.214844 C 148.703125 203.417969 146.898438 205.1875 144.707031 205.144531 " fill-opacity="1" fill-rule="nonzero"/><path fill="#ae9fcf" d="M 161.894531 205.144531 L 157.035156 205.039062 C 154.90625 204.996094 153.203125 203.246094 153.203125 201.109375 L 153.257812 141.550781 C 153.261719 139.355469 155.050781 137.589844 157.238281 137.625 L 162.042969 137.707031 C 164.175781 137.742188 165.890625 139.488281 165.890625 141.632812 C 165.890625 153.472656 165.890625 189.179688 165.890625 201.21875 C 165.890625 203.417969 164.085938 205.1875 161.894531 205.144531 " fill-opacity="1" fill-rule="nonzero"/><path fill="#ae9fcf" d="M 179.078125 205.144531 L 174.222656 205.039062 C 172.09375 204.996094 170.386719 203.246094 170.390625 201.109375 L 170.445312 126.214844 C 170.449219 124.019531 172.238281 122.253906 174.425781 122.289062 L 179.226562 122.371094 C 181.363281 122.40625 183.078125 124.152344 183.078125 126.296875 C 183.078125 140.128906 183.078125 187.140625 183.078125 201.214844 C 183.078125 203.417969 181.273438 205.1875 179.078125 205.144531 " fill-opacity="1" fill-rule="nonzero"/><path fill="#523762" d="M 196.265625 205.144531 L 191.410156 205.039062 C 189.28125 204.996094 187.574219 203.246094 187.574219 201.109375 L 187.632812 114.8125 C 187.632812 112.617188 189.425781 110.851562 191.613281 110.886719 L 196.414062 110.96875 C 198.550781 111.003906 200.265625 112.75 200.265625 114.894531 C 200.265625 130.097656 200.265625 185.746094 200.265625 201.214844 C 200.265625 203.417969 198.460938 205.1875 196.265625 205.144531 " fill-opacity="1" fill-rule="nonzero"/><path fill="#ae9fcf" d="M 213.453125 205.144531 L 208.597656 205.039062 C 206.464844 204.996094 204.761719 203.246094 204.765625 201.109375 L 204.820312 139.808594 C 204.820312 137.613281 206.613281 135.84375 208.796875 135.878906 L 213.601562 135.960938 C 215.738281 135.996094 217.449219 137.746094 217.449219 139.890625 C 217.449219 151.96875 217.449219 188.9375 217.449219 201.21875 C 217.449219 203.417969 215.648438 205.1875 213.453125 205.144531 " fill-opacity="1" fill-rule="nonzero"/><path fill="#ae9fcf" d="M 230.640625 205.144531 L 225.78125 205.039062 C 223.652344 204.996094 221.949219 203.246094 221.949219 201.105469 L 222.003906 119.761719 C 222.007812 117.570312 223.800781 115.800781 225.984375 115.835938 L 230.789062 115.917969 C 232.925781 115.953125 234.636719 117.703125 234.636719 119.84375 C 234.636719 134.472656 234.636719 186.347656 234.636719 201.21875 C 234.636719 203.417969 232.832031 205.1875 230.640625 205.144531 " fill-opacity="1" fill-rule="nonzero"/><path fill="#ae9fcf" d="M 247.824219 205.144531 L 242.964844 205.042969 C 240.835938 204.996094 239.136719 203.25 239.136719 201.109375 L 239.191406 95.335938 C 239.191406 93.144531 240.984375 91.375 243.171875 91.410156 L 247.976562 91.488281 C 250.109375 91.527344 251.820312 93.273438 251.820312 95.417969 C 251.820312 112.785156 251.820312 183.550781 251.820312 201.21875 C 251.820312 203.421875 250.019531 205.191406 247.824219 205.144531 " fill-opacity="1" fill-rule="nonzero"/><path fill="#523762" d="M 265.246094 205.144531 L 260.386719 205.039062 C 258.257812 204.996094 256.554688 203.246094 256.554688 201.109375 L 256.613281 78.921875 C 256.613281 76.726562 258.40625 74.957031 260.59375 74.992188 L 265.390625 75.074219 C 267.53125 75.109375 269.242188 76.855469 269.242188 79 C 269.242188 98.050781 269.242188 181.835938 269.242188 201.21875 C 269.242188 203.417969 267.441406 205.191406 265.246094 205.144531 " fill-opacity="1" fill-rule="nonzero"/><path fill="#ae9fcf" d="M 306.695312 43.5 L 282.742188 43.5 C 282.257812 43.5 281.863281 43.105469 281.863281 42.617188 L 281.863281 38.71875 C 281.863281 38.234375 282.257812 37.839844 282.742188 37.839844 L 306.695312 37.839844 C 307.183594 37.839844 307.578125 38.234375 307.578125 38.71875 L 307.578125 42.617188 C 307.578125 43.105469 307.183594 43.5 306.695312 43.5 " fill-opacity="1" fill-rule="nonzero"/><path fill="#ae9fcf" d="M 329.125 43.5 L 315.734375 43.5 C 315.246094 43.5 314.851562 43.105469 314.851562 42.617188 L 314.851562 38.71875 C 314.851562 38.234375 315.246094 37.839844 315.734375 37.839844 L 329.125 37.839844 C 329.609375 37.839844 330.007812 38.234375 330.007812 38.71875 L 330.007812 42.617188 C 330.007812 43.105469 329.609375 43.5 329.125 43.5 " fill-opacity="1" fill-rule="nonzero"/><path fill="#ae9fcf" d="M 329.460938 55.949219 L 283.308594 55.949219 C 282.820312 55.949219 282.425781 55.554688 282.425781 55.070312 L 282.425781 51.171875 C 282.425781 50.683594 282.820312 50.292969 283.308594 50.292969 L 329.460938 50.292969 C 329.949219 50.292969 330.34375 50.683594 330.34375 51.171875 L 330.34375 55.070312 C 330.34375 55.554688 329.949219 55.949219 329.460938 55.949219 " fill-opacity="1" fill-rule="nonzero"/><path fill="#ae9fcf" d="M 330.027344 68.398438 L 292.828125 68.398438 C 292.339844 68.398438 291.945312 68.003906 291.945312 67.519531 L 291.945312 63.621094 C 291.945312 63.136719 292.339844 62.738281 292.828125 62.738281 L 330.027344 62.738281 C 330.515625 62.738281 330.910156 63.136719 330.910156 63.621094 L 330.910156 67.519531 C 330.910156 68.003906 330.515625 68.398438 330.027344 68.398438 " fill-opacity="1" fill-rule="nonzero"/><path fill="#ae9fcf" d="M 324.433594 80.851562 L 284.433594 80.851562 C 283.945312 80.851562 283.550781 80.457031 283.550781 79.96875 L 283.550781 76.074219 C 283.550781 75.585938 283.945312 75.191406 284.433594 75.191406 L 324.433594 75.191406 C 324.917969 75.191406 325.3125 75.585938 325.3125 76.074219 L 325.3125 79.96875 C 325.3125 80.457031 324.917969 80.851562 324.433594 80.851562 " fill-opacity="1" fill-rule="nonzero"/><path fill="#ae9fcf" d="M 329.230469 92.964844 L 293.082031 92.964844 C 292.597656 92.964844 292.203125 92.570312 292.203125 92.082031 L 292.203125 88.183594 C 292.203125 87.699219 292.597656 87.304688 293.082031 87.304688 L 329.230469 87.304688 C 329.71875 87.304688 330.113281 87.699219 330.113281 88.183594 L 330.113281 92.082031 C 330.113281 92.570312 329.71875 92.964844 329.230469 92.964844 " fill-opacity="1" fill-rule="nonzero"/><path fill="#ffffff" d="M 245.140625 100.402344 C 245.15625 90.78125 252.9375 82.945312 262.523438 82.902344 C 272.109375 82.859375 279.871094 90.628906 279.859375 100.25 C 279.847656 109.875 272.0625 117.707031 262.476562 117.75 C 252.890625 117.792969 245.128906 110.027344 245.140625 100.402344 " fill-opacity="1" fill-rule="nonzero"/><path fill="#000000" d="M 245.765625 100.402344 C 245.753906 104.90625 247.5 109.125 250.667969 112.285156 C 253.804688 115.410156 257.972656 117.128906 262.398438 117.128906 C 262.425781 117.128906 262.449219 117.128906 262.476562 117.128906 C 271.707031 117.089844 279.226562 109.515625 279.238281 100.25 C 279.246094 95.75 277.5 91.527344 274.328125 88.367188 C 271.195312 85.242188 267.03125 83.523438 262.601562 83.523438 C 262.578125 83.523438 262.550781 83.523438 262.527344 83.523438 C 253.296875 83.5625 245.773438 91.136719 245.765625 100.402344 Z M 262.398438 118.371094 C 257.636719 118.371094 253.164062 116.523438 249.792969 113.164062 C 246.386719 109.769531 244.515625 105.238281 244.519531 100.402344 C 244.535156 90.453125 252.609375 82.328125 262.519531 82.28125 C 262.550781 82.28125 262.574219 82.28125 262.601562 82.28125 C 267.359375 82.28125 271.832031 84.128906 275.207031 87.492188 C 278.613281 90.886719 280.488281 95.417969 280.476562 100.25 C 280.464844 110.199219 272.390625 118.328125 262.480469 118.371094 C 262.453125 118.371094 262.425781 118.371094 262.398438 118.371094 " fill-opacity="1" fill-rule="nonzero"/><path fill="#230b41" d="M 271.304688 92.238281 L 266.015625 95.359375 C 265.742188 95.519531 265.734375 95.917969 266 96.085938 L 266.78125 96.59375 C 266.980469 96.722656 267.035156 96.984375 266.914062 97.183594 L 264.460938 101.023438 C 264.332031 101.222656 264.066406 101.277344 263.871094 101.152344 L 259.320312 98.222656 C 259.121094 98.09375 258.859375 98.152344 258.730469 98.351562 L 253.257812 106.867188 C 253.128906 107.070312 253.1875 107.332031 253.382812 107.460938 L 255.046875 108.53125 C 255.246094 108.660156 255.511719 108.601562 255.636719 108.402344 L 259.585938 102.277344 C 259.714844 102.078125 259.976562 102.019531 260.175781 102.144531 L 264.722656 105.074219 C 264.921875 105.203125 265.1875 105.144531 265.3125 104.945312 L 269.289062 98.722656 C 269.414062 98.523438 269.679688 98.464844 269.878906 98.59375 L 270.722656 99.136719 C 270.992188 99.3125 271.347656 99.136719 271.375 98.816406 L 271.949219 92.648438 C 271.976562 92.300781 271.605469 92.0625 271.304688 92.238281 " fill-opacity="1" fill-rule="nonzero"/><path fill="#230b41" d="M 72.679688 203.304688 L 72.679688 214.511719 C 72.679688 230.570312 85.3125 243.589844 100.894531 243.589844 C 116.476562 243.589844 129.105469 256.609375 129.105469 272.667969 C 129.105469 274.097656 127.953125 275.261719 126.527344 275.261719 L 51.84375 275.261719 C 28.484375 275.261719 9.550781 255.742188 9.550781 231.667969 L 9.550781 201.84375 C 9.550781 192.269531 17.082031 184.503906 26.371094 184.503906 L 54.441406 184.503906 C 64.511719 184.503906 72.679688 192.921875 72.679688 203.304688 " fill-opacity="1" fill-rule="nonzero"/><path fill="#230b41" d="M 72.789062 357.957031 L 80.652344 357.957031 L 80.652344 272.75 L 72.789062 272.75 L 72.789062 357.957031 " fill-opacity="1" fill-rule="nonzero"/><path fill="#230b41" d="M 113.5625 356.695312 L 78.773438 353.628906 L 75.585938 353.628906 L 40.070312 356.695312 L 40.070312 359.128906 L 113.5625 359.128906 L 113.5625 356.695312 " fill-opacity="1" fill-rule="nonzero"/><path fill="#ffffff" d="M 64.074219 276.761719 L 53.417969 283.917969 L 58.816406 290.320312 L 71.085938 284.304688 L 64.074219 276.761719 " fill-opacity="1" fill-rule="nonzero"/><path fill="#000000" d="M 54.339844 284.046875 L 58.976562 289.550781 L 70.0625 284.117188 L 63.980469 277.570312 Z M 58.816406 290.941406 C 58.636719 290.941406 58.460938 290.863281 58.339844 290.71875 L 52.945312 284.320312 C 52.828125 284.183594 52.78125 284.007812 52.804688 283.832031 C 52.828125 283.65625 52.925781 283.503906 53.070312 283.402344 L 63.726562 276.246094 C 63.980469 276.078125 64.320312 276.113281 64.527344 276.339844 L 71.542969 283.882812 C 71.675781 284.027344 71.734375 284.226562 71.695312 284.417969 C 71.660156 284.613281 71.535156 284.777344 71.359375 284.863281 L 59.089844 290.875 C 59.003906 290.921875 58.910156 290.941406 58.816406 290.941406 " fill-opacity="1" fill-rule="nonzero"/><path fill="#230b41" d="M 55.25 280.691406 C 53.644531 281.679688 50.703125 283.566406 48.285156 285.527344 C 46.765625 286.757812 46.433594 288.941406 47.472656 290.597656 C 50.410156 295.277344 57.714844 305.371094 65.175781 312.9375 C 65.6875 313.457031 66.90625 314.109375 68.523438 313.226562 C 74.074219 310.214844 68.148438 300.765625 64.167969 288.632812 L 61.3125 288.316406 C 59.792969 288.144531 58.523438 287.078125 58.089844 285.605469 L 56.828125 281.300781 C 56.628906 280.625 55.847656 280.324219 55.25 280.691406 " fill-opacity="1" fill-rule="nonzero"/><path fill="#000000" d="M 55.25 280.691406 L 55.253906 280.691406 Z M 55.574219 281.21875 C 54.03125 282.171875 51.078125 284.058594 48.675781 286.007812 C 47.410156 287.035156 47.117188 288.867188 47.996094 290.265625 C 51.03125 295.101562 58.226562 305.007812 65.617188 312.5 C 65.789062 312.675781 66.722656 313.503906 68.230469 312.683594 C 71.910156 310.683594 69.738281 305.113281 66.734375 297.402344 C 65.765625 294.925781 64.671875 292.125 63.703125 289.207031 L 61.242188 288.929688 C 59.472656 288.734375 58 287.496094 57.496094 285.78125 L 56.230469 281.476562 C 56.191406 281.339844 56.09375 281.234375 55.960938 281.183594 C 55.886719 281.15625 55.734375 281.121094 55.574219 281.21875 Z M 66.964844 314.277344 C 66.007812 314.277344 65.222656 313.867188 64.734375 313.371094 C 57.273438 305.808594 50.007812 295.804688 46.945312 290.925781 C 45.730469 288.996094 46.140625 286.464844 47.894531 285.042969 C 50.351562 283.050781 53.355469 281.128906 54.921875 280.164062 C 55.375 279.886719 55.914062 279.835938 56.40625 280.023438 C 56.902344 280.214844 57.273438 280.617188 57.421875 281.125 L 58.6875 285.429688 C 59.050781 286.664062 60.105469 287.554688 61.378906 287.699219 L 64.632812 288.0625 L 64.757812 288.441406 C 65.75 291.460938 66.886719 294.378906 67.890625 296.953125 C 71.003906 304.941406 73.464844 311.253906 68.820312 313.773438 C 68.160156 314.132812 67.53125 314.277344 66.964844 314.277344 " fill-opacity="1" fill-rule="nonzero"/><path fill="#ffffff" d="M 48.648438 285.234375 C 48.648438 285.234375 48.402344 285.429688 48.285156 285.527344 C 46.765625 286.757812 46.433594 288.941406 47.472656 290.597656 C 50.410156 295.277344 57.714844 305.371094 65.175781 312.9375 C 65.6875 313.457031 66.90625 314.109375 68.523438 313.226562 C 69.019531 312.960938 69.75 312.269531 69.75 312.269531 L 69.242188 311.710938 C 62.042969 303.785156 55.429688 295.339844 49.457031 286.4375 L 48.648438 285.234375 " fill-opacity="1" fill-rule="nonzero"/><path fill="#000000" d="M 48.515625 286.148438 C 47.386719 287.195312 47.15625 288.925781 47.996094 290.265625 C 51.03125 295.101562 58.226562 305.007812 65.617188 312.5 C 65.789062 312.675781 66.722656 313.503906 68.230469 312.683594 C 68.410156 312.585938 68.652344 312.398438 68.867188 312.222656 L 68.78125 312.128906 C 61.585938 304.207031 54.910156 295.679688 48.941406 286.785156 Z M 66.964844 314.277344 C 66.007812 314.277344 65.222656 313.867188 64.734375 313.371094 C 57.273438 305.808594 50.007812 295.804688 46.945312 290.925781 C 45.730469 288.996094 46.140625 286.464844 47.894531 285.042969 C 48.011719 284.949219 48.261719 284.75 48.261719 284.75 C 48.398438 284.640625 48.574219 284.59375 48.742188 284.621094 C 48.914062 284.648438 49.066406 284.742188 49.164062 284.886719 L 49.972656 286.09375 C 55.90625 294.9375 62.546875 303.414062 69.703125 311.296875 L 70.207031 311.851562 C 70.433594 312.101562 70.421875 312.484375 70.175781 312.71875 C 70.09375 312.796875 69.375 313.472656 68.820312 313.773438 C 68.160156 314.132812 67.53125 314.277344 66.964844 314.277344 " fill-opacity="1" fill-rule="nonzero"/><path fill="#000000" d="M 66.105469 296.21875 C 66.089844 296.21875 66.070312 296.21875 66.054688 296.21875 L 60.636719 295.789062 C 60.296875 295.761719 60.039062 295.460938 60.066406 295.121094 C 60.09375 294.777344 60.394531 294.523438 60.734375 294.550781 L 66.152344 294.980469 C 66.496094 295.007812 66.75 295.304688 66.722656 295.648438 C 66.699219 295.972656 66.425781 296.21875 66.105469 296.21875 " fill-opacity="1" fill-rule="nonzero"/><path fill="#000000" d="M 62.644531 299.980469 C 62.300781 299.980469 62.023438 299.703125 62.023438 299.359375 C 62.023438 299.015625 62.300781 298.738281 62.640625 298.738281 L 67.933594 298.722656 C 68.292969 298.722656 68.554688 299 68.554688 299.34375 C 68.554688 299.6875 68.277344 299.964844 67.933594 299.964844 L 62.644531 299.980469 " fill-opacity="1" fill-rule="nonzero"/><path fill="#000000" d="M 140.121094 229.714844 C 144.492188 229.734375 159.328125 232.199219 159.765625 245.789062 C 159.910156 250.421875 163.617188 258.964844 135.867188 264.386719 C 102.78125 270.851562 78.175781 283.425781 72.628906 286.417969 C 71.820312 286.851562 70.878906 286.949219 70 286.679688 C 67.222656 285.824219 61.367188 283.445312 60.632812 278.414062 C 60.46875 277.285156 60.96875 276.160156 61.890625 275.492188 L 68.71875 270.523438 L 62.242188 267.058594 C 54.847656 263.101562 49.003906 256.585938 46.351562 248.601562 C 43.976562 241.460938 42.800781 229.246094 42.800781 229.246094 L 140.121094 229.714844 " fill-opacity="1" fill-rule="nonzero"/><path fill="#ffffff" d="M 262.1875 359.640625 L 234.132812 262.386719 L 206.078125 359.640625 L 199.355469 359.640625 L 230.175781 249.902344 L 238.085938 249.890625 L 268.914062 359.640625 L 262.1875 359.640625 " fill-opacity="1" fill-rule="nonzero"/><path fill="#ffffff" d="M 145.078125 335.054688 C 146.136719 339.042969 146.402344 343.199219 145.863281 347.285156 L 161.789062 344.625 C 157.851562 343.144531 154.835938 339.890625 153.644531 335.839844 L 152.734375 332.75 L 145.078125 335.054688 " fill-opacity="1" fill-rule="nonzero"/><path fill="#000000" d="M 145.824219 335.476562 C 146.71875 339.105469 146.972656 342.820312 146.578125 346.535156 L 159.707031 344.34375 C 156.519531 342.566406 154.09375 339.566406 153.046875 336.019531 L 152.316406 333.527344 Z M 145.863281 347.90625 C 145.703125 347.90625 145.546875 347.84375 145.429688 347.730469 C 145.289062 347.59375 145.222656 347.398438 145.246094 347.203125 C 145.777344 343.175781 145.519531 339.140625 144.476562 335.214844 C 144.390625 334.890625 144.574219 334.558594 144.894531 334.460938 L 152.554688 332.15625 C 152.714844 332.109375 152.882812 332.128906 153.03125 332.203125 C 153.175781 332.28125 153.28125 332.417969 153.328125 332.574219 L 154.238281 335.667969 C 155.367188 339.507812 158.273438 342.640625 162.007812 344.042969 C 162.269531 344.144531 162.4375 344.40625 162.40625 344.6875 C 162.382812 344.964844 162.167969 345.191406 161.894531 345.238281 L 145.964844 347.898438 C 145.929688 347.902344 145.898438 347.90625 145.863281 347.90625 " fill-opacity="1" fill-rule="nonzero"/><path fill="#230b41" d="M 145.277344 342.167969 C 144.765625 344.152344 143.707031 349.746094 143.289062 353.105469 C 143.023438 355.214844 144.398438 357.175781 146.453125 357.679688 C 152.257812 359.117188 166.0625 358.765625 177.5625 359.035156 C 178.351562 359.050781 179.792969 358.640625 180.398438 356.730469 C 182.476562 350.175781 170.066406 348.464844 157.867188 341.996094 C 157.867188 341.996094 157.160156 342.589844 156.113281 343.160156 C 154.359375 344.113281 151.476562 344.027344 149.746094 343.039062 L 146.96875 341.449219 C 146.304688 341.074219 145.46875 341.425781 145.277344 342.167969 " fill-opacity="1" fill-rule="nonzero"/><path fill="#000000" d="M 145.878906 342.324219 C 145.359375 344.332031 144.308594 349.960938 143.90625 353.183594 C 143.679688 354.96875 144.839844 356.644531 146.601562 357.078125 C 150.851562 358.128906 159.796875 358.210938 168.449219 358.289062 C 171.488281 358.316406 174.628906 358.34375 177.578125 358.414062 C 177.847656 358.417969 179.230469 358.359375 179.808594 356.542969 C 181.007812 352.753906 176.574219 350.742188 168.628906 347.511719 C 165.34375 346.175781 161.632812 344.667969 157.929688 342.730469 C 157.609375 342.972656 157.074219 343.34375 156.410156 343.703125 C 154.503906 344.742188 151.375 344.683594 149.4375 343.578125 L 146.660156 341.992188 C 146.511719 341.90625 146.339844 341.898438 146.1875 341.960938 C 146.035156 342.027344 145.921875 342.160156 145.878906 342.324219 Z M 177.613281 359.65625 C 177.59375 359.65625 177.570312 359.65625 177.550781 359.65625 C 174.605469 359.585938 171.46875 359.558594 168.441406 359.53125 C 159.3125 359.449219 150.691406 359.371094 146.304688 358.285156 C 143.933594 357.699219 142.371094 355.441406 142.671875 353.027344 C 143.089844 349.675781 144.144531 344.078125 144.675781 342.011719 C 144.816406 341.46875 145.191406 341.035156 145.707031 340.816406 C 146.21875 340.601562 146.789062 340.636719 147.277344 340.910156 L 150.054688 342.5 C 151.632812 343.398438 154.273438 343.453125 155.816406 342.613281 C 156.789062 342.085938 157.457031 341.527344 157.464844 341.519531 L 157.785156 341.25 L 158.152344 341.445312 C 161.921875 343.441406 165.734375 344.996094 169.097656 346.363281 C 176.636719 349.429688 182.597656 351.855469 180.992188 356.917969 C 180.347656 358.945312 178.789062 359.65625 177.613281 359.65625 " fill-opacity="1" fill-rule="nonzero"/><path fill="#ffffff" d="M 142.972656 354.628906 C 142.960938 354.6875 142.953125 354.730469 142.953125 354.746094 C 142.6875 356.855469 144.722656 358.105469 146.65625 358.960938 C 152.511719 361.550781 176.253906 359.425781 176.253906 359.425781 C 176.253906 359.425781 179.4375 359.457031 180.285156 357.539062 C 180.40625 357.257812 180.464844 356.839844 180.496094 356.492188 C 180.523438 356.117188 180.488281 355.738281 180.398438 355.375 L 180.1875 354.519531 C 176.957031 355.804688 162.414062 356.789062 151.855469 355.476562 C 147.429688 354.925781 144.867188 353.007812 143.390625 352.273438 C 143.390625 352.273438 143.183594 353.425781 142.972656 354.628906 " fill-opacity="1" fill-rule="nonzero"/><path fill="#000000" d="M 143.582031 354.738281 L 143.566406 354.824219 C 143.398438 356.195312 144.425781 357.296875 146.90625 358.394531 C 152.550781 360.890625 175.960938 358.828125 176.199219 358.808594 C 176.21875 358.804688 176.242188 358.804688 176.261719 358.804688 C 177.035156 358.8125 179.160156 358.546875 179.714844 357.289062 C 179.75 357.210938 179.832031 356.976562 179.875 356.441406 C 179.898438 356.144531 179.871094 355.835938 179.796875 355.523438 L 179.746094 355.316406 C 175.460938 356.511719 161.789062 357.335938 151.78125 356.089844 C 148.074219 355.632812 145.652344 354.253906 144.050781 353.34375 C 143.980469 353.304688 143.914062 353.269531 143.851562 353.230469 C 143.773438 353.652344 143.679688 354.1875 143.582031 354.738281 Z M 158.816406 360.871094 C 153.628906 360.871094 148.71875 360.554688 146.402344 359.53125 C 144.503906 358.6875 142.011719 357.269531 142.335938 354.667969 C 142.339844 354.648438 142.347656 354.597656 142.359375 354.523438 C 142.359375 354.523438 142.359375 354.523438 142.359375 354.519531 C 142.574219 353.316406 142.777344 352.164062 142.777344 352.164062 C 142.8125 351.972656 142.9375 351.808594 143.109375 351.722656 C 143.28125 351.632812 143.488281 351.632812 143.664062 351.71875 C 143.960938 351.867188 144.285156 352.050781 144.664062 352.265625 C 146.179688 353.125 148.472656 354.429688 151.933594 354.859375 C 162.378906 356.160156 176.785156 355.207031 179.957031 353.941406 C 180.125 353.875 180.3125 353.882812 180.472656 353.964844 C 180.628906 354.046875 180.746094 354.195312 180.789062 354.367188 L 181 355.226562 C 181.109375 355.671875 181.148438 356.113281 181.113281 356.542969 C 181.070312 357.074219 180.980469 357.492188 180.851562 357.789062 C 179.894531 359.964844 176.671875 360.042969 176.28125 360.042969 C 175.480469 360.117188 166.820312 360.871094 158.816406 360.871094 " fill-opacity="1" fill-rule="nonzero"/><path fill="#000000" d="M 159.1875 348.011719 C 159.003906 348.011719 158.824219 347.929688 158.699219 347.773438 C 158.488281 347.503906 158.535156 347.113281 158.804688 346.902344 L 162.234375 344.1875 C 162.503906 343.976562 162.894531 344.023438 163.105469 344.289062 C 163.320312 344.558594 163.273438 344.949219 163.003906 345.164062 L 159.574219 347.875 C 159.460938 347.964844 159.324219 348.011719 159.1875 348.011719 " fill-opacity="1" fill-rule="nonzero"/><path fill="#000000" d="M 163.859375 349.804688 C 163.671875 349.804688 163.492188 349.722656 163.367188 349.566406 C 163.15625 349.292969 163.207031 348.90625 163.476562 348.695312 L 166.480469 346.351562 C 166.746094 346.140625 167.136719 346.191406 167.351562 346.460938 C 167.5625 346.730469 167.511719 347.121094 167.242188 347.332031 L 164.238281 349.671875 C 164.125 349.761719 163.992188 349.804688 163.859375 349.804688 " fill-opacity="1" fill-rule="nonzero"/><path fill="#000000" d="M 111.558594 250.941406 C 111.558594 250.941406 123.6875 253.621094 132.710938 259.863281 C 140.53125 265.273438 148.777344 275.625 156.285156 329.855469 C 156.789062 333.5 153.679688 336.105469 151.554688 336.601562 C 148.542969 337.304688 146.066406 337.027344 143.523438 335.375 C 139.183594 332.558594 122.800781 290.84375 113.035156 281.992188 C 103.269531 273.140625 62.023438 271.25 54.066406 259.984375 C 46.109375 248.71875 65.640625 248.71875 65.640625 248.71875 L 111.558594 250.941406 " fill-opacity="1" fill-rule="nonzero"/><path fill="#ae9fcf" d="M 89.101562 279.839844 C 88.871094 279.839844 88.652344 279.710938 88.542969 279.492188 C 88.394531 279.183594 88.519531 278.808594 88.828125 278.660156 C 89.625 278.269531 90.390625 277.890625 91.136719 277.523438 C 100.953125 272.6875 106.878906 269.769531 124.832031 266.625 C 125.171875 266.566406 125.492188 266.792969 125.550781 267.128906 C 125.609375 267.464844 125.386719 267.789062 125.046875 267.847656 C 107.265625 270.960938 101.402344 273.851562 91.683594 278.636719 C 90.9375 279.007812 90.171875 279.382812 89.375 279.773438 C 89.285156 279.816406 89.195312 279.839844 89.101562 279.839844 " fill-opacity="1" fill-rule="nonzero"/><path fill="#523762" d="M 198.992188 240.1875 L 119.550781 240.1875 C 118.808594 240.1875 118.203125 239.582031 118.203125 238.839844 L 118.203125 235.757812 L 200.335938 235.757812 L 200.335938 238.839844 C 200.335938 239.582031 199.734375 240.1875 198.992188 240.1875 " fill-opacity="1" fill-rule="nonzero"/><path fill="#000000" d="M 118.824219 236.378906 L 118.824219 237.214844 C 118.824219 238.511719 119.878906 239.5625 121.171875 239.5625 L 197.367188 239.5625 C 198.664062 239.5625 199.71875 238.511719 199.71875 237.214844 L 199.71875 236.378906 Z M 197.367188 240.808594 L 121.171875 240.808594 C 119.191406 240.808594 117.582031 239.195312 117.582031 237.214844 L 117.582031 235.757812 C 117.582031 235.414062 117.859375 235.136719 118.203125 235.136719 L 200.335938 235.136719 C 200.683594 235.136719 200.960938 235.414062 200.960938 235.757812 L 200.960938 237.214844 C 200.960938 239.195312 199.347656 240.808594 197.367188 240.808594 " fill-opacity="1" fill-rule="nonzero"/><path fill="#523762" d="M 200.339844 235.839844 L 153.339844 235.839844 L 167.246094 194.800781 C 168.140625 193.421875 169.695312 192.585938 171.371094 192.585938 L 211.097656 192.585938 C 212.902344 192.585938 214.0625 194.339844 213.472656 195.890625 C 213.238281 196.507812 200.339844 235.839844 200.339844 235.839844 " fill-opacity="1" fill-rule="nonzero"/><path fill="#000000" d="M 154.207031 235.21875 L 199.890625 235.21875 C 201.359375 230.730469 212.667969 196.265625 212.894531 195.667969 C 213.097656 195.128906 213.019531 194.511719 212.679688 194.019531 C 212.324219 193.503906 211.746094 193.207031 211.097656 193.207031 L 171.371094 193.207031 C 169.921875 193.207031 168.597656 193.902344 167.808594 195.078125 Z M 200.339844 236.460938 L 153.339844 236.460938 C 153.140625 236.460938 152.953125 236.363281 152.835938 236.199219 C 152.722656 236.039062 152.6875 235.828125 152.753906 235.640625 L 166.65625 194.601562 C 166.675781 194.554688 166.695312 194.507812 166.726562 194.464844 C 167.738281 192.898438 169.476562 191.960938 171.371094 191.960938 L 211.097656 191.960938 C 212.160156 191.960938 213.109375 192.457031 213.699219 193.316406 C 214.273438 194.144531 214.40625 195.1875 214.054688 196.109375 C 213.839844 196.695312 205.375 222.480469 200.929688 236.03125 C 200.84375 236.289062 200.609375 236.460938 200.339844 236.460938 " fill-opacity="1" fill-rule="nonzero"/><path fill="#ffffff" d="M 197.355469 232.007812 L 158.683594 232.007812 L 170.597656 196.496094 L 209.160156 196.445312 L 197.355469 232.007812 " fill-opacity="1" fill-rule="nonzero"/><path fill="#ae9fcf" d="M 169.058594 227.554688 L 164.539062 227.554688 L 165.929688 223.40625 L 170.4375 223.398438 L 169.058594 227.554688 " fill-opacity="1" fill-rule="nonzero"/><path fill="#523762" d="M 177.445312 227.554688 L 172.601562 227.554688 L 176.246094 216.691406 L 181.054688 216.675781 L 177.445312 227.554688 " fill-opacity="1" fill-rule="nonzero"/><path fill="#230b41" d="M 186.816406 227.554688 L 181.609375 227.554688 L 188.816406 206.074219 L 193.957031 206.042969 L 186.816406 227.554688 " fill-opacity="1" fill-rule="nonzero"/><path fill="#ffffff" d="M 25.523438 179.773438 C 27.574219 175.238281 33.035156 172.308594 37.28125 170.644531 C 40.214844 169.496094 43.328125 168.867188 46.472656 168.746094 L 57.605469 168.304688 C 61.8125 168.003906 66.761719 168.199219 72.171875 169.164062 C 79.351562 170.441406 85.796875 174.378906 90.382812 180.078125 C 92.453125 182.65625 94.28125 184.886719 94.429688 184.933594 C 100.449219 193.417969 101.261719 194.910156 105.613281 198.074219 C 112.875 203.363281 125.589844 199.050781 125.589844 199.050781 C 129.824219 198.414062 131.363281 201.589844 132.132812 203.355469 C 133.0625 205.472656 132.164062 208.058594 131.34375 209.71875 C 130.824219 210.78125 129.929688 211.609375 128.835938 212.054688 C 123.386719 214.289062 104.84375 221.238281 96.34375 216.402344 C 89.257812 212.371094 84.496094 203.957031 80.699219 199.820312 C 80.316406 199.40625 79.628906 199.714844 79.679688 200.277344 C 80.484375 209.5625 88.105469 220.589844 90.425781 223.753906 C 90.839844 224.320312 91.46875 224.683594 92.167969 224.765625 L 108.945312 226.683594 C 109.171875 226.699219 109.425781 226.796875 109.675781 226.929688 C 110.773438 227.519531 111.488281 228.644531 111.65625 229.886719 C 111.921875 231.867188 111.753906 235.585938 111.144531 236.785156 L 110.570312 237.921875 C 110.105469 238.835938 109.175781 239.421875 108.152344 239.4375 C 99.238281 239.585938 59.050781 239.597656 48.132812 239.535156 C 38.15625 239.476562 34.144531 234.539062 28.820312 220.570312 C 26.703125 215.019531 20.046875 191.878906 25.523438 179.773438 " fill-opacity="1" fill-rule="nonzero"/><path fill="#000000" d="M 26.089844 180.03125 C 20.707031 191.921875 27.445312 215.21875 29.398438 220.347656 C 34.9375 234.871094 38.964844 238.863281 48.136719 238.914062 C 59.148438 238.980469 99.277344 238.960938 108.144531 238.816406 C 108.9375 238.804688 109.65625 238.351562 110.015625 237.640625 L 110.59375 236.503906 C 111.121094 235.460938 111.296875 231.878906 111.039062 229.96875 C 110.894531 228.886719 110.277344 227.957031 109.382812 227.476562 C 109.121094 227.335938 108.964844 227.308594 108.898438 227.304688 L 92.09375 225.382812 C 91.230469 225.285156 90.441406 224.824219 89.925781 224.121094 C 87.582031 220.925781 79.878906 209.769531 79.0625 200.332031 C 79.015625 199.804688 79.296875 199.324219 79.78125 199.113281 C 80.261719 198.898438 80.800781 199.015625 81.15625 199.402344 C 82.269531 200.613281 83.472656 202.195312 84.746094 203.875 C 87.851562 207.964844 91.714844 213.054688 96.648438 215.859375 C 104.894531 220.550781 123.191406 213.695312 128.601562 211.480469 C 129.558594 211.089844 130.335938 210.367188 130.789062 209.445312 C 131.59375 207.808594 132.382812 205.46875 131.566406 203.601562 C 130.589844 201.375 129.136719 199.171875 125.734375 199.65625 C 124.6875 200.003906 112.515625 203.867188 105.246094 198.578125 C 101.261719 195.675781 100.175781 194.144531 95.617188 187.691406 C 95.113281 186.976562 94.566406 186.199219 93.964844 185.351562 C 93.601562 185.019531 92.726562 183.984375 89.898438 180.46875 C 85.347656 174.8125 79.015625 171.015625 72.0625 169.773438 C 67.128906 168.894531 62.144531 168.601562 57.648438 168.925781 L 46.5 169.367188 C 43.363281 169.488281 40.335938 170.113281 37.507812 171.222656 C 33.382812 172.84375 28.054688 175.679688 26.089844 180.03125 Z M 68.488281 240.191406 C 59.808594 240.191406 52.089844 240.179688 48.128906 240.15625 C 37.40625 240.097656 33.324219 234.132812 28.238281 220.789062 C 26.117188 215.226562 19.347656 191.917969 24.957031 179.519531 C 27.097656 174.792969 32.714844 171.769531 37.054688 170.066406 C 40.015625 168.90625 43.175781 168.253906 46.449219 168.125 L 57.582031 167.6875 C 62.160156 167.355469 67.25 167.65625 72.277344 168.550781 C 79.527344 169.84375 86.128906 173.800781 90.863281 179.691406 C 93.714844 183.234375 94.511719 184.148438 94.734375 184.378906 L 94.8125 184.398438 L 94.933594 184.574219 C 95.550781 185.445312 96.117188 186.242188 96.632812 186.976562 C 101.09375 193.292969 102.15625 194.792969 105.976562 197.574219 C 112.898438 202.613281 125.265625 198.503906 125.390625 198.460938 L 125.496094 198.4375 C 130.339844 197.710938 132.058594 201.628906 132.703125 203.105469 C 133.710938 205.40625 132.824219 208.121094 131.902344 209.992188 C 131.3125 211.1875 130.308594 212.125 129.070312 212.632812 C 124.925781 214.328125 113.371094 218.683594 104.160156 218.683594 C 101.0625 218.683594 98.234375 218.191406 96.035156 216.941406 C 90.878906 214.007812 86.929688 208.804688 83.757812 204.625 C 82.527344 203.003906 81.363281 201.472656 80.304688 200.308594 C 81.136719 209.414062 88.640625 220.269531 90.925781 223.386719 C 91.238281 223.8125 91.714844 224.089844 92.238281 224.148438 L 109.015625 226.066406 C 109.292969 226.085938 109.613281 226.191406 109.96875 226.382812 C 111.214844 227.050781 112.074219 228.332031 112.269531 229.800781 C 112.53125 231.757812 112.40625 235.667969 111.699219 237.066406 L 111.125 238.199219 C 110.554688 239.324219 109.421875 240.039062 108.164062 240.058594 C 102.480469 240.152344 83.960938 240.191406 68.488281 240.191406 " fill-opacity="1" fill-rule="nonzero"/><path fill="#230b41" d="M 115.503906 239.859375 L 134.976562 239.859375 L 134.976562 235.71875 C 134.976562 234.683594 134.136719 233.847656 133.105469 233.847656 L 117.375 233.847656 C 116.339844 233.847656 115.503906 234.683594 115.503906 235.71875 L 115.503906 239.859375 " fill-opacity="1" fill-rule="nonzero"/><path fill="#000000" d="M 116.15625 239.242188 L 134.320312 239.242188 C 134.011719 236.554688 131.734375 234.46875 128.976562 234.46875 L 121.503906 234.46875 C 118.742188 234.46875 116.460938 236.558594 116.15625 239.242188 Z M 134.976562 240.484375 L 115.503906 240.484375 C 115.160156 240.484375 114.878906 240.203125 114.878906 239.859375 L 114.878906 239.847656 C 114.878906 236.199219 117.851562 233.226562 121.503906 233.226562 L 128.976562 233.226562 C 132.625 233.226562 135.597656 236.199219 135.597656 239.847656 C 135.597656 240.195312 135.320312 240.484375 134.976562 240.484375 " fill-opacity="1" fill-rule="nonzero"/><path fill="#ffffff" d="M 107.070312 230.667969 C 107.414062 229.992188 107.992188 229.457031 108.703125 229.203125 C 109.214844 229.015625 109.714844 228.777344 110.195312 228.519531 L 116.820312 224.996094 C 118.0625 224.386719 119.835938 225.808594 121.125 226.230469 C 125.015625 227.511719 133.066406 230.53125 132.402344 233.363281 C 131.6875 236.421875 124.769531 234.972656 122.3125 234.355469 C 121.75 234.214844 116.667969 236.0625 115.058594 236.183594 C 112.835938 236.351562 112.324219 235.785156 111.238281 235.214844 C 110.742188 234.953125 110.191406 234.835938 109.59375 234.832031 C 108.679688 234.824219 107.808594 234.441406 107.234375 233.722656 L 107.222656 233.707031 C 106.589844 232.917969 106.480469 231.828125 106.941406 230.925781 L 107.070312 230.667969 " fill-opacity="1" fill-rule="nonzero"/><path fill="#000000" d="M 107.070312 230.667969 L 107.074219 230.667969 Z M 117.507812 225.464844 C 117.355469 225.464844 117.214844 225.492188 117.09375 225.554688 L 110.488281 229.066406 C 109.886719 229.386719 109.386719 229.613281 108.914062 229.785156 C 108.363281 229.984375 107.90625 230.398438 107.625 230.953125 L 107.492188 231.207031 C 107.144531 231.890625 107.230469 232.722656 107.707031 233.320312 C 108.160156 233.886719 108.84375 234.207031 109.597656 234.210938 C 110.316406 234.214844 110.964844 234.367188 111.527344 234.664062 C 111.707031 234.757812 111.871094 234.851562 112.03125 234.945312 C 112.785156 235.378906 113.332031 235.691406 115.011719 235.566406 C 115.777344 235.507812 117.601562 234.964844 119.070312 234.527344 C 121.433594 233.820312 122.078125 233.65625 122.460938 233.753906 C 126.550781 234.777344 129.792969 234.90625 131.136719 234.085938 C 131.496094 233.867188 131.714844 233.582031 131.796875 233.222656 C 132.171875 231.628906 127.90625 229.117188 120.933594 226.820312 C 120.503906 226.679688 120.058594 226.453125 119.589844 226.21875 C 118.878906 225.859375 118.097656 225.464844 117.507812 225.464844 Z M 114.328125 236.832031 C 112.828125 236.832031 112.136719 236.4375 111.410156 236.019531 C 111.265625 235.9375 111.113281 235.851562 110.949219 235.761719 C 110.558594 235.554688 110.113281 235.457031 109.589844 235.453125 C 108.460938 235.445312 107.425781 234.957031 106.75 234.109375 C 105.957031 233.117188 105.816406 231.757812 106.386719 230.640625 L 106.519531 230.386719 C 106.945312 229.550781 107.644531 228.921875 108.496094 228.617188 C 108.910156 228.46875 109.359375 228.261719 109.902344 227.972656 L 116.53125 224.445312 C 117.695312 223.875 118.996094 224.53125 120.144531 225.109375 C 120.574219 225.324219 120.980469 225.527344 121.320312 225.640625 C 129.652344 228.386719 133.585938 231.03125 133.007812 233.503906 C 132.84375 234.199219 132.433594 234.75 131.785156 235.144531 C 129.542969 236.511719 124.84375 235.628906 122.207031 234.972656 C 121.863281 234.988281 120.511719 235.390625 119.421875 235.714844 C 117.742188 236.214844 116.003906 236.734375 115.105469 236.800781 C 114.824219 236.824219 114.566406 236.832031 114.328125 236.832031 " fill-opacity="1" fill-rule="nonzero"/><path fill="#ffffff" d="M 155.714844 204.230469 C 156.085938 203.777344 155.921875 203.089844 155.386719 202.851562 L 143.625 197.699219 C 141.957031 196.96875 140.082031 196.894531 138.390625 197.515625 C 136.652344 198.148438 134.152344 198.984375 131.28125 199.707031 C 123.878906 201.585938 123.324219 211.363281 130.980469 207.597656 C 133.417969 206.402344 134.882812 205.496094 134.882812 205.496094 C 134.863281 205.5 137.664062 209.261719 142.148438 207.566406 C 144.191406 206.792969 145.496094 205.867188 146.269531 205.175781 C 146.921875 204.59375 147.824219 204.378906 148.671875 204.597656 C 150.695312 205.128906 153.671875 206.6875 155.714844 204.230469 " fill-opacity="1" fill-rule="nonzero"/><path fill="#000000" d="M 155.714844 204.230469 Z M 140.765625 197.714844 C 140.035156 197.714844 139.304688 197.84375 138.601562 198.09375 C 136.96875 198.691406 134.398438 199.5625 131.433594 200.3125 C 128.347656 201.09375 126.570312 203.335938 126.179688 205.210938 C 125.96875 206.21875 126.167969 207.046875 126.722656 207.476562 C 127.484375 208.070312 128.9375 207.914062 130.707031 207.042969 C 133.085938 205.875 134.539062 204.976562 134.554688 204.96875 C 134.78125 204.828125 135.066406 204.847656 135.269531 205.011719 C 135.324219 205.054688 135.371094 205.109375 135.410156 205.167969 C 135.558594 205.367188 138.007812 208.46875 141.929688 206.984375 C 143.921875 206.230469 145.164062 205.335938 145.855469 204.714844 C 146.664062 203.992188 147.773438 203.722656 148.828125 203.996094 C 149.175781 204.089844 149.539062 204.203125 149.921875 204.328125 C 152.191406 205.054688 153.898438 205.441406 155.234375 203.832031 C 155.308594 203.746094 155.296875 203.652344 155.285156 203.605469 C 155.273438 203.554688 155.238281 203.46875 155.136719 203.421875 L 143.375 198.265625 C 142.539062 197.898438 141.652344 197.714844 140.765625 197.714844 Z M 127.945312 209.078125 C 127.027344 209.078125 126.390625 208.792969 125.960938 208.457031 C 125.015625 207.726562 124.652344 206.449219 124.964844 204.957031 C 125.433594 202.703125 127.523438 200.023438 131.128906 199.109375 C 134.042969 198.371094 136.570312 197.515625 138.179688 196.929688 C 140.023438 196.257812 142.046875 196.328125 143.875 197.132812 L 155.632812 202.285156 C 156.070312 202.476562 156.386719 202.851562 156.496094 203.320312 C 156.605469 203.78125 156.496094 204.257812 156.191406 204.625 C 154.214844 207.007812 151.515625 206.140625 149.542969 205.511719 C 149.175781 205.390625 148.828125 205.28125 148.511719 205.199219 C 147.867188 205.03125 147.183594 205.195312 146.683594 205.640625 C 145.914062 206.328125 144.539062 207.324219 142.367188 208.148438 C 139.027344 209.410156 136.539062 207.898438 135.355469 206.882812 C 135.09375 206.65625 134.890625 206.464844 134.738281 206.304688 C 134.117188 206.664062 132.914062 207.339844 131.257812 208.15625 C 129.875 208.832031 128.789062 209.078125 127.945312 209.078125 " fill-opacity="1" fill-rule="nonzero"/><path fill="#000000" d="M 137.992188 204.609375 C 136.808594 204.609375 135.765625 203.863281 135.265625 203.308594 C 135.03125 203.050781 135.054688 202.660156 135.308594 202.429688 C 135.5625 202.199219 135.957031 202.21875 136.183594 202.472656 C 136.238281 202.535156 137.582031 203.96875 138.910156 203.070312 C 139.859375 202.421875 141.265625 201.882812 142.351562 202.304688 C 144.746094 203.238281 145.683594 202.78125 145.839844 202.527344 C 146.007812 202.195312 145.949219 202.023438 145.929688 201.964844 C 145.84375 201.714844 145.519531 201.449219 145.019531 201.21875 L 141.664062 199.847656 C 141.34375 199.71875 141.191406 199.355469 141.324219 199.035156 C 141.453125 198.71875 141.8125 198.566406 142.132812 198.695312 L 145.511719 200.082031 C 146.375 200.476562 146.898438 200.972656 147.101562 201.5625 C 147.269531 202.046875 147.21875 202.5625 146.941406 203.097656 C 146.863281 203.273438 145.933594 205.035156 141.902344 203.464844 C 141.390625 203.265625 140.449219 203.523438 139.609375 204.09375 C 139.0625 204.464844 138.511719 204.609375 137.992188 204.609375 " fill-opacity="1" fill-rule="nonzero"/><path fill="#000000" d="M 92.167969 225.386719 C 92.140625 225.386719 92.113281 225.382812 92.082031 225.378906 C 91.074219 225.246094 89.792969 225.117188 88.3125 224.972656 C 81.820312 224.328125 72.007812 223.355469 62.644531 219.671875 C 51.296875 215.207031 43.902344 207.925781 40.667969 198.027344 C 40.5625 197.699219 40.738281 197.347656 41.066406 197.242188 C 41.390625 197.136719 41.742188 197.3125 41.847656 197.640625 C 49.101562 219.835938 75.667969 222.46875 88.433594 223.734375 C 89.925781 223.882812 91.21875 224.011719 92.25 224.148438 C 92.589844 224.195312 92.828125 224.507812 92.78125 224.847656 C 92.738281 225.160156 92.472656 225.386719 92.167969 225.386719 " fill-opacity="1" fill-rule="nonzero"/><path fill="#ffffff" d="M 59.609375 165.101562 C 59.792969 164.464844 60.351562 164.019531 61.003906 163.992188 L 65.890625 163.832031 C 66.515625 163.804688 67.050781 163.363281 67.195312 162.746094 L 68.511719 157.160156 L 70.714844 156.160156 C 70.886719 156.082031 70.964844 155.878906 70.890625 155.703125 L 69.164062 151.535156 C 68.648438 150.003906 68.664062 146.714844 67.867188 146.695312 C 67.867188 146.695312 52.9375 140.179688 49.695312 147.632812 C 49.207031 148.757812 49.179688 150.039062 49.570312 151.203125 L 50.367188 153.582031 C 51.160156 155.960938 51.167969 158.578125 50.191406 160.894531 C 49.992188 161.378906 49.234375 162.945312 47.988281 164.828125 C 46.941406 166.410156 44.746094 168.058594 43.171875 169.117188 C 42.277344 169.714844 42.222656 171.007812 43.058594 171.683594 C 44.671875 172.992188 47.113281 174.832031 48.875 175.542969 C 53.03125 177.222656 55.125 177.660156 57.246094 177.425781 C 59.308594 177.195312 60.480469 175.078125 59.765625 173.121094 C 58.289062 169.050781 59.609375 165.101562 59.609375 165.101562 " fill-opacity="1" fill-rule="nonzero"/><path fill="#000000" d="M 59.609375 165.101562 L 59.613281 165.101562 Z M 56.550781 144.671875 C 53.300781 144.671875 51.195312 145.746094 50.265625 147.878906 C 49.847656 148.847656 49.808594 149.957031 50.160156 151.003906 L 50.953125 153.382812 C 51.832031 156.003906 51.765625 158.757812 50.765625 161.132812 C 50.519531 161.71875 49.730469 163.3125 48.507812 165.167969 C 47.410156 166.828125 45.1875 168.507812 43.515625 169.628906 C 43.257812 169.804688 43.101562 170.082031 43.085938 170.394531 C 43.074219 170.710938 43.203125 171.003906 43.449219 171.199219 C 45.796875 173.105469 47.808594 174.445312 49.105469 174.96875 C 53.070312 176.570312 55.109375 177.035156 57.179688 176.804688 C 57.933594 176.722656 58.566406 176.324219 58.964844 175.683594 C 59.394531 174.992188 59.476562 174.132812 59.183594 173.332031 C 57.675781 169.1875 58.917969 165.226562 59.015625 164.917969 C 59.277344 164.03125 60.0625 163.410156 60.980469 163.371094 L 65.871094 163.210938 C 66.210938 163.195312 66.507812 162.945312 66.589844 162.601562 L 67.910156 157.019531 C 67.953125 156.832031 68.082031 156.675781 68.257812 156.597656 L 70.21875 155.703125 L 68.589844 151.773438 C 68.585938 151.761719 68.578125 151.746094 68.574219 151.730469 C 68.363281 151.097656 68.238281 150.234375 68.121094 149.398438 C 68.015625 148.675781 67.863281 147.605469 67.683594 147.289062 C 67.664062 147.285156 67.640625 147.277344 67.621094 147.265625 C 67.582031 147.25 63.894531 145.652344 59.875 144.980469 C 58.660156 144.773438 57.550781 144.671875 56.550781 144.671875 Z M 56.183594 178.105469 C 54.242188 178.105469 52.140625 177.53125 48.640625 176.117188 C 46.835938 175.386719 44.394531 173.566406 42.667969 172.164062 C 42.113281 171.71875 41.816406 171.054688 41.847656 170.339844 C 41.878906 169.628906 42.234375 168.996094 42.824219 168.597656 C 44.402344 167.542969 46.488281 165.96875 47.46875 164.484375 C 48.691406 162.640625 49.4375 161.09375 49.621094 160.652344 C 50.503906 158.554688 50.558594 156.113281 49.777344 153.777344 L 48.980469 151.398438 C 48.53125 150.058594 48.585938 148.632812 49.128906 147.382812 C 49.796875 145.847656 50.964844 144.742188 52.597656 144.097656 C 58.027344 141.964844 66.972656 145.640625 68.027344 146.089844 C 68.921875 146.234375 69.113281 147.5625 69.347656 149.222656 C 69.457031 149.992188 69.574219 150.792969 69.746094 151.320312 L 71.464844 155.46875 C 71.667969 155.953125 71.449219 156.507812 70.972656 156.726562 L 69.046875 157.601562 L 67.796875 162.890625 C 67.589844 163.773438 66.816406 164.414062 65.917969 164.449219 L 61.023438 164.613281 C 60.644531 164.628906 60.316406 164.890625 60.207031 165.273438 C 60.203125 165.277344 60.203125 165.289062 60.199219 165.296875 C 60.1875 165.335938 58.96875 169.105469 60.351562 172.910156 C 60.773438 174.070312 60.652344 175.320312 60.019531 176.339844 C 59.425781 177.296875 58.441406 177.917969 57.3125 178.042969 C 56.9375 178.082031 56.5625 178.105469 56.183594 178.105469 " fill-opacity="1" fill-rule="nonzero"/><path fill="#000000" d="M 72.019531 134.902344 C 68.515625 133.632812 71.902344 138.664062 59.867188 130.851562 C 55.074219 127.742188 55.90625 134.707031 54.660156 133.90625 C 50.0625 130.9375 50.222656 131.035156 47.574219 130.949219 C 45.820312 130.894531 43.867188 133.601562 43.507812 135.953125 C 43.03125 139.050781 45.800781 146.511719 47.96875 152.230469 C 49.085938 155.175781 53.171875 156.675781 54.984375 153.210938 C 55.484375 152.257812 53.34375 149.222656 55 147.980469 C 58.050781 145.699219 58.121094 150.445312 60.480469 149.789062 C 62.742188 149.160156 63.765625 148.621094 66.324219 147.40625 C 69.425781 145.9375 72.453125 150.625 75.371094 146.078125 C 76.894531 143.707031 76.8125 136.644531 72.019531 134.902344 " fill-opacity="1" fill-rule="nonzero"/><path fill="#ffffff" d="M 71.328125 358.859375 L 43.273438 261.589844 L 15.21875 358.859375 L 8.496094 358.859375 L 39.320312 249.101562 L 47.226562 249.089844 L 78.054688 358.859375 L 71.328125 358.859375 " fill-opacity="1" fill-rule="nonzero"/><path fill="#000000" d="M 71.796875 358.234375 L 77.234375 358.234375 L 46.757812 249.710938 L 39.789062 249.722656 L 9.3125 358.234375 L 14.75 358.234375 L 43.273438 259.351562 Z M 78.871094 359.480469 L 70.863281 359.480469 L 70.730469 359.03125 L 43.273438 263.828125 L 15.683594 359.480469 L 7.675781 359.480469 L 38.847656 248.484375 L 47.695312 248.46875 L 47.824219 248.921875 L 78.871094 359.480469 " fill-opacity="1" fill-rule="nonzero"/><path fill="#ffffff" d="M 8.429688 250.746094 L 268.183594 250.746094 L 268.183594 240.179688 L 8.429688 240.179688 L 8.429688 250.746094 " fill-opacity="1" fill-rule="nonzero"/><path fill="#000000" d="M 9.050781 250.125 L 267.558594 250.125 L 267.558594 240.800781 L 9.050781 240.800781 Z M 268.800781 251.371094 L 7.808594 251.371094 L 7.808594 239.558594 L 268.800781 239.558594 L 268.800781 251.371094 " fill-opacity="1" fill-rule="nonzero"/><path fill="#230b41" d="M 71.113281 248.882812 C 70.773438 248.882812 70.492188 248.605469 70.492188 248.265625 L 70.492188 242.378906 C 70.492188 242.035156 70.773438 241.757812 71.113281 241.757812 C 71.457031 241.757812 71.734375 242.035156 71.734375 242.378906 L 71.734375 248.265625 C 71.734375 248.605469 71.457031 248.882812 71.113281 248.882812 " fill-opacity="1" fill-rule="nonzero"/><path fill="#ffffff" d="M 214.390625 334.386719 L 215.898438 351.496094 L 199.757812 353.199219 L 204.769531 346.34375 C 206.105469 344.515625 206.566406 342.183594 206.019531 339.980469 L 204.648438 334.457031 L 214.390625 334.386719 " fill-opacity="1" fill-rule="nonzero"/><path fill="#000000" d="M 205.441406 335.074219 L 206.621094 339.832031 C 207.210938 342.222656 206.722656 344.726562 205.269531 346.710938 L 201.085938 352.433594 L 215.226562 350.945312 L 213.824219 335.011719 Z M 198.429688 353.960938 L 204.269531 345.976562 C 205.5 344.292969 205.917969 342.160156 205.414062 340.128906 L 203.859375 333.84375 L 214.960938 333.761719 L 216.570312 352.050781 L 198.429688 353.960938 " fill-opacity="1" fill-rule="nonzero"/><path fill="#230b41" d="M 217.015625 348.570312 L 218.359375 355.609375 C 218.359375 355.609375 218.546875 358.183594 215.929688 358.632812 C 212.523438 359.214844 199.28125 361.03125 189.894531 359.328125 C 187.742188 358.9375 186.773438 357.585938 186.59375 356.878906 C 186.097656 354.929688 187.347656 352.136719 191.277344 350.683594 C 198.28125 348.089844 200.953125 347.246094 204.363281 344.933594 C 205.121094 344.417969 206.261719 344.964844 206.78125 345.648438 C 206.78125 345.648438 208.015625 347.457031 207.996094 349.355469 C 207.992188 350.039062 208.699219 350.496094 209.324219 350.226562 L 215.300781 347.65625 C 216.03125 347.34375 216.863281 347.789062 217.015625 348.570312 " fill-opacity="1" fill-rule="nonzero"/><path fill="#000000" d="M 205.058594 345.351562 C 204.929688 345.351562 204.808594 345.382812 204.710938 345.449219 C 201.625 347.539062 199.144531 348.453125 193.703125 350.449219 C 193.019531 350.703125 192.28125 350.972656 191.492188 351.265625 C 187.921875 352.585938 186.765625 355.023438 187.195312 356.726562 C 187.300781 357.128906 188.035156 358.359375 190.003906 358.714844 C 198.367188 360.234375 210.550781 358.925781 215.824219 358.019531 C 217.75 357.6875 217.753906 355.949219 217.742188 355.6875 L 216.402344 348.6875 C 216.367188 348.5 216.25 348.339844 216.082031 348.25 C 215.914062 348.160156 215.71875 348.152344 215.546875 348.226562 L 209.566406 350.796875 C 209.078125 351.007812 208.519531 350.957031 208.074219 350.660156 C 207.632812 350.367188 207.371094 349.878906 207.375 349.351562 C 207.394531 347.675781 206.28125 346.015625 206.265625 346 C 206 345.644531 205.472656 345.351562 205.058594 345.351562 Z M 199.191406 360.667969 C 195.988281 360.667969 192.726562 360.472656 189.785156 359.9375 C 187.253906 359.480469 186.195312 357.839844 185.992188 357.03125 C 185.425781 354.808594 186.773438 351.6875 191.0625 350.101562 C 191.851562 349.808594 192.589844 349.535156 193.277344 349.285156 C 198.617188 347.324219 201.054688 346.425781 204.015625 344.417969 C 205.046875 343.71875 206.535156 344.296875 207.273438 345.273438 C 207.347656 345.378906 208.636719 347.292969 208.617188 349.363281 C 208.617188 349.507812 208.707031 349.59375 208.761719 349.628906 C 208.804688 349.65625 208.929688 349.722656 209.078125 349.65625 L 215.054688 347.085938 C 215.574219 346.863281 216.160156 346.886719 216.664062 347.152344 C 217.164062 347.421875 217.515625 347.894531 217.625 348.457031 L 218.980469 355.5625 C 219.058594 356.648438 218.546875 358.8125 216.035156 359.242188 C 215.578125 359.324219 207.605469 360.667969 199.191406 360.667969 " fill-opacity="1" fill-rule="nonzero"/><path fill="#000000" d="M 199.464844 358.132812 C 196.640625 358.132812 193.644531 357.984375 190.65625 357.582031 C 190.316406 357.539062 190.078125 357.222656 190.125 356.882812 C 190.171875 356.542969 190.480469 356.304688 190.824219 356.351562 C 202.574219 357.933594 214.585938 355.558594 214.707031 355.535156 C 215.042969 355.46875 215.367188 355.683594 215.4375 356.019531 C 215.503906 356.355469 215.289062 356.683594 214.953125 356.75 C 214.859375 356.769531 207.957031 358.132812 199.464844 358.132812 " fill-opacity="1" fill-rule="nonzero"/><path fill="#ffffff" d="M 249.382812 329.078125 C 249.71875 333.375 251.796875 338.351562 253.503906 340.890625 L 245.933594 346.636719 L 240.199219 340.960938 C 241.542969 339.132812 242.738281 334.84375 240.933594 329.191406 L 249.382812 329.078125 " fill-opacity="1" fill-rule="nonzero"/><path fill="#000000" d="M 241 340.878906 L 245.984375 345.816406 L 252.667969 340.746094 C 251 338.054688 249.253906 333.644531 248.816406 329.707031 L 241.761719 329.800781 C 243.152344 334.800781 242.300781 338.75 241 340.878906 Z M 245.878906 347.453125 L 239.382812 341.027344 L 239.703125 340.59375 C 240.792969 339.101562 242.15625 335.0625 240.34375 329.378906 L 240.085938 328.582031 L 249.953125 328.449219 L 250 329.03125 C 250.320312 333.101562 252.308594 338 254.019531 340.546875 L 254.34375 341.03125 L 245.878906 347.453125 " fill-opacity="1" fill-rule="nonzero"/><path fill="#230b41" d="M 253.761719 339.269531 L 256.894531 344.8125 C 256.894531 344.8125 258.019531 347.203125 255.679688 348.597656 C 253.480469 349.914062 246.328125 354.0625 239.148438 356.722656 C 236.429688 357.730469 228.523438 358.261719 226.660156 355.832031 C 225.414062 354.199219 225.890625 352.074219 229.160156 350.324219 C 236.464844 346.410156 238.160156 340.351562 239.210938 338.933594 C 240.816406 336.765625 243.554688 340.550781 244.296875 343.4375 C 244.472656 344.128906 245.300781 344.402344 245.851562 343.953125 L 252.007812 338.9375 C 252.570312 338.480469 253.40625 338.636719 253.761719 339.269531 " fill-opacity="1" fill-rule="nonzero"/><path fill="#000000" d="M 240.324219 338.910156 C 240.152344 338.910156 239.945312 338.988281 239.707031 339.300781 C 239.53125 339.542969 239.300781 340 239.011719 340.574219 C 237.769531 343.050781 235.457031 347.652344 229.453125 350.871094 C 227.863281 351.722656 226.90625 352.699219 226.695312 353.683594 C 226.5625 354.289062 226.714844 354.882812 227.15625 355.453125 C 228.710938 357.488281 236.195312 357.15625 238.929688 356.140625 C 245.859375 353.574219 252.730469 349.636719 255.363281 348.066406 C 257.09375 347.03125 256.457031 345.363281 256.339844 345.097656 L 253.21875 339.574219 C 253.113281 339.378906 252.941406 339.320312 252.84375 339.304688 C 252.75 339.285156 252.570312 339.277344 252.398438 339.417969 L 246.242188 344.433594 C 245.820312 344.78125 245.261719 344.886719 244.742188 344.714844 C 244.222656 344.542969 243.832031 344.125 243.695312 343.589844 C 243.144531 341.449219 241.539062 339.136719 240.460938 338.925781 C 240.417969 338.917969 240.375 338.910156 240.324219 338.910156 Z M 232.976562 358.199219 C 230.140625 358.199219 227.304688 357.6875 226.167969 356.210938 C 225.511719 355.347656 225.273438 354.386719 225.480469 353.421875 C 225.769531 352.066406 226.945312 350.808594 228.867188 349.773438 C 234.523438 346.746094 236.722656 342.371094 237.902344 340.019531 C 238.21875 339.390625 238.46875 338.890625 238.710938 338.5625 C 239.230469 337.863281 239.9375 337.558594 240.699219 337.707031 C 242.597656 338.078125 244.355469 341.183594 244.894531 343.28125 C 244.941406 343.457031 245.074219 343.515625 245.132812 343.535156 C 245.199219 343.558594 245.328125 343.578125 245.460938 343.472656 L 251.617188 338.457031 C 252.023438 338.121094 252.554688 337.984375 253.074219 338.082031 C 253.59375 338.179688 254.039062 338.503906 254.300781 338.960938 L 257.457031 344.550781 C 257.929688 345.550781 258.230469 347.796875 256 349.128906 C 253.335938 350.71875 246.386719 354.699219 239.363281 357.304688 C 238.050781 357.789062 235.515625 358.199219 232.976562 358.199219 " fill-opacity="1" fill-rule="nonzero"/><path fill="#000000" d="M 232.515625 355.097656 C 231.625 355.097656 230.773438 355.03125 230.039062 354.875 C 229.703125 354.804688 229.488281 354.472656 229.558594 354.136719 C 229.632812 353.800781 229.960938 353.589844 230.296875 353.660156 C 232.226562 354.074219 235.300781 353.78125 237.34375 353.277344 C 246.492188 351.035156 253.347656 345.320312 253.414062 345.261719 C 253.675781 345.042969 254.070312 345.074219 254.289062 345.335938 C 254.511719 345.597656 254.476562 345.988281 254.214844 346.210938 C 253.925781 346.453125 247.082031 352.167969 237.640625 354.484375 C 236.230469 354.828125 234.300781 355.097656 232.515625 355.097656 " fill-opacity="1" fill-rule="nonzero"/><path fill="#ffffff" d="M 223.199219 274.707031 C 221.976562 288.101562 233.132812 319.167969 237.257812 329.160156 C 237.71875 330.28125 238.742188 331.128906 240.050781 331.128906 L 249.546875 331.128906 C 251.15625 331.128906 252.457031 329.921875 252.441406 328.4375 C 252.332031 317.90625 247.554688 288.191406 254.621094 277.132812 C 258.710938 270.734375 270.867188 273.433594 275.882812 270.390625 C 287.910156 263.078125 283.378906 239.269531 283.378906 239.269531 C 283.378906 239.269531 224.90625 256.035156 223.199219 274.707031 " fill-opacity="1" fill-rule="nonzero"/><path fill="#000000" d="M 223.816406 274.765625 C 222.679688 287.261719 232.765625 316.648438 237.832031 328.921875 C 238.144531 329.691406 238.894531 330.507812 240.046875 330.507812 L 249.546875 330.507812 C 250.195312 330.507812 250.8125 330.257812 251.246094 329.824219 C 251.617188 329.445312 251.824219 328.957031 251.820312 328.445312 C 251.792969 326.015625 251.515625 322.527344 251.195312 318.488281 C 250.144531 305.335938 248.566406 285.457031 254.097656 276.800781 C 256.738281 272.671875 262.445312 272.105469 267.480469 271.605469 C 270.679688 271.289062 273.699219 270.988281 275.558594 269.859375 C 285.960938 263.535156 283.492188 243.96875 282.882812 240.066406 C 276.410156 242 225.371094 257.785156 223.816406 274.765625 Z M 249.546875 331.75 L 240.046875 331.75 C 238.570312 331.75 237.28125 330.847656 236.679688 329.398438 C 232.625 319.5625 221.328125 288.398438 222.582031 274.652344 C 224.304688 255.769531 280.804688 239.367188 283.207031 238.675781 L 283.863281 238.488281 L 283.988281 239.15625 C 284.175781 240.144531 288.457031 263.472656 276.203125 270.921875 C 274.101562 272.195312 270.945312 272.507812 267.601562 272.839844 C 262.617188 273.335938 257.457031 273.847656 255.144531 277.46875 C 249.835938 285.773438 251.398438 305.402344 252.433594 318.390625 C 252.753906 322.453125 253.035156 325.960938 253.058594 328.433594 C 253.070312 329.277344 252.734375 330.082031 252.125 330.695312 C 251.460938 331.367188 250.523438 331.75 249.546875 331.75 " fill-opacity="1" fill-rule="nonzero"/><path fill="#ffffff" d="M 242.492188 241.804688 C 242.492188 241.804688 202.835938 242.132812 190.328125 255.976562 C 179.089844 268.417969 195.753906 324.847656 199.238281 335.8125 C 199.601562 336.949219 200.730469 337.726562 202.015625 337.726562 L 216.917969 337.726562 C 217.226562 337.726562 217.484375 337.492188 217.484375 337.199219 L 215.113281 315.746094 C 212.574219 287.273438 215.667969 281.253906 215.667969 281.253906 C 218.179688 273.199219 239.644531 273.542969 251.316406 273.625 C 288.378906 273.878906 277.492188 241.332031 277.492188 241.332031 L 242.492188 241.804688 " fill-opacity="1" fill-rule="nonzero"/><path fill="#000000" d="M 242.492188 241.808594 Z M 242.492188 242.425781 C 242.101562 242.429688 202.96875 242.914062 190.789062 256.394531 C 186.230469 261.441406 185.914062 275.25 189.871094 296.335938 C 193.421875 315.265625 199.1875 333.597656 199.832031 335.625 C 200.109375 336.496094 201.003906 337.105469 202.015625 337.105469 L 216.84375 337.105469 L 214.492188 315.816406 C 212.0625 288.554688 214.761719 281.730469 215.089844 281.023438 C 217.734375 272.761719 238.246094 272.910156 250.507812 272.996094 L 251.320312 273.003906 C 262.507812 273.082031 270.375 270.136719 274.644531 264.253906 C 280.628906 256.003906 277.714844 244.332031 277.03125 241.960938 Z M 216.914062 338.347656 L 202.015625 338.347656 C 200.449219 338.347656 199.09375 337.40625 198.648438 336 C 198 333.964844 192.21875 315.566406 188.652344 296.5625 C 184.558594 274.777344 184.96875 260.984375 189.863281 255.5625 C 202.410156 241.675781 240.855469 241.199219 242.484375 241.183594 L 277.933594 240.703125 L 278.078125 241.132812 C 278.265625 241.707031 282.691406 255.273438 275.652344 264.976562 C 271.136719 271.207031 262.933594 274.324219 251.308594 274.246094 L 250.496094 274.238281 C 239.339844 274.15625 218.574219 274.007812 216.261719 281.4375 L 216.21875 281.539062 C 216.191406 281.59375 213.253906 287.953125 215.730469 315.691406 L 218.101562 337.203125 C 218.101562 337.832031 217.566406 338.347656 216.914062 338.347656 " fill-opacity="1" fill-rule="nonzero"/><path fill="#ffffff" d="M 214.777344 216.832031 C 214.53125 216.765625 208.882812 217.042969 208.347656 216.863281 C 205.683594 215.957031 200.074219 213.921875 197.433594 213.902344 C 194.453125 213.882812 191.625 213.390625 189.914062 213.027344 C 188.882812 212.808594 188.140625 213.226562 187.945312 213.894531 C 187.773438 214.484375 187.957031 215.84375 189.488281 216.1875 C 191.253906 216.589844 193.015625 217.035156 194.519531 217.390625 C 194.996094 217.503906 195.484375 217.519531 195.035156 217.679688 C 193.996094 218.046875 192.867188 218.632812 192.792969 219.476562 C 192.660156 221.0625 196.574219 224.667969 200.878906 224.929688 C 204.566406 225.160156 205.585938 223.34375 206.996094 223.078125 C 207.230469 223.03125 213.375 223.183594 213.644531 223.128906 C 216.429688 222.550781 216.277344 217.21875 214.777344 216.832031 " fill-opacity="1" fill-rule="nonzero"/><path fill="#000000" d="M 189.382812 213.589844 C 188.949219 213.589844 188.632812 213.761719 188.542969 214.066406 C 188.492188 214.242188 188.488281 214.621094 188.691406 214.964844 C 188.875 215.277344 189.1875 215.484375 189.625 215.582031 C 190.738281 215.835938 191.851562 216.105469 192.898438 216.363281 C 193.511719 216.511719 194.105469 216.65625 194.664062 216.785156 C 194.765625 216.8125 194.867188 216.832031 194.960938 216.847656 C 195.289062 216.910156 195.792969 217.003906 195.832031 217.527344 C 195.851562 217.761719 195.761719 218.082031 195.242188 218.265625 C 193.933594 218.726562 193.441406 219.21875 193.414062 219.527344 C 193.394531 219.75 193.582031 220.253906 194.175781 220.945312 C 195.472656 222.445312 198.136719 224.144531 200.914062 224.3125 C 203.203125 224.453125 204.320312 223.777344 205.304688 223.179688 C 205.820312 222.871094 206.308594 222.574219 206.878906 222.464844 C 207.019531 222.441406 207.328125 222.4375 210.042969 222.480469 C 211.398438 222.503906 213.246094 222.53125 213.546875 222.511719 C 214.726562 222.25 215.183594 220.746094 215.214844 219.539062 C 215.246094 218.316406 214.878906 217.554688 214.652344 217.441406 C 214.410156 217.433594 213.542969 217.460938 212.769531 217.480469 C 209.683594 217.566406 208.519531 217.574219 208.148438 217.449219 C 207.867188 217.355469 207.550781 217.246094 207.210938 217.125 C 204.394531 216.160156 199.6875 214.539062 197.429688 214.523438 C 194.480469 214.503906 191.644531 214.03125 189.785156 213.632812 C 189.644531 213.605469 189.507812 213.589844 189.382812 213.589844 Z M 201.496094 225.570312 C 201.285156 225.570312 201.066406 225.566406 200.835938 225.550781 C 197.683594 225.359375 194.746094 223.507812 193.238281 221.757812 C 192.714844 221.148438 192.105469 220.253906 192.175781 219.421875 C 192.230469 218.789062 192.636719 218.234375 193.394531 217.757812 C 193.136719 217.699219 192.875 217.632812 192.605469 217.566406 C 191.5625 217.3125 190.457031 217.046875 189.351562 216.792969 C 188.375 216.574219 187.871094 216.019531 187.621094 215.597656 C 187.21875 214.910156 187.222656 214.15625 187.351562 213.71875 C 187.652344 212.683594 188.761719 212.148438 190.042969 212.421875 C 191.847656 212.804688 194.589844 213.265625 197.4375 213.28125 C 199.898438 213.300781 204.539062 214.894531 207.613281 215.953125 C 207.953125 216.070312 208.265625 216.179688 208.546875 216.273438 C 208.902344 216.347656 211.398438 216.277344 212.734375 216.238281 C 214.617188 216.1875 214.777344 216.1875 214.933594 216.230469 C 216.039062 216.515625 216.492188 218.113281 216.457031 219.566406 C 216.414062 221.242188 215.6875 223.339844 213.769531 223.734375 C 213.601562 223.769531 213.144531 223.769531 210.023438 223.722656 C 208.824219 223.703125 207.339844 223.679688 207.082031 223.691406 C 206.738281 223.761719 206.386719 223.976562 205.949219 224.246094 C 205.007812 224.8125 203.75 225.570312 201.496094 225.570312 " fill-opacity="1" fill-rule="nonzero"/><path fill="#000000" d="M 244.839844 182.664062 C 237.023438 188.789062 234.46875 206.523438 229.464844 210.527344 C 225.128906 214 209.59375 215.101562 209.59375 215.101562 L 209.476562 225.054688 L 223.03125 225.582031 C 231.1875 225.894531 238.996094 222.582031 241.886719 219.871094 C 251.492188 210.84375 271.460938 191.761719 276.5 179.027344 L 262.480469 177.558594 C 262.480469 177.558594 253.503906 175.871094 244.839844 182.664062 " fill-opacity="1" fill-rule="nonzero"/><path fill="#000000" d="M 246.511719 213.734375 C 246.511719 213.734375 245.726562 217.375 247.1875 221.839844 C 249.003906 227.394531 247.71875 233.527344 243.539062 237.617188 C 241.78125 239.335938 239.820312 240.855469 237.78125 241.730469 C 237.78125 241.730469 238.761719 247.820312 248 248.675781 C 251.753906 249.023438 261.675781 249.859375 269.085938 249.789062 C 279.207031 249.699219 286.746094 248.191406 286.746094 248.191406 L 288.1875 201.339844 C 288.1875 201.339844 289.679688 181.671875 276.109375 178.992188 L 256.558594 177.769531 L 246.511719 213.734375 " fill-opacity="1" fill-rule="nonzero"/><path fill="#ae9fcf" d="M 245.265625 218.128906 C 245.113281 218.128906 244.960938 218.070312 244.84375 217.960938 C 244.589844 217.730469 244.574219 217.335938 244.808594 217.085938 C 249.042969 212.496094 252.332031 207.679688 254.320312 203.160156 C 254.457031 202.84375 254.820312 202.703125 255.132812 202.839844 C 255.449219 202.980469 255.59375 203.347656 255.453125 203.660156 C 253.414062 208.304688 250.046875 213.238281 245.71875 217.925781 C 245.597656 218.058594 245.429688 218.128906 245.265625 218.128906 " fill-opacity="1" fill-rule="nonzero"/><path fill="#000000" d="M 245.429688 155.535156 C 245.429688 155.535156 240.507812 155.6875 241.195312 146.941406 C 241.886719 138.136719 251.523438 138.667969 254.847656 137.503906 C 258.167969 136.339844 263.660156 129.238281 265.777344 127.34375 C 267.894531 125.449219 274.414062 117.566406 287.871094 125.042969 C 287.871094 125.042969 290.242188 127.273438 299.332031 124.835938 C 307.234375 122.710938 322.210938 124.765625 319.386719 136.367188 C 318.574219 139.710938 316.550781 142.539062 313.816406 144.375 C 313.320312 144.710938 312.773438 145.046875 312.167969 145.371094 C 310.421875 146.3125 309.269531 148.132812 309.152344 150.226562 C 308.777344 157.042969 305.257812 170.714844 281.886719 161.925781 C 280.125 161.261719 278.207031 161.488281 276.683594 162.519531 C 274.804688 163.785156 273.203125 167.640625 263.164062 167.992188 C 256.714844 168.21875 253.519531 161.671875 251.316406 158.832031 C 248.726562 155.503906 245.429688 155.535156 245.429688 155.535156 " fill-opacity="1" fill-rule="nonzero"/><path fill="#ffffff" d="M 246.871094 155.539062 C 246.871094 155.539062 246.855469 157.105469 246.835938 157.792969 C 246.816406 158.445312 247.019531 160.546875 245.859375 163.070312 C 245.746094 163.3125 245.84375 163.597656 246.066406 163.742188 L 247.796875 164.828125 C 247.914062 164.902344 247.996094 165.023438 248.023438 165.164062 C 248.179688 166.023438 248.765625 169.183594 248.972656 169.753906 C 249.214844 170.417969 249.863281 170.929688 250.160156 171.027344 C 250.9375 171.292969 253.949219 170.351562 253.949219 170.351562 C 253.949219 170.351562 253.503906 169.785156 255.902344 173.929688 C 257.589844 176.847656 253.984375 181.625 253.984375 181.625 C 253.984375 181.625 267.574219 187.109375 275.195312 180.546875 C 275.664062 180.140625 275.457031 179.292969 274.851562 179.140625 C 267.648438 177.359375 266.695312 173.734375 263.855469 168.101562 C 263.722656 167.835938 263.40625 167.714844 263.105469 167.6875 C 261.894531 167.578125 258.710938 167.699219 257.636719 162.601562 C 257.609375 162.472656 257.617188 162.332031 257.65625 162.207031 C 257.996094 161.144531 259.445312 155.984375 254.789062 158.15625 C 251.71875 159.59375 249.984375 157.558594 249.359375 156.574219 C 249.152344 156.25 248.828125 156.019531 248.453125 155.929688 L 246.871094 155.539062 " fill-opacity="1" fill-rule="nonzero"/><path fill="#000000" d="M 247.464844 165.351562 L 247.46875 165.351562 Z M 254.949219 181.3125 C 257.835938 182.308594 268.539062 185.464844 274.792969 180.074219 C 274.851562 180.019531 274.828125 179.917969 274.828125 179.894531 C 274.8125 179.835938 274.773438 179.761719 274.707031 179.746094 C 268.03125 178.089844 266.425781 174.78125 264.203125 170.203125 C 263.917969 169.621094 263.625 169.011719 263.304688 168.382812 C 263.292969 168.363281 263.203125 168.316406 263.054688 168.304688 C 262.980469 168.296875 262.898438 168.292969 262.808594 168.285156 C 261.410156 168.1875 258.136719 167.957031 257.027344 162.726562 C 256.980469 162.488281 256.992188 162.242188 257.066406 162.015625 C 257.613281 160.300781 257.667969 158.8125 257.199219 158.398438 C 256.875 158.117188 256.09375 158.230469 255.054688 158.714844 C 251.425781 160.414062 249.375 157.757812 248.835938 156.902344 C 248.722656 156.722656 248.527344 156.585938 248.304688 156.53125 L 247.484375 156.328125 C 247.480469 156.824219 247.46875 157.441406 247.457031 157.808594 C 247.457031 157.886719 247.457031 157.988281 247.460938 158.105469 C 247.472656 159.035156 247.496094 160.957031 246.460938 163.253906 L 248.128906 164.300781 C 248.390625 164.46875 248.578125 164.738281 248.632812 165.046875 C 249.070312 167.4375 249.4375 169.203125 249.558594 169.542969 C 249.730469 170.019531 250.234375 170.390625 250.363281 170.4375 C 250.679688 170.535156 252.136719 170.25 253.554688 169.824219 C 253.5625 169.820312 253.566406 169.816406 253.574219 169.8125 C 253.84375 169.628906 254.238281 169.710938 254.4375 169.96875 C 254.511719 170.058594 254.550781 170.167969 254.566406 170.277344 C 254.699219 170.546875 255.121094 171.335938 256.441406 173.617188 C 257.925781 176.183594 255.921875 179.8125 254.949219 181.3125 Z M 265.136719 184.410156 C 259.339844 184.410156 254.105469 182.339844 253.753906 182.199219 C 253.574219 182.128906 253.441406 181.976562 253.386719 181.789062 C 253.335938 181.605469 253.375 181.402344 253.492188 181.246094 C 254.421875 180.007812 256.582031 176.332031 255.367188 174.238281 C 254.566406 172.851562 253.992188 171.839844 253.664062 171.234375 C 253.644531 171.191406 253.621094 171.144531 253.597656 171.105469 C 252.480469 171.429688 250.699219 171.863281 249.960938 171.617188 C 249.515625 171.464844 248.707031 170.832031 248.390625 169.964844 C 248.1875 169.398438 247.699219 166.835938 247.421875 165.324219 L 245.738281 164.265625 C 245.246094 163.957031 245.054688 163.328125 245.296875 162.808594 C 246.25 160.734375 246.226562 158.96875 246.214844 158.121094 C 246.214844 157.980469 246.214844 157.863281 246.214844 157.773438 C 246.234375 157.089844 246.253906 155.53125 246.253906 155.53125 C 246.257812 155.34375 246.34375 155.164062 246.496094 155.046875 C 246.640625 154.933594 246.839844 154.890625 247.023438 154.9375 L 248.601562 155.324219 C 249.140625 155.457031 249.59375 155.78125 249.886719 156.238281 C 250.527344 157.253906 251.988281 158.78125 254.53125 157.59375 C 256.101562 156.855469 257.277344 156.816406 258.019531 157.46875 C 259.242188 158.546875 258.6875 161.015625 258.246094 162.390625 C 258.242188 162.417969 258.242188 162.445312 258.246094 162.46875 C 259.15625 166.785156 261.589844 166.957031 262.898438 167.046875 C 262.996094 167.054688 263.082031 167.0625 263.164062 167.066406 C 263.742188 167.117188 264.199219 167.390625 264.414062 167.820312 C 264.734375 168.457031 265.035156 169.074219 265.320312 169.660156 C 267.550781 174.253906 268.894531 177.027344 275.003906 178.539062 C 275.511719 178.664062 275.90625 179.074219 276.035156 179.605469 C 276.160156 180.136719 275.992188 180.675781 275.601562 181.015625 C 272.597656 183.601562 268.761719 184.410156 265.136719 184.410156 " fill-opacity="1" fill-rule="nonzero"/><path fill="#000000" d="M 255.664062 162.429688 Z M 256.121094 163.6875 C 255.480469 163.6875 254.84375 163.453125 254.617188 163.097656 C 254.433594 162.8125 254.519531 162.425781 254.808594 162.242188 C 255.066406 162.078125 255.398438 162.128906 255.597656 162.34375 C 255.71875 162.40625 256.132812 162.527344 256.515625 162.378906 C 256.867188 162.246094 257.113281 161.90625 257.246094 161.375 C 257.332031 161.042969 257.667969 160.839844 258 160.921875 C 258.332031 161.007812 258.535156 161.34375 258.449219 161.679688 C 258.066406 163.195312 257.066406 163.570312 256.503906 163.660156 C 256.378906 163.679688 256.25 163.6875 256.121094 163.6875 " fill-opacity="1" fill-rule="nonzero"/><path fill="#000000" d="M 245.457031 163.34375 C 244.773438 163.34375 244.167969 163.121094 243.683594 162.679688 C 242.074219 161.230469 242.238281 157.957031 242.257812 157.585938 C 242.28125 157.265625 242.542969 157.011719 242.867188 157.003906 L 254.363281 156.765625 C 254.703125 156.753906 254.992188 157.03125 255 157.371094 C 255.007812 157.714844 254.734375 158 254.390625 158.007812 L 243.488281 158.234375 C 243.5 159.292969 243.699219 161.027344 244.511719 161.757812 C 244.847656 162.0625 245.277344 162.164062 245.824219 162.070312 C 246.164062 162.011719 246.484375 162.238281 246.542969 162.578125 C 246.601562 162.914062 246.371094 163.234375 246.035156 163.292969 C 245.835938 163.328125 245.644531 163.34375 245.457031 163.34375 " fill-opacity="1" fill-rule="nonzero"/><path fill="#230b41" d="M 255.542969 165.140625 C 255.496094 164.671875 255.835938 164.253906 256.296875 164.214844 C 256.761719 164.167969 257.171875 164.511719 257.21875 164.984375 C 257.265625 165.453125 256.929688 165.871094 256.464844 165.914062 C 256 165.957031 255.589844 165.609375 255.542969 165.140625 " fill-opacity="1" fill-rule="nonzero"/><path fill="#230b41" d="M 261.726562 204.496094 L 261.726562 215.703125 C 261.726562 231.761719 249.097656 244.78125 233.515625 244.78125 L 233.511719 244.78125 C 217.929688 244.78125 205.300781 257.800781 205.300781 273.855469 C 205.300781 275.289062 206.453125 276.449219 207.878906 276.449219 L 282.5625 276.449219 C 305.921875 276.449219 324.859375 256.933594 324.859375 232.855469 L 324.859375 203.035156 C 324.859375 193.457031 317.324219 185.695312 308.035156 185.695312 L 279.964844 185.695312 C 269.894531 185.695312 261.726562 194.113281 261.726562 204.496094 " fill-opacity="1" fill-rule="nonzero"/><path fill="#ae9fcf" d="M 222.339844 265.65625 C 222.214844 265.65625 222.089844 265.621094 221.980469 265.542969 C 221.703125 265.347656 221.632812 264.960938 221.832031 264.679688 C 225.789062 259.042969 232.101562 255.8125 240.605469 255.074219 C 245.644531 254.640625 250.527344 253.292969 254.003906 251.382812 C 262.710938 246.597656 274.285156 238.121094 274.285156 219.835938 L 274.285156 217.722656 C 274.285156 199.242188 280.667969 198.304688 291.085938 198.304688 C 291.429688 198.304688 291.707031 198.582031 291.707031 198.925781 C 291.707031 199.269531 291.429688 199.546875 291.085938 199.546875 C 280.863281 199.546875 275.527344 200.355469 275.527344 217.722656 L 275.527344 219.835938 C 275.527344 238.78125 263.582031 247.535156 254.597656 252.472656 C 250.976562 254.460938 245.917969 255.863281 240.710938 256.3125 C 232.480469 257.023438 226.636719 259.996094 222.84375 265.390625 C 222.726562 265.5625 222.535156 265.65625 222.339844 265.65625 " fill-opacity="1" fill-rule="nonzero"/><path fill="#230b41" d="M 273.148438 359.339844 L 265.289062 359.339844 L 265.289062 274.132812 L 273.148438 274.132812 L 273.148438 359.339844 " fill-opacity="1" fill-rule="nonzero"/><path fill="#230b41" d="M 232.378906 358.078125 L 267.164062 355.007812 L 270.355469 355.007812 L 305.867188 358.078125 L 305.867188 360.507812 L 232.378906 360.507812 L 232.378906 358.078125 " fill-opacity="1" fill-rule="nonzero"/><path fill="#000000" d="M 176.492188 41.257812 C 176.328125 41.257812 176.167969 41.191406 176.046875 41.070312 L 174.859375 39.863281 C 174.621094 39.617188 174.625 39.226562 174.867188 38.988281 C 175.113281 38.746094 175.503906 38.746094 175.746094 38.992188 L 176.929688 40.199219 C 177.171875 40.441406 177.171875 40.835938 176.925781 41.078125 C 176.804688 41.195312 176.644531 41.257812 176.492188 41.257812 " fill-opacity="1" fill-rule="nonzero"/><path fill="#000000" d="M 182.179688 47.03125 C 182.015625 47.03125 181.855469 46.96875 181.734375 46.84375 L 180.546875 45.640625 C 180.304688 45.394531 180.308594 45 180.554688 44.761719 C 180.796875 44.519531 181.191406 44.523438 181.433594 44.769531 L 182.621094 45.976562 C 182.859375 46.21875 182.855469 46.613281 182.609375 46.851562 C 182.492188 46.972656 182.332031 47.03125 182.179688 47.03125 " fill-opacity="1" fill-rule="nonzero"/><path fill="#000000" d="M 175.304688 47.03125 C 175.144531 47.03125 174.988281 46.972656 174.867188 46.851562 C 174.625 46.613281 174.621094 46.21875 174.859375 45.976562 L 176.046875 44.769531 C 176.289062 44.523438 176.683594 44.519531 176.925781 44.761719 C 177.167969 45 177.171875 45.394531 176.929688 45.640625 L 175.746094 46.84375 C 175.621094 46.96875 175.460938 47.03125 175.304688 47.03125 " fill-opacity="1" fill-rule="nonzero"/><path fill="#000000" d="M 180.988281 41.257812 C 180.832031 41.257812 180.675781 41.195312 180.554688 41.078125 C 180.308594 40.835938 180.304688 40.441406 180.546875 40.199219 L 181.734375 38.992188 C 181.976562 38.746094 182.367188 38.746094 182.613281 38.988281 C 182.855469 39.226562 182.859375 39.617188 182.617188 39.863281 L 181.429688 41.070312 C 181.3125 41.191406 181.148438 41.257812 180.988281 41.257812 " fill-opacity="1" fill-rule="nonzero"/><path fill="#000000" d="M 321.941406 304.210938 C 321.9375 304.210938 321.9375 304.210938 321.9375 304.210938 L 320.246094 304.203125 C 319.90625 304.199219 319.628906 303.921875 319.628906 303.578125 C 319.632812 303.238281 319.910156 302.960938 320.25 302.960938 C 320.253906 302.960938 320.253906 302.960938 320.253906 302.960938 L 321.945312 302.96875 C 322.285156 302.972656 322.5625 303.253906 322.558594 303.597656 C 322.558594 303.9375 322.28125 304.210938 321.941406 304.210938 " fill-opacity="1" fill-rule="nonzero"/><path fill="#000000" d="M 330.027344 304.257812 L 328.335938 304.25 C 327.996094 304.246094 327.714844 303.96875 327.71875 303.625 C 327.722656 303.285156 328 303.007812 328.339844 303.007812 C 328.34375 303.007812 328.34375 303.007812 328.34375 303.007812 L 330.03125 303.015625 C 330.375 303.019531 330.652344 303.300781 330.648438 303.644531 C 330.648438 303.984375 330.371094 304.257812 330.027344 304.257812 " fill-opacity="1" fill-rule="nonzero"/><path fill="#000000" d="M 325.171875 309.140625 C 324.828125 309.140625 324.550781 308.863281 324.550781 308.519531 L 324.539062 306.824219 C 324.539062 306.484375 324.8125 306.203125 325.15625 306.203125 C 325.519531 306.207031 325.777344 306.476562 325.78125 306.816406 L 325.789062 308.515625 C 325.792969 308.855469 325.515625 309.136719 325.175781 309.140625 C 325.171875 309.140625 325.171875 309.140625 325.171875 309.140625 " fill-opacity="1" fill-rule="nonzero"/><path fill="#000000" d="M 325.121094 301.015625 C 324.78125 301.015625 324.503906 300.742188 324.5 300.402344 L 324.492188 298.707031 C 324.488281 298.363281 324.765625 298.082031 325.109375 298.082031 C 325.109375 298.082031 325.109375 298.082031 325.113281 298.082031 C 325.453125 298.082031 325.730469 298.355469 325.730469 298.699219 L 325.742188 300.394531 C 325.746094 300.734375 325.46875 301.015625 325.125 301.015625 C 325.125 301.015625 325.125 301.015625 325.121094 301.015625 " fill-opacity="1" fill-rule="nonzero"/><path fill="#ae9fcf" d="M 345.117188 294.273438 C 345.117188 296.46875 343.339844 298.253906 341.152344 298.253906 C 338.964844 298.253906 337.191406 296.46875 337.191406 294.273438 C 337.191406 292.078125 338.964844 290.296875 341.152344 290.296875 C 343.339844 290.296875 345.117188 292.078125 345.117188 294.273438 " fill-opacity="1" fill-rule="nonzero"/></svg>