<svg width="16" height="16" viewBox="0 0 16 16" fill="none" xmlns="http://www.w3.org/2000/svg">
<path d="M8.00001 4.66667V2H1.33334V14H14.6667V4.66667H8.00001ZM4.00001 12.6667H2.66668V11.3333H4.00001V12.6667ZM4.00001 10H2.66668V8.66667H4.00001V10ZM4.00001 7.33333H2.66668V6H4.00001V7.33333ZM4.00001 4.66667H2.66668V3.33333H4.00001V4.66667ZM6.66668 12.6667H5.33334V11.3333H6.66668V12.6667ZM6.66668 10H5.33334V8.66667H6.66668V10ZM6.66668 7.33333H5.33334V6H6.66668V7.33333ZM6.66668 4.66667H5.33334V3.33333H6.66668V4.66667ZM13.3333 12.6667H8.00001V11.3333H9.33334V10H8.00001V8.66667H9.33334V7.33333H8.00001V6H13.3333V12.6667ZM12 7.33333H10.6667V8.66667H12V7.33333ZM12 10H10.6667V11.3333H12V10Z" fill="white"/>
</svg>
