<svg width="10" height="10" viewBox="0 0 10 10" fill="none" xmlns="http://www.w3.org/2000/svg">
<g clip-path="url(#clip0_198_26)">
<path d="M4.17251 0.833336C2.59834 0.833336 1.81126 0.833336 1.32251 1.32167C0.83376 1.81 0.833344 2.59542 0.833344 4.16667C0.833344 5.73792 0.833344 6.52375 1.32251 7.01167C1.81168 7.49959 2.59834 7.5 4.17251 7.5H5.84209C7.41626 7.5 8.20334 7.5 8.69209 7.01167C9.02959 6.675 9.13418 6.19667 9.16668 5.41667M5.00001 7.5V9.16667M3.33334 9.16667H6.66668M4.58334 6.25H5.41668" stroke="#F8F8F8" stroke-width="0.625" stroke-linecap="round" stroke-linejoin="round"/>
<path d="M6.45833 4.16667V5M7.70833 4.16667V5M6.45833 0.833336V1.66667M7.70833 0.833336V1.66667M5.83333 2.29167H5M5.83333 3.54167H5M9.16667 2.29167H8.33333M9.16667 3.54167H8.33333M7.5 1.66667H6.66667C6.27375 1.66667 6.0775 1.66667 5.95542 1.78875C5.83333 1.91084 5.83333 2.10709 5.83333 2.5V3.33334C5.83333 3.72625 5.83333 3.9225 5.95542 4.04459C6.0775 4.16667 6.27375 4.16667 6.66667 4.16667H7.5C7.89292 4.16667 8.08917 4.16667 8.21125 4.04459C8.33333 3.9225 8.33333 3.72625 8.33333 3.33334V2.5C8.33333 2.10709 8.33333 1.91084 8.21125 1.78875C8.08917 1.66667 7.89292 1.66667 7.5 1.66667Z" stroke="#F8F8F8" stroke-width="0.625" stroke-linecap="round" stroke-linejoin="round"/>
</g>
<defs>
<clipPath id="clip0_198_26">
<rect width="10" height="10" fill="white"/>
</clipPath>
</defs>
</svg>
