<svg xmlns="http://www.w3.org/2000/svg" xmlns:xlink="http://www.w3.org/1999/xlink" width="500" zoomAndPan="magnify" viewBox="0 0 375 374.999991" height="500" preserveAspectRatio="xMidYMid meet" version="1.0"><defs><clipPath id="f069ca540e"><path d="M 2 264 L 128 264 L 128 311.53125 L 2 311.53125 Z M 2 264 " clip-rule="nonzero"/></clipPath><clipPath id="2dcc6b050e"><path d="M 84 301 L 221 301 L 221 311.53125 L 84 311.53125 Z M 84 301 " clip-rule="nonzero"/></clipPath><clipPath id="be49f242d5"><path d="M 328 273 L 360 273 L 360 311.53125 L 328 311.53125 Z M 328 273 " clip-rule="nonzero"/></clipPath><clipPath id="4c00e2be56"><path d="M 16 63.28125 L 168 63.28125 L 168 213 L 16 213 Z M 16 63.28125 " clip-rule="nonzero"/></clipPath><clipPath id="0dd69073a7"><path d="M 240 63.28125 L 309 63.28125 L 309 154 L 240 154 Z M 240 63.28125 " clip-rule="nonzero"/></clipPath><clipPath id="d6211016b6"><path d="M 240 63.28125 L 310 63.28125 L 310 154 L 240 154 Z M 240 63.28125 " clip-rule="nonzero"/></clipPath></defs><path fill="#ffffff" d="M 152.222656 190.839844 C 152.222656 194.058594 154.816406 196.648438 158.019531 196.648438 L 328.464844 196.648438 C 331.667969 196.648438 334.261719 194.042969 334.261719 190.839844 L 334.261719 188.707031 L 329.972656 186.46875 L 153.621094 186.46875 L 152.210938 188.707031 L 152.210938 190.839844 Z M 152.222656 190.839844 " fill-opacity="1" fill-rule="nonzero"/><path fill="#000000" d="M 328.464844 196.949219 L 158.007812 196.949219 C 154.652344 196.949219 151.910156 194.207031 151.910156 190.839844 C 151.910156 190.675781 152.046875 190.539062 152.210938 190.539062 C 152.371094 190.539062 152.507812 190.675781 152.507812 190.839844 C 152.507812 193.878906 154.980469 196.351562 158.007812 196.351562 L 328.449219 196.351562 C 331.476562 196.351562 333.949219 193.878906 333.949219 190.839844 C 333.949219 190.675781 334.085938 190.539062 334.246094 190.539062 C 334.410156 190.539062 334.546875 190.675781 334.546875 190.839844 C 334.558594 194.207031 331.816406 196.949219 328.464844 196.949219 Z M 328.464844 196.949219 " fill-opacity="1" fill-rule="nonzero"/><path fill="#ffffff" d="M 270.820312 214.296875 L 215.648438 214.296875 C 212.539062 214.296875 210.015625 211.773438 210.015625 208.664062 L 210.015625 196.648438 L 276.46875 196.648438 L 276.46875 208.664062 C 276.46875 211.773438 273.945312 214.296875 270.820312 214.296875 Z M 270.820312 214.296875 " fill-opacity="1" fill-rule="nonzero"/><path fill="#000000" d="M 270.820312 214.597656 L 215.648438 214.597656 C 212.378906 214.597656 209.71875 211.9375 209.71875 208.664062 L 209.71875 196.648438 C 209.71875 196.488281 209.851562 196.351562 210.015625 196.351562 L 276.46875 196.351562 C 276.632812 196.351562 276.769531 196.488281 276.769531 196.648438 L 276.769531 208.664062 C 276.769531 211.9375 274.09375 214.597656 270.820312 214.597656 Z M 210.300781 196.949219 L 210.300781 208.664062 C 210.300781 211.609375 212.691406 214 215.636719 214 L 270.808594 214 C 273.753906 214 276.144531 211.609375 276.144531 208.664062 L 276.144531 196.949219 Z M 210.300781 196.949219 " fill-opacity="1" fill-rule="nonzero"/><path fill="#000000" d="M 273.984375 201.089844 L 212.484375 201.089844 C 212.324219 201.089844 212.1875 200.953125 212.1875 200.789062 C 212.1875 200.628906 212.324219 200.492188 212.484375 200.492188 L 273.984375 200.492188 C 274.148438 200.492188 274.285156 200.628906 274.285156 200.789062 C 274.285156 200.96875 274.148438 201.089844 273.984375 201.089844 Z M 273.984375 201.089844 " fill-opacity="1" fill-rule="nonzero"/><path fill="#ffffff" d="M 334.261719 188.707031 L 152.222656 188.707031 L 152.222656 86.375 C 152.222656 82.695312 155.195312 79.722656 158.875 79.722656 L 327.609375 79.722656 C 331.289062 79.722656 334.261719 82.695312 334.261719 86.375 Z M 334.261719 188.707031 " fill-opacity="1" fill-rule="nonzero"/><path fill="#000000" d="M 334.261719 189.007812 L 152.222656 189.007812 C 152.058594 189.007812 151.925781 188.871094 151.925781 188.707031 L 151.925781 86.375 C 151.925781 82.546875 155.046875 79.421875 158.875 79.421875 L 327.609375 79.421875 C 331.4375 79.421875 334.558594 82.546875 334.558594 86.375 L 334.558594 188.707031 C 334.558594 188.871094 334.425781 189.007812 334.261719 189.007812 Z M 152.523438 188.410156 L 333.960938 188.410156 L 333.960938 86.375 C 333.960938 82.871094 331.113281 80.019531 327.609375 80.019531 L 158.875 80.019531 C 155.371094 80.019531 152.523438 82.871094 152.523438 86.375 Z M 152.523438 188.410156 " fill-opacity="1" fill-rule="nonzero"/><path fill="#000000" d="M 230.011719 182.761719 L 158.441406 182.761719 C 158.277344 182.761719 158.140625 182.625 158.140625 182.464844 L 158.140625 134.121094 C 158.140625 133.957031 158.277344 133.820312 158.441406 133.820312 C 158.605469 133.820312 158.738281 133.957031 158.738281 134.121094 L 158.738281 182.164062 L 230.011719 182.164062 C 230.175781 182.164062 230.3125 182.300781 230.3125 182.464844 C 230.3125 182.625 230.175781 182.761719 230.011719 182.761719 Z M 230.011719 182.761719 " fill-opacity="1" fill-rule="nonzero"/><path fill="#000000" d="M 296.777344 182.761719 L 256.402344 182.761719 C 256.242188 182.761719 256.105469 182.625 256.105469 182.464844 C 256.105469 182.300781 256.242188 182.164062 256.402344 182.164062 L 296.777344 182.164062 C 296.941406 182.164062 297.078125 182.300781 297.078125 182.464844 C 297.078125 182.625 296.953125 182.761719 296.777344 182.761719 Z M 296.777344 182.761719 " fill-opacity="1" fill-rule="nonzero"/><path fill="#000000" d="M 328.042969 182.761719 L 305.519531 182.761719 C 305.359375 182.761719 305.222656 182.625 305.222656 182.464844 C 305.222656 182.300781 305.359375 182.164062 305.519531 182.164062 L 327.746094 182.164062 L 327.746094 176.695312 C 327.746094 176.53125 327.878906 176.394531 328.042969 176.394531 C 328.207031 176.394531 328.34375 176.53125 328.34375 176.695312 L 328.34375 182.464844 C 328.34375 182.625 328.207031 182.761719 328.042969 182.761719 Z M 328.042969 182.761719 " fill-opacity="1" fill-rule="nonzero"/><path fill="#000000" d="M 328.042969 172.296875 C 327.878906 172.296875 327.746094 172.160156 327.746094 171.996094 L 327.746094 117.597656 C 327.746094 117.433594 327.878906 117.300781 328.042969 117.300781 C 328.207031 117.300781 328.34375 117.433594 328.34375 117.597656 L 328.34375 171.984375 C 328.34375 172.160156 328.207031 172.296875 328.042969 172.296875 Z M 328.042969 172.296875 " fill-opacity="1" fill-rule="nonzero"/><path fill="#000000" d="M 328.042969 96.160156 C 327.878906 96.160156 327.746094 96.027344 327.746094 95.863281 L 327.746094 86.632812 C 327.746094 86.429688 327.582031 86.265625 327.378906 86.265625 L 184.167969 86.265625 C 184.003906 86.265625 183.867188 86.128906 183.867188 85.964844 C 183.867188 85.804688 184.003906 85.667969 184.167969 85.667969 L 327.363281 85.667969 C 327.894531 85.667969 328.328125 86.101562 328.328125 86.632812 L 328.328125 95.863281 C 328.34375 96.027344 328.207031 96.160156 328.042969 96.160156 Z M 328.042969 96.160156 " fill-opacity="1" fill-rule="nonzero"/><path fill="#000000" d="M 158.441406 124.902344 C 158.277344 124.902344 158.140625 124.765625 158.140625 124.601562 L 158.140625 86.632812 C 158.140625 86.101562 158.578125 85.667969 159.105469 85.667969 L 175.4375 85.667969 C 175.601562 85.667969 175.738281 85.804688 175.738281 85.964844 C 175.738281 86.128906 175.601562 86.265625 175.4375 86.265625 L 159.09375 86.265625 C 158.890625 86.265625 158.726562 86.429688 158.726562 86.632812 L 158.726562 124.601562 C 158.738281 124.765625 158.605469 124.902344 158.441406 124.902344 Z M 158.441406 124.902344 " fill-opacity="1" fill-rule="nonzero"/><path fill="#230b41" d="M 124.011719 258.800781 L 111.699219 300.992188 L 23.171875 292.550781 L 25.355469 266.753906 L 7.914062 266.429688 L 24.066406 225.214844 C 29.363281 211.691406 41.078125 201.726562 55.265625 198.660156 C 74.652344 194.464844 101.882812 188.585938 118.027344 185.109375 C 124.988281 183.617188 132.199219 186.074219 136.789062 191.53125 C 145.488281 201.890625 159.242188 218.25 166.492188 230.25 L 127.5 263.6875 Z M 124.011719 258.800781 " fill-opacity="1" fill-rule="nonzero"/><path fill="#000000" d="M 53.988281 267.609375 C 53.949219 267.609375 53.921875 267.597656 53.878906 267.582031 C 53.730469 267.515625 53.648438 267.351562 53.71875 267.191406 L 61.128906 248.714844 C 61.199219 248.5625 61.359375 248.484375 61.523438 248.550781 C 61.671875 248.617188 61.753906 248.78125 61.6875 248.945312 L 54.273438 267.421875 C 54.21875 267.542969 54.109375 267.609375 53.988281 267.609375 Z M 53.988281 267.609375 " fill-opacity="1" fill-rule="nonzero"/><path fill="#ffffff" d="M 215.824219 208.597656 C 217.523438 200.273438 210.734375 202.148438 210.734375 202.148438 C 211.902344 195.320312 205.222656 194.75 205.222656 194.75 C 212.378906 186.238281 214.320312 177.753906 209.960938 178.214844 C 206.59375 178.582031 191.484375 194.53125 184.75 201.808594 C 182.621094 204.101562 180.828125 206.695312 179.429688 209.507812 L 166.136719 236.210938 L 163.289062 232.992188 L 129.226562 262.195312 C 137.332031 273.476562 147.132812 281.199219 155.738281 286.359375 C 167.46875 293.390625 182.6875 289.046875 188.988281 276.898438 C 200.566406 254.605469 211.808594 221.316406 211.808594 221.316406 C 213.953125 221.316406 216.421875 217.3125 216.421875 217.3125 C 220.644531 209.585938 215.824219 208.597656 215.824219 208.597656 Z M 215.824219 208.597656 " fill-opacity="1" fill-rule="nonzero"/><path fill="#000000" d="M 167.847656 290.039062 C 163.574219 290.039062 159.363281 288.882812 155.578125 286.617188 C 144.878906 280.210938 135.933594 272.050781 128.980469 262.371094 C 128.886719 262.234375 128.914062 262.042969 129.050781 261.949219 C 129.183594 261.855469 129.375 261.882812 129.46875 262.019531 C 136.367188 271.628906 145.257812 279.734375 155.890625 286.101562 C 161.480469 289.453125 168.011719 290.308594 174.285156 288.542969 C 180.570312 286.765625 185.703125 282.585938 188.714844 276.773438 C 200.144531 254.769531 211.398438 221.5625 211.523438 221.234375 C 211.578125 221.074219 211.738281 220.992188 211.902344 221.046875 C 212.050781 221.101562 212.148438 221.261719 212.09375 221.425781 C 211.984375 221.765625 200.703125 255 189.257812 277.046875 C 186.164062 283.007812 180.910156 287.296875 174.445312 289.128906 C 172.261719 289.738281 170.046875 290.039062 167.847656 290.039062 Z M 167.847656 290.039062 " fill-opacity="1" fill-rule="nonzero"/><path fill="#000000" d="M 166.136719 236.507812 C 166.058594 236.507812 165.976562 236.46875 165.921875 236.414062 L 163.070312 233.195312 C 162.960938 233.074219 162.976562 232.882812 163.097656 232.773438 C 163.21875 232.667969 163.410156 232.679688 163.519531 232.800781 L 166.070312 235.679688 L 179.171875 209.382812 C 180.582031 206.546875 182.390625 203.941406 184.535156 201.617188 C 192.585938 192.929688 206.582031 178.296875 209.933594 177.941406 C 211.265625 177.792969 211.902344 178.445312 212.203125 179 C 213.613281 181.664062 210.816406 188.421875 205.792969 194.546875 C 206.742188 194.722656 208.726562 195.292969 210.015625 196.960938 C 210.992188 198.226562 211.347656 199.839844 211.101562 201.78125 C 211.957031 201.632812 213.871094 201.484375 215.160156 202.691406 C 216.34375 203.789062 216.679688 205.71875 216.179688 208.40625 C 216.640625 208.570312 217.578125 209.03125 218.09375 210.15625 C 218.878906 211.855469 218.417969 214.324219 216.695312 217.460938 C 216.613281 217.609375 216.4375 217.664062 216.289062 217.585938 C 216.136719 217.503906 216.082031 217.324219 216.164062 217.175781 C 217.765625 214.246094 218.242188 211.910156 217.550781 210.402344 C 216.964844 209.152344 215.785156 208.894531 215.773438 208.894531 C 215.691406 208.882812 215.621094 208.828125 215.582031 208.773438 C 215.539062 208.707031 215.527344 208.625 215.539062 208.542969 C 216.070312 205.921875 215.8125 204.101562 214.753906 203.113281 C 213.3125 201.769531 210.84375 202.433594 210.816406 202.433594 C 210.722656 202.460938 210.613281 202.433594 210.53125 202.367188 C 210.449219 202.296875 210.421875 202.1875 210.4375 202.09375 C 210.777344 200.125 210.464844 198.523438 209.527344 197.300781 C 207.980469 195.304688 205.222656 195.046875 205.195312 195.035156 C 205.085938 195.019531 204.992188 194.953125 204.953125 194.859375 C 204.910156 194.75 204.925781 194.640625 204.992188 194.546875 C 210.597656 187.878906 212.824219 181.417969 211.671875 179.257812 C 211.359375 178.664062 210.804688 178.417969 209.988281 178.511719 C 207.707031 178.757812 198.355469 187.539062 184.96875 202.011719 C 182.851562 204.292969 181.085938 206.859375 179.699219 209.640625 L 166.410156 236.347656 C 166.371094 236.441406 166.273438 236.496094 166.179688 236.507812 C 166.164062 236.507812 166.152344 236.507812 166.136719 236.507812 Z M 166.136719 236.507812 " fill-opacity="1" fill-rule="nonzero"/><path fill="#000000" d="M 159.746094 251.019531 C 159.703125 251.019531 159.664062 251.007812 159.621094 250.992188 C 159.472656 250.925781 159.40625 250.75 159.460938 250.601562 L 165.257812 236.875 C 165.324219 236.726562 165.5 236.65625 165.648438 236.710938 C 165.800781 236.78125 165.867188 236.957031 165.8125 237.105469 L 160.015625 250.832031 C 159.960938 250.953125 159.851562 251.019531 159.746094 251.019531 Z M 159.746094 251.019531 " fill-opacity="1" fill-rule="nonzero"/><path fill="#000000" d="M 194.890625 207.59375 C 193.984375 207.59375 193.074219 207.539062 192.164062 207.414062 C 192 207.386719 191.878906 207.238281 191.90625 207.078125 C 191.933594 206.914062 192.066406 206.804688 192.246094 206.820312 C 195.773438 207.28125 199.386719 206.804688 202.683594 205.445312 C 203.945312 204.929688 206.078125 203.777344 206.242188 201.863281 C 206.351562 200.613281 205.480469 199.242188 204.136719 198.550781 C 202.808594 197.859375 201.230469 197.804688 199.875 197.816406 C 195.558594 197.898438 191.238281 198.957031 187.382812 200.871094 C 187.234375 200.941406 187.058594 200.886719 186.992188 200.738281 C 186.921875 200.585938 186.976562 200.410156 187.125 200.34375 C 191.0625 198.386719 195.476562 197.316406 199.875 197.234375 C 201.3125 197.207031 202.96875 197.273438 204.421875 198.019531 C 205.738281 198.699219 207 200.167969 206.851562 201.917969 C 206.703125 203.574219 205.304688 205.027344 202.914062 206.003906 C 200.363281 207.050781 197.632812 207.59375 194.890625 207.59375 Z M 194.890625 207.59375 " fill-opacity="1" fill-rule="nonzero"/><path fill="#000000" d="M 198.257812 217.175781 C 197.417969 217.175781 196.65625 216.851562 196.195312 216.265625 C 195.640625 215.5625 195.613281 214.597656 195.652344 213.933594 C 195.789062 211.351562 196.820312 208.867188 198.558594 206.953125 C 198.667969 206.832031 198.855469 206.820312 198.976562 206.925781 C 199.101562 207.035156 199.113281 207.226562 199.003906 207.347656 C 197.363281 209.167969 196.386719 211.515625 196.25 213.960938 C 196.222656 214.53125 196.222656 215.34375 196.671875 215.902344 C 197.035156 216.363281 197.703125 216.621094 198.421875 216.578125 C 199.140625 216.539062 199.832031 216.226562 200.429688 215.941406 C 205.441406 213.46875 209.226562 208.527344 210.328125 203.058594 C 210.355469 202.894531 210.519531 202.785156 210.679688 202.828125 C 210.84375 202.855469 210.953125 203.015625 210.910156 203.179688 C 209.785156 208.828125 205.859375 213.933594 200.703125 216.484375 C 200.0625 216.796875 199.289062 217.136719 198.460938 217.191406 C 198.382812 217.164062 198.328125 217.175781 198.257812 217.175781 Z M 198.257812 217.175781 " fill-opacity="1" fill-rule="nonzero"/><path fill="#000000" d="M 204.992188 219.335938 C 204.75 219.335938 204.503906 219.320312 204.273438 219.28125 C 203.324219 219.132812 202.414062 218.574219 201.855469 217.789062 C 201.394531 217.148438 201.21875 216.417969 201.339844 215.722656 C 201.367188 215.5625 201.515625 215.453125 201.679688 215.480469 C 201.84375 215.507812 201.953125 215.65625 201.925781 215.820312 C 201.800781 216.511719 202.085938 217.082031 202.34375 217.433594 C 202.808594 218.085938 203.59375 218.5625 204.382812 218.695312 C 205.617188 218.886719 206.988281 218.507812 208.578125 217.503906 C 211.65625 215.5625 214.019531 212.601562 215.230469 209.167969 C 215.28125 209.019531 215.460938 208.9375 215.609375 208.976562 C 215.757812 209.03125 215.851562 209.207031 215.796875 209.355469 C 214.550781 212.925781 212.105469 215.996094 208.902344 218.003906 C 207.464844 218.902344 206.171875 219.335938 204.992188 219.335938 Z M 204.992188 219.335938 " fill-opacity="1" fill-rule="nonzero"/><path fill="#000000" d="M 209.039062 222.253906 C 208.304688 222.253906 207.695312 222.089844 207.191406 221.777344 C 206.390625 221.261719 205.847656 220.121094 206.363281 219.1875 C 206.445312 219.035156 206.621094 218.980469 206.769531 219.0625 C 206.921875 219.144531 206.972656 219.320312 206.894531 219.472656 C 206.566406 220.082031 206.960938 220.921875 207.515625 221.277344 C 208.074219 221.628906 208.835938 221.738281 209.785156 221.601562 C 212.351562 221.234375 215.148438 219.292969 216.164062 217.191406 C 216.234375 217.039062 216.410156 216.972656 216.558594 217.054688 C 216.707031 217.121094 216.777344 217.300781 216.695312 217.449219 C 215.609375 219.714844 212.59375 221.804688 209.867188 222.199219 C 209.582031 222.242188 209.296875 222.253906 209.039062 222.253906 Z M 209.039062 222.253906 " fill-opacity="1" fill-rule="nonzero"/><path fill="#ffffff" d="M 127.5 310.824219 L 23.441406 310.824219 C 11.769531 311.285156 0.0390625 297.695312 3.023438 284.675781 C 3.933594 281.144531 4.625 278.320312 5.074219 276.40625 C 5.875 272.972656 6.488281 270.203125 7.914062 266.417969 C 8.117188 265.886719 8.292969 265.4375 8.414062 265.140625 C 12.285156 265.046875 16.503906 265.207031 21.039062 265.574219 C 28.289062 266.171875 45.164062 267.664062 52.683594 270.691406 L 48.828125 281.945312 L 91.117188 282.558594 C 100.390625 282.558594 108.292969 288.4375 115.59375 294.136719 C 120.523438 298.035156 125.207031 303.4375 127.5 310.824219 Z M 127.5 310.824219 " fill-opacity="1" fill-rule="nonzero"/><g clip-path="url(#f069ca540e)"><path fill="#000000" d="M 127.5 311.269531 L 24.828125 311.121094 C 17.945312 311.121094 11.550781 308.039062 7.261719 302.664062 C 2.96875 297.289062 1.394531 290.351562 2.929688 283.644531 L 3.1875 282.640625 C 4.449219 277.644531 6.1875 270.789062 8.128906 265.058594 C 8.183594 264.894531 8.347656 264.8125 8.507812 264.867188 C 8.671875 264.921875 8.753906 265.085938 8.699219 265.25 C 6.757812 270.949219 5.035156 277.792969 3.773438 282.773438 L 3.515625 283.78125 C 2.019531 290.296875 3.554688 297.042969 7.734375 302.285156 C 11.902344 307.523438 18.136719 310.523438 24.839844 310.523438 L 127.082031 310.671875 C 125.289062 305.8125 121.71875 299.066406 114.699219 293.730469 L 113.640625 292.929688 C 113.503906 292.835938 113.476562 292.644531 113.585938 292.507812 C 113.679688 292.375 113.871094 292.347656 114.007812 292.453125 L 115.066406 293.253906 C 122.382812 298.835938 126.023438 305.921875 127.785156 310.878906 C 127.8125 310.972656 127.800781 311.066406 127.746094 311.148438 C 127.691406 311.230469 127.597656 311.269531 127.5 311.269531 Z M 127.5 311.269531 " fill-opacity="1" fill-rule="nonzero"/></g><path fill="#000000" d="M 115.867188 307.144531 C 115.746094 307.144531 115.636719 307.074219 115.59375 306.953125 C 113.464844 301.726562 109.417969 297.804688 103.894531 295.617188 C 103.742188 295.5625 103.664062 295.386719 103.730469 295.222656 C 103.785156 295.074219 103.960938 294.992188 104.125 295.0625 C 109.8125 297.316406 113.964844 301.347656 116.164062 306.722656 C 116.234375 306.871094 116.152344 307.046875 116.003906 307.117188 C 115.949219 307.144531 115.90625 307.144531 115.867188 307.144531 Z M 115.867188 307.144531 " fill-opacity="1" fill-rule="nonzero"/><path fill="#000000" d="M 103.324219 307.144531 C 103.214844 307.144531 103.105469 307.074219 103.050781 306.96875 C 101.082031 302.554688 97.1875 299.011719 92.613281 297.476562 C 92.449219 297.421875 92.367188 297.261719 92.421875 297.097656 C 92.476562 296.933594 92.640625 296.851562 92.800781 296.90625 C 97.539062 298.496094 101.570312 302.160156 103.609375 306.722656 C 103.675781 306.871094 103.609375 307.046875 103.457031 307.117188 C 103.40625 307.128906 103.363281 307.144531 103.324219 307.144531 Z M 103.324219 307.144531 " fill-opacity="1" fill-rule="nonzero"/><g clip-path="url(#2dcc6b050e)"><path fill="#000000" d="M 211.78125 311.421875 L 87.140625 311.421875 C 85.417969 311.421875 84.03125 310.023438 84.03125 308.3125 L 84.03125 307.578125 C 84.03125 304.199219 86.773438 301.457031 90.15625 301.457031 L 220.765625 301.457031 L 219.722656 305.351562 C 218.746094 308.921875 215.5 311.421875 211.78125 311.421875 Z M 211.78125 311.421875 " fill-opacity="1" fill-rule="nonzero"/></g><path fill="#000000" d="M 215.417969 306.898438 L 138.335938 306.898438 C 135.050781 306.898438 132.621094 303.804688 133.421875 300.613281 L 147.988281 241.84375 C 148.542969 239.589844 150.582031 238.003906 152.902344 238.003906 L 229.984375 238.003906 C 233.269531 238.003906 235.699219 241.097656 234.898438 244.289062 L 220.332031 303.058594 C 219.777344 305.3125 217.753906 306.898438 215.417969 306.898438 Z M 215.417969 306.898438 " fill-opacity="1" fill-rule="nonzero"/><path fill="#000000" d="M 215.417969 307.046875 L 138.335938 307.046875 C 136.71875 307.046875 135.226562 306.316406 134.222656 305.054688 C 133.230469 303.777344 132.878906 302.148438 133.269531 300.585938 L 147.839844 241.816406 C 148.421875 239.480469 150.5 237.851562 152.902344 237.851562 L 229.984375 237.851562 C 231.601562 237.851562 233.09375 238.585938 234.097656 239.847656 C 235.089844 241.125 235.441406 242.753906 235.050781 244.316406 L 220.484375 303.085938 C 219.914062 305.417969 217.820312 307.046875 215.417969 307.046875 Z M 152.914062 238.152344 C 150.648438 238.152344 148.695312 239.683594 148.136719 241.882812 L 133.570312 300.65625 C 133.203125 302.132812 133.53125 303.667969 134.464844 304.863281 C 135.402344 306.058594 136.816406 306.75 138.335938 306.75 L 215.417969 306.75 C 217.6875 306.75 219.640625 305.214844 220.199219 303.015625 L 234.765625 244.246094 C 235.128906 242.765625 234.804688 241.234375 233.867188 240.039062 C 232.929688 238.84375 231.519531 238.152344 230 238.152344 Z M 152.914062 238.152344 " fill-opacity="1" fill-rule="nonzero"/><path fill="#523762" d="M 191.796875 260.6875 C 191.796875 262.097656 190.65625 263.226562 189.257812 263.226562 C 187.847656 263.226562 186.71875 262.085938 186.71875 260.6875 C 186.71875 259.273438 187.859375 258.148438 189.257812 258.148438 C 190.671875 258.136719 191.796875 259.273438 191.796875 260.6875 Z M 191.796875 260.6875 " fill-opacity="1" fill-rule="nonzero"/><path fill="#ffffff" d="M 85.007812 168.984375 L 73.929688 194.328125 L 65.027344 196.554688 C 65.027344 196.554688 83.707031 208.636719 93.996094 205.976562 C 104.042969 203.382812 106.527344 193.878906 104.953125 187.933594 L 98.015625 189.238281 L 100.921875 179.179688 C 100.90625 179.179688 95.898438 162.738281 85.007812 168.984375 Z M 85.007812 168.984375 " fill-opacity="1" fill-rule="nonzero"/><path fill="#000000" d="M 65.011719 196.855469 C 64.875 196.855469 64.753906 196.757812 64.726562 196.621094 C 64.6875 196.460938 64.78125 196.296875 64.945312 196.257812 L 73.714844 194.070312 L 84.738281 168.859375 C 84.765625 168.804688 84.804688 168.75 84.859375 168.726562 C 87.589844 167.164062 90.195312 166.851562 92.625 167.816406 C 98.410156 170.109375 101.082031 178.730469 101.191406 179.082031 C 101.207031 179.136719 101.207031 179.191406 101.191406 179.257812 L 98.421875 188.859375 L 104.882812 187.636719 C 105.046875 187.609375 105.195312 187.71875 105.238281 187.878906 C 105.265625 188.042969 105.15625 188.191406 104.992188 188.234375 L 98.054688 189.535156 C 97.945312 189.550781 97.851562 189.523438 97.785156 189.441406 C 97.714844 189.359375 97.6875 189.25 97.714844 189.15625 L 100.59375 179.191406 C 100.308594 178.296875 97.621094 170.449219 92.394531 168.386719 C 90.183594 167.503906 87.765625 167.789062 85.238281 169.214844 L 74.203125 194.464844 C 74.164062 194.546875 74.09375 194.613281 74 194.640625 L 65.09375 196.867188 C 65.066406 196.855469 65.039062 196.855469 65.011719 196.855469 Z M 65.011719 196.855469 " fill-opacity="1" fill-rule="nonzero"/><path fill="#000000" d="M 95.449219 196.855469 C 95.421875 196.855469 95.382812 196.855469 95.355469 196.839844 C 95.191406 196.785156 95.109375 196.621094 95.164062 196.460938 L 97.199219 190.257812 C 97.253906 190.09375 97.417969 190.011719 97.582031 190.066406 C 97.742188 190.121094 97.824219 190.28125 97.769531 190.445312 L 95.734375 196.648438 C 95.695312 196.773438 95.570312 196.855469 95.449219 196.855469 Z M 95.449219 196.855469 " fill-opacity="1" fill-rule="nonzero"/><path fill="#000000" d="M 81.710938 161.285156 C 81.710938 161.285156 72.738281 148.320312 74.351562 145.347656 C 75.96875 142.359375 79.402344 143.597656 79.402344 143.597656 C 79.402344 143.597656 92.71875 119.675781 99.386719 129.136719 C 99.386719 129.136719 103.433594 121.941406 109.308594 125.6875 C 115.1875 129.4375 113.558594 134.105469 109.785156 137.203125 C 109.785156 137.203125 113.585938 144.246094 110.300781 147.804688 C 107.015625 151.375 110.777344 159.859375 113.300781 160.863281 C 113.300781 160.863281 120.875 177.453125 113.519531 182.152344 C 106.160156 186.863281 91.703125 187.664062 87.765625 169.308594 Z M 81.710938 161.285156 " fill-opacity="1" fill-rule="nonzero"/><path fill="#ffffff" d="M 86.328125 162.359375 L 87.765625 169.308594 C 87.765625 169.308594 80.597656 171.398438 77.761719 165.75 C 75.167969 160.566406 79.796875 155.773438 84.695312 159.695312 C 85.539062 160.375 86.109375 161.3125 86.328125 162.359375 Z M 86.328125 162.359375 " fill-opacity="1" fill-rule="nonzero"/><path fill="#000000" d="M 84.777344 169.972656 C 82.390625 169.972656 79.183594 169.269531 77.5 165.886719 C 76.199219 163.28125 76.59375 160.402344 78.453125 158.882812 C 79.824219 157.769531 82.238281 157.347656 84.886719 159.464844 C 85.769531 160.171875 86.378906 161.175781 86.609375 162.289062 L 88.050781 169.242188 C 88.078125 169.390625 87.996094 169.539062 87.847656 169.59375 C 87.820312 169.605469 86.515625 169.972656 84.777344 169.972656 Z M 81.085938 158.570312 C 80.257812 158.570312 79.484375 158.828125 78.832031 159.355469 C 77.488281 160.445312 76.660156 162.875 78.03125 165.628906 C 80.449219 170.449219 86.09375 169.417969 87.414062 169.105469 L 86.027344 162.4375 C 85.824219 161.460938 85.28125 160.578125 84.519531 159.953125 C 83.394531 159.03125 82.1875 158.570312 81.085938 158.570312 Z M 81.085938 158.570312 " fill-opacity="1" fill-rule="nonzero"/><path fill="#000000" d="M 85.730469 167.21875 C 85.632812 167.21875 85.523438 167.164062 85.472656 167.070312 C 84.574219 165.574219 82.863281 164.597656 81.113281 164.585938 C 80.949219 164.585938 80.8125 164.449219 80.8125 164.285156 C 80.8125 164.121094 80.9375 163.988281 81.113281 163.988281 C 83.066406 164 84.96875 165.085938 85.972656 166.757812 C 86.054688 166.890625 86.015625 167.082031 85.878906 167.164062 C 85.835938 167.203125 85.78125 167.21875 85.730469 167.21875 Z M 85.730469 167.21875 " fill-opacity="1" fill-rule="nonzero"/><path fill="#ffffff" d="M 110.328125 145.277344 C 110.328125 145.277344 99.902344 146.597656 95.882812 149.394531 C 93.792969 150.859375 92.855469 153.492188 93.5625 155.949219 C 94.269531 158.421875 95.21875 161.433594 96.183594 163.660156 C 96.847656 165.179688 98.449219 166.035156 100.078125 165.75 C 103.417969 165.167969 109.308594 163.78125 113.300781 160.851562 Z M 110.328125 145.277344 " fill-opacity="1" fill-rule="nonzero"/><path fill="#000000" d="M 99.453125 166.117188 C 97.933594 166.117188 96.535156 165.222656 95.898438 163.78125 C 94.890625 161.476562 93.914062 158.296875 93.261719 156.03125 C 92.53125 153.453125 93.507812 150.683594 95.707031 149.148438 C 99.738281 146.324219 109.851562 145.035156 110.273438 144.980469 C 110.4375 144.96875 110.574219 145.0625 110.601562 145.226562 L 113.585938 160.808594 C 113.613281 160.917969 113.558594 161.039062 113.464844 161.109375 C 109.390625 164.109375 103.351562 165.492188 100.121094 166.0625 C 99.902344 166.105469 99.683594 166.117188 99.453125 166.117188 Z M 110.082031 145.617188 C 108.414062 145.847656 99.601562 147.167969 96.058594 149.652344 C 94.0625 151.050781 93.183594 153.546875 93.847656 155.882812 C 94.769531 159.097656 95.667969 161.746094 96.453125 163.550781 C 97.066406 164.949219 98.53125 165.738281 100.023438 165.480469 C 103.171875 164.921875 108.996094 163.59375 112.976562 160.742188 Z M 110.082031 145.617188 " fill-opacity="1" fill-rule="nonzero"/><path fill="#230b41" d="M 209.8125 136.996094 L 209.839844 139.265625 L 212.378906 139.238281 L 212.390625 140.488281 L 211.15625 140.5 L 210.328125 143.976562 L 212.433594 143.960938 L 212.445312 145.117188 L 210.925781 145.128906 L 210.9375 146.339844 L 212.460938 146.324219 L 212.566406 158.039062 L 207.492188 158.082031 L 207.234375 130.425781 C 210.042969 130.398438 212.335938 132.652344 212.363281 135.464844 L 212.378906 136.996094 Z M 209.8125 136.996094 " fill-opacity="1" fill-rule="nonzero"/><path fill="#230b41" d="M 219.84375 165.316406 C 219.789062 159.925781 215.378906 155.582031 209.988281 155.636719 C 204.597656 155.691406 200.253906 160.105469 200.308594 165.492188 C 200.363281 170.882812 204.773438 175.226562 210.164062 175.171875 C 215.554688 175.117188 219.898438 170.71875 219.84375 165.316406 Z M 212.335938 169.308594 C 212.351562 170.542969 211.359375 171.546875 210.125 171.5625 C 208.890625 171.574219 207.882812 170.585938 207.871094 169.347656 C 207.855469 168.113281 208.847656 167.109375 210.082031 167.09375 C 211.320312 167.082031 212.335938 168.074219 212.335938 169.308594 Z M 212.335938 169.308594 " fill-opacity="1" fill-rule="nonzero"/><path fill="#000000" d="M 359.011719 273.71875 C 358.929688 273.71875 358.847656 273.691406 358.792969 273.625 C 358.683594 273.503906 358.699219 273.3125 358.820312 273.203125 L 366.777344 266.089844 L 366.777344 180.480469 C 366.777344 180.320312 366.910156 180.183594 367.074219 180.183594 C 367.238281 180.183594 367.371094 180.320312 367.371094 180.480469 L 367.371094 266.226562 C 367.371094 266.308594 367.332031 266.390625 367.277344 266.445312 L 359.214844 273.652344 C 359.160156 273.691406 359.078125 273.71875 359.011719 273.71875 Z M 359.011719 273.71875 " fill-opacity="1" fill-rule="nonzero"/><path fill="#000000" d="M 348.015625 254.347656 C 347.851562 254.347656 347.714844 254.210938 347.714844 254.046875 L 347.714844 230.765625 C 347.714844 230.601562 347.851562 230.46875 348.015625 230.46875 C 348.175781 230.46875 348.3125 230.601562 348.3125 230.765625 L 348.3125 254.046875 C 348.3125 254.226562 348.175781 254.347656 348.015625 254.347656 Z M 348.015625 254.347656 " fill-opacity="1" fill-rule="nonzero"/><path fill="#000000" d="M 277.609375 278.960938 C 277.445312 278.960938 277.3125 278.824219 277.3125 278.660156 L 277.3125 254.046875 C 277.3125 253.886719 277.445312 253.75 277.609375 253.75 L 348.015625 253.75 C 348.175781 253.75 348.3125 253.886719 348.3125 254.046875 C 348.3125 254.210938 348.175781 254.347656 348.015625 254.347656 L 277.910156 254.347656 L 277.910156 278.660156 C 277.90625 278.824219 277.773438 278.960938 277.609375 278.960938 Z M 277.609375 278.960938 " fill-opacity="1" fill-rule="nonzero"/><g clip-path="url(#be49f242d5)"><path fill="#000000" d="M 359.011719 311.71875 L 329.15625 311.71875 C 328.992188 311.71875 328.859375 311.582031 328.859375 311.421875 C 328.859375 311.257812 328.992188 311.121094 329.15625 311.121094 L 358.710938 311.121094 L 358.710938 273.421875 C 358.710938 273.257812 358.847656 273.121094 359.011719 273.121094 C 359.171875 273.121094 359.308594 273.257812 359.308594 273.421875 L 359.308594 311.421875 C 359.308594 311.582031 359.171875 311.71875 359.011719 311.71875 Z M 359.011719 311.71875 " fill-opacity="1" fill-rule="nonzero"/></g><path fill="#230b41" d="M 319.503906 298.265625 C 319.421875 298.144531 319.339844 298.019531 319.261719 297.910156 C 320.277344 296.878906 321.121094 295.699219 321.773438 294.449219 C 321.90625 294.503906 322.042969 294.546875 322.179688 294.574219 C 324.066406 295.019531 325.964844 293.851562 326.414062 291.964844 C 326.863281 290.078125 325.695312 288.179688 323.808594 287.730469 C 323.671875 287.703125 323.523438 287.675781 323.386719 287.664062 C 323.375 286.25 323.15625 284.824219 322.707031 283.425781 C 322.832031 283.371094 322.964844 283.304688 323.089844 283.222656 C 324.746094 282.203125 325.261719 280.03125 324.242188 278.375 C 323.222656 276.71875 321.050781 276.203125 319.394531 277.222656 C 319.273438 277.304688 319.152344 277.386719 319.042969 277.46875 C 318.011719 276.449219 316.828125 275.605469 315.582031 274.957031 C 315.636719 274.820312 315.675781 274.683594 315.703125 274.546875 C 316.152344 272.660156 314.984375 270.761719 313.097656 270.3125 C 311.210938 269.863281 309.308594 271.03125 308.859375 272.917969 C 308.832031 273.054688 308.808594 273.203125 308.792969 273.339844 C 307.382812 273.351562 305.957031 273.570312 304.558594 274.019531 C 304.503906 273.898438 304.433594 273.761719 304.355469 273.636719 C 303.335938 271.980469 301.164062 271.464844 299.507812 272.484375 C 297.851562 273.503906 297.335938 275.675781 298.351562 277.332031 C 298.433594 277.453125 298.515625 277.574219 298.597656 277.683594 C 297.578125 278.714844 296.738281 279.898438 296.085938 281.144531 C 295.949219 281.089844 295.816406 281.050781 295.679688 281.023438 C 293.792969 280.574219 291.890625 281.742188 291.441406 283.628906 C 290.996094 285.515625 292.164062 287.417969 294.050781 287.867188 C 294.1875 287.894531 294.335938 287.921875 294.46875 287.933594 C 294.484375 289.347656 294.703125 290.769531 295.148438 292.167969 C 295.027344 292.222656 294.890625 292.292969 294.769531 292.375 C 293.113281 293.390625 292.597656 295.5625 293.617188 297.21875 C 294.632812 298.875 296.804688 299.390625 298.460938 298.375 C 298.585938 298.292969 298.707031 298.210938 298.816406 298.128906 C 299.847656 299.148438 301.027344 299.988281 302.277344 300.640625 C 302.222656 300.777344 302.183594 300.914062 302.15625 301.046875 C 301.707031 302.933594 302.875 304.835938 304.761719 305.285156 C 306.648438 305.730469 308.546875 304.5625 308.996094 302.675781 C 309.023438 302.542969 309.050781 302.390625 309.066406 302.257812 C 310.476562 302.242188 311.902344 302.027344 313.300781 301.578125 C 313.355469 301.699219 313.421875 301.835938 313.503906 301.957031 C 314.523438 303.613281 316.695312 304.128906 318.351562 303.113281 C 320.007812 302.078125 320.523438 299.921875 319.503906 298.265625 Z M 303.375 291.207031 C 301.488281 288.125 302.453125 284.105469 305.519531 282.21875 C 308.601562 280.332031 312.621094 281.296875 314.507812 284.363281 C 316.394531 287.445312 315.433594 291.464844 312.363281 293.351562 C 309.296875 295.25 305.261719 294.289062 303.375 291.207031 Z M 303.375 291.207031 " fill-opacity="1" fill-rule="nonzero"/><path fill="#230b41" d="M 341.957031 280.453125 C 341.917969 280.398438 341.890625 280.34375 341.851562 280.289062 C 342.3125 279.816406 342.691406 279.285156 342.992188 278.714844 C 343.046875 278.742188 343.113281 278.757812 343.179688 278.769531 C 344.035156 278.972656 344.90625 278.445312 345.109375 277.589844 C 345.3125 276.734375 344.78125 275.863281 343.925781 275.660156 C 343.859375 275.648438 343.804688 275.632812 343.738281 275.632812 C 343.738281 274.996094 343.628906 274.34375 343.425781 273.707031 C 343.480469 273.679688 343.546875 273.652344 343.601562 273.613281 C 344.347656 273.148438 344.59375 272.160156 344.132812 271.414062 C 343.667969 270.664062 342.679688 270.421875 341.933594 270.882812 C 341.878906 270.921875 341.824219 270.949219 341.769531 270.992188 C 341.292969 270.53125 340.765625 270.148438 340.195312 269.851562 C 340.222656 269.796875 340.234375 269.730469 340.25 269.660156 C 340.453125 268.804688 339.921875 267.9375 339.066406 267.734375 C 338.210938 267.53125 337.34375 268.058594 337.140625 268.914062 C 337.125 268.980469 337.113281 269.035156 337.113281 269.105469 C 336.472656 269.105469 335.824219 269.214844 335.183594 269.417969 C 335.15625 269.363281 335.128906 269.292969 335.089844 269.238281 C 334.628906 268.492188 333.636719 268.25 332.890625 268.710938 C 332.144531 269.171875 331.898438 270.164062 332.359375 270.910156 C 332.402344 270.964844 332.429688 271.019531 332.46875 271.074219 C 332.007812 271.546875 331.628906 272.078125 331.328125 272.648438 C 331.273438 272.621094 331.207031 272.605469 331.140625 272.59375 C 330.285156 272.390625 329.414062 272.917969 329.210938 273.773438 C 329.007812 274.628906 329.535156 275.5 330.390625 275.703125 C 330.460938 275.714844 330.515625 275.730469 330.582031 275.730469 C 330.582031 276.367188 330.691406 277.019531 330.894531 277.65625 C 330.839844 277.683594 330.773438 277.710938 330.71875 277.753906 C 329.972656 278.214844 329.726562 279.203125 330.1875 279.953125 C 330.648438 280.699219 331.640625 280.941406 332.386719 280.480469 C 332.441406 280.441406 332.496094 280.414062 332.550781 280.371094 C 333.027344 280.832031 333.554688 281.214844 334.125 281.511719 C 334.097656 281.566406 334.085938 281.632812 334.070312 281.703125 C 333.867188 282.558594 334.398438 283.425781 335.253906 283.628906 C 336.109375 283.835938 336.976562 283.304688 337.179688 282.449219 C 337.195312 282.382812 337.207031 282.328125 337.207031 282.257812 C 337.84375 282.257812 338.496094 282.152344 339.136719 281.945312 C 339.164062 282 339.1875 282.070312 339.230469 282.125 C 339.691406 282.871094 340.683594 283.113281 341.429688 282.652344 C 342.191406 282.191406 342.421875 281.214844 341.957031 280.453125 Z M 334.628906 277.25 C 333.773438 275.851562 334.207031 274.019531 335.605469 273.164062 C 337.003906 272.308594 338.835938 272.742188 339.691406 274.140625 C 340.546875 275.539062 340.113281 277.371094 338.714844 278.226562 C 337.316406 279.082031 335.484375 278.648438 334.628906 277.25 Z M 334.628906 277.25 " fill-opacity="1" fill-rule="nonzero"/><g clip-path="url(#4c00e2be56)"><path fill="#000000" d="M 17.15625 212.589844 C 16.996094 212.589844 16.859375 212.453125 16.859375 212.289062 L 16.859375 63.578125 C 16.859375 63.417969 16.996094 63.28125 17.15625 63.28125 L 166.804688 63.28125 C 166.964844 63.28125 167.101562 63.417969 167.101562 63.578125 L 167.101562 65.875 C 167.101562 66.039062 166.964844 66.171875 166.804688 66.171875 C 166.640625 66.171875 166.503906 66.039062 166.503906 65.875 L 166.503906 63.878906 L 17.457031 63.878906 L 17.457031 212.289062 C 17.457031 212.464844 17.332031 212.589844 17.15625 212.589844 Z M 17.15625 212.589844 " fill-opacity="1" fill-rule="nonzero"/></g><path fill="#ffffff" d="M 2.632812 80.128906 L 61.25 80.128906 L 61.25 114.070312 L 2.632812 114.070312 Z M 2.632812 80.128906 " fill-opacity="1" fill-rule="nonzero"/><path fill="#000000" d="M 61.25 114.378906 L 2.632812 114.351562 C 2.550781 114.351562 2.480469 114.328125 2.414062 114.273438 C 2.359375 114.21875 2.332031 114.136719 2.332031 114.054688 L 2.347656 80.117188 C 2.347656 79.953125 2.480469 79.816406 2.644531 79.816406 L 61.265625 79.84375 C 61.429688 79.84375 61.5625 79.980469 61.5625 80.140625 L 61.550781 114.082031 C 61.550781 114.164062 61.523438 114.230469 61.46875 114.300781 C 61.402344 114.351562 61.332031 114.378906 61.25 114.378906 Z M 2.929688 113.757812 L 60.953125 113.785156 L 60.964844 80.441406 L 2.945312 80.414062 Z M 2.929688 113.757812 " fill-opacity="1" fill-rule="nonzero"/><path fill="#000000" d="M 54.339844 90.417969 L 8.375 90.390625 C 8.210938 90.390625 8.074219 90.257812 8.074219 90.09375 C 8.074219 89.929688 8.210938 89.792969 8.375 89.792969 L 54.339844 89.820312 C 54.503906 89.820312 54.640625 89.957031 54.640625 90.121094 C 54.640625 90.296875 54.503906 90.417969 54.339844 90.417969 Z M 54.339844 90.417969 " fill-opacity="1" fill-rule="nonzero"/><path fill="#000000" d="M 54.339844 96.882812 L 8.375 96.855469 C 8.210938 96.855469 8.074219 96.71875 8.074219 96.554688 C 8.074219 96.394531 8.210938 96.257812 8.375 96.257812 L 54.339844 96.285156 C 54.503906 96.285156 54.640625 96.417969 54.640625 96.582031 C 54.640625 96.746094 54.503906 96.882812 54.339844 96.882812 Z M 54.339844 96.882812 " fill-opacity="1" fill-rule="nonzero"/><path fill="#000000" d="M 54.339844 103.34375 L 8.375 103.316406 C 8.210938 103.316406 8.074219 103.179688 8.074219 103.019531 C 8.074219 102.855469 8.210938 102.71875 8.375 102.71875 L 54.339844 102.746094 C 54.503906 102.746094 54.640625 102.882812 54.640625 103.042969 C 54.640625 103.207031 54.503906 103.34375 54.339844 103.34375 Z M 54.339844 103.34375 " fill-opacity="1" fill-rule="nonzero"/><path fill="#ffffff" d="M 19.480469 90.121094 C 19.480469 91.410156 18.445312 92.457031 17.15625 92.441406 C 15.882812 92.441406 14.847656 91.398438 14.847656 90.105469 C 14.847656 88.816406 15.882812 87.773438 17.171875 87.785156 C 18.445312 87.800781 19.480469 88.84375 19.480469 90.121094 Z M 19.480469 90.121094 " fill-opacity="1" fill-rule="nonzero"/><path fill="#000000" d="M 17.15625 92.753906 C 15.71875 92.753906 14.539062 91.574219 14.539062 90.121094 C 14.539062 89.414062 14.808594 88.761719 15.296875 88.261719 C 15.785156 87.757812 16.453125 87.488281 17.144531 87.488281 C 17.835938 87.488281 18.5 87.757812 18.988281 88.261719 C 19.480469 88.761719 19.75 89.414062 19.75 90.121094 C 19.75 90.828125 19.480469 91.476562 18.988281 91.980469 C 18.515625 92.484375 17.863281 92.753906 17.15625 92.753906 Z M 17.15625 88.097656 C 16.613281 88.097656 16.113281 88.316406 15.730469 88.695312 C 15.351562 89.074219 15.132812 89.589844 15.132812 90.132812 C 15.132812 91.246094 16.042969 92.171875 17.144531 92.171875 C 17.6875 92.171875 18.1875 91.953125 18.570312 91.574219 C 18.949219 91.191406 19.167969 90.675781 19.167969 90.132812 C 19.167969 89.589844 18.964844 89.074219 18.582031 88.695312 C 18.203125 88.300781 17.699219 88.097656 17.15625 88.097656 Z M 17.15625 88.097656 " fill-opacity="1" fill-rule="nonzero"/><path fill="#230b41" d="M 32.050781 96.597656 C 32.050781 97.886719 31.019531 98.929688 29.730469 98.917969 C 28.453125 98.917969 27.421875 97.871094 27.421875 96.582031 C 27.421875 95.292969 28.453125 94.246094 29.742188 94.261719 C 31.03125 94.273438 32.050781 95.304688 32.050781 96.597656 Z M 32.050781 96.597656 " fill-opacity="1" fill-rule="nonzero"/><path fill="#ffffff" d="M 50.121094 103.019531 C 50.121094 104.308594 49.085938 105.351562 47.796875 105.339844 C 46.523438 105.339844 45.488281 104.292969 45.488281 103.003906 C 45.488281 101.714844 46.523438 100.667969 47.8125 100.683594 C 49.085938 100.683594 50.121094 101.726562 50.121094 103.019531 Z M 50.121094 103.019531 " fill-opacity="1" fill-rule="nonzero"/><path fill="#000000" d="M 47.8125 105.636719 C 46.371094 105.636719 45.191406 104.457031 45.191406 103.003906 C 45.191406 101.550781 46.359375 100.382812 47.8125 100.382812 C 49.25 100.382812 50.417969 101.566406 50.417969 103.019531 C 50.417969 104.46875 49.25 105.636719 47.8125 105.636719 Z M 47.8125 100.980469 C 46.699219 100.980469 45.800781 101.890625 45.789062 103.003906 C 45.789062 104.117188 46.699219 105.039062 47.796875 105.039062 C 48.910156 105.039062 49.808594 104.132812 49.820312 103.019531 C 49.835938 101.890625 48.925781 100.980469 47.8125 100.980469 Z M 50.121094 103.019531 Z M 50.121094 103.019531 " fill-opacity="1" fill-rule="nonzero"/><g clip-path="url(#0dd69073a7)"><path fill="#ffffff" d="M 301.203125 63.578125 L 248 63.578125 C 243.75 63.578125 240.316406 67.015625 240.316406 71.265625 L 240.316406 122.132812 C 240.316406 130.265625 244.863281 137.703125 252.101562 141.398438 L 275.546875 153.382812 L 297.539062 141.503906 C 304.53125 137.730469 308.886719 130.414062 308.886719 122.472656 L 308.886719 71.265625 C 308.886719 67.015625 305.441406 63.578125 301.203125 63.578125 Z M 301.203125 63.578125 " fill-opacity="1" fill-rule="nonzero"/></g><g clip-path="url(#d6211016b6)"><path fill="#000000" d="M 275.53125 153.667969 C 275.492188 153.667969 275.4375 153.65625 275.398438 153.640625 L 251.953125 141.65625 C 244.578125 137.878906 240.003906 130.398438 240.003906 122.117188 L 240.003906 71.265625 C 240.003906 66.867188 243.589844 63.28125 247.988281 63.28125 L 301.191406 63.28125 C 305.589844 63.28125 309.171875 66.867188 309.171875 71.265625 L 309.171875 122.457031 C 309.171875 130.523438 304.761719 137.921875 297.660156 141.761719 L 275.667969 153.640625 C 275.640625 153.667969 275.585938 153.667969 275.53125 153.667969 Z M 247.988281 63.878906 C 243.914062 63.878906 240.601562 67.191406 240.601562 71.265625 L 240.601562 122.132812 C 240.601562 130.183594 245.054688 137.460938 252.222656 141.125 L 275.53125 153.03125 L 297.390625 141.234375 C 304.300781 137.5 308.589844 130.304688 308.589844 122.457031 L 308.589844 71.265625 C 308.589844 67.191406 305.277344 63.878906 301.203125 63.878906 Z M 247.988281 63.878906 " fill-opacity="1" fill-rule="nonzero"/></g><path fill="#230b41" d="M 255.101562 135.503906 C 250.050781 132.925781 246.914062 127.792969 246.914062 122.132812 L 246.914062 71.265625 C 246.914062 70.667969 247.402344 70.191406 247.988281 70.191406 L 301.191406 70.191406 C 301.789062 70.191406 302.261719 70.679688 302.261719 71.265625 L 302.261719 122.457031 C 302.261719 127.984375 299.234375 133.046875 294.375 135.679688 L 275.4375 145.902344 Z M 255.101562 135.503906 " fill-opacity="1" fill-rule="nonzero"/><path fill="#ffffff" d="M 275.925781 120.175781 C 275.871094 120.191406 275.816406 120.191406 275.761719 120.203125 C 274.335938 120.421875 272.886719 119.945312 271.867188 118.914062 L 261.238281 108.109375 C 259.484375 106.332031 259.511719 103.480469 261.292969 101.742188 C 263.070312 99.992188 265.921875 100.015625 267.660156 101.796875 L 273.902344 108.148438 L 284.300781 87.828125 C 285.429688 85.613281 288.144531 84.730469 290.371094 85.871094 C 292.582031 87 293.464844 89.714844 292.324219 91.941406 L 279.089844 117.828125 C 278.464844 119.039062 277.285156 119.917969 275.925781 120.175781 Z M 275.925781 120.175781 " fill-opacity="1" fill-rule="nonzero"/><path fill="#000000" d="M 177.921875 129.179688 L 138.0625 129.179688 C 137.902344 129.179688 137.765625 129.042969 137.765625 128.878906 C 137.765625 128.714844 137.902344 128.582031 138.0625 128.582031 L 177.800781 128.582031 L 200.269531 106.113281 C 200.324219 106.058594 200.402344 106.03125 200.484375 106.03125 L 237.097656 106.03125 C 237.261719 106.03125 237.398438 106.167969 237.398438 106.332031 C 237.398438 106.492188 237.261719 106.628906 237.097656 106.628906 L 200.609375 106.628906 L 178.140625 129.097656 C 178.070312 129.152344 178.003906 129.179688 177.921875 129.179688 Z M 177.921875 129.179688 " fill-opacity="1" fill-rule="nonzero"/><path fill="#000000" d="M 221.894531 159.492188 C 221.8125 159.492188 221.746094 159.464844 221.675781 159.410156 C 221.554688 159.289062 221.554688 159.097656 221.675781 158.992188 L 241.210938 139.457031 C 241.335938 139.332031 241.523438 139.332031 241.632812 139.457031 C 241.753906 139.578125 241.753906 139.765625 241.632812 139.875 L 222.097656 159.398438 C 222.042969 159.464844 221.960938 159.492188 221.894531 159.492188 Z M 221.894531 159.492188 " fill-opacity="1" fill-rule="nonzero"/><path fill="#000000" d="M 235.375 236.371094 C 235.210938 236.371094 235.078125 236.238281 235.078125 236.074219 L 235.078125 159.371094 C 235.078125 159.289062 235.105469 159.222656 235.15625 159.152344 L 248.378906 145.929688 C 248.503906 145.808594 248.691406 145.808594 248.800781 145.929688 C 248.910156 146.054688 248.921875 146.242188 248.800781 146.351562 L 235.660156 159.492188 L 235.660156 236.074219 C 235.671875 236.238281 235.550781 236.371094 235.375 236.371094 Z M 235.375 236.371094 " fill-opacity="1" fill-rule="nonzero"/><path fill="#000000" d="M 252.601562 238.164062 C 252.441406 238.164062 252.304688 238.027344 252.304688 237.867188 L 252.304688 155.378906 C 252.304688 155.296875 252.332031 155.230469 252.386719 155.164062 L 258.195312 149.351562 C 258.316406 149.230469 258.507812 149.230469 258.617188 149.351562 C 258.738281 149.472656 258.738281 149.664062 258.617188 149.773438 L 252.902344 155.488281 L 252.902344 237.867188 C 252.902344 238.027344 252.765625 238.164062 252.601562 238.164062 Z M 252.601562 238.164062 " fill-opacity="1" fill-rule="nonzero"/><path fill="#000000" d="M 348.015625 224.804688 C 347.945312 224.804688 347.878906 224.777344 347.808594 224.726562 L 287.601562 170.855469 C 287.535156 170.800781 287.507812 170.71875 287.507812 170.640625 L 287.507812 146.757812 C 287.507812 146.597656 287.640625 146.460938 287.804688 146.460938 C 287.96875 146.460938 288.105469 146.597656 288.105469 146.757812 L 288.105469 170.488281 L 348.21875 224.277344 C 348.339844 224.386719 348.351562 224.574219 348.246094 224.699219 C 348.175781 224.777344 348.09375 224.804688 348.015625 224.804688 Z M 348.015625 224.804688 " fill-opacity="1" fill-rule="nonzero"/><path fill="#000000" d="M 366.871094 174.238281 L 307.476562 174.238281 C 307.394531 174.238281 307.328125 174.210938 307.257812 174.15625 L 298.246094 165.140625 C 298.191406 165.085938 298.164062 165.003906 298.164062 164.921875 L 298.164062 140.949219 C 298.164062 140.785156 298.300781 140.648438 298.460938 140.648438 C 298.625 140.648438 298.761719 140.785156 298.761719 140.949219 L 298.761719 164.800781 L 307.613281 173.652344 L 366.882812 173.652344 C 367.046875 173.652344 367.183594 173.789062 367.183594 173.953125 C 367.167969 174.113281 367.046875 174.238281 366.871094 174.238281 Z M 366.871094 174.238281 " fill-opacity="1" fill-rule="nonzero"/><path fill="#000000" d="M 350.714844 98.28125 L 311.914062 98.28125 C 311.753906 98.28125 311.617188 98.144531 311.617188 97.980469 C 311.617188 97.816406 311.753906 97.683594 311.914062 97.683594 L 350.59375 97.683594 L 370.671875 77.605469 C 370.792969 77.480469 370.984375 77.480469 371.09375 77.605469 C 371.214844 77.726562 371.214844 77.914062 371.09375 78.023438 L 350.933594 98.183594 C 350.878906 98.238281 350.796875 98.28125 350.714844 98.28125 Z M 350.714844 98.28125 " fill-opacity="1" fill-rule="nonzero"/><path fill="#000000" d="M 352.777344 106.628906 L 311.914062 106.628906 C 311.753906 106.628906 311.617188 106.492188 311.617188 106.332031 C 311.617188 106.167969 311.753906 106.03125 311.914062 106.03125 L 352.65625 106.03125 L 364.441406 94.246094 C 364.5625 94.125 364.753906 94.125 364.863281 94.246094 C 364.984375 94.371094 364.984375 94.558594 364.863281 94.667969 L 352.996094 106.535156 C 352.941406 106.589844 352.859375 106.628906 352.777344 106.628906 Z M 352.777344 106.628906 " fill-opacity="1" fill-rule="nonzero"/><path fill="#000000" d="M 371.484375 153.097656 C 371.40625 153.097656 371.335938 153.070312 371.269531 153.015625 L 334.003906 115.738281 L 311.914062 115.738281 C 311.753906 115.738281 311.617188 115.601562 311.617188 115.441406 C 311.617188 115.277344 311.753906 115.140625 311.914062 115.140625 L 334.125 115.140625 C 334.207031 115.140625 334.273438 115.167969 334.34375 115.222656 L 371.703125 152.582031 C 371.824219 152.707031 371.824219 152.894531 371.703125 153.003906 C 371.636719 153.070312 371.566406 153.097656 371.484375 153.097656 Z M 371.484375 153.097656 " fill-opacity="1" fill-rule="nonzero"/><path fill="#ffffff" d="M 372.96875 75.804688 C 373.234375 76.042969 373.445312 76.324219 373.597656 76.644531 C 373.75 76.964844 373.835938 77.304688 373.855469 77.660156 C 373.875 78.015625 373.824219 78.363281 373.707031 78.699219 C 373.585938 79.035156 373.410156 79.335938 373.171875 79.601562 C 372.933594 79.867188 372.652344 80.074219 372.332031 80.230469 C 372.007812 80.382812 371.671875 80.46875 371.3125 80.488281 C 370.957031 80.507812 370.613281 80.457031 370.277344 80.339844 C 369.941406 80.21875 369.640625 80.039062 369.375 79.800781 C 369.109375 79.5625 368.898438 79.285156 368.746094 78.960938 C 368.59375 78.640625 368.507812 78.300781 368.488281 77.945312 C 368.46875 77.589844 368.519531 77.242188 368.636719 76.90625 C 368.757812 76.570312 368.933594 76.269531 369.171875 76.007812 C 369.410156 75.742188 369.691406 75.53125 370.011719 75.378906 C 370.335938 75.222656 370.671875 75.136719 371.03125 75.121094 C 371.386719 75.101562 371.730469 75.148438 372.066406 75.269531 C 372.402344 75.386719 372.703125 75.566406 372.96875 75.804688 Z M 372.96875 75.804688 " fill-opacity="1" fill-rule="nonzero"/><path fill="#000000" d="M 371.175781 80.808594 C 369.519531 80.808594 368.1875 79.464844 368.1875 77.820312 C 368.1875 76.164062 369.53125 74.835938 371.175781 74.835938 C 372.832031 74.835938 374.160156 76.179688 374.160156 77.820312 C 374.175781 79.464844 372.832031 80.808594 371.175781 80.808594 Z M 371.175781 75.417969 C 369.855469 75.417969 368.785156 76.492188 368.785156 77.808594 C 368.785156 79.125 369.855469 80.195312 371.175781 80.195312 C 372.492188 80.195312 373.5625 79.125 373.5625 77.808594 C 373.578125 76.492188 372.503906 75.417969 371.175781 75.417969 Z M 371.175781 75.417969 " fill-opacity="1" fill-rule="nonzero"/><path fill="#ffffff" d="M 365.253906 91.792969 C 365.609375 91.820312 365.945312 91.917969 366.265625 92.078125 C 366.582031 92.238281 366.855469 92.457031 367.089844 92.726562 C 367.320312 93 367.492188 93.304688 367.601562 93.644531 C 367.710938 93.980469 367.75 94.328125 367.722656 94.683594 C 367.695312 95.039062 367.601562 95.375 367.4375 95.695312 C 367.277344 96.011719 367.058594 96.285156 366.789062 96.515625 C 366.519531 96.75 366.214844 96.917969 365.875 97.03125 C 365.535156 97.140625 365.1875 97.179688 364.832031 97.152344 C 364.476562 97.125 364.140625 97.03125 363.824219 96.867188 C 363.503906 96.707031 363.230469 96.488281 363 96.21875 C 362.769531 95.949219 362.597656 95.644531 362.488281 95.304688 C 362.378906 94.964844 362.335938 94.617188 362.363281 94.261719 C 362.390625 93.90625 362.488281 93.570312 362.648438 93.253906 C 362.8125 92.933594 363.027344 92.660156 363.296875 92.429688 C 363.570312 92.199219 363.875 92.027344 364.214844 91.917969 C 364.550781 91.804688 364.898438 91.765625 365.253906 91.792969 Z M 365.253906 91.792969 " fill-opacity="1" fill-rule="nonzero"/><path fill="#000000" d="M 365.039062 97.453125 C 363.382812 97.453125 362.050781 96.109375 362.050781 94.464844 C 362.050781 92.808594 363.394531 91.476562 365.039062 91.476562 C 366.695312 91.476562 368.023438 92.820312 368.023438 94.464844 C 368.039062 96.109375 366.695312 97.453125 365.039062 97.453125 Z M 365.039062 92.0625 C 363.722656 92.0625 362.648438 93.132812 362.648438 94.453125 C 362.648438 95.769531 363.722656 96.839844 365.039062 96.839844 C 366.355469 96.839844 367.425781 95.769531 367.425781 94.453125 C 367.441406 93.148438 366.367188 92.0625 365.039062 92.0625 Z M 365.039062 92.0625 " fill-opacity="1" fill-rule="nonzero"/><path fill="#ffffff" d="M 374.175781 152.800781 C 374.175781 154.292969 372.964844 155.488281 371.484375 155.488281 C 369.992188 155.488281 368.796875 154.28125 368.796875 152.800781 C 368.796875 151.308594 370.007812 150.113281 371.484375 150.113281 C 372.980469 150.097656 374.175781 151.308594 374.175781 152.800781 Z M 374.175781 152.800781 " fill-opacity="1" fill-rule="nonzero"/><path fill="#000000" d="M 371.484375 155.785156 C 369.828125 155.785156 368.5 154.441406 368.5 152.800781 C 368.5 151.144531 369.84375 149.8125 371.484375 149.8125 C 373.140625 149.8125 374.472656 151.15625 374.472656 152.800781 C 374.472656 154.441406 373.128906 155.785156 371.484375 155.785156 Z M 371.484375 150.398438 C 370.167969 150.398438 369.097656 151.46875 369.097656 152.785156 C 369.097656 154.101562 370.167969 155.175781 371.484375 155.175781 C 372.804688 155.175781 373.875 154.101562 373.875 152.785156 C 373.875 151.484375 372.804688 150.398438 371.484375 150.398438 Z M 371.484375 150.398438 " fill-opacity="1" fill-rule="nonzero"/><path fill="#000000" d="M 237.425781 98.28125 L 189.964844 98.28125 C 189.882812 98.28125 189.789062 98.238281 189.734375 98.171875 L 166.574219 70.964844 C 166.464844 70.84375 166.476562 70.652344 166.601562 70.542969 C 166.722656 70.4375 166.914062 70.449219 167.019531 70.570312 L 190.101562 97.683594 L 237.425781 97.683594 C 237.589844 97.683594 237.722656 97.816406 237.722656 97.980469 C 237.722656 98.144531 237.589844 98.28125 237.425781 98.28125 Z M 237.425781 98.28125 " fill-opacity="1" fill-rule="nonzero"/><path fill="#000000" d="M 169.191406 153.097656 C 169.113281 153.097656 169.042969 153.070312 168.976562 153.015625 C 168.855469 152.894531 168.855469 152.707031 168.976562 152.597656 L 206.335938 115.234375 C 206.390625 115.179688 206.472656 115.15625 206.554688 115.15625 L 237.425781 115.15625 C 237.589844 115.15625 237.722656 115.289062 237.722656 115.453125 C 237.722656 115.617188 237.589844 115.75 237.425781 115.75 L 206.675781 115.75 L 169.410156 153.015625 C 169.34375 153.070312 169.273438 153.097656 169.191406 153.097656 Z M 169.191406 153.097656 " fill-opacity="1" fill-rule="nonzero"/><path fill="#ffffff" d="M 168.703125 68.875 C 168.957031 69.125 169.148438 69.417969 169.285156 69.746094 C 169.421875 70.074219 169.492188 70.417969 169.492188 70.777344 C 169.492188 71.132812 169.421875 71.476562 169.285156 71.804688 C 169.148438 72.132812 168.957031 72.425781 168.703125 72.675781 C 168.449219 72.929688 168.160156 73.121094 167.832031 73.257812 C 167.5 73.394531 167.160156 73.464844 166.800781 73.464844 C 166.445312 73.464844 166.101562 73.394531 165.773438 73.257812 C 165.445312 73.121094 165.152344 72.929688 164.902344 72.675781 C 164.648438 72.425781 164.457031 72.132812 164.320312 71.804688 C 164.183594 71.476562 164.113281 71.132812 164.113281 70.777344 C 164.113281 70.417969 164.183594 70.078125 164.320312 69.746094 C 164.457031 69.417969 164.648438 69.125 164.902344 68.875 C 165.152344 68.621094 165.445312 68.429688 165.773438 68.292969 C 166.101562 68.15625 166.445312 68.085938 166.800781 68.085938 C 167.160156 68.085938 167.5 68.15625 167.832031 68.292969 C 168.160156 68.429688 168.449219 68.621094 168.703125 68.875 Z M 168.703125 68.875 " fill-opacity="1" fill-rule="nonzero"/><path fill="#000000" d="M 166.804688 73.761719 C 165.148438 73.761719 163.816406 72.417969 163.816406 70.773438 C 163.816406 69.117188 165.160156 67.789062 166.804688 67.789062 C 168.460938 67.789062 169.789062 69.132812 169.789062 70.773438 C 169.789062 72.417969 168.445312 73.761719 166.804688 73.761719 Z M 166.804688 68.371094 C 165.488281 68.371094 164.414062 69.445312 164.414062 70.761719 C 164.414062 72.078125 165.488281 73.152344 166.804688 73.152344 C 168.121094 73.152344 169.191406 72.078125 169.191406 70.761719 C 169.191406 69.457031 168.121094 68.371094 166.804688 68.371094 Z M 166.804688 68.371094 " fill-opacity="1" fill-rule="nonzero"/><path fill="#ffffff" d="M 166.492188 152.800781 C 166.492188 154.292969 167.699219 155.488281 169.179688 155.488281 C 170.660156 155.488281 171.867188 154.28125 171.867188 152.800781 C 171.867188 151.308594 170.660156 150.113281 169.179688 150.113281 C 167.699219 150.113281 166.492188 151.308594 166.492188 152.800781 Z M 166.492188 152.800781 " fill-opacity="1" fill-rule="nonzero"/><path fill="#000000" d="M 169.191406 155.785156 C 167.535156 155.785156 166.207031 154.441406 166.207031 152.800781 C 166.207031 151.144531 167.550781 149.8125 169.191406 149.8125 C 170.835938 149.8125 172.179688 151.15625 172.179688 152.800781 C 172.179688 154.441406 170.835938 155.785156 169.191406 155.785156 Z M 169.191406 150.398438 C 167.875 150.398438 166.804688 151.46875 166.804688 152.785156 C 166.804688 154.101562 167.875 155.175781 169.191406 155.175781 C 170.511719 155.175781 171.582031 154.101562 171.582031 152.785156 C 171.582031 151.484375 170.511719 150.398438 169.191406 150.398438 Z M 169.191406 150.398438 " fill-opacity="1" fill-rule="nonzero"/><path fill="#ffffff" d="M 249.902344 238.164062 C 249.902344 239.660156 251.109375 240.851562 252.589844 240.851562 C 254.070312 240.851562 255.277344 239.644531 255.277344 238.164062 C 255.277344 236.671875 254.070312 235.476562 252.589844 235.476562 C 251.109375 235.476562 249.902344 236.671875 249.902344 238.164062 Z M 249.902344 238.164062 " fill-opacity="1" fill-rule="nonzero"/><path fill="#000000" d="M 252.601562 241.152344 C 250.945312 241.152344 249.617188 239.808594 249.617188 238.164062 C 249.617188 236.523438 250.960938 235.179688 252.601562 235.179688 C 254.257812 235.179688 255.589844 236.523438 255.589844 238.164062 C 255.589844 239.808594 254.246094 241.152344 252.601562 241.152344 Z M 252.601562 235.777344 C 251.285156 235.777344 250.214844 236.847656 250.214844 238.164062 C 250.214844 239.480469 251.285156 240.554688 252.601562 240.554688 C 253.917969 240.554688 254.992188 239.480469 254.992188 238.164062 C 254.992188 236.847656 253.917969 235.777344 252.601562 235.777344 Z M 252.601562 235.777344 " fill-opacity="1" fill-rule="nonzero"/><path fill="#ffffff" d="M 369.761719 173.9375 C 369.761719 175.429688 368.554688 176.625 367.074219 176.625 C 365.59375 176.625 364.386719 175.417969 364.386719 173.9375 C 364.386719 172.445312 365.59375 171.25 367.074219 171.25 C 368.554688 171.25 369.761719 172.457031 369.761719 173.9375 Z M 369.761719 173.9375 " fill-opacity="1" fill-rule="nonzero"/><path fill="#000000" d="M 367.074219 176.9375 C 365.417969 176.9375 364.085938 175.59375 364.085938 173.953125 C 364.085938 172.296875 365.429688 170.964844 367.074219 170.964844 C 368.730469 170.964844 370.0625 172.308594 370.0625 173.953125 C 370.0625 175.59375 368.71875 176.9375 367.074219 176.9375 Z M 367.074219 171.546875 C 365.757812 171.546875 364.683594 172.621094 364.683594 173.9375 C 364.683594 175.253906 365.757812 176.328125 367.074219 176.328125 C 368.390625 176.328125 369.464844 175.253906 369.464844 173.9375 C 369.464844 172.621094 368.390625 171.546875 367.074219 171.546875 Z M 367.074219 171.546875 " fill-opacity="1" fill-rule="nonzero"/><path fill="#ffffff" d="M 350.675781 223.433594 C 350.734375 223.785156 350.71875 224.136719 350.640625 224.484375 C 350.558594 224.828125 350.410156 225.148438 350.203125 225.4375 C 349.996094 225.726562 349.738281 225.964844 349.4375 226.152344 C 349.132812 226.339844 348.804688 226.460938 348.453125 226.519531 C 348.101562 226.574219 347.75 226.5625 347.40625 226.480469 C 347.058594 226.398438 346.738281 226.253906 346.449219 226.046875 C 346.160156 225.835938 345.921875 225.582031 345.734375 225.277344 C 345.546875 224.976562 345.425781 224.648438 345.371094 224.296875 C 345.3125 223.945312 345.324219 223.59375 345.40625 223.246094 C 345.488281 222.898438 345.632812 222.582031 345.84375 222.292969 C 346.050781 222.003906 346.304688 221.765625 346.609375 221.578125 C 346.914062 221.390625 347.242188 221.269531 347.59375 221.210938 C 347.945312 221.15625 348.292969 221.167969 348.640625 221.25 C 348.988281 221.332031 349.304688 221.476562 349.59375 221.683594 C 349.882812 221.894531 350.121094 222.148438 350.308594 222.453125 C 350.496094 222.753906 350.617188 223.082031 350.675781 223.433594 Z M 350.675781 223.433594 " fill-opacity="1" fill-rule="nonzero"/><path fill="#000000" d="M 348.015625 226.855469 C 346.359375 226.855469 345.027344 225.511719 345.027344 223.871094 C 345.027344 222.214844 346.371094 220.882812 348.015625 220.882812 C 349.671875 220.882812 351 222.226562 351 223.871094 C 351.015625 225.511719 349.671875 226.855469 348.015625 226.855469 Z M 348.015625 221.464844 C 346.695312 221.464844 345.625 222.539062 345.625 223.855469 C 345.625 225.171875 346.695312 226.246094 348.015625 226.246094 C 349.332031 226.246094 350.402344 225.171875 350.402344 223.855469 C 350.417969 222.554688 349.332031 221.464844 348.015625 221.464844 Z M 348.015625 221.464844 " fill-opacity="1" fill-rule="nonzero"/><path fill="#ffffff" d="M 138.394531 126.210938 C 138.75 126.253906 139.082031 126.363281 139.390625 126.539062 C 139.699219 126.714844 139.964844 126.945312 140.183594 127.226562 C 140.40625 127.507812 140.5625 127.816406 140.65625 128.160156 C 140.753906 128.503906 140.777344 128.855469 140.734375 129.207031 C 140.691406 129.5625 140.582031 129.894531 140.40625 130.203125 C 140.230469 130.515625 140 130.777344 139.71875 130.996094 C 139.441406 131.21875 139.128906 131.375 138.785156 131.46875 C 138.441406 131.566406 138.089844 131.589844 137.738281 131.546875 C 137.382812 131.503906 137.050781 131.394531 136.742188 131.21875 C 136.433594 131.042969 136.167969 130.8125 135.949219 130.535156 C 135.726562 130.253906 135.570312 129.941406 135.476562 129.597656 C 135.378906 129.253906 135.355469 128.90625 135.398438 128.550781 C 135.441406 128.195312 135.550781 127.863281 135.726562 127.554688 C 135.902344 127.246094 136.132812 126.980469 136.414062 126.761719 C 136.691406 126.542969 137.003906 126.382812 137.347656 126.289062 C 137.691406 126.195312 138.042969 126.167969 138.394531 126.210938 Z M 138.394531 126.210938 " fill-opacity="1" fill-rule="nonzero"/><path fill="#000000" d="M 138.0625 131.867188 C 136.40625 131.867188 135.078125 130.523438 135.078125 128.878906 C 135.078125 127.222656 136.421875 125.894531 138.0625 125.894531 C 139.71875 125.894531 141.050781 127.238281 141.050781 128.878906 C 141.050781 130.523438 139.707031 131.867188 138.0625 131.867188 Z M 138.0625 126.476562 C 136.746094 126.476562 135.675781 127.550781 135.675781 128.867188 C 135.675781 130.183594 136.746094 131.253906 138.0625 131.253906 C 139.378906 131.253906 140.453125 130.183594 140.453125 128.867188 C 140.453125 127.5625 139.378906 126.476562 138.0625 126.476562 Z M 138.0625 126.476562 " fill-opacity="1" fill-rule="nonzero"/></svg>