<svg xmlns="http://www.w3.org/2000/svg" xmlns:xlink="http://www.w3.org/1999/xlink" width="500" zoomAndPan="magnify" viewBox="0 0 375 374.999991" height="500" preserveAspectRatio="xMidYMid meet" version="1.0"><path fill="#ae9fcf" d="M 12.640625 296.742188 C 22.945312 321.941406 47.09375 333.839844 62.527344 341.441406 C 123.363281 371.40625 215.851562 367.757812 282.5 312.859375 C 298.097656 300.011719 374.976562 232.710938 357.226562 141.742188 C 341.539062 61.324219 262.105469 14.769531 195.164062 8.65625 C 139.703125 3.59375 67.242188 23.996094 41.574219 73.101562 C 25.429688 103.980469 44.757812 113.753906 31.496094 183.691406 C 20.019531 244.222656 0.0351562 265.914062 12.640625 296.742188 " fill-opacity="1" fill-rule="nonzero"/><path fill="#ffffff" d="M 360.882812 250.757812 L 272.320312 250.757812 L 272.320312 161.9375 L 360.882812 161.9375 L 360.882812 250.757812 " fill-opacity="1" fill-rule="nonzero"/><path fill="#ae9fcf" d="M 355.742188 245.6875 L 277.503906 245.6875 L 277.503906 167.308594 L 355.742188 167.308594 L 355.742188 245.6875 " fill-opacity="1" fill-rule="nonzero"/><path fill="#ffffff" d="M 329.097656 173.226562 L 304.148438 173.226562 L 304.148438 167.101562 L 329.097656 167.101562 L 329.097656 173.226562 " fill-opacity="1" fill-rule="nonzero"/><path fill="#523762" d="M 335.550781 251.394531 L 272.320312 251.394531 C 271.96875 251.394531 271.683594 251.109375 271.683594 250.757812 L 271.683594 161.9375 C 271.683594 161.585938 271.96875 161.300781 272.320312 161.300781 L 359.804688 161.300781 C 360.15625 161.300781 360.441406 161.585938 360.441406 161.9375 C 360.441406 162.289062 360.15625 162.574219 359.804688 162.574219 L 272.957031 162.574219 L 272.957031 250.121094 L 335.550781 250.121094 C 335.902344 250.121094 336.1875 250.40625 336.1875 250.757812 C 336.1875 251.109375 335.902344 251.394531 335.550781 251.394531 " fill-opacity="1" fill-rule="nonzero"/><path fill="#ffffff" d="M 272.320312 250.757812 L 183.761719 250.757812 L 183.761719 161.9375 L 272.320312 161.9375 L 272.320312 250.757812 " fill-opacity="1" fill-rule="nonzero"/><path fill="#523762" d="M 184.398438 250.121094 L 271.683594 250.121094 L 271.683594 162.574219 L 184.398438 162.574219 Z M 272.320312 251.394531 L 183.761719 251.394531 C 183.40625 251.394531 183.121094 251.109375 183.121094 250.757812 L 183.121094 161.9375 C 183.121094 161.585938 183.40625 161.300781 183.761719 161.300781 L 272.320312 161.300781 C 272.671875 161.300781 272.957031 161.585938 272.957031 161.9375 L 272.957031 250.757812 C 272.957031 251.109375 272.671875 251.394531 272.320312 251.394531 " fill-opacity="1" fill-rule="nonzero"/><path fill="#ae9fcf" d="M 267.183594 245.6875 L 188.941406 245.6875 L 188.941406 167.308594 L 267.183594 167.308594 L 267.183594 245.6875 " fill-opacity="1" fill-rule="nonzero"/><path fill="#ffffff" d="M 215.585938 167.046875 L 240.539062 167.046875 L 240.539062 173.171875 L 215.585938 173.171875 L 215.585938 167.046875 " fill-opacity="1" fill-rule="nonzero"/><path fill="#ffffff" d="M 272.085938 243.664062 C 271.734375 243.664062 271.445312 243.378906 271.445312 243.027344 L 271.445312 210.160156 C 271.445312 209.808594 271.734375 209.523438 272.085938 209.523438 C 272.4375 209.523438 272.722656 209.808594 272.722656 210.160156 L 272.722656 243.027344 C 272.722656 243.378906 272.4375 243.664062 272.085938 243.664062 " fill-opacity="1" fill-rule="nonzero"/><path fill="#ffffff" d="M 272.085938 181.25 C 271.734375 181.25 271.445312 180.964844 271.445312 180.613281 L 271.445312 165.839844 C 271.445312 165.488281 271.734375 165.203125 272.085938 165.203125 C 272.4375 165.203125 272.722656 165.488281 272.722656 165.839844 L 272.722656 180.613281 C 272.722656 180.964844 272.4375 181.25 272.085938 181.25 " fill-opacity="1" fill-rule="nonzero"/><path fill="#230b41" d="M 322.351562 251.546875 L 13.515625 251.199219 C 13.164062 251.195312 12.878906 250.910156 12.878906 250.558594 C 12.878906 250.207031 13.167969 249.921875 13.519531 249.921875 L 322.355469 250.273438 C 322.703125 250.273438 322.988281 250.558594 322.988281 250.910156 C 322.988281 251.261719 322.703125 251.546875 322.351562 251.546875 " fill-opacity="1" fill-rule="nonzero"/><path fill="#523762" d="M 155.3125 250.097656 L 57.738281 250.097656 L 57.738281 36.261719 L 155.3125 36.261719 L 155.3125 250.097656 " fill-opacity="1" fill-rule="nonzero"/><path fill="#523762" d="M 88.316406 191.96875 L 57.738281 191.96875 L 57.738281 68.855469 L 88.316406 81.71875 L 88.316406 191.96875 " fill-opacity="1" fill-rule="nonzero"/><path fill="#ae9fcf" d="M 100.679688 126.050781 L 67.5625 126.050781 L 67.5625 48.898438 L 100.679688 48.898438 L 100.679688 126.050781 " fill-opacity="1" fill-rule="nonzero"/><path fill="#230b41" d="M 70.347656 123.976562 C 69.996094 123.976562 69.710938 123.691406 69.710938 123.335938 L 69.710938 51.914062 C 69.710938 51.5625 69.996094 51.277344 70.347656 51.277344 L 97.335938 51.277344 C 97.6875 51.277344 97.972656 51.5625 97.972656 51.914062 C 97.972656 52.265625 97.6875 52.550781 97.335938 52.550781 L 70.988281 52.550781 L 70.988281 123.335938 C 70.988281 123.691406 70.699219 123.976562 70.347656 123.976562 " fill-opacity="1" fill-rule="nonzero"/><path fill="#ffffff" d="M 88.316406 126.050781 L 67.5625 126.050781 L 67.5625 72.988281 L 88.316406 81.71875 L 88.316406 126.050781 " fill-opacity="1" fill-rule="nonzero"/><path fill="#523762" d="M 70.347656 123.976562 C 69.996094 123.976562 69.710938 123.691406 69.710938 123.335938 L 69.710938 76.894531 C 69.710938 76.539062 69.996094 76.253906 70.347656 76.253906 C 70.699219 76.253906 70.988281 76.539062 70.988281 76.894531 L 70.988281 123.335938 C 70.988281 123.691406 70.699219 123.976562 70.347656 123.976562 " fill-opacity="1" fill-rule="nonzero"/><path fill="#ae9fcf" d="M 143.734375 126.050781 L 110.617188 126.050781 L 110.617188 48.898438 L 143.734375 48.898438 L 143.734375 126.050781 " fill-opacity="1" fill-rule="nonzero"/><path fill="#ffffff" d="M 131.308594 126.050781 L 110.554688 126.050781 L 110.554688 91.089844 L 131.308594 99.816406 L 131.308594 126.050781 " fill-opacity="1" fill-rule="nonzero"/><path fill="#230b41" d="M 113.402344 92.722656 C 113.050781 92.722656 112.765625 92.4375 112.765625 92.082031 L 112.765625 51.914062 C 112.765625 51.5625 113.050781 51.277344 113.402344 51.277344 L 141.429688 51.277344 C 141.777344 51.277344 142.066406 51.5625 142.066406 51.914062 C 142.066406 52.265625 141.777344 52.550781 141.429688 52.550781 L 114.039062 52.550781 L 114.039062 92.082031 C 114.039062 92.4375 113.753906 92.722656 113.402344 92.722656 " fill-opacity="1" fill-rule="nonzero"/><path fill="#523762" d="M 113.402344 124.046875 C 113.050781 124.046875 112.765625 123.761719 112.765625 123.410156 L 112.765625 92.082031 C 112.765625 91.734375 113.050781 91.445312 113.402344 91.445312 C 113.753906 91.445312 114.039062 91.734375 114.039062 92.082031 L 114.039062 123.410156 C 114.039062 123.761719 113.753906 124.046875 113.402344 124.046875 " fill-opacity="1" fill-rule="nonzero"/><path fill="#ae9fcf" d="M 100.679688 235.988281 L 67.5625 235.988281 L 67.5625 158.835938 L 100.679688 158.835938 L 100.679688 235.988281 " fill-opacity="1" fill-rule="nonzero"/><path fill="#ffffff" d="M 88.316406 179.390625 L 67.5625 170.515625 L 67.5625 158.835938 L 88.316406 158.835938 L 88.316406 179.390625 " fill-opacity="1" fill-rule="nonzero"/><path fill="#230b41" d="M 97.335938 162.488281 L 88.316406 162.488281 C 87.964844 162.488281 87.679688 162.203125 87.679688 161.851562 C 87.679688 161.5 87.964844 161.214844 88.316406 161.214844 L 97.335938 161.214844 C 97.6875 161.214844 97.972656 161.5 97.972656 161.851562 C 97.972656 162.203125 97.6875 162.488281 97.335938 162.488281 " fill-opacity="1" fill-rule="nonzero"/><path fill="#523762" d="M 70.347656 172.308594 C 69.996094 172.308594 69.710938 172.023438 69.710938 171.671875 L 69.710938 161.851562 C 69.710938 161.5 69.996094 161.214844 70.347656 161.214844 L 88.316406 161.214844 C 88.667969 161.214844 88.953125 161.5 88.953125 161.851562 C 88.953125 162.203125 88.667969 162.488281 88.316406 162.488281 L 70.988281 162.488281 L 70.988281 171.671875 C 70.988281 172.023438 70.699219 172.308594 70.347656 172.308594 " fill-opacity="1" fill-rule="nonzero"/><path fill="#230b41" d="M 70.347656 234.023438 C 69.996094 234.023438 69.710938 233.738281 69.710938 233.386719 L 69.710938 171.671875 C 69.710938 171.320312 69.996094 171.035156 70.347656 171.035156 C 70.699219 171.035156 70.988281 171.320312 70.988281 171.671875 L 70.988281 233.386719 C 70.988281 233.738281 70.699219 234.023438 70.347656 234.023438 " fill-opacity="1" fill-rule="nonzero"/><path fill="#ae9fcf" d="M 143.734375 235.988281 L 110.617188 235.988281 L 110.617188 158.835938 L 143.734375 158.835938 L 143.734375 235.988281 " fill-opacity="1" fill-rule="nonzero"/><path fill="#ffffff" d="M 129.375 196.347656 L 110.617188 188.554688 L 110.617188 158.835938 L 129.375 158.835938 L 129.375 196.347656 " fill-opacity="1" fill-rule="nonzero"/><path fill="#523762" d="M 113.402344 190.351562 C 113.050781 190.351562 112.765625 190.0625 112.765625 189.710938 L 112.765625 161.851562 C 112.765625 161.5 113.050781 161.214844 113.402344 161.214844 L 140.976562 161.214844 C 141.328125 161.214844 141.613281 161.5 141.613281 161.851562 C 141.613281 162.203125 141.328125 162.488281 140.976562 162.488281 L 114.039062 162.488281 L 114.039062 189.710938 C 114.039062 190.0625 113.753906 190.351562 113.402344 190.351562 " fill-opacity="1" fill-rule="nonzero"/><path fill="#230b41" d="M 113.402344 234.023438 C 113.050781 234.023438 112.765625 233.738281 112.765625 233.386719 L 112.765625 189.710938 C 112.765625 189.359375 113.050781 189.074219 113.402344 189.074219 C 113.753906 189.074219 114.039062 189.359375 114.039062 189.710938 L 114.039062 233.386719 C 114.039062 233.738281 113.753906 234.023438 113.402344 234.023438 " fill-opacity="1" fill-rule="nonzero"/><path fill="#ae9fcf" d="M 143.734375 149.179688 L 67.5625 149.179688 L 67.5625 135.597656 L 143.734375 135.597656 L 143.734375 149.179688 " fill-opacity="1" fill-rule="nonzero"/><path fill="#230b41" d="M 132.042969 139.25 L 112.683594 139.25 C 112.332031 139.25 112.042969 138.964844 112.042969 138.613281 C 112.042969 138.261719 112.332031 137.976562 112.683594 137.976562 L 132.042969 137.976562 C 132.394531 137.976562 132.679688 138.261719 132.679688 138.613281 C 132.679688 138.964844 132.394531 139.25 132.042969 139.25 " fill-opacity="1" fill-rule="nonzero"/><path fill="#ffffff" d="M 89.398438 149.179688 L 67.5625 149.179688 L 67.5625 135.597656 L 89.398438 135.597656 L 89.398438 149.179688 " fill-opacity="1" fill-rule="nonzero"/><path fill="#523762" d="M 109.363281 139.25 L 82.339844 139.25 C 81.988281 139.25 81.703125 138.964844 81.703125 138.613281 C 81.703125 138.261719 81.988281 137.976562 82.339844 137.976562 L 109.363281 137.976562 C 109.714844 137.976562 110 138.261719 110 138.613281 C 110 138.964844 109.714844 139.25 109.363281 139.25 " fill-opacity="1" fill-rule="nonzero"/><path fill="#ae9fcf" d="M 149.382812 151.328125 C 150.378906 151.328125 151.191406 150.519531 151.191406 149.523438 L 151.191406 135.257812 C 151.191406 134.257812 150.382812 133.449219 149.386719 133.449219 C 148.386719 133.449219 147.578125 134.257812 147.578125 135.257812 L 147.578125 149.523438 C 147.578125 150.519531 148.386719 151.328125 149.382812 151.328125 " fill-opacity="1" fill-rule="nonzero"/><path fill="#ae9fcf" d="M 151.054688 142.539062 L 151.054688 142.242188 C 151.054688 141.242188 150.25 140.433594 149.25 140.433594 L 136.335938 140.433594 C 135.339844 140.433594 134.53125 141.242188 134.53125 142.242188 L 134.53125 142.539062 C 134.53125 143.535156 135.339844 144.34375 136.335938 144.34375 L 149.25 144.34375 C 150.25 144.34375 151.054688 143.535156 151.054688 142.539062 " fill-opacity="1" fill-rule="nonzero"/><path fill="#230b41" d="M 136.335938 141.074219 C 135.691406 141.074219 135.167969 141.59375 135.167969 142.242188 L 135.167969 142.539062 C 135.167969 143.183594 135.691406 143.707031 136.335938 143.707031 L 149.25 143.707031 C 149.894531 143.707031 150.417969 143.183594 150.417969 142.539062 L 150.417969 142.242188 C 150.417969 141.59375 149.894531 141.074219 149.25 141.074219 Z M 149.25 144.980469 L 136.335938 144.980469 C 134.988281 144.980469 133.894531 143.882812 133.894531 142.539062 L 133.894531 142.242188 C 133.894531 140.894531 134.988281 139.796875 136.335938 139.796875 L 149.25 139.796875 C 150.597656 139.796875 151.695312 140.894531 151.695312 142.242188 L 151.695312 142.539062 C 151.695312 143.882812 150.597656 144.980469 149.25 144.980469 " fill-opacity="1" fill-rule="nonzero"/><path fill="#ffffff" d="M 245.398438 118.378906 C 245.398438 132.503906 234.015625 143.953125 219.972656 143.953125 C 205.925781 143.953125 194.542969 132.503906 194.542969 118.378906 C 194.542969 104.253906 205.925781 92.800781 219.972656 92.800781 C 234.015625 92.800781 245.398438 104.253906 245.398438 118.378906 " fill-opacity="1" fill-rule="nonzero"/><path fill="#ae9fcf" d="M 213.246094 94.859375 C 213.140625 95.015625 213.453125 95.535156 214.070312 95.535156 C 214.6875 95.535156 214.996094 95.429688 215.253906 96.105469 C 215.507812 96.777344 215.148438 99.054688 215.507812 99.882812 C 215.871094 100.710938 216.488281 101.230469 216.949219 100.765625 C 217.414062 100.296875 217.363281 99.054688 217.929688 98.746094 C 218.496094 98.433594 220.554688 97.191406 220.65625 96.15625 C 220.761719 95.121094 220.039062 94.34375 218.238281 94.136719 C 216.4375 93.929688 214.019531 93.722656 213.246094 94.859375 " fill-opacity="1" fill-rule="nonzero"/><path fill="#523762" d="M 206.59375 118.058594 C 206.351562 118.191406 206.207031 118.453125 206.21875 118.726562 C 206.257812 119.597656 205.929688 121.761719 205.242188 122.453125 C 204.367188 123.332031 204.691406 124.917969 204.675781 125.558594 C 204.648438 126.859375 204.773438 127.4375 206.164062 128.058594 C 207.554688 128.679688 208.097656 128.714844 208.203125 129.957031 C 208.300781 131.199219 208.464844 136 208.875 137.242188 C 209.285156 138.484375 210.160156 140.503906 210.625 140.96875 C 211.089844 141.433594 212.167969 141.695312 211.5 139.933594 C 210.832031 138.175781 210.421875 137.347656 211.191406 136.363281 C 211.964844 135.378906 213.25 133.101562 213.355469 132.21875 C 213.457031 131.339844 213.917969 130.824219 214.332031 130.71875 C 214.742188 130.617188 215.617188 130.304688 215.875 129.992188 C 216.132812 129.683594 215.617188 128.804688 215.460938 128.027344 C 215.308594 127.25 215.308594 126.785156 216.597656 126.164062 C 217.882812 125.542969 217.265625 123.78125 215.515625 123.316406 C 213.765625 122.847656 212.683594 121.867188 212.890625 120.882812 C 213.097656 119.898438 211.707031 120.003906 210.882812 119.535156 C 210.0625 119.070312 210.082031 118.339844 209.167969 117.988281 C 207.929688 117.519531 207.058594 117.796875 206.59375 118.058594 " fill-opacity="1" fill-rule="nonzero"/><path fill="#523762" d="M 238.484375 116.972656 C 238.050781 116.316406 238.105469 115.28125 239.1875 113.863281 C 240.039062 112.75 238.820312 111.636719 238.253906 111.210938 C 238.148438 111.132812 238.195312 110.96875 238.324219 110.953125 C 239.023438 110.875 240.644531 111.109375 241.355469 114.734375 C 242.277344 119.425781 242.660156 117.789062 243.144531 117.242188 C 243.632812 116.699219 242.722656 115.679688 243.632812 114.625 C 244.210938 113.960938 244.5 112.992188 244.648438 112.203125 C 242.816406 104.765625 237.746094 98.613281 231.03125 95.34375 C 231.039062 96.160156 230.84375 99.003906 227.53125 97.832031 C 227.53125 97.832031 225.472656 96.847656 225.957031 100.832031 C 226.449219 104.8125 228.128906 100.558594 228.453125 100.394531 C 228.777344 100.230469 229.648438 100.011719 229.265625 102.683594 C 229.265625 102.683594 229.210938 103.609375 227.53125 103.445312 C 225.851562 103.285156 225.527344 104.101562 225.527344 104.539062 C 225.527344 104.976562 225.6875 106.121094 224.769531 106.9375 C 223.84375 107.757812 224.117188 109.882812 225.363281 109.171875 C 226.609375 108.464844 227.476562 106.226562 228.613281 106.011719 C 229.753906 105.792969 230.785156 107.265625 231.871094 106.882812 C 232.953125 106.5 232.464844 104.648438 233.007812 104.648438 C 233.550781 104.648438 234.6875 105.738281 234.527344 106.554688 C 234.363281 107.375 232.683594 107.757812 233.113281 108.738281 C 233.550781 109.71875 234.472656 109.394531 234.742188 110.046875 C 235.011719 110.703125 233.386719 111.464844 232.085938 110.644531 C 230.785156 109.828125 230.566406 111.027344 229.917969 110.480469 C 229.265625 109.9375 229.210938 108.792969 228.289062 109.171875 C 227.371094 109.554688 226.828125 110.316406 225.632812 110.867188 C 224.441406 111.410156 223.464844 112.117188 223.464844 112.882812 C 223.464844 113.648438 223.898438 114.460938 223.683594 115.664062 C 223.464844 116.863281 223.085938 120.132812 226.988281 119.480469 C 230.894531 118.828125 230.40625 120.84375 230.40625 121.0625 C 230.40625 121.28125 230.351562 124.117188 230.730469 124.605469 C 231.109375 125.097656 231.976562 126.515625 230.730469 128.367188 C 229.484375 130.222656 229.972656 134.367188 231.109375 133.820312 C 232.25 133.277344 233.386719 131.148438 234.796875 130.058594 C 236.207031 128.96875 238.15625 124.222656 237.34375 122.753906 C 236.53125 121.28125 238.484375 120.082031 238.753906 119.097656 C 239.027344 118.117188 238.917969 117.628906 238.484375 116.972656 " fill-opacity="1" fill-rule="nonzero"/><path fill="#523762" d="M 201.613281 100.683594 C 201.632812 101.589844 201.472656 102.582031 200.945312 103.507812 C 199.347656 106.304688 199.398438 107.699219 199.246094 110.496094 C 199.089844 113.292969 202.605469 118.21875 203.476562 118.738281 C 204.351562 119.253906 204.488281 118.023438 204.488281 117.039062 C 204.488281 116.054688 204.113281 114.875 203.597656 113.738281 C 203.085938 112.597656 203.085938 111.875 203.238281 111.40625 C 203.394531 110.941406 204.011719 110.785156 204.421875 111.253906 C 204.835938 111.71875 205.824219 112.132812 206.300781 111.839844 C 206.882812 111.484375 206.65625 110.082031 206.863281 109.617188 C 207.070312 109.152344 208.203125 108.839844 208.664062 107.855469 C 209.125 106.875 209.902344 106.457031 210.824219 105.992188 C 211.753906 105.527344 212.574219 105.320312 212.730469 105.007812 C 212.886719 104.699219 212.679688 103.972656 212.9375 103.144531 C 213.195312 102.316406 213.8125 101.332031 213.554688 100.917969 C 213.296875 100.503906 212.523438 99.832031 211.082031 100.867188 C 209.640625 101.902344 209.28125 101.902344 208.871094 101.125 C 208.460938 100.351562 209.332031 98.332031 211.132812 98.332031 C 212.9375 98.332031 213.296875 97.710938 213.347656 97.242188 C 213.398438 96.777344 212.835938 96.261719 212.214844 96.15625 C 211.597656 96.050781 211.496094 96.414062 208.921875 97.449219 C 207.203125 98.140625 205.695312 97.980469 204.878906 97.792969 C 203.707031 98.664062 202.613281 99.628906 201.613281 100.683594 " fill-opacity="1" fill-rule="nonzero"/><path fill="#523762" d="M 240.914062 130.027344 C 240.871094 131.1875 239.804688 132.304688 239.164062 132.691406 C 238.523438 133.074219 237.539062 133.675781 237.539062 134.664062 C 237.539062 135.300781 237.523438 136.113281 237.671875 136.738281 C 241.058594 133.433594 241.726562 132.792969 243.671875 127.808594 C 243.570312 127.171875 240.953125 128.867188 240.914062 130.027344 " fill-opacity="1" fill-rule="nonzero"/><path fill="#230b41" d="M 219.972656 93.441406 C 206.300781 93.441406 195.179688 104.628906 195.179688 118.378906 C 195.179688 132.128906 206.300781 143.316406 219.972656 143.316406 C 233.640625 143.316406 244.761719 132.128906 244.761719 118.378906 C 244.761719 104.628906 233.640625 93.441406 219.972656 93.441406 Z M 219.972656 144.589844 C 205.597656 144.589844 193.90625 132.832031 193.90625 118.378906 C 193.90625 103.925781 205.597656 92.164062 219.972656 92.164062 C 234.34375 92.164062 246.035156 103.925781 246.035156 118.378906 C 246.035156 132.832031 234.34375 144.589844 219.972656 144.589844 " fill-opacity="1" fill-rule="nonzero"/><path fill="#230b41" d="M 251.046875 118.378906 C 251.046875 108.300781 246.324219 99.339844 238.964844 93.617188 C 238.164062 92.992188 237.007812 93.171875 236.433594 94.007812 C 235.902344 94.777344 236.066406 95.828125 236.804688 96.402344 C 243.34375 101.476562 247.554688 109.433594 247.554688 118.378906 C 247.554688 133.699219 235.203125 146.125 219.96875 146.125 C 214.765625 146.125 209.898438 144.671875 205.746094 142.15625 C 204.941406 141.667969 203.898438 141.894531 203.367188 142.671875 C 202.796875 143.507812 202.972656 144.652344 203.839844 145.175781 C 208.066406 147.742188 213.019531 149.324219 218.109375 149.609375 L 218.109375 158.03125 L 212.078125 158.03125 C 211.1875 158.03125 210.464844 158.785156 210.464844 159.675781 C 210.464844 160.566406 211.1875 161.320312 212.078125 161.320312 L 227.671875 161.320312 C 228.5625 161.320312 229.28125 160.566406 229.28125 159.675781 C 229.28125 158.785156 228.5625 158.03125 227.671875 158.03125 L 221.699219 158.03125 L 221.699219 149.609375 C 238.164062 148.679688 251.046875 135.054688 251.046875 118.378906 " fill-opacity="1" fill-rule="nonzero"/><path fill="#ffffff" d="M 133.09375 320.742188 C 133.09375 320.742188 131.203125 326.316406 131.238281 330.550781 C 131.253906 332.261719 132.640625 333.644531 134.351562 333.691406 C 140.3125 333.859375 155.183594 334.203125 162.632812 333.777344 C 163.703125 333.71875 164.324219 332.660156 163.777344 331.828125 C 161.714844 328.6875 156.117188 322.246094 143.671875 319.3125 L 133.09375 320.742188 " fill-opacity="1" fill-rule="nonzero"/><path fill="#000000" d="M 133.578125 321.320312 C 133.167969 322.625 131.847656 327.089844 131.875 330.546875 C 131.886719 331.914062 132.984375 333.015625 134.371094 333.054688 C 140.386719 333.222656 155.1875 333.566406 162.597656 333.140625 C 162.90625 333.125 163.164062 332.96875 163.28125 332.734375 C 163.347656 332.605469 163.394531 332.402344 163.246094 332.175781 C 161.046875 328.832031 155.574219 322.800781 143.636719 319.960938 Z M 152.703125 334.621094 C 145.816406 334.621094 138.234375 334.4375 134.332031 334.328125 C 132.257812 334.269531 130.621094 332.613281 130.601562 330.558594 C 130.566406 326.261719 132.410156 320.769531 132.492188 320.539062 C 132.566406 320.3125 132.769531 320.144531 133.007812 320.113281 L 143.585938 318.683594 C 143.664062 318.671875 143.742188 318.675781 143.816406 318.695312 C 156.261719 321.625 162 327.960938 164.308594 331.476562 C 164.675781 332.03125 164.71875 332.714844 164.421875 333.304688 C 164.097656 333.945312 163.429688 334.371094 162.671875 334.414062 C 160.03125 334.566406 156.46875 334.621094 152.703125 334.621094 " fill-opacity="1" fill-rule="nonzero"/><path fill="#000000" d="M 147.078125 327.238281 C 146.964844 327.238281 146.847656 327.207031 146.746094 327.136719 C 146.476562 326.953125 146.40625 326.585938 146.59375 326.3125 L 150.085938 321.203125 C 150.269531 320.933594 150.636719 320.867188 150.910156 321.050781 C 151.175781 321.234375 151.25 321.601562 151.0625 321.875 L 147.570312 326.980469 C 147.457031 327.148438 147.269531 327.238281 147.078125 327.238281 " fill-opacity="1" fill-rule="nonzero"/><path fill="#000000" d="M 159.132812 331.300781 L 133.699219 331.300781 C 133.371094 331.300781 133.105469 331.035156 133.105469 330.710938 C 133.105469 330.382812 133.371094 330.117188 133.699219 330.117188 L 159.132812 330.117188 C 159.460938 330.117188 159.726562 330.382812 159.726562 330.710938 C 159.726562 331.035156 159.460938 331.300781 159.132812 331.300781 " fill-opacity="1" fill-rule="nonzero"/><path fill="#000000" d="M 151.503906 328.230469 C 151.394531 328.230469 151.285156 328.199219 151.1875 328.140625 C 150.910156 327.964844 150.828125 327.601562 151 327.324219 L 153.71875 322.992188 C 153.890625 322.714844 154.257812 322.632812 154.535156 322.808594 C 154.8125 322.980469 154.894531 323.347656 154.722656 323.625 L 152.003906 327.953125 C 151.890625 328.132812 151.699219 328.230469 151.503906 328.230469 " fill-opacity="1" fill-rule="nonzero"/><path fill="#000000" d="M 144.722656 311.914062 C 144.722656 311.914062 157.097656 287.765625 146.417969 255.570312 C 135.734375 223.375 83.734375 235.285156 83.734375 235.285156 L 144.722656 311.914062 " fill-opacity="1" fill-rule="nonzero"/><path fill="#000000" d="M 47.964844 223.421875 C 47.964844 223.421875 30.195312 264.601562 59.695312 267.757812 C 89.195312 270.914062 102.699219 268.082031 102.699219 268.082031 L 127.617188 322.628906 C 127.617188 322.628906 138.636719 323.632812 147.894531 317.726562 C 147.894531 317.726562 141.550781 274.773438 132.308594 252.882812 C 123.0625 230.992188 74.875 231.609375 74.875 231.609375 L 47.964844 223.421875 " fill-opacity="1" fill-rule="nonzero"/><path fill="#ae9fcf" d="M 146.070312 308.632812 C 145.765625 308.632812 145.496094 308.414062 145.445312 308.101562 C 143.449219 296.023438 135.59375 263.859375 131.707031 253.101562 C 129.160156 246.050781 121.785156 240.757812 109.15625 236.914062 C 108.820312 236.8125 108.632812 236.457031 108.734375 236.121094 C 108.835938 235.78125 109.191406 235.59375 109.527344 235.695312 C 122.566406 239.664062 130.214844 245.214844 132.90625 252.667969 C 136.894531 263.703125 144.652344 295.484375 146.699219 307.890625 C 146.757812 308.238281 146.523438 308.566406 146.175781 308.625 C 146.140625 308.628906 146.105469 308.632812 146.070312 308.632812 " fill-opacity="1" fill-rule="nonzero"/><path fill="#230b41" d="M 81.875 170.421875 C 81.875 170.421875 90.449219 168.558594 93.578125 175.074219 C 96.710938 181.589844 111.808594 203.101562 115.757812 201.074219 C 119.707031 199.050781 123.503906 190.097656 126.542969 195.105469 C 129.578125 200.113281 116.214844 228.945312 92.820312 220.75 C 69.429688 212.554688 81.875 170.421875 81.875 170.421875 " fill-opacity="1" fill-rule="nonzero"/><path fill="#230b41" d="M 38.398438 234.78125 C 38.398438 234.78125 40.828125 240.453125 54.851562 239.535156 C 68.871094 238.617188 100.832031 232.136719 100.832031 232.136719 C 100.832031 232.136719 91.855469 206.84375 94.484375 187.78125 L 85.757812 170.101562 L 57.996094 172.417969 C 52.855469 173.105469 42.445312 178.769531 39.734375 191.984375 C 36.53125 207.617188 40.0625 206.710938 38.398438 234.78125 " fill-opacity="1" fill-rule="nonzero"/><path fill="#000000" d="M 74.714844 220.261719 C 70.972656 220.261719 67.691406 219.265625 64.90625 217.269531 C 55.046875 210.207031 54.933594 193.359375 54.933594 192.644531 C 54.933594 192.292969 55.21875 192.007812 55.570312 192.007812 C 55.921875 192.007812 56.207031 192.292969 56.207031 192.644531 C 56.207031 192.8125 56.324219 209.558594 65.652344 216.238281 C 70.179688 219.476562 76.195312 219.855469 83.527344 217.359375 C 83.863281 217.246094 84.222656 217.425781 84.335938 217.757812 C 84.449219 218.089844 84.273438 218.453125 83.941406 218.566406 C 80.613281 219.699219 77.535156 220.261719 74.714844 220.261719 " fill-opacity="1" fill-rule="nonzero"/><path fill="#000000" d="M 64.226562 236.691406 C 63.625 236.691406 63.011719 236.671875 62.390625 236.636719 C 44.960938 235.589844 42.058594 219.296875 42.03125 219.128906 C 41.972656 218.785156 42.207031 218.457031 42.554688 218.398438 C 42.902344 218.339844 43.230469 218.574219 43.289062 218.921875 C 43.394531 219.550781 46.066406 234.378906 62.46875 235.363281 C 79.054688 236.355469 90.179688 222.941406 90.289062 222.804688 C 90.507812 222.53125 90.910156 222.488281 91.183594 222.714844 C 91.457031 222.933594 91.5 223.335938 91.277344 223.609375 C 91.167969 223.746094 80.457031 236.691406 64.226562 236.691406 " fill-opacity="1" fill-rule="nonzero"/><path fill="#ffffff" d="M 114.398438 209.542969 L 82.046875 209.542969 C 80.976562 209.542969 80.320312 208.371094 80.875 207.460938 L 100.925781 174.707031 C 101.351562 174.007812 102.113281 173.582031 102.933594 173.582031 L 135.015625 173.582031 C 136.203125 173.582031 136.933594 174.882812 136.3125 175.894531 L 116.40625 208.417969 C 115.976562 209.117188 115.21875 209.542969 114.398438 209.542969 " fill-opacity="1" fill-rule="nonzero"/><path fill="#000000" d="M 102.933594 174.21875 C 102.339844 174.21875 101.777344 174.535156 101.46875 175.039062 L 81.421875 207.792969 C 81.21875 208.121094 81.34375 208.417969 81.40625 208.53125 C 81.46875 208.644531 81.65625 208.90625 82.046875 208.90625 L 114.398438 208.90625 C 114.992188 208.90625 115.554688 208.589844 115.863281 208.085938 L 135.769531 175.558594 C 135.9375 175.285156 135.945312 174.953125 135.785156 174.671875 C 135.628906 174.386719 135.339844 174.21875 135.015625 174.21875 Z M 114.398438 210.179688 L 82.046875 210.179688 C 81.308594 210.179688 80.652344 209.796875 80.292969 209.152344 C 79.933594 208.511719 79.949219 207.753906 80.332031 207.125 L 100.382812 174.375 C 100.921875 173.492188 101.898438 172.945312 102.933594 172.945312 L 135.015625 172.945312 C 135.808594 172.945312 136.511719 173.355469 136.898438 174.046875 C 137.285156 174.738281 137.269531 175.550781 136.859375 176.226562 L 116.949219 208.75 C 116.410156 209.632812 115.433594 210.179688 114.398438 210.179688 " fill-opacity="1" fill-rule="nonzero"/><path fill="#523762" d="M 122.011719 188.660156 L 99.28125 188.660156 L 100.609375 186.484375 L 123.335938 186.484375 L 122.011719 188.660156 " fill-opacity="1" fill-rule="nonzero"/><path fill="#523762" d="M 124.605469 184.40625 L 101.875 184.40625 L 105.929688 177.769531 L 128.660156 177.769531 L 124.605469 184.40625 " fill-opacity="1" fill-rule="nonzero"/><path fill="#ffffff" d="M 90.78125 209.949219 L 93.425781 209.542969 C 93.425781 209.542969 102.308594 202.523438 104.003906 201.1875 C 105.699219 199.855469 102.242188 210.601562 98.628906 212.855469 C 95.011719 215.105469 91.839844 217.964844 91.839844 217.964844 L 86.550781 217.964844 L 90.78125 209.949219 " fill-opacity="1" fill-rule="nonzero"/><path fill="#000000" d="M 87.609375 217.328125 L 91.597656 217.328125 C 92.332031 216.679688 95.121094 214.285156 98.292969 212.3125 C 100.8125 210.742188 103.234375 204.5625 103.726562 202.222656 C 101.050781 204.328125 93.820312 210.042969 93.820312 210.042969 C 93.734375 210.109375 93.632812 210.15625 93.523438 210.171875 L 91.195312 210.53125 Z M 91.839844 218.601562 L 86.550781 218.601562 C 86.328125 218.601562 86.121094 218.484375 86.007812 218.292969 C 85.890625 218.101562 85.882812 217.863281 85.988281 217.664062 L 90.21875 209.648438 C 90.3125 209.472656 90.488281 209.347656 90.6875 209.320312 L 93.164062 208.9375 C 94.273438 208.0625 102.035156 201.929688 103.609375 200.6875 C 104.039062 200.347656 104.394531 200.429688 104.566406 200.503906 C 104.777344 200.597656 105.042969 200.824219 105.078125 201.371094 C 105.21875 203.339844 102.164062 211.402344 98.964844 213.394531 C 95.4375 215.59375 92.296875 218.40625 92.265625 218.4375 C 92.148438 218.542969 92 218.601562 91.839844 218.601562 " fill-opacity="1" fill-rule="nonzero"/><path fill="#ffffff" d="M 120.617188 201.539062 C 120.617188 201.539062 128.097656 198.898438 128.660156 194.519531 C 129.21875 190.136719 128.476562 183.761719 126.96875 186.832031 C 125.460938 189.90625 118.625 201.160156 120.617188 201.539062 " fill-opacity="1" fill-rule="nonzero"/><path fill="#000000" d="M 127.683594 186.855469 C 127.640625 186.921875 127.59375 187.007812 127.542969 187.113281 C 127.195312 187.816406 126.582031 188.933594 125.867188 190.226562 C 124.375 192.9375 121.007812 199.046875 120.882812 200.753906 C 122.484375 200.101562 127.601562 197.773438 128.027344 194.4375 C 128.425781 191.308594 128.113281 187.875 127.683594 186.855469 Z M 120.617188 202.175781 C 120.578125 202.175781 120.539062 202.171875 120.5 202.164062 C 120.164062 202.101562 119.894531 201.894531 119.75 201.582031 C 119.125 200.253906 120.867188 196.664062 124.753906 189.609375 C 125.457031 188.332031 126.066406 187.230469 126.398438 186.550781 C 126.851562 185.628906 127.386719 185.25 127.988281 185.429688 C 129.6875 185.9375 129.609375 192.109375 129.292969 194.597656 C 128.6875 199.3125 121.148438 202.023438 120.828125 202.136719 C 120.761719 202.164062 120.6875 202.175781 120.617188 202.175781 " fill-opacity="1" fill-rule="nonzero"/><path fill="#000000" d="M 68.550781 168.527344 C 66.34375 167.238281 62.480469 162.828125 62.664062 156.761719 C 62.847656 150.695312 65.972656 144.078125 68.550781 142.242188 C 71.125 140.402344 85.292969 134.886719 91.917969 145 C 98.539062 155.109375 86.582031 162.277344 86.582031 162.277344 L 68.550781 168.527344 " fill-opacity="1" fill-rule="nonzero"/><path fill="#000000" d="M 55.757812 144.929688 C 55.125 140.917969 57.863281 137.148438 61.878906 136.515625 C 65.890625 135.882812 69.660156 138.617188 70.296875 142.628906 C 70.933594 146.640625 68.195312 150.40625 64.179688 151.039062 C 60.164062 151.675781 56.394531 148.9375 55.757812 144.929688 " fill-opacity="1" fill-rule="nonzero"/><path fill="#000000" d="M 80.464844 140.964844 C 79.90625 137.425781 82.320312 134.101562 85.863281 133.539062 C 89.40625 132.980469 92.734375 135.398438 93.292969 138.9375 C 93.855469 142.476562 91.4375 145.796875 87.894531 146.359375 C 84.351562 146.917969 81.027344 144.503906 80.464844 140.964844 " fill-opacity="1" fill-rule="nonzero"/><path fill="#ffffff" d="M 70.039062 161.648438 L 67.417969 169.578125 C 66.128906 173.476562 67.242188 177.816406 70.359375 180.496094 C 70.890625 180.953125 71.464844 181.390625 72.085938 181.785156 C 73.679688 182.796875 75.800781 181.886719 76.230469 180.046875 L 78.621094 169.761719 L 70.039062 161.648438 " fill-opacity="1" fill-rule="nonzero"/><path fill="#000000" d="M 70.328125 162.800781 L 68.023438 169.777344 C 66.792969 173.5 67.871094 177.519531 70.773438 180.015625 C 71.308594 180.472656 71.867188 180.890625 72.425781 181.246094 C 72.996094 181.609375 73.6875 181.667969 74.320312 181.410156 C 74.96875 181.140625 75.453125 180.578125 75.609375 179.902344 L 77.917969 169.976562 Z M 73.519531 182.84375 C 72.898438 182.84375 72.289062 182.667969 71.742188 182.324219 C 71.132812 181.933594 70.523438 181.480469 69.941406 180.980469 C 66.648438 178.144531 65.421875 173.589844 66.8125 169.375 L 69.433594 161.449219 C 69.503906 161.242188 69.671875 161.082031 69.882812 161.03125 C 70.097656 160.980469 70.320312 161.035156 70.476562 161.1875 L 79.058594 169.300781 C 79.222656 169.457031 79.292969 169.6875 79.242188 169.90625 L 76.851562 180.191406 C 76.597656 181.269531 75.835938 182.167969 74.804688 182.589844 C 74.386719 182.757812 73.949219 182.84375 73.519531 182.84375 " fill-opacity="1" fill-rule="nonzero"/><path fill="#ffffff" d="M 90.207031 151.113281 C 91.390625 151.210938 89.410156 170.230469 83.769531 171.910156 C 78.132812 173.589844 69.734375 169.910156 68.949219 163.574219 C 68.949219 163.574219 65.089844 163.253906 65.9375 158.128906 C 66.644531 153.832031 70.398438 156.796875 71.53125 157.804688 C 71.75 158 72.03125 158.121094 72.328125 158.144531 C 76.191406 158 72.5625 151.578125 82.820312 148.90625 C 82.820312 148.90625 85.773438 150.746094 90.207031 151.113281 " fill-opacity="1" fill-rule="nonzero"/><path fill="#000000" d="M 90.152344 151.746094 L 90.15625 151.746094 Z M 67.859375 156.503906 C 67.726562 156.503906 67.601562 156.519531 67.488281 156.5625 C 67.03125 156.722656 66.71875 157.285156 66.5625 158.234375 C 66.300781 159.824219 66.496094 161.050781 67.140625 161.878906 C 67.875 162.824219 68.988281 162.9375 69 162.941406 C 69.300781 162.964844 69.542969 163.199219 69.578125 163.496094 C 69.871094 165.835938 71.34375 167.980469 73.730469 169.539062 C 76.730469 171.5 80.601562 172.191406 83.589844 171.300781 C 84.75 170.953125 85.894531 169.59375 86.898438 167.363281 C 89.320312 161.988281 90.171875 153.375 89.835938 151.71875 C 86.148438 151.351562 83.519531 150.03125 82.726562 149.589844 C 77.023438 151.148438 76.027344 153.902344 75.296875 155.917969 C 74.804688 157.289062 74.292969 158.707031 72.351562 158.78125 C 72.328125 158.78125 72.300781 158.78125 72.277344 158.78125 C 71.84375 158.746094 71.425781 158.566406 71.105469 158.28125 C 70.089844 157.375 68.773438 156.503906 67.859375 156.503906 Z M 80.828125 172.953125 C 78.195312 172.953125 75.367188 172.132812 73.03125 170.605469 C 70.480469 168.941406 68.847656 166.648438 68.386719 164.113281 C 67.808594 163.964844 66.859375 163.589844 66.136719 162.660156 C 65.261719 161.542969 64.984375 159.984375 65.304688 158.027344 C 65.542969 156.585938 66.136719 155.6875 67.0625 155.359375 C 68.730469 154.769531 70.84375 156.339844 71.953125 157.328125 C 72.0625 157.421875 72.199219 157.488281 72.347656 157.507812 C 73.347656 157.453125 73.597656 156.875 74.101562 155.484375 C 74.890625 153.300781 76.082031 150.003906 82.660156 148.289062 C 82.828125 148.246094 83.007812 148.273438 83.15625 148.367188 C 83.183594 148.382812 86.046875 150.128906 90.257812 150.480469 C 90.992188 150.539062 91.089844 151.472656 91.128906 151.828125 C 91.5 155.429688 89.492188 170.871094 83.953125 172.523438 C 82.976562 172.8125 81.917969 172.953125 80.828125 172.953125 " fill-opacity="1" fill-rule="nonzero"/><path fill="#230b41" d="M 56.144531 273.320312 L 47.082031 327.589844 L 42.109375 327.589844 L 51.523438 273.132812 L 56.144531 273.320312 " fill-opacity="1" fill-rule="nonzero"/><path fill="#000000" d="M 42.863281 326.953125 L 46.542969 326.953125 L 55.398438 273.929688 L 52.058594 273.792969 Z M 47.082031 328.226562 L 42.109375 328.226562 C 41.921875 328.226562 41.742188 328.144531 41.621094 328 C 41.5 327.855469 41.449219 327.664062 41.480469 327.480469 L 50.894531 273.023438 C 50.949219 272.707031 51.226562 272.480469 51.550781 272.492188 L 56.171875 272.683594 C 56.351562 272.691406 56.523438 272.777344 56.640625 272.917969 C 56.753906 273.058594 56.804688 273.246094 56.773438 273.425781 L 47.710938 327.695312 C 47.660156 328 47.394531 328.226562 47.082031 328.226562 " fill-opacity="1" fill-rule="nonzero"/><path fill="#230b41" d="M 91.84375 273.320312 L 100.902344 327.589844 L 105.878906 327.589844 L 96.460938 273.132812 L 91.84375 273.320312 " fill-opacity="1" fill-rule="nonzero"/><path fill="#000000" d="M 101.445312 326.953125 L 105.121094 326.953125 L 95.929688 273.792969 L 92.589844 273.929688 Z M 105.878906 328.226562 L 100.902344 328.226562 C 100.59375 328.226562 100.328125 328 100.277344 327.695312 L 91.214844 273.425781 C 91.183594 273.246094 91.234375 273.058594 91.347656 272.917969 C 91.464844 272.777344 91.632812 272.691406 91.816406 272.683594 L 96.4375 272.492188 C 96.75 272.480469 97.035156 272.707031 97.089844 273.023438 L 106.507812 327.480469 C 106.539062 327.664062 106.488281 327.855469 106.367188 328 C 106.246094 328.144531 106.066406 328.226562 105.878906 328.226562 " fill-opacity="1" fill-rule="nonzero"/><path fill="#230b41" d="M 100.3125 273.664062 L 46.800781 273.664062 C 45.09375 273.664062 43.707031 272.277344 43.707031 270.570312 L 43.707031 269.308594 C 43.707031 267.601562 45.09375 266.21875 46.800781 266.21875 L 100.3125 266.21875 C 102.019531 266.21875 103.40625 267.601562 103.40625 269.308594 L 103.40625 270.570312 C 103.40625 272.277344 102.019531 273.664062 100.3125 273.664062 " fill-opacity="1" fill-rule="nonzero"/><path fill="#000000" d="M 46.800781 266.855469 C 45.445312 266.855469 44.34375 267.957031 44.34375 269.308594 L 44.34375 270.570312 C 44.34375 271.925781 45.445312 273.023438 46.800781 273.023438 L 100.3125 273.023438 C 101.664062 273.023438 102.769531 271.925781 102.769531 270.570312 L 102.769531 269.308594 C 102.769531 267.957031 101.664062 266.855469 100.3125 266.855469 Z M 100.3125 274.300781 L 46.800781 274.300781 C 44.742188 274.300781 43.070312 272.625 43.070312 270.570312 L 43.070312 269.308594 C 43.070312 267.253906 44.742188 265.582031 46.800781 265.582031 L 100.3125 265.582031 C 102.371094 265.582031 104.042969 267.253906 104.042969 269.308594 L 104.042969 270.570312 C 104.042969 272.625 102.371094 274.300781 100.3125 274.300781 " fill-opacity="1" fill-rule="nonzero"/><path fill="#ffffff" d="M 340.515625 97.453125 L 310.304688 97.453125 L 310.304688 79.410156 L 340.515625 79.410156 Z M 305.972656 75.707031 L 305.972656 101.441406 L 344.722656 101.441406 L 344.722656 75.707031 L 305.972656 75.707031 " fill-opacity="1" fill-rule="nonzero"/><path fill="#ae9fcf" d="M 340.570312 92.964844 C 340.21875 92.964844 339.933594 92.679688 339.933594 92.328125 L 339.933594 80.46875 L 329.371094 80.46875 C 329.019531 80.46875 328.734375 80.183594 328.734375 79.832031 C 328.734375 79.480469 329.019531 79.195312 329.371094 79.195312 L 340.570312 79.191406 C 340.742188 79.191406 340.902344 79.261719 341.023438 79.378906 C 341.140625 79.5 341.207031 79.664062 341.207031 79.832031 L 341.207031 92.328125 C 341.207031 92.679688 340.921875 92.964844 340.570312 92.964844 Z M 344.386719 100.378906 C 344.382812 100.378906 344.378906 100.378906 344.375 100.378906 C 344.023438 100.375 343.742188 100.085938 343.75 99.734375 L 344.074219 76.34375 L 325.347656 76.34375 C 324.996094 76.34375 324.710938 76.058594 324.710938 75.707031 C 324.710938 75.351562 324.996094 75.070312 325.347656 75.070312 L 344.722656 75.070312 C 344.890625 75.070312 345.054688 75.136719 345.175781 75.257812 C 345.292969 75.378906 345.359375 75.542969 345.359375 75.710938 L 345.023438 99.75 C 345.019531 100.097656 344.734375 100.378906 344.386719 100.378906 " fill-opacity="1" fill-rule="nonzero"/><path fill="#ffffff" d="M 291.410156 69.253906 L 237.886719 69.253906 L 237.886719 38 L 291.410156 38 Z M 232.890625 34.3125 L 232.890625 73.382812 L 296.195312 73.382812 L 296.195312 34.3125 L 232.890625 34.3125 " fill-opacity="1" fill-rule="nonzero"/><path fill="#ae9fcf" d="M 291.410156 43.078125 C 291.058594 43.078125 290.773438 42.792969 290.773438 42.441406 L 290.773438 39.234375 L 281.429688 39.257812 C 281.078125 39.257812 280.792969 38.976562 280.792969 38.621094 C 280.792969 38.269531 281.074219 37.984375 281.425781 37.984375 L 291.410156 37.957031 C 291.578125 37.957031 291.742188 38.023438 291.859375 38.144531 C 291.980469 38.261719 292.046875 38.425781 292.046875 38.59375 L 292.046875 42.441406 C 292.046875 42.792969 291.761719 43.078125 291.410156 43.078125 Z M 296.140625 47.84375 C 295.789062 47.84375 295.503906 47.558594 295.503906 47.207031 L 295.503906 34.953125 L 275.667969 34.949219 C 275.316406 34.949219 275.03125 34.664062 275.03125 34.3125 C 275.03125 33.960938 275.316406 33.675781 275.667969 33.675781 L 296.140625 33.675781 C 296.492188 33.675781 296.777344 33.960938 296.777344 34.316406 L 296.777344 47.207031 C 296.777344 47.558594 296.492188 47.84375 296.140625 47.84375 " fill-opacity="1" fill-rule="nonzero"/><path fill="#000000" d="M 174.601562 89.878906 C 173.667969 89.878906 172.75 90.335938 172.199219 91.175781 C 171.78125 91.8125 171.636719 92.582031 171.792969 93.328125 C 171.949219 94.078125 172.390625 94.722656 173.03125 95.140625 C 174.359375 96.007812 176.140625 95.636719 177.007812 94.3125 C 177.425781 93.675781 177.570312 92.910156 177.414062 92.160156 C 177.253906 91.410156 176.816406 90.765625 176.171875 90.347656 C 175.6875 90.03125 175.144531 89.878906 174.601562 89.878906 Z M 174.601562 96.882812 C 173.820312 96.882812 173.035156 96.664062 172.335938 96.207031 C 171.410156 95.601562 170.773438 94.671875 170.542969 93.589844 C 170.316406 92.507812 170.523438 91.402344 171.132812 90.476562 C 172.382812 88.566406 174.957031 88.03125 176.871094 89.28125 C 177.796875 89.886719 178.433594 90.816406 178.660156 91.898438 C 178.886719 92.980469 178.679688 94.085938 178.074219 95.011719 C 177.277344 96.222656 175.953125 96.882812 174.601562 96.882812 " fill-opacity="1" fill-rule="nonzero"/><path fill="#000000" d="M 192.105469 78.21875 C 191.851562 78.21875 191.609375 78.0625 191.507812 77.808594 C 191.382812 77.480469 191.546875 77.113281 191.875 76.984375 L 193.898438 76.203125 C 194.230469 76.078125 194.597656 76.242188 194.722656 76.566406 C 194.851562 76.898438 194.6875 77.265625 194.359375 77.390625 L 192.335938 78.175781 C 192.257812 78.203125 192.179688 78.21875 192.105469 78.21875 " fill-opacity="1" fill-rule="nonzero"/><path fill="#000000" d="M 200.609375 74.933594 C 200.351562 74.933594 200.113281 74.78125 200.015625 74.527344 C 199.886719 74.199219 200.050781 73.828125 200.378906 73.703125 L 202.402344 72.921875 C 202.734375 72.792969 203.101562 72.957031 203.230469 73.285156 C 203.355469 73.613281 203.191406 73.984375 202.863281 74.109375 L 200.839844 74.890625 C 200.765625 74.921875 200.683594 74.933594 200.609375 74.933594 " fill-opacity="1" fill-rule="nonzero"/><path fill="#000000" d="M 199.410156 81.441406 C 199.15625 81.441406 198.914062 81.289062 198.816406 81.035156 L 198.03125 79.015625 C 197.902344 78.6875 198.066406 78.316406 198.394531 78.191406 C 198.722656 78.0625 199.09375 78.226562 199.21875 78.554688 L 200.003906 80.574219 C 200.132812 80.90625 199.96875 81.273438 199.640625 81.402344 C 199.566406 81.429688 199.488281 81.441406 199.410156 81.441406 " fill-opacity="1" fill-rule="nonzero"/><path fill="#000000" d="M 196.113281 72.949219 C 195.855469 72.949219 195.617188 72.792969 195.519531 72.539062 L 194.734375 70.519531 C 194.605469 70.191406 194.769531 69.820312 195.097656 69.695312 C 195.425781 69.566406 195.792969 69.730469 195.921875 70.058594 L 196.707031 72.078125 C 196.835938 72.410156 196.671875 72.777344 196.34375 72.90625 C 196.269531 72.933594 196.191406 72.949219 196.113281 72.949219 " fill-opacity="1" fill-rule="nonzero"/><path fill="#000000" d="M 137.230469 29.078125 C 136.960938 29.078125 136.714844 28.914062 136.625 28.648438 C 136.511719 28.3125 136.691406 27.953125 137.019531 27.839844 C 140.640625 26.601562 144.355469 25.503906 148.0625 24.578125 C 148.40625 24.492188 148.753906 24.699219 148.835938 25.039062 C 148.921875 25.382812 148.714844 25.730469 148.375 25.8125 C 144.699219 26.734375 141.015625 27.820312 137.433594 29.042969 C 137.363281 29.066406 137.296875 29.078125 137.230469 29.078125 " fill-opacity="1" fill-rule="nonzero"/><path fill="#000000" d="M 223.382812 28.835938 C 223.316406 28.835938 223.25 28.828125 223.179688 28.804688 C 215.144531 26.152344 206.777344 24.230469 198.316406 23.097656 C 184.78125 21.285156 171.152344 21.484375 157.808594 23.691406 C 157.457031 23.746094 157.132812 23.511719 157.074219 23.164062 C 157.015625 22.820312 157.25 22.492188 157.601562 22.433594 C 171.070312 20.207031 184.824219 20.003906 198.488281 21.835938 C 207.023438 22.976562 215.46875 24.917969 223.582031 27.59375 C 223.914062 27.707031 224.097656 28.066406 223.988281 28.398438 C 223.898438 28.667969 223.648438 28.835938 223.382812 28.835938 " fill-opacity="1" fill-rule="nonzero"/><path fill="#000000" d="M 139.984375 20.574219 C 139.714844 20.574219 139.464844 20.40625 139.378906 20.136719 C 139.265625 19.800781 139.449219 19.441406 139.785156 19.332031 C 155.753906 14.121094 173.667969 12.300781 193.019531 13.921875 C 200.136719 14.515625 207.242188 15.636719 214.144531 17.253906 C 214.488281 17.335938 214.703125 17.679688 214.621094 18.023438 C 214.539062 18.363281 214.195312 18.578125 213.855469 18.496094 C 207.011719 16.894531 199.964844 15.78125 192.914062 15.191406 C 173.730469 13.582031 155.984375 15.386719 140.179688 20.546875 C 140.113281 20.566406 140.046875 20.574219 139.984375 20.574219 " fill-opacity="1" fill-rule="nonzero"/><path fill="#000000" d="M 319.199219 53 C 318.882812 53 318.609375 52.761719 318.570312 52.4375 C 318.527344 52.085938 318.777344 51.769531 319.125 51.726562 L 322.398438 51.335938 C 322.75 51.296875 323.066406 51.546875 323.109375 51.894531 C 323.148438 52.246094 322.898438 52.5625 322.550781 52.605469 L 319.277344 52.996094 C 319.25 52.996094 319.226562 53 319.199219 53 " fill-opacity="1" fill-rule="nonzero"/><path fill="#000000" d="M 311.578125 53.90625 C 311.257812 53.90625 310.984375 53.667969 310.945312 53.34375 C 310.902344 52.996094 311.152344 52.679688 311.503906 52.636719 L 314.777344 52.246094 C 315.125 52.207031 315.441406 52.457031 315.484375 52.804688 C 315.527344 53.15625 315.277344 53.46875 314.925781 53.511719 L 311.652344 53.902344 C 311.628906 53.90625 311.605469 53.90625 311.578125 53.90625 " fill-opacity="1" fill-rule="nonzero"/><path fill="#000000" d="M 316.765625 51.082031 C 316.449219 51.082031 316.171875 50.847656 316.132812 50.523438 L 315.742188 47.253906 C 315.703125 46.902344 315.953125 46.585938 316.300781 46.546875 C 316.652344 46.503906 316.96875 46.753906 317.007812 47.101562 L 317.398438 50.371094 C 317.441406 50.71875 317.191406 51.039062 316.84375 51.078125 C 316.816406 51.082031 316.789062 51.082031 316.765625 51.082031 " fill-opacity="1" fill-rule="nonzero"/><path fill="#000000" d="M 317.675781 58.703125 C 317.355469 58.703125 317.082031 58.464844 317.042969 58.140625 L 316.652344 54.871094 C 316.613281 54.519531 316.863281 54.203125 317.210938 54.160156 C 317.558594 54.121094 317.878906 54.367188 317.917969 54.71875 L 318.308594 57.988281 C 318.351562 58.339844 318.101562 58.652344 317.75 58.695312 C 317.726562 58.699219 317.699219 58.703125 317.675781 58.703125 " fill-opacity="1" fill-rule="nonzero"/><path fill="#000000" d="M 344.6875 124.734375 C 345.28125 124.902344 345.773438 125.140625 346.269531 125.460938 C 346.753906 125.777344 347.210938 126.171875 347.5625 126.675781 C 347.734375 126.925781 347.886719 127.195312 348.003906 127.480469 C 348.058594 127.632812 348.117188 127.753906 348.15625 127.933594 L 348.210938 128.203125 L 348.222656 128.457031 C 348.234375 129.125 348.066406 129.660156 347.925781 130.183594 C 347.78125 130.703125 347.628906 131.191406 347.523438 131.671875 C 347.421875 132.148438 347.371094 132.613281 347.433594 133.019531 C 347.5 133.734375 348.296875 134.414062 349.082031 135.101562 C 349.476562 135.453125 349.890625 135.8125 350.277344 136.25 C 350.660156 136.6875 351.039062 137.222656 351.183594 137.902344 C 351.25 138.296875 351.199219 138.683594 351.097656 138.980469 C 351.003906 139.292969 350.871094 139.5625 350.738281 139.8125 C 350.464844 140.3125 350.167969 140.757812 349.902344 141.195312 C 349.644531 141.621094 349.386719 142.070312 349.308594 142.441406 C 349.261719 142.632812 349.28125 142.746094 349.328125 142.933594 C 349.378906 143.101562 349.492188 143.28125 349.617188 143.460938 C 349.890625 143.820312 350.261719 144.152344 350.65625 144.496094 C 350.855469 144.664062 351.0625 144.839844 351.265625 145.035156 C 351.472656 145.234375 351.691406 145.429688 351.875 145.785156 C 351.996094 146.019531 351.902344 146.308594 351.667969 146.429688 C 351.4375 146.550781 351.152344 146.460938 351.03125 146.234375 L 351.015625 146.207031 C 350.957031 146.09375 350.785156 145.917969 350.601562 145.761719 C 350.417969 145.601562 350.214844 145.445312 350.007812 145.28125 C 349.589844 144.949219 349.152344 144.597656 348.765625 144.132812 C 348.578125 143.886719 348.390625 143.621094 348.273438 143.289062 C 348.160156 142.972656 348.121094 142.550781 348.199219 142.222656 C 348.335938 141.558594 348.632812 141.074219 348.898438 140.597656 C 349.167969 140.128906 349.449219 139.6875 349.671875 139.253906 C 349.902344 138.828125 350.027344 138.386719 349.976562 138.148438 C 349.902344 137.792969 349.664062 137.425781 349.351562 137.074219 C 349.035156 136.722656 348.652344 136.390625 348.257812 136.046875 C 347.859375 135.699219 347.441406 135.351562 347.042969 134.914062 C 346.851562 134.691406 346.652344 134.453125 346.492188 134.160156 L 346.375 133.9375 L 346.289062 133.683594 C 346.21875 133.515625 346.207031 133.359375 346.175781 133.195312 C 346.085938 132.554688 346.179688 131.953125 346.300781 131.402344 C 346.425781 130.851562 346.59375 130.335938 346.742188 129.839844 C 346.882812 129.351562 347.023438 128.859375 347.027344 128.46875 L 347.027344 128.328125 L 347.007812 128.210938 C 347 128.128906 346.945312 128.007812 346.917969 127.910156 C 346.84375 127.703125 346.742188 127.507812 346.625 127.320312 C 346.140625 126.578125 345.285156 125.984375 344.425781 125.65625 L 344.386719 125.640625 C 344.140625 125.546875 344.019531 125.269531 344.113281 125.023438 C 344.203125 124.789062 344.457031 124.667969 344.6875 124.734375 " fill-opacity="1" fill-rule="nonzero"/><path fill="#230b41" d="M 266.539062 159.996094 C 266.539062 159.996094 261.164062 165.300781 258.019531 179.289062 C 254.875 193.277344 237.253906 202.199219 228.171875 197.835938 C 219.085938 193.46875 218.800781 191.222656 218.800781 191.222656 L 219.519531 198.265625 C 219.519531 198.265625 235.472656 227.976562 260.828125 210.429688 C 266.046875 206.816406 273.34375 201.21875 275.3125 196.726562 C 282.914062 179.398438 266.539062 159.996094 266.539062 159.996094 " fill-opacity="1" fill-rule="nonzero"/><path fill="#000000" d="M 220.140625 198.070312 C 220.871094 199.363281 228.207031 211.890625 240.097656 214.75 C 246.679688 216.332031 253.535156 214.699219 260.464844 209.902344 C 268.328125 204.460938 273.261719 199.8125 274.726562 196.46875 C 281.359375 181.351562 269.097656 164.316406 266.515625 160.984375 C 265.152344 162.640625 261.15625 168.234375 258.640625 179.429688 C 257.027344 186.601562 251.296875 193.347656 243.6875 197.035156 C 237.867188 199.851562 231.964844 200.363281 227.894531 198.410156 C 223.378906 196.242188 220.957031 194.558594 219.660156 193.371094 Z M 245.027344 216.613281 C 243.269531 216.613281 241.523438 216.402344 239.792969 215.988281 C 226.753906 212.847656 219.269531 199.148438 218.957031 198.566406 C 218.917969 198.496094 218.894531 198.414062 218.886719 198.332031 L 218.167969 191.289062 L 219.433594 191.140625 C 219.433594 191.140625 219.433594 191.125 219.425781 191.09375 C 219.429688 191.113281 220.113281 193.257812 228.445312 197.261719 C 232.167969 199.046875 237.660156 198.535156 243.132812 195.886719 C 250.402344 192.367188 255.867188 185.953125 257.398438 179.148438 C 260.546875 165.140625 265.871094 159.765625 266.09375 159.542969 C 266.21875 159.417969 266.394531 159.351562 266.570312 159.359375 C 266.75 159.367188 266.914062 159.449219 267.027344 159.585938 C 267.195312 159.78125 283.566406 179.492188 275.894531 196.980469 C 274.3125 200.59375 269.363281 205.292969 261.191406 210.953125 C 255.75 214.71875 250.332031 216.613281 245.027344 216.613281 " fill-opacity="1" fill-rule="nonzero"/><path fill="#230b41" d="M 263.191406 205.734375 C 270.019531 177.914062 259.042969 165.828125 268.835938 157.230469 C 277.796875 149.359375 293.316406 151.90625 300.035156 153.007812 C 307.652344 154.261719 313.96875 155.296875 318.257812 160.125 C 319.398438 161.410156 320.210938 162.753906 320.761719 164.183594 L 320.765625 164.175781 C 328.96875 179.605469 322.320312 195.53125 318.21875 202.890625 C 317.542969 232.394531 329.234375 241.261719 321.535156 252.191406 C 313.199219 264.023438 293.847656 264.855469 278.15625 264.40625 C 274.269531 264.296875 255.589844 266.320312 254.433594 243.386719 C 253.902344 232.859375 258.171875 226.175781 263.191406 205.734375 " fill-opacity="1" fill-rule="nonzero"/><path fill="#000000" d="M 277.722656 263.765625 C 277.890625 263.765625 278.039062 263.765625 278.171875 263.769531 C 293.886719 264.222656 312.949219 263.269531 321.015625 251.824219 C 324.917969 246.285156 323.652344 241.425781 321.558594 233.378906 C 319.746094 226.40625 317.261719 216.859375 317.582031 202.878906 C 317.582031 202.773438 317.613281 202.671875 317.664062 202.582031 C 322.011719 194.773438 328.125 179.453125 320.234375 164.535156 C 320.210938 164.5 320.1875 164.457031 320.171875 164.414062 C 319.621094 163.003906 318.84375 161.742188 317.785156 160.550781 C 313.640625 155.890625 307.589844 154.894531 299.929688 153.640625 C 293.367188 152.5625 277.992188 150.039062 269.253906 157.707031 C 264.445312 161.929688 264.90625 167.105469 265.601562 174.945312 C 266.25 182.277344 267.144531 192.3125 263.808594 205.886719 L 263.191406 205.734375 L 263.808594 205.886719 C 261.957031 213.441406 260.179688 219.191406 258.757812 223.808594 C 256.25 231.925781 254.738281 236.824219 255.070312 243.351562 C 256.109375 263.972656 271.316406 263.824219 277.050781 263.769531 C 277.296875 263.769531 277.523438 263.765625 277.722656 263.765625 Z M 283.742188 265.132812 C 281.84375 265.132812 279.96875 265.097656 278.136719 265.046875 C 277.851562 265.039062 277.492188 265.042969 277.0625 265.046875 C 271.570312 265.097656 254.898438 265.257812 253.796875 243.417969 C 253.453125 236.660156 255.078125 231.398438 257.539062 223.429688 C 258.957031 218.828125 260.726562 213.101562 262.570312 205.582031 C 265.851562 192.214844 265.011719 182.703125 264.332031 175.058594 C 263.628906 167.128906 263.121094 161.398438 268.414062 156.75 C 277.601562 148.683594 293.394531 151.273438 300.136719 152.382812 C 307.734375 153.628906 314.292969 154.707031 318.738281 159.703125 C 319.882812 160.992188 320.734375 162.359375 321.332031 163.886719 C 329.5 179.265625 323.328125 194.976562 318.851562 203.0625 C 318.558594 216.78125 320.902344 225.800781 322.792969 233.054688 C 324.902344 241.171875 326.300781 246.535156 322.058594 252.558594 C 314.605469 263.132812 298.472656 265.132812 283.742188 265.132812 " fill-opacity="1" fill-rule="nonzero"/><path fill="#000000" d="M 285.292969 216.808594 C 280.136719 216.808594 274.078125 215.921875 267.265625 213.394531 C 266.9375 213.273438 266.769531 212.90625 266.890625 212.578125 C 267.015625 212.246094 267.382812 212.078125 267.710938 212.199219 C 292.5 221.390625 307.394531 208.601562 307.542969 208.472656 C 307.808594 208.238281 308.210938 208.265625 308.441406 208.527344 C 308.675781 208.792969 308.652344 209.195312 308.386719 209.425781 C 308.230469 209.566406 304.453125 212.867188 297.46875 215.023438 C 294.328125 215.992188 290.226562 216.808594 285.292969 216.808594 " fill-opacity="1" fill-rule="nonzero"/><path fill="#000000" d="M 276.203125 197.023438 C 275.03125 197.023438 273.820312 196.964844 272.554688 196.835938 C 272.207031 196.800781 271.949219 196.488281 271.984375 196.136719 C 272.023438 195.785156 272.335938 195.53125 272.683594 195.566406 C 284.242188 196.742188 293.25 192.390625 299.445312 182.644531 C 304.097656 175.332031 305.332031 167.585938 305.34375 167.507812 C 305.394531 167.160156 305.726562 166.921875 306.070312 166.972656 C 306.417969 167.027344 306.65625 167.351562 306.601562 167.703125 C 306.550781 168.027344 305.316406 175.792969 300.523438 183.328125 C 296.445312 189.746094 288.992188 197.023438 276.203125 197.023438 " fill-opacity="1" fill-rule="nonzero"/><path fill="#ffffff" d="M 269.355469 196.203125 C 269.355469 196.203125 251.800781 189.808594 246.324219 178.121094 L 235.023438 167.601562 C 235.023438 167.601562 235.183594 172.6875 238.539062 174.8125 C 238.539062 174.8125 235.660156 180.605469 239.90625 184.601562 C 239.90625 184.601562 243.09375 187.132812 244.996094 187.179688 C 244.996094 187.179688 250.558594 205.4375 265.582031 210.875 C 265.582031 210.875 269.800781 204.46875 269.355469 196.203125 " fill-opacity="1" fill-rule="nonzero"/><path fill="#000000" d="M 240.324219 184.121094 C 241.183594 184.800781 243.640625 186.511719 245.011719 186.542969 C 245.285156 186.550781 245.523438 186.730469 245.605469 186.996094 C 245.660156 187.171875 251.132812 204.613281 265.308594 210.09375 C 266.1875 208.574219 268.964844 203.21875 268.738281 196.648438 C 266.019531 195.597656 250.980469 189.378906 245.796875 178.503906 L 235.898438 169.289062 C 236.230469 170.851562 237.019531 173.09375 238.878906 174.273438 C 239.15625 174.445312 239.253906 174.800781 239.109375 175.09375 C 239 175.3125 236.507812 180.5 240.324219 184.121094 Z M 265.582031 211.511719 C 265.507812 211.511719 265.4375 211.5 265.363281 211.476562 C 251.476562 206.449219 245.464844 190.523438 244.519531 187.769531 C 242.496094 187.433594 239.832031 185.355469 239.511719 185.105469 C 239.496094 185.089844 239.484375 185.082031 239.46875 185.066406 C 235.691406 181.511719 237.140625 176.617188 237.75 175.039062 C 234.582031 172.632812 234.394531 167.835938 234.386719 167.625 C 234.378906 167.367188 234.527344 167.128906 234.761719 167.023438 C 234.992188 166.917969 235.269531 166.960938 235.457031 167.136719 L 246.757812 177.65625 C 246.816406 177.710938 246.863281 177.777344 246.902344 177.851562 C 252.207031 189.167969 269.402344 195.539062 269.574219 195.601562 C 269.8125 195.691406 269.976562 195.910156 269.992188 196.167969 C 270.441406 204.546875 266.289062 210.957031 266.113281 211.226562 C 265.992188 211.410156 265.789062 211.511719 265.582031 211.511719 " fill-opacity="1" fill-rule="nonzero"/><path fill="#523762" d="M 299.734375 266.554688 L 308.984375 335.292969 L 314.066406 335.292969 L 304.449219 266.316406 L 299.734375 266.554688 " fill-opacity="1" fill-rule="nonzero"/><path fill="#523762" d="M 252.472656 266.589844 L 308.625 266.859375 C 310.726562 266.859375 312.433594 265.15625 312.433594 263.054688 C 312.433594 260.953125 310.726562 259.246094 308.625 259.246094 L 252.472656 258.976562 C 250.367188 258.976562 248.660156 260.683594 248.660156 262.785156 L 248.660156 263.3125 C 248.660156 265.414062 250.367188 266.589844 252.472656 266.589844 " fill-opacity="1" fill-rule="nonzero"/><path fill="#000000" d="M 252.464844 259.613281 C 250.722656 259.613281 249.300781 261.035156 249.300781 262.785156 L 249.300781 263.3125 C 249.300781 265.261719 251.007812 265.953125 252.472656 265.953125 C 252.472656 265.953125 252.472656 265.953125 252.476562 265.953125 L 308.625 266.222656 C 310.375 266.222656 311.796875 264.804688 311.796875 263.054688 C 311.796875 261.308594 310.375 259.886719 308.625 259.886719 Z M 308.625 267.496094 L 252.464844 267.226562 C 249.851562 267.222656 248.023438 265.613281 248.023438 263.3125 L 248.023438 262.785156 C 248.023438 260.332031 250.019531 258.339844 252.472656 258.339844 L 308.625 258.609375 C 311.074219 258.609375 313.070312 260.605469 313.070312 263.054688 C 313.070312 265.503906 311.074219 267.496094 308.625 267.496094 " fill-opacity="1" fill-rule="nonzero"/><path fill="#ffffff" d="M 192.996094 310.414062 C 193.09375 310.828125 188.238281 333.035156 188.238281 333.035156 L 199.402344 331.167969 L 202.765625 312.390625 L 192.996094 310.414062 " fill-opacity="1" fill-rule="nonzero"/><path fill="#000000" d="M 192.375 310.5625 Z M 192.375 310.5625 Z M 193.511719 311.167969 C 193.230469 312.816406 192.25 317.644531 189.0625 332.25 L 198.855469 330.613281 L 202.027344 312.894531 Z M 188.238281 333.671875 C 188.0625 333.671875 187.894531 333.601562 187.773438 333.472656 C 187.628906 333.320312 187.570312 333.105469 187.613281 332.898438 C 189.476562 324.375 192.265625 311.429688 192.359375 310.433594 C 192.351562 310.265625 192.414062 310.097656 192.535156 309.972656 C 192.6875 309.816406 192.90625 309.746094 193.121094 309.789062 L 202.890625 311.765625 C 203.234375 311.835938 203.453125 312.164062 203.394531 312.503906 L 200.03125 331.28125 C 199.980469 331.546875 199.773438 331.75 199.507812 331.796875 L 188.34375 333.664062 C 188.308594 333.667969 188.273438 333.671875 188.238281 333.671875 " fill-opacity="1" fill-rule="nonzero"/><path fill="#ffffff" d="M 194.164062 325.75 C 193.484375 325.175781 192.507812 324.617188 191.265625 324.5625 C 189.390625 324.484375 187.6875 325.652344 186.910156 327.371094 C 184.976562 331.671875 179.871094 343.648438 178.425781 353.4375 C 177.917969 356.898438 180.53125 359.710938 184.601562 357.445312 C 191.273438 353.730469 200.53125 345.199219 205.375 332.605469 C 205.929688 331.160156 205.734375 329.523438 204.820312 328.277344 C 204.074219 327.257812 203.0625 326.023438 201.886719 324.972656 C 200.765625 323.964844 199.074219 323.949219 197.910156 324.90625 L 196.863281 325.769531 C 196.074219 326.417969 194.945312 326.40625 194.164062 325.75 " fill-opacity="1" fill-rule="nonzero"/><path fill="#000000" d="M 191.089844 325.195312 C 189.589844 325.195312 188.15625 326.160156 187.492188 327.632812 C 185.429688 332.21875 180.476562 343.914062 179.058594 353.53125 C 178.828125 355.085938 179.304688 356.480469 180.300781 357.167969 C 181.304688 357.863281 182.71875 357.761719 184.292969 356.886719 C 191.09375 353.097656 200.050781 344.671875 204.78125 332.375 C 205.265625 331.113281 205.089844 329.722656 204.304688 328.652344 C 203.375 327.378906 202.417969 326.300781 201.460938 325.445312 C 200.574219 324.652344 199.25 324.632812 198.316406 325.398438 L 197.265625 326.261719 C 196.246094 327.101562 194.769531 327.089844 193.753906 326.238281 C 192.980469 325.589844 192.132812 325.238281 191.234375 325.199219 C 191.1875 325.199219 191.136719 325.195312 191.089844 325.195312 Z M 181.851562 358.902344 C 180.796875 358.902344 180.035156 358.535156 179.574219 358.214844 C 178.175781 357.25 177.496094 355.382812 177.796875 353.34375 C 179.238281 343.570312 184.246094 331.742188 186.332031 327.113281 C 187.230469 325.117188 189.234375 323.84375 191.292969 323.925781 C 192.460938 323.976562 193.59375 324.4375 194.574219 325.261719 C 195.121094 325.71875 195.910156 325.726562 196.457031 325.277344 L 197.503906 324.414062 C 198.929688 323.246094 200.953125 323.277344 202.3125 324.496094 C 203.332031 325.410156 204.347656 326.554688 205.335938 327.902344 C 206.375 329.320312 206.613281 331.164062 205.96875 332.832031 C 201.117188 345.445312 191.910156 354.105469 184.910156 358 C 183.707031 358.671875 182.6875 358.902344 181.851562 358.902344 " fill-opacity="1" fill-rule="nonzero"/><path fill="#000000" d="M 180.964844 355 C 180.9375 355 180.921875 355 180.910156 355 C 180.558594 354.988281 180.28125 354.695312 180.296875 354.339844 C 180.308594 353.992188 180.589844 353.714844 180.949219 353.726562 L 180.953125 353.726562 C 181.144531 353.726562 190.378906 353.515625 201.644531 331.269531 C 201.804688 330.953125 202.1875 330.828125 202.5 330.988281 C 202.816406 331.148438 202.941406 331.53125 202.78125 331.84375 C 191.335938 354.445312 181.855469 355 180.964844 355 " fill-opacity="1" fill-rule="nonzero"/><path fill="#000000" d="M 188.113281 342.59375 C 188.035156 342.59375 187.957031 342.578125 187.878906 342.546875 L 182.585938 340.460938 C 182.257812 340.332031 182.097656 339.964844 182.226562 339.632812 C 182.355469 339.304688 182.730469 339.148438 183.054688 339.277344 L 188.347656 341.363281 C 188.671875 341.492188 188.835938 341.859375 188.707031 342.1875 C 188.605469 342.441406 188.367188 342.59375 188.113281 342.59375 " fill-opacity="1" fill-rule="nonzero"/><path fill="#000000" d="M 189.96875 338.539062 C 189.890625 338.539062 189.8125 338.527344 189.738281 338.5 L 183.53125 336.085938 C 183.199219 335.957031 183.039062 335.585938 183.164062 335.257812 C 183.292969 334.929688 183.660156 334.769531 183.992188 334.898438 L 190.199219 337.308594 C 190.527344 337.4375 190.691406 337.808594 190.5625 338.132812 C 190.464844 338.386719 190.222656 338.539062 189.96875 338.539062 " fill-opacity="1" fill-rule="nonzero"/><path fill="#ffffff" d="M 241.976562 312.582031 C 242.050781 312.746094 242.652344 315.269531 243.121094 319.527344 C 243.902344 326.613281 235.960938 333.175781 235.960938 333.175781 L 254.769531 330.640625 L 254.050781 314.238281 L 241.976562 312.582031 " fill-opacity="1" fill-rule="nonzero"/><path fill="#000000" d="M 242.816406 313.34375 C 243.078125 314.5625 243.457031 316.75 243.753906 319.457031 C 244.355469 324.894531 240.195312 329.921875 237.863281 332.273438 L 254.105469 330.089844 L 253.4375 314.796875 Z M 235.960938 333.8125 C 235.710938 333.8125 235.480469 333.664062 235.378906 333.429688 C 235.261719 333.171875 235.335938 332.867188 235.554688 332.683594 C 235.632812 332.621094 243.21875 326.253906 242.488281 319.59375 C 242.03125 315.4375 241.460938 313.0625 241.382812 312.824219 C 241.300781 312.621094 241.328125 312.390625 241.460938 312.207031 C 241.597656 312.019531 241.828125 311.917969 242.0625 311.953125 L 254.136719 313.609375 C 254.441406 313.652344 254.671875 313.90625 254.6875 314.210938 L 255.40625 330.613281 C 255.417969 330.945312 255.179688 331.230469 254.855469 331.273438 L 236.046875 333.808594 C 236.019531 333.8125 235.988281 333.8125 235.960938 333.8125 " fill-opacity="1" fill-rule="nonzero"/><path fill="#ffffff" d="M 249.777344 325.316406 C 248.597656 325.046875 248.691406 323.253906 247.675781 322.511719 C 246.144531 321.386719 244.382812 321.578125 242.777344 322.585938 C 238.765625 325.105469 227.835938 332.28125 221.199219 339.691406 C 218.855469 342.308594 219.496094 346.144531 224.175781 346.542969 C 231.847656 347.1875 244.355469 345.25 255.410156 337.40625 C 256.679688 336.507812 257.417969 335.019531 257.339844 333.457031 C 257.277344 332.179688 256.820312 327.964844 256.414062 326.421875 C 256.027344 324.941406 254.613281 323.976562 253.105469 324.121094 L 251.746094 324.253906 C 250.722656 324.351562 250.777344 325.546875 249.777344 325.316406 " fill-opacity="1" fill-rule="nonzero"/><path fill="#000000" d="M 245.40625 322.378906 C 244.539062 322.378906 243.738281 322.734375 243.113281 323.125 C 238.839844 325.808594 228.195312 332.835938 221.675781 340.113281 C 220.625 341.289062 220.25 342.730469 220.703125 343.871094 C 221.164062 345.03125 222.417969 345.753906 224.230469 345.90625 C 232.046875 346.566406 244.25 344.542969 255.039062 336.886719 C 256.148438 336.101562 256.769531 334.828125 256.703125 333.488281 C 256.640625 332.253906 256.191406 328.085938 255.796875 326.582031 C 255.488281 325.40625 254.382812 324.636719 253.164062 324.753906 L 251.804688 324.886719 C 251.601562 324.90625 251.507812 325 251.285156 325.265625 C 251.007812 325.597656 250.546875 326.148438 249.636719 325.9375 C 248.664062 325.71875 248.296875 324.851562 248 324.160156 C 247.800781 323.695312 247.613281 323.253906 247.300781 323.023438 C 246.664062 322.558594 246.019531 322.378906 245.40625 322.378906 Z M 227.09375 347.296875 C 226.046875 347.296875 225.054688 347.253906 224.121094 347.175781 C 220.992188 346.910156 219.894531 345.285156 219.519531 344.34375 C 218.886719 342.746094 219.347656 340.800781 220.726562 339.265625 C 227.351562 331.867188 238.117188 324.757812 242.4375 322.046875 C 244.414062 320.804688 246.40625 320.789062 248.054688 321.996094 C 248.648438 322.433594 248.925781 323.085938 249.171875 323.65625 C 249.425781 324.253906 249.597656 324.625 249.917969 324.699219 C 250.0625 324.730469 250.070312 324.730469 250.308594 324.449219 C 250.5625 324.144531 250.945312 323.6875 251.683594 323.617188 L 253.042969 323.488281 C 254.886719 323.308594 256.5625 324.472656 257.03125 326.257812 C 257.453125 327.863281 257.914062 332.117188 257.976562 333.425781 C 258.0625 335.207031 257.242188 336.886719 255.777344 337.925781 C 245.992188 344.871094 235.058594 347.296875 227.09375 347.296875 " fill-opacity="1" fill-rule="nonzero"/><path fill="#000000" d="M 228.714844 343.785156 C 224.441406 343.785156 222.578125 342.511719 222.421875 342.398438 C 222.136719 342.191406 222.074219 341.792969 222.277344 341.507812 C 222.484375 341.222656 222.878906 341.160156 223.167969 341.363281 C 223.269531 341.433594 231.132812 346.558594 253.015625 334.1875 C 253.324219 334.011719 253.710938 334.121094 253.886719 334.425781 C 254.058594 334.734375 253.949219 335.121094 253.644531 335.296875 C 241.535156 342.140625 233.570312 343.785156 228.714844 343.785156 " fill-opacity="1" fill-rule="nonzero"/><path fill="#000000" d="M 235.710938 336.148438 C 235.507812 336.148438 235.308594 336.054688 235.1875 335.875 L 231.890625 331.132812 C 231.6875 330.84375 231.761719 330.449219 232.046875 330.25 C 232.335938 330.046875 232.734375 330.117188 232.9375 330.40625 L 236.234375 335.148438 C 236.433594 335.4375 236.363281 335.835938 236.074219 336.035156 C 235.960938 336.113281 235.835938 336.148438 235.710938 336.148438 " fill-opacity="1" fill-rule="nonzero"/><path fill="#000000" d="M 239.515625 333.792969 C 239.320312 333.792969 239.128906 333.707031 239.003906 333.539062 L 235.332031 328.621094 C 235.121094 328.339844 235.179688 327.941406 235.460938 327.730469 C 235.742188 327.519531 236.140625 327.578125 236.351562 327.859375 L 240.023438 332.777344 C 240.234375 333.058594 240.175781 333.457031 239.894531 333.667969 C 239.78125 333.753906 239.648438 333.792969 239.515625 333.792969 " fill-opacity="1" fill-rule="nonzero"/><path fill="#000000" d="M 293.269531 224.964844 C 293.269531 224.964844 225.273438 222.015625 217.84375 228.914062 C 207.761719 238.265625 190.4375 316.136719 190.4375 316.136719 L 207.164062 320.820312 C 207.164062 320.820312 232.363281 256.914062 238.605469 256.914062 C 244.847656 256.914062 296.917969 251.046875 296.917969 251.046875 L 293.269531 224.964844 " fill-opacity="1" fill-rule="nonzero"/><path fill="#000000" d="M 296.917969 225.679688 C 303.617188 227.070312 309.015625 233.046875 309.414062 238.539062 C 310.015625 246.847656 308.46875 253.695312 298.699219 257.976562 C 290.820312 261.425781 250.421875 259.226562 252.203125 258.625 C 253.988281 258.027344 256.285156 300.765625 256.285156 317.558594 L 240.089844 318.183594 C 240.089844 318.183594 214.28125 250.65625 217.0625 243.117188 C 222.042969 229.628906 260.351562 226.539062 272.609375 224.738281 C 274.257812 224.492188 287.585938 223.742188 296.917969 225.679688 " fill-opacity="1" fill-rule="nonzero"/><path fill="#ae9fcf" d="M 225.617188 280.390625 C 225.347656 280.390625 225.097656 280.214844 225.011719 279.945312 C 224.425781 278.128906 223.847656 276.34375 223.28125 274.59375 C 218.5 259.828125 214.71875 248.164062 216.460938 242.917969 C 218.429688 236.972656 226.570312 232.433594 241.34375 229.039062 C 241.6875 228.960938 242.027344 229.171875 242.105469 229.515625 C 242.183594 229.859375 241.96875 230.203125 241.625 230.28125 C 227.527344 233.523438 219.464844 237.90625 217.667969 243.316406 C 216.0625 248.167969 219.96875 260.230469 224.492188 274.199219 C 225.0625 275.949219 225.640625 277.738281 226.222656 279.558594 C 226.332031 279.894531 226.144531 280.25 225.8125 280.359375 C 225.746094 280.378906 225.683594 280.390625 225.617188 280.390625 " fill-opacity="1" fill-rule="nonzero"/><path fill="#000000" d="M 291.761719 141.65625 C 293.859375 143.085938 296.164062 143.035156 297.277344 143.011719 C 299.605469 142.957031 309.394531 141.796875 314.644531 133.359375 C 319.785156 125.101562 318.402344 113.355469 314.339844 111.621094 C 311.421875 110.375 307.875 114.609375 303.464844 112.652344 C 301.511719 111.789062 301.757812 110.757812 299.683594 109.839844 C 296.191406 108.292969 292.308594 109.804688 289.34375 111.003906 C 283.933594 113.199219 284.390625 114.714844 279.664062 116.816406 C 272.929688 119.804688 268.53125 118.265625 267.550781 120.773438 C 266.765625 122.769531 268.746094 125.816406 270.980469 127.394531 C 275.601562 130.660156 279.894531 126.46875 283.554688 129.585938 C 285.828125 131.523438 286.101562 134.675781 289.878906 139.796875 C 290.183594 140.207031 290.765625 140.976562 291.761719 141.65625 " fill-opacity="1" fill-rule="nonzero"/><path fill="#ffffff" d="M 286.726562 148.1875 C 286.8125 147.425781 286.894531 146.578125 286.957031 145.695312 C 285.484375 146.628906 283.835938 147.023438 282.757812 146.65625 C 281.425781 146.203125 280.976562 144.929688 280.210938 143.445312 C 279.890625 142.824219 279.570312 142.089844 278.769531 141.542969 C 278.34375 141.253906 277.890625 141.089844 277.472656 141 C 276.957031 140.890625 276.609375 140.410156 276.652344 139.886719 L 276.726562 139.5625 C 277.3125 137.042969 277.402344 134.433594 276.984375 131.878906 L 276.15625 126.832031 C 278.71875 125.261719 279.753906 125.273438 280.203125 125.640625 C 280.367188 125.777344 280.589844 125.847656 280.71875 126.625 C 281.324219 130.371094 284.625 129.402344 287.316406 128.222656 C 290.015625 127.042969 289.941406 132.429688 289.941406 132.429688 C 289.941406 132.429688 291.292969 129.871094 293.578125 131.488281 C 295.21875 132.652344 292.910156 135.421875 291.46875 136.898438 L 294.472656 147.515625 C 295.265625 150.3125 297.582031 152.410156 300.445312 152.925781 L 304.761719 153.703125 C 304.761719 153.703125 292.375 156.832031 280.75 154.992188 C 279.539062 154.796875 279.5 153.0625 280.699219 152.792969 L 283.050781 152.269531 C 285.019531 151.832031 286.503906 150.195312 286.726562 148.1875 " fill-opacity="1" fill-rule="nonzero"/><path fill="#000000" d="M 287.359375 148.257812 C 287.105469 150.53125 285.429688 152.394531 283.1875 152.894531 L 280.835938 153.417969 C 280.472656 153.5 280.453125 153.8125 280.457031 153.910156 C 280.460938 154.027344 280.507812 154.304688 280.851562 154.359375 C 288.703125 155.605469 296.988281 154.535156 301.398438 153.746094 L 300.332031 153.554688 C 297.253906 153 294.714844 150.699219 293.859375 147.691406 L 290.855469 137.074219 C 290.796875 136.855469 290.855469 136.617188 291.011719 136.457031 C 292.644531 134.78125 293.574219 133.300781 293.503906 132.496094 C 293.484375 132.289062 293.394531 132.140625 293.210938 132.011719 C 292.703125 131.648438 292.242188 131.519531 291.808594 131.625 C 291.007812 131.808594 290.507812 132.722656 290.503906 132.730469 C 290.363281 132.988281 290.066406 133.121094 289.78125 133.046875 C 289.496094 132.972656 289.296875 132.714844 289.300781 132.421875 C 289.316406 131.183594 289.03125 129.238281 288.347656 128.78125 C 288.269531 128.730469 288.0625 128.59375 287.574219 128.804688 C 285.738281 129.609375 283.425781 130.414062 281.789062 129.523438 C 280.882812 129.027344 280.308594 128.085938 280.085938 126.726562 C 280.019531 126.300781 279.949219 126.246094 279.886719 126.203125 C 279.855469 126.179688 279.824219 126.15625 279.796875 126.132812 C 279.777344 126.117188 279.265625 125.742188 276.855469 127.15625 L 277.613281 131.773438 C 278.042969 134.425781 277.957031 137.09375 277.347656 139.707031 L 277.285156 139.972656 C 277.285156 140.167969 277.417969 140.339844 277.605469 140.378906 C 278.171875 140.496094 278.683594 140.710938 279.125 141.015625 C 279.992188 141.609375 280.378906 142.371094 280.691406 142.984375 L 280.777344 143.152344 C 280.886719 143.363281 280.988281 143.574219 281.089844 143.773438 C 281.65625 144.921875 282.066406 145.746094 282.960938 146.054688 C 283.832031 146.347656 285.300781 145.988281 286.617188 145.15625 C 286.820312 145.03125 287.082031 145.027344 287.289062 145.152344 C 287.492188 145.273438 287.613281 145.503906 287.59375 145.742188 C 287.535156 146.550781 287.457031 147.398438 287.359375 148.257812 Z M 288.59375 156.203125 C 286.003906 156.203125 283.304688 156.039062 280.652344 155.621094 C 279.800781 155.484375 279.210938 154.8125 279.183594 153.949219 C 279.15625 153.089844 279.722656 152.359375 280.558594 152.171875 L 282.910156 151.648438 C 284.621094 151.269531 285.898438 149.851562 286.09375 148.117188 C 286.140625 147.679688 286.183594 147.242188 286.226562 146.816406 C 284.878906 147.421875 283.539062 147.59375 282.550781 147.257812 C 281.160156 146.785156 280.570312 145.597656 279.945312 144.339844 C 279.851562 144.144531 279.75 143.941406 279.644531 143.734375 L 279.554688 143.5625 C 279.269531 143.003906 279.003906 142.476562 278.410156 142.070312 C 278.101562 141.859375 277.742188 141.710938 277.339844 141.625 C 276.515625 141.449219 275.945312 140.679688 276.019531 139.832031 C 276.019531 139.800781 276.027344 139.769531 276.03125 139.742188 L 276.105469 139.417969 C 276.675781 136.96875 276.761719 134.464844 276.351562 131.980469 L 275.527344 126.933594 C 275.488281 126.679688 275.605469 126.425781 275.824219 126.289062 C 278.265625 124.789062 279.742188 124.4375 280.605469 125.152344 L 280.644531 125.179688 C 280.984375 125.429688 281.21875 125.742188 281.347656 126.523438 C 281.5 127.488281 281.847656 128.101562 282.402344 128.40625 C 283.558594 129.035156 285.617188 128.269531 287.0625 127.636719 C 287.996094 127.230469 288.65625 127.457031 289.054688 127.71875 C 289.964844 128.324219 290.332031 129.742188 290.480469 130.875 C 290.769531 130.660156 291.109375 130.480469 291.507812 130.386719 C 292.308594 130.195312 293.128906 130.390625 293.949219 130.96875 C 294.433594 131.3125 294.71875 131.800781 294.773438 132.382812 C 294.878906 133.566406 294.007812 135.144531 292.183594 137.078125 L 295.089844 147.34375 C 295.808594 149.886719 297.953125 151.828125 300.558594 152.300781 L 304.875 153.078125 C 305.171875 153.132812 305.390625 153.382812 305.398438 153.683594 C 305.410156 153.984375 305.210938 154.25 304.917969 154.324219 C 304.824219 154.347656 297.34375 156.203125 288.59375 156.203125 " fill-opacity="1" fill-rule="nonzero"/><path fill="#000000" d="M 286.957031 146.335938 C 286.734375 146.335938 286.519531 146.214844 286.398438 146.003906 C 286.230469 145.699219 286.34375 145.308594 286.652344 145.140625 C 289.1875 143.734375 289.6875 139.519531 289.691406 139.476562 C 289.730469 139.128906 290.042969 138.875 290.394531 138.917969 C 290.746094 138.957031 290.996094 139.269531 290.957031 139.621094 C 290.933594 139.820312 290.371094 144.535156 287.265625 146.253906 C 287.171875 146.308594 287.0625 146.335938 286.957031 146.335938 " fill-opacity="1" fill-rule="nonzero"/><path fill="#ffffff" d="M 43.195312 234.960938 L 26.960938 344.425781 L 21.570312 344.425781 L 38.039062 234.601562 L 43.195312 234.960938 " fill-opacity="1" fill-rule="nonzero"/><path fill="#000000" d="M 22.308594 343.789062 L 26.410156 343.789062 L 42.464844 235.550781 L 38.582031 235.277344 Z M 26.960938 345.0625 L 21.570312 345.0625 C 21.386719 345.0625 21.207031 344.980469 21.085938 344.839844 C 20.964844 344.699219 20.914062 344.511719 20.941406 344.332031 L 37.410156 234.507812 C 37.457031 234.175781 37.757812 233.9375 38.082031 233.964844 L 43.238281 234.324219 C 43.417969 234.335938 43.582031 234.421875 43.691406 234.5625 C 43.804688 234.703125 43.851562 234.878906 43.824219 235.054688 L 27.589844 344.519531 C 27.542969 344.832031 27.277344 345.0625 26.960938 345.0625 " fill-opacity="1" fill-rule="nonzero"/><path fill="#ffffff" d="M 253.449219 234.960938 L 269.6875 344.425781 L 275.074219 344.425781 L 258.605469 234.601562 L 253.449219 234.960938 " fill-opacity="1" fill-rule="nonzero"/><path fill="#000000" d="M 270.234375 343.789062 L 274.335938 343.789062 L 258.0625 235.277344 L 254.183594 235.550781 Z M 275.074219 345.0625 L 269.6875 345.0625 C 269.371094 345.0625 269.101562 344.832031 269.054688 344.519531 L 252.820312 235.054688 C 252.796875 234.878906 252.84375 234.703125 252.957031 234.5625 C 253.066406 234.421875 253.230469 234.335938 253.40625 234.324219 L 258.5625 233.964844 C 258.886719 233.933594 259.1875 234.175781 259.234375 234.507812 L 275.707031 344.332031 C 275.734375 344.511719 275.679688 344.699219 275.558594 344.839844 C 275.4375 344.980469 275.261719 345.0625 275.074219 345.0625 " fill-opacity="1" fill-rule="nonzero"/><path fill="#ffffff" d="M 269.648438 224.679688 L 29.027344 224.679688 C 27.28125 224.679688 25.867188 227.164062 25.867188 230.230469 C 25.867188 233.296875 27.28125 235.78125 29.027344 235.78125 L 269.648438 235.78125 C 271.394531 235.78125 272.808594 233.296875 272.808594 230.230469 C 272.808594 227.164062 271.394531 224.679688 269.648438 224.679688 " fill-opacity="1" fill-rule="nonzero"/><path fill="#000000" d="M 29.027344 225.316406 C 27.835938 225.316406 26.503906 227.335938 26.503906 230.230469 C 26.503906 233.128906 27.835938 235.144531 29.027344 235.144531 L 269.648438 235.144531 C 270.84375 235.144531 272.171875 233.128906 272.171875 230.230469 C 272.171875 227.335938 270.84375 225.316406 269.648438 225.316406 Z M 269.648438 236.421875 L 29.027344 236.421875 C 26.898438 236.421875 25.230469 233.703125 25.230469 230.230469 C 25.230469 226.761719 26.898438 224.042969 29.027344 224.042969 L 269.648438 224.042969 C 271.777344 224.042969 273.445312 226.761719 273.445312 230.230469 C 273.445312 233.703125 271.777344 236.421875 269.648438 236.421875 " fill-opacity="1" fill-rule="nonzero"/><path fill="#523762" d="M 239.304688 191.074219 L 233.796875 176.617188 L 227.21875 176.375 L 214.082031 193.175781 L 213.554688 195.273438 L 230.054688 226.039062 L 250.445312 228.449219 L 254.433594 224.308594 L 244.453125 190.96875 L 239.304688 191.074219 " fill-opacity="1" fill-rule="nonzero"/><path fill="#ffffff" d="M 233.796875 176.617188 L 224.167969 190.441406 L 239.410156 190.757812 Z M 233.796875 176.617188 " fill-opacity="1" fill-rule="nonzero"/><path fill="#ffffff" d="M 254.433594 224.308594 L 250.445312 228.449219 L 239.984375 195.019531 L 244.453125 190.96875 L 254.433594 224.308594 " fill-opacity="1" fill-rule="nonzero"/><path fill="#000000" d="M 254.433594 224.945312 C 254.15625 224.945312 253.90625 224.765625 253.820312 224.488281 L 243.976562 191.601562 L 221.535156 191.394531 C 221.183594 191.394531 220.902344 191.105469 220.90625 190.753906 C 220.910156 190.402344 221.195312 190.121094 221.542969 190.121094 C 221.542969 190.121094 221.546875 190.121094 221.546875 190.121094 L 244.457031 190.332031 C 244.738281 190.332031 244.984375 190.519531 245.0625 190.785156 L 255.042969 224.125 C 255.144531 224.460938 254.953125 224.816406 254.613281 224.917969 C 254.554688 224.933594 254.492188 224.945312 254.433594 224.945312 " fill-opacity="1" fill-rule="nonzero"/><path fill="#000000" d="M 251.390625 229.089844 C 251.367188 229.089844 251.34375 229.089844 251.316406 229.085938 L 229.984375 226.671875 C 229.773438 226.648438 229.589844 226.519531 229.492188 226.332031 L 213.554688 195.898438 C 212.96875 194.777344 213.09375 193.40625 213.867188 192.40625 L 226.714844 175.980469 C 226.933594 175.703125 227.332031 175.65625 227.609375 175.871094 C 227.886719 176.089844 227.933594 176.492188 227.71875 176.765625 L 214.875 193.1875 C 214.402344 193.792969 214.328125 194.625 214.683594 195.304688 L 230.464844 225.441406 L 251.460938 227.816406 C 251.8125 227.859375 252.0625 228.175781 252.023438 228.523438 C 251.984375 228.847656 251.710938 229.089844 251.390625 229.089844 " fill-opacity="1" fill-rule="nonzero"/><path fill="#ffffff" d="M 224.367188 213.773438 C 224.847656 214.796875 223.753906 215.847656 222.75 215.328125 C 220.9375 214.390625 218.738281 213.058594 217.46875 211.574219 C 216.011719 209.871094 216.277344 205.65625 216.722656 202.546875 C 216.890625 201.386719 218.472656 201.15625 218.96875 202.222656 L 224.367188 213.773438 " fill-opacity="1" fill-rule="nonzero"/><path fill="#000000" d="M 217.898438 202.175781 C 217.859375 202.175781 217.832031 202.175781 217.8125 202.179688 C 217.714844 202.195312 217.40625 202.269531 217.351562 202.636719 C 216.734375 206.957031 216.945312 209.984375 217.953125 211.160156 C 218.929688 212.300781 220.6875 213.546875 223.042969 214.761719 C 223.367188 214.929688 223.609375 214.730469 223.671875 214.667969 C 223.738281 214.605469 223.945312 214.371094 223.792969 214.042969 C 223.792969 214.042969 223.792969 214.042969 223.789062 214.042969 L 218.390625 202.488281 C 218.261719 202.21875 218.035156 202.175781 217.898438 202.175781 Z M 223.300781 216.101562 C 223.015625 216.101562 222.730469 216.03125 222.457031 215.890625 C 219.925781 214.585938 218.082031 213.269531 216.984375 211.988281 C 215.699219 210.488281 215.398438 207.28125 216.089844 202.457031 C 216.207031 201.644531 216.808594 201.042969 217.625 200.917969 C 218.445312 200.796875 219.195312 201.203125 219.546875 201.949219 L 224.945312 213.503906 C 225.28125 214.222656 225.128906 215.039062 224.558594 215.589844 C 224.207031 215.925781 223.757812 216.101562 223.300781 216.101562 " fill-opacity="1" fill-rule="nonzero"/></svg>