<svg width="16" height="16" viewBox="0 0 16 16" fill="none" xmlns="http://www.w3.org/2000/svg">
<path d="M0.700012 14V12.1333C0.700012 11.7667 0.794457 11.4222 0.983346 11.1C1.17223 10.7778 1.43335 10.5333 1.76668 10.3667C2.33335 10.0778 2.97223 9.83333 3.68335 9.63333C4.39446 9.43333 5.17779 9.33333 6.03335 9.33333C6.8889 9.33333 7.67223 9.43333 8.38335 9.63333C9.09446 9.83333 9.73335 10.0778 10.3 10.3667C10.6333 10.5333 10.8945 10.7778 11.0833 11.1C11.2722 11.4222 11.3667 11.7667 11.3667 12.1333V14H0.700012ZM2.03335 12.6667H10.0333V12.1333C10.0333 12.0111 10.0029 11.9 9.94201 11.8C9.88112 11.7 9.80046 11.6222 9.70001 11.5667C9.30001 11.3667 8.78623 11.1667 8.15868 10.9667C7.53112 10.7667 6.82268 10.6667 6.03335 10.6667C5.24401 10.6667 4.53579 10.7667 3.90868 10.9667C3.28157 11.1667 2.76757 11.3667 2.36668 11.5667C2.26668 11.6222 2.18623 11.7 2.12535 11.8C2.06446 11.9 2.03379 12.0111 2.03335 12.1333V12.6667ZM6.03335 8.66667C5.30001 8.66667 4.67223 8.40556 4.15001 7.88333C3.62779 7.36111 3.36668 6.73333 3.36668 6H2.86668V5.33333H3.36668C3.36668 4.83333 3.4889 4.38333 3.73335 3.98333C3.97779 3.58333 4.30001 3.26667 4.70001 3.03333V4H5.36668V2.76667C5.46668 2.73333 5.57223 2.70844 5.68335 2.692C5.79446 2.67556 5.91112 2.66711 6.03335 2.66667C6.15557 2.66622 6.27223 2.67467 6.38335 2.692C6.49446 2.70933 6.60001 2.73422 6.70001 2.76667V4H7.36668V3.03333C7.76668 3.26667 8.0889 3.58333 8.33335 3.98333C8.57779 4.38333 8.70001 4.83333 8.70001 5.33333H9.20001V6H8.70001C8.70001 6.73333 8.4389 7.36111 7.91668 7.88333C7.39446 8.40556 6.76668 8.66667 6.03335 8.66667ZM6.03335 7.33333C6.40001 7.33333 6.71401 7.20289 6.97535 6.942C7.23668 6.68111 7.36712 6.36711 7.36668 6H4.70001C4.70001 6.36667 4.83068 6.68067 5.09201 6.942C5.35335 7.20333 5.66712 7.33378 6.03335 7.33333ZM11.0333 10L10.9333 9.5C10.8667 9.47778 10.8029 9.45289 10.742 9.42533C10.6811 9.39778 10.6227 9.356 10.5667 9.3L10.1 9.46667L9.76668 8.86667L10.1333 8.53333V8.13333L9.76668 7.8L10.1 7.2L10.5667 7.36667C10.6111 7.32222 10.6667 7.28333 10.7333 7.25C10.8 7.21667 10.8667 7.18889 10.9333 7.16667L11.0333 6.66667H11.7L11.8 7.16667C11.8667 7.18889 11.9333 7.21667 12 7.25C12.0667 7.28333 12.1222 7.32222 12.1667 7.36667L12.6333 7.2L12.9667 7.8L12.6 8.13333V8.53333L12.9667 8.86667L12.6333 9.46667L12.1667 9.3C12.1111 9.35556 12.0529 9.39733 11.992 9.42533C11.9311 9.45333 11.8671 9.47822 11.8 9.5L11.7 10H11.0333ZM11.3667 8.83333C11.5 8.83333 11.6167 8.78333 11.7167 8.68333C11.8167 8.58333 11.8667 8.46667 11.8667 8.33333C11.8667 8.2 11.8167 8.08333 11.7167 7.98333C11.6167 7.88333 11.5 7.83333 11.3667 7.83333C11.2333 7.83333 11.1167 7.88333 11.0167 7.98333C10.9167 8.08333 10.8667 8.2 10.8667 8.33333C10.8667 8.46667 10.9167 8.58333 11.0167 8.68333C11.1167 8.78333 11.2333 8.83333 11.3667 8.83333ZM12.5667 6.66667L12.4333 5.96667C12.3333 5.93333 12.2418 5.89178 12.1587 5.842C12.0756 5.79222 12.0005 5.73378 11.9333 5.66667L11.2333 5.9L10.7667 5.1L11.3333 4.6C11.3111 4.54444 11.3 4.5 11.3 4.46667V4.2C11.3 4.16667 11.3111 4.12222 11.3333 4.06667L10.7667 3.56667L11.2333 2.76667L11.9333 3C12 2.93333 12.0751 2.87489 12.1587 2.82467C12.2422 2.77444 12.3338 2.73289 12.4333 2.7L12.5667 2H13.5L13.6333 2.7C13.7333 2.73333 13.8251 2.77511 13.9087 2.82533C13.9922 2.87556 14.0671 2.93378 14.1333 3L14.8333 2.76667L15.3 3.56667L14.7333 4.06667C14.7556 4.12222 14.7667 4.16667 14.7667 4.2V4.46667C14.7667 4.5 14.7556 4.54444 14.7333 4.6L15.3 5.1L14.8333 5.9L14.1333 5.66667C14.0667 5.73333 13.9918 5.79178 13.9087 5.842C13.8256 5.89222 13.7338 5.93378 13.6333 5.96667L13.5 6.66667H12.5667ZM13.0333 5.16667C13.2667 5.16667 13.464 5.086 13.6253 4.92467C13.7867 4.76333 13.8671 4.56622 13.8667 4.33333C13.8662 4.10044 13.7856 3.90311 13.6247 3.74133C13.4638 3.57956 13.2667 3.49911 13.0333 3.5C12.8 3.50089 12.6027 3.58156 12.4413 3.742C12.28 3.90244 12.1996 4.09956 12.2 4.33333C12.2005 4.56711 12.2811 4.76444 12.442 4.92533C12.6029 5.08622 12.8 5.16667 13.0333 5.16667Z" fill="white"/>
</svg>
