<svg xmlns="http://www.w3.org/2000/svg" xmlns:xlink="http://www.w3.org/1999/xlink" width="500" zoomAndPan="magnify" viewBox="0 0 375 374.999991" height="500" preserveAspectRatio="xMidYMid meet" version="1.0"><defs><clipPath id="1b5a1a9d85"><path d="M 225 62.65625 L 232 62.65625 L 232 68 L 225 68 Z M 225 62.65625 " clip-rule="nonzero"/></clipPath><clipPath id="07f51cde3e"><path d="M 275 294 L 366 294 L 366 312.40625 L 275 312.40625 Z M 275 294 " clip-rule="nonzero"/></clipPath><clipPath id="fd1ba408f7"><path d="M 275 294 L 367 294 L 367 312.40625 L 275 312.40625 Z M 275 294 " clip-rule="nonzero"/></clipPath><clipPath id="087ff0f001"><path d="M 167 293 L 258 293 L 258 312.40625 L 167 312.40625 Z M 167 293 " clip-rule="nonzero"/></clipPath><clipPath id="083c5b5eac"><path d="M 29 293 L 123 293 L 123 312.40625 L 29 312.40625 Z M 29 293 " clip-rule="nonzero"/></clipPath><clipPath id="536f10fe77"><path d="M 33 208 L 189 208 L 189 312.40625 L 33 312.40625 Z M 33 208 " clip-rule="nonzero"/></clipPath><clipPath id="bc9dac1473"><path d="M 279 62.65625 L 314 62.65625 L 314 64 L 279 64 Z M 279 62.65625 " clip-rule="nonzero"/></clipPath><clipPath id="6f6a78500f"><path d="M 318 62.65625 L 344 62.65625 L 344 64 L 318 64 Z M 318 62.65625 " clip-rule="nonzero"/></clipPath></defs><path fill="#ae9fcf" d="M 233.167969 127.546875 L 101.53125 127.546875 L 101.53125 83.242188 L 233.167969 83.242188 L 233.167969 127.546875 " fill-opacity="1" fill-rule="nonzero"/><path fill="#230b41" d="M 117.3125 120.015625 C 117.230469 120.015625 117.15625 119.984375 117.09375 119.921875 C 116.980469 119.804688 116.980469 119.613281 117.101562 119.5 L 161.785156 76.375 C 161.902344 76.261719 162.082031 76.261719 162.199219 76.371094 L 189.117188 101.269531 L 229.5625 63.886719 C 229.683594 63.773438 229.871094 63.78125 229.984375 63.902344 C 230.097656 64.023438 230.089844 64.214844 229.96875 64.328125 L 189.320312 101.898438 C 189.207031 102.003906 189.03125 102.003906 188.914062 101.898438 L 162 77.003906 L 117.519531 119.929688 C 117.460938 119.988281 117.386719 120.015625 117.3125 120.015625 " fill-opacity="1" fill-rule="nonzero"/><g clip-path="url(#1b5a1a9d85)"><path fill="#230b41" d="M 228.453125 67.917969 L 227.921875 67.640625 L 229.722656 64.148438 L 226.09375 65.667969 L 225.863281 65.113281 L 231.007812 62.957031 L 228.453125 67.917969 " fill-opacity="1" fill-rule="nonzero"/></g><path fill="#230b41" d="M 361.5 173.710938 C 354.582031 194.894531 331.804688 206.460938 310.621094 199.546875 C 289.4375 192.628906 277.871094 169.851562 284.785156 148.667969 C 291.699219 127.484375 314.480469 115.914062 335.664062 122.832031 C 356.847656 129.746094 368.414062 152.527344 361.5 173.710938 " fill-opacity="1" fill-rule="nonzero"/><path fill="#ffffff" d="M 323.109375 129.75 C 318.234375 129.75 313.390625 130.898438 308.914062 133.171875 C 301.433594 136.972656 295.875 143.457031 293.269531 151.4375 C 290.667969 159.417969 291.324219 167.933594 295.125 175.417969 C 298.925781 182.898438 305.410156 188.457031 313.390625 191.058594 C 321.371094 193.664062 329.882812 193.003906 337.367188 189.207031 C 344.851562 185.40625 350.410156 178.917969 353.011719 170.941406 L 353.296875 171.035156 L 353.011719 170.941406 C 358.390625 154.46875 349.363281 136.695312 332.894531 131.316406 C 329.683594 130.269531 326.386719 129.75 323.109375 129.75 Z M 323.175781 193.226562 C 319.832031 193.226562 316.472656 192.695312 313.203125 191.628906 C 305.074219 188.976562 298.460938 183.316406 294.589844 175.6875 C 290.71875 168.0625 290.046875 159.382812 292.699219 151.25 C 295.355469 143.121094 301.015625 136.507812 308.644531 132.636719 C 316.269531 128.765625 324.949219 128.09375 333.078125 130.746094 C 349.867188 136.226562 359.0625 154.339844 353.582031 171.125 C 350.929688 179.257812 345.265625 185.867188 337.640625 189.742188 C 333.082031 192.054688 328.144531 193.226562 323.175781 193.226562 " fill-opacity="1" fill-rule="nonzero"/><path fill="#ffffff" d="M 313.390625 184.367188 L 315.304688 178.503906 C 311.960938 177.347656 308.816406 175.167969 307.261719 173.054688 L 309.921875 169.621094 C 311.558594 171.695312 314.214844 173.78125 317.464844 174.84375 C 321.582031 176.1875 325.144531 174.71875 326.226562 171.410156 C 327.265625 168.21875 325.648438 165.507812 321.921875 162.363281 C 316.761719 158.109375 313.976562 154.246094 315.625 149.199219 C 317.195312 144.382812 321.816406 141.84375 327.4375 142.714844 L 329.351562 136.855469 L 332.949219 138.03125 L 331.109375 143.660156 C 334.554688 144.910156 336.632812 146.617188 337.992188 148.152344 L 335.292969 151.507812 C 334.300781 150.414062 332.335938 148.363281 328.625 147.148438 C 324.15625 145.691406 321.601562 147.808594 320.84375 150.132812 C 319.859375 153.148438 321.511719 155.359375 325.878906 159.097656 C 331.0625 163.484375 333.09375 167.488281 331.410156 172.652344 C 329.910156 177.238281 325.316406 180.488281 319.019531 179.523438 L 317.046875 185.558594 L 313.390625 184.367188 " fill-opacity="1" fill-rule="nonzero"/><path fill="#ffffff" d="M 286.554688 188.015625 L 372.492188 188.015625 C 373.683594 188.015625 374.648438 188.980469 374.648438 190.171875 L 374.648438 203.554688 C 374.648438 204.746094 373.683594 205.710938 372.492188 205.710938 L 286.554688 205.710938 C 285.367188 205.710938 284.402344 204.746094 284.402344 203.554688 L 284.402344 190.171875 C 284.402344 188.980469 285.367188 188.015625 286.554688 188.015625 " fill-opacity="1" fill-rule="nonzero"/><path fill="#000000" d="M 286.554688 188.316406 C 285.535156 188.316406 284.703125 189.148438 284.703125 190.171875 L 284.703125 203.554688 C 284.703125 204.578125 285.535156 205.410156 286.554688 205.410156 L 372.492188 205.410156 C 373.515625 205.410156 374.347656 204.578125 374.347656 203.554688 L 374.347656 190.171875 C 374.347656 189.148438 373.515625 188.316406 372.492188 188.316406 Z M 372.492188 206.011719 L 286.554688 206.011719 C 285.203125 206.011719 284.101562 204.910156 284.101562 203.554688 L 284.101562 190.171875 C 284.101562 188.816406 285.203125 187.714844 286.554688 187.714844 L 372.492188 187.714844 C 373.847656 187.714844 374.945312 188.816406 374.945312 190.171875 L 374.945312 203.554688 C 374.945312 204.910156 373.847656 206.011719 372.492188 206.011719 " fill-opacity="1" fill-rule="nonzero"/><path fill="#000000" d="M 294.035156 202.472656 C 293.871094 202.472656 293.738281 202.335938 293.738281 202.171875 L 293.738281 190.964844 C 293.738281 190.800781 293.871094 190.664062 294.035156 190.664062 C 294.203125 190.664062 294.335938 190.800781 294.335938 190.964844 L 294.335938 202.171875 C 294.335938 202.335938 294.203125 202.472656 294.035156 202.472656 " fill-opacity="1" fill-rule="nonzero"/><path fill="#000000" d="M 300.070312 202.472656 C 299.90625 202.472656 299.769531 202.335938 299.769531 202.171875 L 299.769531 190.964844 C 299.769531 190.800781 299.90625 190.664062 300.070312 190.664062 C 300.238281 190.664062 300.371094 190.800781 300.371094 190.964844 L 300.371094 202.171875 C 300.371094 202.335938 300.238281 202.472656 300.070312 202.472656 " fill-opacity="1" fill-rule="nonzero"/><path fill="#000000" d="M 312.140625 202.472656 C 311.976562 202.472656 311.839844 202.335938 311.839844 202.171875 L 311.839844 190.964844 C 311.839844 190.800781 311.976562 190.664062 312.140625 190.664062 C 312.308594 190.664062 312.441406 190.800781 312.441406 190.964844 L 312.441406 202.171875 C 312.441406 202.335938 312.308594 202.472656 312.140625 202.472656 " fill-opacity="1" fill-rule="nonzero"/><path fill="#000000" d="M 330.246094 202.472656 C 330.078125 202.472656 329.945312 202.335938 329.945312 202.171875 L 329.945312 190.964844 C 329.945312 190.800781 330.078125 190.664062 330.246094 190.664062 C 330.410156 190.664062 330.546875 190.800781 330.546875 190.964844 L 330.546875 202.171875 C 330.546875 202.335938 330.410156 202.472656 330.246094 202.472656 " fill-opacity="1" fill-rule="nonzero"/><path fill="#000000" d="M 336.28125 202.472656 C 336.113281 202.472656 335.980469 202.335938 335.980469 202.171875 L 335.980469 190.964844 C 335.980469 190.800781 336.113281 190.664062 336.28125 190.664062 C 336.445312 190.664062 336.582031 190.800781 336.582031 190.964844 L 336.582031 202.171875 C 336.582031 202.335938 336.445312 202.472656 336.28125 202.472656 " fill-opacity="1" fill-rule="nonzero"/><path fill="#ffffff" d="M 360.421875 276.53125 L 274.488281 276.53125 C 273.296875 276.53125 272.332031 275.566406 272.332031 274.375 L 272.332031 260.992188 C 272.332031 259.800781 273.296875 258.835938 274.488281 258.835938 L 360.421875 258.835938 C 361.613281 258.835938 362.578125 259.800781 362.578125 260.992188 L 362.578125 274.375 C 362.578125 275.566406 361.613281 276.53125 360.421875 276.53125 " fill-opacity="1" fill-rule="nonzero"/><path fill="#000000" d="M 274.488281 259.136719 C 273.464844 259.136719 272.632812 259.96875 272.632812 260.992188 L 272.632812 274.375 C 272.632812 275.398438 273.464844 276.230469 274.488281 276.230469 L 360.421875 276.230469 C 361.445312 276.230469 362.277344 275.398438 362.277344 274.375 L 362.277344 260.992188 C 362.277344 259.96875 361.445312 259.136719 360.421875 259.136719 Z M 360.421875 276.832031 L 274.488281 276.832031 C 273.132812 276.832031 272.03125 275.730469 272.03125 274.375 L 272.03125 260.992188 C 272.03125 259.636719 273.132812 258.535156 274.488281 258.535156 L 360.421875 258.535156 C 361.777344 258.535156 362.878906 259.636719 362.878906 260.992188 L 362.878906 274.375 C 362.878906 275.730469 361.777344 276.832031 360.421875 276.832031 " fill-opacity="1" fill-rule="nonzero"/><path fill="#000000" d="M 352.945312 273.882812 C 352.777344 273.882812 352.644531 273.746094 352.644531 273.582031 L 352.644531 262.375 C 352.644531 262.210938 352.777344 262.074219 352.945312 262.074219 C 353.109375 262.074219 353.242188 262.210938 353.242188 262.375 L 353.242188 273.582031 C 353.242188 273.746094 353.109375 273.882812 352.945312 273.882812 " fill-opacity="1" fill-rule="nonzero"/><path fill="#000000" d="M 346.910156 273.882812 C 346.742188 273.882812 346.609375 273.746094 346.609375 273.582031 L 346.609375 262.375 C 346.609375 262.210938 346.742188 262.074219 346.910156 262.074219 C 347.074219 262.074219 347.210938 262.210938 347.210938 262.375 L 347.210938 273.582031 C 347.210938 273.746094 347.074219 273.882812 346.910156 273.882812 " fill-opacity="1" fill-rule="nonzero"/><path fill="#000000" d="M 334.839844 273.882812 C 334.671875 273.882812 334.539062 273.746094 334.539062 273.582031 L 334.539062 262.375 C 334.539062 262.210938 334.671875 262.074219 334.839844 262.074219 C 335.003906 262.074219 335.140625 262.210938 335.140625 262.375 L 335.140625 273.582031 C 335.140625 273.746094 335.003906 273.882812 334.839844 273.882812 " fill-opacity="1" fill-rule="nonzero"/><path fill="#000000" d="M 316.734375 273.882812 C 316.566406 273.882812 316.433594 273.746094 316.433594 273.582031 L 316.433594 262.375 C 316.433594 262.210938 316.566406 262.074219 316.734375 262.074219 C 316.898438 262.074219 317.035156 262.210938 317.035156 262.375 L 317.035156 273.582031 C 317.035156 273.746094 316.898438 273.882812 316.734375 273.882812 " fill-opacity="1" fill-rule="nonzero"/><path fill="#000000" d="M 310.699219 273.882812 C 310.535156 273.882812 310.398438 273.746094 310.398438 273.582031 L 310.398438 262.375 C 310.398438 262.210938 310.535156 262.074219 310.699219 262.074219 C 310.863281 262.074219 311 262.210938 311 262.375 L 311 273.582031 C 311 273.746094 310.863281 273.882812 310.699219 273.882812 " fill-opacity="1" fill-rule="nonzero"/><path fill="#ffffff" d="M 285.835938 240.988281 L 371.773438 240.988281 C 372.960938 240.988281 373.925781 241.953125 373.925781 243.144531 L 373.925781 256.53125 C 373.925781 257.71875 372.960938 258.683594 371.773438 258.683594 L 285.835938 258.683594 C 284.644531 258.683594 283.679688 257.71875 283.679688 256.53125 L 283.679688 243.144531 C 283.679688 241.953125 284.644531 240.988281 285.835938 240.988281 " fill-opacity="1" fill-rule="nonzero"/><path fill="#000000" d="M 285.835938 241.289062 C 284.8125 241.289062 283.980469 242.121094 283.980469 243.144531 L 283.980469 256.53125 C 283.980469 257.550781 284.8125 258.382812 285.835938 258.382812 L 371.773438 258.382812 C 372.792969 258.382812 373.625 257.550781 373.625 256.53125 L 373.625 243.144531 C 373.625 242.121094 372.792969 241.289062 371.773438 241.289062 Z M 371.773438 258.984375 L 285.835938 258.984375 C 284.480469 258.984375 283.382812 257.882812 283.382812 256.53125 L 283.382812 243.144531 C 283.382812 241.789062 284.480469 240.6875 285.835938 240.6875 L 371.773438 240.6875 C 373.125 240.6875 374.226562 241.789062 374.226562 243.144531 L 374.226562 256.53125 C 374.226562 257.882812 373.125 258.984375 371.773438 258.984375 " fill-opacity="1" fill-rule="nonzero"/><path fill="#000000" d="M 293.316406 255.445312 C 293.148438 255.445312 293.015625 255.3125 293.015625 255.144531 L 293.015625 243.9375 C 293.015625 243.773438 293.148438 243.636719 293.316406 243.636719 C 293.480469 243.636719 293.617188 243.773438 293.617188 243.9375 L 293.617188 255.144531 C 293.617188 255.3125 293.480469 255.445312 293.316406 255.445312 " fill-opacity="1" fill-rule="nonzero"/><path fill="#000000" d="M 299.347656 255.445312 C 299.183594 255.445312 299.050781 255.3125 299.050781 255.144531 L 299.050781 243.9375 C 299.050781 243.773438 299.183594 243.636719 299.347656 243.636719 C 299.515625 243.636719 299.648438 243.773438 299.648438 243.9375 L 299.648438 255.144531 C 299.648438 255.3125 299.515625 255.445312 299.347656 255.445312 " fill-opacity="1" fill-rule="nonzero"/><path fill="#000000" d="M 311.421875 255.445312 C 311.253906 255.445312 311.121094 255.3125 311.121094 255.144531 L 311.121094 243.9375 C 311.121094 243.773438 311.253906 243.636719 311.421875 243.636719 C 311.585938 243.636719 311.71875 243.773438 311.71875 243.9375 L 311.71875 255.144531 C 311.71875 255.3125 311.585938 255.445312 311.421875 255.445312 " fill-opacity="1" fill-rule="nonzero"/><path fill="#000000" d="M 329.523438 255.445312 C 329.359375 255.445312 329.222656 255.3125 329.222656 255.144531 L 329.222656 243.9375 C 329.222656 243.773438 329.359375 243.636719 329.523438 243.636719 C 329.691406 243.636719 329.824219 243.773438 329.824219 243.9375 L 329.824219 255.144531 C 329.824219 255.3125 329.691406 255.445312 329.523438 255.445312 " fill-opacity="1" fill-rule="nonzero"/><path fill="#000000" d="M 335.558594 255.445312 C 335.394531 255.445312 335.257812 255.3125 335.257812 255.144531 L 335.257812 243.9375 C 335.257812 243.773438 335.394531 243.636719 335.558594 243.636719 C 335.726562 243.636719 335.859375 243.773438 335.859375 243.9375 L 335.859375 255.144531 C 335.859375 255.3125 335.726562 255.445312 335.558594 255.445312 " fill-opacity="1" fill-rule="nonzero"/><path fill="#ffffff" d="M 362.644531 240.835938 L 276.710938 240.835938 C 275.519531 240.835938 274.554688 239.871094 274.554688 238.683594 L 274.554688 225.296875 C 274.554688 224.105469 275.519531 223.140625 276.710938 223.140625 L 362.644531 223.140625 C 363.835938 223.140625 364.800781 224.105469 364.800781 225.296875 L 364.800781 238.683594 C 364.800781 239.871094 363.835938 240.835938 362.644531 240.835938 " fill-opacity="1" fill-rule="nonzero"/><path fill="#000000" d="M 276.710938 223.441406 C 275.6875 223.441406 274.855469 224.273438 274.855469 225.296875 L 274.855469 238.683594 C 274.855469 239.707031 275.6875 240.539062 276.710938 240.539062 L 362.644531 240.539062 C 363.667969 240.539062 364.5 239.707031 364.5 238.683594 L 364.5 225.296875 C 364.5 224.273438 363.667969 223.441406 362.644531 223.441406 Z M 362.644531 241.136719 L 276.710938 241.136719 C 275.355469 241.136719 274.253906 240.035156 274.253906 238.683594 L 274.253906 225.296875 C 274.253906 223.941406 275.355469 222.839844 276.710938 222.839844 L 362.644531 222.839844 C 364 222.839844 365.101562 223.941406 365.101562 225.296875 L 365.101562 238.683594 C 365.101562 240.035156 364 241.136719 362.644531 241.136719 " fill-opacity="1" fill-rule="nonzero"/><path fill="#000000" d="M 355.167969 238.1875 C 355 238.1875 354.867188 238.054688 354.867188 237.886719 L 354.867188 226.679688 C 354.867188 226.515625 355 226.378906 355.167969 226.378906 C 355.332031 226.378906 355.464844 226.515625 355.464844 226.679688 L 355.464844 237.886719 C 355.464844 238.054688 355.332031 238.1875 355.167969 238.1875 " fill-opacity="1" fill-rule="nonzero"/><path fill="#000000" d="M 349.128906 238.1875 C 348.964844 238.1875 348.832031 238.054688 348.832031 237.886719 L 348.832031 226.679688 C 348.832031 226.515625 348.964844 226.378906 349.128906 226.378906 C 349.296875 226.378906 349.429688 226.515625 349.429688 226.679688 L 349.429688 237.886719 C 349.429688 238.054688 349.296875 238.1875 349.128906 238.1875 " fill-opacity="1" fill-rule="nonzero"/><path fill="#000000" d="M 337.0625 238.1875 C 336.894531 238.1875 336.761719 238.054688 336.761719 237.886719 L 336.761719 226.679688 C 336.761719 226.515625 336.894531 226.378906 337.0625 226.378906 C 337.226562 226.378906 337.359375 226.515625 337.359375 226.679688 L 337.359375 237.886719 C 337.359375 238.054688 337.226562 238.1875 337.0625 238.1875 " fill-opacity="1" fill-rule="nonzero"/><path fill="#000000" d="M 318.957031 238.1875 C 318.789062 238.1875 318.65625 238.054688 318.65625 237.886719 L 318.65625 226.679688 C 318.65625 226.515625 318.789062 226.378906 318.957031 226.378906 C 319.121094 226.378906 319.257812 226.515625 319.257812 226.679688 L 319.257812 237.886719 C 319.257812 238.054688 319.121094 238.1875 318.957031 238.1875 " fill-opacity="1" fill-rule="nonzero"/><path fill="#000000" d="M 312.921875 238.1875 C 312.753906 238.1875 312.621094 238.054688 312.621094 237.886719 L 312.621094 226.679688 C 312.621094 226.515625 312.753906 226.378906 312.921875 226.378906 C 313.085938 226.378906 313.222656 226.515625 313.222656 226.679688 L 313.222656 237.886719 C 313.222656 238.054688 313.085938 238.1875 312.921875 238.1875 " fill-opacity="1" fill-rule="nonzero"/><path fill="#ffffff" d="M 282.925781 205.824219 L 368.863281 205.824219 C 370.050781 205.824219 371.015625 206.789062 371.015625 207.980469 L 371.015625 221.363281 C 371.015625 222.554688 370.050781 223.519531 368.863281 223.519531 L 282.925781 223.519531 C 281.738281 223.519531 280.773438 222.554688 280.773438 221.363281 L 280.773438 207.980469 C 280.773438 206.789062 281.738281 205.824219 282.925781 205.824219 " fill-opacity="1" fill-rule="nonzero"/><path fill="#000000" d="M 282.925781 206.125 C 281.902344 206.125 281.074219 206.957031 281.074219 207.980469 L 281.074219 221.367188 C 281.074219 222.386719 281.902344 223.21875 282.925781 223.21875 L 368.863281 223.21875 C 369.886719 223.21875 370.71875 222.386719 370.71875 221.367188 L 370.71875 207.980469 C 370.71875 206.957031 369.886719 206.125 368.863281 206.125 Z M 368.863281 223.820312 L 282.925781 223.820312 C 281.574219 223.820312 280.472656 222.71875 280.472656 221.367188 L 280.472656 207.980469 C 280.472656 206.625 281.574219 205.523438 282.925781 205.523438 L 368.863281 205.523438 C 370.214844 205.523438 371.316406 206.625 371.316406 207.980469 L 371.316406 221.367188 C 371.316406 222.71875 370.214844 223.820312 368.863281 223.820312 " fill-opacity="1" fill-rule="nonzero"/><path fill="#000000" d="M 290.40625 220.28125 C 290.238281 220.28125 290.105469 220.148438 290.105469 219.980469 L 290.105469 208.773438 C 290.105469 208.609375 290.238281 208.476562 290.40625 208.476562 C 290.570312 208.476562 290.707031 208.609375 290.707031 208.773438 L 290.707031 219.980469 C 290.707031 220.148438 290.570312 220.28125 290.40625 220.28125 " fill-opacity="1" fill-rule="nonzero"/><path fill="#000000" d="M 296.441406 220.28125 C 296.277344 220.28125 296.140625 220.148438 296.140625 219.980469 L 296.140625 208.773438 C 296.140625 208.609375 296.277344 208.476562 296.441406 208.476562 C 296.609375 208.476562 296.742188 208.609375 296.742188 208.773438 L 296.742188 219.980469 C 296.742188 220.148438 296.609375 220.28125 296.441406 220.28125 " fill-opacity="1" fill-rule="nonzero"/><path fill="#000000" d="M 308.511719 220.28125 C 308.34375 220.28125 308.210938 220.148438 308.210938 219.980469 L 308.210938 208.773438 C 308.210938 208.609375 308.34375 208.476562 308.511719 208.476562 C 308.675781 208.476562 308.808594 208.609375 308.808594 208.773438 L 308.808594 219.980469 C 308.808594 220.148438 308.675781 220.28125 308.511719 220.28125 " fill-opacity="1" fill-rule="nonzero"/><path fill="#000000" d="M 326.613281 220.28125 C 326.449219 220.28125 326.316406 220.148438 326.316406 219.980469 L 326.316406 208.773438 C 326.316406 208.609375 326.449219 208.476562 326.613281 208.476562 C 326.78125 208.476562 326.914062 208.609375 326.914062 208.773438 L 326.914062 219.980469 C 326.914062 220.148438 326.78125 220.28125 326.613281 220.28125 " fill-opacity="1" fill-rule="nonzero"/><path fill="#000000" d="M 332.648438 220.28125 C 332.484375 220.28125 332.351562 220.148438 332.351562 219.980469 L 332.351562 208.773438 C 332.351562 208.609375 332.484375 208.476562 332.648438 208.476562 C 332.816406 208.476562 332.949219 208.609375 332.949219 208.773438 L 332.949219 219.980469 C 332.949219 220.148438 332.816406 220.28125 332.648438 220.28125 " fill-opacity="1" fill-rule="nonzero"/><path fill="#ffffff" d="M 281.472656 276.53125 L 367.410156 276.53125 C 368.601562 276.53125 369.566406 277.496094 369.566406 278.683594 L 369.566406 292.074219 C 369.566406 293.261719 368.601562 294.226562 367.410156 294.226562 L 281.472656 294.226562 C 280.285156 294.226562 279.320312 293.261719 279.320312 292.074219 L 279.320312 278.683594 C 279.320312 277.496094 280.285156 276.53125 281.472656 276.53125 " fill-opacity="1" fill-rule="nonzero"/><path fill="#000000" d="M 281.472656 276.832031 C 280.449219 276.832031 279.621094 277.664062 279.621094 278.683594 L 279.621094 292.074219 C 279.621094 293.09375 280.449219 293.925781 281.472656 293.925781 L 367.410156 293.925781 C 368.433594 293.925781 369.265625 293.09375 369.265625 292.074219 L 369.265625 278.683594 C 369.265625 277.664062 368.433594 276.832031 367.410156 276.832031 Z M 367.410156 294.527344 L 281.472656 294.527344 C 280.121094 294.527344 279.019531 293.425781 279.019531 292.074219 L 279.019531 278.683594 C 279.019531 277.332031 280.121094 276.230469 281.472656 276.230469 L 367.410156 276.230469 C 368.761719 276.230469 369.863281 277.332031 369.863281 278.683594 L 369.863281 292.074219 C 369.863281 293.425781 368.761719 294.527344 367.410156 294.527344 " fill-opacity="1" fill-rule="nonzero"/><path fill="#000000" d="M 288.953125 290.988281 C 288.789062 290.988281 288.652344 290.851562 288.652344 290.6875 L 288.652344 279.480469 C 288.652344 279.3125 288.789062 279.179688 288.953125 279.179688 C 289.121094 279.179688 289.253906 279.3125 289.253906 279.480469 L 289.253906 290.6875 C 289.253906 290.851562 289.121094 290.988281 288.953125 290.988281 " fill-opacity="1" fill-rule="nonzero"/><path fill="#000000" d="M 294.988281 290.988281 C 294.824219 290.988281 294.6875 290.851562 294.6875 290.6875 L 294.6875 279.480469 C 294.6875 279.3125 294.824219 279.179688 294.988281 279.179688 C 295.152344 279.179688 295.289062 279.3125 295.289062 279.480469 L 295.289062 290.6875 C 295.289062 290.851562 295.152344 290.988281 294.988281 290.988281 " fill-opacity="1" fill-rule="nonzero"/><path fill="#000000" d="M 307.058594 290.988281 C 306.890625 290.988281 306.757812 290.851562 306.757812 290.6875 L 306.757812 279.480469 C 306.757812 279.3125 306.890625 279.179688 307.058594 279.179688 C 307.222656 279.179688 307.359375 279.3125 307.359375 279.480469 L 307.359375 290.6875 C 307.359375 290.851562 307.222656 290.988281 307.058594 290.988281 " fill-opacity="1" fill-rule="nonzero"/><path fill="#000000" d="M 325.164062 290.988281 C 324.996094 290.988281 324.863281 290.851562 324.863281 290.6875 L 324.863281 279.480469 C 324.863281 279.3125 324.996094 279.179688 325.164062 279.179688 C 325.328125 279.179688 325.460938 279.3125 325.460938 279.480469 L 325.460938 290.6875 C 325.460938 290.851562 325.328125 290.988281 325.164062 290.988281 " fill-opacity="1" fill-rule="nonzero"/><path fill="#000000" d="M 331.199219 290.988281 C 331.03125 290.988281 330.898438 290.851562 330.898438 290.6875 L 330.898438 279.480469 C 330.898438 279.3125 331.03125 279.179688 331.199219 279.179688 C 331.363281 279.179688 331.5 279.3125 331.5 279.480469 L 331.5 290.6875 C 331.5 290.851562 331.363281 290.988281 331.199219 290.988281 " fill-opacity="1" fill-rule="nonzero"/><g clip-path="url(#07f51cde3e)"><path fill="#ffffff" d="M 277.84375 294.339844 L 363.777344 294.339844 C 364.96875 294.339844 365.933594 295.304688 365.933594 296.496094 L 365.933594 309.882812 C 365.933594 311.070312 364.96875 312.035156 363.777344 312.035156 L 277.84375 312.035156 C 276.652344 312.035156 275.6875 311.070312 275.6875 309.882812 L 275.6875 296.496094 C 275.6875 295.304688 276.652344 294.339844 277.84375 294.339844 " fill-opacity="1" fill-rule="nonzero"/></g><g clip-path="url(#fd1ba408f7)"><path fill="#000000" d="M 277.84375 294.640625 C 276.820312 294.640625 275.988281 295.472656 275.988281 296.496094 L 275.988281 309.882812 C 275.988281 310.902344 276.820312 311.734375 277.84375 311.734375 L 363.777344 311.734375 C 364.800781 311.734375 365.632812 310.902344 365.632812 309.882812 L 365.632812 296.496094 C 365.632812 295.472656 364.800781 294.640625 363.777344 294.640625 Z M 363.777344 312.335938 L 277.84375 312.335938 C 276.488281 312.335938 275.390625 311.234375 275.390625 309.882812 L 275.390625 296.496094 C 275.390625 295.140625 276.488281 294.042969 277.84375 294.042969 L 363.777344 294.042969 C 365.132812 294.042969 366.234375 295.140625 366.234375 296.496094 L 366.234375 309.882812 C 366.234375 311.234375 365.132812 312.335938 363.777344 312.335938 " fill-opacity="1" fill-rule="nonzero"/></g><path fill="#000000" d="M 285.324219 308.796875 C 285.15625 308.796875 285.023438 308.664062 285.023438 308.496094 L 285.023438 297.289062 C 285.023438 297.125 285.15625 296.988281 285.324219 296.988281 C 285.488281 296.988281 285.621094 297.125 285.621094 297.289062 L 285.621094 308.496094 C 285.621094 308.664062 285.488281 308.796875 285.324219 308.796875 " fill-opacity="1" fill-rule="nonzero"/><path fill="#000000" d="M 291.355469 308.796875 C 291.191406 308.796875 291.058594 308.664062 291.058594 308.496094 L 291.058594 297.289062 C 291.058594 297.125 291.191406 296.988281 291.355469 296.988281 C 291.523438 296.988281 291.65625 297.125 291.65625 297.289062 L 291.65625 308.496094 C 291.65625 308.664062 291.523438 308.796875 291.355469 308.796875 " fill-opacity="1" fill-rule="nonzero"/><path fill="#000000" d="M 303.429688 308.796875 C 303.261719 308.796875 303.128906 308.664062 303.128906 308.496094 L 303.128906 297.289062 C 303.128906 297.125 303.261719 296.988281 303.429688 296.988281 C 303.59375 296.988281 303.726562 297.125 303.726562 297.289062 L 303.726562 308.496094 C 303.726562 308.664062 303.59375 308.796875 303.429688 308.796875 " fill-opacity="1" fill-rule="nonzero"/><path fill="#000000" d="M 321.53125 308.796875 C 321.367188 308.796875 321.234375 308.664062 321.234375 308.496094 L 321.234375 297.289062 C 321.234375 297.125 321.367188 296.988281 321.53125 296.988281 C 321.699219 296.988281 321.832031 297.125 321.832031 297.289062 L 321.832031 308.496094 C 321.832031 308.664062 321.699219 308.796875 321.53125 308.796875 " fill-opacity="1" fill-rule="nonzero"/><path fill="#000000" d="M 327.566406 308.796875 C 327.402344 308.796875 327.265625 308.664062 327.265625 308.496094 L 327.265625 297.289062 C 327.265625 297.125 327.402344 296.988281 327.566406 296.988281 C 327.734375 296.988281 327.867188 297.125 327.867188 297.289062 L 327.867188 308.496094 C 327.867188 308.664062 327.734375 308.796875 327.566406 308.796875 " fill-opacity="1" fill-rule="nonzero"/><path fill="#ffffff" d="M 164.960938 241.5625 L 250.894531 241.5625 C 252.085938 241.5625 253.050781 242.523438 253.050781 243.714844 L 253.050781 257.101562 C 253.050781 258.292969 252.085938 259.257812 250.894531 259.257812 L 164.960938 259.257812 C 163.769531 259.257812 162.804688 258.292969 162.804688 257.101562 L 162.804688 243.714844 C 162.804688 242.523438 163.769531 241.5625 164.960938 241.5625 " fill-opacity="1" fill-rule="nonzero"/><path fill="#000000" d="M 164.960938 241.859375 C 163.9375 241.859375 163.105469 242.691406 163.105469 243.714844 L 163.105469 257.101562 C 163.105469 258.125 163.9375 258.957031 164.960938 258.957031 L 250.894531 258.957031 C 251.917969 258.957031 252.75 258.125 252.75 257.101562 L 252.75 243.714844 C 252.75 242.691406 251.917969 241.859375 250.894531 241.859375 Z M 250.894531 259.558594 L 164.960938 259.558594 C 163.605469 259.558594 162.503906 258.453125 162.503906 257.101562 L 162.503906 243.714844 C 162.503906 242.363281 163.605469 241.261719 164.960938 241.261719 L 250.894531 241.261719 C 252.25 241.261719 253.351562 242.363281 253.351562 243.714844 L 253.351562 257.101562 C 253.351562 258.453125 252.25 259.558594 250.894531 259.558594 " fill-opacity="1" fill-rule="nonzero"/><path fill="#000000" d="M 172.4375 256.015625 C 172.273438 256.015625 172.136719 255.882812 172.136719 255.71875 L 172.136719 244.511719 C 172.136719 244.34375 172.273438 244.210938 172.4375 244.210938 C 172.605469 244.210938 172.738281 244.34375 172.738281 244.511719 L 172.738281 255.71875 C 172.738281 255.882812 172.605469 256.015625 172.4375 256.015625 " fill-opacity="1" fill-rule="nonzero"/><path fill="#000000" d="M 178.472656 256.015625 C 178.308594 256.015625 178.171875 255.882812 178.171875 255.71875 L 178.171875 244.511719 C 178.171875 244.34375 178.308594 244.210938 178.472656 244.210938 C 178.640625 244.210938 178.773438 244.34375 178.773438 244.511719 L 178.773438 255.71875 C 178.773438 255.882812 178.640625 256.015625 178.472656 256.015625 " fill-opacity="1" fill-rule="nonzero"/><path fill="#000000" d="M 190.542969 256.015625 C 190.378906 256.015625 190.242188 255.882812 190.242188 255.71875 L 190.242188 244.511719 C 190.242188 244.34375 190.378906 244.210938 190.542969 244.210938 C 190.707031 244.210938 190.84375 244.34375 190.84375 244.511719 L 190.84375 255.71875 C 190.84375 255.882812 190.707031 256.015625 190.542969 256.015625 " fill-opacity="1" fill-rule="nonzero"/><path fill="#000000" d="M 208.648438 256.015625 C 208.484375 256.015625 208.347656 255.882812 208.347656 255.71875 L 208.347656 244.511719 C 208.347656 244.34375 208.484375 244.210938 208.648438 244.210938 C 208.8125 244.210938 208.949219 244.34375 208.949219 244.511719 L 208.949219 255.71875 C 208.949219 255.882812 208.8125 256.015625 208.648438 256.015625 " fill-opacity="1" fill-rule="nonzero"/><path fill="#000000" d="M 214.683594 256.015625 C 214.515625 256.015625 214.382812 255.882812 214.382812 255.71875 L 214.382812 244.511719 C 214.382812 244.34375 214.515625 244.210938 214.683594 244.210938 C 214.847656 244.210938 214.984375 244.34375 214.984375 244.511719 L 214.984375 255.71875 C 214.984375 255.882812 214.847656 256.015625 214.683594 256.015625 " fill-opacity="1" fill-rule="nonzero"/><path fill="#ffffff" d="M 255.441406 276.757812 L 169.503906 276.757812 C 168.3125 276.757812 167.347656 275.792969 167.347656 274.601562 L 167.347656 261.214844 C 167.347656 260.027344 168.3125 259.0625 169.503906 259.0625 L 255.441406 259.0625 C 256.628906 259.0625 257.59375 260.027344 257.59375 261.214844 L 257.59375 274.601562 C 257.59375 275.792969 256.628906 276.757812 255.441406 276.757812 " fill-opacity="1" fill-rule="nonzero"/><path fill="#000000" d="M 169.503906 259.363281 C 168.480469 259.363281 167.648438 260.195312 167.648438 261.214844 L 167.648438 274.601562 C 167.648438 275.625 168.480469 276.457031 169.503906 276.457031 L 255.441406 276.457031 C 256.460938 276.457031 257.292969 275.625 257.292969 274.601562 L 257.292969 261.214844 C 257.292969 260.195312 256.460938 259.363281 255.441406 259.363281 Z M 255.441406 277.058594 L 169.503906 277.058594 C 168.148438 277.058594 167.046875 275.957031 167.046875 274.601562 L 167.046875 261.214844 C 167.046875 259.863281 168.148438 258.761719 169.503906 258.761719 L 255.441406 258.761719 C 256.792969 258.761719 257.894531 259.863281 257.894531 261.214844 L 257.894531 274.601562 C 257.894531 275.957031 256.792969 277.058594 255.441406 277.058594 " fill-opacity="1" fill-rule="nonzero"/><path fill="#000000" d="M 247.960938 274.109375 C 247.792969 274.109375 247.660156 273.972656 247.660156 273.808594 L 247.660156 262.601562 C 247.660156 262.4375 247.792969 262.300781 247.960938 262.300781 C 248.125 262.300781 248.257812 262.4375 248.257812 262.601562 L 248.257812 273.808594 C 248.257812 273.972656 248.125 274.109375 247.960938 274.109375 " fill-opacity="1" fill-rule="nonzero"/><path fill="#000000" d="M 241.925781 274.109375 C 241.761719 274.109375 241.625 273.972656 241.625 273.808594 L 241.625 262.601562 C 241.625 262.4375 241.761719 262.300781 241.925781 262.300781 C 242.089844 262.300781 242.226562 262.4375 242.226562 262.601562 L 242.226562 273.808594 C 242.226562 273.972656 242.089844 274.109375 241.925781 274.109375 " fill-opacity="1" fill-rule="nonzero"/><path fill="#000000" d="M 229.855469 274.109375 C 229.6875 274.109375 229.554688 273.972656 229.554688 273.808594 L 229.554688 262.601562 C 229.554688 262.4375 229.6875 262.300781 229.855469 262.300781 C 230.019531 262.300781 230.15625 262.4375 230.15625 262.601562 L 230.15625 273.808594 C 230.15625 273.972656 230.019531 274.109375 229.855469 274.109375 " fill-opacity="1" fill-rule="nonzero"/><path fill="#000000" d="M 211.75 274.109375 C 211.585938 274.109375 211.449219 273.972656 211.449219 273.808594 L 211.449219 262.601562 C 211.449219 262.4375 211.585938 262.300781 211.75 262.300781 C 211.917969 262.300781 212.050781 262.4375 212.050781 262.601562 L 212.050781 273.808594 C 212.050781 273.972656 211.917969 274.109375 211.75 274.109375 " fill-opacity="1" fill-rule="nonzero"/><path fill="#000000" d="M 205.714844 274.109375 C 205.550781 274.109375 205.414062 273.972656 205.414062 273.808594 L 205.414062 262.601562 C 205.414062 262.4375 205.550781 262.300781 205.714844 262.300781 C 205.878906 262.300781 206.015625 262.4375 206.015625 262.601562 L 206.015625 273.808594 C 206.015625 273.972656 205.878906 274.109375 205.714844 274.109375 " fill-opacity="1" fill-rule="nonzero"/><path fill="#ffffff" d="M 162.804688 276.5625 L 248.742188 276.5625 C 249.933594 276.5625 250.898438 277.527344 250.898438 278.71875 L 250.898438 292.105469 C 250.898438 293.292969 249.933594 294.257812 248.742188 294.257812 L 162.804688 294.257812 C 161.617188 294.257812 160.652344 293.292969 160.652344 292.105469 L 160.652344 278.71875 C 160.652344 277.527344 161.617188 276.5625 162.804688 276.5625 " fill-opacity="1" fill-rule="nonzero"/><path fill="#000000" d="M 162.804688 276.863281 C 161.785156 276.863281 160.949219 277.695312 160.949219 278.71875 L 160.949219 292.105469 C 160.949219 293.128906 161.785156 293.957031 162.804688 293.957031 L 248.742188 293.957031 C 249.765625 293.957031 250.597656 293.128906 250.597656 292.105469 L 250.597656 278.71875 C 250.597656 277.695312 249.765625 276.863281 248.742188 276.863281 Z M 248.742188 294.558594 L 162.804688 294.558594 C 161.453125 294.558594 160.351562 293.457031 160.351562 292.105469 L 160.351562 278.71875 C 160.351562 277.363281 161.453125 276.261719 162.804688 276.261719 L 248.742188 276.261719 C 250.097656 276.261719 251.195312 277.363281 251.195312 278.71875 L 251.195312 292.105469 C 251.195312 293.457031 250.097656 294.558594 248.742188 294.558594 " fill-opacity="1" fill-rule="nonzero"/><path fill="#000000" d="M 170.285156 291.019531 C 170.121094 291.019531 169.984375 290.886719 169.984375 290.71875 L 169.984375 279.511719 C 169.984375 279.347656 170.121094 279.210938 170.285156 279.210938 C 170.449219 279.210938 170.585938 279.347656 170.585938 279.511719 L 170.585938 290.71875 C 170.585938 290.886719 170.449219 291.019531 170.285156 291.019531 " fill-opacity="1" fill-rule="nonzero"/><path fill="#000000" d="M 176.320312 291.019531 C 176.152344 291.019531 176.019531 290.886719 176.019531 290.71875 L 176.019531 279.511719 C 176.019531 279.347656 176.152344 279.210938 176.320312 279.210938 C 176.488281 279.210938 176.621094 279.347656 176.621094 279.511719 L 176.621094 290.71875 C 176.621094 290.886719 176.488281 291.019531 176.320312 291.019531 " fill-opacity="1" fill-rule="nonzero"/><path fill="#000000" d="M 188.390625 291.019531 C 188.222656 291.019531 188.089844 290.886719 188.089844 290.71875 L 188.089844 279.511719 C 188.089844 279.347656 188.222656 279.210938 188.390625 279.210938 C 188.554688 279.210938 188.691406 279.347656 188.691406 279.511719 L 188.691406 290.71875 C 188.691406 290.886719 188.554688 291.019531 188.390625 291.019531 " fill-opacity="1" fill-rule="nonzero"/><path fill="#000000" d="M 206.496094 291.019531 C 206.328125 291.019531 206.195312 290.886719 206.195312 290.71875 L 206.195312 279.511719 C 206.195312 279.347656 206.328125 279.210938 206.496094 279.210938 C 206.660156 279.210938 206.796875 279.347656 206.796875 279.511719 L 206.796875 290.71875 C 206.796875 290.886719 206.660156 291.019531 206.496094 291.019531 " fill-opacity="1" fill-rule="nonzero"/><path fill="#000000" d="M 212.527344 291.019531 C 212.363281 291.019531 212.230469 290.886719 212.230469 290.71875 L 212.230469 279.511719 C 212.230469 279.347656 212.363281 279.210938 212.527344 279.210938 C 212.695312 279.210938 212.828125 279.347656 212.828125 279.511719 L 212.828125 290.71875 C 212.828125 290.886719 212.695312 291.019531 212.527344 291.019531 " fill-opacity="1" fill-rule="nonzero"/><path fill="#ffffff" d="M 255.441406 311.761719 L 169.503906 311.761719 C 168.3125 311.761719 167.347656 310.796875 167.347656 309.605469 L 167.347656 296.21875 C 167.347656 295.027344 168.3125 294.0625 169.503906 294.0625 L 255.441406 294.0625 C 256.628906 294.0625 257.59375 295.027344 257.59375 296.21875 L 257.59375 309.605469 C 257.59375 310.796875 256.628906 311.761719 255.441406 311.761719 " fill-opacity="1" fill-rule="nonzero"/><g clip-path="url(#087ff0f001)"><path fill="#000000" d="M 169.503906 294.363281 C 168.480469 294.363281 167.648438 295.195312 167.648438 296.21875 L 167.648438 309.605469 C 167.648438 310.628906 168.480469 311.460938 169.503906 311.460938 L 255.441406 311.460938 C 256.460938 311.460938 257.292969 310.628906 257.292969 309.605469 L 257.292969 296.21875 C 257.292969 295.195312 256.460938 294.363281 255.441406 294.363281 Z M 255.441406 312.058594 L 169.503906 312.058594 C 168.148438 312.058594 167.046875 310.957031 167.046875 309.605469 L 167.046875 296.21875 C 167.046875 294.863281 168.148438 293.765625 169.503906 293.765625 L 255.441406 293.765625 C 256.792969 293.765625 257.894531 294.863281 257.894531 296.21875 L 257.894531 309.605469 C 257.894531 310.957031 256.792969 312.058594 255.441406 312.058594 " fill-opacity="1" fill-rule="nonzero"/></g><path fill="#000000" d="M 247.960938 309.109375 C 247.792969 309.109375 247.660156 308.976562 247.660156 308.808594 L 247.660156 297.601562 C 247.660156 297.4375 247.792969 297.304688 247.960938 297.304688 C 248.125 297.304688 248.257812 297.4375 248.257812 297.601562 L 248.257812 308.808594 C 248.257812 308.976562 248.125 309.109375 247.960938 309.109375 " fill-opacity="1" fill-rule="nonzero"/><path fill="#000000" d="M 241.925781 309.109375 C 241.761719 309.109375 241.625 308.976562 241.625 308.808594 L 241.625 297.601562 C 241.625 297.4375 241.761719 297.304688 241.925781 297.304688 C 242.089844 297.304688 242.226562 297.4375 242.226562 297.601562 L 242.226562 308.808594 C 242.226562 308.976562 242.089844 309.109375 241.925781 309.109375 " fill-opacity="1" fill-rule="nonzero"/><path fill="#000000" d="M 229.855469 309.109375 C 229.6875 309.109375 229.554688 308.976562 229.554688 308.808594 L 229.554688 297.601562 C 229.554688 297.4375 229.6875 297.304688 229.855469 297.304688 C 230.019531 297.304688 230.15625 297.4375 230.15625 297.601562 L 230.15625 308.808594 C 230.15625 308.976562 230.019531 309.109375 229.855469 309.109375 " fill-opacity="1" fill-rule="nonzero"/><path fill="#000000" d="M 211.75 309.109375 C 211.585938 309.109375 211.449219 308.976562 211.449219 308.808594 L 211.449219 297.601562 C 211.449219 297.4375 211.585938 297.304688 211.75 297.304688 C 211.917969 297.304688 212.050781 297.4375 212.050781 297.601562 L 212.050781 308.808594 C 212.050781 308.976562 211.917969 309.109375 211.75 309.109375 " fill-opacity="1" fill-rule="nonzero"/><path fill="#000000" d="M 205.714844 309.109375 C 205.550781 309.109375 205.414062 308.976562 205.414062 308.808594 L 205.414062 297.601562 C 205.414062 297.4375 205.550781 297.304688 205.714844 297.304688 C 205.878906 297.304688 206.015625 297.4375 206.015625 297.601562 L 206.015625 308.808594 C 206.015625 308.976562 205.878906 309.109375 205.714844 309.109375 " fill-opacity="1" fill-rule="nonzero"/><path fill="#ffffff" d="M 172.324219 206.40625 L 258.257812 206.40625 C 259.449219 206.40625 260.414062 207.371094 260.414062 208.5625 L 260.414062 221.945312 C 260.414062 223.136719 259.449219 224.101562 258.257812 224.101562 L 172.324219 224.101562 C 171.132812 224.101562 170.167969 223.136719 170.167969 221.945312 L 170.167969 208.5625 C 170.167969 207.371094 171.132812 206.40625 172.324219 206.40625 " fill-opacity="1" fill-rule="nonzero"/><path fill="#000000" d="M 172.324219 206.707031 C 171.300781 206.707031 170.46875 207.539062 170.46875 208.5625 L 170.46875 221.945312 C 170.46875 222.96875 171.300781 223.800781 172.324219 223.800781 L 258.257812 223.800781 C 259.28125 223.800781 260.113281 222.96875 260.113281 221.945312 L 260.113281 208.5625 C 260.113281 207.539062 259.28125 206.707031 258.257812 206.707031 Z M 258.257812 224.402344 L 172.324219 224.402344 C 170.96875 224.402344 169.867188 223.300781 169.867188 221.945312 L 169.867188 208.5625 C 169.867188 207.207031 170.96875 206.105469 172.324219 206.105469 L 258.257812 206.105469 C 259.613281 206.105469 260.714844 207.207031 260.714844 208.5625 L 260.714844 221.945312 C 260.714844 223.300781 259.613281 224.402344 258.257812 224.402344 " fill-opacity="1" fill-rule="nonzero"/><path fill="#000000" d="M 179.800781 220.863281 C 179.636719 220.863281 179.5 220.726562 179.5 220.5625 L 179.5 209.355469 C 179.5 209.191406 179.636719 209.054688 179.800781 209.054688 C 179.96875 209.054688 180.101562 209.191406 180.101562 209.355469 L 180.101562 220.5625 C 180.101562 220.726562 179.96875 220.863281 179.800781 220.863281 " fill-opacity="1" fill-rule="nonzero"/><path fill="#000000" d="M 185.835938 220.863281 C 185.671875 220.863281 185.535156 220.726562 185.535156 220.5625 L 185.535156 209.355469 C 185.535156 209.191406 185.671875 209.054688 185.835938 209.054688 C 186.003906 209.054688 186.136719 209.191406 186.136719 209.355469 L 186.136719 220.5625 C 186.136719 220.726562 186.003906 220.863281 185.835938 220.863281 " fill-opacity="1" fill-rule="nonzero"/><path fill="#000000" d="M 197.90625 220.863281 C 197.742188 220.863281 197.605469 220.726562 197.605469 220.5625 L 197.605469 209.355469 C 197.605469 209.191406 197.742188 209.054688 197.90625 209.054688 C 198.074219 209.054688 198.207031 209.191406 198.207031 209.355469 L 198.207031 220.5625 C 198.207031 220.726562 198.074219 220.863281 197.90625 220.863281 " fill-opacity="1" fill-rule="nonzero"/><path fill="#000000" d="M 216.011719 220.863281 C 215.847656 220.863281 215.710938 220.726562 215.710938 220.5625 L 215.710938 209.355469 C 215.710938 209.191406 215.847656 209.054688 216.011719 209.054688 C 216.179688 209.054688 216.3125 209.191406 216.3125 209.355469 L 216.3125 220.5625 C 216.3125 220.726562 216.179688 220.863281 216.011719 220.863281 " fill-opacity="1" fill-rule="nonzero"/><path fill="#000000" d="M 222.046875 220.863281 C 221.878906 220.863281 221.746094 220.726562 221.746094 220.5625 L 221.746094 209.355469 C 221.746094 209.191406 221.878906 209.054688 222.046875 209.054688 C 222.210938 209.054688 222.347656 209.191406 222.347656 209.355469 L 222.347656 220.5625 C 222.347656 220.726562 222.210938 220.863281 222.046875 220.863281 " fill-opacity="1" fill-rule="nonzero"/><path fill="#ffffff" d="M 252.875 241.632812 L 166.9375 241.632812 C 165.746094 241.632812 164.785156 240.667969 164.785156 239.480469 L 164.785156 226.09375 C 164.785156 224.90625 165.746094 223.941406 166.9375 223.941406 L 252.875 223.941406 C 254.0625 223.941406 255.027344 224.90625 255.027344 226.09375 L 255.027344 239.480469 C 255.027344 240.667969 254.0625 241.632812 252.875 241.632812 " fill-opacity="1" fill-rule="nonzero"/><path fill="#000000" d="M 166.9375 224.238281 C 165.914062 224.238281 165.082031 225.070312 165.082031 226.09375 L 165.082031 239.480469 C 165.082031 240.5 165.914062 241.335938 166.9375 241.335938 L 252.875 241.335938 C 253.894531 241.335938 254.726562 240.5 254.726562 239.480469 L 254.726562 226.09375 C 254.726562 225.070312 253.894531 224.238281 252.875 224.238281 Z M 252.875 241.933594 L 166.9375 241.933594 C 165.585938 241.933594 164.480469 240.832031 164.480469 239.480469 L 164.480469 226.09375 C 164.480469 224.742188 165.585938 223.640625 166.9375 223.640625 L 252.875 223.640625 C 254.226562 223.640625 255.328125 224.742188 255.328125 226.09375 L 255.328125 239.480469 C 255.328125 240.832031 254.226562 241.933594 252.875 241.933594 " fill-opacity="1" fill-rule="nonzero"/><path fill="#000000" d="M 245.394531 238.984375 C 245.226562 238.984375 245.09375 238.851562 245.09375 238.6875 L 245.09375 227.476562 C 245.09375 227.3125 245.226562 227.179688 245.394531 227.179688 C 245.558594 227.179688 245.691406 227.3125 245.691406 227.476562 L 245.691406 238.6875 C 245.691406 238.851562 245.558594 238.984375 245.394531 238.984375 " fill-opacity="1" fill-rule="nonzero"/><path fill="#000000" d="M 239.359375 238.984375 C 239.191406 238.984375 239.058594 238.851562 239.058594 238.6875 L 239.058594 227.476562 C 239.058594 227.3125 239.191406 227.179688 239.359375 227.179688 C 239.523438 227.179688 239.660156 227.3125 239.660156 227.476562 L 239.660156 238.6875 C 239.660156 238.851562 239.523438 238.984375 239.359375 238.984375 " fill-opacity="1" fill-rule="nonzero"/><path fill="#000000" d="M 227.289062 238.984375 C 227.121094 238.984375 226.988281 238.851562 226.988281 238.6875 L 226.988281 227.476562 C 226.988281 227.3125 227.121094 227.179688 227.289062 227.179688 C 227.453125 227.179688 227.589844 227.3125 227.589844 227.476562 L 227.589844 238.6875 C 227.589844 238.851562 227.453125 238.984375 227.289062 238.984375 " fill-opacity="1" fill-rule="nonzero"/><path fill="#000000" d="M 209.183594 238.984375 C 209.019531 238.984375 208.882812 238.851562 208.882812 238.6875 L 208.882812 227.476562 C 208.882812 227.3125 209.019531 227.179688 209.183594 227.179688 C 209.351562 227.179688 209.484375 227.3125 209.484375 227.476562 L 209.484375 238.6875 C 209.484375 238.851562 209.351562 238.984375 209.183594 238.984375 " fill-opacity="1" fill-rule="nonzero"/><path fill="#000000" d="M 203.148438 238.984375 C 202.984375 238.984375 202.847656 238.851562 202.847656 238.6875 L 202.847656 227.476562 C 202.847656 227.3125 202.984375 227.179688 203.148438 227.179688 C 203.3125 227.179688 203.449219 227.3125 203.449219 227.476562 L 203.449219 238.6875 C 203.449219 238.851562 203.3125 238.984375 203.148438 238.984375 " fill-opacity="1" fill-rule="nonzero"/><path fill="#ffffff" d="M 126.050781 275.164062 L 37.054688 275.164062 C 35.867188 275.164062 34.902344 274.199219 34.902344 273.011719 L 34.902344 259.023438 C 34.902344 257.835938 35.867188 256.871094 37.054688 256.871094 L 126.050781 256.871094 C 127.238281 256.871094 128.203125 257.835938 128.203125 259.023438 L 128.203125 273.011719 C 128.203125 274.199219 127.238281 275.164062 126.050781 275.164062 " fill-opacity="1" fill-rule="nonzero"/><path fill="#000000" d="M 37.054688 257.171875 C 36.035156 257.171875 35.203125 258.003906 35.203125 259.023438 L 35.203125 273.011719 C 35.203125 274.035156 36.035156 274.863281 37.054688 274.863281 L 126.050781 274.863281 C 127.074219 274.863281 127.90625 274.035156 127.90625 273.011719 L 127.90625 259.023438 C 127.90625 258.003906 127.074219 257.171875 126.050781 257.171875 Z M 126.050781 275.464844 L 37.054688 275.464844 C 35.703125 275.464844 34.601562 274.363281 34.601562 273.011719 L 34.601562 259.023438 C 34.601562 257.671875 35.703125 256.570312 37.054688 256.570312 L 126.050781 256.570312 C 127.402344 256.570312 128.503906 257.671875 128.503906 259.023438 L 128.503906 273.011719 C 128.503906 274.363281 127.402344 275.464844 126.050781 275.464844 " fill-opacity="1" fill-rule="nonzero"/><path fill="#000000" d="M 118.246094 272.414062 C 118.078125 272.414062 117.945312 272.28125 117.945312 272.117188 L 117.945312 260.53125 C 117.945312 260.363281 118.078125 260.230469 118.246094 260.230469 C 118.410156 260.230469 118.546875 260.363281 118.546875 260.53125 L 118.546875 272.117188 C 118.546875 272.28125 118.410156 272.414062 118.246094 272.414062 " fill-opacity="1" fill-rule="nonzero"/><path fill="#000000" d="M 112.003906 272.414062 C 111.839844 272.414062 111.703125 272.28125 111.703125 272.117188 L 111.703125 260.53125 C 111.703125 260.363281 111.839844 260.230469 112.003906 260.230469 C 112.171875 260.230469 112.304688 260.363281 112.304688 260.53125 L 112.304688 272.117188 C 112.304688 272.28125 112.171875 272.414062 112.003906 272.414062 " fill-opacity="1" fill-rule="nonzero"/><path fill="#000000" d="M 99.527344 272.414062 C 99.359375 272.414062 99.226562 272.28125 99.226562 272.117188 L 99.226562 260.53125 C 99.226562 260.363281 99.359375 260.230469 99.527344 260.230469 C 99.691406 260.230469 99.828125 260.363281 99.828125 260.53125 L 99.828125 272.117188 C 99.828125 272.28125 99.691406 272.414062 99.527344 272.414062 " fill-opacity="1" fill-rule="nonzero"/><path fill="#000000" d="M 80.808594 272.414062 C 80.640625 272.414062 80.507812 272.28125 80.507812 272.117188 L 80.507812 260.53125 C 80.507812 260.363281 80.640625 260.230469 80.808594 260.230469 C 80.972656 260.230469 81.109375 260.363281 81.109375 260.53125 L 81.109375 272.117188 C 81.109375 272.28125 80.972656 272.414062 80.808594 272.414062 " fill-opacity="1" fill-rule="nonzero"/><path fill="#000000" d="M 74.570312 272.414062 C 74.402344 272.414062 74.269531 272.28125 74.269531 272.117188 L 74.269531 260.53125 C 74.269531 260.363281 74.402344 260.230469 74.570312 260.230469 C 74.734375 260.230469 74.867188 260.363281 74.867188 260.53125 L 74.867188 272.117188 C 74.867188 272.28125 74.734375 272.414062 74.570312 272.414062 " fill-opacity="1" fill-rule="nonzero"/><path fill="#ffffff" d="M 23.742188 238.574219 L 112.738281 238.574219 C 113.925781 238.574219 114.890625 239.539062 114.890625 240.730469 L 114.890625 254.714844 C 114.890625 255.90625 113.925781 256.871094 112.738281 256.871094 L 23.742188 256.871094 C 22.550781 256.871094 21.585938 255.90625 21.585938 254.714844 L 21.585938 240.730469 C 21.585938 239.539062 22.550781 238.574219 23.742188 238.574219 " fill-opacity="1" fill-rule="nonzero"/><path fill="#000000" d="M 23.742188 238.875 C 22.71875 238.875 21.886719 239.707031 21.886719 240.730469 L 21.886719 254.714844 C 21.886719 255.738281 22.71875 256.570312 23.742188 256.570312 L 112.738281 256.570312 C 113.757812 256.570312 114.589844 255.738281 114.589844 254.714844 L 114.589844 240.730469 C 114.589844 239.707031 113.757812 238.875 112.738281 238.875 Z M 112.738281 257.171875 L 23.742188 257.171875 C 22.386719 257.171875 21.285156 256.070312 21.285156 254.714844 L 21.285156 240.730469 C 21.285156 239.375 22.386719 238.273438 23.742188 238.273438 L 112.738281 238.273438 C 114.089844 238.273438 115.191406 239.375 115.191406 240.730469 L 115.191406 254.714844 C 115.191406 256.070312 114.089844 257.171875 112.738281 257.171875 " fill-opacity="1" fill-rule="nonzero"/><path fill="#000000" d="M 31.546875 253.511719 C 31.382812 253.511719 31.246094 253.378906 31.246094 253.210938 L 31.246094 241.625 C 31.246094 241.457031 31.382812 241.324219 31.546875 241.324219 C 31.714844 241.324219 31.847656 241.457031 31.847656 241.625 L 31.847656 253.210938 C 31.847656 253.378906 31.714844 253.511719 31.546875 253.511719 " fill-opacity="1" fill-rule="nonzero"/><path fill="#000000" d="M 37.785156 253.511719 C 37.621094 253.511719 37.488281 253.378906 37.488281 253.210938 L 37.488281 241.625 C 37.488281 241.457031 37.621094 241.324219 37.785156 241.324219 C 37.953125 241.324219 38.085938 241.457031 38.085938 241.625 L 38.085938 253.210938 C 38.085938 253.378906 37.953125 253.511719 37.785156 253.511719 " fill-opacity="1" fill-rule="nonzero"/><path fill="#000000" d="M 50.265625 253.511719 C 50.101562 253.511719 49.964844 253.378906 49.964844 253.210938 L 49.964844 241.625 C 49.964844 241.457031 50.101562 241.324219 50.265625 241.324219 C 50.429688 241.324219 50.566406 241.457031 50.566406 241.625 L 50.566406 253.210938 C 50.566406 253.378906 50.429688 253.511719 50.265625 253.511719 " fill-opacity="1" fill-rule="nonzero"/><path fill="#000000" d="M 68.984375 253.511719 C 68.816406 253.511719 68.683594 253.378906 68.683594 253.210938 L 68.683594 241.625 C 68.683594 241.457031 68.816406 241.324219 68.984375 241.324219 C 69.148438 241.324219 69.285156 241.457031 69.285156 241.625 L 69.285156 253.210938 C 69.285156 253.378906 69.148438 253.511719 68.984375 253.511719 " fill-opacity="1" fill-rule="nonzero"/><path fill="#000000" d="M 75.222656 253.511719 C 75.058594 253.511719 74.921875 253.378906 74.921875 253.210938 L 74.921875 241.625 C 74.921875 241.457031 75.058594 241.324219 75.222656 241.324219 C 75.390625 241.324219 75.523438 241.457031 75.523438 241.625 L 75.523438 253.210938 C 75.523438 253.378906 75.390625 253.511719 75.222656 253.511719 " fill-opacity="1" fill-rule="nonzero"/><path fill="#ffffff" d="M 35.21875 275.050781 L 124.214844 275.050781 C 125.40625 275.050781 126.367188 276.015625 126.367188 277.207031 L 126.367188 291.191406 C 126.367188 292.382812 125.40625 293.347656 124.214844 293.347656 L 35.21875 293.347656 C 34.03125 293.347656 33.066406 292.382812 33.066406 291.191406 L 33.066406 277.207031 C 33.066406 276.015625 34.03125 275.050781 35.21875 275.050781 " fill-opacity="1" fill-rule="nonzero"/><path fill="#000000" d="M 35.21875 275.351562 C 34.195312 275.351562 33.363281 276.183594 33.363281 277.207031 L 33.363281 291.191406 C 33.363281 292.214844 34.195312 293.046875 35.21875 293.046875 L 124.214844 293.046875 C 125.238281 293.046875 126.066406 292.214844 126.066406 291.191406 L 126.066406 277.207031 C 126.066406 276.183594 125.238281 275.351562 124.214844 275.351562 Z M 124.214844 293.648438 L 35.21875 293.648438 C 33.867188 293.648438 32.765625 292.546875 32.765625 291.191406 L 32.765625 277.207031 C 32.765625 275.851562 33.867188 274.75 35.21875 274.75 L 124.214844 274.75 C 125.566406 274.75 126.667969 275.851562 126.667969 277.207031 L 126.667969 291.191406 C 126.667969 292.546875 125.566406 293.648438 124.214844 293.648438 " fill-opacity="1" fill-rule="nonzero"/><path fill="#000000" d="M 43.027344 289.988281 C 42.859375 289.988281 42.726562 289.855469 42.726562 289.6875 L 42.726562 278.101562 C 42.726562 277.933594 42.859375 277.800781 43.027344 277.800781 C 43.191406 277.800781 43.324219 277.933594 43.324219 278.101562 L 43.324219 289.6875 C 43.324219 289.855469 43.191406 289.988281 43.027344 289.988281 " fill-opacity="1" fill-rule="nonzero"/><path fill="#000000" d="M 49.265625 289.988281 C 49.097656 289.988281 48.964844 289.855469 48.964844 289.6875 L 48.964844 278.101562 C 48.964844 277.933594 49.097656 277.800781 49.265625 277.800781 C 49.429688 277.800781 49.566406 277.933594 49.566406 278.101562 L 49.566406 289.6875 C 49.566406 289.855469 49.429688 289.988281 49.265625 289.988281 " fill-opacity="1" fill-rule="nonzero"/><path fill="#000000" d="M 61.742188 289.988281 C 61.578125 289.988281 61.445312 289.855469 61.445312 289.6875 L 61.445312 278.101562 C 61.445312 277.933594 61.578125 277.800781 61.742188 277.800781 C 61.910156 277.800781 62.042969 277.933594 62.042969 278.101562 L 62.042969 289.6875 C 62.042969 289.855469 61.910156 289.988281 61.742188 289.988281 " fill-opacity="1" fill-rule="nonzero"/><path fill="#000000" d="M 80.460938 289.988281 C 80.296875 289.988281 80.160156 289.855469 80.160156 289.6875 L 80.160156 278.101562 C 80.160156 277.933594 80.296875 277.800781 80.460938 277.800781 C 80.628906 277.800781 80.761719 277.933594 80.761719 278.101562 L 80.761719 289.6875 C 80.761719 289.855469 80.628906 289.988281 80.460938 289.988281 " fill-opacity="1" fill-rule="nonzero"/><path fill="#000000" d="M 86.703125 289.988281 C 86.535156 289.988281 86.402344 289.855469 86.402344 289.6875 L 86.402344 278.101562 C 86.402344 277.933594 86.535156 277.800781 86.703125 277.800781 C 86.867188 277.800781 87 277.933594 87 278.101562 L 87 289.6875 C 87 289.855469 86.867188 289.988281 86.703125 289.988281 " fill-opacity="1" fill-rule="nonzero"/><path fill="#ffffff" d="M 31.464844 293.464844 L 120.460938 293.464844 C 121.652344 293.464844 122.617188 294.429688 122.617188 295.617188 L 122.617188 309.605469 C 122.617188 310.796875 121.652344 311.761719 120.460938 311.761719 L 31.464844 311.761719 C 30.277344 311.761719 29.3125 310.796875 29.3125 309.605469 L 29.3125 295.617188 C 29.3125 294.429688 30.277344 293.464844 31.464844 293.464844 " fill-opacity="1" fill-rule="nonzero"/><g clip-path="url(#083c5b5eac)"><path fill="#000000" d="M 31.464844 293.765625 C 30.445312 293.765625 29.613281 294.597656 29.613281 295.621094 L 29.613281 309.605469 C 29.613281 310.628906 30.445312 311.460938 31.464844 311.460938 L 120.460938 311.460938 C 121.484375 311.460938 122.316406 310.628906 122.316406 309.605469 L 122.316406 295.621094 C 122.316406 294.597656 121.484375 293.765625 120.460938 293.765625 Z M 120.460938 312.058594 L 31.464844 312.058594 C 30.113281 312.058594 29.011719 310.957031 29.011719 309.605469 L 29.011719 295.621094 C 29.011719 294.265625 30.113281 293.164062 31.464844 293.164062 L 120.460938 293.164062 C 121.8125 293.164062 122.914062 294.265625 122.914062 295.621094 L 122.914062 309.605469 C 122.914062 310.957031 121.8125 312.058594 120.460938 312.058594 " fill-opacity="1" fill-rule="nonzero"/></g><path fill="#000000" d="M 39.273438 308.402344 C 39.105469 308.402344 38.972656 308.265625 38.972656 308.101562 L 38.972656 296.511719 C 38.972656 296.347656 39.105469 296.214844 39.273438 296.214844 C 39.4375 296.214844 39.574219 296.347656 39.574219 296.511719 L 39.574219 308.101562 C 39.574219 308.265625 39.4375 308.402344 39.273438 308.402344 " fill-opacity="1" fill-rule="nonzero"/><path fill="#000000" d="M 45.511719 308.402344 C 45.347656 308.402344 45.210938 308.265625 45.210938 308.101562 L 45.210938 296.511719 C 45.210938 296.347656 45.347656 296.214844 45.511719 296.214844 C 45.675781 296.214844 45.8125 296.347656 45.8125 296.511719 L 45.8125 308.101562 C 45.8125 308.265625 45.675781 308.402344 45.511719 308.402344 " fill-opacity="1" fill-rule="nonzero"/><path fill="#000000" d="M 57.992188 308.402344 C 57.824219 308.402344 57.691406 308.265625 57.691406 308.101562 L 57.691406 296.511719 C 57.691406 296.347656 57.824219 296.214844 57.992188 296.214844 C 58.15625 296.214844 58.289062 296.347656 58.289062 296.511719 L 58.289062 308.101562 C 58.289062 308.265625 58.15625 308.402344 57.992188 308.402344 " fill-opacity="1" fill-rule="nonzero"/><path fill="#000000" d="M 76.707031 308.402344 C 76.542969 308.402344 76.410156 308.265625 76.410156 308.101562 L 76.410156 296.511719 C 76.410156 296.347656 76.542969 296.214844 76.707031 296.214844 C 76.875 296.214844 77.007812 296.347656 77.007812 296.511719 L 77.007812 308.101562 C 77.007812 308.265625 76.875 308.402344 76.707031 308.402344 " fill-opacity="1" fill-rule="nonzero"/><path fill="#000000" d="M 82.949219 308.402344 C 82.78125 308.402344 82.648438 308.265625 82.648438 308.101562 L 82.648438 296.511719 C 82.648438 296.347656 82.78125 296.214844 82.949219 296.214844 C 83.113281 296.214844 83.25 296.347656 83.25 296.511719 L 83.25 308.101562 C 83.25 308.265625 83.113281 308.402344 82.949219 308.402344 " fill-opacity="1" fill-rule="nonzero"/><path fill="#ffffff" d="M 130.445312 191.605469 L 85.71875 197.101562 L 67.285156 204.765625 C 61.65625 222.558594 112.058594 221.496094 112.058594 221.496094 L 85.765625 250.734375 C 83.246094 253.539062 82.882812 257.425781 84.886719 260.539062 C 90.410156 269.128906 102.109375 282.871094 108.109375 289.761719 C 109.597656 291.46875 112.648438 290.878906 113.203125 288.78125 L 116.359375 276.859375 L 153.132812 221.828125 C 162.832031 207.308594 149.304688 189.289062 130.445312 191.605469 " fill-opacity="1" fill-rule="nonzero"/><path fill="#000000" d="M 112.058594 221.199219 C 112.175781 221.199219 112.28125 221.265625 112.332031 221.371094 C 112.378906 221.480469 112.359375 221.609375 112.28125 221.699219 L 85.988281 250.933594 C 83.539062 253.660156 83.203125 257.367188 85.140625 260.375 C 90.589844 268.855469 102.011719 282.304688 108.335938 289.566406 C 108.984375 290.308594 110.027344 290.621094 111.0625 290.378906 C 112.003906 290.160156 112.695312 289.535156 112.914062 288.707031 L 116.066406 276.785156 C 116.078125 276.75 116.089844 276.71875 116.109375 276.691406 L 152.882812 221.660156 C 156.941406 215.585938 157.097656 208.277344 153.300781 202.109375 C 148.773438 194.761719 139.820312 190.753906 130.480469 191.902344 L 130.445312 191.605469 L 130.480469 191.902344 L 85.796875 197.394531 L 67.527344 204.988281 C 66.785156 207.460938 67.136719 209.691406 68.582031 211.617188 C 76.230469 221.832031 111.691406 221.207031 112.050781 221.199219 C 112.054688 221.199219 112.054688 221.199219 112.058594 221.199219 Z M 110.371094 291.058594 C 109.410156 291.058594 108.503906 290.667969 107.882812 289.957031 C 101.550781 282.683594 90.109375 269.210938 84.636719 260.703125 C 82.550781 257.457031 82.90625 253.464844 85.542969 250.53125 L 111.375 221.808594 C 106.214844 221.863281 75.425781 221.757812 68.101562 211.980469 C 66.507812 209.851562 66.136719 207.394531 67 204.671875 C 67.023438 204.589844 67.085938 204.519531 67.167969 204.488281 L 85.601562 196.824219 C 85.628906 196.816406 85.652344 196.808594 85.679688 196.804688 L 130.410156 191.308594 C 139.980469 190.128906 149.164062 194.25 153.8125 201.792969 C 157.734375 208.167969 157.574219 215.71875 153.382812 221.992188 L 116.636719 276.984375 L 113.492188 288.859375 C 113.21875 289.90625 112.359375 290.695312 111.199219 290.964844 C 110.921875 291.027344 110.644531 291.058594 110.371094 291.058594 " fill-opacity="1" fill-rule="nonzero"/><path fill="#000000" d="M 113.484375 276.410156 C 113.410156 276.410156 113.332031 276.378906 113.273438 276.320312 C 104.28125 267.410156 97.183594 257.261719 92.175781 246.160156 C 92.105469 246.011719 92.175781 245.832031 92.328125 245.765625 C 92.480469 245.695312 92.65625 245.765625 92.722656 245.914062 C 97.699219 256.949219 104.757812 267.035156 113.695312 275.898438 C 113.8125 276.011719 113.8125 276.203125 113.699219 276.320312 C 113.640625 276.378906 113.5625 276.410156 113.484375 276.410156 " fill-opacity="1" fill-rule="nonzero"/><path fill="#ffffff" d="M 62.777344 210.054688 L 100.832031 209.203125 C 119.167969 208.796875 135.960938 218.226562 143.390625 233.082031 C 155.570312 257.457031 174.578125 293.230469 188.035156 307.882812 C 189.617188 309.605469 188.015625 312.152344 185.527344 311.863281 L 147.5 307.445312 C 141.355469 306.730469 135.953125 303.496094 132.90625 298.714844 L 97.9375 243.804688 C 97.9375 243.804688 27.914062 246.800781 34.113281 234.515625 C 40.308594 222.230469 62.777344 210.054688 62.777344 210.054688 " fill-opacity="1" fill-rule="nonzero"/><g clip-path="url(#536f10fe77)"><path fill="#000000" d="M 97.9375 243.507812 C 98.042969 243.507812 98.136719 243.558594 98.191406 243.644531 L 133.160156 298.554688 C 136.140625 303.234375 141.515625 306.445312 147.535156 307.144531 L 185.5625 311.566406 C 186.675781 311.691406 187.691406 311.199219 188.148438 310.300781 C 188.527344 309.554688 188.402344 308.726562 187.8125 308.085938 C 174.621094 293.71875 156.226562 259.441406 143.121094 233.21875 C 135.71875 218.40625 119.121094 209.097656 100.839844 209.503906 L 62.855469 210.355469 C 61.53125 211.082031 40.304688 222.910156 34.378906 234.648438 C 33.890625 235.621094 33.902344 236.488281 34.425781 237.292969 C 39.96875 245.882812 97.347656 243.53125 97.925781 243.507812 C 97.929688 243.507812 97.933594 243.507812 97.9375 243.507812 Z M 185.910156 312.1875 C 185.773438 312.1875 185.632812 312.175781 185.496094 312.160156 L 147.464844 307.742188 C 141.265625 307.023438 135.730469 303.707031 132.65625 298.878906 L 97.777344 244.113281 C 93.636719 244.285156 39.546875 246.339844 33.921875 237.617188 C 33.28125 236.632812 33.257812 235.542969 33.84375 234.378906 C 40.011719 222.152344 62.40625 209.914062 62.632812 209.792969 C 62.675781 209.769531 62.722656 209.753906 62.769531 209.753906 L 100.828125 208.90625 C 119.332031 208.503906 136.152344 217.929688 143.65625 232.949219 C 156.746094 259.140625 175.109375 293.367188 188.253906 307.679688 C 189.019531 308.511719 189.179688 309.59375 188.679688 310.574219 C 188.167969 311.582031 187.109375 312.1875 185.910156 312.1875 " fill-opacity="1" fill-rule="nonzero"/></g><path fill="#000000" d="M 112.054688 244.152344 L 99.851562 244.113281 C 99.683594 244.113281 99.550781 243.976562 99.550781 243.8125 C 99.550781 243.644531 99.6875 243.511719 99.851562 243.511719 L 112.058594 243.550781 C 112.222656 243.554688 112.355469 243.6875 112.355469 243.855469 C 112.355469 244.019531 112.222656 244.152344 112.054688 244.152344 " fill-opacity="1" fill-rule="nonzero"/><path fill="#000000" d="M 177.996094 300.371094 C 177.980469 300.371094 177.964844 300.367188 177.949219 300.367188 L 132.078125 293.363281 C 131.910156 293.339844 131.800781 293.1875 131.824219 293.023438 C 131.851562 292.859375 132 292.746094 132.167969 292.769531 L 178.042969 299.773438 C 178.203125 299.796875 178.316406 299.953125 178.292969 300.113281 C 178.269531 300.265625 178.140625 300.371094 177.996094 300.371094 " fill-opacity="1" fill-rule="nonzero"/><path fill="#230b41" d="M 129.753906 191.347656 C 129.753906 191.347656 112.128906 200.105469 102.429688 208.992188 C 84.761719 225.179688 92.980469 244.644531 92.980469 244.644531 C 92.980469 244.644531 71.613281 246.097656 44.078125 243.367188 C 44.078125 243.367188 6.917969 238.324219 17.496094 201.011719 L 65.796875 199.792969 L 129.753906 191.347656 " fill-opacity="1" fill-rule="nonzero"/><path fill="#000000" d="M 34.367188 122.921875 C 39.1875 119.675781 42.316406 119.113281 42.820312 114.699219 C 43.421875 109.480469 44.1875 108.695312 47.847656 105.722656 C 52.199219 102.191406 57.015625 103.320312 58.480469 103.582031 C 63.199219 104.425781 67.808594 107.019531 69.125 107.8125 C 71.304688 109.128906 74.679688 110.832031 75.03125 115.09375 C 75.265625 117.957031 71.582031 121.21875 71.621094 124.808594 C 71.667969 129.230469 69.824219 129.898438 69.648438 133.136719 C 69.363281 138.394531 67.777344 141.035156 70.519531 144.515625 C 74.191406 149.171875 75.597656 155.785156 75.800781 156.953125 C 77.433594 166.417969 40.792969 193.574219 16.964844 180.800781 C 9.015625 176.542969 0.0585938 166.535156 1.171875 157.195312 C 1.316406 155.984375 1.804688 151.882812 4.84375 148.59375 C 6.960938 146.300781 10.84375 143.835938 15.230469 142.839844 C 16.992188 142.441406 18.742188 142.300781 20.464844 140.855469 C 22.070312 139.507812 22.679688 137.851562 22.992188 137.074219 C 24.605469 133.054688 28.984375 126.539062 34.367188 122.921875 " fill-opacity="1" fill-rule="nonzero"/><path fill="#000000" d="M 48.707031 109.527344 C 43.816406 109.664062 38.089844 107.5625 37.667969 99.878906 C 37.25 92.191406 46.148438 89.90625 49.78125 94.941406 C 53.414062 99.96875 52.34375 104.492188 50.808594 107.332031 C 49.269531 110.171875 48.707031 109.527344 48.707031 109.527344 " fill-opacity="1" fill-rule="nonzero"/><path fill="#ffffff" d="M 54.375 127.46875 L 44.984375 146.472656 C 44.984375 146.472656 37.328125 145.363281 39.617188 147.992188 C 43.550781 152.515625 59.039062 161.8125 64.53125 161.460938 C 73.21875 160.898438 71.601562 151.074219 65.128906 148.023438 L 60.488281 147.3125 L 66.390625 131.4375 L 54.375 127.46875 " fill-opacity="1" fill-rule="nonzero"/><path fill="#000000" d="M 60.136719 148.941406 C 60.101562 148.941406 60.066406 148.933594 60.035156 148.921875 C 59.878906 148.867188 59.796875 148.695312 59.855469 148.539062 L 66.003906 131.625 L 54.28125 127.75 C 54.125 127.699219 54.039062 127.53125 54.09375 127.375 C 54.144531 127.214844 54.3125 127.128906 54.472656 127.183594 L 66.484375 131.152344 C 66.5625 131.175781 66.628906 131.230469 66.664062 131.304688 C 66.699219 131.378906 66.703125 131.460938 66.675781 131.539062 L 60.417969 148.742188 C 60.375 148.863281 60.257812 148.941406 60.136719 148.941406 " fill-opacity="1" fill-rule="nonzero"/><path fill="#ffffff" d="M 72.761719 122.394531 C 73.054688 124.878906 72.914062 127.621094 72.105469 129.90625 C 71.300781 132.191406 69.605469 134.230469 67.339844 135.097656 C 65.375 135.847656 63.125 135.667969 61.1875 134.855469 C 59.246094 134.046875 56.691406 131.113281 55.34375 129.5 C 53.273438 130.234375 50.746094 129.375 49.554688 127.53125 C 48.867188 126.464844 48.625 125.050781 49.1875 123.914062 C 49.75 122.777344 51.363281 122.144531 52.605469 122.398438 C 53.28125 122.535156 53.652344 122.855469 54.316406 123.136719 C 55.0625 123.449219 56.683594 123.21875 57.445312 122.953125 C 59.398438 122.277344 67.292969 117.753906 69.835938 111.773438 C 71.144531 114.316406 72.421875 119.53125 72.761719 122.394531 " fill-opacity="1" fill-rule="nonzero"/><path fill="#000000" d="M 55.34375 129.199219 C 55.433594 129.199219 55.515625 129.238281 55.574219 129.308594 C 56.488281 130.402344 59.277344 133.734375 61.300781 134.578125 C 63.289062 135.410156 65.453125 135.496094 67.230469 134.816406 C 69.277344 134.035156 70.996094 132.160156 71.824219 129.808594 C 72.554688 127.734375 72.78125 125.117188 72.464844 122.433594 C 72.132812 119.65625 70.984375 115.042969 69.839844 112.484375 C 66.980469 118.339844 59.402344 122.597656 57.542969 123.238281 C 56.84375 123.480469 55.09375 123.789062 54.203125 123.414062 C 53.949219 123.308594 53.742188 123.199219 53.542969 123.09375 C 53.214844 122.921875 52.933594 122.773438 52.546875 122.691406 C 51.375 122.457031 49.929688 123.085938 49.457031 124.046875 C 48.980469 125.003906 49.121094 126.308594 49.804688 127.367188 C 50.921875 129.089844 53.308594 129.90625 55.242188 129.21875 C 55.277344 129.203125 55.3125 129.199219 55.34375 129.199219 Z M 64.667969 135.871094 C 63.476562 135.871094 62.242188 135.621094 61.070312 135.132812 C 59.640625 134.535156 57.734375 132.808594 55.246094 129.847656 C 53.097656 130.5 50.523438 129.582031 49.300781 127.695312 C 48.492188 126.4375 48.34375 124.941406 48.917969 123.78125 C 49.511719 122.578125 51.226562 121.8125 52.667969 122.105469 C 53.136719 122.203125 53.472656 122.375 53.824219 122.5625 C 54.011719 122.660156 54.207031 122.761719 54.433594 122.859375 C 55.074219 123.128906 56.609375 122.925781 57.34375 122.671875 C 59.144531 122.050781 67.058594 117.542969 69.558594 111.65625 C 69.605469 111.550781 69.707031 111.480469 69.824219 111.472656 C 69.941406 111.472656 70.050781 111.53125 70.101562 111.636719 C 71.394531 114.148438 72.695312 119.304688 73.058594 122.359375 C 73.386719 125.136719 73.152344 127.851562 72.390625 130.007812 C 71.503906 132.527344 69.652344 134.53125 67.445312 135.375 C 66.582031 135.707031 65.640625 135.871094 64.667969 135.871094 " fill-opacity="1" fill-rule="nonzero"/><path fill="#000000" d="M 55.039062 127.847656 C 54.925781 127.847656 54.816406 127.785156 54.765625 127.675781 C 54.324219 126.734375 53.292969 126.109375 52.25 126.164062 C 52.082031 126.167969 51.941406 126.046875 51.933594 125.878906 C 51.925781 125.714844 52.050781 125.574219 52.21875 125.5625 C 53.5 125.503906 54.765625 126.265625 55.3125 127.421875 C 55.382812 127.570312 55.316406 127.75 55.167969 127.820312 C 55.125 127.839844 55.082031 127.847656 55.039062 127.847656 " fill-opacity="1" fill-rule="nonzero"/><path fill="#ffffff" d="M 153.089844 115.53125 C 152.316406 114.109375 150.851562 114.8125 150.851562 114.8125 C 150.769531 112.53125 145.675781 115.042969 145.675781 115.042969 C 146.695312 112.535156 144.363281 113.859375 140.433594 115.621094 C 136.5 117.382812 130.445312 115.824219 126.832031 119.257812 C 125.160156 120.84375 112.324219 145.410156 112.324219 145.410156 L 103.960938 160.257812 C 112.367188 170.503906 125.132812 157.050781 129.480469 153.46875 C 133.289062 143.113281 136.578125 130.808594 137.253906 128.796875 C 138.292969 125.699219 139.332031 124.410156 142.707031 123.207031 C 146.082031 122.007812 152.015625 120.222656 152.105469 118.902344 C 152.171875 117.910156 150.851562 118.089844 150.851562 118.089844 C 150.851562 118.089844 153.863281 116.949219 153.089844 115.53125 " fill-opacity="1" fill-rule="nonzero"/><path fill="#000000" d="M 134.316406 139.0625 C 134.289062 139.0625 134.257812 139.058594 134.230469 139.050781 C 134.074219 139.003906 133.980469 138.839844 134.027344 138.679688 C 134.050781 138.601562 136.300781 130.695312 136.96875 128.703125 C 137.980469 125.683594 138.988281 124.214844 142.605469 122.925781 C 143.148438 122.730469 143.753906 122.523438 144.394531 122.304688 C 147.140625 121.367188 151.742188 119.792969 151.804688 118.878906 C 151.816406 118.679688 151.75 118.59375 151.703125 118.546875 C 151.5 118.355469 151.035156 118.367188 150.890625 118.386719 C 150.738281 118.410156 150.597656 118.308594 150.558594 118.164062 C 150.523438 118.015625 150.601562 117.863281 150.742188 117.808594 C 151.246094 117.617188 152.601562 116.964844 152.871094 116.238281 C 152.945312 116.042969 152.929688 115.863281 152.824219 115.675781 C 152.195312 114.515625 151.027344 115.058594 150.980469 115.082031 C 150.886719 115.125 150.78125 115.117188 150.695312 115.066406 C 150.609375 115.015625 150.554688 114.921875 150.550781 114.820312 C 150.539062 114.484375 150.390625 114.359375 150.28125 114.292969 C 149.492188 113.816406 147.117188 114.664062 145.808594 115.3125 C 145.699219 115.367188 145.566406 115.347656 145.472656 115.261719 C 145.382812 115.175781 145.351562 115.042969 145.398438 114.929688 C 145.722656 114.132812 145.585938 113.992188 145.585938 113.988281 C 145.3125 113.726562 143.460938 114.570312 141.824219 115.316406 C 141.421875 115.503906 141 115.695312 140.554688 115.894531 C 138.925781 116.625 137.007812 116.796875 134.976562 116.976562 C 132.097656 117.230469 129.121094 117.496094 127.039062 119.476562 C 126.6875 119.847656 123.277344 125.792969 121.820312 128.332031 L 121.253906 129.316406 C 121.171875 129.460938 120.988281 129.507812 120.84375 129.425781 C 120.699219 129.34375 120.648438 129.160156 120.734375 129.019531 L 121.300781 128.03125 C 124.363281 122.695312 126.320312 119.328125 126.625 119.039062 C 128.859375 116.917969 131.941406 116.640625 134.921875 116.378906 C 136.902344 116.203125 138.773438 116.035156 140.308594 115.347656 C 140.753906 115.148438 141.175781 114.957031 141.574219 114.773438 C 144.0625 113.636719 145.433594 113.011719 146 113.558594 C 146.238281 113.78125 146.25 114.125 146.175781 114.484375 C 147.300781 113.996094 149.554688 113.15625 150.589844 113.777344 C 150.773438 113.886719 150.984375 114.078125 151.085938 114.40625 C 151.753906 114.234375 152.757812 114.292969 153.355469 115.386719 C 153.539062 115.726562 153.566406 116.09375 153.433594 116.449219 C 153.195312 117.089844 152.476562 117.605469 151.871094 117.941406 C 151.957031 117.984375 152.039062 118.039062 152.109375 118.105469 C 152.261719 118.246094 152.429688 118.5 152.402344 118.921875 C 152.320312 120.136719 149.113281 121.328125 144.585938 122.875 C 143.953125 123.09375 143.347656 123.296875 142.808594 123.492188 C 139.472656 124.675781 138.53125 125.9375 137.539062 128.890625 C 136.871094 130.875 134.625 138.761719 134.601562 138.84375 C 134.566406 138.976562 134.445312 139.0625 134.316406 139.0625 " fill-opacity="1" fill-rule="nonzero"/><path fill="#000000" d="M 141.152344 118.167969 C 141.039062 118.167969 140.929688 118.105469 140.878906 117.992188 C 140.808594 117.84375 140.875 117.664062 141.023438 117.59375 C 142.644531 116.839844 144.160156 115.871094 145.519531 114.722656 C 145.648438 114.613281 145.835938 114.628906 145.945312 114.757812 C 146.050781 114.882812 146.035156 115.074219 145.910156 115.179688 C 144.503906 116.363281 142.949219 117.359375 141.277344 118.140625 C 141.238281 118.160156 141.195312 118.167969 141.152344 118.167969 " fill-opacity="1" fill-rule="nonzero"/><path fill="#000000" d="M 143.597656 119.808594 C 143.488281 119.808594 143.378906 119.746094 143.328125 119.640625 C 143.253906 119.492188 143.316406 119.308594 143.464844 119.238281 C 145.707031 118.152344 147.902344 116.917969 149.988281 115.5625 C 150.15625 115.453125 150.347656 115.332031 150.457031 115.171875 C 150.539062 115.050781 150.5625 114.898438 150.511719 114.8125 C 150.425781 114.671875 150.472656 114.484375 150.613281 114.398438 C 150.753906 114.3125 150.9375 114.359375 151.023438 114.5 C 151.203125 114.792969 151.171875 115.191406 150.949219 115.515625 C 150.773438 115.769531 150.519531 115.933594 150.316406 116.066406 C 148.207031 117.433594 145.988281 118.683594 143.726562 119.777344 C 143.6875 119.796875 143.640625 119.808594 143.597656 119.808594 " fill-opacity="1" fill-rule="nonzero"/><path fill="#000000" d="M 144.570312 121.035156 C 144.441406 121.035156 144.324219 120.957031 144.285156 120.832031 C 144.230469 120.671875 144.316406 120.503906 144.472656 120.449219 C 146.675781 119.730469 148.824219 118.816406 150.867188 117.730469 C 151.015625 117.648438 151.195312 117.707031 151.273438 117.851562 C 151.351562 118 151.296875 118.179688 151.148438 118.257812 C 149.078125 119.359375 146.894531 120.289062 144.660156 121.019531 C 144.628906 121.03125 144.597656 121.035156 144.570312 121.035156 " fill-opacity="1" fill-rule="nonzero"/><path fill="#230b41" d="M 64.320312 147.480469 L 64.503906 147.476562 L 64.320312 147.234375 Z M 64.320312 147.480469 " fill-opacity="1" fill-rule="nonzero"/><path fill="#230b41" d="M 119.453125 129.417969 L 112.335938 139.550781 C 109.15625 144.007812 104.066406 146.710938 98.589844 146.84375 L 64.503906 147.476562 L 64.535156 147.515625 C 62.917969 147.253906 61.453125 147.15625 60.488281 147.3125 C 51.246094 148.195312 44.984375 146.472656 44.984375 146.472656 C 44.984375 146.472656 40.5 145.835938 38.089844 146.199219 C 32.113281 147.097656 27.511719 147.996094 23.503906 152.519531 C 11.371094 166.210938 8.136719 181.816406 8.136719 181.816406 C 7.359375 185.964844 3 209.179688 13.054688 214.859375 C 18.285156 217.816406 25.738281 215.074219 34.292969 211.929688 C 40.371094 209.691406 78.816406 198.273438 78.816406 198.273438 C 78.816406 198.273438 81.253906 170.730469 81.804688 170.457031 C 81.804688 170.457031 81.804688 170.4375 81.804688 170.414062 L 81.835938 170.457031 C 81.835938 170.457031 107.15625 173.542969 119.839844 163.871094 C 127.875 157.742188 137.570312 143.910156 137.570312 143.910156 C 137.570312 143.910156 129.929688 129.824219 119.453125 129.417969 " fill-opacity="1" fill-rule="nonzero"/><path fill="#000000" d="M 28.550781 191.136719 C 28.480469 191.136719 28.40625 191.109375 28.351562 191.058594 C 28.261719 190.980469 28.230469 190.859375 28.265625 190.746094 C 29.261719 187.582031 30.355469 184.347656 31.414062 181.21875 C 32.46875 178.09375 33.5625 174.859375 34.558594 171.703125 C 34.605469 171.546875 34.773438 171.457031 34.933594 171.507812 C 35.089844 171.558594 35.179688 171.726562 35.128906 171.882812 C 34.132812 175.046875 33.039062 178.28125 31.980469 181.410156 C 30.996094 184.328125 29.976562 187.335938 29.039062 190.292969 C 31.054688 189.421875 33.355469 188.535156 35.585938 187.675781 C 38.039062 186.734375 40.574219 185.761719 42.710938 184.808594 C 42.863281 184.738281 43.042969 184.808594 43.109375 184.960938 C 43.175781 185.109375 43.109375 185.289062 42.957031 185.355469 C 40.804688 186.316406 38.261719 187.292969 35.800781 188.238281 C 33.347656 189.179688 30.8125 190.15625 28.671875 191.109375 C 28.632812 191.125 28.59375 191.136719 28.550781 191.136719 " fill-opacity="1" fill-rule="nonzero"/><path fill="#000000" d="M 81.617188 170.023438 C 81.453125 170.023438 81.320312 169.894531 81.320312 169.726562 C 81.292969 166.679688 81.933594 163.597656 83.171875 160.8125 C 83.238281 160.660156 83.414062 160.59375 83.566406 160.660156 C 83.71875 160.726562 83.785156 160.90625 83.71875 161.058594 C 82.515625 163.765625 81.890625 166.761719 81.917969 169.722656 C 81.921875 169.890625 81.785156 170.023438 81.621094 170.023438 C 81.621094 170.023438 81.621094 170.023438 81.617188 170.023438 " fill-opacity="1" fill-rule="nonzero"/><path fill="#000000" d="M 20.019531 216.390625 C 19.84375 216.390625 19.675781 216.386719 19.515625 216.382812 C 18.253906 216.34375 16.984375 216.191406 15.738281 215.925781 C 15.574219 215.890625 15.472656 215.734375 15.503906 215.570312 C 15.539062 215.40625 15.699219 215.304688 15.859375 215.339844 C 17.074219 215.59375 18.308594 215.746094 19.535156 215.78125 C 21.382812 215.839844 24.519531 215.636719 30.476562 213.242188 C 34.898438 211.460938 39.179688 209.132812 43.199219 206.316406 C 43.335938 206.222656 43.519531 206.253906 43.617188 206.390625 C 43.710938 206.527344 43.679688 206.714844 43.542969 206.808594 C 39.484375 209.652344 35.164062 212.003906 30.699219 213.796875 C 25.144531 216.03125 21.972656 216.390625 20.019531 216.390625 " fill-opacity="1" fill-rule="nonzero"/><path fill="#ffffff" d="M 52.648438 180.679688 C 49.6875 181.566406 46.550781 183.203125 43.371094 184.773438 L 43.371094 206.5625 C 50.871094 200.355469 57.503906 194.402344 59.371094 194.40625 L 74.15625 193.21875 C 74.15625 193.21875 66.847656 176.433594 52.648438 180.679688 " fill-opacity="1" fill-rule="nonzero"/><path fill="#000000" d="M 64.226562 194.640625 C 64.101562 194.640625 63.984375 194.5625 63.941406 194.4375 C 63.183594 192.253906 61.46875 190.398438 59.355469 189.46875 C 59.203125 189.402344 59.132812 189.222656 59.199219 189.070312 C 59.265625 188.921875 59.445312 188.851562 59.597656 188.917969 C 61.859375 189.914062 63.695312 191.902344 64.507812 194.242188 C 64.5625 194.398438 64.480469 194.570312 64.324219 194.625 C 64.289062 194.632812 64.257812 194.640625 64.226562 194.640625 " fill-opacity="1" fill-rule="nonzero"/><path fill="#000000" d="M 68.507812 193.78125 C 68.378906 193.78125 68.257812 193.695312 68.21875 193.566406 C 67.421875 190.898438 65.445312 188.597656 62.925781 187.414062 C 62.777344 187.34375 62.714844 187.164062 62.785156 187.011719 C 62.855469 186.863281 63.03125 186.800781 63.183594 186.871094 C 65.851562 188.125 67.949219 190.566406 68.796875 193.394531 C 68.84375 193.550781 68.753906 193.71875 68.59375 193.769531 C 68.566406 193.777344 68.535156 193.78125 68.507812 193.78125 " fill-opacity="1" fill-rule="nonzero"/><path fill="#ae9fcf" d="M 58.425781 156.523438 C 58.425781 157.238281 57.847656 157.820312 57.132812 157.820312 C 56.417969 157.820312 55.835938 157.238281 55.835938 156.523438 C 55.835938 155.804688 56.417969 155.226562 57.132812 155.226562 C 57.847656 155.226562 58.425781 155.804688 58.425781 156.523438 " fill-opacity="1" fill-rule="nonzero"/><path fill="#ae9fcf" d="M 58.914062 161.375 C 58.914062 162.089844 58.332031 162.671875 57.617188 162.671875 C 56.902344 162.671875 56.320312 162.089844 56.320312 161.375 C 56.320312 160.660156 56.902344 160.082031 57.617188 160.082031 C 58.332031 160.082031 58.914062 160.660156 58.914062 161.375 " fill-opacity="1" fill-rule="nonzero"/><path fill="#ae9fcf" d="M 59.535156 166.417969 C 59.535156 167.132812 58.953125 167.710938 58.238281 167.710938 C 57.523438 167.710938 56.945312 167.132812 56.945312 166.417969 C 56.945312 165.699219 57.523438 165.121094 58.238281 165.121094 C 58.953125 165.121094 59.535156 165.699219 59.535156 166.417969 " fill-opacity="1" fill-rule="nonzero"/><path fill="#ffffff" d="M 56.164062 147.589844 L 45.703125 142.183594 L 41.835938 146.085938 C 43.066406 151.5625 48.265625 155.089844 54.53125 154.773438 L 56.164062 147.589844 " fill-opacity="1" fill-rule="nonzero"/><path fill="#ffffff" d="M 56.164062 147.589844 L 62.429688 143.910156 L 64.320312 147.34375 C 64.933594 149.28125 63.6875 152.808594 59.355469 154.484375 L 56.164062 147.589844 " fill-opacity="1" fill-rule="nonzero"/><path fill="#000000" d="M 56.164062 147.886719 C 56.117188 147.886719 56.066406 147.878906 56.023438 147.855469 L 45.761719 142.550781 L 42.050781 146.296875 C 41.933594 146.414062 41.742188 146.417969 41.625 146.300781 C 41.507812 146.183594 41.507812 145.992188 41.625 145.875 L 45.492188 141.972656 C 45.582031 141.878906 45.722656 141.859375 45.839844 141.917969 L 56.152344 147.246094 L 62.277344 143.648438 C 62.347656 143.609375 62.429688 143.597656 62.503906 143.617188 C 62.582031 143.636719 62.648438 143.691406 62.691406 143.761719 L 64.582031 147.085938 C 64.664062 147.230469 64.613281 147.414062 64.46875 147.496094 C 64.328125 147.574219 64.144531 147.527344 64.0625 147.382812 L 62.316406 144.320312 L 56.316406 147.847656 C 56.269531 147.875 56.214844 147.886719 56.164062 147.886719 " fill-opacity="1" fill-rule="nonzero"/><path fill="#000000" d="M 127.125 199.476562 L 55.824219 199.476562 L 55.824219 196.679688 C 55.824219 194.789062 57.351562 193.253906 59.242188 193.253906 L 132.136719 193.253906 L 131.554688 195.429688 C 131.011719 197.4375 129.199219 199.476562 127.125 199.476562 " fill-opacity="1" fill-rule="nonzero"/><path fill="#000000" d="M 129.15625 196.304688 L 86.140625 196.304688 C 84.304688 196.304688 82.953125 194.582031 83.394531 192.796875 L 91.527344 159.96875 C 91.839844 158.707031 92.972656 157.820312 94.269531 157.820312 L 137.285156 157.820312 C 139.125 157.820312 140.472656 159.546875 140.03125 161.328125 L 131.902344 194.15625 C 131.589844 195.417969 130.457031 196.304688 129.15625 196.304688 " fill-opacity="1" fill-rule="nonzero"/><path fill="#ffffff" d="M 126.914062 193.78125 L 87.128906 193.78125 C 86.960938 193.78125 86.828125 193.644531 86.828125 193.480469 C 86.828125 193.3125 86.960938 193.179688 87.128906 193.179688 L 126.914062 193.179688 C 127.082031 193.179688 127.214844 193.3125 127.214844 193.480469 C 127.214844 193.644531 127.082031 193.78125 126.914062 193.78125 " fill-opacity="1" fill-rule="nonzero"/><g clip-path="url(#bc9dac1473)"><path fill="#000000" d="M 313.171875 63.257812 L 279.992188 63.257812 C 279.824219 63.257812 279.691406 63.121094 279.691406 62.957031 C 279.691406 62.789062 279.824219 62.65625 279.992188 62.65625 L 313.171875 62.65625 C 313.339844 62.65625 313.472656 62.789062 313.472656 62.957031 C 313.472656 63.121094 313.339844 63.257812 313.171875 63.257812 " fill-opacity="1" fill-rule="nonzero"/></g><g clip-path="url(#6f6a78500f)"><path fill="#000000" d="M 343.382812 63.257812 L 318.679688 63.257812 C 318.511719 63.257812 318.378906 63.121094 318.378906 62.957031 C 318.378906 62.789062 318.511719 62.65625 318.679688 62.65625 L 343.382812 62.65625 C 343.550781 62.65625 343.683594 62.789062 343.683594 62.957031 C 343.683594 63.121094 343.550781 63.257812 343.382812 63.257812 " fill-opacity="1" fill-rule="nonzero"/></g><path fill="#000000" d="M 343.382812 69.457031 L 331.148438 69.457031 C 330.984375 69.457031 330.847656 69.324219 330.847656 69.15625 C 330.847656 68.992188 330.984375 68.855469 331.148438 68.855469 L 343.382812 68.855469 C 343.550781 68.855469 343.683594 68.992188 343.683594 69.15625 C 343.683594 69.324219 343.550781 69.457031 343.382812 69.457031 " fill-opacity="1" fill-rule="nonzero"/><path fill="#000000" d="M 325.324219 69.457031 L 297.34375 69.457031 C 297.179688 69.457031 297.046875 69.324219 297.046875 69.15625 C 297.046875 68.992188 297.179688 68.855469 297.34375 68.855469 L 325.324219 68.855469 C 325.492188 68.855469 325.625 68.992188 325.625 69.15625 C 325.625 69.324219 325.492188 69.457031 325.324219 69.457031 " fill-opacity="1" fill-rule="nonzero"/><path fill="#000000" d="M 292.734375 69.457031 L 279.992188 69.457031 C 279.824219 69.457031 279.691406 69.324219 279.691406 69.15625 C 279.691406 68.992188 279.824219 68.855469 279.992188 68.855469 L 292.734375 68.855469 C 292.898438 68.855469 293.035156 68.992188 293.035156 69.15625 C 293.035156 69.324219 292.898438 69.457031 292.734375 69.457031 " fill-opacity="1" fill-rule="nonzero"/><path fill="#000000" d="M 343.382812 119.664062 C 343.21875 119.664062 343.082031 119.53125 343.082031 119.363281 L 343.082031 76.121094 L 319.167969 76.121094 C 319 76.121094 318.867188 75.988281 318.867188 75.820312 C 318.867188 75.65625 319 75.523438 319.167969 75.523438 L 343.382812 75.523438 C 343.550781 75.523438 343.683594 75.65625 343.683594 75.820312 L 343.683594 119.363281 C 343.683594 119.53125 343.550781 119.664062 343.382812 119.664062 " fill-opacity="1" fill-rule="nonzero"/><path fill="#000000" d="M 314.570312 76.121094 L 279.992188 76.121094 C 279.824219 76.121094 279.691406 75.988281 279.691406 75.820312 C 279.691406 75.65625 279.824219 75.523438 279.992188 75.523438 L 314.570312 75.523438 C 314.738281 75.523438 314.871094 75.65625 314.871094 75.820312 C 314.871094 75.988281 314.738281 76.121094 314.570312 76.121094 " fill-opacity="1" fill-rule="nonzero"/><path fill="#000000" d="M 254.914062 95.261719 L 236.257812 95.261719 C 236.089844 95.261719 235.957031 95.125 235.957031 94.960938 C 235.957031 94.792969 236.089844 94.660156 236.257812 94.660156 L 254.613281 94.660156 L 254.613281 69.15625 C 254.613281 68.992188 254.746094 68.855469 254.914062 68.855469 L 274.324219 68.855469 C 274.492188 68.855469 274.625 68.992188 274.625 69.15625 C 274.625 69.324219 274.492188 69.457031 274.324219 69.457031 L 255.210938 69.457031 L 255.210938 94.960938 C 255.210938 95.125 255.078125 95.261719 254.914062 95.261719 " fill-opacity="1" fill-rule="nonzero"/><path fill="#000000" d="M 217.347656 169.523438 L 143.433594 169.523438 C 143.265625 169.523438 143.132812 169.386719 143.132812 169.222656 C 143.132812 169.058594 143.265625 168.921875 143.433594 168.921875 L 217.347656 168.921875 C 217.515625 168.921875 217.648438 169.058594 217.648438 169.222656 C 217.648438 169.386719 217.515625 169.523438 217.347656 169.523438 " fill-opacity="1" fill-rule="nonzero"/><path fill="#ffffff" d="M 234.3125 169.222656 C 234.3125 171.972656 232.082031 174.199219 229.328125 174.199219 C 226.578125 174.199219 224.34375 171.972656 224.34375 169.222656 C 224.34375 166.472656 226.578125 164.246094 229.328125 164.246094 C 232.082031 164.246094 234.3125 166.472656 234.3125 169.222656 " fill-opacity="1" fill-rule="nonzero"/><path fill="#000000" d="M 229.328125 164.542969 C 226.746094 164.542969 224.644531 166.644531 224.644531 169.222656 C 224.644531 171.800781 226.746094 173.898438 229.328125 173.898438 C 231.910156 173.898438 234.011719 171.800781 234.011719 169.222656 C 234.011719 166.644531 231.910156 164.542969 229.328125 164.542969 Z M 229.328125 174.5 C 226.414062 174.5 224.042969 172.132812 224.042969 169.222656 C 224.042969 166.3125 226.414062 163.945312 229.328125 163.945312 C 232.242188 163.945312 234.613281 166.3125 234.613281 169.222656 C 234.613281 172.132812 232.242188 174.5 229.328125 174.5 " fill-opacity="1" fill-rule="nonzero"/><path fill="#ae9fcf" d="M 248.855469 169.222656 C 248.855469 171.972656 246.625 174.199219 243.871094 174.199219 C 241.121094 174.199219 238.890625 171.972656 238.890625 169.222656 C 238.890625 166.472656 241.121094 164.246094 243.871094 164.246094 C 246.625 164.246094 248.855469 166.472656 248.855469 169.222656 " fill-opacity="1" fill-rule="nonzero"/><path fill="#ae9fcf" d="M 263.402344 169.222656 C 263.402344 171.972656 261.171875 174.199219 258.417969 174.199219 C 255.664062 174.199219 253.433594 171.972656 253.433594 169.222656 C 253.433594 166.472656 255.664062 164.246094 258.417969 164.246094 C 261.171875 164.246094 263.402344 166.472656 263.402344 169.222656 " fill-opacity="1" fill-rule="nonzero"/></svg>