<svg width="14" height="10" viewBox="0 0 14 10" fill="none" xmlns="http://www.w3.org/2000/svg">
<path d="M1.15625 6.7875C1.21125 6.80062 1.28594 6.86844 1.3075 6.93031L1.41688 7.19406C1.44156 7.24469 1.43688 7.345 1.4075 7.39312L0.97094 8.10687C0.877502 8.26 0.896877 8.47687 1.0225 8.6175L1.39219 8.98687C1.52094 9.10125 1.74813 9.12187 1.89625 9.03219L2.61 8.59562C2.65469 8.56812 2.75063 8.55844 2.81781 8.59L3.08125 8.69875C3.13438 8.71719 3.20219 8.79156 3.21531 8.84656L3.41125 9.66031C3.45281 9.83281 3.6175 9.97469 3.79438 9.99094C3.79438 9.99094 3.90282 10.0009 4.06532 10.0009C4.22782 10.0009 4.33625 9.99094 4.33657 9.99094C4.42616 9.98054 4.51056 9.94346 4.57882 9.8845C4.64708 9.82555 4.69605 9.74744 4.71938 9.66031L4.91563 8.84656C4.92875 8.79187 4.99625 8.71719 5.05813 8.69562L5.32188 8.58625C5.36844 8.56344 5.47625 8.56812 5.52094 8.59562L6.23469 9.03219C6.2975 9.07062 6.3725 9.09094 6.45219 9.09094C6.56 9.09094 6.66438 9.05312 6.74531 8.98094L7.11469 8.61125C7.17312 8.54207 7.20882 8.45657 7.21693 8.36637C7.22504 8.27618 7.20516 8.18568 7.16 8.10719L6.72344 7.39344C6.69406 7.34531 6.68938 7.245 6.71782 7.18562L6.82656 6.92219C6.845 6.86906 6.91938 6.80125 6.97438 6.78812L7.78813 6.59219C7.8751 6.56846 7.95301 6.51933 8.01191 6.45108C8.0708 6.38283 8.108 6.29857 8.11875 6.20906C8.11875 6.20906 8.12875 6.10062 8.12875 5.93812C8.12875 5.77562 8.11875 5.66719 8.11875 5.66687C8.108 5.57737 8.0708 5.4931 8.01191 5.42486C7.95301 5.35661 7.8751 5.30748 7.78813 5.28375L6.97469 5.08812C6.91969 5.075 6.845 5.00719 6.82344 4.94531L6.71406 4.68156C6.68938 4.63094 6.69406 4.53062 6.72344 4.4825L7.16 3.76875C7.25344 3.61562 7.23407 3.39875 7.10844 3.25812L6.73875 2.88875C6.60969 2.77406 6.38219 2.75344 6.23469 2.84344L5.52094 3.28C5.47625 3.30719 5.38 3.3175 5.31313 3.28562L5.04969 3.17687C4.99656 3.15844 4.92906 3.08406 4.91594 3.02906L4.71969 2.21531C4.69596 2.12834 4.64683 2.05043 4.57858 1.99153C4.51033 1.93264 4.42607 1.89544 4.33657 1.88469C4.33594 1.885 4.2275 1.875 4.065 1.875C3.9025 1.875 3.79406 1.885 3.79375 1.885C3.70425 1.89575 3.61998 1.93295 3.55173 1.99184C3.48349 2.05074 3.43436 2.12866 3.41063 2.21563L3.215 3.02875C3.20188 3.08375 3.13406 3.15844 3.07219 3.18L2.80844 3.28937C2.76156 3.31219 2.65406 3.30719 2.60938 3.28L1.89594 2.84344C1.74813 2.75344 1.52563 2.76906 1.38532 2.89469L1.01594 3.26437C0.957506 3.33355 0.921805 3.41906 0.913697 3.50925C0.90559 3.59944 0.925468 3.68994 0.970627 3.76844L1.40719 4.48219C1.43656 4.53031 1.44125 4.63062 1.41281 4.69L1.30406 4.95344C1.28563 5.00656 1.21125 5.07437 1.15625 5.0875L0.342502 5.28344C0.255533 5.30717 0.177618 5.3563 0.118722 5.42454C0.0598256 5.49279 0.0226249 5.57706 0.0118774 5.66656C0.0125024 5.66656 0.00250244 5.775 0.00250244 5.9375C0.00250244 6.1 0.0125024 6.20844 0.0125024 6.20875C0.0232499 6.29825 0.0604506 6.38252 0.119347 6.45077C0.178243 6.51902 0.256158 6.56815 0.343127 6.59187L1.15625 6.7875ZM0.315002 5.9375C0.315002 5.79437 0.32344 5.69781 0.323752 5.69469C0.328842 5.67042 0.339994 5.64783 0.356168 5.62903C0.372342 5.61024 0.393013 5.59584 0.416252 5.58719L1.23 5.39125C1.38781 5.35312 1.54688 5.20875 1.59625 5.06406L1.6975 4.81812C1.76875 4.67219 1.75875 4.45781 1.67406 4.31906L1.2375 3.60562C1.21656 3.57094 1.2225 3.50219 1.24313 3.47875L1.59969 3.12187C1.62813 3.09656 1.70063 3.09031 1.73313 3.11L2.44688 3.54656C2.58219 3.62937 2.81407 3.635 2.93688 3.57406L3.18313 3.47219C3.33657 3.41937 3.48094 3.26031 3.51907 3.10219L3.71469 2.28875C3.7233 2.26545 3.73768 2.24472 3.75648 2.22849C3.77528 2.21225 3.79789 2.20106 3.82219 2.19594C3.82531 2.19594 3.92188 2.1875 4.065 2.1875C4.20813 2.1875 4.30469 2.19594 4.30782 2.19625C4.33209 2.20134 4.35467 2.21249 4.37347 2.22867C4.39227 2.24484 4.40666 2.26551 4.41532 2.28875L4.61125 3.10219C4.64938 3.26 4.79344 3.41937 4.93844 3.46875L5.18438 3.57C5.32719 3.64 5.54844 3.62906 5.68344 3.54656L6.39688 3.11C6.42938 3.09031 6.50625 3.10062 6.52375 3.11562L6.88063 3.47219C6.9075 3.5025 6.91344 3.57094 6.8925 3.60562L6.45594 4.31937C6.37125 4.45781 6.36125 4.6725 6.42844 4.80937L6.53031 5.05562C6.58313 5.20906 6.74219 5.35344 6.90031 5.39156L7.71375 5.58719C7.73705 5.5958 7.75778 5.61017 7.77402 5.62897C7.79025 5.64777 7.80145 5.67038 7.80656 5.69469C7.80656 5.69781 7.815 5.79437 7.815 5.9375C7.815 6.08062 7.80656 6.17719 7.80625 6.18031C7.80116 6.20458 7.79001 6.22717 7.77384 6.24597C7.75766 6.26476 7.73699 6.27916 7.71375 6.28781L6.9 6.48375C6.74219 6.52187 6.58313 6.66625 6.53375 6.81094L6.4325 7.05687C6.36125 7.20281 6.37125 7.41719 6.45594 7.55594L6.8925 8.26937C6.91344 8.30406 6.9075 8.37281 6.88688 8.39625L6.53031 8.75312C6.5077 8.76996 6.48006 8.77866 6.45188 8.77781C6.43284 8.77837 6.41399 8.77396 6.39719 8.765L5.68344 8.32844C5.54844 8.24594 5.31656 8.24 5.19344 8.30094L4.94719 8.40281C4.79375 8.45562 4.64938 8.615 4.61156 8.77281L4.41563 9.58625C4.40702 9.60955 4.39264 9.63028 4.37384 9.64651C4.35504 9.66274 4.33243 9.67394 4.30813 9.67906C4.30469 9.67906 4.20813 9.6875 4.065 9.6875C3.92188 9.6875 3.82531 9.67906 3.82219 9.67875C3.79792 9.67366 3.77533 9.66251 3.75654 9.64633C3.73774 9.63016 3.72334 9.60949 3.71469 9.58625L3.51875 8.7725C3.48063 8.61469 3.33625 8.45562 3.19156 8.40625L2.94563 8.305C2.87581 8.27214 2.79934 8.25588 2.72219 8.2575C2.61938 8.2575 2.52156 8.28281 2.44656 8.32875L1.73313 8.76531C1.70063 8.785 1.62344 8.77437 1.60625 8.75969L1.24938 8.40281C1.2225 8.3725 1.21656 8.30406 1.2375 8.26937L1.67406 7.55562C1.75875 7.41719 1.76875 7.2025 1.70156 7.06562L1.59969 6.81937C1.54688 6.66594 1.38781 6.52156 1.22969 6.48344L0.416252 6.28781C0.392955 6.2792 0.372221 6.26483 0.355989 6.24603C0.339758 6.22723 0.328559 6.20462 0.32344 6.18031C0.32344 6.17719 0.315002 6.08062 0.315002 5.9375Z" fill="#F8F8F8"/>
<path d="M4.065 7.65625C5.01281 7.65625 5.78375 6.88531 5.78375 5.9375C5.78375 4.98969 5.01281 4.21875 4.065 4.21875C3.11719 4.21875 2.34625 4.98969 2.34625 5.9375C2.34625 6.88531 3.11719 7.65625 4.065 7.65625ZM4.065 4.53125C4.84031 4.53125 5.47125 5.16219 5.47125 5.9375C5.47125 6.71281 4.84031 7.34375 4.065 7.34375C3.28969 7.34375 2.65875 6.71281 2.65875 5.9375C2.65875 5.16219 3.28969 4.53125 4.065 4.53125ZM8.58906 1.66062C8.56815 1.68426 8.53941 1.69957 8.50813 1.70375L7.92657 1.69812C7.8548 1.70003 7.78521 1.7232 7.72662 1.7647C7.66804 1.80621 7.6231 1.86417 7.5975 1.93125C7.5975 1.93125 7.57188 2.00406 7.54375 2.11562C7.51563 2.22719 7.50375 2.30344 7.50375 2.30344C7.48188 2.44437 7.56031 2.60031 7.68625 2.66625L8.19906 2.935C8.22644 2.95593 8.24495 2.98638 8.25094 3.02031L8.28 3.21875C8.28174 3.25009 8.27245 3.28104 8.25375 3.30625L7.84063 3.71125C7.73719 3.8125 7.71 3.98562 7.78125 4.12156L7.96844 4.43406C8.0475 4.55031 8.21875 4.60969 8.35313 4.56781L8.92313 4.39344C8.95406 4.39344 8.985 4.40531 9.0025 4.41937L9.16344 4.53812C9.18686 4.55921 9.20213 4.58786 9.20656 4.61906L9.20094 5.19781C9.19969 5.34031 9.29969 5.48312 9.43406 5.53C9.43406 5.53 9.50688 5.55562 9.61844 5.58375C9.73 5.61187 9.80625 5.62375 9.80625 5.62375C9.81438 5.625 9.84688 5.6275 9.855 5.6275C9.91908 5.6267 9.98183 5.60907 10.0369 5.57639C10.0921 5.5437 10.1376 5.49709 10.1691 5.44125L10.4378 4.92844C10.4587 4.90107 10.4892 4.88255 10.5231 4.87656L10.7303 4.84656C10.7616 4.84656 10.7984 4.86281 10.8088 4.87344L11.2138 5.28656C11.3122 5.38719 11.4781 5.42312 11.6241 5.34594L11.9363 5.15875C12.0556 5.0775 12.1134 4.91187 12.0703 4.77406L11.8978 4.22187C11.8931 4.18755 11.9018 4.15273 11.9222 4.12469L12.0409 3.96375C12.0619 3.94011 12.0906 3.9248 12.1219 3.92062L12.7034 3.92625C12.7752 3.92435 12.8448 3.90117 12.9034 3.85967C12.962 3.81817 13.0069 3.7602 13.0325 3.69312C13.0325 3.69312 13.0581 3.62031 13.0863 3.50875C13.1144 3.39719 13.1263 3.32094 13.1263 3.32094C13.1355 3.24915 13.1231 3.17624 13.0906 3.11157C13.0581 3.04691 13.0069 2.99347 12.9438 2.95812L12.4309 2.68937C12.4036 2.66844 12.3851 2.638 12.3791 2.60406L12.3503 2.40625C12.3486 2.37491 12.3579 2.34396 12.3766 2.31875L12.7897 1.91375C12.8931 1.8125 12.9203 1.63937 12.8491 1.50344L12.6619 1.19094C12.5828 1.075 12.4119 1.015 12.2772 1.05687L11.7069 1.23125C11.6783 1.23125 11.6505 1.22217 11.6275 1.20531L11.4666 1.08656C11.4431 1.06547 11.4279 1.03683 11.4234 1.00562L11.4291 0.426874C11.4278 0.354567 11.4049 0.284297 11.3633 0.2251C11.3218 0.165904 11.2635 0.120486 11.1959 0.094687C11.1959 0.094687 11.1231 0.069062 11.0116 0.040937C10.9 0.012812 10.8238 0.000936966 10.8238 0.000936966C10.8075 -0.000632294 10.7913 -0.00177852 10.775 -0.00250053C10.7109 -0.00170235 10.6482 0.0159244 10.5931 0.048613C10.5379 0.0813017 10.4924 0.127904 10.4609 0.183749L10.1922 0.696562C10.1713 0.723933 10.1408 0.742446 10.1069 0.748437L9.89969 0.778124C9.8714 0.77745 9.84401 0.768065 9.82125 0.751249L9.41625 0.338124C9.36337 0.285367 9.29487 0.251091 9.22094 0.240393C9.14701 0.229695 9.07161 0.243147 9.00594 0.278749L8.69344 0.465624C8.57407 0.546874 8.51625 0.712499 8.55938 0.850312L8.73188 1.4025C8.73659 1.43683 8.72785 1.47165 8.7075 1.49969L8.58906 1.66062ZM8.84532 1.83937L8.9525 1.69375C9.03625 1.59469 9.06875 1.43312 9.03 1.30969L8.85781 0.757812C8.85625 0.749062 8.86313 0.729374 8.86157 0.729062L9.15782 0.551562L9.19313 0.556874L9.59844 0.969999C9.67032 1.04312 9.78875 1.09062 9.9 1.09062C9.9214 1.09083 9.94276 1.08884 9.96375 1.08469L10.1434 1.05812C10.2109 1.04977 10.2754 1.02582 10.332 0.988179C10.3886 0.950535 10.4356 0.900229 10.4694 0.841249L10.7378 0.328749C10.7477 0.318253 10.761 0.311517 10.7753 0.309687C10.7788 0.309999 10.8425 0.320624 10.9356 0.343749C11.0284 0.367187 11.0897 0.388124 11.0925 0.389374C11.1022 0.393437 11.1163 0.413749 11.1169 0.423749L11.1113 1.0025C11.11 1.13187 11.1878 1.27719 11.2884 1.34281L11.4338 1.45C11.5303 1.53156 11.6959 1.56594 11.8178 1.5275L12.3722 1.355C12.3853 1.355 12.4 1.36312 12.3981 1.35906L12.5756 1.65531C12.5791 1.66344 12.5756 1.68406 12.5703 1.69062L12.1572 2.09594C12.065 2.18687 12.0172 2.34437 12.0425 2.46125L12.0688 2.64094C12.08 2.76969 12.1713 2.90687 12.2859 2.96687L12.7984 3.23531C12.8089 3.24523 12.8157 3.25848 12.8175 3.27281C12.8085 3.32672 12.7971 3.38021 12.7834 3.43312C12.7705 3.48605 12.7553 3.5384 12.7378 3.59C12.7338 3.59969 12.7134 3.61375 12.7034 3.61437L12.1216 3.60875C11.9931 3.60875 11.8494 3.68656 11.7844 3.78594L11.6775 3.93125C11.6354 3.98472 11.6065 4.04734 11.593 4.11405C11.5795 4.18076 11.5819 4.2497 11.6 4.31531L11.7722 4.86719C11.7738 4.87562 11.7669 4.89562 11.7684 4.89594L11.4722 5.07344L11.4369 5.06812L11.0316 4.655C10.9597 4.58187 10.8413 4.53437 10.73 4.53437C10.7086 4.53417 10.6872 4.53616 10.6663 4.54031L10.4866 4.56687C10.4191 4.57523 10.3546 4.59918 10.298 4.63682C10.2414 4.67446 10.1944 4.72477 10.1606 4.78375L9.89219 5.29625C9.88227 5.30675 9.86902 5.31348 9.85469 5.31531C9.80078 5.3063 9.74729 5.29493 9.69438 5.28125C9.64145 5.26833 9.58911 5.2531 9.5375 5.23562C9.52781 5.23156 9.51375 5.21125 9.51313 5.20125L9.51875 4.6225C9.52 4.49312 9.44219 4.34781 9.34157 4.28219L9.19625 4.175C9.14275 4.13285 9.08008 4.10387 9.01331 4.09041C8.94654 4.07695 8.87754 4.07938 8.81188 4.0975L8.2575 4.27C8.24407 4.27 8.22938 4.26281 8.23156 4.26594L8.05406 3.96969C8.05063 3.96156 8.05406 3.94094 8.05938 3.93437L8.4725 3.52906C8.56469 3.43812 8.6125 3.28062 8.58719 3.16375L8.56094 2.98437C8.55255 2.91691 8.52856 2.85232 8.49086 2.79574C8.45316 2.73917 8.40279 2.69215 8.34375 2.65844L7.83125 2.39C7.82076 2.38008 7.81402 2.36683 7.81219 2.3525C7.8125 2.34906 7.82313 2.28531 7.84625 2.19219C7.86969 2.09937 7.89063 2.03812 7.89188 2.03531C7.89594 2.02562 7.91625 2.01156 7.92625 2.01094L8.50813 2.01656C8.63657 2.01656 8.78032 1.93875 8.84532 1.83937Z" fill="#F8F8F8"/>
<path d="M10.315 3.75C10.8319 3.75 11.2525 3.32938 11.2525 2.8125C11.2525 2.29562 10.8319 1.875 10.315 1.875C9.79813 1.875 9.3775 2.29562 9.3775 2.8125C9.3775 3.32938 9.79813 3.75 10.315 3.75ZM10.315 2.1875C10.6597 2.1875 10.94 2.46781 10.94 2.8125C10.94 3.15719 10.6597 3.4375 10.315 3.4375C9.97031 3.4375 9.69 3.15719 9.69 2.8125C9.69 2.46781 9.97031 2.1875 10.315 2.1875Z" fill="#F8F8F8"/>
</svg>
