<svg width="10" height="10" viewBox="0 0 10 10" fill="none" xmlns="http://www.w3.org/2000/svg">
<path d="M3.75001 5.41667V2.08334C3.75001 1.625 4.12501 1.25 4.58334 1.25H8.33334C8.79168 1.25 9.16668 1.625 9.16668 2.08334V4.58334H7.73751L7.20418 3.85834C7.19899 3.84971 7.19166 3.84257 7.1829 3.83761C7.17414 3.83265 7.16424 3.83005 7.15418 3.83005C7.14411 3.83005 7.13421 3.83265 7.12545 3.83761C7.11669 3.84257 7.10936 3.84971 7.10418 3.85834L6.27501 5C6.25001 5.025 6.20001 5.02917 6.17501 5L5.57918 4.27084C5.57323 4.26396 5.56587 4.25844 5.55761 4.25466C5.54934 4.25087 5.54035 4.24892 5.53126 4.24892C5.52217 4.24892 5.51318 4.25087 5.50491 4.25466C5.49665 4.25844 5.48929 4.26396 5.48334 4.27084L4.60418 5.37917C4.57084 5.41667 4.60001 5.47917 4.65001 5.47917H7.29168V6.25H4.58334C4.12084 6.25 3.75001 5.87917 3.75001 5.41667ZM2.50001 9.16667V8.75H1.66668V9.16667H0.833344V0.833336H1.66668V1.25H2.50001V0.833336H3.49584C3.14168 1.14167 2.91668 1.58334 2.91668 2.08334V5.41667C2.91668 6.3375 3.66251 7.08334 4.58334 7.08334H6.54168C6.11251 7.42917 5.83334 7.95 5.83334 8.54167C5.83334 8.7625 5.87918 8.97084 5.95001 9.16667H2.50001ZM1.66668 2.91667H2.50001V2.08334H1.66668V2.91667ZM1.66668 4.58334H2.50001V3.75H1.66668V4.58334ZM1.66668 6.25H2.50001V5.41667H1.66668V6.25ZM2.50001 7.91667V7.08334H1.66668V7.91667H2.50001ZM9.58334 5.41667V6.25H8.75001V8.54167C8.75001 8.81794 8.64026 9.08289 8.44491 9.27824C8.24956 9.47359 7.98461 9.58334 7.70834 9.58334C7.43208 9.58334 7.16712 9.47359 6.97177 9.27824C6.77642 9.08289 6.66668 8.81794 6.66668 8.54167C6.66677 8.36875 6.7099 8.19858 6.79219 8.0465C6.87447 7.89442 6.99333 7.76521 7.13802 7.67054C7.28272 7.57586 7.44871 7.5187 7.62102 7.50421C7.79332 7.48971 7.96653 7.51834 8.12501 7.5875V5.41667H9.58334Z" fill="#F8F8F8"/>
</svg>
