<svg width="10" height="10" viewBox="0 0 10 10" fill="none" xmlns="http://www.w3.org/2000/svg">
<path d="M2.78642 9.57643V7.81643C1.85499 7.49357 1.22928 6.40929 1.22928 5.135C1.22928 4.37571 1.40071 3.58214 2.24356 3.58214H4.38142C4.57162 3.58232 4.75542 3.6508 4.89937 3.77511C5.04331 3.89942 5.13782 4.0713 5.16569 4.25944C5.19356 4.44759 5.15293 4.63948 5.05119 4.80018C4.94946 4.96088 4.7934 5.0797 4.61142 5.135L3.38999 5.50571C4.01428 5.50571 4.78142 6.09857 4.76499 6.86643M7.01071 9.57714V7.81643C7.01071 7.81643 7.42999 7.60714 7.86785 7.18786C8.71142 6.38 8.82142 5.10286 8.59356 3.95714C8.51714 3.57571 8.40785 3.18857 8.25285 2.86286M1.90571 3.53V2.18286C1.90571 1.90277 2.01697 1.63415 2.21502 1.4361C2.41308 1.23805 2.68169 1.12679 2.96178 1.12679C3.24187 1.12679 3.51048 1.23805 3.70853 1.4361C3.90659 1.63415 4.01785 1.90277 4.01785 2.18286V3.53" stroke="#F8F8F8" stroke-width="0.714286" stroke-linecap="round" stroke-linejoin="round"/>
<path d="M4.01784 3.25285V1.48C4.01418 1.33891 4.0388 1.19851 4.09026 1.06709C4.14172 0.935664 4.21897 0.815875 4.31746 0.714787C4.41596 0.613698 4.5337 0.533356 4.66374 0.478498C4.79378 0.42364 4.93349 0.395378 5.07463 0.395378C5.21577 0.395378 5.35548 0.42364 5.48552 0.478498C5.61556 0.533356 5.7333 0.613698 5.83179 0.714787C5.93029 0.815875 6.00754 0.935664 6.059 1.06709C6.11046 1.19851 6.13508 1.33891 6.13141 1.48V3.25285C6.13114 3.51882 6.03063 3.77491 5.84991 3.97005C5.6692 4.16519 5.42158 4.28505 5.15642 4.30571" stroke="#F8F8F8" stroke-width="0.714286" stroke-linecap="round" stroke-linejoin="round"/>
<path d="M6.13143 2.18357C6.12776 2.04257 6.15237 1.90227 6.20379 1.77093C6.25521 1.6396 6.33242 1.51989 6.43085 1.41887C6.52927 1.31784 6.64693 1.23756 6.77689 1.18273C6.90684 1.12791 7.04646 1.09967 7.1875 1.09967C7.32855 1.09967 7.46816 1.12791 7.59812 1.18273C7.72807 1.23756 7.84573 1.31784 7.94416 1.41887C8.04259 1.51989 8.11979 1.6396 8.17121 1.77093C8.22264 1.90227 8.24724 2.04257 8.24357 2.18357V3.09071C8.24724 3.23171 8.22264 3.37201 8.17121 3.50334C8.11979 3.63468 8.04259 3.75439 7.94416 3.85541C7.84573 3.95643 7.72807 4.03672 7.59812 4.09154C7.46816 4.14636 7.32855 4.17461 7.1875 4.17461C7.04646 4.17461 6.90684 4.14636 6.77689 4.09154C6.64693 4.03672 6.52927 3.95643 6.43085 3.85541C6.33242 3.75439 6.25521 3.63468 6.20379 3.50334C6.15237 3.37201 6.12776 3.23171 6.13143 3.09071V2.18357Z" stroke="#F8F8F8" stroke-width="0.714286" stroke-linecap="round" stroke-linejoin="round"/>
</svg>
