<svg width="16" height="16" viewBox="0 0 16 16" fill="none" xmlns="http://www.w3.org/2000/svg">
<path d="M14.22 8.60667C14.28 9.64 13.8067 10.6333 12.96 11.24L13.4733 12.2333C13.6267 12.5333 13.6467 12.8867 13.5133 13.2C13.3867 13.5133 13.1267 13.76 12.8067 13.8667L12.28 14.0333C12.0607 14.1069 11.824 14.1112 11.6022 14.0456C11.3803 13.98 11.184 13.8477 11.04 13.6667L9.62667 12C9.03334 11.9 8.47334 11.6467 8.00001 11.2667C7.66667 11.3667 7.33334 11.42 7.00001 11.42C6.41334 11.42 5.82667 11.24 5.33334 10.8933C4.98001 11 4.62001 11.0467 4.25334 11.04C3.72667 11.0467 3.20667 10.94 2.72001 10.74C2.25133 10.5313 1.85085 10.1949 1.56436 9.76933C1.27788 9.34373 1.11696 8.84609 1.10001 8.33334C1.04667 7.85334 1.12667 7.36667 1.33334 6.92667C1.14001 6.42667 1.12001 5.88 1.28667 5.37334C1.53334 4.74 2.00001 4.21334 2.58001 3.88C2.96667 2.75334 4.05334 2 5.24667 2.08C6.31334 1.08 7.94667 0.973335 9.13334 1.83334C9.41334 1.76 9.70667 1.72 10 1.72C10.9067 1.7 11.7667 2.1 12.3333 2.81334C13.6933 3.16667 14.6667 4.38 14.72 5.79333C14.7533 6.53334 14.5533 7.26 14.1467 7.88C14.1933 8.12 14.22 8.36 14.22 8.60667ZM10.8867 7.66667C11.2667 7.71334 11.5667 8 11.5667 8.38C11.5667 8.55681 11.4964 8.72638 11.3714 8.85141C11.2464 8.97643 11.0768 9.04667 10.9 9.04667H10.48C10.2667 9.64667 9.89334 10.1733 9.40001 10.5733C9.56668 10.6333 9.74001 10.6667 9.91334 10.7133C13.3333 10.6667 12.9333 8.58 12.9333 8.54667C12.9248 8.31987 12.8715 8.09698 12.7767 7.89076C12.6819 7.68455 12.5474 7.49904 12.3808 7.34487C12.2143 7.19069 12.0189 7.07086 11.806 6.99224C11.5931 6.91362 11.3668 6.87774 11.14 6.88667C10.9632 6.88667 10.7936 6.81643 10.6686 6.69141C10.5436 6.56638 10.4733 6.39681 10.4733 6.22C10.4733 6.04319 10.5436 5.87362 10.6686 5.7486C10.7936 5.62357 10.9632 5.55334 11.14 5.55334C11.96 5.57334 12.7467 5.88 13.36 6.42C13.3933 6.22667 13.4133 6.02667 13.4133 5.82667C13.3733 5 13 4.28 11.5 4.14C10.6667 2.16667 8.56667 3.26 8.56667 3.87334C8.54667 4.02667 8.70667 4.35334 8.73334 4.37334C8.91015 4.37334 9.07972 4.44357 9.20475 4.5686C9.32977 4.69362 9.40001 4.86319 9.40001 5.04C9.40001 5.40667 9.10001 5.70667 8.73334 5.70667C8.38001 5.69334 8.04667 5.56 7.78001 5.33334C7.46001 5.54 7.09334 5.66667 6.71334 5.70667C6.33334 5.74 6.02001 5.47334 6.00001 5.10667C5.98792 5.01961 5.99371 4.93101 6.01702 4.84626C6.04033 4.76152 6.08067 4.68242 6.13557 4.61379C6.19048 4.54515 6.25879 4.48844 6.33635 4.44709C6.41392 4.40575 6.49909 4.38066 6.58667 4.37334C6.69334 4.36 7.21334 4.28 7.21334 3.86C7.21334 3.42 7.38001 3 7.66667 2.66667C7.05334 2.5 6.39334 2.72 5.72667 3.52667C4.50001 3.33334 4.00001 3.5 3.63334 4.8C3.00001 5.11334 2.66667 5.33334 2.52001 6C3.24001 5.85334 3.98001 5.91334 4.66667 6.16667C5.00001 6.29334 5.18667 6.66667 5.06001 7.02667C4.93334 7.37334 4.54667 7.54667 4.20001 7.42C3.71334 7.20667 3.16667 7.19334 2.66667 7.38C2.45334 7.56 2.45334 7.93334 2.45334 8.22667C2.45334 8.72 2.70001 9.18 3.12001 9.44667C3.47334 9.62667 3.86667 9.72 4.26001 9.71334C4.16001 9.54 4.07334 9.36 4.00001 9.17334C3.94752 9.00205 3.96351 8.81709 4.0446 8.65735C4.1257 8.49761 4.26558 8.37555 4.43483 8.31683C4.60407 8.25811 4.7895 8.26732 4.9521 8.34251C5.1147 8.4177 5.2418 8.55302 5.30667 8.72C5.57334 9.48 6.25334 10 7.05334 10.0867C7.96667 10.04 8.78001 9.5 9.18001 8.66667C9.33334 7.74667 10.0733 7.66667 10.8867 7.66667ZM12.22 12.6467L11.8067 11.78L11.3333 11.8867L12 12.72L12.22 12.6467ZM9.12001 6.90667C9.1258 6.73636 9.06616 6.5703 8.95334 6.4426C8.84051 6.31489 8.68306 6.23524 8.51334 6.22C8.04001 6.19334 7.58001 6.35334 7.22667 6.66667C6.84667 7.05334 6.64667 7.58667 6.66667 8.12667C6.66667 8.30348 6.73691 8.47305 6.86194 8.59807C6.98696 8.7231 7.15653 8.79333 7.33334 8.79333C7.71334 8.79333 8.00001 8.49334 8.00001 8.12667C8.00001 7.94667 8.04667 7.76667 8.15334 7.62C8.23334 7.55334 8.33334 7.52 8.44001 7.52C8.80667 7.54 9.12001 7.26667 9.12001 6.90667Z" fill="white"/>
</svg>
