<svg xmlns="http://www.w3.org/2000/svg" xmlns:xlink="http://www.w3.org/1999/xlink" width="500" zoomAndPan="magnify" viewBox="0 0 375 374.999991" height="500" preserveAspectRatio="xMidYMid meet" version="1.0"><path fill="#ae9fcf" d="M 284.460938 97.988281 C 246.867188 60.152344 257.632812 36.4375 231.910156 18.921875 C 192.332031 -8.03125 118.460938 15.160156 74.882812 52.234375 C 21.507812 97.640625 -6.03125 180.550781 25.339844 255.558594 C 58.746094 335.4375 146.648438 376.902344 225.085938 364.40625 C 295.132812 353.246094 363.988281 298.042969 370.886719 231.835938 C 371.632812 224.65625 374.933594 185.863281 351.78125 152.417969 C 332.644531 124.773438 314.261719 127.976562 284.460938 97.988281 " fill-opacity="1" fill-rule="nonzero"/><path fill="#ffffff" d="M 241.253906 270.273438 L 54.289062 270.273438 C 53.1875 270.273438 52.292969 269.378906 52.292969 268.273438 L 52.292969 17.410156 C 52.292969 16.308594 53.1875 15.417969 54.289062 15.417969 L 241.253906 15.417969 C 242.355469 15.417969 243.25 16.308594 243.25 17.410156 L 243.25 268.273438 C 243.25 269.378906 242.355469 270.273438 241.253906 270.273438 " fill-opacity="1" fill-rule="nonzero"/><path fill="#000000" d="M 66.890625 270.921875 L 53.863281 270.921875 C 52.640625 270.921875 51.644531 269.925781 51.644531 268.699219 L 51.644531 255.632812 C 51.644531 255.277344 51.9375 254.984375 52.292969 254.984375 C 52.652344 254.984375 52.945312 255.277344 52.945312 255.632812 L 52.945312 268.699219 C 52.945312 269.207031 53.355469 269.621094 53.863281 269.621094 L 66.890625 269.621094 C 67.25 269.621094 67.542969 269.910156 67.542969 270.273438 C 67.542969 270.632812 67.25 270.921875 66.890625 270.921875 " fill-opacity="1" fill-rule="nonzero"/><path fill="#000000" d="M 241.679688 270.921875 L 114.710938 270.921875 C 114.351562 270.921875 114.058594 270.632812 114.058594 270.273438 C 114.058594 269.910156 114.351562 269.621094 114.710938 269.621094 L 241.679688 269.621094 C 242.1875 269.621094 242.601562 269.207031 242.601562 268.699219 L 242.601562 183.234375 C 242.601562 182.875 242.890625 182.585938 243.25 182.585938 C 243.609375 182.585938 243.898438 182.875 243.898438 183.234375 L 243.898438 268.699219 C 243.898438 269.925781 242.90625 270.921875 241.679688 270.921875 " fill-opacity="1" fill-rule="nonzero"/><path fill="#000000" d="M 243.25 106.539062 C 242.890625 106.539062 242.601562 106.246094 242.601562 105.890625 L 242.601562 32.777344 C 242.601562 32.417969 242.890625 32.125 243.25 32.125 C 243.609375 32.125 243.898438 32.417969 243.898438 32.777344 L 243.898438 105.890625 C 243.898438 106.246094 243.609375 106.539062 243.25 106.539062 " fill-opacity="1" fill-rule="nonzero"/><path fill="#000000" d="M 52.292969 181.191406 C 51.9375 181.191406 51.644531 180.902344 51.644531 180.542969 L 51.644531 16.988281 C 51.644531 15.761719 52.640625 14.765625 53.863281 14.765625 L 241.679688 14.765625 C 242.90625 14.765625 243.898438 15.761719 243.898438 16.988281 L 243.898438 34.65625 C 243.898438 35.015625 243.609375 35.304688 243.25 35.304688 C 242.890625 35.304688 242.601562 35.015625 242.601562 34.65625 L 242.601562 16.988281 C 242.601562 16.480469 242.1875 16.066406 241.679688 16.066406 L 53.863281 16.066406 C 53.355469 16.066406 52.945312 16.480469 52.945312 16.988281 L 52.945312 180.542969 C 52.945312 180.902344 52.652344 181.191406 52.292969 181.191406 " fill-opacity="1" fill-rule="nonzero"/><path fill="#ae9fcf" d="M 202.703125 164.566406 L 78.214844 164.566406 C 76.117188 164.566406 74.417969 162.867188 74.417969 160.769531 L 74.417969 159.929688 C 74.417969 157.832031 76.117188 156.128906 78.214844 156.128906 L 202.703125 156.128906 C 204.804688 156.128906 206.503906 157.832031 206.503906 159.929688 L 206.503906 160.769531 C 206.503906 162.867188 204.804688 164.566406 202.703125 164.566406 " fill-opacity="1" fill-rule="nonzero"/><path fill="#ae9fcf" d="M 89.933594 144.140625 L 78.214844 144.140625 C 76.117188 144.140625 74.417969 142.4375 74.417969 140.335938 L 74.417969 139.5 C 74.417969 137.398438 76.117188 135.699219 78.214844 135.699219 L 89.933594 135.699219 C 92.03125 135.699219 93.734375 137.398438 93.734375 139.5 L 93.734375 140.335938 C 93.734375 142.4375 92.03125 144.140625 89.933594 144.140625 " fill-opacity="1" fill-rule="nonzero"/><path fill="#ae9fcf" d="M 202.703125 144.140625 L 110.195312 144.140625 C 108.09375 144.140625 106.394531 142.4375 106.394531 140.335938 L 106.394531 139.5 C 106.394531 137.398438 108.09375 135.699219 110.195312 135.699219 L 202.703125 135.699219 C 204.804688 135.699219 206.503906 137.398438 206.503906 139.5 L 206.503906 140.335938 C 206.503906 142.4375 204.804688 144.140625 202.703125 144.140625 " fill-opacity="1" fill-rule="nonzero"/><path fill="#ae9fcf" d="M 215.734375 123.707031 L 78.214844 123.707031 C 76.117188 123.707031 74.417969 122.003906 74.417969 119.90625 L 74.417969 119.070312 C 74.417969 116.96875 76.117188 115.269531 78.214844 115.269531 L 215.734375 115.269531 C 217.832031 115.269531 219.53125 116.96875 219.53125 119.070312 L 219.53125 119.90625 C 219.53125 122.003906 217.832031 123.707031 215.734375 123.707031 " fill-opacity="1" fill-rule="nonzero"/><path fill="#ae9fcf" d="M 189.796875 103.277344 L 78.214844 103.277344 C 76.117188 103.277344 74.417969 101.574219 74.417969 99.476562 L 74.417969 98.636719 C 74.417969 96.539062 76.117188 94.835938 78.214844 94.835938 L 189.796875 94.835938 C 191.894531 94.835938 193.597656 96.539062 193.597656 98.636719 L 193.597656 99.476562 C 193.597656 101.574219 191.894531 103.277344 189.796875 103.277344 " fill-opacity="1" fill-rule="nonzero"/><path fill="#ae9fcf" d="M 177.765625 77.292969 L 117.632812 77.292969 C 115.535156 77.292969 113.835938 75.59375 113.835938 73.492188 L 113.835938 72.65625 C 113.835938 70.554688 115.535156 68.855469 117.632812 68.855469 L 177.765625 68.855469 C 179.863281 68.855469 181.566406 70.554688 181.566406 72.65625 L 181.566406 73.492188 C 181.566406 75.59375 179.863281 77.292969 177.765625 77.292969 " fill-opacity="1" fill-rule="nonzero"/><path fill="#ae9fcf" d="M 212.226562 251.191406 L 172.125 251.191406 C 170.246094 251.191406 168.71875 249.667969 168.71875 247.789062 L 168.71875 247.035156 C 168.71875 245.15625 170.246094 243.628906 172.125 243.628906 L 212.226562 243.628906 C 214.105469 243.628906 215.632812 245.15625 215.632812 247.035156 L 215.632812 247.789062 C 215.632812 249.667969 214.105469 251.191406 212.226562 251.191406 " fill-opacity="1" fill-rule="nonzero"/><path fill="#ae9fcf" d="M 212.925781 233.53125 L 172.125 233.53125 C 170.246094 233.53125 168.71875 232.007812 168.71875 230.125 L 168.71875 229.375 C 168.71875 227.492188 170.246094 225.96875 172.125 225.96875 L 212.925781 225.96875 C 214.808594 225.96875 216.335938 227.492188 216.335938 229.375 L 216.335938 230.125 C 216.335938 232.007812 214.808594 233.53125 212.925781 233.53125 " fill-opacity="1" fill-rule="nonzero"/><path fill="#ae9fcf" d="M 215.960938 50.242188 L 74.910156 50.242188 C 72.78125 50.242188 71.054688 48.515625 71.054688 46.382812 L 71.054688 45.535156 C 71.054688 43.402344 72.78125 41.675781 74.910156 41.675781 L 215.960938 41.675781 C 218.089844 41.675781 219.816406 43.402344 219.816406 45.535156 L 219.816406 46.382812 C 219.816406 48.515625 218.089844 50.242188 215.960938 50.242188 " fill-opacity="1" fill-rule="nonzero"/><path fill="#523762" d="M 191.183594 183.109375 C 188.238281 183.109375 185.285156 183.636719 182.445312 184.707031 C 169.597656 189.515625 163.066406 203.882812 167.878906 216.726562 C 172.691406 229.570312 187.054688 236.109375 199.898438 231.292969 C 212.742188 226.484375 219.28125 212.117188 214.46875 199.273438 C 212.136719 193.050781 207.523438 188.109375 201.472656 185.355469 C 198.1875 183.859375 194.691406 183.109375 191.183594 183.109375 Z M 191.199219 234.175781 C 180.59375 234.175781 170.59375 227.683594 166.660156 217.183594 C 161.597656 203.664062 168.472656 188.550781 181.988281 183.488281 C 188.535156 181.035156 195.648438 181.277344 202.011719 184.171875 C 208.375 187.070312 213.230469 192.269531 215.683594 198.816406 C 220.75 212.332031 213.871094 227.445312 200.355469 232.511719 C 197.34375 233.640625 194.246094 234.175781 191.199219 234.175781 " fill-opacity="1" fill-rule="nonzero"/><path fill="#523762" d="M 191.152344 189.886719 C 189.046875 189.886719 186.90625 190.257812 184.820312 191.039062 C 175.464844 194.542969 170.707031 205 174.210938 214.351562 C 176.933594 221.617188 183.855469 226.113281 191.191406 226.113281 C 193.296875 226.113281 195.4375 225.742188 197.527344 224.960938 C 202.058594 223.261719 205.65625 219.902344 207.660156 215.5 C 209.664062 211.097656 209.832031 206.175781 208.132812 201.644531 C 205.410156 194.378906 198.492188 189.886719 191.152344 189.886719 Z M 191.195312 227.410156 C 183.328125 227.410156 175.914062 222.597656 172.996094 214.808594 C 169.242188 204.785156 174.339844 193.578125 184.363281 189.820312 C 194.386719 186.066406 205.597656 191.164062 209.351562 201.1875 C 211.167969 206.046875 210.988281 211.320312 208.839844 216.035156 C 206.695312 220.757812 202.835938 224.359375 197.984375 226.175781 C 195.746094 227.015625 193.453125 227.410156 191.195312 227.410156 " fill-opacity="1" fill-rule="nonzero"/><path fill="#ffffff" d="M 226.128906 204.566406 L 162.566406 228.378906 L 156.214844 211.429688 L 219.777344 187.617188 L 226.128906 204.566406 " fill-opacity="1" fill-rule="nonzero"/><path fill="#523762" d="M 157.050781 211.8125 L 162.949219 227.546875 L 225.292969 204.1875 L 219.398438 188.453125 Z M 162.566406 229.03125 C 162.304688 229.03125 162.054688 228.867188 161.957031 228.609375 L 155.609375 211.660156 C 155.546875 211.496094 155.554688 211.320312 155.625 211.160156 C 155.699219 211.003906 155.828125 210.882812 155.988281 210.820312 L 219.550781 187.011719 C 219.886719 186.882812 220.261719 187.054688 220.386719 187.390625 L 226.734375 204.339844 C 226.796875 204.503906 226.792969 204.679688 226.722656 204.835938 C 226.648438 204.992188 226.519531 205.113281 226.355469 205.175781 L 162.796875 228.988281 C 162.71875 229.015625 162.640625 229.03125 162.566406 229.03125 " fill-opacity="1" fill-rule="nonzero"/><path fill="#000000" d="M 203.1875 215.492188 C 203 215.492188 202.808594 215.460938 202.617188 215.398438 C 201.882812 215.152344 201.414062 214.496094 201.414062 213.726562 L 201.414062 203.0625 C 201.414062 202.453125 200.996094 202.132812 200.609375 202.039062 C 200.21875 201.941406 199.703125 202.035156 199.421875 202.574219 L 196.015625 209.097656 C 195.648438 209.800781 194.878906 210.167969 194.101562 210.011719 C 193.324219 209.851562 192.757812 209.214844 192.695312 208.425781 C 192.671875 208.125 192.425781 208.035156 192.351562 208.015625 C 192.273438 207.996094 192.019531 207.953125 191.847656 208.203125 L 188.164062 213.621094 C 187.757812 214.214844 187.042969 214.503906 186.34375 214.355469 C 185.640625 214.210938 185.101562 213.65625 184.972656 212.953125 L 183.046875 202.609375 C 182.941406 202.046875 182.507812 201.800781 182.132812 201.753906 C 181.761719 201.714844 181.28125 201.851562 181.046875 202.375 L 176.722656 212.050781 C 176.578125 212.378906 176.195312 212.527344 175.867188 212.378906 C 175.539062 212.234375 175.390625 211.847656 175.539062 211.519531 L 179.859375 201.84375 C 180.289062 200.882812 181.242188 200.34375 182.289062 200.464844 C 183.332031 200.589844 184.132812 201.339844 184.324219 202.375 L 186.25 212.714844 C 186.300781 212.988281 186.515625 213.066406 186.609375 213.082031 C 186.699219 213.105469 186.929688 213.121094 187.089844 212.890625 L 190.773438 207.472656 C 191.199219 206.847656 191.953125 206.566406 192.683594 206.761719 C 193.414062 206.953125 193.929688 207.566406 193.988281 208.320312 C 194.015625 208.644531 194.28125 208.722656 194.359375 208.738281 C 194.4375 208.753906 194.710938 208.785156 194.863281 208.5 L 198.269531 201.972656 C 198.78125 200.996094 199.847656 200.511719 200.917969 200.777344 C 201.992188 201.039062 202.710938 201.960938 202.710938 203.0625 L 202.710938 213.726562 C 202.710938 214.035156 202.953125 214.140625 203.027344 214.167969 C 203.101562 214.1875 203.359375 214.25 203.546875 214.003906 L 215.363281 198.289062 C 215.578125 198 215.988281 197.945312 216.273438 198.160156 C 216.558594 198.375 216.617188 198.78125 216.402344 199.066406 L 204.585938 214.785156 C 204.242188 215.238281 203.726562 215.492188 203.1875 215.492188 " fill-opacity="1" fill-rule="nonzero"/><path fill="#ffffff" d="M 288.335938 329.859375 L 290.914062 348.125 L 282.480469 348.125 L 276.980469 328.285156 L 288.335938 329.859375 " fill-opacity="1" fill-rule="nonzero"/><path fill="#000000" d="M 282.972656 347.480469 L 290.164062 347.480469 L 287.761719 330.4375 L 277.871094 329.0625 Z M 290.914062 348.777344 L 282.480469 348.777344 C 282.1875 348.777344 281.929688 348.582031 281.851562 348.300781 L 276.355469 328.457031 C 276.292969 328.246094 276.347656 328.023438 276.492188 327.855469 C 276.632812 327.691406 276.851562 327.609375 277.070312 327.640625 L 288.425781 329.21875 C 288.714844 329.257812 288.941406 329.480469 288.980469 329.769531 L 291.558594 348.035156 C 291.582031 348.222656 291.527344 348.410156 291.40625 348.554688 C 291.28125 348.695312 291.101562 348.777344 290.914062 348.777344 " fill-opacity="1" fill-rule="nonzero"/><path fill="#ffffff" d="M 253.582031 363.015625 L 292.089844 363.015625 C 294.097656 363.015625 295.636719 360.996094 295.347656 358.742188 C 294.683594 353.625 293.511719 345.320312 292.503906 341.933594 C 290.996094 336.875 286.125 344.9375 286.125 344.9375 L 280.746094 339.792969 C 280.746094 339.792969 257.890625 350.65625 252.0625 359.550781 C 251.125 360.980469 252.011719 363.015625 253.582031 363.015625 " fill-opacity="1" fill-rule="nonzero"/><path fill="#000000" d="M 280.625 340.574219 C 277.550781 342.074219 257.847656 351.90625 252.605469 359.90625 C 252.265625 360.429688 252.238281 361.128906 252.535156 361.683594 C 252.648438 361.890625 252.96875 362.367188 253.582031 362.367188 L 292.089844 362.367188 C 292.78125 362.367188 293.4375 362.054688 293.933594 361.492188 C 294.546875 360.789062 294.828125 359.816406 294.703125 358.824219 C 294.082031 354.039062 292.890625 345.507812 291.882812 342.121094 C 291.726562 341.601562 291.453125 340.976562 291.03125 340.921875 C 289.941406 340.773438 287.789062 343.433594 286.679688 345.273438 C 286.578125 345.441406 286.40625 345.554688 286.207031 345.578125 C 286.015625 345.605469 285.816406 345.542969 285.675781 345.40625 Z M 292.089844 363.664062 L 253.582031 363.664062 C 252.675781 363.664062 251.855469 363.15625 251.394531 362.300781 C 250.863281 361.316406 250.910156 360.125 251.519531 359.191406 C 257.378906 350.25 279.527344 339.652344 280.464844 339.207031 C 280.707031 339.089844 281 339.136719 281.195312 339.324219 L 286 343.921875 C 287 342.40625 289.253906 339.390625 291.199219 339.632812 C 292.089844 339.746094 292.742188 340.457031 293.125 341.75 C 294.109375 345.050781 295.226562 352.765625 295.988281 358.65625 C 296.167969 360.023438 295.773438 361.367188 294.90625 362.351562 C 294.160156 363.199219 293.160156 363.664062 292.089844 363.664062 " fill-opacity="1" fill-rule="nonzero"/><path fill="#000000" d="M 291.890625 360.335938 L 255.917969 360.335938 C 255.558594 360.335938 255.269531 360.046875 255.269531 359.6875 C 255.269531 359.328125 255.558594 359.035156 255.917969 359.035156 L 291.890625 359.035156 C 292.25 359.035156 292.542969 359.328125 292.542969 359.6875 C 292.542969 360.046875 292.25 360.335938 291.890625 360.335938 " fill-opacity="1" fill-rule="nonzero"/><path fill="#000000" d="M 276.980469 352.613281 C 276.765625 352.613281 276.558594 352.511719 276.433594 352.316406 L 271.832031 345.191406 C 271.632812 344.894531 271.722656 344.488281 272.023438 344.296875 C 272.324219 344.101562 272.726562 344.1875 272.921875 344.488281 L 277.527344 351.613281 C 277.71875 351.914062 277.632812 352.316406 277.332031 352.511719 C 277.222656 352.582031 277.101562 352.613281 276.980469 352.613281 " fill-opacity="1" fill-rule="nonzero"/><path fill="#ffffff" d="M 335.207031 316.378906 C 336.003906 318.421875 344.992188 339.3125 344.992188 339.3125 L 338.226562 347.789062 L 333.550781 342.324219 L 324.316406 318.421875 L 335.207031 316.378906 " fill-opacity="1" fill-rule="nonzero"/><path fill="#000000" d="M 334.113281 341.988281 L 338.210938 346.769531 L 344.242188 339.214844 C 343.085938 336.523438 336.230469 320.582031 334.804688 317.117188 L 325.203125 318.914062 Z M 338.226562 348.4375 C 338.039062 348.4375 337.855469 348.355469 337.734375 348.210938 L 333.054688 342.746094 C 333.007812 342.691406 332.96875 342.628906 332.941406 342.558594 L 323.710938 318.65625 C 323.640625 318.472656 323.65625 318.273438 323.75 318.105469 C 323.84375 317.9375 324.007812 317.816406 324.199219 317.78125 L 335.085938 315.742188 C 335.390625 315.683594 335.699219 315.851562 335.8125 316.144531 C 336.59375 318.152344 345.5 338.847656 345.589844 339.058594 C 345.683594 339.277344 345.652344 339.53125 345.5 339.71875 L 338.734375 348.195312 C 338.613281 348.34375 338.429688 348.433594 338.238281 348.4375 C 338.234375 348.4375 338.230469 348.4375 338.226562 348.4375 " fill-opacity="1" fill-rule="nonzero"/><path fill="#ffffff" d="M 350.101562 337.828125 C 351.300781 338.988281 351.695312 340.746094 351.117188 342.3125 C 349.144531 347.632812 343.816406 359.425781 334.320312 362.894531 C 326.761719 365.65625 321.585938 365.664062 318.703125 365.253906 C 317.332031 365.0625 316.625 363.507812 317.355469 362.332031 C 320.519531 357.230469 327.972656 344.632812 328.652344 338.136719 C 329.515625 329.867188 339.347656 339.730469 339.347656 339.730469 L 344.644531 332.542969 L 350.101562 337.828125 " fill-opacity="1" fill-rule="nonzero"/><path fill="#000000" d="M 331.277344 335.484375 C 331.050781 335.484375 330.84375 335.511719 330.65625 335.578125 C 329.910156 335.84375 329.453125 336.726562 329.296875 338.203125 C 328.605469 344.828125 321.101562 357.523438 317.90625 362.675781 C 317.675781 363.046875 317.648438 363.503906 317.835938 363.898438 C 318.019531 364.292969 318.367188 364.550781 318.792969 364.613281 C 321.726562 365.03125 326.757812 364.964844 334.097656 362.285156 C 343.417969 358.882812 348.675781 347.023438 350.507812 342.085938 C 351 340.761719 350.664062 339.273438 349.652344 338.292969 L 344.726562 333.527344 L 339.871094 340.117188 C 339.757812 340.269531 339.585938 340.363281 339.394531 340.378906 C 339.203125 340.394531 339.023438 340.324219 338.886719 340.191406 C 336.949219 338.246094 333.386719 335.484375 331.277344 335.484375 Z M 321.628906 366.101562 C 320.457031 366.101562 319.453125 366.019531 318.609375 365.898438 C 317.753906 365.777344 317.027344 365.234375 316.65625 364.449219 C 316.285156 363.65625 316.339844 362.734375 316.800781 361.992188 C 319.949219 356.914062 327.339844 344.425781 328.003906 338.070312 C 328.214844 336.050781 328.964844 334.800781 330.226562 334.355469 C 333.113281 333.332031 337.644531 337.230469 339.265625 338.75 L 344.121094 332.15625 C 344.230469 332.007812 344.402344 331.910156 344.589844 331.894531 C 344.777344 331.878906 344.960938 331.945312 345.09375 332.074219 L 350.554688 337.359375 C 351.933594 338.699219 352.394531 340.730469 351.726562 342.539062 C 349.832031 347.644531 344.371094 359.914062 334.542969 363.503906 C 329.027344 365.519531 324.742188 366.101562 321.628906 366.101562 " fill-opacity="1" fill-rule="nonzero"/><path fill="#000000" d="M 322.886719 362.179688 C 322.570312 362.179688 322.292969 361.949219 322.242188 361.628906 C 322.1875 361.273438 322.433594 360.941406 322.789062 360.886719 C 342.75 357.808594 347.5625 340.878906 347.609375 340.707031 C 347.703125 340.363281 348.058594 340.15625 348.40625 340.25 C 348.75 340.34375 348.957031 340.699219 348.863281 341.046875 C 348.816406 341.222656 343.808594 358.960938 322.984375 362.171875 C 322.949219 362.175781 322.917969 362.179688 322.886719 362.179688 " fill-opacity="1" fill-rule="nonzero"/><path fill="#000000" d="M 332.546875 350.863281 C 332.445312 350.863281 332.347656 350.839844 332.253906 350.792969 L 325.535156 347.402344 C 325.214844 347.242188 325.085938 346.851562 325.25 346.53125 C 325.410156 346.210938 325.800781 346.082031 326.121094 346.242188 L 332.839844 349.632812 C 333.160156 349.792969 333.285156 350.183594 333.125 350.503906 C 333.011719 350.734375 332.78125 350.863281 332.546875 350.863281 " fill-opacity="1" fill-rule="nonzero"/><path fill="#000000" d="M 296.078125 168.253906 C 296.078125 168.253906 314.570312 183.238281 318.882812 198.703125 C 322.46875 211.554688 329.1875 286.542969 329.1875 286.542969 C 329.1875 286.542969 339.941406 316.460938 340.476562 325.160156 C 340.476562 325.160156 331.945312 331.25 325.394531 330.316406 L 310.449219 294.097656 C 310.449219 294.097656 307.148438 289.726562 305.542969 284.644531 C 303.933594 279.558594 290.351562 231.746094 290.351562 231.746094 C 290.351562 231.746094 289.25 302.453125 291.398438 332.542969 C 291.398438 332.542969 281.65625 334.03125 275.835938 332.769531 C 275.835938 332.769531 273.609375 308.222656 270.960938 302.214844 C 268.3125 296.210938 267.75 286.800781 268.59375 277.785156 C 269.441406 268.769531 260.539062 217.628906 262.84375 172.503906 L 296.078125 168.253906 " fill-opacity="1" fill-rule="nonzero"/><path fill="#ffffff" d="M 310.296875 193.828125 C 310.296875 193.828125 310.292969 193.828125 310.292969 193.828125 C 303.800781 193.789062 299.015625 192.144531 296.074219 188.941406 C 292.789062 185.363281 293.078125 181.1875 293.09375 181.011719 C 293.121094 180.652344 293.4375 180.382812 293.789062 180.417969 C 294.148438 180.441406 294.414062 180.753906 294.386719 181.113281 C 294.386719 181.148438 294.140625 184.929688 297.046875 188.082031 C 299.738281 190.996094 304.195312 192.492188 310.300781 192.527344 C 310.660156 192.527344 310.949219 192.820312 310.945312 193.179688 C 310.945312 193.539062 310.652344 193.828125 310.296875 193.828125 " fill-opacity="1" fill-rule="nonzero"/><path fill="#ffffff" d="M 324.316406 304.144531 C 324.296875 304.144531 324.273438 304.140625 324.253906 304.140625 C 323.976562 304.113281 317.449219 303.398438 312.160156 296.464844 C 311.941406 296.179688 311.996094 295.769531 312.28125 295.554688 C 312.566406 295.335938 312.976562 295.390625 313.191406 295.675781 C 318.125 302.136719 324.320312 302.839844 324.382812 302.847656 C 324.738281 302.886719 325 303.203125 324.960938 303.558594 C 324.929688 303.894531 324.648438 304.144531 324.316406 304.144531 " fill-opacity="1" fill-rule="nonzero"/><path fill="#ffffff" d="M 293.730469 249.484375 C 293.441406 249.484375 293.179688 249.292969 293.101562 249 L 284.652344 216.644531 L 276.679688 212.488281 C 276.363281 212.324219 276.238281 211.929688 276.40625 211.613281 C 276.570312 211.292969 276.960938 211.171875 277.28125 211.335938 L 285.507812 215.628906 C 285.671875 215.714844 285.789062 215.863281 285.835938 216.039062 L 294.359375 248.671875 C 294.449219 249.019531 294.242188 249.375 293.894531 249.464844 C 293.839844 249.480469 293.785156 249.484375 293.730469 249.484375 " fill-opacity="1" fill-rule="nonzero"/><path fill="#ffffff" d="M 269.511719 118.042969 C 269.511719 118.042969 266.691406 118.648438 264.472656 122.074219 C 260.042969 128.90625 253.203125 141.339844 242.261719 143.195312 C 225.832031 145.980469 215.878906 125.992188 217.289062 121.515625 C 217.289062 121.515625 219.648438 118.382812 223.527344 117.433594 C 223.527344 117.433594 223.566406 114.3125 220.195312 115.789062 C 216.828125 117.269531 215.476562 116.367188 213.972656 116.011719 C 211.324219 115.390625 206.589844 111.710938 204.492188 110.902344 C 202.390625 110.09375 204.007812 112.554688 204.007812 112.554688 C 204.007812 112.554688 200.996094 109.527344 199.578125 110.6875 L 203.78125 114.832031 C 203.78125 114.832031 199.886719 110.761719 198.472656 112.382812 L 201.21875 115.304688 L 198.640625 114.148438 C 198.640625 114.148438 197.996094 114.855469 199.207031 116.113281 C 200.417969 117.371094 206.230469 124.234375 210.945312 124.234375 C 210.945312 124.234375 208.40625 162.085938 236.75 163.625 C 261.101562 164.945312 271.019531 145.300781 271.019531 145.300781 L 269.511719 118.042969 " fill-opacity="1" fill-rule="nonzero"/><path fill="#000000" d="M 199.265625 115.140625 C 199.351562 115.289062 199.484375 115.464844 199.675781 115.664062 C 199.792969 115.785156 199.953125 115.960938 200.152344 116.175781 C 201.839844 118.011719 206.96875 123.585938 210.945312 123.585938 C 211.125 123.585938 211.292969 123.660156 211.417969 123.789062 C 211.539062 123.921875 211.601562 124.097656 211.589844 124.277344 C 211.578125 124.472656 210.386719 144.195312 220.28125 155.363281 C 224.429688 160.046875 229.984375 162.609375 236.785156 162.976562 C 259.296875 164.199219 269.378906 146.941406 270.359375 145.15625 L 268.910156 118.945312 C 267.992188 119.355469 266.378906 120.320312 265.015625 122.425781 C 264.601562 123.070312 264.164062 123.761719 263.703125 124.488281 C 259.269531 131.503906 252.566406 142.105469 242.371094 143.835938 C 241.265625 144.023438 240.191406 144.109375 239.164062 144.109375 C 231.351562 144.109375 225.769531 139.15625 222.96875 135.941406 C 218.25 130.523438 215.859375 123.886719 216.671875 121.320312 C 216.691406 121.25 216.726562 121.183594 216.773438 121.125 C 216.867188 120.996094 219.09375 118.085938 222.8125 116.957031 C 222.746094 116.683594 222.617188 116.363281 222.351562 116.191406 C 221.875 115.875 221.058594 116.121094 220.457031 116.386719 C 217.429688 117.714844 215.824219 117.230469 214.53125 116.84375 C 214.292969 116.773438 214.058594 116.703125 213.824219 116.644531 C 212.15625 116.253906 209.808594 114.785156 207.734375 113.492188 C 206.359375 112.628906 205.058594 111.816406 204.257812 111.503906 C 204.226562 111.496094 204.195312 111.484375 204.167969 111.472656 C 204.257812 111.695312 204.402344 111.96875 204.550781 112.199219 C 204.734375 112.476562 204.675781 112.847656 204.417969 113.058594 C 204.160156 113.269531 203.785156 113.25 203.550781 113.015625 C 202.855469 112.320312 201.855469 111.5625 201.0625 111.238281 L 203.742188 113.875 C 204.003906 114.125 204.183594 114.3125 204.25 114.382812 C 204.496094 114.636719 204.492188 115.042969 204.238281 115.292969 C 203.984375 115.542969 203.578125 115.542969 203.324219 115.292969 L 202.808594 114.785156 C 201.875 113.910156 200.554688 112.886719 199.648438 112.6875 L 201.695312 114.859375 C 201.90625 115.082031 201.929688 115.425781 201.75 115.679688 C 201.570312 115.933594 201.238281 116.023438 200.957031 115.898438 Z M 239.046875 164.335938 C 238.285156 164.335938 237.507812 164.316406 236.714844 164.273438 C 229.550781 163.882812 223.695312 161.175781 219.304688 156.222656 C 209.964844 145.675781 210.117188 128.457031 210.261719 124.84375 C 205.886719 124.328125 201.066406 119.089844 199.195312 117.054688 C 199.007812 116.847656 198.851562 116.683594 198.738281 116.566406 C 197.128906 114.886719 198.117188 113.757812 198.160156 113.707031 C 198.28125 113.574219 198.453125 113.5 198.625 113.496094 L 197.996094 112.828125 C 197.769531 112.585938 197.761719 112.210938 197.980469 111.957031 C 198.316406 111.574219 198.773438 111.367188 199.300781 111.351562 C 199.3125 111.351562 199.320312 111.351562 199.328125 111.351562 L 199.125 111.152344 C 198.992188 111.019531 198.921875 110.84375 198.929688 110.65625 C 198.9375 110.472656 199.023438 110.300781 199.167969 110.183594 C 200.222656 109.320312 201.691406 109.949219 202.828125 110.726562 C 202.863281 110.628906 202.914062 110.535156 202.984375 110.449219 C 203.496094 109.820312 204.417969 110.179688 204.722656 110.292969 C 205.644531 110.648438 206.933594 111.457031 208.425781 112.390625 C 210.410156 113.628906 212.664062 115.039062 214.117188 115.378906 C 214.382812 115.441406 214.640625 115.519531 214.90625 115.601562 C 216.105469 115.960938 217.34375 116.332031 219.9375 115.195312 C 221.242188 114.621094 222.296875 114.59375 223.074219 115.105469 C 224.183594 115.84375 224.179688 117.378906 224.175781 117.445312 C 224.171875 117.738281 223.96875 117.996094 223.679688 118.066406 C 220.425781 118.859375 218.285156 121.316406 217.878906 121.816406 C 217.375 123.859375 219.429688 129.90625 223.949219 135.089844 C 226.9375 138.523438 233.289062 144.058594 242.152344 142.554688 C 251.777344 140.917969 258.292969 130.613281 262.605469 123.796875 C 263.070312 123.0625 263.507812 122.367188 263.925781 121.722656 C 266.265625 118.113281 269.25 117.433594 269.375 117.40625 C 269.5625 117.367188 269.753906 117.410156 269.90625 117.523438 C 270.054688 117.640625 270.148438 117.816406 270.160156 118.003906 L 271.664062 145.265625 C 271.671875 145.378906 271.648438 145.492188 271.597656 145.59375 C 271.492188 145.796875 268.996094 150.675781 263.441406 155.449219 C 258.628906 159.585938 250.585938 164.335938 239.046875 164.335938 " fill-opacity="1" fill-rule="nonzero"/><path fill="#000000" d="M 214.742188 122.175781 C 214.496094 122.175781 214.257812 122.035156 214.148438 121.796875 C 214.136719 121.765625 212.808594 118.902344 210.957031 119.28125 C 208.414062 119.800781 206.605469 119.144531 206.527344 119.117188 C 206.191406 118.988281 206.023438 118.613281 206.148438 118.28125 C 206.273438 117.941406 206.644531 117.773438 206.984375 117.898438 C 206.996094 117.902344 208.539062 118.449219 210.699219 118.007812 C 213.5625 117.417969 215.261719 121.101562 215.335938 121.261719 C 215.480469 121.585938 215.335938 121.96875 215.007812 122.117188 C 214.921875 122.15625 214.832031 122.175781 214.742188 122.175781 " fill-opacity="1" fill-rule="nonzero"/><path fill="#523762" d="M 360.074219 260.765625 L 314.65625 260.363281 C 311.929688 260.339844 309.992188 257.847656 310.648438 255.210938 L 318.886719 222.140625 C 319.578125 219.359375 322.140625 217.382812 325.015625 217.40625 L 363.972656 217.753906 L 360.074219 260.765625 " fill-opacity="1" fill-rule="nonzero"/><path fill="#000000" d="M 324.960938 218.058594 C 322.414062 218.058594 320.128906 219.835938 319.515625 222.296875 L 311.277344 255.367188 C 311.015625 256.425781 311.238281 257.515625 311.890625 258.359375 C 312.550781 259.210938 313.558594 259.703125 314.664062 259.714844 L 359.480469 260.109375 L 363.261719 218.398438 L 325.007812 218.058594 C 324.992188 218.058594 324.976562 218.058594 324.960938 218.058594 Z M 360.074219 261.414062 C 360.074219 261.414062 360.070312 261.414062 360.070312 261.414062 L 314.652344 261.011719 C 313.148438 261 311.769531 260.324219 310.867188 259.15625 C 309.964844 257.996094 309.65625 256.5 310.019531 255.054688 L 318.253906 221.984375 C 319.011719 218.949219 321.824219 216.757812 324.960938 216.757812 C 324.980469 216.757812 325 216.757812 325.019531 216.757812 L 363.980469 217.105469 C 364.160156 217.105469 364.332031 217.183594 364.453125 217.316406 C 364.574219 217.453125 364.636719 217.632812 364.617188 217.8125 L 360.722656 260.824219 C 360.691406 261.160156 360.410156 261.414062 360.074219 261.414062 " fill-opacity="1" fill-rule="nonzero"/><path fill="#230b41" d="M 365.890625 260.816406 L 357.074219 260.738281 C 354.351562 260.714844 352.410156 258.222656 353.066406 255.585938 L 362.140625 219.164062 C 362.347656 218.335938 363.109375 217.746094 363.964844 217.753906 L 366.230469 217.773438 C 367.171875 217.78125 367.925781 218.5 367.964844 219.429688 L 369.539062 257.097656 C 369.621094 259.121094 367.941406 260.835938 365.890625 260.816406 " fill-opacity="1" fill-rule="nonzero"/><path fill="#000000" d="M 365.894531 260.167969 C 365.90625 260.167969 365.914062 260.167969 365.921875 260.167969 C 366.722656 260.167969 367.5 259.835938 368.066406 259.253906 C 368.628906 258.667969 368.921875 257.914062 368.886719 257.125 L 367.316406 219.457031 C 367.289062 218.871094 366.824219 218.429688 366.226562 218.421875 L 363.960938 218.402344 C 363.957031 218.402344 363.953125 218.402344 363.949219 218.402344 C 363.398438 218.402344 362.902344 218.789062 362.769531 219.320312 L 353.699219 255.742188 C 353.433594 256.800781 353.65625 257.894531 354.3125 258.738281 C 354.96875 259.585938 355.976562 260.078125 357.082031 260.089844 Z M 365.921875 261.46875 C 365.910156 261.46875 365.898438 261.46875 365.882812 261.46875 L 357.070312 261.390625 C 355.566406 261.375 354.1875 260.699219 353.285156 259.535156 C 352.382812 258.375 352.074219 256.875 352.4375 255.429688 L 361.511719 219.007812 C 361.785156 217.902344 362.808594 217.105469 363.949219 217.105469 C 363.957031 217.105469 363.964844 217.105469 363.972656 217.105469 L 366.238281 217.125 C 367.515625 217.136719 368.558594 218.136719 368.613281 219.402344 L 370.1875 257.070312 C 370.234375 258.21875 369.8125 259.316406 369 260.160156 C 368.191406 260.992188 367.070312 261.46875 365.921875 261.46875 " fill-opacity="1" fill-rule="nonzero"/><path fill="#000000" d="M 354.953125 235.71875 C 354.941406 235.71875 354.933594 235.71875 354.921875 235.71875 L 319.363281 235.40625 C 319.003906 235.402344 318.714844 235.109375 318.71875 234.75 C 318.722656 234.394531 319.011719 234.105469 319.367188 234.105469 C 319.371094 234.105469 319.375 234.105469 319.375 234.105469 L 354.9375 234.421875 C 354.941406 234.421875 354.945312 234.421875 354.953125 234.421875 C 355.710938 234.421875 356.382812 233.914062 356.585938 233.183594 L 360.253906 220.125 C 360.351562 219.777344 360.710938 219.578125 361.054688 219.675781 C 361.398438 219.769531 361.601562 220.128906 361.503906 220.476562 L 357.835938 233.535156 C 357.476562 234.824219 356.289062 235.71875 354.953125 235.71875 " fill-opacity="1" fill-rule="nonzero"/><path fill="#ffffff" d="M 341.203125 234.949219 L 340.046875 238.914062 C 339.859375 239.585938 339.234375 240.054688 338.535156 240.046875 L 331.488281 239.984375 C 330.722656 239.980469 330.199219 239.25 330.433594 238.523438 L 331.613281 234.863281 L 341.203125 234.949219 " fill-opacity="1" fill-rule="nonzero"/><path fill="#000000" d="M 332.085938 235.519531 L 331.050781 238.722656 C 330.984375 238.925781 331.0625 239.074219 331.113281 239.144531 C 331.164062 239.214844 331.28125 239.335938 331.496094 239.339844 L 338.539062 239.398438 C 338.960938 239.410156 339.3125 239.125 339.421875 238.738281 L 340.339844 235.589844 Z M 338.546875 240.699219 C 338.542969 240.699219 338.535156 240.699219 338.527344 240.699219 L 331.484375 240.636719 C 330.910156 240.628906 330.390625 240.363281 330.058594 239.90625 C 329.726562 239.445312 329.636719 238.867188 329.816406 238.324219 L 330.996094 234.664062 C 331.082031 234.398438 331.332031 234.214844 331.613281 234.214844 C 331.617188 234.214844 331.617188 234.214844 331.621094 234.214844 L 341.210938 234.300781 C 341.414062 234.304688 341.605469 234.398438 341.726562 234.5625 C 341.847656 234.726562 341.882812 234.9375 341.828125 235.132812 L 340.671875 239.097656 C 340.40625 240.039062 339.53125 240.699219 338.546875 240.699219 " fill-opacity="1" fill-rule="nonzero"/><path fill="#000000" d="M 350.777344 258.003906 C 350.777344 258.003906 350.773438 258.003906 350.773438 258.003906 L 312.992188 257.667969 C 312.636719 257.664062 312.347656 257.371094 312.351562 257.015625 C 312.351562 256.65625 312.644531 256.371094 313 256.371094 C 313 256.371094 313.003906 256.371094 313.003906 256.371094 L 350.785156 256.707031 C 351.140625 256.707031 351.429688 257.003906 351.425781 257.359375 C 351.425781 257.71875 351.132812 258.003906 350.777344 258.003906 " fill-opacity="1" fill-rule="nonzero"/><path fill="#000000" d="M 334.050781 215.984375 L 331.101562 215.957031 C 330.304688 215.949219 329.632812 216.585938 329.601562 217.371094 L 335.433594 217.425781 C 335.464844 216.636719 334.847656 215.992188 334.050781 215.984375 " fill-opacity="1" fill-rule="nonzero"/><path fill="#000000" d="M 357.683594 216.195312 L 354.734375 216.167969 C 353.9375 216.160156 353.265625 216.792969 353.234375 217.582031 L 359.070312 217.632812 C 359.101562 216.847656 358.480469 216.203125 357.683594 216.195312 " fill-opacity="1" fill-rule="nonzero"/><path fill="#000000" d="M 356.917969 216.109375 L 357.507812 213.324219 C 357.921875 211.347656 356.636719 209.730469 354.636719 209.710938 L 336.953125 209.554688 C 334.953125 209.539062 332.992188 211.125 332.574219 213.101562 L 331.984375 215.890625 L 333.59375 216.28125 L 334.015625 214.007812 C 334.339844 212.46875 335.648438 210.957031 337.207031 210.972656 L 353.789062 211.117188 C 355.347656 211.132812 356.347656 212.390625 356.019531 213.929688 L 355.5625 216.097656 L 356.917969 216.109375 " fill-opacity="1" fill-rule="nonzero"/><path fill="#230b41" d="M 353.761719 208.546875 L 337.511719 208.402344 C 336.859375 208.398438 336.214844 208.957031 336.074219 209.65625 L 335.777344 211.167969 C 335.636719 211.867188 336.054688 212.433594 336.710938 212.441406 L 352.960938 212.585938 C 353.613281 212.589844 354.257812 212.03125 354.394531 211.332031 L 354.695312 209.820312 C 354.835938 209.125 354.417969 208.554688 353.761719 208.546875 " fill-opacity="1" fill-rule="nonzero"/><path fill="#523762" d="M 357.128906 258.0625 C 356.898438 258.0625 356.675781 257.9375 356.558594 257.722656 C 356.386719 257.40625 356.503906 257.011719 356.820312 256.839844 L 362.722656 253.636719 L 364.078125 220.308594 C 364.09375 219.949219 364.402344 219.671875 364.753906 219.683594 C 365.113281 219.699219 365.390625 220.003906 365.375 220.359375 L 364.007812 254.058594 C 363.996094 254.289062 363.867188 254.496094 363.667969 254.605469 L 357.4375 257.980469 C 357.339844 258.035156 357.234375 258.0625 357.128906 258.0625 " fill-opacity="1" fill-rule="nonzero"/><path fill="#ffffff" d="M 335.890625 200.386719 C 335.890625 200.386719 332.050781 157.300781 301.621094 128.773438 L 316.453125 113.164062 C 316.453125 113.164062 349.910156 151.933594 342.332031 198.902344 C 342.035156 200.734375 342.941406 202.550781 344.5625 203.449219 C 346.59375 204.578125 348.730469 205.570312 350.5 207.109375 C 351.703125 208.15625 352.949219 209.816406 352.6875 211.511719 C 352.378906 213.546875 350.308594 214.320312 348.507812 214.566406 C 347.082031 214.761719 343.601562 215.074219 342.550781 213.828125 C 342.242188 213.460938 342.199219 212.953125 342.109375 212.484375 C 341.890625 211.300781 341.226562 210.09375 340.148438 209.492188 C 338.832031 208.757812 337.242188 209.246094 335.828125 208.898438 L 335.890625 200.386719 " fill-opacity="1" fill-rule="nonzero"/><path fill="#000000" d="M 336.480469 208.351562 C 336.839844 208.390625 337.21875 208.394531 337.613281 208.398438 C 338.558594 208.402344 339.539062 208.410156 340.464844 208.925781 C 341.609375 209.5625 342.464844 210.847656 342.75 212.363281 L 342.785156 212.582031 C 342.84375 212.914062 342.898438 213.230469 343.046875 213.40625 C 343.613281 214.078125 345.769531 214.289062 348.421875 213.925781 C 349.933594 213.71875 351.789062 213.113281 352.046875 211.414062 C 352.308594 209.695312 350.601562 208.0625 350.074219 207.597656 C 348.726562 206.425781 347.097656 205.554688 345.523438 204.710938 C 345.097656 204.480469 344.671875 204.253906 344.25 204.019531 C 342.378906 202.980469 341.355469 200.882812 341.6875 198.800781 C 345.578125 174.714844 338.382812 152.84375 331.667969 138.734375 C 325.355469 125.480469 318.269531 116.40625 316.421875 114.140625 L 302.542969 128.75 C 318.054688 143.503906 326.457031 162.050781 330.78125 175.074219 C 335.515625 189.316406 336.527344 200.222656 336.539062 200.328125 C 336.539062 200.351562 336.539062 200.371094 336.539062 200.390625 Z M 345.988281 215.40625 C 344.421875 215.40625 342.816406 215.148438 342.054688 214.246094 C 341.679688 213.796875 341.582031 213.246094 341.507812 212.800781 L 341.472656 212.601562 C 341.261719 211.480469 340.636719 210.503906 339.835938 210.0625 C 339.199219 209.707031 338.421875 209.703125 337.601562 209.695312 C 336.972656 209.691406 336.320312 209.6875 335.671875 209.527344 C 335.378906 209.453125 335.175781 209.191406 335.175781 208.890625 L 335.242188 200.414062 C 335.179688 199.773438 334.109375 189.191406 329.539062 175.449219 C 325.214844 162.449219 316.785156 143.882812 301.179688 129.246094 C 301.050781 129.128906 300.976562 128.964844 300.972656 128.792969 C 300.96875 128.617188 301.035156 128.449219 301.152344 128.328125 L 315.984375 112.714844 C 316.109375 112.582031 316.269531 112.507812 316.46875 112.511719 C 316.652344 112.515625 316.824219 112.601562 316.945312 112.738281 C 317.03125 112.835938 325.453125 122.675781 332.820312 138.140625 C 339.628906 152.421875 346.914062 174.578125 342.972656 199.003906 C 342.722656 200.554688 343.488281 202.113281 344.878906 202.882812 C 345.296875 203.117188 345.71875 203.339844 346.136719 203.566406 C 347.777344 204.441406 349.46875 205.351562 350.925781 206.621094 C 351.769531 207.351562 353.683594 209.300781 353.332031 211.609375 C 353.035156 213.554688 351.351562 214.832031 348.597656 215.210938 C 347.875 215.3125 346.9375 215.40625 345.988281 215.40625 " fill-opacity="1" fill-rule="nonzero"/><path fill="#523762" d="M 299.832031 171.449219 C 305.851562 170.058594 315.15625 167.511719 318.84375 169.394531 C 324.582031 172.328125 315.171875 177.6875 308.582031 180.808594 L 299.832031 171.449219 " fill-opacity="1" fill-rule="nonzero"/><path fill="#230b41" d="M 320.617188 171.691406 C 320.617188 171.691406 309.265625 168.578125 293.417969 176.917969 C 277.5625 185.257812 258.75 181.0625 258.75 181.0625 C 258.75 181.0625 256.113281 143.148438 263.984375 122.1875 C 265.222656 118.886719 268.480469 115.535156 271.925781 114.78125 C 279.304688 113.167969 284.550781 110.804688 292.578125 110.265625 C 298.59375 109.859375 310.359375 110.917969 314.039062 111.714844 C 317.75 112.523438 320.015625 114.113281 319.039062 116.554688 L 312.886719 131.621094 C 309.800781 139.363281 310.144531 148.082031 313.9375 155.507812 C 313.96875 155.570312 314 155.628906 314.03125 155.695312 C 317.195312 161.835938 321.167969 164.335938 320.617188 171.691406 " fill-opacity="1" fill-rule="nonzero"/><path fill="#000000" d="M 290.433594 101.15625 C 292.1875 102.867188 294.386719 103.199219 295.449219 103.359375 C 297.667969 103.695312 307.160156 104.21875 313.550781 97.066406 C 319.8125 90.0625 320.445312 78.664062 316.875 76.339844 C 314.308594 74.671875 310.238281 78.109375 306.371094 75.515625 C 304.660156 74.367188 305.0625 73.429688 303.246094 72.210938 C 300.183594 70.160156 296.242188 70.957031 293.230469 71.605469 C 287.722656 72.792969 287.90625 74.3125 283.0625 75.523438 C 276.167969 77.25 272.246094 75.054688 270.894531 77.277344 C 269.820312 79.046875 271.195312 82.273438 273.054688 84.144531 C 276.90625 88.015625 281.675781 84.742188 284.640625 88.316406 C 286.480469 90.535156 286.214844 93.578125 288.953125 99.074219 C 289.171875 99.515625 289.597656 100.34375 290.433594 101.15625 " fill-opacity="1" fill-rule="nonzero"/><path fill="#ffffff" d="M 285.050781 106.515625 C 285.257812 105.808594 285.472656 105.023438 285.683594 104.203125 C 284.125 104.84375 282.496094 104.945312 281.53125 104.417969 C 280.339844 103.765625 280.125 102.476562 279.644531 100.941406 C 279.441406 100.296875 279.261719 99.546875 278.589844 98.890625 C 278.234375 98.542969 277.832031 98.316406 277.449219 98.160156 C 276.976562 97.972656 276.726562 97.453125 276.855469 96.964844 L 276.980469 96.671875 C 277.957031 94.371094 278.472656 91.902344 278.5 89.402344 L 278.554688 84.46875 C 281.246094 83.398438 282.226562 83.582031 282.59375 84.007812 C 282.730469 84.164062 282.929688 84.269531 282.921875 85.027344 C 282.875 88.695312 286.171875 88.316406 288.929688 87.644531 C 291.683594 86.96875 290.71875 92.082031 290.71875 92.082031 C 290.71875 92.082031 292.429688 89.871094 294.332031 91.789062 C 295.695312 93.164062 293.042969 95.417969 291.429688 96.585938 L 292.523438 107.179688 C 292.808594 109.96875 295.433594 109.945312 298.0625 110.910156 L 305.164062 112.683594 C 305.164062 112.683594 286.59375 120.941406 275.152344 115.101562 L 281.28125 113.007812 C 283.378906 111.878906 284.503906 108.394531 285.050781 106.515625 " fill-opacity="1" fill-rule="nonzero"/><path fill="#000000" d="M 281.28125 113.007812 L 281.285156 113.007812 Z M 276.925781 115.183594 C 285.859375 118.636719 298.398438 114.585938 303.0625 112.828125 L 297.90625 111.539062 C 297.886719 111.535156 297.863281 111.527344 297.839844 111.519531 C 297.28125 111.3125 296.714844 111.152344 296.164062 110.996094 C 294.1875 110.4375 292.144531 109.859375 291.875 107.25 L 290.78125 96.652344 C 290.757812 96.421875 290.859375 96.195312 291.050781 96.058594 C 292.871094 94.742188 293.996094 93.5 294.058594 92.730469 C 294.074219 92.539062 294.019531 92.394531 293.871094 92.246094 C 293.453125 91.828125 293.042969 91.632812 292.632812 91.65625 C 291.855469 91.703125 291.234375 92.472656 291.230469 92.480469 C 291.046875 92.714844 290.722656 92.792969 290.449219 92.671875 C 290.175781 92.546875 290.023438 92.253906 290.078125 91.960938 C 290.300781 90.792969 290.351562 88.90625 289.785156 88.371094 C 289.726562 88.3125 289.5625 88.15625 289.082031 88.273438 C 287.199219 88.734375 284.855469 89.117188 283.4375 87.992188 C 282.644531 87.363281 282.253906 86.363281 282.269531 85.019531 C 282.273438 84.617188 282.21875 84.558594 282.175781 84.511719 C 282.152344 84.484375 282.125 84.457031 282.101562 84.429688 C 282.097656 84.425781 281.683594 83.988281 279.199219 84.917969 L 279.148438 89.410156 C 279.121094 92.007812 278.59375 94.535156 277.578125 96.925781 L 277.476562 97.164062 C 277.449219 97.332031 277.535156 97.5 277.691406 97.558594 C 278.210938 97.769531 278.664062 98.0625 279.042969 98.425781 C 279.773438 99.140625 280.015625 99.9375 280.210938 100.578125 L 280.261719 100.746094 C 280.332031 100.964844 280.394531 101.183594 280.457031 101.390625 C 280.839844 102.683594 281.09375 103.4375 281.84375 103.847656 C 282.609375 104.269531 284.054688 104.171875 285.433594 103.601562 C 285.664062 103.507812 285.921875 103.550781 286.109375 103.710938 C 286.292969 103.871094 286.371094 104.125 286.3125 104.363281 C 286.125 105.105469 285.910156 105.890625 285.675781 106.695312 C 284.980469 109.082031 283.800781 112.386719 281.589844 113.578125 C 281.558594 113.59375 281.527344 113.609375 281.492188 113.621094 Z M 285.171875 117.855469 C 281.566406 117.855469 277.972656 117.269531 274.855469 115.683594 C 274.625 115.566406 274.488281 115.316406 274.503906 115.058594 C 274.523438 114.796875 274.695312 114.574219 274.941406 114.488281 L 281.019531 112.410156 C 282.980469 111.308594 284.066406 107.566406 284.425781 106.335938 C 284.425781 106.332031 284.425781 106.332031 284.425781 106.332031 C 284.542969 105.945312 284.648438 105.566406 284.75 105.191406 C 283.382812 105.53125 282.097656 105.46875 281.21875 104.984375 C 279.960938 104.296875 279.597656 103.0625 279.210938 101.757812 C 279.152344 101.554688 279.089844 101.347656 279.023438 101.136719 L 278.96875 100.953125 C 278.792969 100.382812 278.628906 99.835938 278.136719 99.359375 C 277.882812 99.109375 277.570312 98.910156 277.207031 98.765625 C 276.4375 98.453125 276.015625 97.609375 276.226562 96.796875 C 276.234375 96.769531 276.246094 96.738281 276.257812 96.710938 L 276.382812 96.417969 C 277.328125 94.183594 277.824219 91.824219 277.851562 89.394531 L 277.902344 84.460938 C 277.90625 84.199219 278.066406 83.960938 278.3125 83.863281 C 280.898438 82.839844 282.375 82.753906 283.085938 83.585938 L 283.117188 83.617188 C 283.402344 83.917969 283.578125 84.261719 283.570312 85.035156 C 283.558594 85.96875 283.78125 86.601562 284.246094 86.972656 C 285.234375 87.761719 287.304688 87.371094 288.773438 87.011719 C 289.742188 86.777344 290.34375 87.109375 290.683594 87.425781 C 291.449219 88.15625 291.578125 89.527344 291.53125 90.628906 C 291.832031 90.488281 292.171875 90.382812 292.546875 90.363281 C 293.355469 90.308594 294.105469 90.640625 294.792969 91.332031 C 295.207031 91.746094 295.398438 92.269531 295.351562 92.839844 C 295.257812 93.992188 294.167969 95.351562 292.113281 96.890625 L 293.164062 107.113281 C 293.335938 108.773438 294.433594 109.15625 296.519531 109.75 C 297.078125 109.90625 297.660156 110.070312 298.253906 110.289062 L 305.320312 112.054688 C 305.589844 112.121094 305.785156 112.351562 305.8125 112.628906 C 305.835938 112.902344 305.679688 113.164062 305.429688 113.277344 C 304.863281 113.527344 294.972656 117.855469 285.171875 117.855469 " fill-opacity="1" fill-rule="nonzero"/><path fill="#000000" d="M 285.195312 104.851562 C 284.925781 104.851562 284.675781 104.683594 284.585938 104.414062 C 284.464844 104.074219 284.644531 103.707031 284.984375 103.589844 C 287.601562 102.683594 288.78125 98.769531 288.792969 98.730469 C 288.894531 98.386719 289.253906 98.191406 289.597656 98.292969 C 289.941406 98.394531 290.140625 98.753906 290.039062 99.097656 C 289.984375 99.285156 288.660156 103.691406 285.410156 104.816406 C 285.339844 104.839844 285.265625 104.851562 285.195312 104.851562 " fill-opacity="1" fill-rule="nonzero"/><path fill="#ffffff" d="M 31.734375 332.808594 C 33.886719 328.375 34.09375 323.90625 31.734375 319.394531 L 33.425781 317.367188 L 79.738281 318.886719 L 78.140625 333.597656 L 33.3125 334.113281 L 31.734375 332.808594 " fill-opacity="1" fill-rule="nonzero"/><path fill="#000000" d="M 32.535156 332.628906 L 33.542969 333.464844 L 77.558594 332.957031 L 79.015625 319.515625 L 33.722656 318.023438 L 32.507812 319.484375 C 34.578125 323.703125 34.589844 328.121094 32.535156 332.628906 Z M 33.3125 334.765625 C 33.160156 334.765625 33.015625 334.710938 32.898438 334.617188 L 31.320312 333.308594 C 31.089844 333.117188 31.019531 332.792969 31.148438 332.523438 C 33.328125 328.046875 33.328125 323.847656 31.160156 319.695312 C 31.035156 319.464844 31.066406 319.183594 31.234375 318.980469 L 32.929688 316.949219 C 33.054688 316.796875 33.261719 316.707031 33.449219 316.714844 L 79.757812 318.238281 C 79.9375 318.246094 80.109375 318.324219 80.226562 318.460938 C 80.347656 318.597656 80.402344 318.777344 80.382812 318.957031 L 78.785156 333.667969 C 78.75 333.996094 78.476562 334.246094 78.148438 334.25 L 33.320312 334.765625 C 33.316406 334.765625 33.316406 334.765625 33.3125 334.765625 " fill-opacity="1" fill-rule="nonzero"/><path fill="#523762" d="M 116.828125 315.746094 L 30.875 315.746094 C 29.871094 315.746094 29.054688 316.5625 29.054688 317.5625 C 29.054688 318.570312 29.871094 319.382812 30.875 319.382812 L 70.390625 319.382812 C 73.285156 319.382812 75.628906 321.730469 75.628906 324.625 L 75.628906 327.566406 C 75.628906 330.460938 73.285156 332.808594 70.390625 332.808594 L 30.875 332.808594 C 29.871094 332.808594 29.054688 333.621094 29.054688 334.628906 C 29.054688 335.632812 29.871094 336.445312 30.875 336.445312 L 116.828125 336.445312 C 122.164062 336.445312 126.488281 332.121094 126.488281 326.785156 L 126.488281 325.40625 C 126.488281 320.070312 122.164062 315.746094 116.828125 315.746094 " fill-opacity="1" fill-rule="nonzero"/><path fill="#000000" d="M 30.875 333.457031 C 30.230469 333.457031 29.703125 333.980469 29.703125 334.628906 C 29.703125 335.273438 30.230469 335.796875 30.875 335.796875 L 116.828125 335.796875 C 121.796875 335.796875 125.839844 331.753906 125.839844 326.785156 L 125.839844 325.40625 C 125.839844 320.4375 121.796875 316.394531 116.828125 316.394531 L 30.875 316.394531 C 30.230469 316.394531 29.703125 316.921875 29.703125 317.5625 C 29.703125 318.210938 30.230469 318.734375 30.875 318.734375 L 70.390625 318.734375 C 73.636719 318.734375 76.28125 321.375 76.28125 324.625 L 76.28125 327.570312 C 76.28125 330.816406 73.636719 333.457031 70.390625 333.457031 Z M 116.828125 337.097656 L 30.875 337.097656 C 29.511719 337.097656 28.40625 335.988281 28.40625 334.628906 C 28.40625 333.265625 29.511719 332.160156 30.875 332.160156 L 70.390625 332.160156 C 72.921875 332.160156 74.980469 330.097656 74.980469 327.570312 L 74.980469 324.625 C 74.980469 322.09375 72.921875 320.03125 70.390625 320.03125 L 30.875 320.03125 C 29.511719 320.03125 28.40625 318.925781 28.40625 317.5625 C 28.40625 316.203125 29.511719 315.097656 30.875 315.097656 L 116.828125 315.097656 C 122.511719 315.097656 127.136719 319.71875 127.136719 325.40625 L 127.136719 326.785156 C 127.136719 332.472656 122.511719 337.097656 116.828125 337.097656 " fill-opacity="1" fill-rule="nonzero"/><path fill="#000000" d="M 56.683594 323.933594 L 53.300781 323.933594 C 52.941406 323.933594 52.652344 323.644531 52.652344 323.285156 C 52.652344 322.925781 52.941406 322.636719 53.300781 322.636719 L 56.683594 322.636719 C 57.042969 322.636719 57.335938 322.925781 57.335938 323.285156 C 57.335938 323.644531 57.042969 323.933594 56.683594 323.933594 " fill-opacity="1" fill-rule="nonzero"/><path fill="#000000" d="M 51.183594 323.933594 L 33.265625 323.933594 C 32.90625 323.933594 32.617188 323.644531 32.617188 323.285156 C 32.617188 322.925781 32.90625 322.636719 33.265625 322.636719 L 51.183594 322.636719 C 51.539062 322.636719 51.832031 322.925781 51.832031 323.285156 C 51.832031 323.644531 51.539062 323.933594 51.183594 323.933594 " fill-opacity="1" fill-rule="nonzero"/><path fill="#000000" d="M 54.628906 326.125 L 33.429688 326.125 C 33.070312 326.125 32.78125 325.835938 32.78125 325.476562 C 32.78125 325.117188 33.070312 324.828125 33.429688 324.828125 L 54.628906 324.828125 C 54.988281 324.828125 55.277344 325.117188 55.277344 325.476562 C 55.277344 325.835938 54.988281 326.125 54.628906 326.125 " fill-opacity="1" fill-rule="nonzero"/><path fill="#000000" d="M 59.960938 330.054688 L 56.109375 330.054688 C 55.75 330.054688 55.457031 329.765625 55.457031 329.402344 C 55.457031 329.046875 55.75 328.753906 56.109375 328.753906 L 59.960938 328.753906 C 60.320312 328.753906 60.609375 329.046875 60.609375 329.402344 C 60.609375 329.765625 60.320312 330.054688 59.960938 330.054688 " fill-opacity="1" fill-rule="nonzero"/><path fill="#000000" d="M 54.464844 330.054688 L 33.265625 330.054688 C 32.90625 330.054688 32.617188 329.765625 32.617188 329.402344 C 32.617188 329.046875 32.90625 328.753906 33.265625 328.753906 L 54.464844 328.753906 C 54.820312 328.753906 55.113281 329.046875 55.113281 329.402344 C 55.113281 329.765625 54.820312 330.054688 54.464844 330.054688 " fill-opacity="1" fill-rule="nonzero"/><path fill="#ffffff" d="M 33.070312 357.59375 L 110.707031 357.59375 L 110.707031 338.574219 L 33.070312 338.574219 C 35.363281 344.996094 35.425781 351.339844 33.070312 357.59375 " fill-opacity="1" fill-rule="nonzero"/><path fill="#000000" d="M 33.992188 356.945312 L 110.058594 356.945312 L 110.058594 339.21875 L 33.976562 339.21875 C 35.941406 345.246094 35.949219 351.199219 33.992188 356.945312 Z M 110.707031 358.242188 L 33.070312 358.242188 C 32.859375 358.242188 32.660156 358.136719 32.535156 357.960938 C 32.414062 357.785156 32.386719 357.5625 32.464844 357.363281 C 34.71875 351.371094 34.71875 345.121094 32.457031 338.792969 C 32.386719 338.589844 32.417969 338.371094 32.539062 338.199219 C 32.660156 338.023438 32.859375 337.921875 33.070312 337.921875 L 110.707031 337.921875 C 111.066406 337.921875 111.359375 338.214844 111.359375 338.574219 L 111.359375 357.59375 C 111.359375 357.953125 111.066406 358.242188 110.707031 358.242188 " fill-opacity="1" fill-rule="nonzero"/><path fill="#230b41" d="M 101.363281 339.511719 L 32.535156 339.511719 C 31.710938 339.511719 31.039062 338.839844 31.039062 338.011719 C 31.039062 337.183594 31.710938 336.511719 32.535156 336.511719 L 121.851562 336.511719 C 125.488281 336.511719 128.433594 339.460938 128.433594 343.097656 L 128.433594 353.453125 C 128.433594 357.089844 125.488281 360.039062 121.851562 360.039062 L 32.535156 360.039062 C 31.710938 360.039062 31.039062 359.367188 31.039062 358.539062 C 31.039062 357.710938 31.710938 357.039062 32.535156 357.039062 L 101.363281 357.039062 C 103.933594 357.039062 106.015625 354.957031 106.015625 352.386719 L 106.015625 344.164062 C 106.015625 341.59375 103.933594 339.511719 101.363281 339.511719 " fill-opacity="1" fill-rule="nonzero"/><path fill="#000000" d="M 32.535156 357.691406 C 32.070312 357.691406 31.6875 358.070312 31.6875 358.539062 C 31.6875 359.007812 32.070312 359.390625 32.535156 359.390625 L 121.851562 359.390625 C 125.121094 359.390625 127.785156 356.726562 127.785156 353.453125 L 127.785156 343.097656 C 127.785156 339.824219 125.121094 337.164062 121.851562 337.164062 L 32.535156 337.164062 C 32.070312 337.164062 31.6875 337.542969 31.6875 338.011719 C 31.6875 338.480469 32.070312 338.863281 32.535156 338.863281 L 101.363281 338.863281 C 104.285156 338.863281 106.664062 341.238281 106.664062 344.164062 L 106.664062 352.386719 C 106.664062 355.3125 104.285156 357.691406 101.363281 357.691406 Z M 121.851562 360.6875 L 32.535156 360.6875 C 31.351562 360.6875 30.386719 359.726562 30.386719 358.539062 C 30.386719 357.355469 31.351562 356.390625 32.535156 356.390625 L 101.363281 356.390625 C 103.570312 356.390625 105.367188 354.597656 105.367188 352.386719 L 105.367188 344.164062 C 105.367188 341.957031 103.570312 340.160156 101.363281 340.160156 L 32.535156 340.160156 C 31.351562 340.160156 30.386719 339.195312 30.386719 338.011719 C 30.386719 336.828125 31.351562 335.863281 32.535156 335.863281 L 121.851562 335.863281 C 125.839844 335.863281 129.085938 339.109375 129.085938 343.097656 L 129.085938 353.453125 C 129.085938 357.441406 125.839844 360.6875 121.851562 360.6875 " fill-opacity="1" fill-rule="nonzero"/><path fill="#000000" d="M 45.910156 343.738281 L 34.445312 343.738281 C 34.085938 343.738281 33.796875 343.449219 33.796875 343.089844 C 33.796875 342.730469 34.085938 342.441406 34.445312 342.441406 L 45.910156 342.441406 C 46.265625 342.441406 46.558594 342.730469 46.558594 343.089844 C 46.558594 343.449219 46.265625 343.738281 45.910156 343.738281 " fill-opacity="1" fill-rule="nonzero"/><path fill="#000000" d="M 68.714844 343.738281 L 47.875 343.738281 C 47.515625 343.738281 47.222656 343.449219 47.222656 343.089844 C 47.222656 342.730469 47.515625 342.441406 47.875 342.441406 L 68.714844 342.441406 C 69.074219 342.441406 69.363281 342.730469 69.363281 343.089844 C 69.363281 343.449219 69.074219 343.738281 68.714844 343.738281 " fill-opacity="1" fill-rule="nonzero"/><path fill="#000000" d="M 63.335938 346.277344 L 34.6875 346.277344 C 34.328125 346.277344 34.035156 345.988281 34.035156 345.625 C 34.035156 345.269531 34.328125 344.976562 34.6875 344.976562 L 63.335938 344.976562 C 63.691406 344.976562 63.984375 345.269531 63.984375 345.625 C 63.984375 345.988281 63.691406 346.277344 63.335938 346.277344 " fill-opacity="1" fill-rule="nonzero"/><path fill="#000000" d="M 71.589844 346.277344 L 65.757812 346.277344 C 65.398438 346.277344 65.109375 345.988281 65.109375 345.625 C 65.109375 345.269531 65.398438 344.976562 65.757812 344.976562 L 71.589844 344.976562 C 71.945312 344.976562 72.238281 345.269531 72.238281 345.625 C 72.238281 345.988281 71.945312 346.277344 71.589844 346.277344 " fill-opacity="1" fill-rule="nonzero"/><path fill="#000000" d="M 65.066406 351.574219 L 34.6875 351.574219 C 34.328125 351.574219 34.035156 351.285156 34.035156 350.925781 C 34.035156 350.566406 34.328125 350.277344 34.6875 350.277344 L 65.066406 350.277344 C 65.421875 350.277344 65.714844 350.566406 65.714844 350.925781 C 65.714844 351.285156 65.421875 351.574219 65.066406 351.574219 " fill-opacity="1" fill-rule="nonzero"/><path fill="#000000" d="M 68.714844 351.574219 L 67.199219 351.574219 C 66.839844 351.574219 66.550781 351.285156 66.550781 350.925781 C 66.550781 350.566406 66.839844 350.277344 67.199219 350.277344 L 68.714844 350.277344 C 69.074219 350.277344 69.363281 350.566406 69.363281 350.925781 C 69.363281 351.285156 69.074219 351.574219 68.714844 351.574219 " fill-opacity="1" fill-rule="nonzero"/><path fill="#ffffff" d="M 116.554688 314.035156 L 51.101562 314.035156 L 51.101562 300.714844 L 116.554688 300.714844 C 114.835938 305.214844 114.789062 309.652344 116.554688 314.035156 " fill-opacity="1" fill-rule="nonzero"/><path fill="#000000" d="M 51.753906 313.382812 L 115.621094 313.382812 C 114.261719 309.484375 114.265625 305.449219 115.632812 301.363281 L 51.753906 301.363281 Z M 116.554688 314.683594 L 51.101562 314.683594 C 50.746094 314.683594 50.453125 314.390625 50.453125 314.035156 L 50.453125 300.714844 C 50.453125 300.355469 50.746094 300.066406 51.101562 300.066406 L 116.554688 300.066406 C 116.769531 300.066406 116.972656 300.171875 117.089844 300.347656 C 117.214844 300.523438 117.238281 300.75 117.164062 300.945312 C 115.488281 305.328125 115.488281 309.648438 117.160156 313.789062 C 117.238281 313.992188 117.214844 314.21875 117.09375 314.398438 C 116.976562 314.574219 116.773438 314.683594 116.554688 314.683594 " fill-opacity="1" fill-rule="nonzero"/><path fill="#523762" d="M 58.113281 301.371094 L 116.957031 301.371094 C 117.578125 301.371094 118.082031 300.902344 118.082031 300.320312 C 118.082031 299.742188 117.578125 299.273438 116.957031 299.273438 L 42.746094 299.273438 C 40.019531 299.273438 37.808594 301.335938 37.808594 303.882812 L 37.808594 311.132812 C 37.808594 313.683594 40.019531 315.746094 42.746094 315.746094 L 116.957031 315.746094 C 117.578125 315.746094 118.082031 315.277344 118.082031 314.695312 C 118.082031 314.117188 117.578125 313.648438 116.957031 313.648438 L 58.113281 313.648438 C 56.1875 313.648438 54.625 312.1875 54.625 310.390625 L 54.625 304.628906 C 54.625 302.828125 56.1875 301.371094 58.113281 301.371094 " fill-opacity="1" fill-rule="nonzero"/><path fill="#000000" d="M 42.746094 299.921875 C 40.382812 299.921875 38.457031 301.699219 38.457031 303.882812 L 38.457031 311.132812 C 38.457031 313.316406 40.382812 315.097656 42.746094 315.097656 L 116.957031 315.097656 C 117.21875 315.097656 117.433594 314.917969 117.433594 314.695312 C 117.433594 314.476562 117.21875 314.296875 116.957031 314.296875 L 58.113281 314.296875 C 55.832031 314.296875 53.972656 312.542969 53.972656 310.390625 L 53.972656 304.628906 C 53.972656 302.476562 55.832031 300.722656 58.113281 300.722656 L 116.957031 300.722656 C 117.21875 300.722656 117.433594 300.542969 117.433594 300.320312 C 117.433594 300.101562 117.21875 299.921875 116.957031 299.921875 Z M 116.957031 316.394531 L 42.746094 316.394531 C 39.664062 316.394531 37.15625 314.035156 37.15625 311.132812 L 37.15625 303.882812 C 37.15625 300.984375 39.664062 298.625 42.746094 298.625 L 116.957031 298.625 C 117.933594 298.625 118.730469 299.386719 118.730469 300.320312 C 118.730469 301.257812 117.933594 302.023438 116.957031 302.023438 L 58.113281 302.023438 C 56.546875 302.023438 55.273438 303.191406 55.273438 304.628906 L 55.273438 310.390625 C 55.273438 311.828125 56.546875 313 58.113281 313 L 116.957031 313 C 117.933594 313 118.730469 313.761719 118.730469 314.695312 C 118.730469 315.632812 117.933594 316.394531 116.957031 316.394531 " fill-opacity="1" fill-rule="nonzero"/><path fill="#523762" d="M 112.679688 304.527344 L 98.589844 304.527344 C 98.234375 304.527344 97.941406 304.234375 97.941406 303.878906 C 97.941406 303.519531 98.234375 303.230469 98.589844 303.230469 L 112.679688 303.230469 C 113.039062 303.230469 113.332031 303.519531 113.332031 303.878906 C 113.332031 304.234375 113.039062 304.527344 112.679688 304.527344 " fill-opacity="1" fill-rule="nonzero"/><path fill="#523762" d="M 77.863281 304.527344 L 62.234375 304.527344 C 61.875 304.527344 61.585938 304.234375 61.585938 303.878906 C 61.585938 303.519531 61.875 303.230469 62.234375 303.230469 L 77.863281 303.230469 C 78.222656 303.230469 78.515625 303.519531 78.515625 303.878906 C 78.515625 304.234375 78.222656 304.527344 77.863281 304.527344 " fill-opacity="1" fill-rule="nonzero"/><path fill="#523762" d="M 112.5 307.34375 L 97.390625 307.34375 C 97.03125 307.34375 96.742188 307.054688 96.742188 306.695312 C 96.742188 306.335938 97.03125 306.042969 97.390625 306.042969 L 112.5 306.042969 C 112.859375 306.042969 113.148438 306.335938 113.148438 306.695312 C 113.148438 307.054688 112.859375 307.34375 112.5 307.34375 " fill-opacity="1" fill-rule="nonzero"/><path fill="#523762" d="M 79.320312 307.34375 L 59.914062 307.34375 C 59.554688 307.34375 59.265625 307.054688 59.265625 306.695312 C 59.265625 306.335938 59.554688 306.042969 59.914062 306.042969 L 79.320312 306.042969 C 79.679688 306.042969 79.96875 306.335938 79.96875 306.695312 C 79.96875 307.054688 79.679688 307.34375 79.320312 307.34375 " fill-opacity="1" fill-rule="nonzero"/><path fill="#523762" d="M 112.5 311.226562 L 84.222656 311.226562 C 83.867188 311.226562 83.574219 310.9375 83.574219 310.578125 C 83.574219 310.21875 83.867188 309.929688 84.222656 309.929688 L 112.5 309.929688 C 112.859375 309.929688 113.148438 310.21875 113.148438 310.578125 C 113.148438 310.9375 112.859375 311.226562 112.5 311.226562 " fill-opacity="1" fill-rule="nonzero"/><path fill="#523762" d="M 78.085938 311.226562 L 59.984375 311.226562 C 59.625 311.226562 59.335938 310.9375 59.335938 310.578125 C 59.335938 310.21875 59.625 309.929688 59.984375 309.929688 L 78.085938 309.929688 C 78.445312 309.929688 78.738281 310.21875 78.738281 310.578125 C 78.738281 310.9375 78.445312 311.226562 78.085938 311.226562 " fill-opacity="1" fill-rule="nonzero"/><path fill="#000000" d="M 43.871094 228.582031 C 43.761719 228.582031 43.652344 228.550781 43.550781 228.492188 C 43.238281 228.316406 43.128906 227.921875 43.308594 227.609375 L 55.023438 207.078125 C 55.136719 206.875 55.351562 206.75 55.585938 206.75 C 55.585938 206.75 55.585938 206.75 55.589844 206.75 C 55.820312 206.753906 56.039062 206.878906 56.152344 207.082031 L 67.355469 227.0625 C 67.53125 227.375 67.421875 227.769531 67.109375 227.949219 C 66.796875 228.121094 66.398438 228.011719 66.222656 227.699219 L 55.582031 208.71875 L 44.433594 228.253906 C 44.316406 228.460938 44.097656 228.582031 43.871094 228.582031 " fill-opacity="1" fill-rule="nonzero"/><path fill="#523762" d="M 55.992188 239.566406 L 55.28125 239.566406 C 49.878906 239.566406 43.871094 234.957031 43.871094 229.136719 L 67.300781 229.136719 C 67.300781 234.957031 61.394531 239.566406 55.992188 239.566406 " fill-opacity="1" fill-rule="nonzero"/><path fill="#230b41" d="M 44.546875 229.789062 C 44.976562 234.980469 50.503906 238.917969 55.28125 238.917969 L 55.992188 238.917969 C 60.726562 238.917969 66.195312 234.980469 66.625 229.789062 Z M 55.992188 240.214844 L 55.28125 240.214844 C 49.589844 240.214844 43.222656 235.480469 43.222656 229.136719 L 43.222656 228.488281 L 67.949219 228.488281 L 67.949219 229.136719 C 67.949219 235.480469 61.636719 240.214844 55.992188 240.214844 " fill-opacity="1" fill-rule="nonzero"/><path fill="#523762" d="M 67.5625 229.796875 L 43.199219 229.796875 C 42.613281 229.796875 42.140625 229.324219 42.140625 228.738281 L 42.140625 228.109375 C 42.140625 227.523438 42.613281 227.050781 43.199219 227.050781 L 67.5625 227.050781 C 68.148438 227.050781 68.625 227.523438 68.625 228.109375 L 68.625 228.738281 C 68.625 229.324219 68.148438 229.796875 67.5625 229.796875 " fill-opacity="1" fill-rule="nonzero"/><path fill="#000000" d="M 93.816406 247.945312 C 93.707031 247.945312 93.597656 247.917969 93.496094 247.859375 C 93.183594 247.683594 93.078125 247.285156 93.253906 246.976562 L 104.96875 226.445312 C 105.082031 226.242188 105.300781 226.117188 105.53125 226.117188 C 105.53125 226.117188 105.535156 226.117188 105.535156 226.117188 C 105.769531 226.117188 105.984375 226.246094 106.097656 226.449219 L 117.304688 246.429688 C 117.480469 246.742188 117.367188 247.136719 117.054688 247.3125 C 116.746094 247.488281 116.347656 247.378906 116.171875 247.066406 L 105.527344 228.085938 L 94.382812 247.617188 C 94.261719 247.828125 94.042969 247.945312 93.816406 247.945312 " fill-opacity="1" fill-rule="nonzero"/><path fill="#523762" d="M 105.941406 258.933594 L 105.226562 258.933594 C 99.824219 258.933594 93.816406 254.324219 93.816406 248.503906 L 117.246094 248.503906 C 117.246094 254.324219 111.339844 258.933594 105.941406 258.933594 " fill-opacity="1" fill-rule="nonzero"/><path fill="#230b41" d="M 94.496094 249.152344 C 94.925781 254.34375 100.449219 258.285156 105.226562 258.285156 L 105.941406 258.285156 C 110.671875 258.285156 116.144531 254.34375 116.570312 249.152344 Z M 105.941406 259.582031 L 105.226562 259.582031 C 99.535156 259.582031 93.167969 254.84375 93.167969 248.503906 L 93.167969 247.855469 L 117.894531 247.855469 L 117.894531 248.503906 C 117.894531 254.84375 111.582031 259.582031 105.941406 259.582031 " fill-opacity="1" fill-rule="nonzero"/><path fill="#ffffff" d="M 117.511719 249.164062 L 93.144531 249.164062 C 92.5625 249.164062 92.085938 248.6875 92.085938 248.101562 L 92.085938 247.476562 C 92.085938 246.894531 92.5625 246.417969 93.144531 246.417969 L 117.511719 246.417969 C 118.097656 246.417969 118.570312 246.894531 118.570312 247.476562 L 118.570312 248.101562 C 118.570312 248.6875 118.097656 249.164062 117.511719 249.164062 " fill-opacity="1" fill-rule="nonzero"/><path fill="#230b41" d="M 93.144531 247.066406 C 92.917969 247.066406 92.734375 247.253906 92.734375 247.476562 L 92.734375 248.101562 C 92.734375 248.332031 92.917969 248.511719 93.144531 248.511719 L 117.511719 248.511719 C 117.738281 248.511719 117.921875 248.332031 117.921875 248.101562 L 117.921875 247.476562 C 117.921875 247.253906 117.738281 247.066406 117.511719 247.066406 Z M 117.511719 249.8125 L 93.144531 249.8125 C 92.203125 249.8125 91.4375 249.046875 91.4375 248.101562 L 91.4375 247.476562 C 91.4375 246.535156 92.203125 245.769531 93.144531 245.769531 L 117.511719 245.769531 C 118.453125 245.769531 119.21875 246.535156 119.21875 247.476562 L 119.21875 248.101562 C 119.21875 249.046875 118.453125 249.8125 117.511719 249.8125 " fill-opacity="1" fill-rule="nonzero"/><path fill="#523762" d="M 82.75 297.761719 L 78.890625 297.761719 L 80.050781 202.546875 C 80.835938 202.546875 81.472656 203.160156 81.484375 203.921875 L 82.75 297.761719 " fill-opacity="1" fill-rule="nonzero"/><path fill="#230b41" d="M 79.546875 297.113281 L 82.089844 297.113281 L 80.835938 203.929688 C 80.832031 203.773438 80.777344 203.628906 80.6875 203.507812 Z M 83.410156 298.410156 L 78.234375 298.410156 L 79.410156 201.894531 L 80.050781 201.894531 C 81.183594 201.894531 82.117188 202.800781 82.132812 203.914062 L 83.410156 298.410156 " fill-opacity="1" fill-rule="nonzero"/><path fill="#523762" d="M 54.921875 208.253906 L 55.480469 206.59375 L 106.394531 226.53125 L 105.835938 228.191406 L 54.921875 208.253906 " fill-opacity="1" fill-rule="nonzero"/><path fill="#230b41" d="M 55.734375 207.875 L 105.4375 227.339844 L 105.582031 226.910156 L 55.878906 207.445312 Z M 106.230469 229.046875 L 54.109375 208.632812 L 55.082031 205.742188 L 107.207031 226.152344 L 106.230469 229.046875 " fill-opacity="1" fill-rule="nonzero"/><path fill="#523762" d="M 57.097656 207.746094 C 57.097656 208.78125 56.320312 209.617188 55.363281 209.617188 C 54.402344 209.617188 53.625 208.78125 53.625 207.746094 C 53.625 206.710938 54.402344 205.875 55.363281 205.875 C 56.320312 205.875 57.097656 206.710938 57.097656 207.746094 " fill-opacity="1" fill-rule="nonzero"/><path fill="#230b41" d="M 55.363281 206.523438 C 54.761719 206.523438 54.273438 207.074219 54.273438 207.746094 C 54.273438 208.417969 54.761719 208.96875 55.363281 208.96875 C 55.960938 208.96875 56.449219 208.417969 56.449219 207.746094 C 56.449219 207.074219 55.960938 206.523438 55.363281 206.523438 Z M 55.363281 210.269531 C 54.046875 210.269531 52.976562 209.136719 52.976562 207.746094 C 52.976562 206.355469 54.046875 205.222656 55.363281 205.222656 C 56.675781 205.222656 57.75 206.355469 57.75 207.746094 C 57.75 209.136719 56.675781 210.269531 55.363281 210.269531 " fill-opacity="1" fill-rule="nonzero"/><path fill="#523762" d="M 107.136719 227.074219 C 107.136719 228.105469 106.359375 228.945312 105.402344 228.945312 C 104.441406 228.945312 103.664062 228.105469 103.664062 227.074219 C 103.664062 226.039062 104.441406 225.203125 105.402344 225.203125 C 106.359375 225.203125 107.136719 226.039062 107.136719 227.074219 " fill-opacity="1" fill-rule="nonzero"/><path fill="#230b41" d="M 105.402344 225.851562 C 104.800781 225.851562 104.3125 226.398438 104.3125 227.074219 C 104.3125 227.746094 104.800781 228.296875 105.402344 228.296875 C 106 228.296875 106.488281 227.746094 106.488281 227.074219 C 106.488281 226.398438 106 225.851562 105.402344 225.851562 Z M 105.402344 229.597656 C 104.085938 229.597656 103.015625 228.464844 103.015625 227.074219 C 103.015625 225.683594 104.085938 224.554688 105.402344 224.554688 C 106.71875 224.554688 107.785156 225.683594 107.785156 227.074219 C 107.785156 228.464844 106.71875 229.597656 105.402344 229.597656 " fill-opacity="1" fill-rule="nonzero"/><path fill="#230b41" d="M 84.292969 217.414062 C 84.292969 219.523438 82.710938 221.230469 80.757812 221.230469 C 78.804688 221.230469 77.21875 219.523438 77.21875 217.414062 C 77.21875 215.3125 78.804688 213.605469 80.757812 213.605469 C 82.710938 213.605469 84.292969 215.3125 84.292969 217.414062 " fill-opacity="1" fill-rule="nonzero"/><path fill="#ffffff" d="M 67.5625 229.796875 L 43.199219 229.796875 C 42.613281 229.796875 42.140625 229.324219 42.140625 228.738281 L 42.140625 228.109375 C 42.140625 227.523438 42.613281 227.050781 43.199219 227.050781 L 67.5625 227.050781 C 68.148438 227.050781 68.625 227.523438 68.625 228.109375 L 68.625 228.738281 C 68.625 229.324219 68.148438 229.796875 67.5625 229.796875 " fill-opacity="1" fill-rule="nonzero"/><path fill="#230b41" d="M 43.199219 227.699219 C 42.972656 227.699219 42.789062 227.886719 42.789062 228.109375 L 42.789062 228.738281 C 42.789062 228.960938 42.972656 229.148438 43.199219 229.148438 L 67.5625 229.148438 C 67.789062 229.148438 67.972656 228.960938 67.972656 228.738281 L 67.972656 228.109375 C 67.972656 227.886719 67.789062 227.699219 67.5625 227.699219 Z M 67.5625 230.445312 L 43.199219 230.445312 C 42.257812 230.445312 41.488281 229.679688 41.488281 228.738281 L 41.488281 228.109375 C 41.488281 227.167969 42.257812 226.402344 43.199219 226.402344 L 67.5625 226.402344 C 68.507812 226.402344 69.273438 227.167969 69.273438 228.109375 L 69.273438 228.738281 C 69.273438 229.679688 68.507812 230.445312 67.5625 230.445312 " fill-opacity="1" fill-rule="nonzero"/><path fill="#523762" d="M 100.730469 297.796875 L 60.632812 297.796875 L 60.632812 293.777344 L 100.730469 293.777344 L 100.730469 297.796875 " fill-opacity="1" fill-rule="nonzero"/><path fill="#230b41" d="M 61.28125 297.148438 L 100.078125 297.148438 L 100.078125 294.429688 L 61.28125 294.429688 Z M 101.378906 298.449219 L 59.984375 298.449219 L 59.984375 293.128906 L 101.378906 293.128906 L 101.378906 298.449219 " fill-opacity="1" fill-rule="nonzero"/><path fill="#523762" d="M 96.222656 293.695312 L 65.296875 293.695312 L 65.296875 289.675781 L 96.222656 289.675781 L 96.222656 293.695312 " fill-opacity="1" fill-rule="nonzero"/><path fill="#230b41" d="M 65.945312 293.046875 L 95.574219 293.046875 L 95.574219 290.324219 L 65.945312 290.324219 Z M 96.871094 294.34375 L 64.644531 294.34375 L 64.644531 289.027344 L 96.871094 289.027344 L 96.871094 294.34375 " fill-opacity="1" fill-rule="nonzero"/><path fill="#523762" d="M 219.960938 103.6875 C 219.960938 106.882812 217.339844 109.503906 214.140625 109.503906 L 202.808594 109.503906 C 199.609375 109.503906 196.992188 106.882812 196.992188 103.6875 L 196.992188 94.027344 C 196.992188 90.828125 199.609375 88.207031 202.808594 88.207031 L 214.140625 88.207031 C 217.339844 88.207031 219.960938 90.828125 219.960938 94.027344 Z M 192.632812 77.734375 L 192.632812 113.691406 L 224.164062 113.691406 L 224.164062 77.734375 L 192.632812 77.734375 " fill-opacity="1" fill-rule="nonzero"/><path fill="#000000" d="M 193.28125 113.042969 L 223.515625 113.042969 L 223.515625 78.382812 L 193.28125 78.382812 Z M 224.164062 114.339844 L 192.632812 114.339844 C 192.273438 114.339844 191.984375 114.050781 191.984375 113.691406 L 191.984375 77.734375 C 191.984375 77.375 192.273438 77.085938 192.632812 77.085938 L 224.164062 77.085938 C 224.523438 77.085938 224.816406 77.375 224.816406 77.734375 L 224.816406 113.691406 C 224.816406 114.050781 224.523438 114.339844 224.164062 114.339844 " fill-opacity="1" fill-rule="nonzero"/><path fill="#523762" d="M 224.152344 115.703125 L 192.796875 115.703125 C 191.992188 115.703125 191.339844 115.050781 191.339844 114.246094 C 191.339844 113.441406 191.992188 112.789062 192.796875 112.789062 L 224.152344 112.789062 C 224.957031 112.789062 225.609375 113.441406 225.609375 114.246094 C 225.609375 115.050781 224.957031 115.703125 224.152344 115.703125 " fill-opacity="1" fill-rule="nonzero"/><path fill="#000000" d="M 208.046875 113.4375 L 198.878906 113.4375 C 198.523438 113.4375 198.230469 113.148438 198.230469 112.789062 C 198.230469 112.429688 198.523438 112.136719 198.878906 112.136719 L 208.046875 112.136719 C 208.40625 112.136719 208.695312 112.429688 208.695312 112.789062 C 208.695312 113.148438 208.40625 113.4375 208.046875 113.4375 " fill-opacity="1" fill-rule="nonzero"/><path fill="#000000" d="M 224.839844 116.351562 L 192.109375 116.351562 C 191.328125 116.351562 190.691406 115.714844 190.691406 114.933594 L 190.691406 113.558594 C 190.691406 112.777344 191.328125 112.136719 192.109375 112.136719 L 196.328125 112.136719 C 196.6875 112.136719 196.980469 112.429688 196.980469 112.789062 C 196.980469 113.148438 196.6875 113.4375 196.328125 113.4375 L 192.109375 113.4375 C 192.042969 113.4375 191.992188 113.492188 191.992188 113.558594 L 191.992188 114.933594 C 191.992188 115 192.042969 115.050781 192.109375 115.050781 L 224.839844 115.050781 C 224.90625 115.050781 224.960938 115 224.960938 114.933594 L 224.960938 113.558594 C 224.960938 113.492188 224.90625 113.4375 224.839844 113.4375 L 214.660156 113.4375 C 214.300781 113.4375 214.011719 113.148438 214.011719 112.789062 C 214.011719 112.429688 214.300781 112.136719 214.660156 112.136719 L 224.839844 112.136719 C 225.621094 112.136719 226.257812 112.777344 226.257812 113.558594 L 226.257812 114.933594 C 226.257812 115.714844 225.621094 116.351562 224.839844 116.351562 " fill-opacity="1" fill-rule="nonzero"/><path fill="#230b41" d="M 191.949219 88.503906 L 191.949219 55.746094 C 191.949219 55.746094 197.285156 53.382812 208.488281 53.285156 C 219.6875 53.1875 225.054688 55.84375 225.054688 55.84375 L 225.054688 88.503906 L 220.015625 88.503906 L 220.015625 80.574219 L 196.984375 80.6875 L 196.925781 88.503906 L 191.949219 88.503906 " fill-opacity="1" fill-rule="nonzero"/><path fill="#000000" d="M 220.664062 87.855469 L 224.40625 87.855469 L 224.40625 56.273438 C 223.039062 55.710938 217.804688 53.859375 208.492188 53.9375 C 199.210938 54.019531 193.996094 55.675781 192.597656 56.1875 L 192.597656 87.855469 L 196.28125 87.855469 L 196.332031 80.683594 C 196.335938 80.328125 196.625 80.039062 196.980469 80.039062 L 220.011719 79.925781 C 220.171875 79.929688 220.351562 79.992188 220.472656 80.113281 C 220.59375 80.234375 220.664062 80.402344 220.664062 80.574219 Z M 225.054688 89.15625 L 220.015625 89.15625 C 219.65625 89.15625 219.363281 88.863281 219.363281 88.503906 L 219.363281 81.226562 L 197.625 81.332031 L 197.574219 88.511719 C 197.570312 88.867188 197.28125 89.15625 196.925781 89.15625 L 191.949219 89.15625 C 191.589844 89.15625 191.300781 88.863281 191.300781 88.503906 L 191.300781 55.746094 C 191.300781 55.492188 191.449219 55.257812 191.6875 55.152344 C 191.910156 55.054688 197.273438 52.738281 208.480469 52.636719 C 219.722656 52.546875 225.117188 55.152344 225.34375 55.265625 C 225.5625 55.375 225.703125 55.601562 225.703125 55.84375 L 225.703125 88.503906 C 225.703125 88.863281 225.414062 89.15625 225.054688 89.15625 " fill-opacity="1" fill-rule="nonzero"/><path fill="#000000" d="M 218.25 84.054688 L 199.152344 84.054688 C 198.75 84.054688 198.421875 83.726562 198.421875 83.324219 C 198.421875 82.921875 198.75 82.59375 199.152344 82.59375 L 218.25 82.59375 C 218.652344 82.59375 218.980469 82.921875 218.980469 83.324219 C 218.980469 83.726562 218.652344 84.054688 218.25 84.054688 " fill-opacity="1" fill-rule="nonzero"/><path fill="#ae9fcf" d="M 219.171875 64.058594 C 218.648438 64.058594 218.226562 63.632812 218.226562 63.113281 L 218.226562 59.027344 C 218.226562 58.507812 218.648438 58.082031 219.171875 58.082031 C 219.691406 58.082031 220.117188 58.507812 220.117188 59.027344 L 220.117188 63.113281 C 220.117188 63.632812 219.691406 64.058594 219.171875 64.058594 " fill-opacity="1" fill-rule="nonzero"/><path fill="#ae9fcf" d="M 219.171875 76.980469 C 218.648438 76.980469 218.226562 76.554688 218.226562 76.035156 L 218.226562 66.546875 C 218.226562 66.027344 218.648438 65.601562 219.171875 65.601562 C 219.691406 65.601562 220.117188 66.027344 220.117188 66.546875 L 220.117188 76.035156 C 220.117188 76.554688 219.691406 76.980469 219.171875 76.980469 " fill-opacity="1" fill-rule="nonzero"/><path fill="#000000" d="M 221.238281 289.917969 C 221.035156 289.917969 220.832031 289.820312 220.703125 289.640625 C 220.5 289.347656 220.570312 288.945312 220.863281 288.734375 L 222.746094 287.410156 C 223.039062 287.203125 223.445312 287.273438 223.652344 287.566406 C 223.855469 287.863281 223.785156 288.265625 223.496094 288.472656 L 221.609375 289.796875 C 221.496094 289.878906 221.367188 289.917969 221.238281 289.917969 " fill-opacity="1" fill-rule="nonzero"/><path fill="#000000" d="M 214.644531 294.554688 C 214.441406 294.554688 214.242188 294.460938 214.113281 294.28125 C 213.90625 293.988281 213.976562 293.582031 214.273438 293.375 L 216.15625 292.050781 C 216.449219 291.84375 216.851562 291.914062 217.058594 292.207031 C 217.265625 292.503906 217.195312 292.90625 216.902344 293.113281 L 215.019531 294.4375 C 214.902344 294.519531 214.773438 294.554688 214.644531 294.554688 " fill-opacity="1" fill-rule="nonzero"/><path fill="#000000" d="M 221.878906 295.710938 C 221.679688 295.710938 221.480469 295.617188 221.351562 295.441406 L 220.019531 293.601562 C 219.808594 293.3125 219.875 292.90625 220.164062 292.695312 C 220.457031 292.488281 220.863281 292.550781 221.074219 292.839844 L 222.402344 294.679688 C 222.613281 294.96875 222.550781 295.375 222.257812 295.585938 C 222.144531 295.667969 222.007812 295.710938 221.878906 295.710938 " fill-opacity="1" fill-rule="nonzero"/><path fill="#000000" d="M 217.21875 289.277344 C 217.015625 289.277344 216.820312 289.183594 216.691406 289.007812 L 215.359375 287.171875 C 215.148438 286.878906 215.214844 286.472656 215.503906 286.261719 C 215.796875 286.054688 216.203125 286.117188 216.414062 286.40625 L 217.742188 288.246094 C 217.953125 288.535156 217.890625 288.945312 217.597656 289.152344 C 217.484375 289.238281 217.351562 289.277344 217.21875 289.277344 " fill-opacity="1" fill-rule="nonzero"/><path fill="#000000" d="M 182.464844 318.84375 L 182.46875 318.84375 Z M 178.480469 312.429688 C 177.148438 312.429688 175.847656 313.074219 175.089844 314.253906 C 174.523438 315.128906 174.335938 316.171875 174.5625 317.1875 C 174.796875 318.230469 175.433594 319.121094 176.351562 319.691406 C 178.234375 320.867188 180.734375 320.332031 181.917969 318.492188 C 182.484375 317.613281 182.671875 316.574219 182.441406 315.554688 C 182.210938 314.515625 181.574219 313.625 180.65625 313.050781 C 179.980469 312.628906 179.226562 312.429688 178.480469 312.429688 Z M 178.519531 321.613281 C 177.542969 321.613281 176.550781 321.347656 175.664062 320.792969 C 174.445312 320.035156 173.605469 318.855469 173.296875 317.472656 C 172.992188 316.117188 173.238281 314.71875 173.996094 313.546875 C 175.5625 311.117188 178.859375 310.398438 181.34375 311.949219 C 182.558594 312.710938 183.402344 313.886719 183.710938 315.269531 C 184.011719 316.632812 183.765625 318.023438 183.011719 319.195312 C 182.003906 320.757812 180.28125 321.613281 178.519531 321.613281 " fill-opacity="1" fill-rule="nonzero"/><path fill="#000000" d="M 209.382812 311.089844 L 209.386719 311.089844 Z M 206.808594 307.179688 C 206.027344 307.179688 205.261719 307.558594 204.816406 308.25 C 204.484375 308.765625 204.375 309.375 204.507812 309.972656 C 204.644531 310.582031 205.019531 311.105469 205.558594 311.441406 C 206.667969 312.132812 208.140625 311.820312 208.835938 310.738281 C 209.167969 310.226562 209.277344 309.613281 209.140625 309.019531 C 209.003906 308.410156 208.632812 307.886719 208.09375 307.550781 C 207.691406 307.300781 207.25 307.179688 206.808594 307.179688 Z M 206.835938 313.105469 C 206.164062 313.105469 205.480469 312.925781 204.871094 312.542969 C 204.03125 312.023438 203.453125 311.210938 203.242188 310.257812 C 203.03125 309.316406 203.203125 308.359375 203.722656 307.550781 C 204.804688 305.875 207.070312 305.378906 208.78125 306.449219 C 209.617188 306.96875 210.195312 307.78125 210.410156 308.734375 C 210.617188 309.671875 210.449219 310.632812 209.929688 311.441406 C 209.234375 312.519531 208.046875 313.105469 206.835938 313.105469 " fill-opacity="1" fill-rule="nonzero"/><path fill="#000000" d="M 195.183594 350.808594 C 191.984375 350.808594 188.785156 350.695312 185.574219 350.460938 C 171.554688 349.445312 157.808594 346.195312 144.722656 340.804688 C 144.390625 340.667969 144.234375 340.289062 144.367188 339.957031 C 144.503906 339.625 144.886719 339.464844 145.214844 339.605469 C 158.175781 344.941406 171.785156 348.160156 185.667969 349.164062 C 203.898438 350.484375 221.960938 348.011719 239.359375 341.808594 C 239.699219 341.6875 240.074219 341.867188 240.191406 342.203125 C 240.3125 342.542969 240.136719 342.914062 239.800781 343.03125 C 225.289062 348.203125 210.320312 350.808594 195.183594 350.808594 " fill-opacity="1" fill-rule="nonzero"/><path fill="#000000" d="M 195.484375 337.140625 C 184.671875 337.140625 173.894531 335.894531 163.300781 333.414062 C 162.949219 333.332031 162.734375 332.984375 162.8125 332.632812 C 162.898438 332.285156 163.246094 332.070312 163.597656 332.148438 C 178.816406 335.714844 194.414062 336.703125 209.949219 335.09375 C 224.980469 333.535156 239.582031 329.574219 253.355469 323.320312 C 253.683594 323.171875 254.066406 323.320312 254.214844 323.644531 C 254.363281 323.96875 254.21875 324.355469 253.890625 324.503906 C 239.992188 330.8125 225.253906 334.808594 210.082031 336.386719 C 205.21875 336.890625 200.347656 337.140625 195.484375 337.140625 " fill-opacity="1" fill-rule="nonzero"/><path fill="#ffffff" d="M 330.300781 38.914062 C 328.324219 47.210938 320.023438 52.554688 311.757812 50.84375 C 303.492188 49.132812 298.398438 41.019531 300.375 32.71875 C 302.351562 24.421875 310.652344 19.078125 318.917969 20.789062 C 327.183594 22.5 332.277344 30.613281 330.300781 38.914062 " fill-opacity="1" fill-rule="nonzero"/><path fill="#000000" d="M 315.488281 52.066406 C 309.484375 52.066406 303.644531 48.925781 300.601562 43.429688 C 297.953125 38.644531 297.921875 32.933594 300.515625 28.148438 C 300.6875 27.832031 301.078125 27.71875 301.394531 27.890625 C 301.710938 28.058594 301.828125 28.453125 301.65625 28.769531 C 299.273438 33.160156 299.304688 38.40625 301.738281 42.800781 C 305.78125 50.097656 315.171875 52.894531 322.675781 49.027344 C 326.328125 47.144531 328.984375 43.988281 330.15625 40.136719 C 331.308594 36.347656 330.875 32.332031 328.933594 28.828125 C 324.894531 21.53125 315.503906 18.734375 308 22.601562 C 307.679688 22.765625 307.289062 22.640625 307.125 22.320312 C 306.960938 22 307.085938 21.609375 307.40625 21.445312 C 315.527344 17.261719 325.695312 20.292969 330.070312 28.203125 C 332.179688 32.011719 332.652344 36.382812 331.398438 40.515625 C 330.125 44.703125 327.238281 48.140625 323.269531 50.183594 C 320.792969 51.460938 318.125 52.066406 315.488281 52.066406 " fill-opacity="1" fill-rule="nonzero"/><path fill="#230b41" d="M 312.046875 44.53125 L 312.542969 42.445312 C 311.09375 42.078125 309.769531 41.386719 309.054688 40.730469 L 310.320312 38.300781 C 311.121094 38.996094 312.296875 39.722656 313.71875 40.015625 C 314.964844 40.273438 315.929688 39.96875 316.140625 39.089844 C 316.339844 38.257812 315.765625 37.585938 314.277344 36.703125 C 312.128906 35.429688 310.792969 34 311.300781 31.871094 C 311.761719 29.941406 313.476562 28.707031 315.925781 28.730469 L 316.421875 26.644531 L 318.5625 27.089844 L 318.105469 29.019531 C 319.550781 29.390625 320.460938 29.898438 321.097656 30.402344 L 319.875 32.75 C 319.363281 32.390625 318.480469 31.675781 316.90625 31.351562 C 315.488281 31.054688 314.878906 31.578125 314.734375 32.191406 C 314.5625 32.914062 315.21875 33.535156 316.90625 34.621094 C 319.289062 36.082031 320.046875 37.503906 319.578125 39.480469 C 319.113281 41.433594 317.339844 42.816406 314.722656 42.734375 L 314.1875 44.972656 L 312.046875 44.53125 " fill-opacity="1" fill-rule="nonzero"/><path fill="#ffffff" d="M 362.863281 33.746094 C 364.910156 39.492188 362.011719 45.929688 356.394531 48.121094 C 350.769531 50.316406 344.554688 47.433594 342.507812 41.6875 C 340.460938 35.941406 343.359375 29.507812 348.980469 27.3125 C 354.601562 25.121094 360.816406 28 362.863281 33.746094 " fill-opacity="1" fill-rule="nonzero"/><path fill="#000000" d="M 352.511719 49.863281 C 350.886719 49.863281 349.269531 49.515625 347.75 48.820312 C 344.855469 47.5 342.660156 45.085938 341.574219 42.03125 C 339.347656 35.789062 342.511719 28.765625 348.625 26.378906 C 352.324219 24.9375 356.445312 25.464844 359.636719 27.792969 C 359.925781 28.007812 359.992188 28.410156 359.78125 28.703125 C 359.570312 28.992188 359.160156 29.054688 358.871094 28.84375 C 356.039062 26.773438 352.382812 26.304688 349.097656 27.589844 C 343.632812 29.722656 340.804688 36.003906 342.796875 41.597656 C 343.765625 44.320312 345.71875 46.464844 348.289062 47.640625 C 350.820312 48.792969 353.65625 48.867188 356.273438 47.847656 C 361.738281 45.714844 364.566406 39.429688 362.574219 33.839844 C 362.457031 33.5 362.628906 33.128906 362.96875 33.007812 C 363.304688 32.890625 363.679688 33.066406 363.796875 33.402344 C 366.023438 39.648438 362.859375 46.671875 356.746094 49.058594 C 355.367188 49.59375 353.9375 49.863281 352.511719 49.863281 " fill-opacity="1" fill-rule="nonzero"/><path fill="#230b41" d="M 354.105469 44.222656 L 353.59375 42.78125 C 352.582031 43.125 351.515625 43.226562 350.832031 43.113281 L 350.644531 41.164062 C 351.394531 41.269531 352.382812 41.246094 353.351562 40.867188 C 354.195312 40.539062 354.660156 39.976562 354.441406 39.371094 C 354.234375 38.792969 353.632812 38.613281 352.394531 38.664062 C 350.609375 38.734375 349.253906 38.398438 348.730469 36.925781 C 348.253906 35.585938 348.800781 34.179688 350.277344 33.242188 L 349.765625 31.796875 L 351.21875 31.230469 L 351.695312 32.566406 C 352.707031 32.222656 353.453125 32.175781 354.03125 32.226562 L 354.210938 34.113281 C 353.765625 34.09375 352.957031 34.011719 351.886719 34.429688 C 350.921875 34.808594 350.761719 35.351562 350.910156 35.78125 C 351.089844 36.28125 351.726562 36.398438 353.160156 36.390625 C 355.15625 36.339844 356.167969 36.894531 356.65625 38.261719 C 357.136719 39.613281 356.613281 41.132812 355.011719 42.105469 L 355.5625 43.65625 L 354.105469 44.222656 " fill-opacity="1" fill-rule="nonzero"/><path fill="#ffffff" d="M 350.304688 63.367188 C 353.171875 69.425781 350.707031 76.777344 344.800781 79.785156 C 338.894531 82.796875 331.785156 80.328125 328.921875 74.269531 C 326.058594 68.210938 328.523438 60.859375 334.425781 57.851562 C 340.332031 54.839844 347.441406 57.3125 350.304688 63.367188 " fill-opacity="1" fill-rule="nonzero"/><path fill="#000000" d="M 339.507812 82.109375 C 338.144531 82.109375 336.777344 81.886719 335.449219 81.433594 C 332.160156 80.308594 329.511719 77.925781 327.996094 74.71875 C 324.898438 68.167969 327.574219 60.183594 333.96875 56.925781 C 337.835938 54.953125 342.371094 55.082031 346.097656 57.269531 C 346.40625 57.449219 346.507812 57.847656 346.328125 58.15625 C 346.144531 58.46875 345.75 58.570312 345.4375 58.386719 C 342.097656 56.425781 338.03125 56.3125 334.558594 58.082031 C 328.785156 61.027344 326.371094 68.238281 329.171875 74.164062 C 330.535156 77.050781 332.914062 79.195312 335.871094 80.203125 C 338.777344 81.195312 341.902344 80.964844 344.667969 79.554688 C 350.441406 76.609375 352.859375 69.398438 350.054688 63.472656 C 349.902344 63.148438 350.042969 62.761719 350.367188 62.605469 C 350.691406 62.453125 351.078125 62.59375 351.230469 62.917969 C 354.328125 69.46875 351.648438 77.453125 345.257812 80.710938 C 343.4375 81.640625 341.476562 82.109375 339.507812 82.109375 " fill-opacity="1" fill-rule="nonzero"/><path fill="#230b41" d="M 341.875 75.773438 L 341.15625 74.253906 C 340.085938 74.738281 338.9375 74.96875 338.175781 74.917969 L 337.757812 72.804688 C 338.589844 72.839844 339.667969 72.707031 340.683594 72.1875 C 341.574219 71.734375 342.015625 71.074219 341.714844 70.429688 C 341.425781 69.824219 340.746094 69.691406 339.398438 69.878906 C 337.457031 70.15625 335.9375 69.9375 335.203125 68.386719 C 334.535156 66.976562 334.980469 65.375 336.492188 64.1875 L 335.773438 62.667969 L 337.304688 61.886719 L 337.96875 63.292969 C 339.039062 62.808594 339.847656 62.675781 340.484375 62.667969 L 340.886719 64.710938 C 340.398438 64.738281 339.507812 64.738281 338.378906 65.3125 C 337.367188 65.828125 337.25 66.445312 337.464844 66.894531 C 337.710938 67.421875 338.417969 67.480469 339.988281 67.316406 C 342.164062 67.042969 343.328125 67.539062 344.011719 68.980469 C 344.6875 70.40625 344.277344 72.125 342.632812 73.359375 L 343.40625 74.996094 L 341.875 75.773438 " fill-opacity="1" fill-rule="nonzero"/></svg>