<svg width="11" height="10" viewBox="0 0 11 10" fill="none" xmlns="http://www.w3.org/2000/svg">
<path d="M5.13125 8.75C4.61292 8.75 4.12542 8.65167 3.66875 8.455C3.21237 8.25806 2.81528 7.99083 2.4775 7.65333C2.13973 7.31583 1.87237 6.91917 1.67542 6.46333C1.47848 6.0075 1.38 5.52014 1.38 5.00125C1.38 4.48236 1.47848 3.99486 1.67542 3.53875C1.87209 3.08236 2.13889 2.68528 2.47584 2.3475C2.81278 2.00972 3.20959 1.74236 3.66626 1.54542C4.12292 1.34847 4.61042 1.25 5.12875 1.25C5.64709 1.25 6.13459 1.34847 6.59125 1.54542C7.04764 1.74208 7.44473 2.00903 7.7825 2.34625C8.12028 2.68347 8.38764 3.08028 8.58459 3.53667C8.78153 3.99306 8.88 4.48042 8.88 4.99875C8.88 5.51708 8.78167 6.00458 8.585 6.46125C8.38834 6.91792 8.12112 7.315 7.78334 7.6525C7.44556 7.99 7.04889 8.25736 6.59334 8.45458C6.13778 8.65181 5.65042 8.75028 5.13125 8.75ZM4.71334 8.3125V7.5C4.48417 7.5 4.28806 7.41847 4.125 7.25542C3.96195 7.09236 3.88028 6.89611 3.88 6.66667V6.25L1.88 4.25C1.85917 4.375 1.84014 4.5 1.82292 4.625C1.8057 4.75 1.79695 4.875 1.79667 5C1.79667 5.84028 2.07278 6.57639 2.625 7.20833C3.17723 7.84028 3.87334 8.20833 4.71334 8.3125ZM7.58834 7.25C7.72723 7.09722 7.85223 6.93236 7.96334 6.75542C8.07445 6.57847 8.16639 6.39444 8.23917 6.20333C8.31195 6.01222 8.3675 5.81597 8.40584 5.61458C8.44417 5.41319 8.46334 5.20833 8.46334 5C8.46334 4.31556 8.27542 3.69042 7.89959 3.12458C7.52375 2.55875 7.01723 2.15083 6.38 1.90083V2.08333C6.38 2.3125 6.29848 2.50875 6.13542 2.67208C5.97237 2.83542 5.77612 2.91694 5.54667 2.91667H4.71334V3.75C4.71334 3.86806 4.67334 3.96708 4.59334 4.04708C4.51334 4.12708 4.41445 4.16694 4.29667 4.16667H3.46334V5H5.96334C6.08139 5 6.18042 5.04 6.26042 5.12C6.34042 5.2 6.38028 5.29889 6.38 5.41667V6.66667H6.79667C6.97723 6.66667 7.14042 6.72056 7.28625 6.82833C7.43209 6.93611 7.53278 7.07667 7.58834 7.25Z" fill="#F8F8F8"/>
</svg>
