<svg width="10" height="10" viewBox="0 0 10 10" fill="none" xmlns="http://www.w3.org/2000/svg">
<g clip-path="url(#clip0_199_4)">
<path d="M2.08337 2.5C1.62504 2.5 1.25004 2.875 1.25004 3.33333C1.25004 3.79167 1.62504 4.16667 2.08337 4.16667C2.54171 4.16667 2.91671 3.79583 2.91671 3.33333C2.91671 2.87083 2.54587 2.5 2.08337 2.5ZM5.00004 1.66667C4.83522 1.66667 4.67411 1.71554 4.53707 1.80711C4.40002 1.89868 4.29321 2.02882 4.23014 2.1811C4.16707 2.33337 4.15057 2.50092 4.18272 2.66257C4.21487 2.82422 4.29424 2.97271 4.41079 3.08925C4.52733 3.2058 4.67581 3.28517 4.83747 3.31732C4.99912 3.34947 5.16667 3.33297 5.31894 3.2699C5.47122 3.20683 5.60136 3.10001 5.69293 2.96297C5.7845 2.82593 5.83337 2.66482 5.83337 2.5C5.83337 2.0375 5.46254 1.66667 5.00004 1.66667ZM7.91671 0.833332C7.45837 0.833332 7.08337 1.20833 7.08337 1.66667C7.08337 2.125 7.45837 2.5 7.91671 2.5C8.37504 2.5 8.75004 2.12917 8.75004 1.66667C8.75004 1.20417 8.37921 0.833332 7.91671 0.833332ZM1.45837 4.58333C1.11254 4.58333 0.833374 4.8625 0.833374 5.20833V7.08333H1.25004V9.16667H2.91671V7.08333H3.33337V5.20833C3.33337 4.8625 3.05421 4.58333 2.70837 4.58333H1.45837ZM4.37504 3.75C4.02921 3.75 3.75004 4.02917 3.75004 4.375V6.25H4.16671V8.33333H5.83337V6.25H6.25004V4.375C6.25004 4.02917 5.97087 3.75 5.62504 3.75H4.37504ZM7.29171 2.91667C6.94587 2.91667 6.66671 3.19583 6.66671 3.54167V5.41667H7.08337V7.5H8.75004V5.41667H9.16671V3.54167C9.16671 3.19583 8.88754 2.91667 8.54171 2.91667H7.29171Z" fill="#F8F8F8"/>
</g>
<defs>
<clipPath id="clip0_199_4">
<rect width="10" height="10" fill="white"/>
</clipPath>
</defs>
</svg>
