<svg xmlns="http://www.w3.org/2000/svg" xmlns:xlink="http://www.w3.org/1999/xlink" width="500" zoomAndPan="magnify" viewBox="0 0 375 374.999991" height="500" preserveAspectRatio="xMidYMid meet" version="1.0"><path fill="#ae9fcf" d="M 12.613281 299.507812 C 22.929688 325.003906 47.171875 337.011719 62.664062 344.683594 C 123.730469 374.933594 236.957031 359.40625 303.984375 303.742188 C 319.667969 290.714844 377.125 234.609375 359.417969 142.558594 C 343.769531 61.179688 264.613281 13.332031 197.378906 7.242188 C 141.679688 2.191406 67.835938 23.355469 41.984375 73.097656 C 25.726562 104.375 45.128906 114.242188 31.710938 185.050781 C 20.097656 246.335938 -0.00390625 268.320312 12.613281 299.507812 " fill-opacity="1" fill-rule="nonzero"/><path fill="#230b41" d="M 201.667969 291.589844 L 201.6875 317.175781 C 201.699219 324.929688 192.730469 332.703125 174.714844 338.71875 C 138.683594 350.746094 79.878906 351.253906 42.214844 340.003906 C 41.59375 339.820312 40.984375 339.632812 40.375 339.445312 C 21.292969 333.4375 11.707031 325.449219 11.695312 317.441406 L 11.675781 291.855469 C 11.6875 299.863281 21.273438 307.851562 40.355469 313.855469 C 40.964844 314.046875 41.574219 314.234375 42.195312 314.417969 C 79.859375 325.664062 138.664062 325.15625 174.695312 313.128906 C 192.710938 307.117188 201.679688 299.34375 201.667969 291.589844 " fill-opacity="1" fill-rule="nonzero"/><path fill="#523762" d="M 171.140625 269.023438 C 171.761719 269.207031 172.371094 269.394531 172.980469 269.585938 C 210.550781 281.410156 211.316406 300.90625 174.695312 313.128906 C 138.664062 325.15625 79.859375 325.664062 42.195312 314.417969 C 41.574219 314.234375 40.964844 314.046875 40.355469 313.855469 C 2.792969 302.03125 2.027344 282.539062 38.648438 270.3125 C 74.675781 258.285156 133.472656 257.777344 171.140625 269.023438 " fill-opacity="1" fill-rule="nonzero"/><path fill="#230b41" d="M 201.726562 257.996094 L 201.742188 283.585938 C 201.753906 291.339844 192.789062 299.113281 174.773438 305.128906 C 138.738281 317.152344 79.9375 317.664062 42.269531 306.417969 C 41.652344 306.230469 41.042969 306.042969 40.433594 305.855469 C 21.347656 299.847656 11.761719 291.859375 11.75 283.851562 L 11.730469 258.261719 C 11.742188 266.273438 21.328125 274.257812 40.414062 280.265625 C 41.019531 280.457031 41.632812 280.644531 42.25 280.828125 C 79.917969 292.078125 138.71875 291.566406 174.75 279.542969 C 192.765625 273.527344 201.734375 265.753906 201.726562 257.996094 " fill-opacity="1" fill-rule="nonzero"/><path fill="#523762" d="M 171.195312 235.433594 C 171.816406 235.617188 172.425781 235.804688 173.035156 235.996094 C 210.609375 247.820312 211.375 267.316406 174.75 279.542969 C 138.71875 291.566406 79.917969 292.078125 42.25 280.828125 C 41.632812 280.644531 41.019531 280.457031 40.414062 280.265625 C 2.847656 268.441406 2.082031 248.949219 38.703125 236.722656 C 74.730469 224.695312 133.527344 224.1875 171.195312 235.433594 " fill-opacity="1" fill-rule="nonzero"/><path fill="#230b41" d="M 201.320312 223.652344 L 201.339844 249.238281 C 201.351562 256.992188 192.382812 264.765625 174.367188 270.777344 C 138.335938 282.808594 79.53125 283.3125 41.867188 272.066406 C 41.246094 271.882812 40.636719 271.695312 40.03125 271.503906 C 20.945312 265.5 11.359375 257.511719 11.347656 249.503906 L 11.328125 223.917969 C 11.339844 231.925781 20.925781 239.910156 40.011719 245.917969 C 40.617188 246.109375 41.226562 246.296875 41.847656 246.480469 C 79.511719 257.726562 138.316406 257.21875 174.347656 245.191406 C 192.363281 239.179688 201.332031 231.40625 201.320312 223.652344 " fill-opacity="1" fill-rule="nonzero"/><path fill="#523762" d="M 170.792969 201.082031 C 171.414062 201.269531 172.023438 201.457031 172.632812 201.648438 C 210.203125 213.472656 210.96875 232.964844 174.347656 245.191406 C 138.316406 257.21875 79.511719 257.726562 41.847656 246.480469 C 41.226562 246.296875 40.617188 246.109375 40.011719 245.917969 C 2.445312 234.09375 1.679688 214.597656 38.300781 202.371094 C 74.328125 190.347656 133.125 189.839844 170.792969 201.082031 " fill-opacity="1" fill-rule="nonzero"/><path fill="#230b41" d="M 201.269531 189.328125 L 201.285156 214.914062 C 201.296875 222.667969 192.332031 230.441406 174.316406 236.457031 C 138.285156 248.484375 79.480469 248.992188 41.8125 237.746094 C 41.195312 237.5625 40.585938 237.375 39.976562 237.183594 C 20.894531 231.175781 11.304688 223.1875 11.292969 215.179688 L 11.273438 189.59375 C 11.285156 197.601562 20.875 205.589844 39.957031 211.597656 C 40.566406 211.789062 41.175781 211.972656 41.792969 212.160156 C 79.460938 223.40625 138.265625 222.898438 174.296875 210.871094 C 192.3125 204.855469 201.28125 197.082031 201.269531 189.328125 " fill-opacity="1" fill-rule="nonzero"/><path fill="#523762" d="M 170.738281 166.761719 C 171.359375 166.949219 171.96875 167.136719 172.582031 167.328125 C 210.148438 179.148438 210.917969 198.644531 174.296875 210.871094 C 138.265625 222.898438 79.460938 223.40625 41.792969 212.160156 C 41.175781 211.972656 40.566406 211.789062 39.957031 211.597656 C 2.394531 199.769531 1.625 180.277344 38.25 168.050781 C 74.273438 156.027344 133.074219 155.519531 170.738281 166.761719 " fill-opacity="1" fill-rule="nonzero"/><path fill="#230b41" d="M 201.398438 156.394531 L 201.417969 181.984375 C 201.429688 189.738281 192.460938 197.511719 174.445312 203.523438 C 138.414062 215.550781 79.613281 216.0625 41.945312 204.8125 C 41.324219 204.628906 40.714844 204.441406 40.109375 204.25 C 21.023438 198.246094 11.4375 190.253906 11.425781 182.25 L 11.40625 156.660156 C 11.417969 164.667969 21.003906 172.65625 40.089844 178.664062 C 40.695312 178.855469 41.304688 179.042969 41.925781 179.226562 C 79.59375 190.472656 138.394531 189.964844 174.425781 177.9375 C 192.441406 171.925781 201.410156 164.152344 201.398438 156.394531 " fill-opacity="1" fill-rule="nonzero"/><path fill="#523762" d="M 170.871094 133.828125 C 171.492188 134.015625 172.101562 134.203125 172.710938 134.394531 C 210.28125 146.21875 211.046875 165.714844 174.425781 177.9375 C 138.394531 189.964844 79.59375 190.472656 41.925781 179.226562 C 41.304688 179.042969 40.695312 178.855469 40.089844 178.664062 C 2.523438 166.839844 1.757812 147.34375 38.378906 135.121094 C 74.40625 123.09375 133.203125 122.585938 170.871094 133.828125 " fill-opacity="1" fill-rule="nonzero"/><path fill="#230b41" d="M 201.171875 122.875 L 201.191406 148.464844 C 201.203125 156.21875 192.238281 163.992188 174.21875 170.007812 C 138.1875 182.03125 79.386719 182.539062 41.71875 171.296875 C 41.101562 171.109375 40.488281 170.921875 39.882812 170.730469 C 20.796875 164.722656 11.210938 156.738281 11.199219 148.730469 L 11.179688 123.144531 C 11.191406 131.148438 20.777344 139.136719 39.863281 145.144531 C 40.46875 145.335938 41.078125 145.523438 41.699219 145.707031 C 79.367188 156.953125 138.167969 156.445312 174.199219 144.417969 C 192.21875 138.40625 201.183594 130.628906 201.171875 122.875 " fill-opacity="1" fill-rule="nonzero"/><path fill="#523762" d="M 170.644531 100.308594 C 171.265625 100.496094 171.875 100.683594 172.484375 100.875 C 210.054688 112.695312 210.824219 132.195312 174.199219 144.417969 C 138.167969 156.445312 79.367188 156.953125 41.699219 145.707031 C 41.078125 145.519531 40.46875 145.332031 39.863281 145.144531 C 2.296875 133.320312 1.53125 113.824219 38.152344 101.601562 C 74.179688 89.574219 132.976562 89.066406 170.644531 100.308594 " fill-opacity="1" fill-rule="nonzero"/><path fill="#230b41" d="M 201.171875 88.699219 L 201.195312 114.289062 C 201.203125 122.042969 192.238281 129.816406 174.21875 135.828125 C 138.191406 147.855469 79.386719 148.363281 41.71875 137.117188 C 41.101562 136.929688 40.492188 136.746094 39.882812 136.554688 C 20.796875 130.546875 11.210938 122.558594 11.199219 114.550781 L 11.179688 88.964844 C 11.191406 96.972656 20.777344 104.957031 39.863281 110.964844 C 40.46875 111.15625 41.082031 111.34375 41.699219 111.527344 C 79.367188 122.773438 138.167969 122.269531 174.199219 110.242188 C 192.21875 104.226562 201.1875 96.453125 201.171875 88.699219 " fill-opacity="1" fill-rule="nonzero"/><path fill="#523762" d="M 170.644531 66.136719 C 171.265625 66.320312 171.875 66.507812 172.484375 66.699219 C 210.054688 78.523438 210.820312 98.015625 174.199219 110.242188 C 138.167969 122.269531 79.367188 122.777344 41.699219 111.53125 C 41.078125 111.347656 40.46875 111.160156 39.863281 110.96875 C 2.296875 99.144531 1.53125 79.648438 38.152344 67.425781 C 74.179688 55.398438 132.976562 54.890625 170.644531 66.136719 " fill-opacity="1" fill-rule="nonzero"/><path fill="#523762" d="M 357.28125 158.082031 L 245.496094 158.082031 C 242.664062 158.082031 240.367188 160.378906 240.367188 163.207031 L 240.367188 212.746094 C 240.367188 215.582031 242.664062 217.875 245.496094 217.875 L 357.28125 217.875 C 360.109375 217.875 362.40625 215.582031 362.40625 212.746094 L 362.40625 163.207031 C 362.40625 160.378906 360.109375 158.082031 357.28125 158.082031 " fill-opacity="1" fill-rule="nonzero"/><path fill="#000000" d="M 245.5 158.722656 C 243.023438 158.722656 241.011719 160.734375 241.011719 163.207031 L 241.011719 212.746094 C 241.011719 215.21875 243.023438 217.234375 245.5 217.234375 L 357.28125 217.234375 C 359.757812 217.234375 361.769531 215.21875 361.769531 212.746094 L 361.769531 163.207031 C 361.769531 160.734375 359.757812 158.722656 357.28125 158.722656 Z M 357.28125 218.511719 L 245.5 218.511719 C 242.316406 218.511719 239.730469 215.925781 239.730469 212.746094 L 239.730469 163.207031 C 239.730469 160.027344 242.316406 157.441406 245.5 157.441406 L 357.28125 157.441406 C 360.464844 157.441406 363.050781 160.027344 363.050781 163.207031 L 363.050781 212.746094 C 363.050781 215.925781 360.464844 218.511719 357.28125 218.511719 " fill-opacity="1" fill-rule="nonzero"/><path fill="#ae9fcf" d="M 358.28125 167.144531 L 244.429688 167.144531 C 244.074219 167.144531 243.789062 166.859375 243.789062 166.507812 C 243.789062 166.152344 244.074219 165.867188 244.429688 165.867188 L 358.28125 165.867188 C 358.632812 165.867188 358.921875 166.152344 358.921875 166.507812 C 358.921875 166.859375 358.632812 167.144531 358.28125 167.144531 " fill-opacity="1" fill-rule="nonzero"/><path fill="#ae9fcf" d="M 249.503906 162.027344 C 249.503906 162.75 248.914062 163.339844 248.1875 163.339844 C 247.464844 163.339844 246.875 162.75 246.875 162.027344 C 246.875 161.300781 247.464844 160.710938 248.1875 160.710938 C 248.914062 160.710938 249.503906 161.300781 249.503906 162.027344 " fill-opacity="1" fill-rule="nonzero"/><path fill="#ae9fcf" d="M 254.761719 162.027344 C 254.761719 162.75 254.171875 163.339844 253.445312 163.339844 C 252.71875 163.339844 252.132812 162.75 252.132812 162.027344 C 252.132812 161.300781 252.71875 160.710938 253.445312 160.710938 C 254.171875 160.710938 254.761719 161.300781 254.761719 162.027344 " fill-opacity="1" fill-rule="nonzero"/><path fill="#ae9fcf" d="M 260.019531 162.027344 C 260.019531 162.75 259.429688 163.339844 258.703125 163.339844 C 257.980469 163.339844 257.390625 162.75 257.390625 162.027344 C 257.390625 161.296875 257.980469 160.710938 258.703125 160.710938 C 259.429688 160.710938 260.019531 161.296875 260.019531 162.027344 " fill-opacity="1" fill-rule="nonzero"/><path fill="#ae9fcf" d="M 358.28125 162.453125 L 351.03125 162.453125 C 350.679688 162.453125 350.394531 162.167969 350.394531 161.8125 C 350.394531 161.460938 350.679688 161.175781 351.03125 161.175781 L 358.28125 161.175781 C 358.632812 161.175781 358.921875 161.460938 358.921875 161.8125 C 358.921875 162.167969 358.632812 162.453125 358.28125 162.453125 " fill-opacity="1" fill-rule="nonzero"/><path fill="#ae9fcf" d="M 347.621094 162.457031 L 277.6875 162.457031 C 277.335938 162.457031 277.050781 162.167969 277.050781 161.8125 C 277.050781 161.460938 277.335938 161.175781 277.6875 161.175781 L 347.621094 161.175781 C 347.972656 161.175781 348.261719 161.460938 348.261719 161.8125 C 348.261719 162.167969 347.972656 162.457031 347.621094 162.457031 " fill-opacity="1" fill-rule="nonzero"/><path fill="#ae9fcf" d="M 269.589844 162.453125 L 263.191406 162.453125 C 262.835938 162.453125 262.554688 162.167969 262.554688 161.816406 C 262.554688 161.460938 262.835938 161.175781 263.191406 161.175781 L 269.589844 161.175781 C 269.941406 161.175781 270.226562 161.460938 270.226562 161.816406 C 270.226562 162.167969 269.941406 162.453125 269.589844 162.453125 " fill-opacity="1" fill-rule="nonzero"/><path fill="#ae9fcf" d="M 281.953125 207.65625 L 247.839844 207.65625 L 247.839844 174.394531 L 281.953125 174.394531 L 281.953125 207.65625 " fill-opacity="1" fill-rule="nonzero"/><path fill="#ae9fcf" d="M 295.175781 181.640625 L 287.925781 181.640625 L 287.925781 174.394531 L 295.175781 174.394531 L 295.175781 181.640625 " fill-opacity="1" fill-rule="nonzero"/><path fill="#ae9fcf" d="M 354.871094 181.644531 L 300.71875 181.644531 L 300.71875 174.394531 L 354.871094 174.394531 L 354.871094 181.644531 " fill-opacity="1" fill-rule="nonzero"/><path fill="#ae9fcf" d="M 295.175781 194.863281 L 287.925781 194.863281 L 287.925781 187.613281 L 295.175781 187.613281 L 295.175781 194.863281 " fill-opacity="1" fill-rule="nonzero"/><path fill="#ae9fcf" d="M 354.871094 194.863281 L 300.71875 194.863281 L 300.71875 187.613281 L 354.871094 187.613281 L 354.871094 194.863281 " fill-opacity="1" fill-rule="nonzero"/><path fill="#ae9fcf" d="M 295.175781 208.082031 L 287.925781 208.082031 L 287.925781 200.832031 L 295.175781 200.832031 L 295.175781 208.082031 " fill-opacity="1" fill-rule="nonzero"/><path fill="#ae9fcf" d="M 354.871094 207.65625 L 300.71875 207.65625 L 300.71875 200.40625 L 354.871094 200.40625 L 354.871094 207.65625 " fill-opacity="1" fill-rule="nonzero"/><path fill="#ffffff" d="M 328.230469 284.34375 L 164.433594 284.34375 C 162.554688 284.34375 161.066406 282.832031 161.105469 280.96875 L 163.089844 192.183594 C 163.128906 190.320312 164.683594 188.808594 166.5625 188.808594 L 330.359375 188.808594 C 332.238281 188.808594 333.726562 190.320312 333.683594 192.183594 L 331.707031 280.96875 C 331.664062 282.832031 330.105469 284.34375 328.230469 284.34375 " fill-opacity="1" fill-rule="nonzero"/><path fill="#000000" d="M 166.5625 189.449219 C 165.03125 189.449219 163.761719 190.683594 163.726562 192.203125 L 161.746094 280.984375 C 161.730469 281.707031 161.996094 282.390625 162.5 282.902344 C 163.007812 283.421875 163.691406 283.707031 164.429688 283.707031 L 328.226562 283.707031 C 329.757812 283.707031 331.027344 282.472656 331.0625 280.953125 L 333.042969 192.171875 C 333.058594 191.449219 332.792969 190.769531 332.292969 190.253906 C 331.785156 189.734375 331.097656 189.449219 330.359375 189.449219 Z M 328.226562 284.984375 L 164.429688 284.984375 C 163.34375 284.984375 162.335938 284.5625 161.582031 283.796875 C 160.839844 283.035156 160.445312 282.023438 160.46875 280.953125 L 162.445312 192.171875 C 162.496094 189.964844 164.34375 188.167969 166.5625 188.167969 L 330.359375 188.167969 C 331.441406 188.167969 332.457031 188.589844 333.207031 189.359375 C 333.949219 190.121094 334.347656 191.128906 334.320312 192.203125 L 332.34375 280.984375 C 332.292969 283.191406 330.445312 284.984375 328.226562 284.984375 " fill-opacity="1" fill-rule="nonzero"/><path fill="#ae9fcf" d="M 203.183594 279.261719 L 187.835938 279.261719 L 188.535156 247.8125 L 203.886719 247.8125 L 203.183594 279.261719 " fill-opacity="1" fill-rule="nonzero"/><path fill="#ae9fcf" d="M 183.851562 279.261719 L 168.503906 279.261719 L 169.019531 256.019531 L 184.371094 256.019531 L 183.851562 279.261719 " fill-opacity="1" fill-rule="nonzero"/><path fill="#ae9fcf" d="M 222.585938 279.261719 L 207.234375 279.261719 L 208.289062 232.015625 L 223.640625 232.015625 L 222.585938 279.261719 " fill-opacity="1" fill-rule="nonzero"/><path fill="#ae9fcf" d="M 242.839844 279.261719 L 227.488281 279.261719 L 228.335938 241.335938 L 243.683594 241.335938 L 242.839844 279.261719 " fill-opacity="1" fill-rule="nonzero"/><path fill="#ae9fcf" d="M 263.089844 279.261719 L 247.742188 279.261719 L 248.941406 225.523438 L 264.289062 225.523438 L 263.089844 279.261719 " fill-opacity="1" fill-rule="nonzero"/><path fill="#ae9fcf" d="M 283.359375 278.628906 L 268.007812 278.628906 L 268.886719 239.355469 L 284.234375 239.355469 L 283.359375 278.628906 " fill-opacity="1" fill-rule="nonzero"/><path fill="#ae9fcf" d="M 304.039062 278.628906 L 288.6875 278.628906 L 289.90625 224.109375 L 305.253906 224.109375 L 304.039062 278.628906 " fill-opacity="1" fill-rule="nonzero"/><path fill="#ae9fcf" d="M 323.867188 278.628906 L 308.515625 278.628906 L 310.015625 211.398438 L 325.367188 211.398438 L 323.867188 278.628906 " fill-opacity="1" fill-rule="nonzero"/><path fill="#000000" d="M 179.867188 240.527344 C 179.660156 240.527344 179.457031 240.425781 179.332031 240.238281 C 179.140625 239.945312 179.21875 239.546875 179.515625 239.351562 L 214.859375 215.941406 C 215.109375 215.777344 215.4375 215.804688 215.65625 216.011719 L 230.109375 229.792969 L 257.777344 211.449219 C 258.027344 211.28125 258.363281 211.3125 258.578125 211.527344 L 274.277344 226.980469 L 320.25 196.59375 C 320.546875 196.398438 320.941406 196.476562 321.136719 196.773438 C 321.328125 197.066406 321.25 197.464844 320.953125 197.660156 L 274.550781 228.335938 C 274.296875 228.5 273.960938 228.46875 273.75 228.257812 L 258.050781 212.800781 L 230.390625 231.140625 C 230.140625 231.304688 229.8125 231.277344 229.59375 231.070312 L 215.140625 217.289062 L 180.21875 240.417969 C 180.113281 240.492188 179.988281 240.527344 179.867188 240.527344 " fill-opacity="1" fill-rule="nonzero"/><path fill="#523762" d="M 219.828125 216.363281 C 219.773438 218.867188 217.679688 221 215.160156 221.132812 C 212.640625 221.265625 210.640625 219.34375 210.695312 216.839844 C 210.753906 214.339844 212.839844 212.207031 215.363281 212.070312 C 217.886719 211.941406 219.882812 213.863281 219.828125 216.363281 " fill-opacity="1" fill-rule="nonzero"/><path fill="#230b41" d="M 262.644531 211.691406 C 262.589844 214.195312 260.5 216.332031 257.976562 216.460938 C 255.457031 216.59375 253.457031 214.671875 253.511719 212.171875 C 253.570312 209.671875 255.65625 207.535156 258.179688 207.402344 C 260.703125 207.269531 262.699219 209.191406 262.644531 211.691406 " fill-opacity="1" fill-rule="nonzero"/><path fill="#523762" d="M 235.015625 230.148438 C 234.960938 232.652344 232.871094 234.785156 230.347656 234.917969 C 227.824219 235.050781 225.828125 233.128906 225.882812 230.628906 C 225.9375 228.125 228.03125 225.992188 230.550781 225.859375 C 233.070312 225.726562 235.070312 227.648438 235.015625 230.148438 " fill-opacity="1" fill-rule="nonzero"/><path fill="#ae9fcf" d="M 184.558594 239.726562 C 184.503906 242.230469 182.414062 244.367188 179.894531 244.496094 C 177.371094 244.628906 175.375 242.710938 175.429688 240.207031 C 175.484375 237.707031 177.574219 235.570312 180.097656 235.4375 C 182.617188 235.304688 184.617188 237.226562 184.558594 239.726562 " fill-opacity="1" fill-rule="nonzero"/><path fill="#000000" d="M 180.339844 236.070312 C 180.269531 236.070312 180.199219 236.070312 180.128906 236.074219 C 177.9375 236.191406 176.117188 238.050781 176.066406 240.222656 C 176.042969 241.242188 176.421875 242.183594 177.125 242.867188 C 177.839844 243.558594 178.8125 243.914062 179.859375 243.859375 C 182.050781 243.742188 183.871094 241.882812 183.921875 239.714844 C 183.945312 238.691406 183.570312 237.753906 182.863281 237.070312 C 182.195312 236.417969 181.308594 236.070312 180.339844 236.070312 Z M 179.644531 245.144531 C 178.347656 245.144531 177.144531 244.667969 176.234375 243.785156 C 175.273438 242.851562 174.757812 241.574219 174.789062 240.191406 C 174.851562 237.367188 177.21875 234.945312 180.0625 234.796875 C 181.46875 234.726562 182.78125 235.203125 183.753906 236.148438 C 184.71875 237.085938 185.230469 238.359375 185.199219 239.742188 C 185.136719 242.566406 182.769531 244.988281 179.929688 245.136719 C 179.832031 245.140625 179.738281 245.144531 179.644531 245.144531 " fill-opacity="1" fill-rule="nonzero"/><path fill="#523762" d="M 278.84375 227.210938 C 278.785156 229.710938 276.699219 231.847656 274.175781 231.980469 C 271.652344 232.109375 269.65625 230.191406 269.710938 227.6875 C 269.765625 225.1875 271.855469 223.050781 274.378906 222.917969 C 276.898438 222.789062 278.898438 224.707031 278.84375 227.210938 " fill-opacity="1" fill-rule="nonzero"/><path fill="#230b41" d="M 325.167969 196.882812 C 325.113281 199.386719 323.023438 201.523438 320.503906 201.65625 C 317.980469 201.789062 315.980469 199.867188 316.039062 197.363281 C 316.09375 194.863281 318.179688 192.726562 320.703125 192.597656 C 323.226562 192.464844 325.222656 194.382812 325.167969 196.882812 " fill-opacity="1" fill-rule="nonzero"/><path fill="#000000" d="M 325.167969 196.886719 L 325.171875 196.886719 Z M 320.949219 193.230469 C 320.878906 193.230469 320.808594 193.230469 320.738281 193.234375 C 318.542969 193.347656 316.722656 195.207031 316.675781 197.378906 C 316.652344 198.402344 317.027344 199.339844 317.734375 200.023438 C 318.449219 200.71875 319.421875 201.070312 320.46875 201.015625 C 322.65625 200.902344 324.480469 199.042969 324.527344 196.871094 C 324.550781 195.847656 324.175781 194.910156 323.46875 194.226562 C 322.804688 193.578125 321.914062 193.230469 320.949219 193.230469 Z M 320.25 202.300781 C 318.953125 202.300781 317.75 201.824219 316.839844 200.945312 C 315.878906 200.007812 315.367188 198.734375 315.398438 197.351562 C 315.460938 194.527344 317.824219 192.105469 320.671875 191.957031 C 322.078125 191.882812 323.386719 192.363281 324.359375 193.308594 C 325.324219 194.242188 325.839844 195.519531 325.808594 196.898438 C 325.742188 199.726562 323.378906 202.144531 320.535156 202.296875 C 320.4375 202.296875 320.347656 202.300781 320.25 202.300781 " fill-opacity="1" fill-rule="nonzero"/><path fill="#ffffff" d="M 325.59375 15.371094 L 220.066406 15.371094 C 215.949219 15.371094 212.613281 18.710938 212.613281 22.828125 L 212.613281 139.257812 C 212.613281 143.375 215.949219 146.710938 220.066406 146.710938 L 325.59375 146.710938 C 329.710938 146.710938 333.046875 143.375 333.046875 139.257812 L 333.046875 22.828125 C 333.046875 18.710938 329.710938 15.371094 325.59375 15.371094 " fill-opacity="1" fill-rule="nonzero"/><path fill="#000000" d="M 220.066406 16.011719 C 216.308594 16.011719 213.25 19.070312 213.25 22.828125 L 213.25 139.253906 C 213.25 143.015625 216.308594 146.070312 220.066406 146.070312 L 325.59375 146.070312 C 329.351562 146.070312 332.40625 143.015625 332.40625 139.253906 L 332.40625 22.828125 C 332.40625 19.070312 329.351562 16.011719 325.59375 16.011719 Z M 325.59375 147.351562 L 220.066406 147.351562 C 215.605469 147.351562 211.972656 143.71875 211.972656 139.253906 L 211.972656 22.828125 C 211.972656 18.363281 215.605469 14.730469 220.066406 14.730469 L 325.59375 14.730469 C 330.054688 14.730469 333.6875 18.363281 333.6875 22.828125 L 333.6875 139.253906 C 333.6875 143.71875 330.054688 147.351562 325.59375 147.351562 " fill-opacity="1" fill-rule="nonzero"/><path fill="#000000" d="M 327.214844 28.25 L 218.535156 28.25 C 218.183594 28.25 217.898438 27.960938 217.898438 27.605469 C 217.898438 27.253906 218.183594 26.96875 218.535156 26.96875 L 327.214844 26.96875 C 327.570312 26.96875 327.855469 27.253906 327.855469 27.605469 C 327.855469 27.960938 327.570312 28.25 327.214844 28.25 " fill-opacity="1" fill-rule="nonzero"/><path fill="#523762" d="M 222.359375 21.109375 C 222.359375 22.164062 221.503906 23.019531 220.449219 23.019531 C 219.390625 23.019531 218.535156 22.164062 218.535156 21.109375 C 218.535156 20.050781 219.390625 19.195312 220.449219 19.195312 C 221.503906 19.195312 222.359375 20.050781 222.359375 21.109375 " fill-opacity="1" fill-rule="nonzero"/><path fill="#523762" d="M 230.007812 21.109375 C 230.007812 22.164062 229.148438 23.019531 228.09375 23.019531 C 227.039062 23.019531 226.183594 22.164062 226.183594 21.109375 C 226.183594 20.050781 227.039062 19.195312 228.09375 19.195312 C 229.148438 19.195312 230.007812 20.050781 230.007812 21.109375 " fill-opacity="1" fill-rule="nonzero"/><path fill="#523762" d="M 237.652344 21.109375 C 237.652344 22.164062 236.796875 23.019531 235.742188 23.019531 C 234.6875 23.019531 233.832031 22.164062 233.832031 21.109375 C 233.832031 20.050781 234.6875 19.195312 235.742188 19.195312 C 236.796875 19.195312 237.652344 20.050781 237.652344 21.109375 " fill-opacity="1" fill-rule="nonzero"/><path fill="#000000" d="M 327.214844 21.746094 L 316.445312 21.746094 C 316.09375 21.746094 315.808594 21.460938 315.808594 21.109375 C 315.808594 20.757812 316.09375 20.46875 316.445312 20.46875 L 327.214844 20.46875 C 327.570312 20.46875 327.855469 20.757812 327.855469 21.109375 C 327.855469 21.460938 327.570312 21.746094 327.214844 21.746094 " fill-opacity="1" fill-rule="nonzero"/><path fill="#000000" d="M 311.605469 21.746094 L 267 21.746094 C 266.644531 21.746094 266.359375 21.460938 266.359375 21.109375 C 266.359375 20.757812 266.644531 20.46875 267 20.46875 L 311.605469 20.46875 C 311.957031 20.46875 312.242188 20.757812 312.242188 21.109375 C 312.242188 21.460938 311.957031 21.746094 311.605469 21.746094 " fill-opacity="1" fill-rule="nonzero"/><path fill="#000000" d="M 255.273438 21.746094 L 245.78125 21.746094 C 245.425781 21.746094 245.136719 21.460938 245.136719 21.109375 C 245.136719 20.757812 245.425781 20.46875 245.78125 20.46875 L 255.273438 20.46875 C 255.625 20.46875 255.914062 20.757812 255.914062 21.109375 C 255.914062 21.460938 255.625 21.746094 255.273438 21.746094 " fill-opacity="1" fill-rule="nonzero"/><path fill="#523762" d="M 254.558594 77.667969 C 258.03125 71.589844 264.496094 67.296875 272.011719 66.515625 L 272.53125 36.796875 C 250.949219 36.871094 231.90625 49.03125 223.234375 67 L 254.558594 77.667969 " fill-opacity="1" fill-rule="nonzero"/><path fill="#000000" d="M 224.125 66.632812 L 254.265625 76.894531 C 257.882812 70.910156 264.210938 66.859375 271.378906 65.949219 L 271.878906 37.445312 C 251.5 37.753906 232.886719 49.128906 224.125 66.632812 Z M 254.554688 78.3125 C 254.484375 78.3125 254.417969 78.296875 254.347656 78.273438 L 223.023438 67.609375 C 222.851562 67.550781 222.710938 67.417969 222.640625 67.25 C 222.570312 67.082031 222.578125 66.890625 222.65625 66.722656 C 231.582031 48.230469 251.160156 36.234375 272.527344 36.160156 C 272.703125 36.160156 272.867188 36.230469 272.984375 36.351562 C 273.105469 36.472656 273.171875 36.640625 273.167969 36.8125 L 272.648438 66.53125 C 272.644531 66.855469 272.394531 67.121094 272.074219 67.15625 C 264.90625 67.898438 258.5625 71.949219 255.109375 77.988281 C 254.992188 78.191406 254.777344 78.3125 254.554688 78.3125 " fill-opacity="1" fill-rule="nonzero"/><path fill="#000000" d="M 253.082031 45.519531 C 252.828125 45.519531 252.589844 45.367188 252.488281 45.117188 C 252.355469 44.789062 252.515625 44.414062 252.84375 44.285156 C 257.726562 42.308594 262.871094 41.074219 268.136719 40.617188 C 268.488281 40.585938 268.796875 40.847656 268.828125 41.199219 C 268.859375 41.554688 268.597656 41.863281 268.246094 41.890625 C 263.109375 42.339844 258.089844 43.542969 253.324219 45.46875 C 253.242188 45.5 253.160156 45.519531 253.082031 45.519531 " fill-opacity="1" fill-rule="nonzero"/><path fill="#000000" d="M 235.890625 56.976562 C 235.726562 56.976562 235.566406 56.914062 235.445312 56.796875 C 235.1875 56.546875 235.1875 56.144531 235.433594 55.890625 C 239.121094 52.125 243.394531 48.953125 248.144531 46.460938 C 248.460938 46.296875 248.84375 46.417969 249.007812 46.730469 C 249.171875 47.042969 249.054688 47.429688 248.742188 47.59375 C 244.109375 50.023438 239.9375 53.117188 236.347656 56.785156 C 236.222656 56.914062 236.054688 56.976562 235.890625 56.976562 " fill-opacity="1" fill-rule="nonzero"/><path fill="#523762" d="M 296.1875 90.839844 C 294.417969 100.605469 285.523438 108.28125 274.625 108.621094 C 271.375 108.722656 268.269531 108.160156 265.453125 107.0625 L 248.441406 133.398438 C 256.347656 136.96875 265.28125 138.71875 274.625 138.179688 C 301.796875 136.621094 323.15625 116.167969 325.527344 91.542969 L 296.1875 90.839844 " fill-opacity="1" fill-rule="nonzero"/><path fill="#000000" d="M 249.386719 133.121094 C 257.199219 136.515625 265.894531 138.042969 274.585938 137.542969 C 300.636719 136.046875 322.109375 116.59375 324.824219 92.167969 L 296.710938 91.492188 C 294.625 101.488281 285.4375 108.925781 274.644531 109.261719 C 271.554688 109.359375 268.550781 108.878906 265.710938 107.84375 Z M 271.363281 138.914062 C 263.324219 138.914062 255.371094 137.230469 248.179688 133.984375 C 248.011719 133.90625 247.882812 133.757812 247.828125 133.582031 C 247.777344 133.402344 247.804688 133.210938 247.90625 133.054688 L 264.914062 106.714844 C 265.078125 106.460938 265.402344 106.359375 265.683594 106.46875 C 268.511719 107.566406 271.511719 108.078125 274.605469 107.980469 C 284.992188 107.660156 293.804688 100.402344 295.554688 90.726562 C 295.613281 90.417969 295.882812 90.199219 296.203125 90.203125 L 325.542969 90.902344 C 325.71875 90.90625 325.890625 90.988281 326.007812 91.117188 C 326.125 91.253906 326.183594 91.429688 326.164062 91.605469 C 323.722656 116.976562 301.578125 137.273438 274.660156 138.820312 C 273.5625 138.882812 272.460938 138.914062 271.363281 138.914062 " fill-opacity="1" fill-rule="nonzero"/><path fill="#000000" d="M 271.3125 134.652344 C 265.5625 134.652344 259.957031 133.746094 254.640625 131.949219 C 254.304688 131.835938 254.125 131.472656 254.238281 131.140625 C 254.347656 130.804688 254.714844 130.625 255.046875 130.738281 C 260.230469 132.488281 265.703125 133.375 271.3125 133.375 C 272.320312 133.375 273.335938 133.347656 274.34375 133.285156 C 274.699219 133.265625 275 133.539062 275.019531 133.886719 C 275.039062 134.242188 274.769531 134.542969 274.417969 134.566406 C 273.386719 134.621094 272.34375 134.652344 271.3125 134.652344 " fill-opacity="1" fill-rule="nonzero"/><path fill="#000000" d="M 285.121094 132.816406 C 284.839844 132.816406 284.582031 132.628906 284.507812 132.34375 C 284.414062 132.003906 284.613281 131.652344 284.953125 131.558594 C 302.753906 126.703125 316.503906 112.574219 319.976562 95.558594 C 320.050781 95.214844 320.386719 94.992188 320.730469 95.0625 C 321.078125 95.132812 321.300781 95.46875 321.230469 95.816406 C 317.660156 113.296875 303.554688 127.8125 285.289062 132.792969 C 285.234375 132.808594 285.175781 132.816406 285.121094 132.816406 " fill-opacity="1" fill-rule="nonzero"/><path fill="#523762" d="M 243.121094 130.628906 L 260.289062 104.210938 C 255.152344 100.410156 251.851562 94.496094 251.851562 87.78125 C 251.851562 86.164062 252.046875 84.582031 252.410156 83.058594 L 220.964844 72.519531 C 219.28125 77.472656 218.367188 82.738281 218.367188 88.195312 C 218.367188 106.265625 228.28125 121.824219 243.121094 130.628906 " fill-opacity="1" fill-rule="nonzero"/><path fill="#000000" d="M 221.371094 73.332031 C 219.800781 78.140625 219.007812 83.136719 219.007812 88.195312 C 219.007812 105.140625 227.933594 120.636719 242.917969 129.761719 L 259.425781 104.363281 C 254.199219 100.273438 251.210938 94.265625 251.210938 87.785156 C 251.210938 86.34375 251.363281 84.894531 251.660156 83.484375 Z M 243.117188 131.269531 C 243.007812 131.269531 242.894531 131.242188 242.792969 131.179688 C 227.097656 121.863281 217.726562 105.796875 217.726562 88.195312 C 217.726562 82.78125 218.613281 77.441406 220.363281 72.3125 C 220.476562 71.980469 220.835938 71.800781 221.171875 71.914062 L 252.613281 82.453125 C 252.929688 82.558594 253.113281 82.890625 253.035156 83.210938 C 252.671875 84.707031 252.492188 86.246094 252.492188 87.785156 C 252.492188 94.050781 255.46875 99.851562 260.667969 103.699219 C 260.9375 103.898438 261.003906 104.277344 260.820312 104.5625 L 243.65625 130.976562 C 243.53125 131.164062 243.328125 131.269531 243.117188 131.269531 " fill-opacity="1" fill-rule="nonzero"/><path fill="#523762" d="M 281.757812 65.394531 C 291.679688 66.871094 299.3125 74.558594 300.21875 84.066406 L 348.203125 85.457031 C 348.203125 85.4375 348.203125 85.414062 348.203125 85.394531 C 348.203125 50.195312 320.15625 20.070312 282.617188 16.191406 L 281.757812 65.394531 " fill-opacity="1" fill-rule="nonzero"/><path fill="#000000" d="M 300.796875 83.441406 L 347.5625 84.796875 C 347.246094 50.023438 319.753906 21.003906 283.246094 16.90625 L 282.410156 64.851562 C 292.195312 66.542969 299.640625 74.074219 300.796875 83.441406 Z M 348.199219 86.097656 C 348.191406 86.097656 348.1875 86.097656 348.183594 86.09375 L 300.199219 84.703125 C 299.875 84.695312 299.613281 84.449219 299.582031 84.128906 C 298.703125 74.910156 291.335938 67.464844 281.664062 66.027344 C 281.34375 65.980469 281.113281 65.703125 281.121094 65.382812 L 281.980469 16.183594 C 281.980469 16 282.058594 15.832031 282.191406 15.714844 C 282.328125 15.59375 282.503906 15.539062 282.683594 15.558594 C 300.929688 17.441406 317.714844 25.628906 329.953125 38.609375 C 342.132812 51.53125 348.84375 68.148438 348.84375 85.398438 C 348.84375 85.566406 348.773438 85.761719 348.648438 85.882812 C 348.527344 86 348.367188 86.097656 348.199219 86.097656 " fill-opacity="1" fill-rule="nonzero"/><path fill="#ffffff" d="M 227.960938 66.597656 L 165.160156 66.597656 C 162.0625 66.597656 159.554688 69.109375 159.554688 72.203125 L 159.554688 155.648438 C 159.554688 158.742188 162.0625 161.25 165.160156 161.25 L 227.960938 161.25 C 231.054688 161.25 233.5625 158.742188 233.5625 155.648438 L 233.5625 72.203125 C 233.5625 69.109375 231.054688 66.597656 227.960938 66.597656 " fill-opacity="1" fill-rule="nonzero"/><path fill="#ae9fcf" d="M 184.476562 146.625 L 168.355469 146.625 L 168.355469 93.644531 L 184.476562 93.644531 L 184.476562 146.625 " fill-opacity="1" fill-rule="nonzero"/><path fill="#ae9fcf" d="M 204.621094 146.625 L 188.5 146.625 L 188.5 79.027344 L 204.621094 79.027344 L 204.621094 146.625 " fill-opacity="1" fill-rule="nonzero"/><path fill="#ae9fcf" d="M 224.765625 146.625 L 208.644531 146.625 L 208.644531 115.042969 L 224.765625 115.042969 L 224.765625 146.625 " fill-opacity="1" fill-rule="nonzero"/><path fill="#000000" d="M 171.410156 125.992188 C 171.054688 125.992188 170.773438 125.707031 170.773438 125.355469 L 170.773438 91.855469 C 170.773438 91.5 171.054688 91.214844 171.410156 91.214844 L 187.53125 91.214844 C 187.886719 91.214844 188.171875 91.5 188.171875 91.855469 L 188.171875 107.011719 C 188.171875 107.363281 187.886719 107.648438 187.53125 107.648438 C 187.175781 107.648438 186.894531 107.363281 186.894531 107.011719 L 186.894531 92.492188 L 172.046875 92.492188 L 172.046875 125.355469 C 172.046875 125.707031 171.765625 125.992188 171.410156 125.992188 " fill-opacity="1" fill-rule="nonzero"/><path fill="#000000" d="M 207.675781 137.429688 C 207.320312 137.429688 207.035156 137.144531 207.035156 136.789062 L 207.035156 77.875 L 192.191406 77.875 L 192.191406 125.488281 C 192.191406 125.84375 191.90625 126.128906 191.554688 126.128906 C 191.199219 126.128906 190.914062 125.84375 190.914062 125.488281 L 190.914062 77.238281 C 190.914062 76.882812 191.199219 76.597656 191.554688 76.597656 L 207.675781 76.597656 C 208.027344 76.597656 208.3125 76.882812 208.3125 77.238281 L 208.3125 136.789062 C 208.3125 137.144531 208.027344 137.429688 207.675781 137.429688 " fill-opacity="1" fill-rule="nonzero"/><path fill="#000000" d="M 211.699219 139.820312 C 211.347656 139.820312 211.058594 139.535156 211.058594 139.179688 L 211.058594 113.25 C 211.058594 112.894531 211.347656 112.609375 211.699219 112.609375 L 227.820312 112.609375 C 228.175781 112.609375 228.460938 112.894531 228.460938 113.25 L 228.460938 131.472656 C 228.460938 131.824219 228.175781 132.109375 227.820312 132.109375 C 227.46875 132.109375 227.183594 131.824219 227.183594 131.472656 L 227.183594 113.886719 L 212.339844 113.886719 L 212.339844 139.179688 C 212.339844 139.535156 212.054688 139.820312 211.699219 139.820312 " fill-opacity="1" fill-rule="nonzero"/><path fill="#000000" d="M 185.582031 162.027344 C 185.230469 162.027344 184.945312 161.742188 184.945312 161.390625 C 184.941406 161.039062 185.226562 160.75 185.582031 160.75 L 227.957031 160.609375 C 230.699219 160.609375 232.925781 158.382812 232.925781 155.644531 L 232.925781 72.199219 C 232.925781 69.464844 230.699219 67.238281 227.960938 67.238281 L 165.160156 67.238281 C 162.421875 67.238281 160.195312 69.464844 160.195312 72.199219 L 160.195312 155.644531 C 160.195312 158.382812 162.421875 160.609375 165.160156 160.609375 L 165.753906 160.609375 C 166.109375 160.609375 166.394531 160.894531 166.394531 161.25 C 166.394531 161.601562 166.109375 161.890625 165.753906 161.890625 L 165.160156 161.890625 C 161.714844 161.890625 158.914062 159.089844 158.914062 155.644531 L 158.914062 72.199219 C 158.914062 68.757812 161.714844 65.957031 165.160156 65.957031 L 227.960938 65.957031 C 231.402344 65.957031 234.203125 68.757812 234.203125 72.199219 L 234.203125 155.644531 C 234.203125 159.089844 231.402344 161.890625 227.960938 161.890625 L 185.585938 162.027344 L 185.582031 162.027344 " fill-opacity="1" fill-rule="nonzero"/><path fill="#ffffff" d="M 79.425781 331.421875 L 80.441406 341.09375 L 86.976562 341.859375 L 86.976562 330.394531 L 79.425781 331.421875 " fill-opacity="1" fill-rule="nonzero"/><path fill="#000000" d="M 81.023438 340.515625 L 86.339844 341.136719 L 86.339844 331.128906 L 80.125 331.976562 Z M 86.976562 342.496094 C 86.953125 342.496094 86.929688 342.496094 86.902344 342.492188 L 80.367188 341.726562 C 80.070312 341.691406 79.835938 341.457031 79.804688 341.15625 L 78.789062 331.492188 C 78.753906 331.144531 78.996094 330.835938 79.339844 330.789062 L 86.890625 329.761719 C 87.074219 329.738281 87.257812 329.792969 87.398438 329.914062 C 87.539062 330.035156 87.617188 330.210938 87.617188 330.394531 L 87.617188 341.859375 C 87.617188 342.039062 87.539062 342.214844 87.402344 342.335938 C 87.285156 342.441406 87.132812 342.496094 86.976562 342.496094 " fill-opacity="1" fill-rule="nonzero"/><path fill="#523762" d="M 88.007812 358.6875 C 85.28125 359.070312 80.816406 359.410156 75.570312 358.683594 C 73.851562 358.445312 72.714844 356.777344 73.128906 355.09375 C 74.28125 350.398438 76.273438 341.496094 79.6875 337.371094 L 80.535156 339.609375 L 81.707031 337.5 C 81.867188 337.210938 82.15625 337.015625 82.484375 336.976562 L 85.050781 336.652344 C 85.585938 336.582031 86.082031 336.9375 86.195312 337.464844 L 86.601562 339.40625 L 87.496094 336.859375 L 90.484375 355.417969 C 90.691406 357.003906 89.589844 358.464844 88.007812 358.6875 " fill-opacity="1" fill-rule="nonzero"/><path fill="#000000" d="M 79.503906 338.691406 C 76.804688 342.6875 75.066406 349.832031 73.996094 354.230469 L 73.75 355.246094 C 73.59375 355.878906 73.707031 356.527344 74.074219 357.066406 C 74.4375 357.601562 75.015625 357.960938 75.660156 358.050781 C 80.78125 358.757812 85.152344 358.441406 87.917969 358.054688 C 89.144531 357.882812 90.011719 356.734375 89.847656 355.5 L 87.265625 339.449219 L 87.207031 339.621094 C 87.113281 339.890625 86.84375 340.058594 86.5625 340.046875 C 86.273438 340.027344 86.035156 339.820312 85.976562 339.539062 L 85.570312 337.597656 C 85.527344 337.398438 85.332031 337.257812 85.128906 337.285156 L 82.5625 337.613281 C 82.4375 337.625 82.328125 337.703125 82.265625 337.8125 L 81.09375 339.917969 C 80.972656 340.136719 80.734375 340.265625 80.488281 340.246094 C 80.238281 340.230469 80.023438 340.066406 79.9375 339.835938 Z M 88.007812 358.6875 L 88.011719 358.6875 Z M 81.828125 359.75 C 79.90625 359.75 77.765625 359.632812 75.484375 359.316406 C 74.484375 359.179688 73.582031 358.617188 73.015625 357.785156 C 72.453125 356.953125 72.265625 355.917969 72.507812 354.941406 L 72.753906 353.929688 C 73.9375 349.0625 75.917969 340.921875 79.195312 336.964844 C 79.339844 336.789062 79.566406 336.703125 79.792969 336.742188 C 80.015625 336.777344 80.203125 336.929688 80.285156 337.144531 L 80.644531 338.09375 L 81.148438 337.191406 C 81.40625 336.726562 81.875 336.40625 82.402344 336.339844 L 84.96875 336.015625 C 85.742188 335.917969 86.46875 336.371094 86.742188 337.078125 L 86.894531 336.648438 C 86.992188 336.371094 87.265625 336.199219 87.554688 336.222656 C 87.847656 336.25 88.082031 336.46875 88.128906 336.757812 L 91.113281 355.3125 C 91.371094 357.261719 90.015625 359.050781 88.097656 359.320312 C 86.484375 359.546875 84.339844 359.75 81.828125 359.75 " fill-opacity="1" fill-rule="nonzero"/><path fill="#000000" d="M 80.433594 356.640625 C 78.671875 356.640625 76.765625 356.484375 74.867188 356.050781 C 74.523438 355.972656 74.308594 355.628906 74.386719 355.285156 C 74.464844 354.941406 74.808594 354.726562 75.152344 354.804688 C 81.496094 356.25 88.128906 354.390625 88.195312 354.371094 C 88.535156 354.273438 88.890625 354.46875 88.988281 354.8125 C 89.085938 355.148438 88.886719 355.503906 88.546875 355.601562 C 88.347656 355.660156 84.84375 356.640625 80.433594 356.640625 " fill-opacity="1" fill-rule="nonzero"/><path fill="#000000" d="M 78.875 349.453125 C 78.53125 349.453125 78.246094 349.179688 78.234375 348.832031 C 78.222656 348.480469 78.5 348.183594 78.851562 348.171875 L 84.980469 347.972656 C 84.988281 347.972656 84.996094 347.972656 85.003906 347.972656 C 85.34375 347.972656 85.628906 348.242188 85.640625 348.589844 C 85.652344 348.941406 85.375 349.238281 85.023438 349.25 L 78.894531 349.453125 C 78.886719 349.453125 78.878906 349.453125 78.875 349.453125 " fill-opacity="1" fill-rule="nonzero"/><path fill="#ffffff" d="M 110.042969 326.277344 L 111.023438 340.386719 L 118.886719 340.386719 L 119.253906 326.277344 L 110.042969 326.277344 " fill-opacity="1" fill-rule="nonzero"/><path fill="#000000" d="M 111.621094 339.746094 L 118.265625 339.746094 L 118.597656 326.914062 L 110.730469 326.914062 Z M 118.886719 341.023438 L 111.023438 341.023438 C 110.6875 341.023438 110.410156 340.765625 110.386719 340.425781 L 109.40625 326.320312 C 109.394531 326.144531 109.453125 325.972656 109.574219 325.839844 C 109.695312 325.710938 109.867188 325.636719 110.042969 325.636719 L 119.253906 325.636719 C 119.425781 325.636719 119.589844 325.707031 119.710938 325.828125 C 119.832031 325.953125 119.898438 326.121094 119.894531 326.292969 L 119.527344 340.402344 C 119.519531 340.746094 119.234375 341.023438 118.886719 341.023438 " fill-opacity="1" fill-rule="nonzero"/><path fill="#523762" d="M 108.96875 348.347656 C 108.949219 349.683594 109.859375 350.855469 111.160156 351.160156 C 115.683594 352.210938 125.867188 354.554688 128.773438 354.984375 C 132.546875 355.546875 137.179688 354.394531 139.171875 352.1875 C 141.164062 349.980469 134.710938 344.714844 131.648438 342.796875 C 127.097656 339.953125 122.726562 334.324219 120.890625 334.070312 C 119.058594 333.816406 115.636719 339.136719 115.636719 339.136719 L 110.042969 336.785156 C 110.042969 336.785156 109.070312 341.582031 108.96875 348.347656 " fill-opacity="1" fill-rule="nonzero"/><path fill="#000000" d="M 108.96875 348.347656 L 108.972656 348.347656 Z M 110.53125 337.683594 C 110.261719 339.296875 109.683594 343.28125 109.609375 348.359375 C 109.59375 349.386719 110.304688 350.304688 111.304688 350.535156 C 115.621094 351.539062 125.976562 353.921875 128.867188 354.355469 C 132.507812 354.894531 136.917969 353.730469 138.699219 351.757812 C 138.808594 351.632812 138.953125 351.421875 138.894531 351 C 138.601562 348.914062 134.300781 345.210938 131.308594 343.339844 C 128.984375 341.886719 126.773438 339.789062 124.824219 337.941406 C 123.199219 336.398438 121.519531 334.804688 120.804688 334.707031 C 119.945312 334.585938 117.71875 337.082031 116.175781 339.484375 C 116.007812 339.746094 115.675781 339.847656 115.386719 339.726562 Z M 130.734375 355.765625 C 130.039062 355.765625 129.351562 355.71875 128.679688 355.617188 C 125.847656 355.195312 116.394531 353.035156 111.015625 351.78125 C 109.433594 351.410156 108.304688 349.964844 108.328125 348.339844 C 108.429688 341.589844 109.40625 336.707031 109.417969 336.660156 C 109.453125 336.472656 109.574219 336.308594 109.746094 336.222656 C 109.914062 336.132812 110.113281 336.121094 110.292969 336.195312 L 115.394531 338.339844 C 116.503906 336.691406 119.101562 333.179688 120.980469 333.4375 C 122.050781 333.585938 123.402344 334.828125 125.707031 337.011719 C 127.613281 338.820312 129.773438 340.867188 131.988281 342.253906 C 133.96875 343.496094 139.730469 347.734375 140.160156 350.820312 C 140.257812 351.515625 140.078125 352.136719 139.648438 352.617188 C 137.917969 354.53125 134.269531 355.765625 130.734375 355.765625 " fill-opacity="1" fill-rule="nonzero"/><path fill="#000000" d="M 130.671875 353.171875 C 122.410156 353.171875 111.402344 348.722656 110.78125 348.46875 C 110.453125 348.335938 110.296875 347.960938 110.429688 347.632812 C 110.5625 347.308594 110.9375 347.148438 111.265625 347.285156 C 111.464844 347.367188 131.226562 355.355469 136.964844 350.171875 C 137.226562 349.933594 137.628906 349.953125 137.867188 350.21875 C 138.105469 350.480469 138.082031 350.882812 137.824219 351.121094 C 136.167969 352.613281 133.589844 353.171875 130.671875 353.171875 " fill-opacity="1" fill-rule="nonzero"/><path fill="#000000" d="M 121.949219 344.632812 C 121.777344 344.632812 121.601562 344.5625 121.476562 344.421875 C 121.238281 344.160156 121.257812 343.753906 121.523438 343.519531 L 125.523438 339.910156 C 125.785156 339.671875 126.191406 339.695312 126.425781 339.957031 C 126.660156 340.21875 126.640625 340.625 126.378906 340.859375 L 122.378906 344.46875 C 122.257812 344.578125 122.101562 344.632812 121.949219 344.632812 " fill-opacity="1" fill-rule="nonzero"/><path fill="#000000" d="M 77.195312 234.304688 C 77.195312 234.304688 74.757812 278.40625 73.480469 293.632812 C 72.207031 308.859375 76.464844 333.328125 76.464844 333.328125 L 88.605469 332.695312 C 88.605469 332.695312 89.4375 302.9375 90.339844 294.675781 C 90.339844 294.675781 95.46875 283.472656 96.988281 273.480469 C 98.507812 263.488281 103.6875 247.707031 103.6875 247.707031 C 103.6875 247.707031 107.890625 326.472656 108.296875 332.664062 C 108.296875 332.664062 117.816406 333.085938 121.230469 330.9375 C 121.230469 330.9375 127.277344 302.21875 126.410156 286.59375 C 125.542969 270.964844 126.496094 232.144531 126.496094 232.144531 L 77.195312 234.304688 " fill-opacity="1" fill-rule="nonzero"/><path fill="#ffffff" d="M 88.105469 295.3125 L 84.394531 295.3125 C 84.039062 295.3125 83.753906 295.023438 83.753906 294.671875 C 83.753906 294.316406 84.039062 294.03125 84.394531 294.03125 L 88.105469 294.03125 C 88.457031 294.03125 88.746094 294.316406 88.746094 294.671875 C 88.746094 295.023438 88.457031 295.3125 88.105469 295.3125 " fill-opacity="1" fill-rule="nonzero"/><path fill="#ffffff" d="M 114.542969 318.21875 C 114.539062 318.21875 114.535156 318.21875 114.53125 318.21875 C 114.175781 318.210938 113.894531 317.921875 113.902344 317.566406 C 114.035156 310.214844 122.0625 297.097656 122.40625 296.546875 C 122.589844 296.246094 122.984375 296.152344 123.285156 296.335938 C 123.585938 296.519531 123.679688 296.914062 123.496094 297.214844 C 123.414062 297.347656 115.308594 310.585938 115.179688 317.589844 C 115.175781 317.941406 114.890625 318.21875 114.542969 318.21875 " fill-opacity="1" fill-rule="nonzero"/><path fill="#ffffff" d="M 130.339844 163.765625 C 131.222656 163.699219 135.558594 172.585938 149.136719 172.210938 C 162.714844 171.839844 173.605469 156.648438 173.605469 156.648438 C 173.605469 156.648438 178.296875 148.742188 181.855469 145.882812 C 185.414062 143.023438 185.972656 142.644531 185.972656 142.644531 C 185.972656 142.644531 187.085938 144.132812 185.972656 145.882812 C 184.855469 147.628906 181.773438 150.902344 181.773438 150.902344 C 181.773438 150.902344 185.167969 152.765625 183.636719 156.648438 C 181.878906 161.109375 176.917969 160.75 176.917969 160.75 C 176.917969 160.75 166.851562 205.320312 125.25 184.140625 L 130.339844 163.765625 " fill-opacity="1" fill-rule="nonzero"/><path fill="#000000" d="M 125.992188 183.796875 C 138.042969 189.828125 148.535156 190.824219 157.191406 186.757812 C 171.785156 179.910156 176.25 160.800781 176.292969 160.609375 C 176.363281 160.300781 176.644531 160.089844 176.964844 160.113281 C 177.144531 160.125 181.480469 160.371094 183.042969 156.414062 C 184.339844 153.121094 181.582031 151.527344 181.464844 151.460938 C 181.292969 151.367188 181.175781 151.195312 181.144531 151.003906 C 181.113281 150.804688 181.175781 150.609375 181.308594 150.464844 C 181.339844 150.433594 184.359375 147.214844 185.429688 145.539062 C 185.917969 144.777344 185.871094 144.085938 185.734375 143.625 C 185.179688 144.050781 184.144531 144.863281 182.253906 146.378906 C 178.828125 149.132812 174.203125 156.894531 174.15625 156.972656 C 174.148438 156.988281 174.136719 157.003906 174.125 157.019531 C 173.671875 157.652344 162.890625 172.472656 149.15625 172.851562 C 138.09375 173.160156 133.054688 167.539062 130.90625 165.140625 C 130.839844 165.066406 130.773438 164.996094 130.710938 164.921875 Z M 145.878906 190.488281 C 139.519531 190.488281 132.523438 188.5625 124.960938 184.710938 C 124.695312 184.574219 124.554688 184.273438 124.628906 183.984375 L 129.71875 163.613281 C 129.785156 163.34375 130.015625 163.152344 130.289062 163.128906 C 130.785156 163.085938 131.121094 163.464844 131.855469 164.285156 C 133.890625 166.554688 138.652344 171.847656 149.121094 171.570312 C 162 171.21875 172.609375 156.929688 173.070312 156.292969 C 173.421875 155.710938 177.914062 148.226562 181.453125 145.382812 C 184.992188 142.542969 185.589844 142.132812 185.613281 142.117188 C 185.894531 141.925781 186.277344 141.988281 186.480469 142.261719 C 186.539062 142.339844 187.847656 144.128906 186.511719 146.226562 C 185.640625 147.585938 183.679688 149.777344 182.746094 150.796875 C 184.015625 151.824219 185.394531 153.933594 184.234375 156.882812 C 182.683594 160.808594 178.839844 161.335938 177.414062 161.390625 C 176.589844 164.511719 171.535156 181.441406 157.734375 187.914062 C 154.078125 189.632812 150.121094 190.488281 145.878906 190.488281 " fill-opacity="1" fill-rule="nonzero"/><path fill="#ae9fcf" d="M 63.046875 184.140625 C 63.046875 184.140625 67.121094 157.84375 81.515625 151.371094 C 95.910156 144.902344 115.386719 145.800781 120.753906 149.035156 C 126.125 152.265625 140.121094 166.875 140.121094 166.875 L 127.753906 184.140625 C 127.753906 184.140625 130.582031 230.621094 128.34375 242.890625 C 128.34375 242.890625 114.585938 244.496094 108.75 242.199219 C 102.914062 239.898438 83.726562 236.679688 74.554688 240.894531 L 76.222656 182.046875 L 63.046875 184.140625 " fill-opacity="1" fill-rule="nonzero"/><path fill="#000000" d="M 87.019531 238.203125 C 95.765625 238.203125 105.199219 240.109375 108.984375 241.601562 C 114.003906 243.578125 125.335938 242.558594 127.796875 242.304688 C 129.84375 229.570312 127.140625 184.636719 127.113281 184.179688 C 127.105469 184.03125 127.148438 183.886719 127.234375 183.769531 L 139.292969 166.933594 C 137.046875 164.613281 125.179688 152.441406 120.425781 149.582031 C 115.414062 146.566406 96.105469 145.515625 81.78125 151.957031 C 69.328125 157.550781 64.699219 178.792969 63.835938 183.367188 L 76.121094 181.414062 C 76.308594 181.382812 76.5 181.441406 76.644531 181.566406 C 76.785156 181.691406 76.867188 181.875 76.859375 182.066406 L 75.222656 239.917969 C 78.457031 238.679688 82.652344 238.203125 87.019531 238.203125 Z M 118.648438 244.082031 C 114.960938 244.082031 111.050781 243.789062 108.515625 242.792969 C 102.503906 240.425781 83.539062 237.472656 74.820312 241.472656 C 74.621094 241.566406 74.386719 241.550781 74.203125 241.425781 C 74.019531 241.304688 73.910156 241.097656 73.914062 240.875 L 75.5625 182.796875 L 63.148438 184.773438 C 62.945312 184.804688 62.742188 184.738281 62.597656 184.59375 C 62.453125 184.449219 62.386719 184.242188 62.417969 184.042969 C 62.585938 182.953125 66.710938 157.324219 81.253906 150.789062 C 95.511719 144.378906 115.246094 144.972656 121.085938 148.484375 C 126.464844 151.722656 140.011719 165.832031 140.582031 166.429688 C 140.796875 166.652344 140.820312 166.996094 140.640625 167.246094 L 128.40625 184.328125 C 128.640625 188.257812 131.140625 231.109375 128.972656 243.003906 C 128.921875 243.28125 128.699219 243.496094 128.417969 243.527344 C 128.09375 243.5625 123.570312 244.082031 118.648438 244.082031 " fill-opacity="1" fill-rule="nonzero"/><path fill="#000000" d="M 87.199219 229.40625 C 86.894531 229.40625 86.625 229.1875 86.570312 228.878906 C 86.507812 228.527344 86.742188 228.199219 87.085938 228.136719 C 108.839844 224.292969 115.148438 209.285156 115.207031 209.132812 C 115.339844 208.804688 115.714844 208.648438 116.042969 208.78125 C 116.371094 208.914062 116.527344 209.285156 116.394531 209.613281 C 116.332031 209.773438 109.753906 225.429688 87.308594 229.394531 C 87.273438 229.402344 87.234375 229.40625 87.199219 229.40625 " fill-opacity="1" fill-rule="nonzero"/><path fill="#000000" d="M 126.710938 202.523438 L 98.699219 202.523438 L 107.476562 171.234375 L 135.484375 171.234375 L 126.710938 202.523438 " fill-opacity="1" fill-rule="nonzero"/><path fill="#ffffff" d="M 65.519531 184.242188 L 79.695312 177.90625 C 79.695312 177.90625 77.699219 201.921875 106.378906 190.832031 C 106.378906 190.832031 105.320312 187.746094 105.46875 184.140625 C 105.621094 180.535156 107.777344 184.023438 108.078125 186.953125 C 108.378906 189.882812 115.113281 188.695312 119.160156 187.539062 C 123.207031 186.382812 128.519531 187.140625 119.160156 192.304688 C 109.800781 197.464844 107.753906 195.164062 107.753906 195.164062 C 107.753906 195.164062 95.800781 211.882812 80.933594 208.332031 C 62.644531 203.960938 65.519531 184.242188 65.519531 184.242188 " fill-opacity="1" fill-rule="nonzero"/><path fill="#000000" d="M 66.109375 184.679688 C 65.988281 185.875 65.703125 190.035156 66.992188 194.511719 C 69.011719 201.519531 73.753906 205.960938 81.082031 207.710938 C 95.363281 211.125 107.113281 194.953125 107.230469 194.792969 C 107.34375 194.632812 107.523438 194.535156 107.71875 194.523438 C 107.910156 194.519531 108.101562 194.59375 108.230469 194.738281 C 108.234375 194.738281 110.332031 196.445312 118.851562 191.742188 C 123.808594 189.007812 123.734375 188.007812 123.730469 187.996094 C 123.539062 187.683594 121.671875 187.488281 119.335938 188.152344 C 117.410156 188.703125 110.933594 190.367188 108.460938 188.691406 C 107.867188 188.292969 107.515625 187.714844 107.441406 187.019531 C 107.285156 185.496094 106.625 184.003906 106.1875 183.441406 C 106.15625 183.601562 106.125 183.828125 106.109375 184.167969 C 105.964844 187.613281 106.972656 190.59375 106.984375 190.625 C 107.09375 190.949219 106.929688 191.304688 106.609375 191.429688 C 96.714844 195.253906 89.28125 195.386719 84.511719 191.820312 C 79.523438 188.085938 79.015625 181.476562 79.019531 178.90625 Z M 85.078125 209.460938 C 83.679688 209.460938 82.246094 209.304688 80.785156 208.953125 C 62.140625 204.5 64.855469 184.351562 64.886719 184.148438 C 64.917969 183.933594 65.058594 183.746094 65.257812 183.65625 L 79.433594 177.320312 C 79.640625 177.226562 79.878906 177.253906 80.0625 177.382812 C 80.246094 177.511719 80.351562 177.730469 80.332031 177.957031 C 80.324219 178.042969 79.691406 186.621094 85.285156 190.800781 C 89.589844 194.015625 96.421875 193.898438 105.59375 190.449219 C 105.289062 189.359375 104.714844 186.898438 104.832031 184.113281 C 104.851562 183.589844 104.917969 182 106.023438 181.964844 C 106.035156 181.964844 106.042969 181.964844 106.054688 181.964844 C 107.46875 181.964844 108.535156 185.15625 108.714844 186.886719 C 108.746094 187.207031 108.894531 187.441406 109.175781 187.632812 C 110.679688 188.648438 115.183594 188.007812 118.984375 186.925781 C 120.746094 186.421875 124.25 185.898438 124.917969 187.515625 C 125.460938 188.835938 123.78125 190.484375 119.46875 192.863281 C 112.269531 196.835938 109.125 196.519531 107.914062 196.007812 C 106.015625 198.441406 96.773438 209.460938 85.078125 209.460938 " fill-opacity="1" fill-rule="nonzero"/><path fill="#000000" d="M 103.355469 139.386719 C 102.132812 140.507812 99.738281 141.878906 97.863281 140.933594 C 96.46875 140.234375 95.691406 138.410156 95.738281 136.328125 C 95.09375 136.378906 94.246094 136.335938 93.644531 135.800781 C 92.710938 134.976562 92.886719 133.464844 92.921875 132.46875 C 93.089844 127.882812 90.425781 127.179688 91.078125 124.0625 C 91.589844 121.617188 93.511719 120.15625 93.871094 119.886719 C 95.6875 118.507812 96.914062 118.953125 99.964844 118.15625 C 105.101562 116.808594 105.265625 114.597656 108.648438 114.585938 C 108.84375 114.585938 113.445312 114.636719 115.007812 117.816406 C 116.28125 120.402344 114.796875 123.546875 113.261719 125.199219 C 111.273438 127.335938 109.847656 126.28125 107.851562 128.074219 C 104.351562 131.222656 106.996094 136.058594 103.355469 139.386719 " fill-opacity="1" fill-rule="nonzero"/><path fill="#ffffff" d="M 113.605469 131.199219 L 113.402344 131.023438 C 112.386719 130.148438 111.328125 129.132812 111.058594 127.820312 C 109.910156 122.234375 104.796875 120.207031 104.558594 125.332031 C 104.5 126.628906 99.773438 126.5625 100.335938 127.921875 C 101.796875 131.460938 101.828125 130.511719 99.765625 131.8125 C 99.53125 131.824219 99.300781 131.875 99.078125 131.976562 C 98.023438 132.46875 97.648438 133.90625 98.242188 135.1875 C 98.605469 135.960938 99.242188 136.496094 99.921875 136.691406 L 99.921875 142.289062 C 99.921875 144.382812 98.65625 146.273438 96.714844 147.066406 L 94.824219 147.839844 C 94.824219 147.839844 103.632812 153.589844 112.578125 147.277344 L 111.382812 146.742188 C 109.28125 145.800781 107.902344 143.738281 107.828125 141.4375 L 107.820312 140.34375 C 108.421875 140.398438 109.003906 140.355469 109.539062 140.199219 C 112.042969 139.472656 112.871094 136.589844 112.449219 133.007812 L 113.464844 132.460938 C 113.941406 132.203125 114.011719 131.554688 113.605469 131.199219 " fill-opacity="1" fill-rule="nonzero"/><path fill="#000000" d="M 96.300781 147.925781 C 98.761719 149.125 104.851562 151.296875 111.25 147.382812 L 111.121094 147.328125 C 108.8125 146.289062 107.269531 143.984375 107.191406 141.457031 L 107.179688 140.347656 C 107.179688 140.167969 107.253906 139.996094 107.386719 139.871094 C 107.519531 139.75 107.695312 139.691406 107.875 139.707031 C 108.421875 139.757812 108.921875 139.714844 109.363281 139.585938 C 112.171875 138.765625 112.011719 134.765625 111.8125 133.082031 C 111.78125 132.820312 111.914062 132.566406 112.144531 132.441406 L 113.164062 131.894531 C 113.210938 131.867188 113.226562 131.828125 113.230469 131.796875 C 113.234375 131.765625 113.226562 131.722656 113.1875 131.683594 L 112.984375 131.511719 C 111.914062 130.585938 110.746094 129.472656 110.433594 127.945312 C 109.75 124.636719 107.683594 122.941406 106.507812 123.027344 C 105.417969 123.113281 105.230469 124.691406 105.199219 125.363281 C 105.148438 126.445312 103.816406 126.820312 102.53125 127.179688 C 102.023438 127.320312 101.203125 127.550781 100.953125 127.746094 C 101.152344 128.226562 101.324219 128.617188 101.464844 128.945312 C 102.164062 130.554688 102.398438 131.097656 100.972656 131.859375 C 100.742188 131.984375 100.453125 132.136719 100.105469 132.355469 C 100.011719 132.414062 99.902344 132.449219 99.792969 132.453125 C 99.632812 132.460938 99.484375 132.496094 99.351562 132.558594 C 98.613281 132.902344 98.378906 133.960938 98.824219 134.914062 C 99.089844 135.492188 99.566406 135.925781 100.097656 136.078125 C 100.375 136.152344 100.5625 136.40625 100.5625 136.691406 L 100.5625 142.289062 C 100.5625 144.65625 99.144531 146.761719 96.953125 147.660156 Z M 103.539062 150.855469 C 98.363281 150.855469 94.53125 148.414062 94.472656 148.375 C 94.273438 148.246094 94.164062 148.015625 94.1875 147.777344 C 94.207031 147.542969 94.359375 147.339844 94.582031 147.25 L 96.472656 146.476562 C 98.179688 145.777344 99.28125 144.132812 99.28125 142.289062 L 99.28125 137.132812 C 98.59375 136.800781 98.015625 136.214844 97.664062 135.457031 C 96.917969 133.859375 97.433594 132.039062 98.808594 131.398438 C 99.042969 131.289062 99.296875 131.21875 99.558594 131.1875 C 99.882812 130.988281 100.148438 130.847656 100.371094 130.730469 C 100.5 130.660156 100.640625 130.585938 100.726562 130.53125 C 100.671875 130.328125 100.484375 129.902344 100.289062 129.453125 C 100.140625 129.105469 99.957031 128.683594 99.742188 128.164062 C 99.609375 127.84375 99.617188 127.519531 99.757812 127.226562 C 100.097656 126.53125 101.0625 126.261719 102.183594 125.949219 C 102.734375 125.792969 103.746094 125.511719 103.921875 125.277344 C 104.074219 122.175781 105.863281 121.796875 106.40625 121.753906 C 108.328125 121.609375 110.890625 123.828125 111.683594 127.691406 C 111.917969 128.824219 112.910156 129.753906 113.820312 130.539062 L 114.023438 130.714844 C 114.375 131.019531 114.550781 131.476562 114.5 131.9375 C 114.449219 132.398438 114.175781 132.804688 113.769531 133.023438 L 113.128906 133.367188 C 113.5 137.371094 112.269531 140.070312 109.71875 140.8125 C 109.328125 140.925781 108.90625 140.992188 108.464844 141.003906 L 108.46875 141.433594 C 108.53125 143.460938 109.777344 145.320312 111.644531 146.160156 L 112.839844 146.691406 C 113.046875 146.785156 113.191406 146.984375 113.214844 147.214844 C 113.234375 147.445312 113.132812 147.667969 112.945312 147.796875 C 109.671875 150.109375 106.402344 150.855469 103.539062 150.855469 " fill-opacity="1" fill-rule="nonzero"/><path fill="#000000" d="M 107.820312 140.984375 C 107.789062 140.984375 107.753906 140.980469 107.722656 140.976562 C 103.988281 140.402344 102.304688 137.542969 102.234375 137.421875 C 102.058594 137.113281 102.164062 136.722656 102.472656 136.546875 C 102.777344 136.371094 103.167969 136.476562 103.34375 136.78125 C 103.367188 136.820312 104.816406 139.234375 107.917969 139.710938 C 108.265625 139.765625 108.503906 140.089844 108.453125 140.441406 C 108.402344 140.757812 108.128906 140.984375 107.820312 140.984375 " fill-opacity="1" fill-rule="nonzero"/><path fill="#000000" d="M 209.023438 330.851562 C 208.714844 330.851562 208.441406 330.625 208.394531 330.308594 C 208.335938 329.960938 208.578125 329.632812 208.925781 329.578125 C 209.324219 329.515625 249.085938 323.101562 276.347656 296.464844 C 276.601562 296.21875 277.007812 296.222656 277.253906 296.476562 C 277.5 296.726562 277.496094 297.132812 277.242188 297.378906 C 249.683594 324.308594 209.523438 330.78125 209.121094 330.84375 C 209.085938 330.847656 209.054688 330.851562 209.023438 330.851562 " fill-opacity="1" fill-rule="nonzero"/><path fill="#000000" d="M 240.695312 330.769531 C 240.433594 330.769531 240.191406 330.609375 240.097656 330.347656 C 239.972656 330.015625 240.144531 329.648438 240.476562 329.527344 C 240.78125 329.414062 271.3125 318.03125 281.640625 298.136719 C 281.800781 297.828125 282.1875 297.703125 282.5 297.867188 C 282.8125 298.03125 282.9375 298.414062 282.773438 298.730469 C 272.21875 319.0625 241.226562 330.617188 240.914062 330.730469 C 240.84375 330.753906 240.769531 330.769531 240.695312 330.769531 " fill-opacity="1" fill-rule="nonzero"/><path fill="#000000" d="M 79.917969 50.03125 C 79.730469 50.03125 79.542969 49.945312 79.414062 49.789062 C 79.199219 49.507812 79.246094 49.105469 79.523438 48.890625 C 103.152344 30.34375 127.464844 23.847656 143.699219 21.660156 C 161.300781 19.292969 173.5 21.339844 173.617188 21.363281 C 173.964844 21.421875 174.199219 21.753906 174.140625 22.101562 C 174.078125 22.449219 173.746094 22.683594 173.402344 22.621094 C 173.28125 22.601562 161.238281 20.585938 143.816406 22.9375 C 127.753906 25.105469 103.695312 31.542969 80.3125 49.894531 C 80.195312 49.988281 80.058594 50.03125 79.917969 50.03125 " fill-opacity="1" fill-rule="nonzero"/><path fill="#000000" d="M 131.089844 17.980469 C 130.816406 17.980469 130.566406 17.804688 130.480469 17.53125 C 130.371094 17.195312 130.558594 16.835938 130.894531 16.730469 C 131.234375 16.621094 164.976562 6.125 195.957031 16.472656 C 196.292969 16.585938 196.472656 16.949219 196.363281 17.28125 C 196.25 17.617188 195.886719 17.800781 195.554688 17.6875 C 164.960938 7.46875 131.617188 17.84375 131.285156 17.949219 C 131.21875 17.96875 131.152344 17.980469 131.089844 17.980469 " fill-opacity="1" fill-rule="nonzero"/><path fill="#000000" d="M 47.167969 37.570312 C 47.011719 37.570312 46.851562 37.515625 46.726562 37.394531 C 46.472656 37.148438 46.464844 36.746094 46.707031 36.492188 L 48.71875 34.386719 C 48.964844 34.132812 49.371094 34.121094 49.625 34.367188 C 49.878906 34.613281 49.890625 35.015625 49.644531 35.273438 L 47.632812 37.375 C 47.503906 37.507812 47.335938 37.570312 47.167969 37.570312 " fill-opacity="1" fill-rule="nonzero"/><path fill="#000000" d="M 40.125 44.9375 C 39.964844 44.9375 39.804688 44.878906 39.683594 44.761719 C 39.425781 44.515625 39.417969 44.109375 39.660156 43.855469 L 41.675781 41.753906 C 41.917969 41.496094 42.324219 41.488281 42.578125 41.730469 C 42.835938 41.976562 42.84375 42.378906 42.597656 42.636719 L 40.585938 44.738281 C 40.460938 44.871094 40.292969 44.9375 40.125 44.9375 " fill-opacity="1" fill-rule="nonzero"/><path fill="#000000" d="M 42.101562 37.6875 C 41.9375 37.6875 41.773438 37.625 41.652344 37.503906 L 39.605469 35.488281 C 39.355469 35.242188 39.351562 34.835938 39.601562 34.585938 C 39.847656 34.332031 40.253906 34.328125 40.503906 34.578125 L 42.546875 36.589844 C 42.800781 36.839844 42.804688 37.242188 42.554688 37.496094 C 42.429688 37.621094 42.265625 37.6875 42.101562 37.6875 " fill-opacity="1" fill-rule="nonzero"/><path fill="#000000" d="M 49.25 44.734375 C 49.089844 44.734375 48.925781 44.671875 48.800781 44.550781 L 46.757812 42.535156 C 46.507812 42.289062 46.503906 41.882812 46.75 41.628906 C 47 41.378906 47.40625 41.375 47.65625 41.625 L 49.699219 43.636719 C 49.953125 43.886719 49.953125 44.292969 49.707031 44.542969 C 49.582031 44.667969 49.417969 44.734375 49.25 44.734375 " fill-opacity="1" fill-rule="nonzero"/><path fill="#000000" d="M 232.597656 333.714844 C 231.558594 333.714844 230.546875 334.253906 229.992188 335.214844 C 229.164062 336.648438 229.65625 338.488281 231.089844 339.316406 C 232.523438 340.144531 234.363281 339.652344 235.195312 338.21875 C 235.59375 337.523438 235.703125 336.714844 235.492188 335.941406 C 235.285156 335.164062 234.789062 334.519531 234.09375 334.117188 C 233.621094 333.84375 233.105469 333.714844 232.597656 333.714844 Z M 232.585938 340.996094 C 231.859375 340.996094 231.125 340.8125 230.449219 340.421875 C 228.40625 339.242188 227.703125 336.617188 228.886719 334.574219 C 230.066406 332.53125 232.6875 331.828125 234.734375 333.007812 C 235.726562 333.582031 236.433594 334.503906 236.730469 335.609375 C 237.027344 336.714844 236.875 337.867188 236.300781 338.859375 C 235.507812 340.230469 234.066406 340.996094 232.585938 340.996094 " fill-opacity="1" fill-rule="nonzero"/><path fill="#000000" d="M 205.148438 18.339844 C 204.527344 18.339844 203.917969 18.664062 203.582031 19.242188 C 203.082031 20.105469 203.378906 21.210938 204.246094 21.710938 C 205.109375 22.210938 206.214844 21.914062 206.714844 21.050781 C 207.210938 20.1875 206.917969 19.078125 206.054688 18.582031 C 205.769531 18.417969 205.457031 18.339844 205.148438 18.339844 Z M 205.140625 23.234375 C 204.621094 23.234375 204.089844 23.101562 203.605469 22.820312 C 202.128906 21.96875 201.625 20.074219 202.476562 18.601562 C 203.328125 17.128906 205.21875 16.621094 206.691406 17.472656 C 208.167969 18.328125 208.671875 20.21875 207.824219 21.691406 C 207.25 22.679688 206.210938 23.234375 205.140625 23.234375 " fill-opacity="1" fill-rule="nonzero"/></svg>