<svg width="16" height="16" viewBox="0 0 16 16" fill="none" xmlns="http://www.w3.org/2000/svg">
<path d="M7.99999 8.33334C7.38115 8.33334 6.78766 8.57917 6.35007 9.01675C5.91249 9.45434 5.66666 10.0478 5.66666 10.6667C5.66666 11.2855 5.91249 11.879 6.35007 12.3166C6.78766 12.7542 7.38115 13 7.99999 13C8.61883 13 9.21232 12.7542 9.64991 12.3166C10.0875 11.879 10.3333 11.2855 10.3333 10.6667C10.3333 10.0478 10.0875 9.45434 9.64991 9.01675C9.21232 8.57917 8.61883 8.33334 7.99999 8.33334ZM6.99999 10.6667C6.99999 10.4015 7.10535 10.1471 7.29288 9.95956C7.48042 9.77203 7.73477 9.66667 7.99999 9.66667C8.26521 9.66667 8.51956 9.77203 8.7071 9.95956C8.89463 10.1471 8.99999 10.4015 8.99999 10.6667C8.99999 10.9319 8.89463 11.1862 8.7071 11.3738C8.51956 11.5613 8.26521 11.6667 7.99999 11.6667C7.73477 11.6667 7.48042 11.5613 7.29288 11.3738C7.10535 11.1862 6.99999 10.9319 6.99999 10.6667Z" fill="white"/>
<path d="M11.684 3.41066L9.56467 0.439331L1.772 6.66466L1.34 6.66V6.66666H1V14.6667H15V6.66666H14.3587L13.0827 2.934L11.684 3.41066ZM12.95 6.66666H6.26467L11.244 4.96933L12.2587 4.64466L12.95 6.66666ZM10.3667 3.86L5.22667 5.612L9.29733 2.36L10.3667 3.86ZM2.33333 12.1127V9.21933C2.61478 9.12 2.87043 8.95893 3.08154 8.74794C3.29264 8.53696 3.45385 8.28139 3.55333 8H12.4467C12.5461 8.28152 12.7072 8.53721 12.9183 8.74832C13.1295 8.95943 13.3851 9.1206 13.6667 9.22V12.1133C13.3851 12.2127 13.1295 12.3739 12.9183 12.585C12.7072 12.7961 12.5461 13.0518 12.4467 13.3333H3.55467C3.45479 13.0518 3.29331 12.7961 3.08201 12.5849C2.87072 12.3737 2.61493 12.2124 2.33333 12.1127Z" fill="white"/>
</svg>
