<svg width="10" height="10" viewBox="0 0 10 10" fill="none" xmlns="http://www.w3.org/2000/svg">
<path d="M5.00001 9.58333C2.68459 9.06875 0.833344 6.88416 0.833344 4.58333V2.08333L5.00001 0.416664L9.16668 2.08333V4.58333C9.16668 6.885 7.31543 9.06875 5.00001 9.58333ZM1.66668 2.5V4.58333C1.69049 5.54672 2.02933 6.47576 2.63133 7.22827C3.23334 7.98078 4.06535 8.51529 5.00001 8.75C5.93467 8.51529 6.76668 7.98078 7.36869 7.22827C7.97069 6.47576 8.30953 5.54672 8.33334 4.58333V2.5L5.00001 1.25L1.66668 2.5Z" fill="#F8F8F8"/>
<path d="M5.00001 4.58333C5.57531 4.58333 6.04168 4.11696 6.04168 3.54167C6.04168 2.96637 5.57531 2.5 5.00001 2.5C4.42471 2.5 3.95834 2.96637 3.95834 3.54167C3.95834 4.11696 4.42471 4.58333 5.00001 4.58333Z" fill="#F8F8F8"/>
<path d="M2.91666 6.25C3.12196 6.62431 3.42307 6.93732 3.78915 7.15696C4.15522 7.37661 4.5731 7.495 4.99999 7.5C5.42687 7.495 5.84476 7.37661 6.21083 7.15696C6.57691 6.93732 6.87802 6.62431 7.08332 6.25C7.07291 5.46 5.69082 5 4.99999 5C4.30541 5 2.92707 5.46 2.91666 6.25Z" fill="#F8F8F8"/>
</svg>
