<svg width="10" height="10" viewBox="0 0 10 10" fill="none" xmlns="http://www.w3.org/2000/svg">
<path d="M9.6875 6.875V6.25H9.03125C8.99061 6.05443 8.91285 5.86847 8.80219 5.70219L9.26781 5.23656L8.82594 4.79469L8.36031 5.26031C8.194 5.14976 8.00804 5.0721 7.8125 5.03156V4.375H7.1875V5.03156C6.99196 5.0721 6.806 5.14976 6.63969 5.26031L6.17406 4.79469L5.73219 5.23656L6.19781 5.70219C6.08715 5.86847 6.00939 6.05443 5.96875 6.25H5.3125V6.875H5.96875C6.00938 7.07406 6.08875 7.25906 6.1975 7.42281L5.73187 7.88844L6.17375 8.33031L6.63938 7.86469C6.80575 7.97539 6.99182 8.05315 7.1875 8.09375V8.75H7.8125V8.09375C8.00804 8.05321 8.194 7.97556 8.36031 7.865L8.82594 8.33063L9.26781 7.88875L8.80219 7.42312C8.91289 7.25675 8.99065 7.07068 9.03125 6.875H9.6875ZM7.5 7.5C7.25136 7.5 7.0129 7.40123 6.83709 7.22541C6.66127 7.0496 6.5625 6.81114 6.5625 6.5625C6.5625 6.31386 6.66127 6.0754 6.83709 5.89959C7.0129 5.72377 7.25136 5.625 7.5 5.625C7.74864 5.625 7.9871 5.72377 8.16291 5.89959C8.33873 6.0754 8.4375 6.31386 8.4375 6.5625C8.4375 6.81114 8.33873 7.0496 8.16291 7.22541C7.9871 7.40123 7.74864 7.5 7.5 7.5Z" fill="#F8F8F8"/>
<path d="M6.5625 1.875C6.5625 1.01344 5.86156 0.3125 5 0.3125C4.44375 0.3125 3.92531 0.611875 3.64688 1.09375C3.54735 1.26694 3.48061 1.45699 3.45 1.65438C3.0815 1.39149 2.64016 1.25013 2.1875 1.25C0.98125 1.25 0 2.23125 0 3.4375C0.000395682 3.83799 0.110728 4.23068 0.318969 4.57277C0.52721 4.91486 0.825367 5.19322 1.18094 5.3775C0.84375 5.66438 0.625 6.08625 0.625 6.5625C0.625 7.42406 1.32594 8.125 2.1875 8.125C2.41688 8.125 2.63344 8.0725 2.82969 7.98312C2.91625 8.76344 3.57188 9.375 4.375 9.375C4.58028 9.37555 4.78363 9.3354 4.9733 9.25688C5.16297 9.17835 5.33519 9.063 5.48 8.9175L5.03781 8.47531C4.95098 8.56265 4.84769 8.6319 4.73392 8.67905C4.62015 8.7262 4.49816 8.75032 4.375 8.75C3.85812 8.75 3.4375 8.32938 3.4375 7.8125C3.4375 7.29562 3.85812 6.875 4.375 6.875V6.25C4.14531 6.25 3.92906 6.30281 3.73281 6.39188C3.68869 5.99771 3.49631 5.63507 3.19469 5.3775C3.55014 5.19313 3.84817 4.91474 4.0563 4.57266C4.26443 4.23057 4.37466 3.83792 4.375 3.4375C4.375 3.39156 4.37063 3.34656 4.36781 3.30125C4.56156 3.3875 4.77469 3.4375 5 3.4375C5.86156 3.4375 6.5625 2.73656 6.5625 1.875ZM4.1875 1.40625C4.27008 1.26386 4.38857 1.14562 4.53115 1.06337C4.67373 0.981112 4.8354 0.93771 5 0.9375C5.51688 0.9375 5.9375 1.35812 5.9375 1.875C5.9375 2.39188 5.51688 2.8125 5 2.8125C4.48312 2.8125 4.0625 2.39188 4.0625 1.875H4.05313C4.06438 1.695 4.10687 1.54625 4.1875 1.40625ZM3.125 6.5625C3.125 7.07938 2.70438 7.5 2.1875 7.5C1.67062 7.5 1.25 7.07938 1.25 6.5625C1.25 6.04562 1.67062 5.625 2.1875 5.625C2.70438 5.625 3.125 6.04562 3.125 6.5625ZM2.1875 5C1.32594 5 0.625 4.29906 0.625 3.4375C0.625 2.57594 1.32594 1.875 2.1875 1.875C3.04906 1.875 3.75 2.57594 3.75 3.4375C3.75 4.29906 3.04906 5 2.1875 5Z" fill="#F8F8F8"/>
</svg>
