<svg width="19" height="17" viewBox="0 0 19 17" fill="none" xmlns="http://www.w3.org/2000/svg">
<path d="M17.4167 10.1667C17.4167 12.376 15.3916 14.1667 12.8931 14.1667H8.70833M11.385 6.39413C11.8698 6.24298 12.3797 6.16611 12.8931 6.16675C13.4108 6.16675 13.9088 6.24396 14.3735 6.38563M14.3735 6.38563C14.121 4.38742 12.2043 2.83334 9.87683 2.83334C7.37833 2.83334 5.35324 4.624 5.35324 6.83329C5.35261 7.30785 5.44754 7.77862 5.63349 8.22304M14.3735 6.38563C14.9074 6.54911 15.4025 6.80039 15.8333 7.12654M5.63349 8.22304C5.417 8.18538 5.19696 8.1664 4.97641 8.16638C3.10254 8.16709 1.58333 9.51009 1.58333 11.1669C1.58333 12.8237 3.10254 14.1667 4.97641 14.1667H5.54166M5.63349 8.22304C6.07152 8.29916 6.48849 8.45176 6.86058 8.67213" stroke="white" stroke-width="1.5" stroke-linecap="round"/>
</svg>
