<svg width="10" height="10" viewBox="0 0 10 10" fill="none" xmlns="http://www.w3.org/2000/svg">
<path d="M8.43334 2.81667C7.66668 2.04583 6.52084 1.8875 5.59168 2.32917L5.19168 1.92917C5.15313 1.89054 5.10734 1.8599 5.05694 1.83899C5.00653 1.81808 4.9525 1.80731 4.89793 1.80731C4.84336 1.80731 4.78932 1.81808 4.73892 1.83899C4.68851 1.8599 4.64272 1.89054 4.60418 1.92917L4.57084 1.96667C4.51251 1.5625 4.16668 1.25 3.75001 1.25C3.29168 1.25 2.91668 1.625 2.91668 2.08333C2.91668 2.12083 2.91668 2.15833 2.92918 2.19167C2.67501 2.3375 2.50001 2.60417 2.50001 2.91667C2.50001 3.10833 2.56668 3.27917 2.67501 3.42083C2.62156 3.45762 2.57775 3.50674 2.54729 3.56403C2.51683 3.62133 2.50061 3.68511 2.50001 3.75V4.3125C1.52918 4.65417 0.833344 5.57917 0.833344 6.66667C0.833344 8.04583 1.95418 9.16667 3.33334 9.16667C4.71251 9.16667 5.83334 8.04583 5.83334 6.66667C5.83336 6.15002 5.67305 5.64611 5.37453 5.22444C5.076 4.80277 4.65398 4.48414 4.16668 4.3125V3.75C4.16607 3.68511 4.14986 3.62133 4.1194 3.56403C4.08893 3.50674 4.04513 3.45762 3.99168 3.42083C4.10001 3.27917 4.16668 3.10833 4.16668 2.91667C4.16668 2.87917 4.16668 2.84167 4.15418 2.80833C4.22918 2.76667 4.29168 2.70833 4.34584 2.65833C4.73334 2.86667 5.00001 3.275 5.00001 3.75V3.78333C5.05418 3.8125 5.10418 3.85417 5.15834 3.8875C5.23751 3.7125 5.34584 3.54167 5.48751 3.40417C5.80066 3.09222 6.22467 2.91708 6.66668 2.91708C7.10869 2.91708 7.53269 3.09222 7.84584 3.40417C8.15779 3.71732 8.33293 4.14132 8.33293 4.58333C8.33293 5.02534 8.15779 5.44935 7.84584 5.7625C7.51251 6.09583 7.08334 6.25 6.63751 6.25C6.66668 6.38333 6.66668 6.525 6.66668 6.66667C6.66668 6.80833 6.65418 6.94583 6.63751 7.08333C7.29168 7.08333 7.93751 6.84583 8.43334 6.35C8.66615 6.11845 8.85091 5.84317 8.97697 5.53999C9.10304 5.2368 9.16794 4.91169 9.16794 4.58333C9.16794 4.25498 9.10304 3.92987 8.97697 3.62668C8.85091 3.32349 8.66615 3.04821 8.43334 2.81667ZM3.75001 1.66667C3.97918 1.66667 4.16668 1.85417 4.16668 2.08333C4.16668 2.22083 4.09584 2.3375 3.99168 2.4125C3.84168 2.2125 3.60418 2.08333 3.33334 2.08333C3.33334 1.85417 3.52084 1.66667 3.75001 1.66667ZM3.09168 2.5875C3.24168 2.7875 3.47918 2.91667 3.75001 2.91667C3.75001 3.14583 3.56251 3.33333 3.33334 3.33333C3.10418 3.33333 2.91668 3.14583 2.91668 2.91667C2.91668 2.77917 2.98751 2.6625 3.09168 2.5875ZM5.00001 6.66667C5.00001 7.5875 4.25418 8.33333 3.33334 8.33333C2.41251 8.33333 1.66668 7.5875 1.66668 6.66667C1.66668 5.74583 2.41251 5 3.33334 5C4.25418 5 5.00001 5.74583 5.00001 6.66667Z" fill="#F8F8F8"/>
</svg>
