<svg width="10" height="10" viewBox="0 0 10 10" fill="none" xmlns="http://www.w3.org/2000/svg">
<path d="M0.83625 1.22562C0.934375 0.85125 1.27563 0.625 1.63438 0.625C1.85563 0.625 2.05688 0.708125 2.21 0.84375C2.37883 0.702133 2.59214 0.624512 2.8125 0.624512C3.03286 0.624512 3.24617 0.702133 3.415 0.84375C3.57342 0.702489 3.77837 0.624604 3.99063 0.625C4.34938 0.625 4.69063 0.85125 4.78875 1.22562C4.8825 1.58312 5 2.15937 5 2.8125C4.99998 3.17722 4.90878 3.53615 4.73467 3.85664C4.56057 4.17712 4.30909 4.44899 4.00313 4.6475C3.83375 4.75812 3.75 4.90063 3.75 5.0225V5.27C3.75 5.28417 3.75083 5.29792 3.7525 5.31125C3.77375 5.46625 3.85063 6.04187 3.9225 6.63875C3.99313 7.22437 4.0625 7.86312 4.0625 8.125C4.0625 8.45652 3.9308 8.77446 3.69638 9.00888C3.46196 9.2433 3.14402 9.375 2.8125 9.375C2.48098 9.375 2.16304 9.2433 1.92862 9.00888C1.6942 8.77446 1.5625 8.45652 1.5625 8.125C1.5625 7.8625 1.63187 7.225 1.7025 6.63875C1.77437 6.04187 1.85125 5.46625 1.8725 5.31125L1.875 5.27V5.0225C1.875 4.90063 1.79125 4.75812 1.62188 4.6475C1.31591 4.44899 1.06443 4.17712 0.89033 3.85664C0.716225 3.53615 0.625016 3.17722 0.625 2.8125C0.625 2.15937 0.7425 1.58312 0.83625 1.22562ZM3.75 3.125C3.75 3.20788 3.71708 3.28737 3.65847 3.34597C3.59987 3.40458 3.52038 3.4375 3.4375 3.4375C3.35462 3.4375 3.27513 3.40458 3.21653 3.34597C3.15792 3.28737 3.125 3.20788 3.125 3.125V1.5625C3.125 1.47962 3.09208 1.40013 3.03347 1.34153C2.97487 1.28292 2.89538 1.25 2.8125 1.25C2.72962 1.25 2.65013 1.28292 2.59153 1.34153C2.53292 1.40013 2.5 1.47962 2.5 1.5625V3.125C2.5 3.20788 2.46708 3.28737 2.40847 3.34597C2.34987 3.40458 2.27038 3.4375 2.1875 3.4375C2.10462 3.4375 2.02513 3.40458 1.96653 3.34597C1.90792 3.28737 1.875 3.20788 1.875 3.125V1.49062C1.875 1.42681 1.84965 1.3656 1.80452 1.32048C1.7594 1.27535 1.69819 1.25 1.63438 1.25C1.53063 1.25 1.45938 1.31187 1.44063 1.38437C1.31746 1.85054 1.25341 2.33035 1.25 2.8125C1.24997 3.07315 1.31515 3.32966 1.43959 3.55868C1.56403 3.78771 1.74379 3.98196 1.9625 4.12375C2.23688 4.30187 2.5 4.615 2.5 5.0225V5.27C2.5 5.31167 2.49729 5.35333 2.49187 5.395C2.47062 5.54875 2.39438 6.12062 2.32313 6.71375C2.25063 7.31687 2.1875 7.91 2.1875 8.125C2.1875 8.29076 2.25335 8.44973 2.37056 8.56694C2.48777 8.68415 2.64674 8.75 2.8125 8.75C2.97826 8.75 3.13723 8.68415 3.25444 8.56694C3.37165 8.44973 3.4375 8.29076 3.4375 8.125C3.4375 7.91 3.375 7.31688 3.30187 6.71312C3.23062 6.12062 3.15438 5.54875 3.13313 5.39437C3.12837 5.35328 3.12566 5.31198 3.125 5.27062V5.02312C3.125 4.61562 3.38813 4.3025 3.6625 4.12437C3.88129 3.98252 4.06111 3.78817 4.18556 3.55903C4.31001 3.32989 4.37513 3.07325 4.375 2.8125C4.375 2.23 4.27 1.71 4.18438 1.38437C4.16563 1.3125 4.09375 1.25 3.99063 1.25C3.92681 1.25 3.8656 1.27535 3.82048 1.32048C3.77535 1.3656 3.75 1.42681 3.75 1.49062V3.125ZM5.625 3.4375C5.625 2.69158 5.92132 1.97621 6.44876 1.44876C6.97621 0.921316 7.69158 0.625 8.4375 0.625C8.52038 0.625 8.59987 0.657924 8.65847 0.716529C8.71708 0.775134 8.75 0.85462 8.75 0.9375V4.67062L8.76188 4.78125C8.8116 5.24771 8.8593 5.71438 8.905 6.18125C8.98188 6.96625 9.0625 7.84625 9.0625 8.125C9.0625 8.45652 8.9308 8.77446 8.69638 9.00888C8.46196 9.2433 8.14402 9.375 7.8125 9.375C7.48098 9.375 7.16304 9.2433 6.92862 9.00888C6.6942 8.77446 6.5625 8.45652 6.5625 8.125C6.5625 7.84625 6.64312 6.96625 6.72 6.18125C6.75937 5.78313 6.79875 5.40187 6.82813 5.11937L6.84062 5H6.25C6.08424 5 5.92527 4.93415 5.80806 4.81694C5.69085 4.69973 5.625 4.54076 5.625 4.375V3.4375ZM7.49812 4.72062L7.485 4.84687C7.43615 5.31194 7.38865 5.77715 7.3425 6.2425C7.26313 7.04687 7.1875 7.88625 7.1875 8.125C7.1875 8.29076 7.25335 8.44973 7.37056 8.56694C7.48777 8.68415 7.64674 8.75 7.8125 8.75C7.97826 8.75 8.13723 8.68415 8.25444 8.56694C8.37165 8.44973 8.4375 8.29076 8.4375 8.125C8.4375 7.88562 8.36187 7.04687 8.2825 6.2425C8.23666 5.77712 8.18916 5.31191 8.14 4.84687L8.12688 4.72125L8.125 4.6875V1.27187C7.60428 1.34703 7.12809 1.60735 6.78372 2.0051C6.43935 2.40285 6.24986 2.91138 6.25 3.4375V4.375H7.1875C7.23132 4.37502 7.27465 4.38425 7.31467 4.4021C7.3547 4.41995 7.39052 4.44602 7.41981 4.47861C7.4491 4.5112 7.47121 4.54959 7.48471 4.59129C7.4982 4.63298 7.50277 4.67705 7.49812 4.72062Z" fill="#F8F8F8"/>
</svg>
