<svg width="20" height="23" viewBox="0 0 20 23" fill="none" xmlns="http://www.w3.org/2000/svg">
<g filter="url(#filter0_d_10_240)">
<path d="M15 15H14V13.5C13.9992 12.8372 13.7356 12.2018 13.2669 11.7331C12.7982 11.2644 12.1628 11.0008 11.5 11H8.5C7.8372 11.0008 7.20178 11.2644 6.73311 11.7331C6.26444 12.2018 6.00079 12.8372 6 13.5V15H5V13.5C5.00132 12.5721 5.3705 11.6827 6.02659 11.0266C6.68268 10.3705 7.57215 10.0013 8.5 10H11.5C12.4279 10.0013 13.3173 10.3705 13.9734 11.0266C14.6295 11.6827 14.9987 12.5721 15 13.5V15ZM4.5 3C4.36739 3 4.24021 3.05268 4.14645 3.14645C4.05268 3.24021 4 3.36739 4 3.5V8H5V3.5C5 3.36739 4.94732 3.24021 4.85355 3.14645C4.75979 3.05268 4.63261 3 4.5 3Z" fill="white"/>
<path d="M4 1V2H6.5V5.5C6.5 6.42826 6.86875 7.3185 7.52513 7.97487C8.1815 8.63125 9.07174 9 10 9C10.9283 9 11.8185 8.63125 12.4749 7.97487C13.1313 7.3185 13.5 6.42826 13.5 5.5V2H16V1H4ZM7.5 2H12.5V3.5H7.5V2ZM10 8C9.33696 8 8.70107 7.73661 8.23223 7.26777C7.76339 6.79893 7.5 6.16304 7.5 5.5V4.5H12.5V5.5C12.5 6.16304 12.2366 6.79893 11.7678 7.26777C11.2989 7.73661 10.663 8 10 8Z" fill="white"/>
</g>
<defs>
<filter id="filter0_d_10_240" x="-2" y="0" width="24" height="24" filterUnits="userSpaceOnUse" color-interpolation-filters="sRGB">
<feFlood flood-opacity="0" result="BackgroundImageFix"/>
<feColorMatrix in="SourceAlpha" type="matrix" values="0 0 0 0 0 0 0 0 0 0 0 0 0 0 0 0 0 0 127 0" result="hardAlpha"/>
<feOffset dy="4"/>
<feGaussianBlur stdDeviation="2"/>
<feComposite in2="hardAlpha" operator="out"/>
<feColorMatrix type="matrix" values="0 0 0 0 0 0 0 0 0 0 0 0 0 0 0 0 0 0 0.25 0"/>
<feBlend mode="normal" in2="BackgroundImageFix" result="effect1_dropShadow_10_240"/>
<feBlend mode="normal" in="SourceGraphic" in2="effect1_dropShadow_10_240" result="shape"/>
</filter>
</defs>
</svg>
