<svg width="10" height="10" viewBox="0 0 10 10" fill="none" xmlns="http://www.w3.org/2000/svg">
<path d="M2.74085 6.45083C2.15126 6.80167 0.605431 7.51833 1.5471 8.41542C2.00668 8.85333 2.51876 9.16667 3.16251 9.16667H6.83668C7.48085 9.16667 7.99293 8.85333 8.45251 8.41542C9.39418 7.51833 7.84835 6.80167 7.25876 6.45083C6.57451 6.04661 5.79433 5.83337 4.9996 5.83337C4.20486 5.83337 3.4251 6.04661 2.74085 6.45083ZM6.87501 2.70833C6.87501 3.20561 6.67747 3.68253 6.32584 4.03416C5.97421 4.38579 5.4973 4.58333 5.00001 4.58333C4.50273 4.58333 4.02582 4.38579 3.67419 4.03416C3.32256 3.68253 3.12501 3.20561 3.12501 2.70833C3.12501 2.21105 3.32256 1.73414 3.67419 1.38251C4.02582 1.03088 4.50273 0.833332 5.00001 0.833332C5.4973 0.833332 5.97421 1.03088 6.32584 1.38251C6.67747 1.73414 6.87501 2.21105 6.87501 2.70833Z" stroke="#F8F8F8" stroke-width="0.625" stroke-linecap="round" stroke-linejoin="round"/>
</svg>
