<svg width="24" height="21" viewBox="0 0 24 21" fill="none" xmlns="http://www.w3.org/2000/svg">
<g filter="url(#filter0_d_10_246)">
<path d="M4.66666 12.6667V2.66666H5.99999V9.33333H11.3333V4H16.6667C17.4 4 18.0278 4.26111 18.55 4.78333C19.0722 5.30555 19.3333 5.93333 19.3333 6.66666V12.6667H18V10.6667H5.99999V12.6667H4.66666ZM8.66666 8.66666C8.1111 8.66666 7.63888 8.47222 7.24999 8.08333C6.8611 7.69444 6.66666 7.22222 6.66666 6.66666C6.66666 6.11111 6.8611 5.63889 7.24999 5.25C7.63888 4.86111 8.1111 4.66666 8.66666 4.66666C9.22221 4.66666 9.69443 4.86111 10.0833 5.25C10.4722 5.63889 10.6667 6.11111 10.6667 6.66666C10.6667 7.22222 10.4722 7.69444 10.0833 8.08333C9.69443 8.47222 9.22221 8.66666 8.66666 8.66666ZM12.6667 9.33333H18V6.66666C18 6.3 17.8695 5.98622 17.6087 5.72533C17.3478 5.46444 17.0338 5.33378 16.6667 5.33333H12.6667V9.33333ZM8.66666 7.33333C8.85555 7.33333 9.01399 7.26933 9.14199 7.14133C9.26999 7.01333 9.33377 6.85511 9.33332 6.66666C9.33288 6.47822 9.26888 6.32 9.14132 6.192C9.01377 6.064 8.85555 6 8.66666 6C8.47777 6 8.31955 6.064 8.19199 6.192C8.06443 6.32 8.00043 6.47822 7.99999 6.66666C7.99955 6.85511 8.06355 7.01355 8.19199 7.142C8.32043 7.27044 8.47866 7.33422 8.66666 7.33333Z" fill="white"/>
</g>
<defs>
<filter id="filter0_d_10_246" x="0" y="0" width="24" height="24" filterUnits="userSpaceOnUse" color-interpolation-filters="sRGB">
<feFlood flood-opacity="0" result="BackgroundImageFix"/>
<feColorMatrix in="SourceAlpha" type="matrix" values="0 0 0 0 0 0 0 0 0 0 0 0 0 0 0 0 0 0 127 0" result="hardAlpha"/>
<feOffset dy="4"/>
<feGaussianBlur stdDeviation="2"/>
<feComposite in2="hardAlpha" operator="out"/>
<feColorMatrix type="matrix" values="0 0 0 0 0 0 0 0 0 0 0 0 0 0 0 0 0 0 0.25 0"/>
<feBlend mode="normal" in2="BackgroundImageFix" result="effect1_dropShadow_10_246"/>
<feBlend mode="normal" in="SourceGraphic" in2="effect1_dropShadow_10_246" result="shape"/>
</filter>
</defs>
</svg>
