<svg width="10" height="10" viewBox="0 0 10 10" fill="none" xmlns="http://www.w3.org/2000/svg">
<path d="M2.67875 0.9375C2.76163 0.9375 2.84112 0.970424 2.89972 1.02903C2.95833 1.08763 2.99125 1.16712 2.99125 1.25V2.40083H4.10708C4.14812 2.40083 4.18876 2.40892 4.22667 2.42462C4.26459 2.44033 4.29904 2.46334 4.32805 2.49236C4.35707 2.52138 4.38009 2.55583 4.3958 2.59374C4.4115 2.63166 4.41958 2.6723 4.41958 2.71333C4.41958 2.75437 4.4115 2.79501 4.3958 2.83292C4.38009 2.87084 4.35707 2.90529 4.32805 2.9343C4.29904 2.96332 4.26459 2.98634 4.22667 3.00205C4.18876 3.01775 4.14812 3.02583 4.10708 3.02583H2.99167V4.17667C2.99167 4.25955 2.95874 4.33903 2.90014 4.39764C2.84153 4.45624 2.76205 4.48917 2.67917 4.48917C2.59629 4.48917 2.5168 4.45624 2.4582 4.39764C2.39959 4.33903 2.36667 4.25955 2.36667 4.17667V3.02583H1.25C1.16712 3.02583 1.08763 2.99291 1.02903 2.9343C0.970424 2.8757 0.9375 2.79621 0.9375 2.71333C0.9375 2.63045 0.970424 2.55097 1.02903 2.49236C1.08763 2.43376 1.16712 2.40083 1.25 2.40083H2.36625V1.25C2.36625 1.16712 2.39917 1.08763 2.45778 1.02903C2.51638 0.970424 2.59587 0.9375 2.67875 0.9375ZM5.9375 1.79875C5.9375 1.71587 5.97042 1.63638 6.02903 1.57778C6.08763 1.51917 6.16712 1.48625 6.25 1.48625H8.75C8.83288 1.48625 8.91237 1.51917 8.97097 1.57778C9.02958 1.63638 9.0625 1.71587 9.0625 1.79875C9.0625 1.88163 9.02958 1.96112 8.97097 2.01972C8.91237 2.07833 8.83288 2.11125 8.75 2.11125H6.25C6.16712 2.11125 6.08763 2.07833 6.02903 2.01972C5.97042 1.96112 5.9375 1.88163 5.9375 1.79875ZM5.9375 3.62792C5.9375 3.54504 5.97042 3.46555 6.02903 3.40695C6.08763 3.34834 6.16712 3.31542 6.25 3.31542H8.75C8.83288 3.31542 8.91237 3.34834 8.97097 3.40695C9.02958 3.46555 9.0625 3.54504 9.0625 3.62792C9.0625 3.7108 9.02958 3.79028 8.97097 3.84889C8.91237 3.90749 8.83288 3.94042 8.75 3.94042H6.25C6.16712 3.94042 6.08763 3.90749 6.02903 3.84889C5.97042 3.79028 5.9375 3.7108 5.9375 3.62792ZM6.28167 6.45667C6.34098 6.39886 6.42081 6.36696 6.50362 6.36797C6.58644 6.36899 6.66546 6.40284 6.72333 6.46208L7.51042 7.26792L8.29667 6.46208C8.32534 6.4327 8.35952 6.40925 8.39725 6.39308C8.43498 6.3769 8.47554 6.36832 8.51659 6.36782C8.55764 6.36731 8.59839 6.3749 8.6365 6.39015C8.67462 6.40539 8.70937 6.42799 8.73875 6.45667C8.76813 6.48534 8.79158 6.51952 8.80776 6.55725C8.82393 6.59498 8.83251 6.63554 8.83302 6.67659C8.83352 6.71764 8.82593 6.75839 8.81069 6.7965C8.79544 6.83462 8.77284 6.86937 8.74417 6.89875L7.94708 7.71542L8.74417 8.53167C8.77284 8.56105 8.79544 8.59579 8.81069 8.63391C8.82593 8.67203 8.83352 8.71278 8.83302 8.75383C8.83251 8.79488 8.82393 8.83543 8.80776 8.87317C8.79158 8.9109 8.76813 8.94508 8.73875 8.97375C8.70937 9.00242 8.67462 9.02503 8.6365 9.04027C8.59839 9.05552 8.55764 9.0631 8.51659 9.0626C8.47554 9.0621 8.43498 9.05351 8.39725 9.03734C8.35952 9.02116 8.32534 8.99772 8.29667 8.96833L7.51042 8.1625L6.72375 8.96833C6.69508 8.99772 6.6609 9.02116 6.62317 9.03734C6.58543 9.05351 6.54488 9.0621 6.50383 9.0626C6.46278 9.0631 6.42203 9.05552 6.38391 9.04027C6.34579 9.02503 6.31105 9.00242 6.28167 8.97375C6.25228 8.94508 6.22884 8.9109 6.21266 8.87317C6.19649 8.83543 6.1879 8.79488 6.1874 8.75383C6.1869 8.71278 6.19448 8.67203 6.20973 8.63391C6.22497 8.59579 6.24758 8.56105 6.27625 8.53167L7.07375 7.715L6.27625 6.89833C6.21844 6.83902 6.18654 6.75919 6.18756 6.67638C6.18857 6.59356 6.22242 6.51454 6.28167 6.45667ZM1.11667 7.6525C1.11667 7.56962 1.14959 7.49013 1.2082 7.43153C1.2668 7.37292 1.34629 7.34 1.42917 7.34H3.92917C4.01205 7.34 4.09153 7.37292 4.15014 7.43153C4.20874 7.49013 4.24167 7.56962 4.24167 7.6525C4.24167 7.73538 4.20874 7.81487 4.15014 7.87347C4.09153 7.93208 4.01205 7.965 3.92917 7.965H1.42917C1.34629 7.965 1.2668 7.93208 1.2082 7.87347C1.14959 7.81487 1.11667 7.73538 1.11667 7.6525Z" fill="#F8F8F8"/>
</svg>
