<svg width="10" height="10" viewBox="0 0 10 10" fill="none" xmlns="http://www.w3.org/2000/svg">
<path fill-rule="evenodd" clip-rule="evenodd" d="M5 8.75V6.25H5.625V8.75H8.75V3.125H9.375V8.75C9.375 8.91576 9.30915 9.07473 9.19194 9.19194C9.07473 9.30915 8.91576 9.375 8.75 9.375H1.25C1.08424 9.375 0.925268 9.30915 0.808058 9.19194C0.690848 9.07473 0.625 8.91576 0.625 8.75V7.5H1.25V8.75H5ZM8.03312 2.40875L6.15875 4.28375C6.25901 4.49245 6.27849 4.73087 6.21345 4.95309C6.1484 5.1753 6.00342 5.36558 5.80645 5.48727C5.60947 5.60897 5.37443 5.65346 5.1466 5.61219C4.91877 5.57092 4.71427 5.44681 4.5725 5.26375L2.87625 5.82875L2.5 5.95437C2.49606 6.17551 2.41406 6.38813 2.2685 6.55466C2.12293 6.72118 1.92319 6.83087 1.70456 6.86435C1.48594 6.89783 1.26252 6.85294 1.07379 6.73761C0.885071 6.62228 0.743199 6.44394 0.673258 6.23412C0.603317 6.0243 0.609812 5.7965 0.691593 5.59101C0.773374 5.38551 0.925175 5.21554 1.12016 5.11115C1.31515 5.00676 1.54077 4.97467 1.75713 5.02055C1.97349 5.06643 2.16666 5.18733 2.3025 5.36187L4.375 4.67062C4.37779 4.5137 4.41993 4.36 4.49755 4.22359C4.57518 4.08719 4.68581 3.97246 4.81929 3.88991C4.95278 3.80737 5.10485 3.75966 5.26156 3.75116C5.41828 3.74266 5.57462 3.77363 5.71625 3.84125L7.59125 1.96625C7.49593 1.76669 7.47423 1.53986 7.52998 1.32584C7.58573 1.11183 7.71534 0.924414 7.89591 0.796724C8.07648 0.669035 8.29638 0.609292 8.51674 0.628056C8.7371 0.646819 8.94373 0.742881 9.10011 0.899263C9.25649 1.05564 9.35256 1.26228 9.37132 1.48263C9.39008 1.70299 9.33034 1.92289 9.20265 2.10346C9.07496 2.28403 8.88755 2.41365 8.67353 2.4694C8.45952 2.52515 8.23268 2.50345 8.03312 2.40812" fill="#F8F8F8"/>
</svg>
